<?xml version="1.0" standalone="no"?>
<!DOCTYPE svg PUBLIC "-//W3C//DTD SVG 1.1//EN" "http://www.w3.org/Graphics/SVG/1.1/DTD/svg11.dtd" >
<svg xmlns="http://www.w3.org/2000/svg" xmlns:xlink="http://www.w3.org/1999/xlink" version="1.1">
<metadata>
Created by FontForge 20161116 at Mon Apr 18 00:13:07 2016
 By Jimmy Warting
Copyright \(c\) 2016 by Mateusz Machalski. All rights reserved.
</metadata>
<defs>
<font id="AlergiaNormal-Regular" horiz-adv-x="0" >
  <font-face 
    font-family="Alergia Normal"
    font-weight="700"
    font-stretch="normal"
    units-per-em="1000"
    panose-1="0 0 8 0 0 0 0 0 0 0"
    ascent="800"
    descent="-200"
    x-height="500"
    cap-height="700"
    bbox="-630 -257 1227 1120"
    underline-thickness="50"
    underline-position="-100"
    stemh="80"
    stemv="90"
    unicode-range="U+0020-25CA"
  />
<missing-glyph horiz-adv-x="485" 
d="M398 740v-970h-308v970h308zM323 675h-160v-32h63v-36h-64v-32h161v32h-64v36h64v32zM259 550h-97v-101h161v33h-64v68zM226 517v-35h-32v35h32zM323 423h-161v-32h64v-36h-64v-32h97v68h64v32zM323 365h-32v-64h-129v-33h161v97zM323 246h-97v-54h33v22h32v-45h-97v77
h-32v-109h161v109zM323 78h-161v-109h161v109zM291 46v-45h-97v45h97zM323 -53h-161v-32h68l-68 -46v-32h161v32h-99l68 46h31v32z" />
    <glyph glyph-name=".notdef" horiz-adv-x="485" 
d="M398 740v-970h-308v970h308zM323 675h-160v-32h63v-36h-64v-32h161v32h-64v36h64v32zM259 550h-97v-101h161v33h-64v68zM226 517v-35h-32v35h32zM323 423h-161v-32h64v-36h-64v-32h97v68h64v32zM323 365h-32v-64h-129v-33h161v97zM323 246h-97v-54h33v22h32v-45h-97v77
h-32v-109h161v109zM323 78h-161v-109h161v109zM291 46v-45h-97v45h97zM323 -53h-161v-32h68l-68 -46v-32h161v32h-99l68 46h31v32z" />
    <glyph glyph-name="A" unicode="A" horiz-adv-x="674" 
d="M554 0l-73 190h-295l-71 -190h-100l267 700h105l272 -700h-105zM216 270h235l-119 311z" />
    <glyph glyph-name="Aacute" unicode="&#xc1;" horiz-adv-x="674" 
d="M550 900l-160 -130h-80l120 130h120zM554 0l-73 190h-295l-71 -190h-100l267 700h105l272 -700h-105zM216 270h235l-119 311z" />
    <glyph glyph-name="Abreve" unicode="&#x102;" horiz-adv-x="674" 
d="M340 760c-96 0 -150 57 -160 150h60c15 -51 43 -80 100 -80s85 29 100 80h60c-10 -93 -64 -150 -160 -150zM554 0l-73 190h-295l-71 -190h-100l267 700h105l272 -700h-105zM216 270h235l-119 311z" />
    <glyph glyph-name="uni1EAE" unicode="&#x1eae;" horiz-adv-x="674" 
d="M550 1070l-160 -130h-80l120 130h120zM340 760c-96 0 -150 57 -160 150h60c15 -51 43 -80 100 -80s85 29 100 80h60c-10 -93 -64 -150 -160 -150zM554 0l-73 190h-295l-71 -190h-100l267 700h105l272 -700h-105zM216 270h235l-119 311z" />
    <glyph glyph-name="uni1EB6" unicode="&#x1eb6;" horiz-adv-x="674" 
d="M340 760c-96 0 -150 57 -160 150h60c15 -51 43 -80 100 -80s85 29 100 80h60c-10 -93 -64 -150 -160 -150zM659 0h-105l-73 190h-295l-71 -190h-100l267 700h105zM216 270h235l-119 311zM340 -100c33 0 60 -28 60 -60c0 -33 -27 -60 -60 -60c-32 0 -60 27 -60 60
c0 32 28 60 60 60z" />
    <glyph glyph-name="uni1EB0" unicode="&#x1eb0;" horiz-adv-x="674" 
d="M400 940h-80l-160 130h120zM240 910c15 -51 43 -80 100 -80s85 29 100 80h60c-10 -93 -64 -150 -160 -150s-150 57 -160 150h60zM554 0l-73 190h-295l-71 -190h-100l267 700h105l272 -700h-105zM216 270h235l-119 311z" />
    <glyph glyph-name="uni1EB2" unicode="&#x1eb2;" horiz-adv-x="674" 
d="M337 1071c-20 0 -37 -13 -42 -38h-55c5 57 47 87 97 87s97 -30 97 -87c0 -65 -72 -72 -72 -115h-50c0 63 62 70 62 115c0 25 -17 38 -37 38zM340 760c-96 0 -150 57 -160 150h60c15 -51 43 -80 100 -80s85 29 100 80h60c-10 -93 -64 -150 -160 -150zM554 0l-73 190h-295
l-71 -190h-100l267 700h105l272 -700h-105zM216 270h235l-119 311z" />
    <glyph glyph-name="uni1EB4" unicode="&#x1eb4;" horiz-adv-x="674" 
d="M270 999c-35 0 -45 -27 -55 -64h-60c10 97 60 134 115 134c80 0 92 -64 140 -64c35 0 45 27 55 64h60c-10 -97 -60 -134 -115 -134c-80 0 -92 64 -140 64zM340 830c57 0 85 29 100 80h60c-10 -93 -64 -150 -160 -150s-150 57 -160 150h60c15 -51 43 -80 100 -80zM554 0
l-73 190h-295l-71 -190h-100l267 700h105l272 -700h-105zM216 270h235l-119 311z" />
    <glyph glyph-name="uni01CD" unicode="&#x1cd;" horiz-adv-x="674" 
d="M375 770h-70l-130 130h110l55 -79l55 79h110zM554 0l-73 190h-295l-71 -190h-100l267 700h105l272 -700h-105zM216 270h235l-119 311z" />
    <glyph glyph-name="Acircumflex" unicode="&#xc2;" horiz-adv-x="674" 
d="M340 849l-55 -79h-110l130 130h70l130 -130h-110zM554 0l-73 190h-295l-71 -190h-100l267 700h105l272 -700h-105zM216 270h235l-119 311z" />
    <glyph glyph-name="uni1EA4" unicode="&#x1ea4;" horiz-adv-x="674" 
d="M695 1000l-160 -130h-80l120 130h120zM340 849l-55 -79h-110l130 130h70l130 -130h-110zM387 700l272 -700h-105l-73 190h-295l-71 -190h-100l267 700h105zM216 270h235l-119 311z" />
    <glyph glyph-name="uni1EAC" unicode="&#x1eac;" horiz-adv-x="674" 
d="M340 849l-55 -79h-110l130 130h70l130 -130h-110zM659 0h-105l-73 190h-295l-71 -190h-100l267 700h105zM216 270h235l-119 311zM340 -100c33 0 60 -28 60 -60c0 -33 -27 -60 -60 -60c-32 0 -60 27 -60 60c0 32 28 60 60 60z" />
    <glyph glyph-name="uni1EA6" unicode="&#x1ea6;" horiz-adv-x="674" 
d="M545 870h-80l-160 130h120zM340 849l-55 -79h-110l130 130h70l130 -130h-110zM554 0l-73 190h-295l-71 -190h-100l267 700h105l272 -700h-105zM216 270h235l-119 311z" />
    <glyph glyph-name="uni1EA8" unicode="&#x1ea8;" horiz-adv-x="674" 
d="M482 1001c-20 0 -37 -13 -42 -38h-55c5 57 47 87 97 87s97 -30 97 -87c0 -65 -72 -72 -72 -115h-50c0 63 62 70 62 115c0 25 -17 38 -37 38zM340 849l-55 -79h-110l130 130h70l130 -130h-110zM554 0l-73 190h-295l-71 -190h-100l267 700h105l272 -700h-105zM216 270h235
l-119 311z" />
    <glyph glyph-name="uni1EAA" unicode="&#x1eaa;" horiz-adv-x="674" 
d="M750 1009h60c-10 -97 -60 -134 -115 -134c-80 0 -92 64 -140 64c-35 0 -45 -27 -55 -64h-60c10 97 60 134 115 134c80 0 92 -64 140 -64c35 0 45 27 55 64zM340 849l-55 -79h-110l130 130h70l130 -130h-110zM387 700l272 -700h-105l-73 190h-295l-71 -190h-100l267 700
h105zM216 270h235l-119 311z" />
    <glyph glyph-name="Adieresis" unicode="&#xc4;" horiz-adv-x="674" 
d="M240 775c-31 0 -57 26 -57 58c0 30 26 57 57 57s57 -27 57 -57c0 -32 -26 -58 -57 -58zM440 775c-31 0 -57 26 -57 58c0 30 26 57 57 57s57 -27 57 -57c0 -32 -26 -58 -57 -58zM554 0l-73 190h-295l-71 -190h-100l267 700h105l272 -700h-105zM216 270h235l-119 311z" />
    <glyph glyph-name="uni1EA0" unicode="&#x1ea0;" horiz-adv-x="674" 
d="M659 0h-105l-73 190h-295l-71 -190h-100l267 700h105zM216 270h235l-119 311zM340 -100c33 0 60 -28 60 -60c0 -33 -27 -60 -60 -60c-32 0 -60 27 -60 60c0 32 28 60 60 60z" />
    <glyph glyph-name="Agrave" unicode="&#xc0;" horiz-adv-x="674" 
d="M400 770h-80l-160 130h120zM554 0l-73 190h-295l-71 -190h-100l267 700h105l272 -700h-105zM216 270h235l-119 311z" />
    <glyph glyph-name="uni1EA2" unicode="&#x1ea2;" horiz-adv-x="674" 
d="M337 901c-20 0 -37 -13 -42 -38h-55c5 57 47 87 97 87s97 -30 97 -87c0 -65 -72 -72 -72 -115h-50c0 63 62 70 62 115c0 25 -17 38 -37 38zM554 0l-73 190h-295l-71 -190h-100l267 700h105l272 -700h-105zM216 270h235l-119 311z" />
    <glyph glyph-name="Amacron" unicode="&#x100;" horiz-adv-x="674" 
d="M500 860v-70h-320v70h320zM554 0l-73 190h-295l-71 -190h-100l267 700h105l272 -700h-105zM216 270h235l-119 311z" />
    <glyph glyph-name="Aogonek" unicode="&#x104;" horiz-adv-x="674" 
d="M631 0c-54 -27 -96 -68 -96 -114c0 -31 16 -51 47 -51c16 0 34 5 49 11v-60c-22 -11 -47 -16 -72 -16c-71 0 -109 42 -109 96c0 52 36 97 103 137l-72 187h-295l-71 -190h-100l267 700h105l272 -700h-28zM216 270h235l-119 311z" />
    <glyph glyph-name="Aring" unicode="&#xc5;" horiz-adv-x="674" 
d="M554 0l-73 190h-295l-71 -190h-100l257 674c-28 20 -47 53 -47 91c0 61 49 110 110 110s110 -49 110 -110c0 -38 -19 -71 -48 -91l262 -674h-105zM335 817c-29 0 -50 -24 -50 -52s21 -52 50 -52s50 24 50 52s-21 52 -50 52zM216 270h235l-119 311z" />
    <glyph glyph-name="Atilde" unicode="&#xc3;" horiz-adv-x="674" 
d="M270 829c-35 0 -45 -27 -55 -64h-60c10 97 60 134 115 134c80 0 92 -64 140 -64c35 0 45 27 55 64h60c-10 -97 -60 -134 -115 -134c-80 0 -92 64 -140 64zM554 0l-73 190h-295l-71 -190h-100l267 700h105l272 -700h-105zM216 270h235l-119 311z" />
    <glyph glyph-name="AE" unicode="&#xc6;" horiz-adv-x="975" 
d="M545 80h375v-80h-460h-10v190h-258l-77 -190h-100l287 700h158h85h365v-80h-365v-215h335v-80h-335v-245zM225 270h225v350h-83z" />
    <glyph glyph-name="AEacute" unicode="&#x1fc;" horiz-adv-x="975" 
d="M740 940l-130 -160h-70l90 160h110zM545 80h375v-80h-460h-10v190h-258l-77 -190h-100l287 700h158h85h365v-80h-365v-215h335v-80h-335v-245zM225 270h225v350h-83z" />
    <glyph glyph-name="B" unicode="B" horiz-adv-x="670" 
d="M478 369c83 -24 147 -77 147 -179c0 -127 -112 -190 -245 -190h-285h-10v700h95h170c133 0 240 -58 240 -185c0 -66 -45 -118 -112 -146zM330 620h-150v-215h170c94 0 140 38 140 100c0 77 -56 115 -160 115zM360 80c104 0 160 28 160 115c0 92 -56 130 -170 130h-170
v-245h180z" />
    <glyph glyph-name="C" unicode="C" horiz-adv-x="705" 
d="M380 70c81 0 150 40 180 140h95c-31 -145 -132 -220 -275 -220c-194 0 -325 140 -325 360s131 360 325 360c143 0 244 -75 275 -220h-95c-30 100 -99 140 -180 140c-139 0 -220 -106 -220 -280s81 -280 220 -280z" />
    <glyph glyph-name="Cacute" unicode="&#x106;" horiz-adv-x="705" 
d="M333 770l120 130h120l-160 -130h-80zM380 70c81 0 150 40 180 140h95c-31 -145 -132 -220 -275 -220c-194 0 -325 140 -325 360s131 360 325 360c143 0 244 -75 275 -220h-95c-30 100 -99 140 -180 140c-139 0 -220 -106 -220 -280s81 -280 220 -280z" />
    <glyph glyph-name="Ccaron" unicode="&#x10c;" horiz-adv-x="705" 
d="M398 770h-70l-130 130h110l55 -79l55 79h110zM380 70c81 0 150 40 180 140h95c-31 -145 -132 -220 -275 -220c-194 0 -325 140 -325 360s131 360 325 360c143 0 244 -75 275 -220h-95c-30 100 -99 140 -180 140c-139 0 -220 -106 -220 -280s81 -280 220 -280z" />
    <glyph glyph-name="Ccedilla" unicode="&#xc7;" horiz-adv-x="705" 
d="M380 70c81 0 150 40 180 140h95c-31 -144 -130 -219 -271 -220l-15 -50c69 13 121 -14 121 -74c0 -62 -56 -96 -117 -96c-35 0 -55 7 -78 19v52c23 -13 43 -21 68 -21c30 0 57 12 57 41c0 51 -73 42 -125 24l35 108c-166 23 -275 157 -275 357c0 220 131 360 325 360
c143 0 244 -75 275 -220h-95c-30 100 -99 140 -180 140c-139 0 -220 -106 -220 -280s81 -280 220 -280z" />
    <glyph glyph-name="Cdotaccent" unicode="&#x10a;" horiz-adv-x="705" 
d="M363 770c-32 0 -60 27 -60 60c0 32 28 60 60 60c33 0 60 -28 60 -60c0 -33 -27 -60 -60 -60zM380 70c81 0 150 40 180 140h95c-31 -145 -132 -220 -275 -220c-194 0 -325 140 -325 360s131 360 325 360c143 0 244 -75 275 -220h-95c-30 100 -99 140 -180 140
c-139 0 -220 -106 -220 -280s81 -280 220 -280z" />
    <glyph glyph-name="D" unicode="D" horiz-adv-x="715" 
d="M330 700c194 0 335 -130 335 -350s-141 -350 -335 -350h-230h-10v700h95h145zM320 80c139 0 240 96 240 270s-101 270 -240 270h-135v-540h135z" />
    <glyph glyph-name="Eth" unicode="&#xd0;" horiz-adv-x="715" 
d="M330 700c194 0 335 -130 335 -350s-141 -350 -335 -350h-230h-10v318h-95v70h95v312h95h145zM320 80c139 0 240 96 240 270s-101 270 -240 270h-135v-232h130v-70h-130v-238h135z" />
    <glyph glyph-name="Dcaron" unicode="&#x10e;" horiz-adv-x="715" 
d="M398 770h-70l-130 130h110l55 -79l55 79h110zM330 700c194 0 335 -130 335 -350s-141 -350 -335 -350h-230h-10v700h95h145zM320 80c139 0 240 96 240 270s-101 270 -240 270h-135v-540h135z" />
    <glyph glyph-name="Dcroat" unicode="&#x110;" horiz-adv-x="715" 
d="M330 700c194 0 335 -130 335 -350s-141 -350 -335 -350h-230h-10v318h-95v70h95v312h95h145zM320 80c139 0 240 96 240 270s-101 270 -240 270h-135v-232h130v-70h-130v-238h135z" />
    <glyph glyph-name="E" unicode="E" horiz-adv-x="615" 
d="M185 80h375v-80h-460h-10v700h95h365v-80h-365v-215h335v-80h-335v-245z" />
    <glyph glyph-name="Eacute" unicode="&#xc9;" horiz-adv-x="615" 
d="M535 900l-160 -130h-80l120 130h120zM185 80h375v-80h-460h-10v700h95h365v-80h-365v-215h335v-80h-335v-245z" />
    <glyph glyph-name="Ecaron" unicode="&#x11a;" horiz-adv-x="615" 
d="M360 770h-70l-130 130h110l55 -79l55 79h110zM185 80h375v-80h-460h-10v700h95h365v-80h-365v-215h335v-80h-335v-245z" />
    <glyph glyph-name="Ecircumflex" unicode="&#xca;" horiz-adv-x="615" 
d="M325 849l-55 -79h-110l130 130h70l130 -130h-110zM185 80h375v-80h-460h-10v700h95h365v-80h-365v-215h335v-80h-335v-245z" />
    <glyph glyph-name="uni1EBE" unicode="&#x1ebe;" horiz-adv-x="615" 
d="M680 1000l-160 -130h-80l120 130h120zM325 849l-55 -79h-110l130 130h70l130 -130h-110zM185 325v-245h375v-80h-460h-10v700h95h365v-80h-365v-215h335v-80h-335z" />
    <glyph glyph-name="uni1EC6" unicode="&#x1ec6;" horiz-adv-x="615" 
d="M325 849l-55 -79h-110l130 130h70l130 -130h-110zM185 80h375v-80h-460h-10v700h95h365v-80h-365v-215h335v-80h-335v-245zM325 -100c33 0 60 -28 60 -60c0 -33 -27 -60 -60 -60c-32 0 -60 27 -60 60c0 32 28 60 60 60z" />
    <glyph glyph-name="uni1EC0" unicode="&#x1ec0;" horiz-adv-x="615" 
d="M530 870h-80l-160 130h120zM325 849l-55 -79h-110l130 130h70l130 -130h-110zM185 80h375v-80h-460h-10v700h95h365v-80h-365v-215h335v-80h-335v-245z" />
    <glyph glyph-name="uni1EC2" unicode="&#x1ec2;" horiz-adv-x="615" 
d="M467 1001c-20 0 -37 -13 -42 -38h-55c5 57 47 87 97 87s97 -30 97 -87c0 -65 -72 -72 -72 -115h-50c0 63 62 70 62 115c0 25 -17 38 -37 38zM325 849l-55 -79h-110l130 130h70l130 -130h-110zM185 325v-245h375v-80h-460h-10v700h95h365v-80h-365v-215h335v-80h-335z" />
    <glyph glyph-name="uni1EC4" unicode="&#x1ec4;" horiz-adv-x="615" 
d="M735 1009h60c-10 -97 -60 -134 -115 -134c-80 0 -92 64 -140 64c-35 0 -45 -27 -55 -64h-60c10 97 60 134 115 134c80 0 92 -64 140 -64c35 0 45 27 55 64zM325 849l-55 -79h-110l130 130h70l130 -130h-110zM185 325v-245h375v-80h-460h-10v700h95h365v-80h-365v-215h335
v-80h-335z" />
    <glyph glyph-name="Edieresis" unicode="&#xcb;" horiz-adv-x="615" 
d="M225 775c-31 0 -57 26 -57 58c0 30 26 57 57 57s57 -27 57 -57c0 -32 -26 -58 -57 -58zM425 775c-31 0 -57 26 -57 58c0 30 26 57 57 57s57 -27 57 -57c0 -32 -26 -58 -57 -58zM185 80h375v-80h-460h-10v700h95h365v-80h-365v-215h335v-80h-335v-245z" />
    <glyph glyph-name="Edotaccent" unicode="&#x116;" horiz-adv-x="615" 
d="M325 770c-32 0 -60 27 -60 60c0 32 28 60 60 60c33 0 60 -28 60 -60c0 -33 -27 -60 -60 -60zM185 80h375v-80h-460h-10v700h95h365v-80h-365v-215h335v-80h-335v-245z" />
    <glyph glyph-name="uni1EB8" unicode="&#x1eb8;" horiz-adv-x="615" 
d="M185 80h375v-80h-460h-10v700h95h365v-80h-365v-215h335v-80h-335v-245zM325 -100c33 0 60 -28 60 -60c0 -33 -27 -60 -60 -60c-32 0 -60 27 -60 60c0 32 28 60 60 60z" />
    <glyph glyph-name="Egrave" unicode="&#xc8;" horiz-adv-x="615" 
d="M385 770h-80l-160 130h120zM185 80h375v-80h-460h-10v700h95h365v-80h-365v-215h335v-80h-335v-245z" />
    <glyph glyph-name="uni1EBA" unicode="&#x1eba;" horiz-adv-x="615" 
d="M322 901c-20 0 -37 -13 -42 -38h-55c5 57 47 87 97 87s97 -30 97 -87c0 -65 -72 -72 -72 -115h-50c0 63 62 70 62 115c0 25 -17 38 -37 38zM185 80h375v-80h-460h-10v700h95h365v-80h-365v-215h335v-80h-335v-245z" />
    <glyph glyph-name="Emacron" unicode="&#x112;" horiz-adv-x="615" 
d="M485 860v-70h-320v70h320zM185 80h375v-80h-460h-10v700h95h365v-80h-365v-215h335v-80h-335v-245z" />
    <glyph glyph-name="Eogonek" unicode="&#x118;" horiz-adv-x="615" 
d="M560 0c-54 -27 -96 -68 -96 -114c0 -31 16 -51 47 -51c16 0 34 5 49 11v-60c-22 -11 -47 -16 -72 -16c-71 0 -109 42 -109 96c0 51 34 95 97 134h-376h-10v700h95h365v-80h-365v-215h335v-80h-335v-245h375v-80z" />
    <glyph glyph-name="uni1EBC" unicode="&#x1ebc;" horiz-adv-x="615" 
d="M255 829c-35 0 -45 -27 -55 -64h-60c10 97 60 134 115 134c80 0 92 -64 140 -64c35 0 45 27 55 64h60c-10 -97 -60 -134 -115 -134c-80 0 -92 64 -140 64zM185 80h375v-80h-460h-10v700h95h365v-80h-365v-215h335v-80h-335v-245z" />
    <glyph glyph-name="F" unicode="F" horiz-adv-x="565" 
d="M525 620h-345v-235h335v-80h-335v-305h-95v700h95h345v-80z" />
    <glyph glyph-name="G" unicode="G" horiz-adv-x="745" 
d="M415 360h240v-360h-75l-6 83c-42 -64 -114 -93 -198 -93c-186 0 -316 140 -316 360s131 360 325 360c143 0 244 -75 275 -220h-95c-30 100 -99 140 -180 140c-129 0 -220 -106 -220 -280s90 -280 221 -280c99 0 185 60 184 220h-155v70z" />
    <glyph glyph-name="Gbreve" unicode="&#x11e;" horiz-adv-x="745" 
d="M380 760c-96 0 -150 57 -160 150h60c15 -51 43 -80 100 -80s85 29 100 80h60c-10 -93 -64 -150 -160 -150zM415 360h240v-360h-75l-6 83c-42 -64 -114 -93 -198 -93c-186 0 -316 140 -316 360s131 360 325 360c143 0 244 -75 275 -220h-95c-30 100 -99 140 -180 140
c-129 0 -220 -106 -220 -280s90 -280 221 -280c99 0 185 60 184 220h-155v70z" />
    <glyph glyph-name="Gcommaaccent" unicode="&#x122;" horiz-adv-x="745" 
d="M415 360h240v-360h-75l-6 83c-42 -64 -114 -93 -198 -93c-186 0 -316 140 -316 360s131 360 325 360c143 0 244 -75 275 -220h-95c-30 100 -99 140 -180 140c-129 0 -220 -106 -220 -280s90 -280 221 -280c99 0 185 60 184 220h-155v70zM320 -257l33 157h82l-57 -157h-58
z" />
    <glyph glyph-name="Gdotaccent" unicode="&#x120;" horiz-adv-x="745" 
d="M380 770c-32 0 -60 27 -60 60c0 32 28 60 60 60c33 0 60 -28 60 -60c0 -33 -27 -60 -60 -60zM415 360h240v-360h-75l-6 83c-42 -64 -114 -93 -198 -93c-186 0 -316 140 -316 360s131 360 325 360c143 0 244 -75 275 -220h-95c-30 100 -99 140 -180 140
c-129 0 -220 -106 -220 -280s90 -280 221 -280c99 0 185 60 184 220h-155v70z" />
    <glyph glyph-name="H" unicode="H" horiz-adv-x="760" 
d="M580 700h95v-700h-95v325h-400v-325h-95v700h95v-295h400v295z" />
    <glyph glyph-name="Hbar" unicode="&#x126;" horiz-adv-x="740" 
d="M735 585v-60h-60v-525h-95v325h-400v-325h-95v525h-81v60h81v115h95v-115h400v115h95v-115h60zM580 405v120h-400v-120h400z" />
    <glyph glyph-name="I" unicode="I" horiz-adv-x="275" 
d="M90 700h95v-700h-95v700z" />
    <glyph glyph-name="Iacute" unicode="&#xcd;" horiz-adv-x="275" 
d="M108 770l120 130h120l-160 -130h-80zM90 700h95v-700h-95v700z" />
    <glyph glyph-name="uni01CF" unicode="&#x1cf;" horiz-adv-x="275" 
d="M173 770h-70l-130 130h110l55 -79l55 79h110zM90 0v700h95v-700h-95z" />
    <glyph glyph-name="Icircumflex" unicode="&#xce;" horiz-adv-x="275" 
d="M173 900l130 -130h-110l-55 79l-55 -79h-110l130 130h70zM90 0v700h95v-700h-95z" />
    <glyph glyph-name="Idieresis" unicode="&#xcf;" horiz-adv-x="275" 
d="M38 775c-31 0 -57 26 -57 58c0 30 26 57 57 57s57 -27 57 -57c0 -32 -26 -58 -57 -58zM238 775c-31 0 -57 26 -57 58c0 30 26 57 57 57s57 -27 57 -57c0 -32 -26 -58 -57 -58zM90 700h95v-700h-95v700z" />
    <glyph glyph-name="Idotaccent" unicode="&#x130;" horiz-adv-x="275" 
d="M138 770c-32 0 -60 27 -60 60c0 32 28 60 60 60c33 0 60 -28 60 -60c0 -33 -27 -60 -60 -60zM90 700h95v-700h-95v700z" />
    <glyph glyph-name="uni1ECA" unicode="&#x1eca;" horiz-adv-x="275" 
d="M90 700h95v-700h-95v700zM138 -220c-32 0 -60 27 -60 60c0 32 28 60 60 60c33 0 60 -28 60 -60c0 -33 -27 -60 -60 -60z" />
    <glyph glyph-name="Igrave" unicode="&#xcc;" horiz-adv-x="275" 
d="M198 770h-80l-160 130h120zM90 700h95v-700h-95v700z" />
    <glyph glyph-name="uni1EC8" unicode="&#x1ec8;" horiz-adv-x="275" 
d="M135 950c50 0 97 -30 97 -87c0 -65 -72 -72 -72 -115h-50c0 63 62 70 62 115c0 25 -17 38 -37 38s-37 -13 -42 -38h-55c5 57 47 87 97 87zM90 0v700h95v-700h-95z" />
    <glyph glyph-name="Imacron" unicode="&#x12a;" horiz-adv-x="275" 
d="M-22 790v70h320v-70h-320zM90 700h95v-700h-95v700z" />
    <glyph glyph-name="Iogonek" unicode="&#x12e;" horiz-adv-x="275" 
d="M90 700h95v-700h-27c-54 -27 -96 -68 -96 -114c0 -31 16 -51 47 -51c16 0 34 5 49 11v-60c-22 -11 -47 -16 -72 -16c-71 0 -109 42 -109 96c0 55 40 102 113 143v691z" />
    <glyph glyph-name="Itilde" unicode="&#x128;" horiz-adv-x="275" 
d="M263 899h60c-10 -97 -60 -134 -115 -134c-80 0 -92 64 -140 64c-35 0 -45 -27 -55 -64h-60c10 97 60 134 115 134c80 0 92 -64 140 -64c35 0 45 27 55 64zM90 0v700h95v-700h-95z" />
    <glyph glyph-name="J" unicode="J" horiz-adv-x="425" 
d="M245 700h95v-555c0 -95 -65 -155 -160 -155s-155 60 -155 160h90c0 -55 25 -80 65 -80s65 25 65 85v545z" />
    <glyph glyph-name="K" unicode="K" horiz-adv-x="680" 
d="M680 0h-115l-260 316l-125 -136v-180h-95v700h95v-390l365 390h115l-289 -313z" />
    <glyph glyph-name="Kcommaaccent" unicode="&#x136;" horiz-adv-x="680" 
d="M371 387l309 -387h-115l-260 316l-125 -136v-180h-95v700h95v-390l365 390h115zM270 -257l33 157h82l-57 -157h-58z" />
    <glyph glyph-name="L" unicode="L" horiz-adv-x="565" 
d="M180 80h365v-80h-450h-10v700h95v-620z" />
    <glyph glyph-name="Lacute" unicode="&#x139;" horiz-adv-x="565" 
d="M301 940l-130 -160h-70l90 160h110zM180 80h365v-80h-450h-10v700h95v-620z" />
    <glyph glyph-name="Lcaron" unicode="&#x13d;" horiz-adv-x="565" 
d="M505 740l-30 -180h-60v180h90zM180 80h365v-80h-450h-10v700h95v-620z" />
    <glyph glyph-name="Lcommaaccent" unicode="&#x13b;" horiz-adv-x="565" 
d="M180 80h365v-80h-450h-10v700h95v-620zM245 -257l33 157h82l-57 -157h-58z" />
    <glyph glyph-name="Lslash" unicode="&#x141;" horiz-adv-x="596" 
d="M211 80h365v-80h-450h-10v234l-106 -64v90l106 64v376h95v-318l228 138v-90l-228 -138v-212z" />
    <glyph glyph-name="M" unicode="M" horiz-adv-x="870" 
d="M710 700h80v-700h-95v475l-240 -409h-40l-240 409v-475h-95v700h80l275 -484z" />
    <glyph glyph-name="N" unicode="N" horiz-adv-x="770" 
d="M590 700h95v-700h-75l-430 522v-522h-95v700h75l430 -522v522z" />
    <glyph glyph-name="Nacute" unicode="&#x143;" horiz-adv-x="770" 
d="M595 900l-160 -130h-80l120 130h120zM590 700h95v-700h-75l-430 522v-522h-95v700h75l430 -522v522z" />
    <glyph glyph-name="Ncaron" unicode="&#x147;" horiz-adv-x="770" 
d="M420 770h-70l-130 130h110l55 -79l55 79h110zM590 700h95v-700h-75l-430 522v-522h-95v700h75l430 -522v522z" />
    <glyph glyph-name="Ncommaaccent" unicode="&#x145;" horiz-adv-x="770" 
d="M590 700h95v-700h-75l-430 522v-522h-95v700h75l430 -522v522zM325 -257l33 157h82l-57 -157h-58z" />
    <glyph glyph-name="Eng" unicode="&#x14a;" horiz-adv-x="770" 
d="M590 700h95v-700v-55c0 -105 -65 -175 -210 -175v80c90 0 115 35 115 105v69l-410 498v-522h-95v700h75l430 -522v522z" />
    <glyph glyph-name="Ntilde" unicode="&#xd1;" horiz-adv-x="770" 
d="M315 829c-35 0 -45 -27 -55 -64h-60c10 97 60 134 115 134c80 0 92 -64 140 -64c35 0 45 27 55 64h60c-10 -97 -60 -134 -115 -134c-80 0 -92 64 -140 64zM590 700h95v-700h-75l-430 522v-522h-95v700h75l430 -522v522z" />
    <glyph glyph-name="O" unicode="O" horiz-adv-x="750" 
d="M375 710c194 0 325 -140 325 -360s-131 -360 -325 -360s-325 140 -325 360s131 360 325 360zM375 70c129 0 220 106 220 280s-91 280 -220 280s-220 -106 -220 -280s91 -280 220 -280z" />
    <glyph glyph-name="Oacute" unicode="&#xd3;" horiz-adv-x="750" 
d="M345 770l120 130h120l-160 -130h-80zM375 710c194 0 325 -140 325 -360s-131 -360 -325 -360s-325 140 -325 360s131 360 325 360zM375 70c129 0 220 106 220 280s-91 280 -220 280s-220 -106 -220 -280s91 -280 220 -280z" />
    <glyph glyph-name="uni01D1" unicode="&#x1d1;" horiz-adv-x="750" 
d="M410 770h-70l-130 130h110l55 -79l55 79h110zM375 710c194 0 325 -140 325 -360s-131 -360 -325 -360s-325 140 -325 360s131 360 325 360zM375 70c129 0 220 106 220 280s-91 280 -220 280s-220 -106 -220 -280s91 -280 220 -280z" />
    <glyph glyph-name="Ocircumflex" unicode="&#xd4;" horiz-adv-x="750" 
d="M375 849l-55 -79h-110l130 130h70l130 -130h-110zM375 710c194 0 325 -140 325 -360s-131 -360 -325 -360s-325 140 -325 360s131 360 325 360zM375 70c129 0 220 106 220 280s-91 280 -220 280s-220 -106 -220 -280s91 -280 220 -280z" />
    <glyph glyph-name="uni1ED0" unicode="&#x1ed0;" horiz-adv-x="750" 
d="M700 1050l-130 -160h-70l90 160h110zM375 884l-65 -104h-100l130 160h70l130 -160h-100zM375 710c194 0 325 -140 325 -360s-131 -360 -325 -360s-325 140 -325 360s131 360 325 360zM375 70c129 0 220 106 220 280s-91 280 -220 280s-220 -106 -220 -280
s91 -280 220 -280z" />
    <glyph glyph-name="uni1ED8" unicode="&#x1ed8;" horiz-adv-x="750" 
d="M375 884l-65 -104h-100l130 160h70l130 -160h-100zM375 710c194 0 325 -140 325 -360s-131 -360 -325 -360s-325 140 -325 360s131 360 325 360zM375 70c129 0 220 106 220 280s-91 280 -220 280s-220 -106 -220 -280s91 -280 220 -280zM375 -100c33 0 60 -28 60 -60
c0 -33 -27 -60 -60 -60c-32 0 -60 27 -60 60c0 32 28 60 60 60z" />
    <glyph glyph-name="uni1ED2" unicode="&#x1ed2;" horiz-adv-x="750" 
d="M590 890h-70l-130 160h110zM375 884l-65 -104h-100l130 160h70l130 -160h-100zM375 710c194 0 325 -140 325 -360s-131 -360 -325 -360s-325 140 -325 360s131 360 325 360zM375 70c129 0 220 106 220 280s-91 280 -220 280s-220 -106 -220 -280s91 -280 220 -280z" />
    <glyph glyph-name="uni1ED4" unicode="&#x1ed4;" horiz-adv-x="750" 
d="M527 1011c-20 0 -37 -13 -42 -38h-55c5 57 47 87 97 87s97 -30 97 -87c0 -65 -72 -72 -72 -115h-50c0 63 62 70 62 115c0 25 -17 38 -37 38zM375 884l-65 -104h-100l130 160h70l130 -160h-100zM375 710c194 0 325 -140 325 -360s-131 -360 -325 -360s-325 140 -325 360
s131 360 325 360zM375 70c129 0 220 106 220 280s-91 280 -220 280s-220 -106 -220 -280s91 -280 220 -280z" />
    <glyph glyph-name="uni1ED6" unicode="&#x1ed6;" horiz-adv-x="750" 
d="M785 1039h60c-10 -97 -60 -134 -115 -134c-80 0 -92 64 -140 64c-35 0 -45 -27 -55 -64h-60c10 97 60 134 115 134c80 0 92 -64 140 -64c35 0 45 27 55 64zM375 884l-65 -104h-100l130 160h70l130 -160h-100zM375 710c194 0 325 -140 325 -360s-131 -360 -325 -360
s-325 140 -325 360s131 360 325 360zM375 70c129 0 220 106 220 280s-91 280 -220 280s-220 -106 -220 -280s91 -280 220 -280z" />
    <glyph glyph-name="Odieresis" unicode="&#xd6;" horiz-adv-x="750" 
d="M275 775c-31 0 -57 26 -57 58c0 30 26 57 57 57s57 -27 57 -57c0 -32 -26 -58 -57 -58zM475 775c-31 0 -57 26 -57 58c0 30 26 57 57 57s57 -27 57 -57c0 -32 -26 -58 -57 -58zM375 710c194 0 325 -140 325 -360s-131 -360 -325 -360s-325 140 -325 360s131 360 325 360z
M375 70c129 0 220 106 220 280s-91 280 -220 280s-220 -106 -220 -280s91 -280 220 -280z" />
    <glyph glyph-name="uni1ECC" unicode="&#x1ecc;" horiz-adv-x="750" 
d="M375 710c194 0 325 -140 325 -360s-131 -360 -325 -360s-325 140 -325 360s131 360 325 360zM375 70c129 0 220 106 220 280s-91 280 -220 280s-220 -106 -220 -280s91 -280 220 -280zM375 -220c-32 0 -60 27 -60 60c0 32 28 60 60 60c33 0 60 -28 60 -60
c0 -33 -27 -60 -60 -60z" />
    <glyph glyph-name="Ograve" unicode="&#xd2;" horiz-adv-x="750" 
d="M435 770h-80l-160 130h120zM375 710c194 0 325 -140 325 -360s-131 -360 -325 -360s-325 140 -325 360s131 360 325 360zM375 70c129 0 220 106 220 280s-91 280 -220 280s-220 -106 -220 -280s91 -280 220 -280z" />
    <glyph glyph-name="uni1ECE" unicode="&#x1ece;" horiz-adv-x="750" 
d="M372 901c-20 0 -37 -13 -42 -38h-55c5 57 47 87 97 87s97 -30 97 -87c0 -65 -72 -72 -72 -115h-50c0 63 62 70 62 115c0 25 -17 38 -37 38zM375 710c194 0 325 -140 325 -360s-131 -360 -325 -360s-325 140 -325 360s131 360 325 360zM375 70c129 0 220 106 220 280
s-91 280 -220 280s-220 -106 -220 -280s91 -280 220 -280z" />
    <glyph glyph-name="Ohorn" unicode="&#x1a0;" horiz-adv-x="750" 
d="M765 670c0 -65 -39 -121 -97 -148c21 -50 32 -107 32 -172c0 -220 -131 -360 -325 -360s-325 140 -325 360s131 360 325 360c111 0 202 -46 259 -127c28 16 41 48 41 87c0 10 -1 20 -2 30h90c1 -10 2 -20 2 -30zM375 70c129 0 220 106 220 280s-91 280 -220 280
s-220 -106 -220 -280s91 -280 220 -280z" />
    <glyph glyph-name="uni1EDA" unicode="&#x1eda;" horiz-adv-x="750" 
d="M585 900l-160 -130h-80l120 130h120zM765 670c0 -65 -39 -121 -97 -148c21 -50 32 -107 32 -172c0 -220 -131 -360 -325 -360s-325 140 -325 360s131 360 325 360c111 0 202 -46 259 -127c28 16 41 48 41 87c0 10 -1 20 -2 30h90c1 -10 2 -20 2 -30zM375 70
c129 0 220 106 220 280s-91 280 -220 280s-220 -106 -220 -280s91 -280 220 -280z" />
    <glyph glyph-name="uni1EE2" unicode="&#x1ee2;" horiz-adv-x="750" 
d="M765 670c0 -65 -39 -121 -97 -148c21 -50 32 -107 32 -172c0 -220 -131 -360 -325 -360s-325 140 -325 360s131 360 325 360c111 0 202 -46 259 -127c28 16 41 48 41 87c0 10 -1 20 -2 30h90c1 -10 2 -20 2 -30zM375 70c129 0 220 106 220 280s-91 280 -220 280
s-220 -106 -220 -280s91 -280 220 -280zM375 -100c33 0 60 -28 60 -60c0 -33 -27 -60 -60 -60c-32 0 -60 27 -60 60c0 32 28 60 60 60z" />
    <glyph glyph-name="uni1EDC" unicode="&#x1edc;" horiz-adv-x="750" 
d="M435 770h-80l-160 130h120zM765 670c0 -65 -39 -121 -97 -148c21 -50 32 -107 32 -172c0 -220 -131 -360 -325 -360s-325 140 -325 360s131 360 325 360c111 0 202 -46 259 -127c28 16 41 48 41 87c0 10 -1 20 -2 30h90c1 -10 2 -20 2 -30zM375 70c129 0 220 106 220 280
s-91 280 -220 280s-220 -106 -220 -280s91 -280 220 -280z" />
    <glyph glyph-name="uni1EDE" unicode="&#x1ede;" horiz-adv-x="750" 
d="M372 901c-20 0 -37 -13 -42 -38h-55c5 57 47 87 97 87s97 -30 97 -87c0 -65 -72 -72 -72 -115h-50c0 63 62 70 62 115c0 25 -17 38 -37 38zM765 670c0 -65 -39 -121 -97 -148c21 -50 32 -107 32 -172c0 -220 -131 -360 -325 -360s-325 140 -325 360s131 360 325 360
c111 0 202 -46 259 -127c28 16 41 48 41 87c0 10 -1 20 -2 30h90c1 -10 2 -20 2 -30zM375 70c129 0 220 106 220 280s-91 280 -220 280s-220 -106 -220 -280s91 -280 220 -280z" />
    <glyph glyph-name="uni1EE0" unicode="&#x1ee0;" horiz-adv-x="750" 
d="M305 829c-35 0 -45 -27 -55 -64h-60c10 97 60 134 115 134c80 0 92 -64 140 -64c35 0 45 27 55 64h60c-10 -97 -60 -134 -115 -134c-80 0 -92 64 -140 64zM765 670c0 -65 -39 -121 -97 -148c21 -50 32 -107 32 -172c0 -220 -131 -360 -325 -360s-325 140 -325 360
s131 360 325 360c111 0 202 -46 259 -127c28 16 41 48 41 87c0 10 -1 20 -2 30h90c1 -10 2 -20 2 -30zM375 70c129 0 220 106 220 280s-91 280 -220 280s-220 -106 -220 -280s91 -280 220 -280z" />
    <glyph glyph-name="Ohungarumlaut" unicode="&#x150;" horiz-adv-x="750" 
d="M235 770l120 130h120l-160 -130h-80zM405 770l120 130h120l-160 -130h-80zM375 710c194 0 325 -140 325 -360s-131 -360 -325 -360s-325 140 -325 360s131 360 325 360zM375 70c129 0 220 106 220 280s-91 280 -220 280s-220 -106 -220 -280s91 -280 220 -280z" />
    <glyph glyph-name="Omacron" unicode="&#x14c;" horiz-adv-x="750" 
d="M215 790v70h320v-70h-320zM375 710c194 0 325 -140 325 -360s-131 -360 -325 -360s-325 140 -325 360s131 360 325 360zM375 70c129 0 220 106 220 280s-91 280 -220 280s-220 -106 -220 -280s91 -280 220 -280z" />
    <glyph glyph-name="Oslash" unicode="&#xd8;" horiz-adv-x="750" 
d="M596 627c66 -63 104 -158 104 -277c0 -220 -131 -360 -325 -360c-72 0 -135 19 -187 55l-38 -55l-47 33l42 59c-60 63 -95 155 -95 268c0 220 131 360 325 360c67 0 126 -17 175 -48l40 57l48 -32zM150 350c0 -77 18 -141 50 -189l300 430c-34 25 -77 39 -125 39
c-134 0 -225 -106 -225 -280zM375 70c134 0 225 106 225 280c0 84 -21 152 -58 200l-303 -433c37 -30 83 -47 136 -47z" />
    <glyph glyph-name="Otilde" unicode="&#xd5;" horiz-adv-x="750" 
d="M305 829c-35 0 -45 -27 -55 -64h-60c10 97 60 134 115 134c80 0 92 -64 140 -64c35 0 45 27 55 64h60c-10 -97 -60 -134 -115 -134c-80 0 -92 64 -140 64zM375 710c194 0 325 -140 325 -360s-131 -360 -325 -360s-325 140 -325 360s131 360 325 360zM375 70
c129 0 220 106 220 280s-91 280 -220 280s-220 -106 -220 -280s91 -280 220 -280z" />
    <glyph glyph-name="OE" unicode="&#x152;" horiz-adv-x="1110" 
d="M680 80h375v-80h-460h-10v92c-46 -65 -116 -102 -210 -102c-194 0 -325 140 -325 360s131 360 325 360c94 0 164 -37 210 -102v92h95h365v-80h-365v-215h335v-80h-335v-245zM375 70c129 0 210 106 210 280s-81 280 -210 280s-220 -106 -220 -280s91 -280 220 -280z" />
    <glyph glyph-name="P" unicode="P" horiz-adv-x="615" 
d="M335 700c133 0 250 -68 250 -215s-117 -215 -250 -215h-150v-270h-95v700h95h150zM315 350c104 0 170 38 170 135s-66 135 -170 135h-130v-270h130z" />
    <glyph glyph-name="Thorn" unicode="&#xde;" horiz-adv-x="640" 
d="M340 590c133 0 250 -73 250 -230s-117 -230 -250 -230h-160v-130h-95v210v380v110h95v-110h160zM320 210c104 0 170 43 170 150s-66 150 -170 150h-140v-300h140z" />
    <glyph glyph-name="Q" unicode="Q" horiz-adv-x="750" 
d="M478 5c25 -80 94 -100 173 -100v-85c-131 0 -230 63 -261 170h-15c-194 0 -325 140 -325 360s131 360 325 360s325 -140 325 -360c0 -178 -86 -304 -222 -345zM155 350c0 -174 91 -280 220 -280s220 106 220 280s-91 280 -220 280s-220 -106 -220 -280z" />
    <glyph glyph-name="R" unicode="R" horiz-adv-x="645" 
d="M483 240l152 -240h-110l-133 210c-41 64 -69 80 -160 80h-47v-290h-95v700h95h140c133 0 250 -63 250 -205c0 -102 -71 -159 -161 -182c27 -17 48 -41 69 -73zM185 370h120c104 0 170 33 170 125s-66 125 -170 125h-120v-250z" />
    <glyph glyph-name="Racute" unicode="&#x154;" horiz-adv-x="645" 
d="M500 900l-160 -130h-80l120 130h120zM483 240l152 -240h-110l-133 210c-41 64 -69 80 -160 80h-47v-290h-95v700h95h140c133 0 250 -63 250 -205c0 -102 -71 -159 -161 -182c27 -17 48 -41 69 -73zM185 370h120c104 0 170 33 170 125s-66 125 -170 125h-120v-250z" />
    <glyph glyph-name="Rcaron" unicode="&#x158;" horiz-adv-x="645" 
d="M325 770h-70l-130 130h110l55 -79l55 79h110zM483 240l152 -240h-110l-133 210c-41 64 -69 80 -160 80h-47v-290h-95v700h95h140c133 0 250 -63 250 -205c0 -102 -71 -159 -161 -182c27 -17 48 -41 69 -73zM185 370h120c104 0 170 33 170 125s-66 125 -170 125h-120v-250
z" />
    <glyph glyph-name="Rcommaaccent" unicode="&#x156;" horiz-adv-x="645" 
d="M483 240l152 -240h-110l-133 210c-41 64 -69 80 -160 80h-47v-290h-95v700h95h140c133 0 250 -63 250 -205c0 -102 -71 -159 -161 -182c27 -17 48 -41 69 -73zM185 370h120c104 0 170 33 170 125s-66 125 -170 125h-120v-250zM280 -257l33 157h82l-57 -157h-58z" />
    <glyph glyph-name="S" unicode="S" horiz-adv-x="620" 
d="M175 520c0 -168 390 -75 390 -329c0 -131 -103 -201 -253 -201c-136 0 -242 57 -257 200h95c14 -92 81 -120 159 -120c90 0 151 38 151 108c0 177 -385 85 -385 333c0 132 110 199 239 199c133 0 226 -71 241 -190h-95c-15 66 -61 110 -144 110c-85 0 -141 -46 -141 -110
z" />
    <glyph glyph-name="Sacute" unicode="&#x15a;" horiz-adv-x="620" 
d="M280 770l120 130h120l-160 -130h-80zM175 520c0 -168 390 -75 390 -329c0 -131 -103 -201 -253 -201c-136 0 -242 57 -257 200h95c14 -92 81 -120 159 -120c90 0 151 38 151 108c0 177 -385 85 -385 333c0 132 110 199 239 199c133 0 226 -71 241 -190h-95
c-15 66 -61 110 -144 110c-85 0 -141 -46 -141 -110z" />
    <glyph glyph-name="Scaron" unicode="&#x160;" horiz-adv-x="620" 
d="M345 770h-70l-130 130h110l55 -79l55 79h110zM175 520c0 -168 390 -75 390 -329c0 -131 -103 -201 -253 -201c-136 0 -242 57 -257 200h95c14 -92 81 -120 159 -120c90 0 151 38 151 108c0 177 -385 85 -385 333c0 132 110 199 239 199c133 0 226 -71 241 -190h-95
c-15 66 -61 110 -144 110c-85 0 -141 -46 -141 -110z" />
    <glyph glyph-name="Scedilla" unicode="&#x15e;" horiz-adv-x="620" 
d="M565 191c0 -122 -90 -191 -224 -200l-15 -51c69 13 121 -14 121 -74c0 -62 -56 -96 -117 -96c-35 0 -55 7 -78 19v52c23 -13 43 -21 68 -21c30 0 57 12 57 41c0 51 -73 42 -125 24l34 106c-123 7 -217 65 -231 199h95c14 -92 81 -120 159 -120c90 0 151 38 151 108
c0 177 -385 85 -385 333c0 132 110 199 239 199c133 0 226 -71 241 -190h-95c-15 66 -61 110 -144 110c-85 0 -141 -46 -141 -110c0 -168 390 -75 390 -329z" />
    <glyph glyph-name="Scommaaccent" unicode="&#x218;" horiz-adv-x="620" 
d="M175 520c0 -168 390 -75 390 -329c0 -131 -103 -201 -253 -201c-136 0 -242 57 -257 200h95c14 -92 81 -120 159 -120c90 0 151 38 151 108c0 177 -385 85 -385 333c0 132 110 199 239 199c133 0 226 -71 241 -190h-95c-15 66 -61 110 -144 110c-85 0 -141 -46 -141 -110
zM260 -257l33 157h82l-57 -157h-58z" />
    <glyph glyph-name="uni018F" unicode="&#x18f;" horiz-adv-x="740" 
d="M372 710c190 0 318 -141 318 -359c0 -222 -131 -361 -325 -361s-315 140 -315 360h95h450v2c0 172 -86 278 -227 278c-96 0 -188 -39 -223 -140h-85c36 143 162 220 312 220zM365 70c116 0 198 73 223 200h-437c22 -126 98 -200 214 -200z" />
    <glyph glyph-name="T" unicode="T" horiz-adv-x="595" 
d="M580 700v-80h-235v-620h-95v620h-235v80h330h235z" />
    <glyph glyph-name="Tbar" unicode="&#x166;" horiz-adv-x="595" 
d="M580 620h-235v-232h113v-70h-113v-318h-95v318h-112v70h112v232h-235v80h330h235v-80z" />
    <glyph glyph-name="Tcaron" unicode="&#x164;" horiz-adv-x="595" 
d="M333 770h-70l-130 130h110l55 -79l55 79h110zM580 700v-80h-235v-620h-95v620h-235v80h330h235z" />
    <glyph glyph-name="uni0162" unicode="&#x162;" horiz-adv-x="595" 
d="M345 0h-23l-18 -60c69 13 121 -14 121 -74c0 -62 -56 -96 -117 -96c-35 0 -55 7 -78 19v52c23 -13 43 -21 68 -21c30 0 57 12 57 41c0 51 -73 42 -125 24l37 115h-17v620h-235v80h330h235v-80h-235v-620z" />
    <glyph glyph-name="uni021A" unicode="&#x21a;" horiz-adv-x="595" 
d="M580 700v-80h-235v-620h-95v620h-235v80h565zM238 -257l33 157h82l-57 -157h-58z" />
    <glyph glyph-name="U" unicode="U" horiz-adv-x="730" 
d="M550 700h95v-430c0 -158 -100 -280 -280 -280s-280 122 -280 280v430h95v-420c0 -119 60 -210 185 -210s185 91 185 210v420z" />
    <glyph glyph-name="Uacute" unicode="&#xda;" horiz-adv-x="730" 
d="M575 900l-160 -130h-80l120 130h120zM550 700h95v-430c0 -158 -100 -280 -280 -280s-280 122 -280 280v430h95v-420c0 -119 60 -210 185 -210s185 91 185 210v420z" />
    <glyph glyph-name="uni01D3" unicode="&#x1d3;" horiz-adv-x="730" 
d="M400 770h-70l-130 130h110l55 -79l55 79h110zM550 700h95v-430c0 -158 -100 -280 -280 -280s-280 122 -280 280v430h95v-420c0 -119 60 -210 185 -210s185 91 185 210v420z" />
    <glyph glyph-name="Ucircumflex" unicode="&#xdb;" horiz-adv-x="730" 
d="M365 849l-55 -79h-110l130 130h70l130 -130h-110zM550 700h95v-430c0 -158 -100 -280 -280 -280s-280 122 -280 280v430h95v-420c0 -119 60 -210 185 -210s185 91 185 210v420z" />
    <glyph glyph-name="Udieresis" unicode="&#xdc;" horiz-adv-x="730" 
d="M265 775c-31 0 -57 26 -57 58c0 30 26 57 57 57s57 -27 57 -57c0 -32 -26 -58 -57 -58zM465 775c-31 0 -57 26 -57 58c0 30 26 57 57 57s57 -27 57 -57c0 -32 -26 -58 -57 -58zM550 700h95v-430c0 -158 -100 -280 -280 -280s-280 122 -280 280v430h95v-420
c0 -119 60 -210 185 -210s185 91 185 210v420z" />
    <glyph glyph-name="uni01D7" unicode="&#x1d7;" horiz-adv-x="730" 
d="M575 1050l-160 -130h-80l120 130h120zM265 775c-31 0 -57 26 -57 58c0 30 26 57 57 57s57 -27 57 -57c0 -32 -26 -58 -57 -58zM408 833c0 30 26 57 57 57s57 -27 57 -57c0 -32 -26 -58 -57 -58s-57 26 -57 58zM550 700h95v-430c0 -158 -100 -280 -280 -280
s-280 122 -280 280v430h95v-420c0 -119 60 -210 185 -210s185 91 185 210v420z" />
    <glyph glyph-name="uni01D9" unicode="&#x1d9;" horiz-adv-x="730" 
d="M400 920h-70l-130 130h110l55 -79l55 79h110zM208 833c0 30 26 57 57 57s57 -27 57 -57c0 -32 -26 -58 -57 -58s-57 26 -57 58zM408 833c0 30 26 57 57 57s57 -27 57 -57c0 -32 -26 -58 -57 -58s-57 26 -57 58zM550 700h95v-430c0 -158 -100 -280 -280 -280
s-280 122 -280 280v430h95v-420c0 -119 60 -210 185 -210s185 91 185 210v420z" />
    <glyph glyph-name="uni01DB" unicode="&#x1db;" horiz-adv-x="730" 
d="M425 920h-80l-160 130h120zM208 833c0 30 26 57 57 57s57 -27 57 -57c0 -32 -26 -58 -57 -58s-57 26 -57 58zM465 775c-31 0 -57 26 -57 58c0 30 26 57 57 57s57 -27 57 -57c0 -32 -26 -58 -57 -58zM550 700h95v-430c0 -158 -100 -280 -280 -280s-280 122 -280 280v430
h95v-420c0 -119 60 -210 185 -210s185 91 185 210v420z" />
    <glyph glyph-name="uni01D5" unicode="&#x1d5;" horiz-adv-x="730" 
d="M525 1010v-70h-320v70h320zM208 833c0 30 26 57 57 57s57 -27 57 -57c0 -32 -26 -58 -57 -58s-57 26 -57 58zM408 833c0 30 26 57 57 57s57 -27 57 -57c0 -32 -26 -58 -57 -58s-57 26 -57 58zM550 700h95v-430c0 -158 -100 -280 -280 -280s-280 122 -280 280v430h95v-420
c0 -119 60 -210 185 -210s185 91 185 210v420z" />
    <glyph glyph-name="uni1EE4" unicode="&#x1ee4;" horiz-adv-x="730" 
d="M550 700h95v-430c0 -158 -100 -280 -280 -280s-280 122 -280 280v430h95v-420c0 -119 60 -210 185 -210s185 91 185 210v420zM365 -100c33 0 60 -28 60 -60c0 -33 -27 -60 -60 -60c-32 0 -60 27 -60 60c0 32 28 60 60 60z" />
    <glyph glyph-name="Ugrave" unicode="&#xd9;" horiz-adv-x="730" 
d="M425 770h-80l-160 130h120zM550 700h95v-430c0 -158 -100 -280 -280 -280s-280 122 -280 280v430h95v-420c0 -119 60 -210 185 -210s185 91 185 210v420z" />
    <glyph glyph-name="uni1EE6" unicode="&#x1ee6;" horiz-adv-x="730" 
d="M362 901c-20 0 -37 -13 -42 -38h-55c5 57 47 87 97 87s97 -30 97 -87c0 -65 -72 -72 -72 -115h-50c0 63 62 70 62 115c0 25 -17 38 -37 38zM550 700h95v-430c0 -158 -100 -280 -280 -280s-280 122 -280 280v430h95v-420c0 -119 60 -210 185 -210s185 91 185 210v420z" />
    <glyph glyph-name="Uhorn" unicode="&#x1af;" horiz-adv-x="820" 
d="M818 700c1 -10 2 -20 2 -30c0 -90 -75 -165 -175 -165v-235c0 -158 -100 -280 -280 -280s-280 122 -280 280v430h95v-420c0 -119 60 -210 185 -210s185 91 185 210v420h95v-127c60 0 85 42 85 97c0 10 -1 20 -2 30h90z" />
    <glyph glyph-name="uni1EE8" unicode="&#x1ee8;" horiz-adv-x="820" 
d="M575 900l-160 -130h-80l120 130h120zM818 700c1 -10 2 -20 2 -30c0 -90 -75 -165 -175 -165v-235c0 -158 -100 -280 -280 -280s-280 122 -280 280v430h95v-420c0 -119 60 -210 185 -210s185 91 185 210v420h95v-127c60 0 85 42 85 97c0 10 -1 20 -2 30h90z" />
    <glyph glyph-name="uni1EF0" unicode="&#x1ef0;" horiz-adv-x="820" 
d="M818 700c1 -10 2 -20 2 -30c0 -90 -75 -165 -175 -165v-235c0 -158 -100 -280 -280 -280s-280 122 -280 280v430h95v-420c0 -119 60 -210 185 -210s185 91 185 210v420h95v-127c60 0 85 42 85 97c0 10 -1 20 -2 30h90zM365 -100c33 0 60 -28 60 -60
c0 -33 -27 -60 -60 -60c-32 0 -60 27 -60 60c0 32 28 60 60 60z" />
    <glyph glyph-name="uni1EEA" unicode="&#x1eea;" horiz-adv-x="820" 
d="M425 770h-80l-160 130h120zM818 700c1 -10 2 -20 2 -30c0 -90 -75 -165 -175 -165v-235c0 -158 -100 -280 -280 -280s-280 122 -280 280v430h95v-420c0 -119 60 -210 185 -210s185 91 185 210v420h95v-127c60 0 85 42 85 97c0 10 -1 20 -2 30h90z" />
    <glyph glyph-name="uni1EEC" unicode="&#x1eec;" horiz-adv-x="820" 
d="M362 901c-20 0 -37 -13 -42 -38h-55c5 57 47 87 97 87s97 -30 97 -87c0 -65 -72 -72 -72 -115h-50c0 63 62 70 62 115c0 25 -17 38 -37 38zM818 700c1 -10 2 -20 2 -30c0 -90 -75 -165 -175 -165v-235c0 -158 -100 -280 -280 -280s-280 122 -280 280v430h95v-420
c0 -119 60 -210 185 -210s185 91 185 210v420h95v-127c60 0 85 42 85 97c0 10 -1 20 -2 30h90z" />
    <glyph glyph-name="uni1EEE" unicode="&#x1eee;" horiz-adv-x="820" 
d="M295 829c-35 0 -45 -27 -55 -64h-60c10 97 60 134 115 134c80 0 92 -64 140 -64c35 0 45 27 55 64h60c-10 -97 -60 -134 -115 -134c-80 0 -92 64 -140 64zM818 700c1 -10 2 -20 2 -30c0 -90 -75 -165 -175 -165v-235c0 -158 -100 -280 -280 -280s-280 122 -280 280v430
h95v-420c0 -119 60 -210 185 -210s185 91 185 210v420h95v-127c60 0 85 42 85 97c0 10 -1 20 -2 30h90z" />
    <glyph glyph-name="Uhungarumlaut" unicode="&#x170;" horiz-adv-x="730" 
d="M465 900l-160 -130h-80l120 130h120zM475 770h-80l120 130h120zM550 700h95v-430c0 -158 -100 -280 -280 -280s-280 122 -280 280v430h95v-420c0 -119 60 -210 185 -210s185 91 185 210v420z" />
    <glyph glyph-name="Umacron" unicode="&#x16a;" horiz-adv-x="730" 
d="M525 860v-70h-320v70h320zM550 700h95v-430c0 -158 -100 -280 -280 -280s-280 122 -280 280v430h95v-420c0 -119 60 -210 185 -210s185 91 185 210v420z" />
    <glyph glyph-name="Uogonek" unicode="&#x172;" horiz-adv-x="730" 
d="M550 700h95v-430c0 -136 -74 -245 -209 -273c-51 -27 -90 -67 -90 -111c0 -31 16 -51 47 -51c16 0 34 5 49 11v-60c-22 -11 -47 -16 -72 -16c-71 0 -109 42 -109 96c0 47 29 88 83 125c-167 9 -259 127 -259 279v430h95v-420c0 -119 60 -210 185 -210s185 91 185 210v420
z" />
    <glyph glyph-name="Uring" unicode="&#x16e;" horiz-adv-x="730" 
d="M365 725c-61 0 -110 49 -110 110s49 110 110 110s110 -49 110 -110s-49 -110 -110 -110zM365 887c-29 0 -50 -24 -50 -52s21 -52 50 -52s50 24 50 52s-21 52 -50 52zM550 700h95v-430c0 -158 -100 -280 -280 -280s-280 122 -280 280v430h95v-420c0 -119 60 -210 185 -210
s185 91 185 210v420z" />
    <glyph glyph-name="Utilde" unicode="&#x168;" horiz-adv-x="730" 
d="M295 829c-35 0 -45 -27 -55 -64h-60c10 97 60 134 115 134c80 0 92 -64 140 -64c35 0 45 27 55 64h60c-10 -97 -60 -134 -115 -134c-80 0 -92 64 -140 64zM550 700h95v-430c0 -158 -100 -280 -280 -280s-280 122 -280 280v430h95v-420c0 -119 60 -210 185 -210
s185 91 185 210v420z" />
    <glyph glyph-name="V" unicode="V" horiz-adv-x="635" 
d="M520 700h100l-247 -700h-105l-253 700h105l203 -580z" />
    <glyph glyph-name="W" unicode="W" horiz-adv-x="930" 
d="M815 700h100l-198 -700h-105l-147 498l-147 -498h-105l-198 700h105l148 -580l152 530h90l152 -530z" />
    <glyph glyph-name="Wacute" unicode="&#x1e82;" horiz-adv-x="930" 
d="M675 900l-160 -130h-80l120 130h120zM815 700h100l-198 -700h-105l-147 498l-147 -498h-105l-198 700h105l148 -580l152 530h90l152 -530z" />
    <glyph glyph-name="Wcircumflex" unicode="&#x174;" horiz-adv-x="930" 
d="M465 849l-55 -79h-110l130 130h70l130 -130h-110zM815 700h100l-198 -700h-105l-147 498l-147 -498h-105l-198 700h105l148 -580l152 530h90l152 -530z" />
    <glyph glyph-name="Wdieresis" unicode="&#x1e84;" horiz-adv-x="930" 
d="M365 775c-31 0 -57 26 -57 58c0 30 26 57 57 57s57 -27 57 -57c0 -32 -26 -58 -57 -58zM565 775c-31 0 -57 26 -57 58c0 30 26 57 57 57s57 -27 57 -57c0 -32 -26 -58 -57 -58zM815 700h100l-198 -700h-105l-147 498l-147 -498h-105l-198 700h105l148 -580l152 530h90
l152 -530z" />
    <glyph glyph-name="Wgrave" unicode="&#x1e80;" horiz-adv-x="930" 
d="M525 770h-80l-160 130h120zM815 700h100l-198 -700h-105l-147 498l-147 -498h-105l-198 700h105l148 -580l152 530h90l152 -530z" />
    <glyph glyph-name="X" unicode="X" horiz-adv-x="647" 
d="M632 0h-115l-200 285l-189 -285h-113l249 360l-239 340h115l187 -266l175 266h110l-232 -341z" />
    <glyph glyph-name="Y" unicode="Y" horiz-adv-x="645" 
d="M630 700l-259 -403v-297h-95v296l-261 404h110l203 -320l197 320h105z" />
    <glyph glyph-name="Yacute" unicode="&#xdd;" horiz-adv-x="645" 
d="M533 900l-160 -130h-80l120 130h120zM630 700l-259 -403v-297h-95v296l-261 404h110l203 -320l197 320h105z" />
    <glyph glyph-name="Ycircumflex" unicode="&#x176;" horiz-adv-x="645" 
d="M323 849l-55 -79h-110l130 130h70l130 -130h-110zM630 700l-259 -403v-297h-95v296l-261 404h110l203 -320l197 320h105z" />
    <glyph glyph-name="Ydieresis" unicode="&#x178;" horiz-adv-x="645" 
d="M223 775c-31 0 -57 26 -57 58c0 30 26 57 57 57s57 -27 57 -57c0 -32 -26 -58 -57 -58zM423 775c-31 0 -57 26 -57 58c0 30 26 57 57 57s57 -27 57 -57c0 -32 -26 -58 -57 -58zM630 700l-259 -403v-297h-95v296l-261 404h110l203 -320l197 320h105z" />
    <glyph glyph-name="uni1EF4" unicode="&#x1ef4;" horiz-adv-x="645" 
d="M276 0v296l-261 404h110l203 -320l197 320h105l-259 -403v-297h-95zM324 -100c33 0 60 -28 60 -60c0 -33 -27 -60 -60 -60c-32 0 -60 27 -60 60c0 32 28 60 60 60z" />
    <glyph glyph-name="Ygrave" unicode="&#x1ef2;" horiz-adv-x="645" 
d="M383 770h-80l-160 130h120zM630 700l-259 -403v-297h-95v296l-261 404h110l203 -320l197 320h105z" />
    <glyph glyph-name="uni1EF6" unicode="&#x1ef6;" horiz-adv-x="645" 
d="M320 901c-20 0 -37 -13 -42 -38h-55c5 57 47 87 97 87s97 -30 97 -87c0 -65 -72 -72 -72 -115h-50c0 63 62 70 62 115c0 25 -17 38 -37 38zM630 700l-259 -403v-297h-95v296l-261 404h110l203 -320l197 320h105z" />
    <glyph glyph-name="uni1EF8" unicode="&#x1ef8;" horiz-adv-x="645" 
d="M253 829c-35 0 -45 -27 -55 -64h-60c10 97 60 134 115 134c80 0 92 -64 140 -64c35 0 45 27 55 64h60c-10 -97 -60 -134 -115 -134c-80 0 -92 64 -140 64zM630 700l-259 -403v-297h-95v296l-261 404h110l203 -320l197 320h105z" />
    <glyph glyph-name="Z" unicode="Z" horiz-adv-x="600" 
d="M158 80h417v-80h-550v60l407 560h-387v80h520v-60z" />
    <glyph glyph-name="Zacute" unicode="&#x179;" horiz-adv-x="600" 
d="M530 900l-160 -130h-80l120 130h120zM158 80h417v-80h-550v60l407 560h-387v80h520v-60z" />
    <glyph glyph-name="Zcaron" unicode="&#x17d;" horiz-adv-x="600" 
d="M355 770h-70l-130 130h110l55 -79l55 79h110zM158 80h417v-80h-550v60l407 560h-387v80h520v-60z" />
    <glyph glyph-name="Zdotaccent" unicode="&#x17b;" horiz-adv-x="600" 
d="M320 770c-32 0 -60 27 -60 60c0 32 28 60 60 60c33 0 60 -28 60 -60c0 -33 -27 -60 -60 -60zM158 80h417v-80h-550v60l407 560h-387v80h520v-60z" />
    <glyph glyph-name="a" unicode="a" horiz-adv-x="520" 
d="M475 63c7 0 14 1 20 2v-70c-11 -3 -25 -5 -38 -5c-64 0 -99 45 -106 86c-40 -52 -91 -86 -164 -86c-89 0 -152 50 -152 135c0 105 89 176 259 176c20 0 32 -1 46 -2v16c0 90 -42 120 -110 120c-52 0 -103 -17 -145 -40v85c41 17 96 30 155 30c91 0 185 -31 185 -185v-197
c0 -39 12 -65 50 -65zM205 60c61 0 135 51 135 132v43c-17 1 -31 2 -48 2c-122 0 -162 -49 -162 -102c0 -50 33 -75 75 -75z" />
    <glyph glyph-name="aacute" unicode="&#xe1;" horiz-adv-x="520" 
d="M428 740l-130 -160h-70l90 160h110zM475 63c7 0 14 1 20 2v-70c-11 -3 -25 -5 -38 -5c-64 0 -99 45 -106 86c-40 -52 -91 -86 -164 -86c-89 0 -152 50 -152 135c0 105 89 176 259 176c20 0 32 -1 46 -2v16c0 90 -42 120 -110 120c-52 0 -103 -17 -145 -40v85
c41 17 96 30 155 30c91 0 185 -31 185 -185v-197c0 -39 12 -65 50 -65zM205 60c61 0 135 51 135 132v43c-17 1 -31 2 -48 2c-122 0 -162 -49 -162 -102c0 -50 33 -75 75 -75z" />
    <glyph glyph-name="abreve" unicode="&#x103;" horiz-adv-x="520" 
d="M258 580c-96 0 -150 57 -160 160h60c15 -61 43 -90 100 -90s85 29 100 90h60c-10 -103 -64 -160 -160 -160zM475 63c7 0 14 1 20 2v-70c-11 -3 -25 -5 -38 -5c-64 0 -99 45 -106 86c-40 -52 -91 -86 -164 -86c-89 0 -152 50 -152 135c0 105 89 176 259 176
c20 0 32 -1 46 -2v16c0 90 -42 120 -110 120c-52 0 -103 -17 -145 -40v85c41 17 96 30 155 30c91 0 185 -31 185 -185v-197c0 -39 12 -65 50 -65zM205 60c61 0 135 51 135 132v43c-17 1 -31 2 -48 2c-122 0 -162 -49 -162 -102c0 -50 33 -75 75 -75z" />
    <glyph glyph-name="uni1EAF" unicode="&#x1eaf;" horiz-adv-x="520" 
d="M428 940l-130 -160h-70l90 160h110zM258 580c-96 0 -150 57 -160 160h60c15 -61 43 -90 100 -90s85 29 100 90h60c-10 -103 -64 -160 -160 -160zM475 63c7 0 14 1 20 2v-70c-11 -3 -25 -5 -38 -5c-64 0 -99 45 -106 86c-40 -52 -91 -86 -164 -86c-89 0 -152 50 -152 135
c0 105 89 176 259 176c20 0 32 -1 46 -2v16c0 90 -42 120 -110 120c-52 0 -103 -17 -145 -40v85c41 17 96 30 155 30c91 0 185 -31 185 -185v-197c0 -39 12 -65 50 -65zM205 60c61 0 135 51 135 132v43c-17 1 -31 2 -48 2c-122 0 -162 -49 -162 -102c0 -50 33 -75 75 -75z
" />
    <glyph glyph-name="uni1EB7" unicode="&#x1eb7;" horiz-adv-x="520" 
d="M258 580c-96 0 -150 57 -160 160h60c15 -61 43 -90 100 -90s85 29 100 90h60c-10 -103 -64 -160 -160 -160zM475 63c7 0 14 1 20 2v-70c-11 -3 -25 -5 -38 -5c-64 0 -99 45 -106 86c-40 -52 -91 -86 -164 -86c-89 0 -152 50 -152 135c0 105 89 176 259 176
c20 0 32 -1 46 -2v16c0 90 -42 120 -110 120c-52 0 -103 -17 -145 -40v85c41 17 96 30 155 30c91 0 185 -31 185 -185v-197c0 -39 12 -65 50 -65zM205 60c61 0 135 51 135 132v43c-17 1 -31 2 -48 2c-122 0 -162 -49 -162 -102c0 -50 33 -75 75 -75zM258 -100
c33 0 60 -28 60 -60c0 -33 -27 -60 -60 -60c-32 0 -60 27 -60 60c0 32 28 60 60 60z" />
    <glyph glyph-name="uni1EB1" unicode="&#x1eb1;" horiz-adv-x="520" 
d="M318 780h-70l-130 160h110zM258 580c-96 0 -150 57 -160 160h60c15 -61 43 -90 100 -90s85 29 100 90h60c-10 -103 -64 -160 -160 -160zM475 63c7 0 14 1 20 2v-70c-11 -3 -25 -5 -38 -5c-64 0 -99 45 -106 86c-40 -52 -91 -86 -164 -86c-89 0 -152 50 -152 135
c0 105 89 176 259 176c20 0 32 -1 46 -2v16c0 90 -42 120 -110 120c-52 0 -103 -17 -145 -40v85c41 17 96 30 155 30c91 0 185 -31 185 -185v-197c0 -39 12 -65 50 -65zM205 60c61 0 135 51 135 132v43c-17 1 -31 2 -48 2c-122 0 -162 -49 -162 -102c0 -50 33 -75 75 -75z
" />
    <glyph glyph-name="uni1EB3" unicode="&#x1eb3;" horiz-adv-x="520" 
d="M255 901c-20 0 -37 -13 -42 -38h-55c5 57 47 87 97 87s97 -30 97 -87c0 -65 -72 -72 -72 -115h-50c0 63 62 70 62 115c0 25 -17 38 -37 38zM258 580c-96 0 -150 57 -160 160h60c15 -61 43 -90 100 -90s85 29 100 90h60c-10 -103 -64 -160 -160 -160zM475 63
c7 0 14 1 20 2v-70c-11 -3 -25 -5 -38 -5c-64 0 -99 45 -106 86c-40 -52 -91 -86 -164 -86c-89 0 -152 50 -152 135c0 105 89 176 259 176c20 0 32 -1 46 -2v16c0 90 -42 120 -110 120c-52 0 -103 -17 -145 -40v85c41 17 96 30 155 30c91 0 185 -31 185 -185v-197
c0 -39 12 -65 50 -65zM205 60c61 0 135 51 135 132v43c-17 1 -31 2 -48 2c-122 0 -162 -49 -162 -102c0 -50 33 -75 75 -75z" />
    <glyph glyph-name="uni1EB5" unicode="&#x1eb5;" horiz-adv-x="520" 
d="M188 859c-35 0 -45 -27 -55 -64h-60c10 97 60 134 115 134c80 0 92 -64 140 -64c35 0 45 27 55 64h60c-10 -97 -60 -134 -115 -134c-80 0 -92 64 -140 64zM258 650c57 0 85 29 100 90h60c-10 -103 -64 -160 -160 -160s-150 57 -160 160h60c15 -61 43 -90 100 -90zM475 63
c7 0 14 1 20 2v-70c-11 -3 -25 -5 -38 -5c-64 0 -99 45 -106 86c-40 -52 -91 -86 -164 -86c-89 0 -152 50 -152 135c0 105 89 176 259 176c20 0 32 -1 46 -2v16c0 90 -42 120 -110 120c-52 0 -103 -17 -145 -40v85c41 17 96 30 155 30c91 0 185 -31 185 -185v-197
c0 -39 12 -65 50 -65zM205 60c61 0 135 51 135 132v43c-17 1 -31 2 -48 2c-122 0 -162 -49 -162 -102c0 -50 33 -75 75 -75z" />
    <glyph glyph-name="uni01CE" unicode="&#x1ce;" horiz-adv-x="520" 
d="M293 580h-70l-130 160h100l65 -104l65 104h100zM475 63c7 0 14 1 20 2v-70c-11 -3 -25 -5 -38 -5c-64 0 -99 45 -106 86c-40 -52 -91 -86 -164 -86c-89 0 -152 50 -152 135c0 105 89 176 259 176c20 0 32 -1 46 -2v16c0 90 -42 120 -110 120c-52 0 -103 -17 -145 -40v85
c41 17 96 30 155 30c91 0 185 -31 185 -185v-197c0 -39 12 -65 50 -65zM205 60c61 0 135 51 135 132v43c-17 1 -31 2 -48 2c-122 0 -162 -49 -162 -102c0 -50 33 -75 75 -75z" />
    <glyph glyph-name="acircumflex" unicode="&#xe2;" horiz-adv-x="520" 
d="M258 684l-65 -104h-100l130 160h70l130 -160h-100zM475 63c7 0 14 1 20 2v-70c-11 -3 -25 -5 -38 -5c-64 0 -99 45 -106 86c-40 -52 -91 -86 -164 -86c-89 0 -152 50 -152 135c0 105 89 176 259 176c20 0 32 -1 46 -2v16c0 90 -42 120 -110 120c-52 0 -103 -17 -145 -40
v85c41 17 96 30 155 30c91 0 185 -31 185 -185v-197c0 -39 12 -65 50 -65zM205 60c61 0 135 51 135 132v43c-17 1 -31 2 -48 2c-122 0 -162 -49 -162 -102c0 -50 33 -75 75 -75z" />
    <glyph glyph-name="uni1EA5" unicode="&#x1ea5;" horiz-adv-x="520" 
d="M583 850l-130 -160h-70l90 160h110zM258 684l-65 -104h-100l130 160h70l130 -160h-100zM425 128c0 -39 12 -65 50 -65c7 0 14 1 20 2v-70c-11 -3 -25 -5 -38 -5c-64 0 -99 45 -106 86c-40 -52 -91 -86 -164 -86c-89 0 -152 50 -152 135c0 105 89 176 259 176
c20 0 32 -1 46 -2v16c0 90 -42 120 -110 120c-52 0 -103 -17 -145 -40v85c41 17 96 30 155 30c91 0 185 -31 185 -185v-197zM205 60c61 0 135 51 135 132v43c-17 1 -31 2 -48 2c-122 0 -162 -49 -162 -102c0 -50 33 -75 75 -75z" />
    <glyph glyph-name="uni1EAD" unicode="&#x1ead;" horiz-adv-x="520" 
d="M258 684l-65 -104h-100l130 160h70l130 -160h-100zM475 63c7 0 14 1 20 2v-70c-11 -3 -25 -5 -38 -5c-64 0 -99 45 -106 86c-40 -52 -91 -86 -164 -86c-89 0 -152 50 -152 135c0 105 89 176 259 176c20 0 32 -1 46 -2v16c0 90 -42 120 -110 120c-52 0 -103 -17 -145 -40
v85c41 17 96 30 155 30c91 0 185 -31 185 -185v-197c0 -39 12 -65 50 -65zM205 60c61 0 135 51 135 132v43c-17 1 -31 2 -48 2c-122 0 -162 -49 -162 -102c0 -50 33 -75 75 -75zM258 -100c33 0 60 -28 60 -60c0 -33 -27 -60 -60 -60c-32 0 -60 27 -60 60c0 32 28 60 60 60z
" />
    <glyph glyph-name="uni1EA7" unicode="&#x1ea7;" horiz-adv-x="520" 
d="M473 690h-70l-130 160h110zM258 684l-65 -104h-100l130 160h70l130 -160h-100zM475 63c7 0 14 1 20 2v-70c-11 -3 -25 -5 -38 -5c-64 0 -99 45 -106 86c-40 -52 -91 -86 -164 -86c-89 0 -152 50 -152 135c0 105 89 176 259 176c20 0 32 -1 46 -2v16
c0 90 -42 120 -110 120c-52 0 -103 -17 -145 -40v85c41 17 96 30 155 30c91 0 185 -31 185 -185v-197c0 -39 12 -65 50 -65zM205 60c61 0 135 51 135 132v43c-17 1 -31 2 -48 2c-122 0 -162 -49 -162 -102c0 -50 33 -75 75 -75z" />
    <glyph glyph-name="uni1EA9" unicode="&#x1ea9;" horiz-adv-x="520" 
d="M410 811c-20 0 -37 -13 -42 -38h-55c5 57 47 87 97 87s97 -30 97 -87c0 -65 -72 -72 -72 -115h-50c0 63 62 70 62 115c0 25 -17 38 -37 38zM258 684l-65 -104h-100l130 160h70l130 -160h-100zM425 128c0 -39 12 -65 50 -65c7 0 14 1 20 2v-70c-11 -3 -25 -5 -38 -5
c-64 0 -99 45 -106 86c-40 -52 -91 -86 -164 -86c-89 0 -152 50 -152 135c0 105 89 176 259 176c20 0 32 -1 46 -2v16c0 90 -42 120 -110 120c-52 0 -103 -17 -145 -40v85c41 17 96 30 155 30c91 0 185 -31 185 -185v-197zM205 60c61 0 135 51 135 132v43c-17 1 -31 2 -48 2
c-122 0 -162 -49 -162 -102c0 -50 33 -75 75 -75z" />
    <glyph glyph-name="uni1EAB" unicode="&#x1eab;" horiz-adv-x="520" 
d="M668 839h60c-10 -97 -60 -134 -115 -134c-80 0 -92 64 -140 64c-35 0 -45 -27 -55 -64h-60c10 97 60 134 115 134c80 0 92 -64 140 -64c35 0 45 27 55 64zM258 684l-65 -104h-100l130 160h70l130 -160h-100zM425 128c0 -39 12 -65 50 -65c7 0 14 1 20 2v-70
c-11 -3 -25 -5 -38 -5c-64 0 -99 45 -106 86c-40 -52 -91 -86 -164 -86c-89 0 -152 50 -152 135c0 105 89 176 259 176c20 0 32 -1 46 -2v16c0 90 -42 120 -110 120c-52 0 -103 -17 -145 -40v85c41 17 96 30 155 30c91 0 185 -31 185 -185v-197zM205 60c61 0 135 51 135 132
v43c-17 1 -31 2 -48 2c-122 0 -162 -49 -162 -102c0 -50 33 -75 75 -75z" />
    <glyph glyph-name="adieresis" unicode="&#xe4;" horiz-adv-x="520" 
d="M158 615c-31 0 -57 26 -57 58c0 30 26 57 57 57s57 -27 57 -57c0 -32 -26 -58 -57 -58zM358 615c-31 0 -57 26 -57 58c0 30 26 57 57 57s57 -27 57 -57c0 -32 -26 -58 -57 -58zM475 63c7 0 14 1 20 2v-70c-11 -3 -25 -5 -38 -5c-64 0 -99 45 -106 86
c-40 -52 -91 -86 -164 -86c-89 0 -152 50 -152 135c0 105 89 176 259 176c20 0 32 -1 46 -2v16c0 90 -42 120 -110 120c-52 0 -103 -17 -145 -40v85c41 17 96 30 155 30c91 0 185 -31 185 -185v-197c0 -39 12 -65 50 -65zM205 60c61 0 135 51 135 132v43c-17 1 -31 2 -48 2
c-122 0 -162 -49 -162 -102c0 -50 33 -75 75 -75z" />
    <glyph glyph-name="uni1EA1" unicode="&#x1ea1;" horiz-adv-x="520" 
d="M475 63c7 0 14 1 20 2v-70c-11 -3 -25 -5 -38 -5c-64 0 -99 45 -106 86c-40 -52 -91 -86 -164 -86c-89 0 -152 50 -152 135c0 105 89 176 259 176c20 0 32 -1 46 -2v16c0 90 -42 120 -110 120c-52 0 -103 -17 -145 -40v85c41 17 96 30 155 30c91 0 185 -31 185 -185v-197
c0 -39 12 -65 50 -65zM205 60c61 0 135 51 135 132v43c-17 1 -31 2 -48 2c-122 0 -162 -49 -162 -102c0 -50 33 -75 75 -75zM258 -100c33 0 60 -28 60 -60c0 -33 -27 -60 -60 -60c-32 0 -60 27 -60 60c0 32 28 60 60 60z" />
    <glyph glyph-name="agrave" unicode="&#xe0;" horiz-adv-x="520" 
d="M318 580h-70l-130 160h110zM475 63c7 0 14 1 20 2v-70c-11 -3 -25 -5 -38 -5c-64 0 -99 45 -106 86c-40 -52 -91 -86 -164 -86c-89 0 -152 50 -152 135c0 105 89 176 259 176c20 0 32 -1 46 -2v16c0 90 -42 120 -110 120c-52 0 -103 -17 -145 -40v85c41 17 96 30 155 30
c91 0 185 -31 185 -185v-197c0 -39 12 -65 50 -65zM205 60c61 0 135 51 135 132v43c-17 1 -31 2 -48 2c-122 0 -162 -49 -162 -102c0 -50 33 -75 75 -75z" />
    <glyph glyph-name="uni1EA3" unicode="&#x1ea3;" horiz-adv-x="520" 
d="M255 701c-20 0 -37 -13 -42 -38h-55c5 57 47 87 97 87s97 -30 97 -87c0 -65 -72 -72 -72 -115h-50c0 63 62 70 62 115c0 25 -17 38 -37 38zM475 63c7 0 14 1 20 2v-70c-11 -3 -25 -5 -38 -5c-64 0 -99 45 -106 86c-40 -52 -91 -86 -164 -86c-89 0 -152 50 -152 135
c0 105 89 176 259 176c20 0 32 -1 46 -2v16c0 90 -42 120 -110 120c-52 0 -103 -17 -145 -40v85c41 17 96 30 155 30c91 0 185 -31 185 -185v-197c0 -39 12 -65 50 -65zM205 60c61 0 135 51 135 132v43c-17 1 -31 2 -48 2c-122 0 -162 -49 -162 -102c0 -50 33 -75 75 -75z
" />
    <glyph glyph-name="amacron" unicode="&#x101;" horiz-adv-x="520" 
d="M418 700v-70h-320v70h320zM475 63c7 0 14 1 20 2v-70c-11 -3 -25 -5 -38 -5c-64 0 -99 45 -106 86c-40 -52 -91 -86 -164 -86c-89 0 -152 50 -152 135c0 105 89 176 259 176c20 0 32 -1 46 -2v16c0 90 -42 120 -110 120c-52 0 -103 -17 -145 -40v85c41 17 96 30 155 30
c91 0 185 -31 185 -185v-197c0 -39 12 -65 50 -65zM205 60c61 0 135 51 135 132v43c-17 1 -31 2 -48 2c-122 0 -162 -49 -162 -102c0 -50 33 -75 75 -75z" />
    <glyph glyph-name="aogonek" unicode="&#x105;" horiz-adv-x="520" 
d="M475 63c7 0 14 1 20 2v-70c-10 -3 -22 -5 -34 -5c-37 -25 -62 -58 -62 -94c0 -31 16 -51 47 -51c16 0 34 5 49 11v-60c-22 -11 -47 -16 -72 -16c-71 0 -109 42 -109 96c0 48 31 90 88 128c-30 16 -46 45 -51 72c-40 -52 -91 -86 -164 -86c-89 0 -152 50 -152 135
c0 105 89 176 259 176c20 0 32 -1 46 -2v16c0 90 -42 120 -110 120c-52 0 -103 -17 -145 -40v85c41 17 96 30 155 30c91 0 185 -31 185 -185v-197c0 -39 12 -65 50 -65zM205 60c61 0 135 51 135 132v43c-17 1 -31 2 -48 2c-122 0 -162 -49 -162 -102c0 -50 33 -75 75 -75z
" />
    <glyph glyph-name="aring" unicode="&#xe5;" horiz-adv-x="520" 
d="M258 555c-61 0 -110 49 -110 110s49 110 110 110s110 -49 110 -110s-49 -110 -110 -110zM258 717c-29 0 -50 -24 -50 -52s21 -52 50 -52s50 24 50 52s-21 52 -50 52zM475 63c7 0 14 1 20 2v-70c-11 -3 -25 -5 -38 -5c-64 0 -99 45 -106 86c-40 -52 -91 -86 -164 -86
c-89 0 -152 50 -152 135c0 105 89 176 259 176c20 0 32 -1 46 -2v16c0 90 -42 120 -110 120c-52 0 -103 -17 -145 -40v85c41 17 96 30 155 30c91 0 185 -31 185 -185v-197c0 -39 12 -65 50 -65zM205 60c61 0 135 51 135 132v43c-17 1 -31 2 -48 2c-122 0 -162 -49 -162 -102
c0 -50 33 -75 75 -75z" />
    <glyph glyph-name="atilde" unicode="&#xe3;" horiz-adv-x="520" 
d="M188 659c-35 0 -45 -27 -55 -64h-60c10 97 60 134 115 134c80 0 92 -64 140 -64c35 0 45 27 55 64h60c-10 -97 -60 -134 -115 -134c-80 0 -92 64 -140 64zM475 63c7 0 14 1 20 2v-70c-11 -3 -25 -5 -38 -5c-64 0 -99 45 -106 86c-40 -52 -91 -86 -164 -86
c-89 0 -152 50 -152 135c0 105 89 176 259 176c20 0 32 -1 46 -2v16c0 90 -42 120 -110 120c-52 0 -103 -17 -145 -40v85c41 17 96 30 155 30c91 0 185 -31 185 -185v-197c0 -39 12 -65 50 -65zM205 60c61 0 135 51 135 132v43c-17 1 -31 2 -48 2c-122 0 -162 -49 -162 -102
c0 -50 33 -75 75 -75z" />
    <glyph glyph-name="ae" unicode="&#xe6;" horiz-adv-x="836" 
d="M581 65c51 0 107 23 120 90h85c-15 -111 -105 -165 -205 -165c-84 0 -160 40 -203 113c-37 -63 -100 -113 -192 -113c-87 0 -151 50 -151 135c0 112 100 185 305 175v15c0 90 -43 120 -111 120c-52 0 -102 -21 -144 -40v85c41 17 96 30 155 30c64 0 130 -15 163 -78
c44 51 106 78 173 78c116 0 215 -58 215 -260h-350c0 -125 60 -185 140 -185zM576 440c-65 0 -112 -44 -129 -125h239c-4 73 -38 125 -110 125zM205 60c61 0 135 51 135 132v43c-162 10 -210 -41 -210 -100c0 -50 33 -75 75 -75z" />
    <glyph glyph-name="aeacute" unicode="&#x1fd;" horiz-adv-x="836" 
d="M583 740l-130 -160h-70l90 160h110zM581 65c51 0 107 23 120 90h85c-15 -111 -105 -165 -205 -165c-84 0 -160 40 -203 113c-37 -63 -100 -113 -192 -113c-87 0 -151 50 -151 135c0 112 100 185 305 175v15c0 90 -43 120 -111 120c-52 0 -102 -21 -144 -40v85
c41 17 96 30 155 30c64 0 130 -15 163 -78c44 51 106 78 173 78c116 0 215 -58 215 -260h-350c0 -125 60 -185 140 -185zM576 440c-65 0 -112 -44 -129 -125h239c-4 73 -38 125 -110 125zM205 60c61 0 135 51 135 132v43c-162 10 -210 -41 -210 -100c0 -50 33 -75 75 -75z
" />
    <glyph glyph-name="b" unicode="b" horiz-adv-x="585" 
d="M315 510c120 0 225 -95 225 -260s-105 -260 -225 -260c-67 0 -118 28 -155 78v-68h-90v740h90v-308c37 50 88 78 155 78zM305 65c75 0 135 60 135 185s-60 185 -135 185s-145 -60 -145 -185s70 -185 145 -185z" />
    <glyph glyph-name="c" unicode="c" horiz-adv-x="520" 
d="M279 65c54 0 108 29 121 100h85c-15 -116 -105 -175 -206 -175c-129 0 -239 95 -239 260s110 260 239 260c101 0 191 -59 206 -175h-85c-13 71 -67 100 -121 100c-78 0 -139 -60 -139 -185s61 -185 139 -185z" />
    <glyph glyph-name="cacute" unicode="&#x107;" horiz-adv-x="520" 
d="M250 580l90 160h110l-130 -160h-70zM279 65c54 0 108 29 121 100h85c-15 -116 -105 -175 -206 -175c-129 0 -239 95 -239 260s110 260 239 260c101 0 191 -59 206 -175h-85c-13 71 -67 100 -121 100c-78 0 -139 -60 -139 -185s61 -185 139 -185z" />
    <glyph glyph-name="ccaron" unicode="&#x10d;" horiz-adv-x="520" 
d="M315 580h-70l-130 160h100l65 -104l65 104h100zM279 65c54 0 108 29 121 100h85c-15 -116 -105 -175 -206 -175c-129 0 -239 95 -239 260s110 260 239 260c101 0 191 -59 206 -175h-85c-13 71 -67 100 -121 100c-78 0 -139 -60 -139 -185s61 -185 139 -185z" />
    <glyph glyph-name="ccedilla" unicode="&#xe7;" horiz-adv-x="520" 
d="M279 65c54 0 108 29 121 100h85c-14 -108 -93 -167 -186 -174l-15 -51c69 13 121 -14 121 -74c0 -62 -56 -96 -117 -96c-35 0 -55 7 -78 19v52c23 -13 43 -21 68 -21c30 0 57 12 57 41c0 51 -73 42 -125 24l34 107c-113 16 -204 108 -204 258c0 165 110 260 239 260
c101 0 191 -59 206 -175h-85c-13 71 -67 100 -121 100c-78 0 -139 -60 -139 -185s61 -185 139 -185z" />
    <glyph glyph-name="cdotaccent" unicode="&#x10b;" horiz-adv-x="520" 
d="M280 610c-32 0 -60 27 -60 60c0 32 28 60 60 60c33 0 60 -28 60 -60c0 -33 -27 -60 -60 -60zM279 65c54 0 108 29 121 100h85c-15 -116 -105 -175 -206 -175c-129 0 -239 95 -239 260s110 260 239 260c101 0 191 -59 206 -175h-85c-13 71 -67 100 -121 100
c-78 0 -139 -60 -139 -185s61 -185 139 -185z" />
    <glyph glyph-name="d" unicode="d" horiz-adv-x="585" 
d="M425 740h90v-740h-90v68c-37 -50 -88 -78 -155 -78c-120 0 -225 95 -225 260s105 260 225 260c67 0 118 -28 155 -78v308zM280 65c75 0 145 60 145 185s-70 185 -145 185s-135 -60 -135 -185s60 -185 135 -185z" />
    <glyph glyph-name="eth" unicode="&#xf0;" horiz-adv-x="560" 
d="M346 666c151 -138 169 -285 169 -416c0 -165 -100 -260 -230 -260s-240 95 -240 260s105 260 225 260c54 0 97 -18 131 -50c-20 55 -54 109 -116 163l-93 -65l-31 46l78 55c-25 18 -53 37 -86 55l54 52c36 -21 67 -42 95 -63l92 64l31 -46zM285 65c80 0 139 60 140 185
c0 125 -70 185 -145 185s-135 -60 -135 -185s60 -185 140 -185z" />
    <glyph glyph-name="dcaron" unicode="&#x10f;" horiz-adv-x="685" 
d="M425 740h90v-740h-90v68c-37 -50 -88 -78 -155 -78c-120 0 -225 95 -225 260s105 260 225 260c67 0 118 -28 155 -78v308zM595 560v180h90l-30 -180h-60zM280 65c75 0 145 60 145 185s-70 185 -145 185s-135 -60 -135 -185s60 -185 135 -185z" />
    <glyph glyph-name="dcroat" unicode="&#x111;" horiz-adv-x="585" 
d="M610 643v-70h-95v-573h-90v68c-37 -50 -88 -78 -155 -78c-120 0 -225 95 -225 260s105 260 225 260c67 0 118 -28 155 -78v141h-135v70h135v97h90v-97h95zM280 65c75 0 145 60 145 185s-70 185 -145 185s-135 -60 -135 -185s60 -185 135 -185z" />
    <glyph glyph-name="e" unicode="e" horiz-adv-x="540" 
d="M285 65c51 0 107 23 120 90h85c-15 -111 -105 -165 -205 -165c-130 0 -240 95 -240 260s111 260 235 260c116 0 215 -58 215 -260h-350c0 -125 60 -185 140 -185zM280 440c-65 0 -112 -44 -129 -125h239c-4 73 -38 125 -110 125z" />
    <glyph glyph-name="eacute" unicode="&#xe9;" horiz-adv-x="540" 
d="M440 740l-130 -160h-70l90 160h110zM285 65c51 0 107 23 120 90h85c-15 -111 -105 -165 -205 -165c-130 0 -240 95 -240 260s111 260 235 260c116 0 215 -58 215 -260h-350c0 -125 60 -185 140 -185zM280 440c-65 0 -112 -44 -129 -125h239c-4 73 -38 125 -110 125z" />
    <glyph glyph-name="ecaron" unicode="&#x11b;" horiz-adv-x="540" 
d="M305 580h-70l-130 160h100l65 -104l65 104h100zM285 65c51 0 107 23 120 90h85c-15 -111 -105 -165 -205 -165c-130 0 -240 95 -240 260s111 260 235 260c116 0 215 -58 215 -260h-350c0 -125 60 -185 140 -185zM280 440c-65 0 -112 -44 -129 -125h239
c-4 73 -38 125 -110 125z" />
    <glyph glyph-name="ecircumflex" unicode="&#xea;" horiz-adv-x="540" 
d="M270 684l-65 -104h-100l130 160h70l130 -160h-100zM285 65c51 0 107 23 120 90h85c-15 -111 -105 -165 -205 -165c-130 0 -240 95 -240 260s111 260 235 260c116 0 215 -58 215 -260h-350c0 -125 60 -185 140 -185zM280 440c-65 0 -112 -44 -129 -125h239
c-4 73 -38 125 -110 125z" />
    <glyph glyph-name="uni1EBF" unicode="&#x1ebf;" horiz-adv-x="540" 
d="M595 850l-130 -160h-70l90 160h110zM270 684l-65 -104h-100l130 160h70l130 -160h-100zM280 510c116 0 215 -58 215 -260h-350c0 -125 60 -185 140 -185c51 0 107 23 120 90h85c-15 -111 -105 -165 -205 -165c-130 0 -240 95 -240 260s111 260 235 260zM151 315h239
c-4 73 -38 125 -110 125c-65 0 -112 -44 -129 -125z" />
    <glyph glyph-name="uni1EC7" unicode="&#x1ec7;" horiz-adv-x="540" 
d="M270 684l-65 -104h-100l130 160h70l130 -160h-100zM285 65c51 0 107 23 120 90h85c-15 -111 -105 -165 -205 -165c-130 0 -240 95 -240 260s111 260 235 260c116 0 215 -58 215 -260h-350c0 -125 60 -185 140 -185zM280 440c-65 0 -112 -44 -129 -125h239
c-4 73 -38 125 -110 125zM270 -100c33 0 60 -28 60 -60c0 -33 -27 -60 -60 -60c-32 0 -60 27 -60 60c0 32 28 60 60 60z" />
    <glyph glyph-name="uni1EC1" unicode="&#x1ec1;" horiz-adv-x="540" 
d="M485 690h-70l-130 160h110zM270 684l-65 -104h-100l130 160h70l130 -160h-100zM285 65c51 0 107 23 120 90h85c-15 -111 -105 -165 -205 -165c-130 0 -240 95 -240 260s111 260 235 260c116 0 215 -58 215 -260h-350c0 -125 60 -185 140 -185zM280 440
c-65 0 -112 -44 -129 -125h239c-4 73 -38 125 -110 125z" />
    <glyph glyph-name="uni1EC3" unicode="&#x1ec3;" horiz-adv-x="540" 
d="M422 860c50 0 97 -30 97 -87c0 -65 -72 -72 -72 -115h-50c0 63 62 70 62 115c0 25 -17 38 -37 38s-37 -13 -42 -38h-55c5 57 47 87 97 87zM270 684l-65 -104h-100l130 160h70l130 -160h-100zM280 510c116 0 215 -58 215 -260h-350c0 -125 60 -185 140 -185
c51 0 107 23 120 90h85c-15 -111 -105 -165 -205 -165c-130 0 -240 95 -240 260s111 260 235 260zM151 315h239c-4 73 -38 125 -110 125c-65 0 -112 -44 -129 -125z" />
    <glyph glyph-name="uni1EC5" unicode="&#x1ec5;" horiz-adv-x="540" 
d="M680 839h60c-10 -97 -60 -134 -115 -134c-80 0 -92 64 -140 64c-35 0 -45 -27 -55 -64h-60c10 97 60 134 115 134c80 0 92 -64 140 -64c35 0 45 27 55 64zM270 684l-65 -104h-100l130 160h70l130 -160h-100zM280 510c116 0 215 -58 215 -260h-350
c0 -125 60 -185 140 -185c51 0 107 23 120 90h85c-15 -111 -105 -165 -205 -165c-130 0 -240 95 -240 260s111 260 235 260zM151 315h239c-4 73 -38 125 -110 125c-65 0 -112 -44 -129 -125z" />
    <glyph glyph-name="edieresis" unicode="&#xeb;" horiz-adv-x="540" 
d="M170 615c-31 0 -57 26 -57 58c0 30 26 57 57 57s57 -27 57 -57c0 -32 -26 -58 -57 -58zM370 615c-31 0 -57 26 -57 58c0 30 26 57 57 57s57 -27 57 -57c0 -32 -26 -58 -57 -58zM285 65c51 0 107 23 120 90h85c-15 -111 -105 -165 -205 -165c-130 0 -240 95 -240 260
s111 260 235 260c116 0 215 -58 215 -260h-350c0 -125 60 -185 140 -185zM280 440c-65 0 -112 -44 -129 -125h239c-4 73 -38 125 -110 125z" />
    <glyph glyph-name="edotaccent" unicode="&#x117;" horiz-adv-x="540" 
d="M270 610c-32 0 -60 27 -60 60c0 32 28 60 60 60c33 0 60 -28 60 -60c0 -33 -27 -60 -60 -60zM285 65c51 0 107 23 120 90h85c-15 -111 -105 -165 -205 -165c-130 0 -240 95 -240 260s111 260 235 260c116 0 215 -58 215 -260h-350c0 -125 60 -185 140 -185zM280 440
c-65 0 -112 -44 -129 -125h239c-4 73 -38 125 -110 125z" />
    <glyph glyph-name="uni1EB9" unicode="&#x1eb9;" horiz-adv-x="540" 
d="M285 65c51 0 107 23 120 90h85c-15 -111 -105 -165 -205 -165c-130 0 -240 95 -240 260s111 260 235 260c116 0 215 -58 215 -260h-350c0 -125 60 -185 140 -185zM280 440c-65 0 -112 -44 -129 -125h239c-4 73 -38 125 -110 125zM270 -100c33 0 60 -28 60 -60
c0 -33 -27 -60 -60 -60c-32 0 -60 27 -60 60c0 32 28 60 60 60z" />
    <glyph glyph-name="egrave" unicode="&#xe8;" horiz-adv-x="540" 
d="M330 580h-70l-130 160h110zM285 65c51 0 107 23 120 90h85c-15 -111 -105 -165 -205 -165c-130 0 -240 95 -240 260s111 260 235 260c116 0 215 -58 215 -260h-350c0 -125 60 -185 140 -185zM280 440c-65 0 -112 -44 -129 -125h239c-4 73 -38 125 -110 125z" />
    <glyph glyph-name="uni1EBB" unicode="&#x1ebb;" horiz-adv-x="540" 
d="M267 701c-20 0 -37 -13 -42 -38h-55c5 57 47 87 97 87s97 -30 97 -87c0 -65 -72 -72 -72 -115h-50c0 63 62 70 62 115c0 25 -17 38 -37 38zM285 65c51 0 107 23 120 90h85c-15 -111 -105 -165 -205 -165c-130 0 -240 95 -240 260s111 260 235 260c116 0 215 -58 215 -260
h-350c0 -125 60 -185 140 -185zM280 440c-65 0 -112 -44 -129 -125h239c-4 73 -38 125 -110 125z" />
    <glyph glyph-name="emacron" unicode="&#x113;" horiz-adv-x="540" 
d="M430 700v-70h-320v70h320zM285 65c51 0 107 23 120 90h85c-15 -111 -105 -165 -205 -165c-130 0 -240 95 -240 260s111 260 235 260c116 0 215 -58 215 -260h-350c0 -125 60 -185 140 -185zM280 440c-65 0 -112 -44 -129 -125h239c-4 73 -38 125 -110 125z" />
    <glyph glyph-name="eogonek" unicode="&#x119;" horiz-adv-x="540" 
d="M285 65c51 0 107 23 120 90h85c-12 -85 -67 -137 -138 -156c-44 -29 -76 -73 -76 -113c0 -31 16 -51 47 -51c16 0 34 5 49 11v-60c-22 -11 -47 -16 -72 -16c-71 0 -109 42 -109 96c0 43 25 88 71 125c-120 11 -217 104 -217 259c0 165 111 260 235 260
c116 0 215 -58 215 -260h-350c0 -125 60 -185 140 -185zM280 440c-65 0 -112 -44 -129 -125h239c-4 73 -38 125 -110 125z" />
    <glyph glyph-name="uni1EBD" unicode="&#x1ebd;" horiz-adv-x="540" 
d="M200 659c-35 0 -45 -27 -55 -64h-60c10 97 60 134 115 134c80 0 92 -64 140 -64c35 0 45 27 55 64h60c-10 -97 -60 -134 -115 -134c-80 0 -92 64 -140 64zM285 65c51 0 107 23 120 90h85c-15 -111 -105 -165 -205 -165c-130 0 -240 95 -240 260s111 260 235 260
c116 0 215 -58 215 -260h-350c0 -125 60 -185 140 -185zM280 440c-65 0 -112 -44 -129 -125h239c-4 73 -38 125 -110 125z" />
    <glyph glyph-name="f" unicode="f" horiz-adv-x="380" 
d="M290 675c-47 0 -95 -22 -95 -133v-42h165v-75h-165v-425h-90v425h-80v75h80v57c0 145 87 193 174 193c35 0 69 -8 91 -18v-75c-20 9 -50 18 -80 18z" />
    <glyph glyph-name="g" unicode="g" horiz-adv-x="545" 
d="M353 72c112 -8 162 -61 162 -130c0 -116 -123 -172 -268 -172c-160 0 -217 66 -217 148c0 49 17 85 49 118c-20 22 -29 49 -29 77c0 42 21 76 50 100c-31 29 -50 70 -50 121c0 114 95 176 197 176c51 0 100 -15 137 -45c35 33 82 45 121 45v-85c-26 0 -53 -7 -75 -21
c9 -20 14 -44 14 -70c0 -114 -95 -176 -197 -176c-35 0 -69 7 -98 21c-14 -10 -24 -24 -24 -44c0 -27 19 -49 64 -52zM247 440c-67 0 -112 -40 -112 -106s45 -106 112 -106s112 40 112 106s-45 106 -112 106zM252 -165c103 0 178 38 178 97c0 52 -52 57 -117 62l-179 13
c-19 -26 -24 -50 -24 -75c0 -51 37 -97 142 -97z" />
    <glyph glyph-name="gbreve" unicode="&#x11f;" horiz-adv-x="545" 
d="M255 580c-96 0 -150 57 -160 160h60c15 -61 43 -90 100 -90s85 29 100 90h60c-10 -103 -64 -160 -160 -160zM353 72c112 -8 162 -61 162 -130c0 -116 -123 -172 -268 -172c-160 0 -217 66 -217 148c0 49 17 85 49 118c-20 22 -29 49 -29 77c0 42 21 76 50 100
c-31 29 -50 70 -50 121c0 114 95 176 197 176c51 0 100 -15 137 -45c35 33 82 45 121 45v-85c-26 0 -53 -7 -75 -21c9 -20 14 -44 14 -70c0 -114 -95 -176 -197 -176c-35 0 -69 7 -98 21c-14 -10 -24 -24 -24 -44c0 -27 19 -49 64 -52zM247 440c-67 0 -112 -40 -112 -106
s45 -106 112 -106s112 40 112 106s-45 106 -112 106zM252 -165c103 0 178 38 178 97c0 52 -52 57 -117 62l-179 13c-19 -26 -24 -50 -24 -75c0 -51 37 -97 142 -97z" />
    <glyph glyph-name="gcommaaccent" unicode="&#x123;" horiz-adv-x="545" 
d="M395 740l-90 -160h-110l130 160h70zM353 72c112 -8 162 -61 162 -130c0 -116 -123 -172 -268 -172c-160 0 -217 66 -217 148c0 49 17 85 49 118c-20 22 -29 49 -29 77c0 42 21 76 50 100c-31 29 -50 70 -50 121c0 114 95 176 197 176c51 0 100 -15 137 -45
c35 33 82 45 121 45v-85c-26 0 -53 -7 -75 -21c9 -20 14 -44 14 -70c0 -114 -95 -176 -197 -176c-35 0 -69 7 -98 21c-14 -10 -24 -24 -24 -44c0 -27 19 -49 64 -52zM247 440c-67 0 -112 -40 -112 -106s45 -106 112 -106s112 40 112 106s-45 106 -112 106zM252 -165
c103 0 178 38 178 97c0 52 -52 57 -117 62l-179 13c-19 -26 -24 -50 -24 -75c0 -51 37 -97 142 -97z" />
    <glyph glyph-name="gdotaccent" unicode="&#x121;" horiz-adv-x="545" 
d="M255 610c-32 0 -60 27 -60 60c0 32 28 60 60 60c33 0 60 -28 60 -60c0 -33 -27 -60 -60 -60zM353 72c112 -8 162 -61 162 -130c0 -116 -123 -172 -268 -172c-160 0 -217 66 -217 148c0 49 17 85 49 118c-20 22 -29 49 -29 77c0 42 21 76 50 100c-31 29 -50 70 -50 121
c0 114 95 176 197 176c51 0 100 -15 137 -45c35 33 82 45 121 45v-85c-26 0 -53 -7 -75 -21c9 -20 14 -44 14 -70c0 -114 -95 -176 -197 -176c-35 0 -69 7 -98 21c-14 -10 -24 -24 -24 -44c0 -27 19 -49 64 -52zM247 440c-67 0 -112 -40 -112 -106s45 -106 112 -106
s112 40 112 106s-45 106 -112 106zM252 -165c103 0 178 38 178 97c0 52 -52 57 -117 62l-179 13c-19 -26 -24 -50 -24 -75c0 -51 37 -97 142 -97z" />
    <glyph glyph-name="h" unicode="h" horiz-adv-x="590" 
d="M334 510c105 0 181 -53 181 -190v-320h-90v300c0 105 -51 130 -110 130c-65 0 -150 -45 -150 -193v-237h-90v740h90v-321c29 44 81 91 169 91z" />
    <glyph glyph-name="hbar" unicode="&#x127;" horiz-adv-x="590" 
d="M334 510c105 0 181 -53 181 -190v-320h-90v300c0 105 -51 130 -110 130c-65 0 -150 -45 -150 -193v-237h-90v573h-105v70h105v97h90v-97h125v-70h-125v-154c29 44 81 91 169 91z" />
    <glyph glyph-name="i" unicode="i" horiz-adv-x="240" 
d="M120 610c-32 0 -60 27 -60 60c0 32 28 60 60 60c33 0 60 -28 60 -60c0 -33 -27 -60 -60 -60zM75 0v500h90v-500h-90z" />
    <glyph glyph-name="dotlessi" unicode="&#x131;" horiz-adv-x="240" 
d="M75 0v500h90v-500h-90z" />
    <glyph glyph-name="iacute" unicode="&#xed;" horiz-adv-x="240" 
d="M90 580l90 160h110l-130 -160h-70zM75 0v500h90v-500h-90z" />
    <glyph glyph-name="uni01D0" unicode="&#x1d0;" horiz-adv-x="240" 
d="M155 580h-70l-130 160h100l65 -104l65 104h100zM75 0v500h90v-500h-90z" />
    <glyph glyph-name="icircumflex" unicode="&#xee;" horiz-adv-x="240" 
d="M155 740l130 -160h-100l-65 104l-65 -104h-100l130 160h70zM75 0v500h90v-500h-90z" />
    <glyph glyph-name="idieresis" unicode="&#xef;" horiz-adv-x="240" 
d="M20 615c-31 0 -57 26 -57 58c0 30 26 57 57 57s57 -27 57 -57c0 -32 -26 -58 -57 -58zM220 615c-31 0 -57 26 -57 58c0 30 26 57 57 57s57 -27 57 -57c0 -32 -26 -58 -57 -58zM75 0v500h90v-500h-90z" />
    <glyph glyph-name="i.loclTRK" horiz-adv-x="240" 
d="M120 610c-32 0 -60 27 -60 60c0 32 28 60 60 60c33 0 60 -28 60 -60c0 -33 -27 -60 -60 -60zM75 0v500h90v-500h-90z" />
    <glyph glyph-name="uni1ECB" unicode="&#x1ecb;" horiz-adv-x="240" 
d="M120 610c-32 0 -60 27 -60 60c0 32 28 60 60 60c33 0 60 -28 60 -60c0 -33 -27 -60 -60 -60zM75 0v500h90v-500h-90zM120 -220c-32 0 -60 27 -60 60c0 32 28 60 60 60c33 0 60 -28 60 -60c0 -33 -27 -60 -60 -60z" />
    <glyph glyph-name="igrave" unicode="&#xec;" horiz-adv-x="240" 
d="M180 580h-70l-130 160h110zM75 0v500h90v-500h-90z" />
    <glyph glyph-name="uni1EC9" unicode="&#x1ec9;" horiz-adv-x="240" 
d="M117 750c50 0 97 -30 97 -87c0 -65 -72 -72 -72 -115h-50c0 63 62 70 62 115c0 25 -17 38 -37 38s-37 -13 -42 -38h-55c5 57 47 87 97 87zM75 0v500h90v-500h-90z" />
    <glyph glyph-name="imacron" unicode="&#x12b;" horiz-adv-x="240" 
d="M-40 630v70h320v-70h-320zM75 0v500h90v-500h-90z" />
    <glyph glyph-name="iogonek" unicode="&#x12f;" horiz-adv-x="240" 
d="M120 610c-32 0 -60 27 -60 60c0 32 28 60 60 60c33 0 60 -28 60 -60c0 -33 -27 -60 -60 -60zM75 4v496h90v-500h-13c-54 -27 -96 -68 -96 -114c0 -31 16 -51 47 -51c16 0 34 5 49 11v-60c-22 -11 -47 -16 -72 -16c-71 0 -109 42 -109 96c0 52 36 98 104 138z" />
    <glyph glyph-name="itilde" unicode="&#x129;" horiz-adv-x="240" 
d="M245 729h60c-10 -97 -60 -134 -115 -134c-80 0 -92 64 -140 64c-35 0 -45 -27 -55 -64h-60c10 97 60 134 115 134c80 0 92 -64 140 -64c35 0 45 27 55 64zM75 0v500h90v-500h-90z" />
    <glyph glyph-name="j" unicode="j" horiz-adv-x="240" 
d="M120 610c-32 0 -60 27 -60 60c0 32 28 60 60 60c33 0 60 -28 60 -60c0 -33 -27 -60 -60 -60zM75 500h90v-557c0 -95 -71 -173 -190 -173v75c64 0 100 33 100 113v542z" />
    <glyph glyph-name="k" unicode="k" horiz-adv-x="540" 
d="M525 0h-108l-162 228l-90 -98v-130h-90v740h90v-495l233 255h107l-191 -208z" />
    <glyph glyph-name="kcommaaccent" unicode="&#x137;" horiz-adv-x="540" 
d="M314 292l211 -292h-108l-162 228l-90 -98v-130h-90v740h90v-495l233 255h107zM203 -257l33 157h82l-57 -157h-58z" />
    <glyph glyph-name="l" unicode="l" horiz-adv-x="240" 
d="M75 0v740h90v-740h-90z" />
    <glyph glyph-name="lacute" unicode="&#x13a;" horiz-adv-x="235" 
d="M75 770l120 130h120l-160 -130h-80zM75 0v740h90v-740h-90z" />
    <glyph glyph-name="lcaron" unicode="&#x13e;" horiz-adv-x="335" 
d="M75 0v740h90v-740h-90zM245 560v180h90l-30 -180h-60z" />
    <glyph glyph-name="lcommaaccent" unicode="&#x13c;" horiz-adv-x="240" 
d="M75 0v740h90v-740h-90zM60 -257l33 157h82l-57 -157h-58z" />
    <glyph glyph-name="lslash" unicode="&#x142;" horiz-adv-x="330" 
d="M310 500v-90l-95 -58v-352h-90v298l-95 -58v90l95 58v352h90v-298z" />
    <glyph glyph-name="m" unicode="m" horiz-adv-x="900" 
d="M654 510c95 0 171 -53 171 -190v-320h-90v290c0 105 -51 140 -100 140c-55 0 -140 -45 -140 -193v-237h-90v290c0 105 -51 140 -100 140c-55 0 -140 -45 -140 -193v-237h-90v500h90v-81c29 44 81 91 159 91c73 0 135 -31 160 -109c39 66 98 109 170 109z" />
    <glyph glyph-name="n" unicode="n" horiz-adv-x="590" 
d="M334 510c105 0 181 -53 181 -190v-320h-90v300c0 105 -51 130 -110 130c-65 0 -150 -45 -150 -193v-237h-90v500h90v-81c29 44 81 91 169 91z" />
    <glyph glyph-name="nacute" unicode="&#x144;" horiz-adv-x="590" 
d="M265 580l90 160h110l-130 -160h-70zM334 510c105 0 181 -53 181 -190v-320h-90v300c0 105 -51 130 -110 130c-65 0 -150 -45 -150 -193v-237h-90v500h90v-81c29 44 81 91 169 91z" />
    <glyph glyph-name="ncaron" unicode="&#x148;" horiz-adv-x="590" 
d="M330 580h-70l-130 160h100l65 -104l65 104h100zM334 510c105 0 181 -53 181 -190v-320h-90v300c0 105 -51 130 -110 130c-65 0 -150 -45 -150 -193v-237h-90v500h90v-81c29 44 81 91 169 91z" />
    <glyph glyph-name="ncommaaccent" unicode="&#x146;" horiz-adv-x="590" 
d="M334 510c105 0 181 -53 181 -190v-320h-90v300c0 105 -51 130 -110 130c-65 0 -150 -45 -150 -193v-237h-90v500h90v-81c29 44 81 91 169 91zM235 -257l33 157h82l-57 -157h-58z" />
    <glyph glyph-name="eng" unicode="&#x14b;" horiz-adv-x="590" 
d="M334 510c105 0 181 -53 181 -190v-377c0 -95 -71 -173 -190 -173v75c64 0 100 33 100 113v342c0 105 -51 130 -110 130c-65 0 -150 -45 -150 -193v-237h-90v500h90v-81c29 44 81 91 169 91z" />
    <glyph glyph-name="ntilde" unicode="&#xf1;" horiz-adv-x="590" 
d="M225 659c-35 0 -45 -27 -55 -64h-60c10 97 60 134 115 134c80 0 92 -64 140 -64c35 0 45 27 55 64h60c-10 -97 -60 -134 -115 -134c-80 0 -92 64 -140 64zM334 510c105 0 181 -53 181 -190v-320h-90v300c0 105 -51 130 -110 130c-65 0 -150 -45 -150 -193v-237h-90v500
h90v-81c29 44 81 91 169 91z" />
    <glyph glyph-name="o" unicode="o" horiz-adv-x="570" 
d="M285 510c130 0 240 -95 240 -260s-110 -260 -240 -260s-240 95 -240 260s110 260 240 260zM285 65c80 0 140 60 140 185s-60 185 -140 185s-140 -60 -140 -185s60 -185 140 -185z" />
    <glyph glyph-name="oacute" unicode="&#xf3;" horiz-adv-x="570" 
d="M255 580l90 160h110l-130 -160h-70zM285 510c130 0 240 -95 240 -260s-110 -260 -240 -260s-240 95 -240 260s110 260 240 260zM285 65c80 0 140 60 140 185s-60 185 -140 185s-140 -60 -140 -185s60 -185 140 -185z" />
    <glyph glyph-name="uni01D2" unicode="&#x1d2;" horiz-adv-x="570" 
d="M320 580h-70l-130 160h100l65 -104l65 104h100zM285 510c130 0 240 -95 240 -260s-110 -260 -240 -260s-240 95 -240 260s110 260 240 260zM285 65c80 0 140 60 140 185s-60 185 -140 185s-140 -60 -140 -185s60 -185 140 -185z" />
    <glyph glyph-name="ocircumflex" unicode="&#xf4;" horiz-adv-x="570" 
d="M285 684l-65 -104h-100l130 160h70l130 -160h-100zM285 510c130 0 240 -95 240 -260s-110 -260 -240 -260s-240 95 -240 260s110 260 240 260zM285 65c80 0 140 60 140 185s-60 185 -140 185s-140 -60 -140 -185s60 -185 140 -185z" />
    <glyph glyph-name="uni1ED1" unicode="&#x1ed1;" horiz-adv-x="570" 
d="M610 850l-130 -160h-70l90 160h110zM285 684l-65 -104h-100l130 160h70l130 -160h-100zM285 510c130 0 240 -95 240 -260s-110 -260 -240 -260s-240 95 -240 260s110 260 240 260zM285 65c80 0 140 60 140 185s-60 185 -140 185s-140 -60 -140 -185s60 -185 140 -185z
" />
    <glyph glyph-name="uni1ED9" unicode="&#x1ed9;" horiz-adv-x="570" 
d="M285 684l-65 -104h-100l130 160h70l130 -160h-100zM285 510c130 0 240 -95 240 -260s-110 -260 -240 -260s-240 95 -240 260s110 260 240 260zM285 65c80 0 140 60 140 185s-60 185 -140 185s-140 -60 -140 -185s60 -185 140 -185zM285 -100c33 0 60 -28 60 -60
c0 -33 -27 -60 -60 -60c-32 0 -60 27 -60 60c0 32 28 60 60 60z" />
    <glyph glyph-name="uni1ED3" unicode="&#x1ed3;" horiz-adv-x="570" 
d="M500 690h-70l-130 160h110zM285 684l-65 -104h-100l130 160h70l130 -160h-100zM285 510c130 0 240 -95 240 -260s-110 -260 -240 -260s-240 95 -240 260s110 260 240 260zM285 65c80 0 140 60 140 185s-60 185 -140 185s-140 -60 -140 -185s60 -185 140 -185z" />
    <glyph glyph-name="uni1ED5" unicode="&#x1ed5;" horiz-adv-x="570" 
d="M437 811c-20 0 -37 -13 -42 -38h-55c5 57 47 87 97 87s97 -30 97 -87c0 -65 -72 -72 -72 -115h-50c0 63 62 70 62 115c0 25 -17 38 -37 38zM285 684l-65 -104h-100l130 160h70l130 -160h-100zM285 510c130 0 240 -95 240 -260s-110 -260 -240 -260s-240 95 -240 260
s110 260 240 260zM285 65c80 0 140 60 140 185s-60 185 -140 185s-140 -60 -140 -185s60 -185 140 -185z" />
    <glyph glyph-name="uni1ED7" unicode="&#x1ed7;" horiz-adv-x="570" 
d="M695 839h60c-10 -97 -60 -134 -115 -134c-80 0 -92 64 -140 64c-35 0 -45 -27 -55 -64h-60c10 97 60 134 115 134c80 0 92 -64 140 -64c35 0 45 27 55 64zM285 684l-65 -104h-100l130 160h70l130 -160h-100zM285 510c130 0 240 -95 240 -260s-110 -260 -240 -260
s-240 95 -240 260s110 260 240 260zM285 65c80 0 140 60 140 185s-60 185 -140 185s-140 -60 -140 -185s60 -185 140 -185z" />
    <glyph glyph-name="odieresis" unicode="&#xf6;" horiz-adv-x="570" 
d="M185 615c-31 0 -57 26 -57 58c0 30 26 57 57 57s57 -27 57 -57c0 -32 -26 -58 -57 -58zM385 615c-31 0 -57 26 -57 58c0 30 26 57 57 57s57 -27 57 -57c0 -32 -26 -58 -57 -58zM285 510c130 0 240 -95 240 -260s-110 -260 -240 -260s-240 95 -240 260s110 260 240 260z
M285 65c80 0 140 60 140 185s-60 185 -140 185s-140 -60 -140 -185s60 -185 140 -185z" />
    <glyph glyph-name="uni1ECD" unicode="&#x1ecd;" horiz-adv-x="570" 
d="M285 510c130 0 240 -95 240 -260s-110 -260 -240 -260s-240 95 -240 260s110 260 240 260zM285 65c80 0 140 60 140 185s-60 185 -140 185s-140 -60 -140 -185s60 -185 140 -185zM285 -220c-32 0 -60 27 -60 60c0 32 28 60 60 60c33 0 60 -28 60 -60
c0 -33 -27 -60 -60 -60z" />
    <glyph glyph-name="ograve" unicode="&#xf2;" horiz-adv-x="570" 
d="M345 580h-70l-130 160h110zM285 510c130 0 240 -95 240 -260s-110 -260 -240 -260s-240 95 -240 260s110 260 240 260zM285 65c80 0 140 60 140 185s-60 185 -140 185s-140 -60 -140 -185s60 -185 140 -185z" />
    <glyph glyph-name="uni1ECF" unicode="&#x1ecf;" horiz-adv-x="570" 
d="M282 701c-20 0 -37 -13 -42 -38h-55c5 57 47 87 97 87s97 -30 97 -87c0 -65 -72 -72 -72 -115h-50c0 63 62 70 62 115c0 25 -17 38 -37 38zM285 510c130 0 240 -95 240 -260s-110 -260 -240 -260s-240 95 -240 260s110 260 240 260zM285 65c80 0 140 60 140 185
s-60 185 -140 185s-140 -60 -140 -185s60 -185 140 -185z" />
    <glyph glyph-name="ohorn" unicode="&#x1a1;" horiz-adv-x="655" 
d="M630 470c0 -70 -45 -130 -111 -154c4 -21 6 -43 6 -66c0 -165 -110 -260 -240 -260s-240 95 -240 260s110 260 240 260c90 0 170 -46 211 -128c31 15 44 48 44 88c0 10 -1 20 -2 30h90c1 -10 2 -20 2 -30zM285 65c80 0 140 60 140 185s-60 185 -140 185
s-140 -60 -140 -185s60 -185 140 -185z" />
    <glyph glyph-name="uni1EDB" unicode="&#x1edb;" horiz-adv-x="655" 
d="M455 740l-130 -160h-70l90 160h110zM630 470c0 -70 -45 -130 -111 -154c4 -21 6 -43 6 -66c0 -165 -110 -260 -240 -260s-240 95 -240 260s110 260 240 260c90 0 170 -46 211 -128c31 15 44 48 44 88c0 10 -1 20 -2 30h90c1 -10 2 -20 2 -30zM285 65c80 0 140 60 140 185
s-60 185 -140 185s-140 -60 -140 -185s60 -185 140 -185z" />
    <glyph glyph-name="uni1EE3" unicode="&#x1ee3;" horiz-adv-x="655" 
d="M630 470c0 -70 -45 -130 -111 -154c4 -21 6 -43 6 -66c0 -165 -110 -260 -240 -260s-240 95 -240 260s110 260 240 260c90 0 170 -46 211 -128c31 15 44 48 44 88c0 10 -1 20 -2 30h90c1 -10 2 -20 2 -30zM285 65c80 0 140 60 140 185s-60 185 -140 185
s-140 -60 -140 -185s60 -185 140 -185zM285 -100c33 0 60 -28 60 -60c0 -33 -27 -60 -60 -60c-32 0 -60 27 -60 60c0 32 28 60 60 60z" />
    <glyph glyph-name="uni1EDD" unicode="&#x1edd;" horiz-adv-x="655" 
d="M345 580h-70l-130 160h110zM630 470c0 -70 -45 -130 -111 -154c4 -21 6 -43 6 -66c0 -165 -110 -260 -240 -260s-240 95 -240 260s110 260 240 260c90 0 170 -46 211 -128c31 15 44 48 44 88c0 10 -1 20 -2 30h90c1 -10 2 -20 2 -30zM285 65c80 0 140 60 140 185
s-60 185 -140 185s-140 -60 -140 -185s60 -185 140 -185z" />
    <glyph glyph-name="uni1EDF" unicode="&#x1edf;" horiz-adv-x="655" 
d="M282 701c-20 0 -37 -13 -42 -38h-55c5 57 47 87 97 87s97 -30 97 -87c0 -65 -72 -72 -72 -115h-50c0 63 62 70 62 115c0 25 -17 38 -37 38zM630 470c0 -70 -45 -130 -111 -154c4 -21 6 -43 6 -66c0 -165 -110 -260 -240 -260s-240 95 -240 260s110 260 240 260
c90 0 170 -46 211 -128c31 15 44 48 44 88c0 10 -1 20 -2 30h90c1 -10 2 -20 2 -30zM285 65c80 0 140 60 140 185s-60 185 -140 185s-140 -60 -140 -185s60 -185 140 -185z" />
    <glyph glyph-name="uni1EE1" unicode="&#x1ee1;" horiz-adv-x="655" 
d="M215 659c-35 0 -45 -27 -55 -64h-60c10 97 60 134 115 134c80 0 92 -64 140 -64c35 0 45 27 55 64h60c-10 -97 -60 -134 -115 -134c-80 0 -92 64 -140 64zM630 470c0 -70 -45 -130 -111 -154c4 -21 6 -43 6 -66c0 -165 -110 -260 -240 -260s-240 95 -240 260
s110 260 240 260c90 0 170 -46 211 -128c31 15 44 48 44 88c0 10 -1 20 -2 30h90c1 -10 2 -20 2 -30zM285 65c80 0 140 60 140 185s-60 185 -140 185s-140 -60 -140 -185s60 -185 140 -185z" />
    <glyph glyph-name="ohungarumlaut" unicode="&#x151;" horiz-adv-x="570" 
d="M165 580l90 160h110l-130 -160h-70zM335 580l90 160h110l-130 -160h-70zM285 510c130 0 240 -95 240 -260s-110 -260 -240 -260s-240 95 -240 260s110 260 240 260zM285 65c80 0 140 60 140 185s-60 185 -140 185s-140 -60 -140 -185s60 -185 140 -185z" />
    <glyph glyph-name="omacron" unicode="&#x14d;" horiz-adv-x="570" 
d="M125 630v70h320v-70h-320zM285 510c130 0 240 -95 240 -260s-110 -260 -240 -260s-240 95 -240 260s110 260 240 260zM285 65c80 0 140 60 140 185s-60 185 -140 185s-140 -60 -140 -185s60 -185 140 -185z" />
    <glyph glyph-name="oslash" unicode="&#xf8;" horiz-adv-x="570" 
d="M451 444c46 -44 74 -110 74 -194c0 -165 -110 -260 -240 -260c-46 0 -90 12 -127 35l-38 -54l-47 33l40 57c-42 45 -68 108 -68 189c0 165 110 260 240 260c43 0 85 -11 120 -31l35 50l47 -34zM140 250c0 -47 9 -85 25 -114l195 278c-22 14 -48 21 -75 21
c-80 0 -145 -60 -145 -185zM285 65c80 0 145 60 145 185c0 51 -11 92 -29 122l-197 -281c23 -18 51 -26 81 -26z" />
    <glyph glyph-name="otilde" unicode="&#xf5;" horiz-adv-x="570" 
d="M215 659c-35 0 -45 -27 -55 -64h-60c10 97 60 134 115 134c80 0 92 -64 140 -64c35 0 45 27 55 64h60c-10 -97 -60 -134 -115 -134c-80 0 -92 64 -140 64zM285 510c130 0 240 -95 240 -260s-110 -260 -240 -260s-240 95 -240 260s110 260 240 260zM285 65
c80 0 140 60 140 185s-60 185 -140 185s-140 -60 -140 -185s60 -185 140 -185z" />
    <glyph glyph-name="oe" unicode="&#x153;" horiz-adv-x="925" 
d="M670 65c51 0 107 23 120 90h85c-15 -111 -105 -165 -205 -165c-78 0 -148 34 -192 97c-45 -63 -115 -97 -193 -97c-130 0 -240 95 -240 260s110 260 240 260c78 0 148 -34 192 -97c44 63 114 97 188 97c116 0 215 -58 215 -260h-350c0 -125 60 -185 140 -185zM665 440
c-65 0 -112 -44 -129 -125h239c-4 73 -38 125 -110 125zM285 65c80 0 140 60 140 185s-60 185 -140 185s-140 -60 -140 -185s60 -185 140 -185z" />
    <glyph glyph-name="p" unicode="p" horiz-adv-x="590" 
d="M320 510c120 0 225 -95 225 -260s-105 -260 -225 -260c-67 0 -118 28 -155 78v-288h-90v720h90v-68c37 50 88 78 155 78zM310 65c75 0 135 60 135 185s-60 185 -135 185s-145 -60 -145 -185s70 -185 145 -185z" />
    <glyph glyph-name="thorn" unicode="&#xfe;" horiz-adv-x="590" 
d="M320 510c120 0 225 -95 225 -260s-105 -260 -225 -260c-67 0 -118 28 -155 78v-288h-90v960h90v-308c37 50 88 78 155 78zM310 65c75 0 135 60 135 185s-60 185 -135 185s-145 -60 -145 -185s70 -185 145 -185z" />
    <glyph glyph-name="q" unicode="q" horiz-adv-x="590" 
d="M425 500h90v-720h-90v288c-37 -50 -88 -78 -155 -78c-120 0 -225 95 -225 260s105 260 225 260c67 0 118 -28 155 -78v68zM280 65c75 0 145 60 145 185s-70 185 -145 185s-135 -60 -135 -185s60 -185 135 -185z" />
    <glyph glyph-name="r" unicode="r" horiz-adv-x="358" 
d="M165 399c41 73 89 111 168 111v-85c-69 0 -168 -51 -168 -207v-218h-90v500h90v-101z" />
    <glyph glyph-name="racute" unicode="&#x155;" horiz-adv-x="358" 
d="M342 740l-130 -160h-70l90 160h110zM165 399c41 73 89 111 168 111v-85c-69 0 -168 -51 -168 -207v-218h-90v500h90v-101z" />
    <glyph glyph-name="rcaron" unicode="&#x159;" horiz-adv-x="358" 
d="M207 580h-70l-130 160h100l65 -104l65 104h100zM165 399c41 73 89 111 168 111v-85c-69 0 -168 -51 -168 -207v-218h-90v500h90v-101z" />
    <glyph glyph-name="rcommaaccent" unicode="&#x157;" horiz-adv-x="358" 
d="M165 399c41 73 89 111 168 111v-85c-69 0 -168 -51 -168 -207v-218h-90v500h90v-101zM52 -257l33 157h82l-57 -157h-58z" />
    <glyph glyph-name="s" unicode="s" horiz-adv-x="465" 
d="M150 373c0 -110 270 -38 270 -228c0 -108 -95 -155 -205 -155c-59 0 -119 13 -160 30v85c42 -20 98 -40 160 -40c65 0 110 27 110 68c0 104 -270 40 -270 227c0 97 79 150 194 150c64 0 110 -13 151 -30v-80c-44 21 -94 40 -151 40c-63 0 -99 -26 -99 -67z" />
    <glyph glyph-name="sacute" unicode="&#x15b;" horiz-adv-x="465" 
d="M215 580l90 160h110l-130 -160h-70zM150 373c0 -110 270 -38 270 -228c0 -108 -95 -155 -205 -155c-59 0 -119 13 -160 30v85c42 -20 98 -40 160 -40c65 0 110 27 110 68c0 104 -270 40 -270 227c0 97 79 150 194 150c64 0 110 -13 151 -30v-80c-44 21 -94 40 -151 40
c-63 0 -99 -26 -99 -67z" />
    <glyph glyph-name="scaron" unicode="&#x161;" horiz-adv-x="465" 
d="M280 580h-70l-130 160h100l65 -104l65 104h100zM150 373c0 -110 270 -38 270 -228c0 -108 -95 -155 -205 -155c-59 0 -119 13 -160 30v85c42 -20 98 -40 160 -40c65 0 110 27 110 68c0 104 -270 40 -270 227c0 97 79 150 194 150c64 0 110 -13 151 -30v-80
c-44 21 -94 40 -151 40c-63 0 -99 -26 -99 -67z" />
    <glyph glyph-name="scedilla" unicode="&#x15f;" horiz-adv-x="465" 
d="M420 145c0 -96 -75 -144 -168 -153l-16 -52c69 13 121 -14 121 -74c0 -62 -56 -96 -117 -96c-35 0 -55 7 -78 19v52c23 -13 43 -21 68 -21c30 0 57 12 57 41c0 51 -73 42 -125 24l34 105c-53 3 -104 15 -141 30v85c42 -20 98 -40 160 -40c65 0 110 27 110 68
c0 104 -270 40 -270 227c0 97 79 150 194 150c64 0 110 -13 151 -30v-80c-44 21 -94 40 -151 40c-63 0 -99 -26 -99 -67c0 -110 270 -38 270 -228z" />
    <glyph glyph-name="scommaaccent" unicode="&#x219;" horiz-adv-x="465" 
d="M150 373c0 -110 270 -38 270 -228c0 -108 -95 -155 -205 -155c-59 0 -119 13 -160 30v85c42 -20 98 -40 160 -40c65 0 110 27 110 68c0 104 -270 40 -270 227c0 97 79 150 194 150c64 0 110 -13 151 -30v-80c-44 21 -94 40 -151 40c-63 0 -99 -26 -99 -67zM170 -257
l33 157h82l-57 -157h-58z" />
    <glyph glyph-name="germandbls" unicode="&#xdf;" horiz-adv-x="605" 
d="M401 387c0 -96 159 -76 159 -242c0 -111 -84 -155 -191 -155c-35 0 -76 6 -108 18v80c30 -16 78 -23 108 -23c54 0 101 21 101 73c0 103 -159 93 -159 242c0 94 72 107 72 182c0 91 -47 113 -94 113s-94 -22 -94 -133v-542h-90v425h-80v75h80v57c0 145 97 193 184 193
s184 -48 184 -173c0 -110 -72 -127 -72 -190z" />
    <glyph glyph-name="uni0259" unicode="&#x259;" horiz-adv-x="540" 
d="M270 510c130 0 230 -95 230 -260s-106 -260 -230 -260c-116 0 -220 58 -220 260h350c0 125 -50 185 -130 185c-61 0 -117 -28 -130 -100h-85c15 116 105 175 215 175zM270 60c65 0 109 44 124 125h-239c4 -73 43 -125 115 -125z" />
    <glyph glyph-name="t" unicode="t" horiz-adv-x="405" 
d="M360 405h-165v-237c0 -81 38 -103 85 -103c30 0 60 9 80 18v-75c-22 -10 -56 -18 -91 -18c-87 0 -164 48 -164 163v252h-80v75h80v130l90 40v-170h165v-75z" />
    <glyph glyph-name="tbar" unicode="&#x167;" horiz-adv-x="405" 
d="M360 405h-165v-87h148v-70h-148v-80c0 -81 38 -103 85 -103c30 0 60 9 80 18v-75c-22 -10 -56 -18 -91 -18c-87 0 -164 48 -164 163v95h-82v70h82v87h-80v75h80v130l90 40v-170h165v-75z" />
    <glyph glyph-name="tcaron" unicode="&#x165;" horiz-adv-x="395" 
d="M300 740h90l-30 -180h-60v180zM195 650v-170h165v-75h-165v-237c0 -81 38 -103 85 -103c30 0 60 9 80 18v-75c-22 -10 -56 -18 -91 -18c-87 0 -164 48 -164 163v252h-80v75h80v130z" />
    <glyph glyph-name="uni0163" unicode="&#x163;" horiz-adv-x="405" 
d="M248 -60c69 13 121 -14 121 -74c0 -62 -56 -96 -117 -96c-35 0 -55 7 -78 19v52c23 -13 43 -21 68 -21c30 0 57 12 57 41c0 51 -73 42 -125 24l36 113c-60 18 -105 67 -105 155v252h-80v75h80v130l90 40v-170h165v-75h-165v-237c0 -81 38 -103 85 -103c30 0 60 9 80 18
v-75c-22 -10 -56 -18 -91 -18h-6z" />
    <glyph glyph-name="uni021B" unicode="&#x21b;" horiz-adv-x="405" 
d="M360 405h-165v-237c0 -81 38 -103 85 -103c30 0 60 9 80 18v-75c-22 -10 -56 -18 -91 -18c-87 0 -164 48 -164 163v252h-80v75h80v130l90 40v-170h165v-75zM182 -257l33 157h82l-57 -157h-58z" />
    <glyph glyph-name="u" unicode="u" horiz-adv-x="580" 
d="M415 500h90v-500h-90v81c-29 -44 -81 -91 -164 -91c-100 0 -176 53 -176 190v320h90v-300c0 -105 41 -130 100 -130c65 0 150 45 150 193v237z" />
    <glyph glyph-name="uacute" unicode="&#xfa;" horiz-adv-x="580" 
d="M460 740l-130 -160h-70l90 160h110zM415 500h90v-500h-90v81c-29 -44 -81 -91 -164 -91c-100 0 -176 53 -176 190v320h90v-300c0 -105 41 -130 100 -130c65 0 150 45 150 193v237z" />
    <glyph glyph-name="uni01D4" unicode="&#x1d4;" horiz-adv-x="580" 
d="M325 580h-70l-130 160h100l65 -104l65 104h100zM415 500h90v-500h-90v81c-29 -44 -81 -91 -164 -91c-100 0 -176 53 -176 190v320h90v-300c0 -105 41 -130 100 -130c65 0 150 45 150 193v237z" />
    <glyph glyph-name="ucircumflex" unicode="&#xfb;" horiz-adv-x="580" 
d="M290 684l-65 -104h-100l130 160h70l130 -160h-100zM415 500h90v-500h-90v81c-29 -44 -81 -91 -164 -91c-100 0 -176 53 -176 190v320h90v-300c0 -105 41 -130 100 -130c65 0 150 45 150 193v237z" />
    <glyph glyph-name="udieresis" unicode="&#xfc;" horiz-adv-x="580" 
d="M190 615c-31 0 -57 26 -57 58c0 30 26 57 57 57s57 -27 57 -57c0 -32 -26 -58 -57 -58zM390 615c-31 0 -57 26 -57 58c0 30 26 57 57 57s57 -27 57 -57c0 -32 -26 -58 -57 -58zM415 500h90v-500h-90v81c-29 -44 -81 -91 -164 -91c-100 0 -176 53 -176 190v320h90v-300
c0 -105 41 -130 100 -130c65 0 150 45 150 193v237z" />
    <glyph glyph-name="uni01D8" unicode="&#x1d8;" horiz-adv-x="580" 
d="M460 900l-130 -160h-70l90 160h110zM190 615c-31 0 -57 26 -57 58c0 30 26 57 57 57s57 -27 57 -57c0 -32 -26 -58 -57 -58zM333 673c0 30 26 57 57 57s57 -27 57 -57c0 -32 -26 -58 -57 -58s-57 26 -57 58zM415 500h90v-500h-90v81c-29 -44 -81 -91 -164 -91
c-100 0 -176 53 -176 190v320h90v-300c0 -105 41 -130 100 -130c65 0 150 45 150 193v237z" />
    <glyph glyph-name="uni01DA" unicode="&#x1da;" horiz-adv-x="580" 
d="M325 740h-70l-130 160h100l65 -104l65 104h100zM133 673c0 30 26 57 57 57s57 -27 57 -57c0 -32 -26 -58 -57 -58s-57 26 -57 58zM333 673c0 30 26 57 57 57s57 -27 57 -57c0 -32 -26 -58 -57 -58s-57 26 -57 58zM415 500h90v-500h-90v81c-29 -44 -81 -91 -164 -91
c-100 0 -176 53 -176 190v320h90v-300c0 -105 41 -130 100 -130c65 0 150 45 150 193v237z" />
    <glyph glyph-name="uni01DC" unicode="&#x1dc;" horiz-adv-x="580" 
d="M350 740h-70l-130 160h110zM190 615c-31 0 -57 26 -57 58c0 30 26 57 57 57s57 -27 57 -57c0 -32 -26 -58 -57 -58zM390 615c-31 0 -57 26 -57 58c0 30 26 57 57 57s57 -27 57 -57c0 -32 -26 -58 -57 -58zM415 500h90v-500h-90v81c-29 -44 -81 -91 -164 -91
c-100 0 -176 53 -176 190v320h90v-300c0 -105 41 -130 100 -130c65 0 150 45 150 193v237z" />
    <glyph glyph-name="uni01D6" unicode="&#x1d6;" horiz-adv-x="580" 
d="M450 860v-70h-320v70h320zM133 673c0 30 26 57 57 57s57 -27 57 -57c0 -32 -26 -58 -57 -58s-57 26 -57 58zM333 673c0 30 26 57 57 57s57 -27 57 -57c0 -32 -26 -58 -57 -58s-57 26 -57 58zM415 500h90v-500h-90v81c-29 -44 -81 -91 -164 -91c-100 0 -176 53 -176 190
v320h90v-300c0 -105 41 -130 100 -130c65 0 150 45 150 193v237z" />
    <glyph glyph-name="uni1EE5" unicode="&#x1ee5;" horiz-adv-x="580" 
d="M415 500h90v-500h-90v81c-29 -44 -81 -91 -164 -91c-100 0 -176 53 -176 190v320h90v-300c0 -105 41 -130 100 -130c65 0 150 45 150 193v237zM290 -100c33 0 60 -28 60 -60c0 -33 -27 -60 -60 -60c-32 0 -60 27 -60 60c0 32 28 60 60 60z" />
    <glyph glyph-name="ugrave" unicode="&#xf9;" horiz-adv-x="580" 
d="M350 580h-70l-130 160h110zM415 500h90v-500h-90v81c-29 -44 -81 -91 -164 -91c-100 0 -176 53 -176 190v320h90v-300c0 -105 41 -130 100 -130c65 0 150 45 150 193v237z" />
    <glyph glyph-name="uni1EE7" unicode="&#x1ee7;" horiz-adv-x="580" 
d="M287 701c-20 0 -37 -13 -42 -38h-55c5 57 47 87 97 87s97 -30 97 -87c0 -65 -72 -72 -72 -115h-50c0 63 62 70 62 115c0 25 -17 38 -37 38zM415 500h90v-500h-90v81c-29 -44 -81 -91 -164 -91c-100 0 -176 53 -176 190v320h90v-300c0 -105 41 -130 100 -130
c65 0 150 45 150 193v237z" />
    <glyph glyph-name="uhorn" unicode="&#x1b0;" horiz-adv-x="705" 
d="M678 500c1 -10 2 -20 2 -30c0 -90 -75 -165 -175 -165v-305h-90v81c-29 -44 -81 -91 -164 -91c-100 0 -176 53 -176 190v320h90v-300c0 -105 41 -130 100 -130c65 0 150 45 150 193v237h90v-127c60 0 85 42 85 97c0 10 -1 20 -2 30h90z" />
    <glyph glyph-name="uni1EE9" unicode="&#x1ee9;" horiz-adv-x="705" 
d="M460 740l-130 -160h-70l90 160h110zM678 500c1 -10 2 -20 2 -30c0 -90 -75 -165 -175 -165v-305h-90v81c-29 -44 -81 -91 -164 -91c-100 0 -176 53 -176 190v320h90v-300c0 -105 41 -130 100 -130c65 0 150 45 150 193v237h90v-127c60 0 85 42 85 97c0 10 -1 20 -2 30h90
z" />
    <glyph glyph-name="uni1EF1" unicode="&#x1ef1;" horiz-adv-x="705" 
d="M678 500c1 -10 2 -20 2 -30c0 -90 -75 -165 -175 -165v-305h-90v81c-29 -44 -81 -91 -164 -91c-100 0 -176 53 -176 190v320h90v-300c0 -105 41 -130 100 -130c65 0 150 45 150 193v237h90v-127c60 0 85 42 85 97c0 10 -1 20 -2 30h90zM290 -100c33 0 60 -28 60 -60
c0 -33 -27 -60 -60 -60c-32 0 -60 27 -60 60c0 32 28 60 60 60z" />
    <glyph glyph-name="uni1EEB" unicode="&#x1eeb;" horiz-adv-x="705" 
d="M350 580h-70l-130 160h110zM678 500c1 -10 2 -20 2 -30c0 -90 -75 -165 -175 -165v-305h-90v81c-29 -44 -81 -91 -164 -91c-100 0 -176 53 -176 190v320h90v-300c0 -105 41 -130 100 -130c65 0 150 45 150 193v237h90v-127c60 0 85 42 85 97c0 10 -1 20 -2 30h90z" />
    <glyph glyph-name="uni1EED" unicode="&#x1eed;" horiz-adv-x="705" 
d="M287 701c-20 0 -37 -13 -42 -38h-55c5 57 47 87 97 87s97 -30 97 -87c0 -65 -72 -72 -72 -115h-50c0 63 62 70 62 115c0 25 -17 38 -37 38zM678 500c1 -10 2 -20 2 -30c0 -90 -75 -165 -175 -165v-305h-90v81c-29 -44 -81 -91 -164 -91c-100 0 -176 53 -176 190v320h90
v-300c0 -105 41 -130 100 -130c65 0 150 45 150 193v237h90v-127c60 0 85 42 85 97c0 10 -1 20 -2 30h90z" />
    <glyph glyph-name="uni1EEF" unicode="&#x1eef;" horiz-adv-x="705" 
d="M220 659c-35 0 -45 -27 -55 -64h-60c10 97 60 134 115 134c80 0 92 -64 140 -64c35 0 45 27 55 64h60c-10 -97 -60 -134 -115 -134c-80 0 -92 64 -140 64zM678 500c1 -10 2 -20 2 -30c0 -90 -75 -165 -175 -165v-305h-90v81c-29 -44 -81 -91 -164 -91
c-100 0 -176 53 -176 190v320h90v-300c0 -105 41 -130 100 -130c65 0 150 45 150 193v237h90v-127c60 0 85 42 85 97c0 10 -1 20 -2 30h90z" />
    <glyph glyph-name="uhungarumlaut" unicode="&#x171;" horiz-adv-x="580" 
d="M370 740l-130 -160h-70l90 160h110zM410 580h-70l90 160h110zM415 263v237h90v-500h-90v81c-29 -44 -81 -91 -164 -91c-100 0 -176 53 -176 190v320h90v-300c0 -105 41 -130 100 -130c65 0 150 45 150 193z" />
    <glyph glyph-name="umacron" unicode="&#x16b;" horiz-adv-x="580" 
d="M450 700v-70h-320v70h320zM415 500h90v-500h-90v81c-29 -44 -81 -91 -164 -91c-100 0 -176 53 -176 190v320h90v-300c0 -105 41 -130 100 -130c65 0 150 45 150 193v237z" />
    <glyph glyph-name="uogonek" unicode="&#x173;" horiz-adv-x="580" 
d="M415 500h90v-500h-13c-54 -27 -96 -68 -96 -114c0 -31 16 -51 47 -51c16 0 34 5 49 11v-60c-22 -11 -47 -16 -72 -16c-71 0 -109 42 -109 96c0 52 36 98 104 138v77c-29 -44 -81 -91 -164 -91c-100 0 -176 53 -176 190v320h90v-300c0 -105 41 -130 100 -130
c65 0 150 45 150 193v237z" />
    <glyph glyph-name="uring" unicode="&#x16f;" horiz-adv-x="580" 
d="M290 555c-61 0 -110 49 -110 110s49 110 110 110s110 -49 110 -110s-49 -110 -110 -110zM290 717c-29 0 -50 -24 -50 -52s21 -52 50 -52s50 24 50 52s-21 52 -50 52zM415 500h90v-500h-90v81c-29 -44 -81 -91 -164 -91c-100 0 -176 53 -176 190v320h90v-300
c0 -105 41 -130 100 -130c65 0 150 45 150 193v237z" />
    <glyph glyph-name="utilde" unicode="&#x169;" horiz-adv-x="580" 
d="M220 659c-35 0 -45 -27 -55 -64h-60c10 97 60 134 115 134c80 0 92 -64 140 -64c35 0 45 27 55 64h60c-10 -97 -60 -134 -115 -134c-80 0 -92 64 -140 64zM415 500h90v-500h-90v81c-29 -44 -81 -91 -164 -91c-100 0 -176 53 -176 190v320h90v-300
c0 -105 41 -130 100 -130c65 0 150 45 150 193v237z" />
    <glyph glyph-name="v" unicode="v" horiz-adv-x="500" 
d="M395 500h100l-206 -500h-75l-209 500h105l144 -375z" />
    <glyph glyph-name="w" unicode="w" horiz-adv-x="780" 
d="M675 500h95l-175 -500h-72l-133 357l-133 -357h-75l-172 500h100l115 -375l120 345h87h3l120 -345z" />
    <glyph glyph-name="wacute" unicode="&#x1e83;" horiz-adv-x="780" 
d="M560 740l-130 -160h-70l90 160h110zM675 500h95l-175 -500h-72l-133 357l-133 -357h-75l-172 500h100l115 -375l120 345h87h3l120 -345z" />
    <glyph glyph-name="wcircumflex" unicode="&#x175;" horiz-adv-x="780" 
d="M390 684l-65 -104h-100l130 160h70l130 -160h-100zM675 500h95l-175 -500h-72l-133 357l-133 -357h-75l-172 500h100l115 -375l120 345h87h3l120 -345z" />
    <glyph glyph-name="wdieresis" unicode="&#x1e85;" horiz-adv-x="780" 
d="M290 615c-31 0 -57 26 -57 58c0 30 26 57 57 57s57 -27 57 -57c0 -32 -26 -58 -57 -58zM490 615c-31 0 -57 26 -57 58c0 30 26 57 57 57s57 -27 57 -57c0 -32 -26 -58 -57 -58zM675 500h95l-175 -500h-72l-133 357l-133 -357h-75l-172 500h100l115 -375l120 345h87h3
l120 -345z" />
    <glyph glyph-name="wgrave" unicode="&#x1e81;" horiz-adv-x="780" 
d="M450 580h-70l-130 160h110zM675 500h95l-175 -500h-72l-133 357l-133 -357h-75l-172 500h100l115 -375l120 345h87h3l120 -345z" />
    <glyph glyph-name="x" unicode="x" horiz-adv-x="523" 
d="M503 500l-185 -249l185 -251h-110l-137 187l-129 -187h-107l186 254l-181 246h110l134 -183l127 183h107z" />
    <glyph glyph-name="y" unicode="y" horiz-adv-x="500" 
d="M395 500h100l-203 -500c-56 -135 -129 -230 -258 -230v85c82 0 136 67 175 163l-204 482h105l147 -375z" />
    <glyph glyph-name="yacute" unicode="&#xfd;" horiz-adv-x="500" 
d="M223 580l90 160h110l-130 -160h-70zM395 500h100l-203 -500c-56 -135 -129 -230 -258 -230v85c82 0 136 67 175 163l-204 482h105l147 -375z" />
    <glyph glyph-name="ycircumflex" unicode="&#x177;" horiz-adv-x="500" 
d="M253 684l-65 -104h-100l130 160h70l130 -160h-100zM395 500h100l-203 -500c-56 -135 -129 -230 -258 -230v85c82 0 136 67 175 163l-204 482h105l147 -375z" />
    <glyph glyph-name="ydieresis" unicode="&#xff;" horiz-adv-x="500" 
d="M153 615c-31 0 -57 26 -57 58c0 30 26 57 57 57s57 -27 57 -57c0 -32 -26 -58 -57 -58zM353 615c-31 0 -57 26 -57 58c0 30 26 57 57 57s57 -27 57 -57c0 -32 -26 -58 -57 -58zM395 500h100l-203 -500c-56 -135 -129 -230 -258 -230v85c82 0 136 67 175 163l-204 482h105
l147 -375z" />
    <glyph glyph-name="uni1EF5" unicode="&#x1ef5;" horiz-adv-x="500" 
d="M395 500h100l-203 -500c-56 -135 -129 -230 -258 -230v85c82 0 136 67 175 163l-204 482h105l147 -375zM373 -220c-32 0 -60 27 -60 60c0 32 28 60 60 60c33 0 60 -28 60 -60c0 -33 -27 -60 -60 -60z" />
    <glyph glyph-name="ygrave" unicode="&#x1ef3;" horiz-adv-x="500" 
d="M313 580h-70l-130 160h110zM395 500h100l-203 -500c-56 -135 -129 -230 -258 -230v85c82 0 136 67 175 163l-204 482h105l147 -375z" />
    <glyph glyph-name="uni1EF7" unicode="&#x1ef7;" horiz-adv-x="500" 
d="M250 701c-20 0 -37 -13 -42 -38h-55c5 57 47 87 97 87s97 -30 97 -87c0 -65 -72 -72 -72 -115h-50c0 63 62 70 62 115c0 25 -17 38 -37 38zM395 500h100l-203 -500c-56 -135 -129 -230 -258 -230v85c82 0 136 67 175 163l-204 482h105l147 -375z" />
    <glyph glyph-name="uni1EF9" unicode="&#x1ef9;" horiz-adv-x="500" 
d="M183 659c-35 0 -45 -27 -55 -64h-60c10 97 60 134 115 134c80 0 92 -64 140 -64c35 0 45 27 55 64h60c-10 -97 -60 -134 -115 -134c-80 0 -92 64 -140 64zM395 500h100l-203 -500c-56 -135 -129 -230 -258 -230v85c82 0 136 67 175 163l-204 482h105l147 -375z" />
    <glyph glyph-name="z" unicode="z" horiz-adv-x="510" 
d="M35 55l285 370h-265v75h395v-55l-285 -370h300v-75h-430v55z" />
    <glyph glyph-name="zacute" unicode="&#x17a;" horiz-adv-x="510" 
d="M230 580l90 160h110l-130 -160h-70zM35 55l285 370h-265v75h395v-55l-285 -370h300v-75h-430v55z" />
    <glyph glyph-name="zcaron" unicode="&#x17e;" horiz-adv-x="510" 
d="M295 580h-70l-130 160h100l65 -104l65 104h100zM165 75h300v-75h-430v55l285 370h-265v75h395v-55z" />
    <glyph glyph-name="zdotaccent" unicode="&#x17c;" horiz-adv-x="510" 
d="M260 610c-32 0 -60 27 -60 60c0 32 28 60 60 60c33 0 60 -28 60 -60c0 -33 -27 -60 -60 -60zM35 55l285 370h-265v75h395v-55l-285 -370h300v-75h-430v55z" />
    <glyph glyph-name="uni0410" unicode="&#x410;" horiz-adv-x="674" 
d="M554 0l-73 190h-295l-71 -190h-100l267 700h105l272 -700h-105zM216 270h235l-119 311z" />
    <glyph glyph-name="uni0411" unicode="&#x411;" horiz-adv-x="660" 
d="M370 410c133 0 245 -78 245 -205s-112 -205 -245 -205h-285v330v370h95h385v-80h-385v-210h190zM350 80c104 0 160 38 160 125s-56 125 -160 125h-170v-250h170z" />
    <glyph glyph-name="uni0412" unicode="&#x412;" horiz-adv-x="670" 
d="M478 369c83 -24 147 -77 147 -179c0 -127 -112 -190 -245 -190h-285h-10v700h95h170c133 0 240 -58 240 -185c0 -66 -45 -118 -112 -146zM330 620h-150v-215h170c94 0 140 38 140 100c0 77 -56 115 -160 115zM360 80c104 0 160 28 160 115c0 92 -56 130 -170 130h-170
v-245h180z" />
    <glyph glyph-name="uni0413" unicode="&#x413;" horiz-adv-x="545" 
d="M530 700v-80h-350v-620h-95v700h95h350z" />
    <glyph glyph-name="uni0403" unicode="&#x403;" horiz-adv-x="545" 
d="M486 900l-160 -130h-80l120 130h120zM530 700v-80h-350v-620h-95v700h95h350z" />
    <glyph glyph-name="uni0490" unicode="&#x490;" horiz-adv-x="545" 
d="M435 840h95v-220h-350v-620h-95v700h95h255v140z" />
    <glyph glyph-name="uni0414" unicode="&#x414;" horiz-adv-x="722" 
d="M627 80h80v-240h-75l-13 160h-516l-13 -160h-75v240h65c85 62 96 317 96 620h451v-620zM189 80h343v540h-262c-3 -234 -18 -452 -81 -540z" />
    <glyph glyph-name="uni0415" unicode="&#x415;" horiz-adv-x="615" 
d="M185 80h375v-80h-460h-10v700h95h365v-80h-365v-215h335v-80h-335v-245z" />
    <glyph glyph-name="uni0401" unicode="&#x401;" horiz-adv-x="615" 
d="M225 775c-31 0 -57 26 -57 58c0 30 26 57 57 57s57 -27 57 -57c0 -32 -26 -58 -57 -58zM425 775c-31 0 -57 26 -57 58c0 30 26 57 57 57s57 -27 57 -57c0 -32 -26 -58 -57 -58zM185 80h375v-80h-460h-10v700h95h365v-80h-365v-215h335v-80h-335v-245z" />
    <glyph glyph-name="uni0416" unicode="&#x416;" horiz-adv-x="900" 
d="M883 73c5 0 11 1 17 2v-75c-9 -5 -23 -10 -47 -10c-79 0 -112 56 -133 135l-30 114c-11 42 -38 86 -135 86h-62v-325h-85v325h-63c-97 0 -124 -44 -135 -86l-30 -114c-21 -79 -54 -135 -133 -135c-24 0 -38 5 -47 10v75c6 -1 12 -2 17 -2c39 0 62 30 69 62l24 106
c13 59 40 109 95 124c-55 15 -78 60 -90 124l-14 76c-7 40 -25 62 -63 62c-5 0 -11 -1 -18 -2v75c11 7 26 10 45 10c78 0 116 -54 130 -135l15 -84c7 -42 33 -86 135 -86h63v295h85v-295h62c102 0 128 44 135 86l15 84c14 81 52 135 130 135c19 0 34 -3 45 -10v-75
c-7 1 -13 2 -18 2c-38 0 -56 -22 -63 -62l-14 -76c-12 -64 -35 -109 -90 -124c55 -15 82 -65 95 -124l24 -106c7 -32 30 -62 69 -62z" />
    <glyph glyph-name="uni0417" unicode="&#x417;" horiz-adv-x="630" 
d="M421 363c102 -26 159 -82 159 -178c0 -131 -117 -195 -255 -195c-158 0 -260 79 -275 220h100c10 -79 64 -140 175 -140c91 0 150 46 150 115c0 79 -64 135 -225 135v60v20c166 0 210 56 210 115s-39 115 -135 115c-106 0 -150 -61 -160 -140h-95c15 141 107 220 255 220
c138 0 235 -64 235 -185c0 -75 -46 -132 -139 -162z" />
    <glyph glyph-name="uni0418" unicode="&#x418;" horiz-adv-x="770" 
d="M610 700h75v-700h-95v542l-430 -542h-75v700h95v-542z" />
    <glyph glyph-name="uni0419" unicode="&#x419;" horiz-adv-x="770" 
d="M385 760c-96 0 -150 57 -160 150h60c15 -51 43 -80 100 -80s85 29 100 80h60c-10 -93 -64 -150 -160 -150zM610 700h75v-700h-95v542l-430 -542h-75v700h95v-542z" />
    <glyph glyph-name="uni041A" unicode="&#x41a;" horiz-adv-x="655" 
d="M638 73c5 0 11 1 17 2v-75c-9 -5 -23 -10 -47 -10c-79 0 -112 56 -133 135l-30 114c-11 42 -38 86 -135 86h-130v-325h-95v700h95v-295h130c102 0 128 44 135 86l15 84c14 81 52 135 130 135c19 0 34 -3 45 -10v-75c-7 1 -13 2 -18 2c-38 0 -56 -22 -63 -62l-14 -76
c-12 -64 -35 -109 -90 -124c55 -15 82 -65 95 -124l24 -106c7 -32 30 -62 69 -62z" />
    <glyph glyph-name="uni040C" unicode="&#x40c;" horiz-adv-x="655" 
d="M535 900l-160 -130h-80l120 130h120zM638 73c5 0 11 1 17 2v-75c-9 -5 -23 -10 -47 -10c-79 0 -112 56 -133 135l-30 114c-11 42 -38 86 -135 86h-130v-325h-95v700h95v-295h130c102 0 128 44 135 86l15 84c14 81 52 135 130 135c19 0 34 -3 45 -10v-75c-7 1 -13 2 -18 2
c-38 0 -56 -22 -63 -62l-14 -76c-12 -64 -35 -109 -90 -124c55 -15 82 -65 95 -124l24 -106c7 -32 30 -62 69 -62z" />
    <glyph glyph-name="uni041B" unicode="&#x41b;" horiz-adv-x="700" 
d="M615 700v-700h-95v620h-252c-5 -370 -39 -630 -206 -630c-24 0 -38 5 -47 10v75c6 -1 12 -2 17 -2c127 0 142 277 142 627h441z" />
    <glyph glyph-name="uni041C" unicode="&#x41c;" horiz-adv-x="870" 
d="M710 700h80v-700h-95v475l-240 -409h-40l-240 409v-475h-95v700h80l275 -484z" />
    <glyph glyph-name="uni041D" unicode="&#x41d;" horiz-adv-x="760" 
d="M580 700h95v-700h-95v325h-400v-325h-95v700h95v-295h400v295z" />
    <glyph glyph-name="uni041E" unicode="&#x41e;" horiz-adv-x="750" 
d="M375 710c194 0 325 -140 325 -360s-131 -360 -325 -360s-325 140 -325 360s131 360 325 360zM375 70c129 0 220 106 220 280s-91 280 -220 280s-220 -106 -220 -280s91 -280 220 -280z" />
    <glyph glyph-name="uni041F" unicode="&#x41f;" horiz-adv-x="740" 
d="M85 0v700h570v-700h-95v620h-380v-620h-95z" />
    <glyph glyph-name="uni0420" unicode="&#x420;" horiz-adv-x="615" 
d="M335 700c133 0 250 -68 250 -215s-117 -215 -250 -215h-150v-270h-95v700h95h150zM315 350c104 0 170 38 170 135s-66 135 -170 135h-130v-270h130z" />
    <glyph glyph-name="uni0421" unicode="&#x421;" horiz-adv-x="705" 
d="M380 70c81 0 150 40 180 140h95c-31 -145 -132 -220 -275 -220c-194 0 -325 140 -325 360s131 360 325 360c143 0 244 -75 275 -220h-95c-30 100 -99 140 -180 140c-139 0 -220 -106 -220 -280s81 -280 220 -280z" />
    <glyph glyph-name="uni0422" unicode="&#x422;" horiz-adv-x="595" 
d="M580 700v-80h-235v-620h-95v620h-235v80h330h235z" />
    <glyph glyph-name="uni0423" unicode="&#x423;" horiz-adv-x="630" 
d="M510 700h105l-252 -510c-65 -132 -134 -200 -273 -200v85c89 0 140 40 190 139l-265 486h110l203 -385z" />
    <glyph glyph-name="uni040E" unicode="&#x40e;" horiz-adv-x="630" 
d="M321 760c-96 0 -150 57 -160 150h60c15 -51 43 -80 100 -80s85 29 100 80h60c-10 -93 -64 -150 -160 -150zM510 700h105l-252 -510c-65 -132 -134 -200 -273 -200v85c89 0 140 40 190 139l-265 486h110l203 -385z" />
    <glyph glyph-name="uni0424" unicode="&#x424;" horiz-adv-x="745" 
d="M415 620c140 -5 280 -95 280 -270s-140 -265 -280 -270v-100h-85v100c-140 5 -280 95 -280 270s140 265 280 270v100h85v-100zM330 155v390c-90 -5 -180 -60 -180 -195s90 -190 180 -195zM415 155c90 5 180 60 180 195s-90 190 -180 195v-390z" />
    <glyph glyph-name="uni0425" unicode="&#x425;" horiz-adv-x="647" 
d="M632 0h-115l-200 285l-189 -285h-113l249 360l-239 340h115l187 -266l175 266h110l-232 -341z" />
    <glyph glyph-name="uni0427" unicode="&#x427;" horiz-adv-x="645" 
d="M465 700h95v-700h-95v305c-50 -27 -112 -45 -195 -45c-143 0 -255 53 -255 225v215h105v-215c0 -92 56 -145 160 -145c64 0 135 18 185 55v305z" />
    <glyph glyph-name="uni0426" unicode="&#x426;" horiz-adv-x="735" 
d="M720 80v-240h-75l-13 160h-452h-95v700h95v-620h360v620h95v-620h85z" />
    <glyph glyph-name="uni0428" unicode="&#x428;" horiz-adv-x="955" 
d="M775 700h95v-700h-95h-345h-335h-10v700h95v-620h250v620h95v-620h250v620z" />
    <glyph glyph-name="uni0429" unicode="&#x429;" horiz-adv-x="970" 
d="M955 80v-240h-75l-13 160h-342h-345h-95v700h95v-620h250v620h95v-620h250v620h95v-620h85z" />
    <glyph glyph-name="uni040F" unicode="&#x40f;" horiz-adv-x="730" 
d="M550 700h95v-700h-95h-140l-7 -160h-75l-7 160h-226h-10v700h95v-620h233h137v620z" />
    <glyph glyph-name="uni042C" unicode="&#x42c;" horiz-adv-x="645" 
d="M365 410c133 0 245 -78 245 -205s-112 -205 -245 -205h-285v330v370h95v-290h190zM345 80c104 0 160 38 160 125s-56 125 -160 125h-170v-250h170z" />
    <glyph glyph-name="uni042A" unicode="&#x42a;" horiz-adv-x="775" 
d="M495 410c133 0 245 -78 245 -205s-112 -205 -245 -205h-285v330v290h-195v80h280h10v-290h190zM475 80c104 0 160 38 160 125s-56 125 -160 125h-170v-250h170z" />
    <glyph glyph-name="uni042B" unicode="&#x42b;" horiz-adv-x="876" 
d="M326 410c133 0 245 -78 245 -205s-112 -205 -245 -205h-230h-11v700h95v-290h146zM691 700h95v-700h-95v700zM306 80c104 0 160 38 160 125s-56 125 -160 125h-126v-250h126z" />
    <glyph glyph-name="uni0409" unicode="&#x409;" horiz-adv-x="1006" 
d="M726 410c133 0 245 -78 245 -205s-112 -205 -245 -205h-230h-11v620h-217c-5 -370 -39 -630 -206 -630c-24 0 -38 5 -47 10v75c6 -1 12 -2 17 -2c127 0 142 277 142 627h396h10v-290h146zM706 80c104 0 160 38 160 125s-56 125 -160 125h-126v-250h126z" />
    <glyph glyph-name="uni040A" unicode="&#x40a;" horiz-adv-x="976" 
d="M696 410c133 0 245 -78 245 -205s-112 -205 -245 -205h-230h-11v330h-275v-330h-95v410v290h95v-290h275v290h95v-290h146zM676 80c104 0 160 38 160 125s-56 125 -160 125h-126v-250h126z" />
    <glyph glyph-name="uni0405" unicode="&#x405;" horiz-adv-x="620" 
d="M175 520c0 -168 390 -75 390 -329c0 -131 -103 -201 -253 -201c-136 0 -242 57 -257 200h95c14 -92 81 -120 159 -120c90 0 151 38 151 108c0 177 -385 85 -385 333c0 132 110 199 239 199c133 0 226 -71 241 -190h-95c-15 66 -61 110 -144 110c-85 0 -141 -46 -141 -110
z" />
    <glyph glyph-name="uni0404" unicode="&#x404;" horiz-adv-x="705" 
d="M380 70c81 0 150 40 180 140h95c-31 -145 -132 -220 -275 -220c-194 0 -325 140 -325 360s131 360 325 360c143 0 244 -75 275 -220h-95c-30 100 -99 140 -180 140c-125 0 -203 -86 -218 -230h333v-80h-334c9 -156 88 -250 219 -250z" />
    <glyph glyph-name="uni042D" unicode="&#x42d;" horiz-adv-x="705" 
d="M340 710c194 0 310 -140 310 -360s-116 -360 -310 -360c-143 0 -259 75 -290 220h95c30 -100 114 -140 195 -140c121 0 196 94 204 250h-334v80h333c-14 144 -87 230 -203 230c-81 0 -165 -40 -195 -140h-95c31 145 147 220 290 220z" />
    <glyph glyph-name="uni0406" unicode="&#x406;" horiz-adv-x="275" 
d="M90 700h95v-700h-95v700z" />
    <glyph glyph-name="uni0407" unicode="&#x407;" horiz-adv-x="275" 
d="M38 775c-31 0 -57 26 -57 58c0 30 26 57 57 57s57 -27 57 -57c0 -32 -26 -58 -57 -58zM238 775c-31 0 -57 26 -57 58c0 30 26 57 57 57s57 -27 57 -57c0 -32 -26 -58 -57 -58zM90 700h95v-700h-95v700z" />
    <glyph glyph-name="uni0408" unicode="&#x408;" horiz-adv-x="425" 
d="M245 700h95v-555c0 -95 -65 -155 -160 -155s-155 60 -155 160h90c0 -55 25 -80 65 -80s65 25 65 85v545z" />
    <glyph glyph-name="uni040B" unicode="&#x40b;" horiz-adv-x="820" 
d="M530 425c123 0 235 -43 235 -215v-210h-105v215c0 92 -56 130 -140 130c-54 0 -125 -18 -175 -55v-290h-95v620h-235v80h330h235v-80h-235v-240c50 27 112 45 185 45z" />
    <glyph glyph-name="uni042E" unicode="&#x42e;" horiz-adv-x="980" 
d="M635 710c174 0 295 -140 295 -360s-121 -360 -295 -360c-166 0 -284 127 -294 330h-161v-320h-95v700h95v-300h162c17 191 133 310 293 310zM635 70c109 0 190 106 190 280s-81 280 -190 280s-190 -106 -190 -280s81 -280 190 -280z" />
    <glyph glyph-name="uni042F" unicode="&#x42f;" horiz-adv-x="650" 
d="M565 700v-700h-95v290h-120c-97 0 -132 -42 -140 -86l-15 -79c-15 -80 -54 -135 -133 -135c-24 0 -38 5 -47 10v75c6 -1 12 -2 17 -2c39 0 63 30 69 62l14 71c11 56 37 103 85 121c-70 28 -120 82 -120 168c0 142 117 205 250 205h235zM350 370h120v250h-120
c-104 0 -170 -33 -170 -125s66 -125 170 -125z" />
    <glyph glyph-name="uni0402" unicode="&#x402;" horiz-adv-x="775" 
d="M500 410c133 0 245 -78 245 -205s-112 -205 -235 -205h-81v80h61c94 0 150 38 150 125s-56 125 -160 125h-135v-330h-95v410v210h-235v80h330h235v-80h-235v-210h155z" />
    <glyph glyph-name="uni0462" unicode="&#x462;" horiz-adv-x="735" 
d="M455 410c133 0 245 -78 245 -205s-112 -205 -245 -205h-285v330v180h-155v70h155v120h95v-120h215v-70h-215v-100h190zM435 80c104 0 160 38 160 125s-56 125 -160 125h-170v-250h170z" />
    <glyph glyph-name="uni0472" unicode="&#x472;" horiz-adv-x="750" 
d="M375 710c194 0 325 -140 325 -360s-131 -360 -325 -360s-325 140 -325 360s131 360 325 360zM375 630c-122 0 -208 -88 -223 -235h446c-15 147 -101 235 -223 235zM375 70c130 0 220 100 225 265h-450c5 -165 95 -265 225 -265z" />
    <glyph glyph-name="uni0474" unicode="&#x474;" horiz-adv-x="671" 
d="M609 710c22 0 36 -3 47 -10v-75c-7 1 -12 2 -20 2c-36 0 -52 -22 -66 -62l-198 -565h-105l-252 700h105l202 -580l154 455c34 101 58 135 133 135z" />
    <glyph glyph-name="uni0492" unicode="&#x492;" horiz-adv-x="645" 
d="M630 620h-350v-235h211v-80h-211v-305h-95v305h-170v80h170v315h95h350v-80z" />
    <glyph glyph-name="uni0494" unicode="&#x494;" horiz-adv-x="675" 
d="M372 425c122 0 258 -73 258 -295s-137 -295 -275 -295c-45 0 -79 8 -101 18v80c20 -9 50 -18 101 -18c89 0 170 68 170 215s-81 215 -171 215c-53 0 -119 -23 -174 -75v-270h-95v700h95h350v-80h-350v-260c55 42 123 65 192 65z" />
    <glyph glyph-name="uni0496" unicode="&#x496;" horiz-adv-x="900" 
d="M883 73c5 0 11 1 17 2v-245h-65l-15 164c-56 13 -82 64 -100 131l-30 114c-11 42 -38 86 -135 86h-62v-325h-85v325h-63c-97 0 -124 -44 -135 -86l-30 -114c-21 -79 -54 -135 -133 -135c-24 0 -38 5 -47 10v75c6 -1 12 -2 17 -2c39 0 62 30 69 62l24 106
c13 59 40 109 95 124c-55 15 -78 60 -90 124l-14 76c-7 40 -25 62 -63 62c-5 0 -11 -1 -18 -2v75c11 7 26 10 45 10c78 0 116 -54 130 -135l15 -84c7 -42 33 -86 135 -86h63v295h85v-295h62c102 0 128 44 135 86l15 84c14 81 52 135 130 135c19 0 34 -3 45 -10v-75
c-7 1 -13 2 -18 2c-38 0 -56 -22 -63 -62l-14 -76c-12 -64 -35 -109 -90 -124c55 -15 82 -65 95 -124l24 -106c7 -32 30 -62 69 -62z" />
    <glyph glyph-name="uni0498" unicode="&#x498;" horiz-adv-x="630" 
d="M580 185c0 -123 -102 -187 -229 -194l-15 -51c69 13 121 -14 121 -74c0 -62 -56 -96 -117 -96c-35 0 -55 7 -78 19v52c23 -13 43 -21 68 -21c30 0 57 12 57 41c0 51 -73 42 -125 24l34 106c-141 9 -232 87 -246 219h100c10 -79 64 -140 175 -140c91 0 150 46 150 115
c0 79 -64 135 -225 135v60v20c166 0 210 56 210 115s-39 115 -135 115c-106 0 -150 -61 -160 -140h-95c15 141 107 220 255 220c138 0 235 -64 235 -185c0 -75 -46 -132 -139 -162c102 -26 159 -82 159 -178z" />
    <glyph glyph-name="uni049A" unicode="&#x49a;" horiz-adv-x="655" 
d="M638 73c5 0 11 1 17 2v-245h-65l-15 164c-56 13 -82 64 -100 131l-30 114c-11 42 -38 86 -135 86h-130v-325h-95v700h95v-295h130c102 0 128 44 135 86l15 84c14 81 52 135 130 135c19 0 34 -3 45 -10v-75c-7 1 -13 2 -18 2c-38 0 -56 -22 -63 -62l-14 -76
c-12 -64 -35 -109 -90 -124c55 -15 82 -65 95 -124l24 -106c7 -32 30 -62 69 -62z" />
    <glyph glyph-name="uni049C" unicode="&#x49c;" horiz-adv-x="675" 
d="M658 73c5 0 11 1 17 2v-75c-9 -5 -23 -10 -47 -10c-79 0 -112 56 -133 135l-30 114c-10 40 -26 82 -120 86v-125h-70v125h-95v-325h-95v405v295h95v-295h95v135h70v-135c98 4 113 46 120 86l15 84c14 81 52 135 130 135c19 0 34 -3 45 -10v-75c-7 1 -13 2 -18 2
c-38 0 -56 -22 -63 -62l-14 -76c-12 -64 -35 -109 -90 -124c55 -15 82 -65 95 -124l24 -106c7 -32 30 -62 69 -62z" />
    <glyph glyph-name="uni049E" unicode="&#x49e;" horiz-adv-x="655" 
d="M638 73c5 0 11 1 17 2v-75c-9 -5 -23 -10 -47 -10c-79 0 -112 56 -133 135l-30 114c-11 42 -38 86 -135 86h-130v-325h-95v498h-117v70h117v132h95v-132h108v-70h-108v-93h130c102 0 128 44 135 86l15 84c14 81 52 135 130 135c19 0 34 -3 45 -10v-75c-7 1 -13 2 -18 2
c-38 0 -56 -22 -63 -62l-14 -76c-12 -64 -35 -109 -90 -124c55 -15 82 -65 95 -124l24 -106c7 -32 30 -62 69 -62z" />
    <glyph glyph-name="uni04A0" unicode="&#x4a0;" horiz-adv-x="730" 
d="M713 73c5 0 11 1 17 2v-75c-9 -5 -23 -10 -47 -10c-79 0 -112 56 -133 135l-30 114c-11 42 -38 86 -135 86h-130v-325h-95v620h-145v80h240v-295h130c102 0 128 44 135 86l15 84c14 81 52 135 130 135c19 0 34 -3 45 -10v-75c-7 1 -13 2 -18 2c-38 0 -56 -22 -63 -62
l-14 -76c-12 -64 -35 -109 -90 -124c55 -15 82 -65 95 -124l24 -106c7 -32 30 -62 69 -62z" />
    <glyph glyph-name="uni04A2" unicode="&#x4a2;" horiz-adv-x="770" 
d="M675 80h80v-240h-75l-13 160h-87v325h-400v-325h-95v700h95v-295h400v295h95v-620z" />
    <glyph glyph-name="uni04A6" unicode="&#x4a6;" horiz-adv-x="1135" 
d="M847 425c122 0 258 -73 258 -295s-137 -295 -275 -295c-45 0 -79 8 -101 18v80c20 -9 50 -18 101 -18c89 0 170 68 170 215s-81 215 -171 215c-53 0 -119 -23 -174 -75v-270h-95v620h-380v-620h-95v700h570v-340c55 42 123 65 192 65z" />
    <glyph glyph-name="uni0524" unicode="&#x524;" horiz-adv-x="750" 
d="M655 80h80v-240h-75l-13 160h-87v620h-380v-620h-95v700h570v-620z" />
    <glyph glyph-name="uni04A8" unicode="&#x4a8;" horiz-adv-x="775" 
d="M750 70v-80c-74 0 -138 23 -189 57c-49 -34 -110 -57 -181 -57c-184 0 -325 140 -325 360s151 360 355 360c74 0 124 -13 190 -45v-95c-69 41 -123 60 -190 60c-149 0 -250 -106 -250 -280s101 -280 230 -280c43 0 81 10 113 28c-57 62 -88 139 -88 202
c0 115 62 180 145 180s145 -65 145 -180c0 -62 -30 -139 -85 -201c36 -18 79 -29 130 -29zM560 410c-31 0 -60 -30 -60 -115c0 -56 21 -111 61 -152c38 41 59 96 59 152c0 85 -29 115 -60 115z" />
    <glyph glyph-name="uni04AA" unicode="&#x4aa;" horiz-adv-x="705" 
d="M380 70c81 0 150 40 180 140h95c-31 -144 -130 -219 -271 -220l-15 -50c69 13 121 -14 121 -74c0 -62 -56 -96 -117 -96c-35 0 -55 7 -78 19v52c23 -13 43 -21 68 -21c30 0 57 12 57 41c0 51 -73 42 -125 24l35 108c-166 23 -275 157 -275 357c0 220 131 360 325 360
c143 0 244 -75 275 -220h-95c-30 100 -99 140 -180 140c-139 0 -220 -106 -220 -280s81 -280 220 -280z" />
    <glyph glyph-name="uni04AC" unicode="&#x4ac;" horiz-adv-x="595" 
d="M580 620h-235v-540h80v-240h-75l-13 160h-87v620h-235v80h330h235v-80z" />
    <glyph glyph-name="uni04AE" unicode="&#x4ae;" horiz-adv-x="645" 
d="M630 700l-259 -403v-297h-95v296l-261 404h110l203 -320l197 320h105z" />
    <glyph glyph-name="uni04B0" unicode="&#x4b0;" horiz-adv-x="645" 
d="M371 297v-59h142v-75h-142v-163h-95v163h-143v75h143v58l-261 404h110l203 -320l197 320h105z" />
    <glyph glyph-name="uni04B2" unicode="&#x4b2;" horiz-adv-x="692" 
d="M576 80h91v-240h-75l-13 160h-62l-200 285l-189 -285h-113l249 360l-239 340h115l187 -266l175 266h110l-232 -341z" />
    <glyph glyph-name="uni04B6" unicode="&#x4b6;" horiz-adv-x="655" 
d="M560 80h80v-240h-75l-13 160h-87v305c-50 -27 -112 -45 -195 -45c-143 0 -255 53 -255 225v215h105v-215c0 -92 56 -145 160 -145c64 0 135 18 185 55v305h95v-620z" />
    <glyph glyph-name="uni04B8" unicode="&#x4b8;" horiz-adv-x="645" 
d="M465 700h95v-700h-95v305c-39 -21 -86 -37 -145 -43v-132h-70v130c-133 5 -235 61 -235 225v215h105v-215c0 -83 45 -134 130 -143v128h70v-128c52 6 105 24 145 53v305z" />
    <glyph glyph-name="uni04BA" unicode="&#x4ba;" horiz-adv-x="675" 
d="M375 425c133 0 245 -43 245 -215v-210h-105v215c0 92 -56 130 -150 130c-64 0 -135 -18 -185 -55v-290h-95v700h95v-320c50 27 112 45 195 45z" />
    <glyph glyph-name="uni0526" unicode="&#x526;" horiz-adv-x="705" 
d="M620 80h70v-240h-75l-13 160h-87v215c0 92 -56 130 -150 130c-64 0 -135 -18 -185 -55v-290h-95v700h95v-320c50 27 112 45 195 45c133 0 245 -43 245 -215v-130z" />
    <glyph glyph-name="uni04BC" unicode="&#x4bc;" horiz-adv-x="860" 
d="M495 70c91 0 185 40 210 140h85c-26 -145 -142 -220 -295 -220c-194 0 -325 140 -325 360v2c-85 14 -145 83 -145 175c0 10 1 20 2 30h90c-1 -10 -2 -20 -2 -30c0 -47 18 -85 62 -95c29 172 149 278 318 278c194 0 315 -140 315 -360h-95h-450c0 -174 91 -280 230 -280z
M495 630c-116 0 -199 -74 -223 -200h437c-22 126 -98 200 -214 200z" />
    <glyph glyph-name="uni04BE" unicode="&#x4be;" horiz-adv-x="860" 
d="M495 70c91 0 185 40 210 140h85c-24 -135 -126 -209 -263 -219v-151h-75v152c-170 20 -282 155 -282 358v2c-85 14 -145 83 -145 175c0 10 1 20 2 30h90c-1 -10 -2 -20 -2 -30c0 -47 18 -85 62 -95c29 172 149 278 318 278c194 0 315 -140 315 -360h-95h-450
c0 -174 91 -280 230 -280zM495 630c-116 0 -199 -74 -223 -200h437c-22 126 -98 200 -214 200z" />
    <glyph glyph-name="uni04C0" unicode="&#x4c0;" horiz-adv-x="275" 
d="M90 700h95v-700h-95v700z" />
    <glyph glyph-name="uni04C1" unicode="&#x4c1;" horiz-adv-x="900" 
d="M450 760c-96 0 -150 57 -160 150h60c15 -51 43 -80 100 -80s85 29 100 80h60c-10 -93 -64 -150 -160 -150zM883 73c5 0 11 1 17 2v-75c-9 -5 -23 -10 -47 -10c-79 0 -112 56 -133 135l-30 114c-11 42 -38 86 -135 86h-62v-325h-85v325h-63c-97 0 -124 -44 -135 -86
l-30 -114c-21 -79 -54 -135 -133 -135c-24 0 -38 5 -47 10v75c6 -1 12 -2 17 -2c39 0 62 30 69 62l24 106c13 59 40 109 95 124c-55 15 -78 60 -90 124l-14 76c-7 40 -25 62 -63 62c-5 0 -11 -1 -18 -2v75c11 7 26 10 45 10c78 0 116 -54 130 -135l15 -84
c7 -42 33 -86 135 -86h63v295h85v-295h62c102 0 128 44 135 86l15 84c14 81 52 135 130 135c19 0 34 -3 45 -10v-75c-7 1 -13 2 -18 2c-38 0 -56 -22 -63 -62l-14 -76c-12 -64 -35 -109 -90 -124c55 -15 82 -65 95 -124l24 -106c7 -32 30 -62 69 -62z" />
    <glyph glyph-name="uni04C3" unicode="&#x4c3;" horiz-adv-x="700" 
d="M480 372c103 -35 175 -114 175 -264c0 -204 -133 -273 -271 -273c-45 0 -79 8 -101 18v80c20 -9 50 -18 101 -18c89 0 166 64 166 195c0 142 -91 215 -230 215h-140v-325h-95v405v295h95v-295h140c102 0 128 44 135 86l15 84c14 81 52 135 130 135c19 0 34 -3 45 -10v-75
c-7 1 -13 2 -18 2c-38 0 -56 -22 -63 -62l-14 -76c-10 -56 -29 -97 -70 -117z" />
    <glyph glyph-name="uni04C5" unicode="&#x4c5;" horiz-adv-x="711" 
d="M696 80l-42 -240h-75l15 160h-74v620h-252c-5 -370 -39 -630 -206 -630c-24 0 -38 5 -47 10v75c6 -1 12 -2 17 -2c127 0 142 277 142 627h431h10v-620h81z" />
    <glyph glyph-name="uni04C7" unicode="&#x4c7;" horiz-adv-x="760" 
d="M580 700h95v-700v-55c0 -105 -65 -175 -210 -175v80c90 0 115 35 115 105v125v245h-400v-325h-95v700h95v-295h400v295z" />
    <glyph glyph-name="uni04C9" unicode="&#x4c9;" horiz-adv-x="770" 
d="M755 80l-42 -240h-75l15 160h-73v325h-400v-325h-95v700h95v-295h400v295h95v-620h80z" />
    <glyph glyph-name="uni04CB" unicode="&#x4cb;" horiz-adv-x="645" 
d="M465 700h95v-700h-80v-160h-75l-20 240h80v225c-50 -27 -112 -45 -195 -45c-143 0 -255 53 -255 225v215h105v-215c0 -92 56 -145 160 -145c64 0 135 18 185 55v305z" />
    <glyph glyph-name="uni04CD" unicode="&#x4cd;" horiz-adv-x="885" 
d="M870 80l-42 -240h-75l15 160h-73v475l-240 -409h-40l-240 409v-475h-95v700h80l275 -484l275 484h80v-620h80z" />
    <glyph glyph-name="uni04D0" unicode="&#x4d0;" horiz-adv-x="674" 
d="M340 760c-96 0 -150 57 -160 150h60c15 -51 43 -80 100 -80s85 29 100 80h60c-10 -93 -64 -150 -160 -150zM554 0l-73 190h-295l-71 -190h-100l267 700h105l272 -700h-105zM216 270h235l-119 311z" />
    <glyph glyph-name="uni04D2" unicode="&#x4d2;" horiz-adv-x="674" 
d="M240 775c-31 0 -57 26 -57 58c0 30 26 57 57 57s57 -27 57 -57c0 -32 -26 -58 -57 -58zM440 775c-31 0 -57 26 -57 58c0 30 26 57 57 57s57 -27 57 -57c0 -32 -26 -58 -57 -58zM554 0l-73 190h-295l-71 -190h-100l267 700h105l272 -700h-105zM216 270h235l-119 311z" />
    <glyph glyph-name="uni04D6" unicode="&#x4d6;" horiz-adv-x="615" 
d="M325 760c-96 0 -150 57 -160 150h60c15 -51 43 -80 100 -80s85 29 100 80h60c-10 -93 -64 -150 -160 -150zM185 80h375v-80h-460h-10v700h95h365v-80h-365v-215h335v-80h-335v-245z" />
    <glyph glyph-name="uni04D8" unicode="&#x4d8;" horiz-adv-x="740" 
d="M372 710c190 0 318 -141 318 -359c0 -222 -131 -361 -325 -361s-315 140 -315 360h95h450v2c0 172 -86 278 -227 278c-96 0 -188 -39 -223 -140h-85c36 143 162 220 312 220zM365 70c116 0 198 73 223 200h-437c22 -126 98 -200 214 -200z" />
    <glyph glyph-name="uni04DA" unicode="&#x4da;" horiz-adv-x="740" 
d="M270 775c-31 0 -57 26 -57 58c0 30 26 57 57 57s57 -27 57 -57c0 -32 -26 -58 -57 -58zM470 775c-31 0 -57 26 -57 58c0 30 26 57 57 57s57 -27 57 -57c0 -32 -26 -58 -57 -58zM372 710c190 0 318 -141 318 -359c0 -222 -131 -361 -325 -361s-315 140 -315 360h95h450v2
c0 172 -86 278 -227 278c-96 0 -188 -39 -223 -140h-85c36 143 162 220 312 220zM365 70c116 0 198 73 223 200h-437c22 -126 98 -200 214 -200z" />
    <glyph glyph-name="uni04DC" unicode="&#x4dc;" horiz-adv-x="900" 
d="M350 775c-31 0 -57 26 -57 58c0 30 26 57 57 57s57 -27 57 -57c0 -32 -26 -58 -57 -58zM550 775c-31 0 -57 26 -57 58c0 30 26 57 57 57s57 -27 57 -57c0 -32 -26 -58 -57 -58zM883 73c5 0 11 1 17 2v-75c-9 -5 -23 -10 -47 -10c-79 0 -112 56 -133 135l-30 114
c-11 42 -38 86 -135 86h-62v-325h-85v325h-63c-97 0 -124 -44 -135 -86l-30 -114c-21 -79 -54 -135 -133 -135c-24 0 -38 5 -47 10v75c6 -1 12 -2 17 -2c39 0 62 30 69 62l24 106c13 59 40 109 95 124c-55 15 -78 60 -90 124l-14 76c-7 40 -25 62 -63 62c-5 0 -11 -1 -18 -2
v75c11 7 26 10 45 10c78 0 116 -54 130 -135l15 -84c7 -42 33 -86 135 -86h63v295h85v-295h62c102 0 128 44 135 86l15 84c14 81 52 135 130 135c19 0 34 -3 45 -10v-75c-7 1 -13 2 -18 2c-38 0 -56 -22 -63 -62l-14 -76c-12 -64 -35 -109 -90 -124c55 -15 82 -65 95 -124
l24 -106c7 -32 30 -62 69 -62z" />
    <glyph glyph-name="uni04DE" unicode="&#x4de;" horiz-adv-x="630" 
d="M230 775c-31 0 -57 26 -57 58c0 30 26 57 57 57s57 -27 57 -57c0 -32 -26 -58 -57 -58zM430 775c-31 0 -57 26 -57 58c0 30 26 57 57 57s57 -27 57 -57c0 -32 -26 -58 -57 -58zM421 363c102 -26 159 -82 159 -178c0 -131 -117 -195 -255 -195c-158 0 -260 79 -275 220
h100c10 -79 64 -140 175 -140c91 0 150 46 150 115c0 79 -64 135 -225 135v60v20c166 0 210 56 210 115s-39 115 -135 115c-106 0 -150 -61 -160 -140h-95c15 141 107 220 255 220c138 0 235 -64 235 -185c0 -75 -46 -132 -139 -162z" />
    <glyph glyph-name="uni04E0" unicode="&#x4e0;" horiz-adv-x="605" 
d="M356 433c127 -24 204 -103 204 -228c0 -141 -112 -215 -250 -215c-148 0 -260 79 -260 240h100c2 -99 59 -160 160 -160c91 0 145 56 145 135c0 89 -54 165 -185 165h-48v40l175 210h-317v80h450v-60z" />
    <glyph glyph-name="uni04E2" unicode="&#x4e2;" horiz-adv-x="770" 
d="M545 860v-70h-320v70h320zM610 700h75v-700h-95v542l-430 -542h-75v700h95v-542z" />
    <glyph glyph-name="uni04E4" unicode="&#x4e4;" horiz-adv-x="770" 
d="M285 775c-31 0 -57 26 -57 58c0 30 26 57 57 57s57 -27 57 -57c0 -32 -26 -58 -57 -58zM485 775c-31 0 -57 26 -57 58c0 30 26 57 57 57s57 -27 57 -57c0 -32 -26 -58 -57 -58zM610 700h75v-700h-95v542l-430 -542h-75v700h95v-542z" />
    <glyph glyph-name="uni04E6" unicode="&#x4e6;" horiz-adv-x="750" 
d="M275 775c-31 0 -57 26 -57 58c0 30 26 57 57 57s57 -27 57 -57c0 -32 -26 -58 -57 -58zM475 775c-31 0 -57 26 -57 58c0 30 26 57 57 57s57 -27 57 -57c0 -32 -26 -58 -57 -58zM375 710c194 0 325 -140 325 -360s-131 -360 -325 -360s-325 140 -325 360s131 360 325 360z
M375 70c129 0 220 106 220 280s-91 280 -220 280s-220 -106 -220 -280s91 -280 220 -280z" />
    <glyph glyph-name="uni04E8" unicode="&#x4e8;" horiz-adv-x="750" 
d="M375 710c194 0 325 -140 325 -360s-131 -360 -325 -360s-325 140 -325 360s131 360 325 360zM375 630c-122 0 -208 -88 -223 -235h446c-15 147 -101 235 -223 235zM375 70c130 0 220 100 225 265h-450c5 -165 95 -265 225 -265z" />
    <glyph glyph-name="uni04EA" unicode="&#x4ea;" horiz-adv-x="750" 
d="M275 775c-31 0 -57 26 -57 58c0 30 26 57 57 57s57 -27 57 -57c0 -32 -26 -58 -57 -58zM475 775c-31 0 -57 26 -57 58c0 30 26 57 57 57s57 -27 57 -57c0 -32 -26 -58 -57 -58zM375 710c194 0 325 -140 325 -360s-131 -360 -325 -360s-325 140 -325 360s131 360 325 360z
M375 630c-122 0 -208 -88 -223 -235h446c-15 147 -101 235 -223 235zM375 70c130 0 220 100 225 265h-450c5 -165 95 -265 225 -265z" />
    <glyph glyph-name="uni04EC" unicode="&#x4ec;" horiz-adv-x="705" 
d="M233 775c-31 0 -57 26 -57 58c0 30 26 57 57 57s57 -27 57 -57c0 -32 -26 -58 -57 -58zM433 775c-31 0 -57 26 -57 58c0 30 26 57 57 57s57 -27 57 -57c0 -32 -26 -58 -57 -58zM340 710c194 0 310 -140 310 -360s-116 -360 -310 -360c-143 0 -259 75 -290 220h95
c30 -100 114 -140 195 -140c121 0 196 94 204 250h-334v80h333c-14 144 -87 230 -203 230c-81 0 -165 -40 -195 -140h-95c31 145 147 220 290 220z" />
    <glyph glyph-name="uni04EE" unicode="&#x4ee;" horiz-adv-x="630" 
d="M481 860v-70h-320v70h320zM510 700h105l-252 -510c-65 -132 -134 -200 -273 -200v85c89 0 140 40 190 139l-265 486h110l203 -385z" />
    <glyph glyph-name="uni04F0" unicode="&#x4f0;" horiz-adv-x="630" 
d="M221 775c-31 0 -57 26 -57 58c0 30 26 57 57 57s57 -27 57 -57c0 -32 -26 -58 -57 -58zM421 775c-31 0 -57 26 -57 58c0 30 26 57 57 57s57 -27 57 -57c0 -32 -26 -58 -57 -58zM510 700h105l-252 -510c-65 -132 -134 -200 -273 -200v85c89 0 140 40 190 139l-265 486h110
l203 -385z" />
    <glyph glyph-name="uni04F2" unicode="&#x4f2;" horiz-adv-x="630" 
d="M421 900l-160 -130h-80l120 130h120zM431 770h-80l120 130h120zM510 700h105l-252 -510c-65 -132 -134 -200 -273 -200v85c89 0 140 40 190 139l-265 486h110l203 -385z" />
    <glyph glyph-name="uni04F4" unicode="&#x4f4;" horiz-adv-x="645" 
d="M183 775c-31 0 -57 26 -57 58c0 30 26 57 57 57s57 -27 57 -57c0 -32 -26 -58 -57 -58zM383 775c-31 0 -57 26 -57 58c0 30 26 57 57 57s57 -27 57 -57c0 -32 -26 -58 -57 -58zM465 700h95v-700h-95v305c-50 -27 -112 -45 -195 -45c-143 0 -255 53 -255 225v215h105v-215
c0 -92 56 -145 160 -145c64 0 135 18 185 55v305z" />
    <glyph glyph-name="uni04F6" unicode="&#x4f6;" horiz-adv-x="545" 
d="M530 620h-350v-540h80v-240h-75l-13 160h-87v700h95h350v-80z" />
    <glyph glyph-name="uni04F8" unicode="&#x4f8;" horiz-adv-x="876" 
d="M323 775c-31 0 -57 26 -57 58c0 30 26 57 57 57s57 -27 57 -57c0 -32 -26 -58 -57 -58zM523 890c31 0 57 -27 57 -57c0 -32 -26 -58 -57 -58s-57 26 -57 58c0 30 26 57 57 57zM326 410c133 0 245 -78 245 -205s-112 -205 -245 -205h-230h-11v700h95v-290h146zM691 700h95
v-700h-95v700zM306 80c104 0 160 38 160 125s-56 125 -160 125h-126v-250h126z" />
    <glyph glyph-name="uni04FC" unicode="&#x4fc;" horiz-adv-x="683" 
d="M667 80c10 -175 -65 -250 -167 -250c-10 0 -20 1 -30 2v80c10 -1 20 -2 30 -2c42 0 76 20 86 90h-69l-200 285l-189 -285h-113l249 360l-239 340h115l187 -266l175 266h110l-232 -341l196 -279h91z" />
    <glyph glyph-name="uni0510" unicode="&#x510;" horiz-adv-x="630" 
d="M480 210h100c-15 -141 -117 -220 -275 -220c-138 0 -255 64 -255 195c0 96 57 152 159 178c-93 30 -139 87 -139 162c0 121 97 185 235 185c148 0 240 -79 255 -220h-95c-10 79 -54 140 -160 140c-96 0 -135 -56 -135 -115s44 -115 210 -115v-60v-20
c-161 0 -225 -56 -225 -135c0 -69 59 -115 150 -115c111 0 165 61 175 140z" />
    <glyph glyph-name="uni0512" unicode="&#x512;" horiz-adv-x="700" 
d="M615 700v-700v-55c0 -105 -65 -175 -210 -175v80c90 0 115 35 115 105v125v540h-252c-5 -370 -39 -630 -206 -630c-24 0 -38 5 -47 10v75c6 -1 12 -2 17 -2c127 0 142 277 142 627h441z" />
    <glyph glyph-name="uni051C" unicode="&#x51c;" horiz-adv-x="930" 
d="M815 700h100l-198 -700h-105l-147 498l-147 -498h-105l-198 700h105l148 -580l152 530h90l152 -530z" />
    <glyph glyph-name="uni0430" unicode="&#x430;" horiz-adv-x="520" 
d="M475 63c7 0 14 1 20 2v-70c-11 -3 -25 -5 -38 -5c-64 0 -99 45 -106 86c-40 -52 -91 -86 -164 -86c-89 0 -152 50 -152 135c0 105 89 176 259 176c20 0 32 -1 46 -2v16c0 90 -42 120 -110 120c-52 0 -103 -17 -145 -40v85c41 17 96 30 155 30c91 0 185 -31 185 -185v-197
c0 -39 12 -65 50 -65zM205 60c61 0 135 51 135 132v43c-17 1 -31 2 -48 2c-122 0 -162 -49 -162 -102c0 -50 33 -75 75 -75z" />
    <glyph glyph-name="uni0431" unicode="&#x431;" horiz-adv-x="550" 
d="M290 470c125 0 225 -95 225 -240s-110 -240 -240 -240s-230 95 -230 240c0 332 70 452 296 470c40 3 56 9 64 40h70c0 -94 -58 -112 -124 -115c-107 -5 -219 -57 -237 -266c39 71 95 111 176 111zM275 65c80 0 140 60 140 165s-55 165 -135 165c-75 0 -145 -60 -145 -165
c1 -105 60 -165 140 -165z" />
    <glyph glyph-name="uni0432" unicode="&#x432;" horiz-adv-x="550" 
d="M423 256c54 -22 82 -61 82 -111c0 -90 -70 -145 -195 -145h-235v220v210v70h215c125 0 195 -55 195 -141c0 -44 -21 -80 -62 -103zM165 430v-145h115c75 0 110 19 110 74c0 51 -35 71 -110 71h-115zM300 70c75 0 110 25 110 80c0 50 -35 70 -110 70h-135v-150h135z" />
    <glyph glyph-name="uni0433" unicode="&#x433;" horiz-adv-x="460" 
d="M435 500v-75h-270v-425h-90v500h90h270z" />
    <glyph glyph-name="uni0453" unicode="&#x453;" horiz-adv-x="460" 
d="M405 740l-130 -160h-70l90 160h110zM435 500v-75h-270v-425h-90v500h90h270z" />
    <glyph glyph-name="uni0491" unicode="&#x491;" horiz-adv-x="460" 
d="M350 620h85v-195h-270v-425h-90v500h275v120z" />
    <glyph glyph-name="uni0434" unicode="&#x434;" horiz-adv-x="620" 
d="M595 75v-235h-65l-14 160h-106h-306l-14 -160h-65v235h65c50 54 59 218 59 425h351v-425h95zM182 75h228v350h-176c-3 -137 -12 -282 -52 -350z" />
    <glyph glyph-name="uni0435" unicode="&#x435;" horiz-adv-x="540" 
d="M285 65c51 0 107 23 120 90h85c-15 -111 -105 -165 -205 -165c-130 0 -240 95 -240 260s111 260 235 260c116 0 215 -58 215 -260h-350c0 -125 60 -185 140 -185zM280 440c-65 0 -112 -44 -129 -125h239c-4 73 -38 125 -110 125z" />
    <glyph glyph-name="uni0451" unicode="&#x451;" horiz-adv-x="540" 
d="M170 615c-31 0 -57 26 -57 58c0 30 26 57 57 57s57 -27 57 -57c0 -32 -26 -58 -57 -58zM370 615c-31 0 -57 26 -57 58c0 30 26 57 57 57s57 -27 57 -57c0 -32 -26 -58 -57 -58zM285 65c51 0 107 23 120 90h85c-15 -111 -105 -165 -205 -165c-130 0 -240 95 -240 260
s111 260 235 260c116 0 215 -58 215 -260h-350c0 -125 60 -185 140 -185zM280 440c-65 0 -112 -44 -129 -125h239c-4 73 -38 125 -110 125z" />
    <glyph glyph-name="uni0436" unicode="&#x436;" horiz-adv-x="820" 
d="M763 63c11 0 16 1 22 2v-65c-19 -7 -37 -10 -63 -10c-65 0 -95 42 -110 115l-12 59c-9 44 -38 66 -95 66h-55v-230h-80v230h-55c-57 0 -86 -22 -95 -66l-12 -59c-15 -73 -45 -115 -110 -115c-26 0 -44 3 -63 10v65c6 -1 11 -2 22 -2c33 0 49 16 56 52l10 51
c10 51 37 89 82 104c-45 15 -68 35 -77 79l-7 36c-9 45 -27 52 -58 52c-12 0 -16 -1 -23 -2v65c11 5 30 10 51 10c74 0 111 -36 122 -110l5 -34c6 -43 35 -61 97 -61h55v195h80v-195h55c62 0 91 18 97 61l5 34c11 74 48 110 122 110c21 0 40 -5 51 -10v-65c-7 1 -11 2 -23 2
c-31 0 -49 -7 -58 -52l-7 -36c-9 -44 -32 -64 -77 -79c45 -15 72 -53 82 -104l10 -51c7 -36 23 -52 56 -52z" />
    <glyph glyph-name="uni0437" unicode="&#x437;" horiz-adv-x="471" 
d="M332 251c65 -25 94 -68 94 -121c0 -90 -81 -140 -205 -140c-64 0 -135 13 -176 30v85c42 -20 99 -40 171 -40c69 0 115 25 115 75s-40 80 -160 80v55v10c120 0 150 19 150 74c0 51 -40 76 -105 76c-67 0 -117 -19 -161 -40v85c41 17 97 30 166 30c130 0 195 -55 195 -141
c0 -49 -24 -92 -84 -118z" />
    <glyph glyph-name="uni0438" unicode="&#x438;" horiz-adv-x="590" 
d="M445 500h70v-500h-90v360l-280 -360h-70v500h90v-360z" />
    <glyph glyph-name="uni0439" unicode="&#x439;" horiz-adv-x="590" 
d="M300 580c-96 0 -150 57 -160 160h60c15 -61 43 -90 100 -90s85 29 100 90h60c-10 -103 -64 -160 -160 -160zM445 500h70v-500h-90v360l-280 -360h-70v500h90v-360z" />
    <glyph glyph-name="uni043A" unicode="&#x43a;" horiz-adv-x="587" 
d="M530 63c11 0 16 1 22 2v-65c-19 -7 -37 -10 -63 -10c-65 0 -95 42 -110 115l-12 59c-9 44 -38 66 -135 66h-67v-230h-90v500h90v-195h67c102 0 131 18 137 61l5 34c11 74 48 110 122 110c21 0 40 -5 51 -10v-65c-7 1 -11 2 -23 2c-31 0 -49 -7 -58 -52l-7 -36
c-9 -44 -32 -64 -77 -79c45 -15 72 -53 82 -104l10 -51c7 -36 23 -52 56 -52z" />
    <glyph glyph-name="uni045C" unicode="&#x45c;" horiz-adv-x="587" 
d="M455 740l-130 -160h-70l90 160h110zM530 63c11 0 16 1 22 2v-65c-19 -7 -37 -10 -63 -10c-65 0 -95 42 -110 115l-12 59c-9 44 -38 66 -135 66h-67v-230h-90v500h90v-195h67c102 0 131 18 137 61l5 34c11 74 48 110 122 110c21 0 40 -5 51 -10v-65c-7 1 -11 2 -23 2
c-31 0 -49 -7 -58 -52l-7 -36c-9 -44 -32 -64 -77 -79c45 -15 72 -53 82 -104l10 -51c7 -36 23 -52 56 -52z" />
    <glyph glyph-name="uni043B" unicode="&#x43b;" horiz-adv-x="575" 
d="M500 500v-500h-90v425h-181c-5 -250 -30 -435 -167 -435c-24 0 -38 5 -47 10v65c6 -1 12 -2 17 -2c97 0 112 167 112 437h356z" />
    <glyph glyph-name="uni043C" unicode="&#x43c;" horiz-adv-x="710" 
d="M565 500h70v-500h-90v320l-170 -260h-40l-170 260v-320h-90v500h70l210 -320z" />
    <glyph glyph-name="uni043D" unicode="&#x43d;" horiz-adv-x="590" 
d="M425 500h90v-500h-90v230h-260v-230h-90v500h90v-195h260v195z" />
    <glyph glyph-name="uni043E" unicode="&#x43e;" horiz-adv-x="570" 
d="M285 510c130 0 240 -95 240 -260s-110 -260 -240 -260s-240 95 -240 260s110 260 240 260zM285 65c80 0 140 60 140 185s-60 185 -140 185s-140 -60 -140 -185s60 -185 140 -185z" />
    <glyph glyph-name="uni043F" unicode="&#x43f;" horiz-adv-x="590" 
d="M515 500v-500h-90v425h-260v-425h-90v500h90h350z" />
    <glyph glyph-name="uni0440" unicode="&#x440;" horiz-adv-x="590" 
d="M320 510c120 0 225 -95 225 -260s-105 -260 -225 -260c-67 0 -118 28 -155 78v-288h-90v720h90v-68c37 50 88 78 155 78zM310 65c75 0 135 60 135 185s-60 185 -135 185s-145 -60 -145 -185s70 -185 145 -185z" />
    <glyph glyph-name="uni0441" unicode="&#x441;" horiz-adv-x="520" 
d="M279 65c54 0 108 29 121 100h85c-15 -116 -105 -175 -206 -175c-129 0 -239 95 -239 260s110 260 239 260c101 0 191 -59 206 -175h-85c-13 71 -67 100 -121 100c-78 0 -139 -60 -139 -185s61 -185 139 -185z" />
    <glyph glyph-name="uni0442" unicode="&#x442;" horiz-adv-x="510" 
d="M475 500v-75h-175v-425h-90v425h-175v75h265h175z" />
    <glyph glyph-name="uni0443" unicode="&#x443;" horiz-adv-x="500" 
d="M395 500h100l-203 -500c-56 -135 -129 -230 -258 -230v85c82 0 136 67 175 163l-204 482h105l147 -375z" />
    <glyph glyph-name="uni045E" unicode="&#x45e;" horiz-adv-x="500" 
d="M253 560c-96 0 -150 57 -160 150h60c15 -51 43 -80 100 -80s85 29 100 80h60c-10 -93 -64 -150 -160 -150zM395 500h100l-203 -500c-56 -135 -129 -230 -258 -230v85c82 0 136 67 175 163l-204 482h105l147 -375z" />
    <glyph glyph-name="uni0444" unicode="&#x444;" horiz-adv-x="730" 
d="M405 510c150 -5 280 -95 280 -260s-130 -255 -280 -260v-210h-80v210c-150 5 -280 95 -280 260s130 255 280 260v230h80v-230zM325 60v380c-105 -5 -185 -60 -185 -190s80 -185 185 -190zM405 60c105 5 185 60 185 190s-80 185 -185 190v-380z" />
    <glyph glyph-name="uni0445" unicode="&#x445;" horiz-adv-x="523" 
d="M503 500l-185 -249l185 -251h-110l-137 187l-129 -187h-107l186 254l-181 246h110l134 -183l127 183h107z" />
    <glyph glyph-name="uni0447" unicode="&#x447;" horiz-adv-x="550" 
d="M385 500h90v-500h-90v211c-33 -19 -90 -41 -159 -41c-107 0 -181 53 -181 190v140h90v-110c0 -115 41 -140 117 -140c43 0 88 8 133 41v209z" />
    <glyph glyph-name="uni0446" unicode="&#x446;" horiz-adv-x="595" 
d="M580 75v-235h-65l-14 160h-336h-90v500h90v-425h250v425h90v-425h75z" />
    <glyph glyph-name="uni0448" unicode="&#x448;" horiz-adv-x="860" 
d="M695 500h90v-500h-90h-310h-300h-10v500h90v-425h220v425h90v-425h220v425z" />
    <glyph glyph-name="uni0449" unicode="&#x449;" horiz-adv-x="875" 
d="M860 75v-235h-65l-14 160h-86h-310h-300h-10v500h90v-425h220v425h90v-425h220v425h90v-425h75z" />
    <glyph glyph-name="uni045F" unicode="&#x45f;" horiz-adv-x="580" 
d="M415 500h90v-500h-90h-85l-7 -160h-65l-7 160h-166h-10v500h90v-425h168h82v425z" />
    <glyph glyph-name="uni044C" unicode="&#x44c;" horiz-adv-x="540" 
d="M310 305c125 0 195 -55 195 -150c0 -100 -70 -155 -195 -155h-235v230v270h90v-195h145zM300 75c75 0 110 20 110 80c0 55 -35 75 -110 75h-135v-155h135z" />
    <glyph glyph-name="uni044A" unicode="&#x44a;" horiz-adv-x="645" 
d="M415 305c125 0 195 -55 195 -150c0 -100 -70 -155 -195 -155h-235v230v195h-145v75h235v-195h145zM405 75c75 0 110 20 110 80c0 55 -35 75 -110 75h-135v-155h135z" />
    <glyph glyph-name="uni044B" unicode="&#x44b;" horiz-adv-x="755" 
d="M280 305c125 0 195 -55 195 -150c0 -100 -70 -155 -195 -155h-205v230v270h90v-195h115zM590 500h90v-500h-90v500zM270 75c75 0 110 20 110 80c0 55 -35 75 -110 75h-105v-155h105z" />
    <glyph glyph-name="uni0459" unicode="&#x459;" horiz-adv-x="834" 
d="M604 305c125 0 195 -55 195 -150c0 -100 -70 -155 -195 -155h-205v230v195h-170c-5 -250 -30 -435 -167 -435c-24 0 -38 5 -47 10v65c6 -1 12 -2 17 -2c97 0 112 167 112 437h335h10v-195h115zM594 75c75 0 110 20 110 80c0 55 -35 75 -110 75h-105v-155h105z" />
    <glyph glyph-name="uni045A" unicode="&#x45a;" horiz-adv-x="835" 
d="M605 305c125 0 195 -55 195 -150c0 -100 -70 -155 -195 -155h-205v230h-235v-230h-90v305v195h90v-195h235v195h90v-195h115zM595 75c75 0 110 20 110 80c0 55 -35 75 -110 75h-105v-155h105z" />
    <glyph glyph-name="uni0455" unicode="&#x455;" horiz-adv-x="465" 
d="M150 373c0 -110 270 -38 270 -228c0 -108 -95 -155 -205 -155c-59 0 -119 13 -160 30v85c42 -20 98 -40 160 -40c65 0 110 27 110 68c0 104 -270 40 -270 227c0 97 79 150 194 150c64 0 110 -13 151 -30v-80c-44 21 -94 40 -151 40c-63 0 -99 -26 -99 -67z" />
    <glyph glyph-name="uni0454" unicode="&#x454;" horiz-adv-x="520" 
d="M280 65c56 0 107 28 120 100h85c-15 -116 -105 -175 -205 -175c-130 0 -240 95 -240 260s110 260 240 260c100 0 190 -59 205 -175h-85c-13 72 -64 100 -120 100c-71 0 -130 -47 -143 -145h203v-65h-204c8 -108 70 -160 144 -160z" />
    <glyph glyph-name="uni044D" unicode="&#x44d;" horiz-adv-x="510" 
d="M245 510c130 0 230 -95 230 -260s-100 -260 -230 -260c-100 0 -200 59 -215 175h85c13 -72 74 -100 130 -100c74 0 127 52 134 160h-204v65h203c-11 98 -62 145 -133 145c-56 0 -117 -28 -130 -100h-85c15 116 115 175 215 175z" />
    <glyph glyph-name="uni0456" unicode="&#x456;" horiz-adv-x="240" 
d="M120 610c-32 0 -60 27 -60 60c0 32 28 60 60 60c33 0 60 -28 60 -60c0 -33 -27 -60 -60 -60zM75 0v500h90v-500h-90z" />
    <glyph glyph-name="uni0457" unicode="&#x457;" horiz-adv-x="240" 
d="M20 615c-31 0 -57 26 -57 58c0 30 26 57 57 57s57 -27 57 -57c0 -32 -26 -58 -57 -58zM220 615c-31 0 -57 26 -57 58c0 30 26 57 57 57s57 -27 57 -57c0 -32 -26 -58 -57 -58zM75 0v500h90v-500h-90z" />
    <glyph glyph-name="uni0458" unicode="&#x458;" horiz-adv-x="240" 
d="M120 610c-32 0 -60 27 -60 60c0 32 28 60 60 60c33 0 60 -28 60 -60c0 -33 -27 -60 -60 -60zM75 500h90v-557c0 -95 -71 -173 -190 -173v75c64 0 100 33 100 113v542z" />
    <glyph glyph-name="uni045B" unicode="&#x45b;" horiz-adv-x="590" 
d="M334 510c105 0 181 -53 181 -190v-320h-90v300c0 105 -51 130 -110 130c-65 0 -150 -45 -150 -193v-237h-90v573h-105v70h105v97h90v-97h125v-70h-125v-154c29 44 81 91 169 91z" />
    <glyph glyph-name="uni044E" unicode="&#x44e;" horiz-adv-x="750" 
d="M480 510c125 0 225 -95 225 -260s-100 -260 -225 -260c-120 0 -217 87 -224 240h-91v-230h-90v500h90v-205h93c16 137 109 215 222 215zM480 65c75 0 125 60 125 185s-50 185 -125 185s-125 -60 -125 -185s50 -185 125 -185z" />
    <glyph glyph-name="uni044F" unicode="&#x44f;" horiz-adv-x="597" 
d="M522 500v-500h-90v195h-89c-97 0 -115 -12 -125 -51l-10 -39c-19 -72 -45 -115 -110 -115c-26 0 -44 3 -63 10v65c6 -1 11 -2 22 -2c33 0 47 17 56 52l8 31c10 40 24 61 47 75c-57 20 -88 63 -88 129c0 95 70 150 195 150h247zM285 270h147v155h-147
c-75 0 -110 -20 -110 -75c0 -60 35 -80 110 -80z" />
    <glyph glyph-name="uni0452" unicode="&#x452;" horiz-adv-x="590" 
d="M334 510c105 0 181 -53 181 -190v-377c0 -95 -71 -173 -190 -173v75c64 0 100 33 100 113v342c0 105 -51 130 -110 130c-65 0 -150 -45 -150 -193v-237h-90v573h-105v70h105v97h90v-97h125v-70h-125v-154c29 44 81 91 169 91z" />
    <glyph glyph-name="uni0463" unicode="&#x463;" horiz-adv-x="530" 
d="M300 305c125 0 195 -55 195 -150c0 -100 -70 -155 -195 -155h-235v230v343h-95v70h95v97h90v-97h135v-70h-135v-268h145zM290 75c75 0 110 20 110 80c0 55 -35 75 -110 75h-135v-155h135z" />
    <glyph glyph-name="uni0473" unicode="&#x473;" horiz-adv-x="570" 
d="M285 510c130 0 240 -95 240 -260s-110 -260 -240 -260s-240 95 -240 260s110 260 240 260zM285 435c-71 0 -130 -47 -143 -145h286c-13 98 -72 145 -143 145zM285 65c74 0 136 52 144 160h-288c8 -108 70 -160 144 -160z" />
    <glyph glyph-name="uni0475" unicode="&#x475;" horiz-adv-x="536" 
d="M480 510c21 0 40 -5 51 -10v-65c-7 1 -11 2 -23 2c-26 0 -40 -8 -58 -52l-158 -385h-75l-212 500h105l147 -375l101 275c27 73 53 110 122 110z" />
    <glyph glyph-name="uni0493" unicode="&#x493;" horiz-adv-x="520" 
d="M495 425h-270v-165h140v-65h-140v-195h-90v195h-110v65h110v240h90h270v-75z" />
    <glyph glyph-name="uni0495" unicode="&#x495;" horiz-adv-x="580" 
d="M321 290c101 0 214 -63 214 -260s-114 -260 -239 -260c-35 0 -69 8 -91 18v75c20 -9 50 -18 91 -18c58 0 144 34 144 185c0 152 -86 185 -148 185c-35 0 -82 -8 -127 -41v-174h-90v500h90h270v-75h-270v-176c43 25 91 41 156 41z" />
    <glyph glyph-name="uni0497" unicode="&#x497;" horiz-adv-x="820" 
d="M763 63c11 0 16 1 22 2v-225h-65l-15 151c-53 7 -79 48 -93 114l-12 59c-9 44 -38 66 -95 66h-55v-230h-80v230h-55c-57 0 -86 -22 -95 -66l-12 -59c-15 -73 -45 -115 -110 -115c-26 0 -44 3 -63 10v65c6 -1 11 -2 22 -2c33 0 49 16 56 52l10 51c10 51 37 89 82 104
c-45 15 -68 35 -77 79l-7 36c-9 45 -27 52 -58 52c-12 0 -16 -1 -23 -2v65c11 5 30 10 51 10c74 0 111 -36 122 -110l5 -34c6 -43 35 -61 97 -61h55v195h80v-195h55c62 0 91 18 97 61l5 34c11 74 48 110 122 110c21 0 40 -5 51 -10v-65c-7 1 -11 2 -23 2
c-31 0 -49 -7 -58 -52l-7 -36c-9 -44 -32 -64 -77 -79c45 -15 72 -53 82 -104l10 -51c7 -36 23 -52 56 -52z" />
    <glyph glyph-name="uni0499" unicode="&#x499;" horiz-adv-x="471" 
d="M426 130c0 -85 -73 -135 -186 -140l-15 -50c69 13 121 -14 121 -74c0 -62 -56 -96 -117 -96c-35 0 -55 7 -78 19v52c23 -13 43 -21 68 -21c30 0 57 12 57 41c0 51 -73 42 -125 24l34 106c-53 4 -107 15 -140 29v85c42 -20 99 -40 171 -40c69 0 115 25 115 75
s-40 80 -160 80v55v10c120 0 150 19 150 74c0 51 -40 76 -105 76c-67 0 -117 -19 -161 -40v85c41 17 97 30 166 30c130 0 195 -55 195 -141c0 -49 -24 -92 -84 -118c65 -25 94 -68 94 -121z" />
    <glyph glyph-name="uni049B" unicode="&#x49b;" horiz-adv-x="587" 
d="M530 63c11 0 16 1 22 2v-225h-65l-15 151c-53 7 -79 48 -93 114l-12 59c-9 44 -38 66 -135 66h-67v-230h-90v500h90v-195h67c102 0 131 18 137 61l5 34c11 74 48 110 122 110c21 0 40 -5 51 -10v-65c-7 1 -11 2 -23 2c-31 0 -49 -7 -58 -52l-7 -36
c-9 -44 -32 -64 -77 -79c45 -15 72 -53 82 -104l10 -51c7 -36 23 -52 56 -52z" />
    <glyph glyph-name="uni049D" unicode="&#x49d;" horiz-adv-x="607" 
d="M550 63c11 0 16 1 22 2v-65c-19 -7 -37 -10 -63 -10c-65 0 -95 42 -110 115l-12 59c-7 34 -26 55 -81 63v-117h-60v120h-81v-230h-90v500h90v-195h81v115h60v-113c59 6 78 25 83 59l5 34c11 74 48 110 122 110c21 0 40 -5 51 -10v-65c-7 1 -11 2 -23 2
c-31 0 -49 -7 -58 -52l-7 -36c-9 -44 -32 -64 -77 -79c45 -15 72 -53 82 -104l10 -51c7 -36 23 -52 56 -52z" />
    <glyph glyph-name="uni049F" unicode="&#x49f;" horiz-adv-x="565" 
d="M508 63c11 0 16 1 22 2v-65c-19 -7 -37 -10 -63 -10c-65 0 -95 42 -110 115l-12 59c-9 44 -38 66 -135 66h-55v-230h-90v573h-95v70h95v97h90v-97h135v-70h-135v-268h55c102 0 131 18 137 61l5 34c11 74 48 110 122 110c21 0 40 -5 51 -10v-65c-7 1 -11 2 -23 2
c-31 0 -49 -7 -58 -52l-7 -36c-9 -44 -32 -64 -77 -79c45 -15 72 -53 82 -104l10 -51c7 -36 23 -52 56 -52z" />
    <glyph glyph-name="uni04A1" unicode="&#x4a1;" horiz-adv-x="682" 
d="M625 63c11 0 16 1 22 2v-65c-19 -7 -37 -10 -63 -10c-65 0 -95 42 -110 115l-12 59c-9 44 -38 66 -135 66h-67v-230h-90v425h-135v75h225v-195h67c102 0 131 18 137 61l5 34c11 74 48 110 122 110c21 0 40 -5 51 -10v-65c-7 1 -11 2 -23 2c-31 0 -49 -7 -58 -52l-7 -36
c-9 -44 -32 -64 -77 -79c45 -15 72 -53 82 -104l10 -51c7 -36 23 -52 56 -52z" />
    <glyph glyph-name="uni04A3" unicode="&#x4a3;" horiz-adv-x="605" 
d="M515 75h75v-235h-65l-14 160h-86v230h-260v-230h-90v500h90v-195h260v195h90v-425z" />
    <glyph glyph-name="uni0525" unicode="&#x525;" horiz-adv-x="605" 
d="M515 75h75v-235h-65l-14 160h-86v425h-260v-425h-90v500h90h340h10v-425z" />
    <glyph glyph-name="uni04A7" unicode="&#x4a7;" horiz-adv-x="930" 
d="M671 290c101 0 214 -63 214 -260s-114 -260 -239 -260c-35 0 -69 8 -91 18v75c20 -9 50 -18 91 -18c58 0 144 34 144 185c0 152 -86 185 -148 185c-35 0 -82 -8 -127 -41v-174h-90v425h-260v-425h-90v500h90h340h10v-251c43 25 91 41 156 41z" />
    <glyph glyph-name="uni04A9" unicode="&#x4a9;" horiz-adv-x="595" 
d="M570 60v-70c-55 0 -101 16 -139 42c-40 -26 -90 -42 -151 -42c-130 0 -240 95 -240 260s95 260 245 260c64 0 105 -13 146 -30v-80c-44 21 -89 40 -146 40c-100 0 -145 -65 -145 -190s60 -185 150 -185c32 0 61 6 84 17c-38 47 -59 103 -59 148c0 65 42 125 115 125
s115 -60 115 -125c0 -46 -19 -104 -60 -151c24 -12 52 -19 85 -19zM430 290c-21 0 -35 -30 -35 -65c0 -37 12 -72 34 -101c24 28 36 64 36 101c0 35 -14 65 -35 65z" />
    <glyph glyph-name="uni04AB" unicode="&#x4ab;" horiz-adv-x="520" 
d="M279 65c54 0 108 29 121 100h85c-14 -108 -93 -167 -186 -174l-15 -51c69 13 121 -14 121 -74c0 -62 -56 -96 -117 -96c-35 0 -55 7 -78 19v52c23 -13 43 -21 68 -21c30 0 57 12 57 41c0 51 -73 42 -125 24l34 107c-113 16 -204 108 -204 258c0 165 110 260 239 260
c101 0 191 -59 206 -175h-85c-13 71 -67 100 -121 100c-78 0 -139 -60 -139 -185s61 -185 139 -185z" />
    <glyph glyph-name="uni04AD" unicode="&#x4ad;" horiz-adv-x="490" 
d="M465 425h-175v-350h65v-235h-65l-14 160h-76v425h-175v75h265h175v-75z" />
    <glyph glyph-name="uni04AF" unicode="&#x4af;" horiz-adv-x="500" 
d="M495 500l-196 -476v-254h-90v242l-204 488h105l144 -375l141 375h100z" />
    <glyph glyph-name="uni04B1" unicode="&#x4b1;" horiz-adv-x="500" 
d="M299 24v-24h143v-65h-143v-165h-90v165h-147v65h147v12l-204 488h105l144 -375l141 375h100z" />
    <glyph glyph-name="uni04B3" unicode="&#x4b3;" horiz-adv-x="558" 
d="M448 75h85v-235h-65l-14 160h-61l-137 187l-129 -187h-107l186 254l-181 246h110l134 -183l127 183h107l-185 -249z" />
    <glyph glyph-name="uni04B7" unicode="&#x4b7;" horiz-adv-x="565" 
d="M475 75h75v-235h-65l-14 160h-86v211c-33 -19 -90 -41 -159 -41c-107 0 -181 53 -181 190v140h90v-110c0 -115 41 -140 117 -140c43 0 88 8 133 41v209h90v-425z" />
    <glyph glyph-name="uni04B9" unicode="&#x4b9;" horiz-adv-x="560" 
d="M395 500h90v-500h-90v211c-24 -14 -60 -29 -104 -36v-115h-60v110c-114 2 -186 55 -186 190v140h90v-110c0 -100 31 -132 96 -139v119h60v-119c34 4 69 14 104 40v209z" />
    <glyph glyph-name="uni04BB" unicode="&#x4bb;" horiz-adv-x="590" 
d="M334 510c105 0 181 -53 181 -190v-320h-90v300c0 105 -51 130 -110 130c-65 0 -150 -45 -150 -193v-237h-90v740h90v-321c29 44 81 91 169 91z" />
    <glyph glyph-name="uni0527" unicode="&#x527;" horiz-adv-x="605" 
d="M515 75h75v-235h-65l-14 160h-86v300c0 105 -51 130 -110 130c-65 0 -150 -45 -150 -193v-237h-90v740h90v-321c29 44 81 91 169 91c105 0 181 -53 181 -190v-245z" />
    <glyph glyph-name="uni04BD" unicode="&#x4bd;" horiz-adv-x="650" 
d="M395 65c51 0 107 23 120 90h85c-15 -111 -105 -165 -205 -165c-130 0 -240 95 -240 260v2c-87 11 -150 82 -150 175c0 10 1 20 2 30h90c-1 -10 -2 -20 -2 -30c0 -62 20 -102 67 -111c25 124 122 194 228 194c116 0 215 -58 215 -260h-350c0 -125 60 -185 140 -185z
M390 440c-65 0 -112 -44 -129 -125h239c-4 73 -38 125 -110 125z" />
    <glyph glyph-name="uni04BF" unicode="&#x4bf;" horiz-adv-x="650" 
d="M395 65c51 0 107 23 120 90h85c-11 -82 -63 -132 -129 -154c-46 -26 -80 -64 -80 -105c0 -31 16 -51 47 -51c16 0 34 5 49 11v-60c-22 -11 -47 -16 -72 -16c-71 0 -109 42 -109 96c0 43 24 80 69 115c-121 9 -220 102 -220 259v2c-87 11 -150 82 -150 175c0 10 1 20 2 30
h90c-1 -10 -2 -20 -2 -30c0 -62 20 -102 67 -111c25 124 122 194 228 194c116 0 215 -58 215 -260h-350c0 -125 60 -185 140 -185zM390 440c-65 0 -112 -44 -129 -125h239c-4 73 -38 125 -110 125z" />
    <glyph glyph-name="uni04CF" unicode="&#x4cf;" horiz-adv-x="240" 
d="M75 0v500h90v-500h-90z" />
    <glyph glyph-name="uni04C2" unicode="&#x4c2;" horiz-adv-x="820" 
d="M410 580c-96 0 -150 57 -160 160h60c15 -61 43 -90 100 -90s85 29 100 90h60c-10 -103 -64 -160 -160 -160zM763 63c11 0 16 1 22 2v-65c-19 -7 -37 -10 -63 -10c-65 0 -95 42 -110 115l-12 59c-9 44 -38 66 -95 66h-55v-230h-80v230h-55c-57 0 -86 -22 -95 -66l-12 -59
c-15 -73 -45 -115 -110 -115c-26 0 -44 3 -63 10v65c6 -1 11 -2 22 -2c33 0 49 16 56 52l10 51c10 51 37 89 82 104c-45 15 -68 35 -77 79l-7 36c-9 45 -27 52 -58 52c-12 0 -16 -1 -23 -2v65c11 5 30 10 51 10c74 0 111 -36 122 -110l5 -34c6 -43 35 -61 97 -61h55v195h80
v-195h55c62 0 91 18 97 61l5 34c11 74 48 110 122 110c21 0 40 -5 51 -10v-65c-7 1 -11 2 -23 2c-31 0 -49 -7 -58 -52l-7 -36c-9 -44 -32 -64 -77 -79c45 -15 72 -53 82 -104l10 -51c7 -36 23 -52 56 -52z" />
    <glyph glyph-name="uni04C4" unicode="&#x4c4;" horiz-adv-x="620" 
d="M372 271c108 -33 173 -111 173 -251c0 -187 -114 -250 -239 -250c-35 0 -69 8 -91 18v75c20 -9 50 -18 91 -18c58 0 144 34 144 175c0 166 -102 210 -230 210h-55v-230h-90v500h90v-195h55c102 0 131 18 137 61l5 34c11 74 48 110 122 110c21 0 40 -5 51 -10v-65
c-7 1 -11 2 -23 2c-31 0 -49 -7 -58 -52l-7 -36c-9 -43 -31 -63 -75 -78z" />
    <glyph glyph-name="uni04C6" unicode="&#x4c6;" horiz-adv-x="590" 
d="M500 75h75l-41 -235h-65l14 160h-73v425h-181c-5 -250 -30 -435 -167 -435c-24 0 -38 5 -47 10v65c6 -1 12 -2 17 -2c97 0 112 167 112 437h356v-425z" />
    <glyph glyph-name="uni04C8" unicode="&#x4c8;" horiz-adv-x="590" 
d="M425 500h90v-557c0 -95 -71 -173 -190 -173v75c64 0 100 33 100 113v272h-260v-230h-90v500h90v-195h260v195z" />
    <glyph glyph-name="uni04CA" unicode="&#x4ca;" horiz-adv-x="615" 
d="M515 75h75l-41 -235h-65l14 160h-73v230h-260v-230h-90v500h90v-195h260v195h90v-425z" />
    <glyph glyph-name="uni04CC" unicode="&#x4cc;" horiz-adv-x="550" 
d="M385 500h90v-500h-86l-14 -160h-65v235h75v136c-33 -19 -90 -41 -159 -41c-107 0 -181 53 -181 190v140h90v-110c0 -115 41 -140 117 -140c43 0 88 8 133 41v209z" />
    <glyph glyph-name="uni04CE" unicode="&#x4ce;" horiz-adv-x="725" 
d="M635 75h75l-41 -235h-65l14 160h-73v320l-170 -260h-40l-170 260v-320h-90v500h70l210 -320l210 320h70v-425z" />
    <glyph glyph-name="uni04D1" unicode="&#x4d1;" horiz-adv-x="520" 
d="M258 580c-96 0 -150 57 -160 160h60c15 -61 43 -90 100 -90s85 29 100 90h60c-10 -103 -64 -160 -160 -160zM475 63c7 0 14 1 20 2v-70c-11 -3 -25 -5 -38 -5c-64 0 -99 45 -106 86c-40 -52 -91 -86 -164 -86c-89 0 -152 50 -152 135c0 105 89 176 259 176
c20 0 32 -1 46 -2v16c0 90 -42 120 -110 120c-52 0 -103 -17 -145 -40v85c41 17 96 30 155 30c91 0 185 -31 185 -185v-197c0 -39 12 -65 50 -65zM205 60c61 0 135 51 135 132v43c-17 1 -31 2 -48 2c-122 0 -162 -49 -162 -102c0 -50 33 -75 75 -75z" />
    <glyph glyph-name="uni04D3" unicode="&#x4d3;" horiz-adv-x="520" 
d="M158 615c-31 0 -57 26 -57 58c0 30 26 57 57 57s57 -27 57 -57c0 -32 -26 -58 -57 -58zM358 615c-31 0 -57 26 -57 58c0 30 26 57 57 57s57 -27 57 -57c0 -32 -26 -58 -57 -58zM475 63c7 0 14 1 20 2v-70c-11 -3 -25 -5 -38 -5c-64 0 -99 45 -106 86
c-40 -52 -91 -86 -164 -86c-89 0 -152 50 -152 135c0 105 89 176 259 176c20 0 32 -1 46 -2v16c0 90 -42 120 -110 120c-52 0 -103 -17 -145 -40v85c41 17 96 30 155 30c91 0 185 -31 185 -185v-197c0 -39 12 -65 50 -65zM205 60c61 0 135 51 135 132v43c-17 1 -31 2 -48 2
c-122 0 -162 -49 -162 -102c0 -50 33 -75 75 -75z" />
    <glyph glyph-name="uni04D7" unicode="&#x4d7;" horiz-adv-x="540" 
d="M270 580c-96 0 -150 57 -160 160h60c15 -61 43 -90 100 -90s85 29 100 90h60c-10 -103 -64 -160 -160 -160zM285 65c51 0 107 23 120 90h85c-15 -111 -105 -165 -205 -165c-130 0 -240 95 -240 260s111 260 235 260c116 0 215 -58 215 -260h-350c0 -125 60 -185 140 -185
zM280 440c-65 0 -112 -44 -129 -125h239c-4 73 -38 125 -110 125z" />
    <glyph glyph-name="uni04D9" unicode="&#x4d9;" horiz-adv-x="540" 
d="M270 510c130 0 230 -95 230 -260s-106 -260 -230 -260c-116 0 -220 58 -220 260h350c0 125 -50 185 -130 185c-61 0 -117 -28 -130 -100h-85c15 116 105 175 215 175zM270 60c65 0 109 44 124 125h-239c4 -73 43 -125 115 -125z" />
    <glyph glyph-name="uni04DB" unicode="&#x4db;" horiz-adv-x="540" 
d="M175 615c-31 0 -57 26 -57 58c0 30 26 57 57 57s57 -27 57 -57c0 -32 -26 -58 -57 -58zM375 615c-31 0 -57 26 -57 58c0 30 26 57 57 57s57 -27 57 -57c0 -32 -26 -58 -57 -58zM270 510c130 0 230 -95 230 -260s-106 -260 -230 -260c-116 0 -220 58 -220 260h350
c0 125 -50 185 -130 185c-61 0 -117 -28 -130 -100h-85c15 116 105 175 215 175zM270 60c65 0 109 44 124 125h-239c4 -73 43 -125 115 -125z" />
    <glyph glyph-name="uni04DD" unicode="&#x4dd;" horiz-adv-x="820" 
d="M310 615c-31 0 -57 26 -57 58c0 30 26 57 57 57s57 -27 57 -57c0 -32 -26 -58 -57 -58zM510 615c-31 0 -57 26 -57 58c0 30 26 57 57 57s57 -27 57 -57c0 -32 -26 -58 -57 -58zM763 63c11 0 16 1 22 2v-65c-19 -7 -37 -10 -63 -10c-65 0 -95 42 -110 115l-12 59
c-9 44 -38 66 -95 66h-55v-230h-80v230h-55c-57 0 -86 -22 -95 -66l-12 -59c-15 -73 -45 -115 -110 -115c-26 0 -44 3 -63 10v65c6 -1 11 -2 22 -2c33 0 49 16 56 52l10 51c10 51 37 89 82 104c-45 15 -68 35 -77 79l-7 36c-9 45 -27 52 -58 52c-12 0 -16 -1 -23 -2v65
c11 5 30 10 51 10c74 0 111 -36 122 -110l5 -34c6 -43 35 -61 97 -61h55v195h80v-195h55c62 0 91 18 97 61l5 34c11 74 48 110 122 110c21 0 40 -5 51 -10v-65c-7 1 -11 2 -23 2c-31 0 -49 -7 -58 -52l-7 -36c-9 -44 -32 -64 -77 -79c45 -15 72 -53 82 -104l10 -51
c7 -36 23 -52 56 -52z" />
    <glyph glyph-name="uni04DF" unicode="&#x4df;" horiz-adv-x="471" 
d="M119 615c-31 0 -57 26 -57 58c0 30 26 57 57 57s57 -27 57 -57c0 -32 -26 -58 -57 -58zM319 615c-31 0 -57 26 -57 58c0 30 26 57 57 57s57 -27 57 -57c0 -32 -26 -58 -57 -58zM332 251c65 -25 94 -68 94 -121c0 -90 -81 -140 -205 -140c-64 0 -135 13 -176 30v85
c42 -20 99 -40 171 -40c69 0 115 25 115 75s-40 80 -160 80v55v10c120 0 150 19 150 74c0 51 -40 76 -105 76c-67 0 -117 -19 -161 -40v85c41 17 97 30 166 30c130 0 195 -55 195 -141c0 -49 -24 -92 -84 -118z" />
    <glyph glyph-name="uni04E1" unicode="&#x4e1;" horiz-adv-x="485" 
d="M235 228c144 -24 215 -114 215 -228c0 -140 -110 -230 -254 -230c-59 0 -130 13 -171 30v85c42 -20 99 -40 161 -40c94 0 169 55 169 155s-64 170 -204 170h-60v30l199 225h-265v75h395v-55z" />
    <glyph glyph-name="uni04E3" unicode="&#x4e3;" horiz-adv-x="590" 
d="M460 700v-70h-320v70h320zM445 500h70v-500h-90v360l-280 -360h-70v500h90v-360z" />
    <glyph glyph-name="uni04E5" unicode="&#x4e5;" horiz-adv-x="590" 
d="M200 615c-31 0 -57 26 -57 58c0 30 26 57 57 57s57 -27 57 -57c0 -32 -26 -58 -57 -58zM400 615c-31 0 -57 26 -57 58c0 30 26 57 57 57s57 -27 57 -57c0 -32 -26 -58 -57 -58zM445 500h70v-500h-90v360l-280 -360h-70v500h90v-360z" />
    <glyph glyph-name="uni04E7" unicode="&#x4e7;" horiz-adv-x="570" 
d="M185 615c-31 0 -57 26 -57 58c0 30 26 57 57 57s57 -27 57 -57c0 -32 -26 -58 -57 -58zM385 615c-31 0 -57 26 -57 58c0 30 26 57 57 57s57 -27 57 -57c0 -32 -26 -58 -57 -58zM285 510c130 0 240 -95 240 -260s-110 -260 -240 -260s-240 95 -240 260s110 260 240 260z
M285 65c80 0 140 60 140 185s-60 185 -140 185s-140 -60 -140 -185s60 -185 140 -185z" />
    <glyph glyph-name="uni04E9" unicode="&#x4e9;" horiz-adv-x="570" 
d="M285 510c130 0 240 -95 240 -260s-110 -260 -240 -260s-240 95 -240 260s110 260 240 260zM285 435c-71 0 -130 -47 -143 -145h286c-13 98 -72 145 -143 145zM285 65c74 0 136 52 144 160h-288c8 -108 70 -160 144 -160z" />
    <glyph glyph-name="uni04EB" unicode="&#x4eb;" horiz-adv-x="570" 
d="M185 615c-31 0 -57 26 -57 58c0 30 26 57 57 57s57 -27 57 -57c0 -32 -26 -58 -57 -58zM385 615c-31 0 -57 26 -57 58c0 30 26 57 57 57s57 -27 57 -57c0 -32 -26 -58 -57 -58zM285 510c130 0 240 -95 240 -260s-110 -260 -240 -260s-240 95 -240 260s110 260 240 260z
M285 435c-71 0 -130 -47 -143 -145h286c-13 98 -72 145 -143 145zM285 65c74 0 136 52 144 160h-288c8 -108 70 -160 144 -160z" />
    <glyph glyph-name="uni04ED" unicode="&#x4ed;" horiz-adv-x="510" 
d="M135 615c-31 0 -57 26 -57 58c0 30 26 57 57 57s57 -27 57 -57c0 -32 -26 -58 -57 -58zM335 615c-31 0 -57 26 -57 58c0 30 26 57 57 57s57 -27 57 -57c0 -32 -26 -58 -57 -58zM245 510c130 0 230 -95 230 -260s-100 -260 -230 -260c-100 0 -200 59 -215 175h85
c13 -72 74 -100 130 -100c74 0 127 52 134 160h-204v65h203c-11 98 -62 145 -133 145c-56 0 -117 -28 -130 -100h-85c15 116 115 175 215 175z" />
    <glyph glyph-name="uni04EF" unicode="&#x4ef;" horiz-adv-x="500" 
d="M93 630v70h320v-70h-320zM395 500h100l-203 -500c-56 -135 -129 -230 -258 -230v85c82 0 136 67 175 163l-204 482h105l147 -375z" />
    <glyph glyph-name="uni04F1" unicode="&#x4f1;" horiz-adv-x="500" 
d="M153 615c-31 0 -57 26 -57 58c0 30 26 57 57 57s57 -27 57 -57c0 -32 -26 -58 -57 -58zM353 615c-31 0 -57 26 -57 58c0 30 26 57 57 57s57 -27 57 -57c0 -32 -26 -58 -57 -58zM395 500h100l-203 -500c-56 -135 -129 -230 -258 -230v85c82 0 136 67 175 163l-204 482h105
l147 -375z" />
    <glyph glyph-name="uni04F3" unicode="&#x4f3;" horiz-adv-x="500" 
d="M133 580l90 160h110l-130 -160h-70zM303 580l90 160h110l-130 -160h-70zM395 500h100l-203 -500c-56 -135 -129 -230 -258 -230v85c82 0 136 67 175 163l-204 482h105l147 -375z" />
    <glyph glyph-name="uni04F5" unicode="&#x4f5;" horiz-adv-x="550" 
d="M160 615c-31 0 -57 26 -57 58c0 30 26 57 57 57s57 -27 57 -57c0 -32 -26 -58 -57 -58zM360 615c-31 0 -57 26 -57 58c0 30 26 57 57 57s57 -27 57 -57c0 -32 -26 -58 -57 -58zM385 500h90v-500h-90v211c-33 -19 -90 -41 -159 -41c-107 0 -181 53 -181 190v140h90v-110
c0 -115 41 -140 117 -140c43 0 88 8 133 41v209z" />
    <glyph glyph-name="uni04F7" unicode="&#x4f7;" horiz-adv-x="460" 
d="M435 425h-270v-350h75v-235h-65l-14 160h-86v500h90h270v-75z" />
    <glyph glyph-name="uni04F9" unicode="&#x4f9;" horiz-adv-x="755" 
d="M250 615c-31 0 -57 26 -57 58c0 30 26 57 57 57s57 -27 57 -57c0 -32 -26 -58 -57 -58zM450 730c31 0 57 -27 57 -57c0 -32 -26 -58 -57 -58s-57 26 -57 58c0 30 26 57 57 57zM280 305c125 0 195 -55 195 -150c0 -100 -70 -155 -195 -155h-205v230v270h90v-195h115z
M590 500h90v-500h-90v500zM270 75c75 0 110 20 110 80c0 55 -35 75 -110 75h-105v-155h105z" />
    <glyph glyph-name="uni04FD" unicode="&#x4fd;" horiz-adv-x="556" 
d="M533 75c20 -175 -65 -245 -187 -245v75c59 0 104 19 110 95h-63l-137 187l-129 -187h-107l186 254l-181 246h110l134 -183l127 183h107l-185 -249l130 -176h85z" />
    <glyph glyph-name="uni0511" unicode="&#x511;" horiz-adv-x="471" 
d="M255 65c72 0 129 20 171 40v-85c-41 -17 -112 -30 -176 -30c-124 0 -205 50 -205 140c0 53 29 96 94 121c-60 26 -84 69 -84 118c0 86 65 141 195 141c69 0 125 -13 166 -30v-85c-44 21 -94 40 -161 40c-65 0 -105 -25 -105 -76c0 -55 30 -74 150 -74v-60v-5
c-120 0 -160 -30 -160 -80s46 -75 115 -75z" />
    <glyph glyph-name="uni0513" unicode="&#x513;" horiz-adv-x="575" 
d="M500 500v-500v-57c0 -95 -71 -173 -190 -173v75c64 0 100 33 100 113v467h-181c-5 -250 -30 -435 -167 -435c-24 0 -38 5 -47 10v65c6 -1 12 -2 17 -2c97 0 112 167 112 437h356z" />
    <glyph glyph-name="uni051D" unicode="&#x51d;" horiz-adv-x="780" 
d="M675 500h95l-175 -500h-72l-133 357l-133 -357h-75l-172 500h100l115 -375l120 345h87h3l120 -345z" />
    <glyph glyph-name="uni0449.001" horiz-adv-x="875" 
d="M785 75h75v-235h-65l-14 160h-86h-310h-300h-10v500h90v-425h220v425h90v-425h220v425h90v-425z" />
    <glyph glyph-name="uni04A4" unicode="&#x4a4;" horiz-adv-x="825" 
d="M820 700v-80h-145v-620h-95v325h-400v-325h-95v700h95v-295h400v295h95h145z" />
    <glyph glyph-name="uni04A5" unicode="&#x4a5;" horiz-adv-x="685" 
d="M660 500v-75h-145v-425h-90v230h-260v-230h-90v500h90v-195h260v195h90h145z" />
    <glyph glyph-name="uni04B4" unicode="&#x4b4;" horiz-adv-x="860" 
d="M845 80v-240h-75l-13 160h-452h-95v620h-195v80h290h195v-80h-195v-540h360v620h95v-620h85z" />
    <glyph glyph-name="uni04B5" unicode="&#x4b5;" horiz-adv-x="675" 
d="M660 75v-235h-65l-14 160h-336h-90v425h-130v75h220h130v-75h-130v-350h250v425h90v-425h75z" />
    <glyph glyph-name="uni04D4" unicode="&#x4d4;" horiz-adv-x="975" 
d="M545 80h375v-80h-460h-10v190h-258l-77 -190h-100l287 700h158h85h365v-80h-365v-215h335v-80h-335v-245zM225 270h225v350h-83z" />
    <glyph glyph-name="uni04D5" unicode="&#x4d5;" horiz-adv-x="836" 
d="M581 65c51 0 107 23 120 90h85c-15 -111 -105 -165 -205 -165c-84 0 -160 40 -203 113c-37 -63 -100 -113 -192 -113c-87 0 -151 50 -151 135c0 112 100 185 305 175v15c0 90 -43 120 -111 120c-52 0 -102 -21 -144 -40v85c41 17 96 30 155 30c64 0 130 -15 163 -78
c44 51 106 78 173 78c116 0 215 -58 215 -260h-350c0 -125 60 -185 140 -185zM576 440c-65 0 -112 -44 -129 -125h239c-4 73 -38 125 -110 125zM205 60c61 0 135 51 135 132v43c-162 10 -210 -41 -210 -100c0 -50 33 -75 75 -75z" />
    <glyph glyph-name="Alpha" unicode="&#x391;" horiz-adv-x="674" 
d="M554 0l-73 190h-295l-71 -190h-100l267 700h105l272 -700h-105zM216 270h235l-119 311z" />
    <glyph glyph-name="Beta" unicode="&#x392;" horiz-adv-x="670" 
d="M478 369c83 -24 147 -77 147 -179c0 -127 -112 -190 -245 -190h-285h-10v700h95h170c133 0 240 -58 240 -185c0 -66 -45 -118 -112 -146zM330 620h-150v-215h170c94 0 140 38 140 100c0 77 -56 115 -160 115zM360 80c104 0 160 28 160 115c0 92 -56 130 -170 130h-170
v-245h180z" />
    <glyph glyph-name="Gamma" unicode="&#x393;" horiz-adv-x="545" 
d="M530 700v-80h-350v-620h-95v700h95h350z" />
    <glyph glyph-name="uni0394" unicode="&#x394;" horiz-adv-x="674" 
d="M387 700l272 -700h-105h-459h-80l267 700h105zM145 80h378l-191 501z" />
    <glyph glyph-name="Epsilon" unicode="&#x395;" horiz-adv-x="615" 
d="M185 80h375v-80h-460h-10v700h95h365v-80h-365v-215h335v-80h-335v-245z" />
    <glyph glyph-name="Zeta" unicode="&#x396;" horiz-adv-x="600" 
d="M158 80h417v-80h-550v60l407 560h-387v80h520v-60z" />
    <glyph glyph-name="Eta" unicode="&#x397;" horiz-adv-x="760" 
d="M580 700h95v-700h-95v325h-400v-325h-95v700h95v-295h400v295z" />
    <glyph glyph-name="Theta" unicode="&#x398;" horiz-adv-x="750" 
d="M375 710c194 0 325 -140 325 -360s-131 -360 -325 -360s-325 140 -325 360s131 360 325 360zM375 70c134 0 225 106 225 280s-91 280 -225 280s-225 -106 -225 -280s91 -280 225 -280zM242 322v70h267v-70h-267z" />
    <glyph glyph-name="Iota" unicode="&#x399;" horiz-adv-x="275" 
d="M90 700h95v-700h-95v700z" />
    <glyph glyph-name="Kappa" unicode="&#x39a;" horiz-adv-x="665" 
d="M85 0v700h95v-700h-95zM351 368l314 -368h-115l-317 363l302 337h110z" />
    <glyph glyph-name="Lambda" unicode="&#x39b;" horiz-adv-x="674" 
d="M387 700l272 -700h-105l-222 581l-217 -581h-100l267 700h105z" />
    <glyph glyph-name="Mu" unicode="&#x39c;" horiz-adv-x="870" 
d="M710 700h80v-700h-95v475l-240 -409h-40l-240 409v-475h-95v700h80l275 -484z" />
    <glyph glyph-name="Nu" unicode="&#x39d;" horiz-adv-x="770" 
d="M590 700h95v-700h-75l-430 522v-522h-95v700h75l430 -522v522z" />
    <glyph glyph-name="Xi" unicode="&#x39e;" horiz-adv-x="640" 
d="M55 620v80h530v-80h-530zM155 325v80h330v-80h-330zM55 0v80h530v-80h-530z" />
    <glyph glyph-name="Omicron" unicode="&#x39f;" horiz-adv-x="750" 
d="M375 710c194 0 325 -140 325 -360s-131 -360 -325 -360s-325 140 -325 360s131 360 325 360zM375 70c129 0 220 106 220 280s-91 280 -220 280s-220 -106 -220 -280s91 -280 220 -280z" />
    <glyph glyph-name="Pi" unicode="&#x3a0;" horiz-adv-x="740" 
d="M85 0v700h570v-700h-95v620h-380v-620h-95z" />
    <glyph glyph-name="Rho" unicode="&#x3a1;" horiz-adv-x="615" 
d="M335 700c133 0 250 -68 250 -215s-117 -215 -250 -215h-150v-270h-95v700h95h150zM315 350c104 0 170 38 170 135s-66 135 -170 135h-130v-270h130z" />
    <glyph glyph-name="Sigma" unicode="&#x3a3;" horiz-adv-x="580" 
d="M170 80h385v-80h-530v40l242 320l-242 300v40h520v-80h-370l210 -260z" />
    <glyph glyph-name="Tau" unicode="&#x3a4;" horiz-adv-x="595" 
d="M580 700v-80h-235v-620h-95v620h-235v80h330h235z" />
    <glyph glyph-name="Upsilon" unicode="&#x3a5;" horiz-adv-x="645" 
d="M630 700l-259 -403v-297h-95v296l-261 404h110l203 -320l197 320h105z" />
    <glyph glyph-name="Phi" unicode="&#x3a6;" horiz-adv-x="765" 
d="M425 650c160 -5 290 -115 290 -280s-130 -275 -290 -280v-110h-85v110c-160 5 -290 115 -290 280s130 275 290 280v100h85v-100zM340 165v410c-105 -5 -185 -80 -185 -205s80 -200 185 -205zM425 165c105 5 185 80 185 205s-80 200 -185 205v-410z" />
    <glyph glyph-name="Chi" unicode="&#x3a7;" horiz-adv-x="647" 
d="M632 0h-115l-200 285l-189 -285h-113l249 360l-239 340h115l187 -266l175 266h110l-232 -341z" />
    <glyph glyph-name="Psi" unicode="&#x3a8;" horiz-adv-x="735" 
d="M610 700h95v-230c0 -165 -125 -255 -295 -260v-210h-85v210c-170 5 -295 95 -295 260v230h95v-230c0 -125 85 -180 200 -185v415h85v-415c115 5 200 60 200 185v230z" />
    <glyph glyph-name="uni03A9" unicode="&#x3a9;" horiz-adv-x="800" 
d="M579 74l171 6v-80h-290v70c99 40 170 156 170 300c0 164 -91 260 -230 260s-230 -96 -230 -260c0 -144 71 -260 170 -300v-70h-290v80l171 -6c-90 57 -156 161 -156 296c0 200 141 340 335 340s335 -140 335 -340c0 -135 -66 -239 -156 -296z" />
    <glyph glyph-name="Alphatonos" unicode="&#x386;" horiz-adv-x="674" 
d="M554 0l-73 190h-295l-71 -190h-100l267 700h105l272 -700h-105zM222 700l-80 -160h-65l40 160h105zM216 270h235l-119 311z" />
    <glyph glyph-name="Epsilontonos" unicode="&#x388;" horiz-adv-x="725" 
d="M15 540l40 160h105l-80 -160h-65zM295 80h375v-80h-460h-10v700h95h365v-80h-365v-215h335v-80h-335v-245z" />
    <glyph glyph-name="Etatonos" unicode="&#x389;" horiz-adv-x="880" 
d="M15 540l40 160h105l-80 -160h-65zM700 700h95v-700h-95v325h-400v-325h-95v700h95v-295h400v295z" />
    <glyph glyph-name="Iotatonos" unicode="&#x38a;" horiz-adv-x="385" 
d="M15 540l40 160h105l-80 -160h-65zM200 700h95v-700h-95v700z" />
    <glyph glyph-name="Omicrontonos" unicode="&#x38c;" horiz-adv-x="750" 
d="M375 710c194 0 325 -140 325 -360s-131 -360 -325 -360s-325 140 -325 360s131 360 325 360zM-50 540l40 160h105l-80 -160h-65zM375 70c129 0 220 106 220 280s-91 280 -220 280s-220 -106 -220 -280s91 -280 220 -280z" />
    <glyph glyph-name="Upsilontonos" unicode="&#x38e;" horiz-adv-x="645" 
d="M-154 540l40 160h105l-80 -160h-65zM630 700l-259 -403v-297h-95v296l-261 404h110l203 -320l197 320h105z" />
    <glyph glyph-name="Omegatonos" unicode="&#x38f;" horiz-adv-x="800" 
d="M579 74l171 6v-80h-290v70c99 40 170 156 170 300c0 164 -91 260 -230 260s-230 -96 -230 -260c0 -144 71 -260 170 -300v-70h-290v80l171 -6c-90 57 -156 161 -156 296c0 200 141 340 335 340s335 -140 335 -340c0 -135 -66 -239 -156 -296zM-10 700h105l-80 -160h-65z
" />
    <glyph glyph-name="Iotadieresis" unicode="&#x3aa;" horiz-adv-x="275" 
d="M38 775c-31 0 -57 26 -57 58c0 30 26 57 57 57s57 -27 57 -57c0 -32 -26 -58 -57 -58zM238 775c-31 0 -57 26 -57 58c0 30 26 57 57 57s57 -27 57 -57c0 -32 -26 -58 -57 -58zM90 700h95v-700h-95v700z" />
    <glyph glyph-name="Upsilondieresis" unicode="&#x3ab;" horiz-adv-x="645" 
d="M223 775c-31 0 -57 26 -57 58c0 30 26 57 57 57s57 -27 57 -57c0 -32 -26 -58 -57 -58zM423 775c-31 0 -57 26 -57 58c0 30 26 57 57 57s57 -27 57 -57c0 -32 -26 -58 -57 -58zM630 700l-259 -403v-297h-95v296l-261 404h110l203 -320l197 320h105z" />
    <glyph glyph-name="alpha" unicode="&#x3b1;" horiz-adv-x="605" 
d="M560 63c7 0 14 1 20 2v-70c-11 -3 -26 -5 -37 -5c-57 0 -104 34 -115 82c-38 -53 -89 -82 -158 -82c-120 0 -225 95 -225 260s105 260 225 260c67 0 118 -28 155 -78v68h85v-372c0 -39 12 -65 50 -65zM280 65c75 0 145 60 145 185s-70 185 -145 185s-135 -60 -135 -185
s60 -185 135 -185z" />
    <glyph glyph-name="beta" unicode="&#x3b2;" horiz-adv-x="590" 
d="M402 396c88 -33 143 -99 143 -191c0 -140 -106 -215 -223 -215c-72 0 -120 28 -157 78v-68c0 -73 0 -147 20 -220h-90c-20 73 -20 147 -20 220v542c0 135 97 208 214 208c112 0 214 -68 214 -188c0 -75 -37 -133 -101 -166zM315 65c68 0 130 40 130 140
c0 96 -59 149 -186 149v65v10c107 0 154 52 154 133c0 71 -52 113 -124 113c-77 0 -124 -47 -124 -148v-277c0 -124 67 -185 150 -185z" />
    <glyph glyph-name="gamma" unicode="&#x3b3;" horiz-adv-x="501" 
d="M496 500c0 -167 -64 -333 -188 -500c1 -80 -5 -150 -17 -220h-90c12 70 17 140 16 220c-2 178 -99 363 -212 500h105c83 -105 154 -240 179 -395c82 115 117 260 117 395h90z" />
    <glyph glyph-name="delta" unicode="&#x3b4;" horiz-adv-x="570" 
d="M220 618c0 -120 305 -105 305 -388c0 -145 -110 -240 -240 -240s-240 95 -240 240c0 128 74 198 164 239c-47 29 -84 66 -84 132c0 95 78 149 174 149c54 0 100 -13 141 -30v-80c-44 21 -94 40 -141 40c-53 0 -79 -28 -79 -62zM285 65c80 0 140 60 140 165
c0 112 -69 158 -140 197c-107 -40 -140 -106 -140 -197c0 -105 60 -165 140 -165z" />
    <glyph glyph-name="epsilon" unicode="&#x3b5;" horiz-adv-x="471" 
d="M255 65c72 0 129 20 171 40v-85c-41 -17 -112 -30 -176 -30c-124 0 -205 50 -205 140c0 53 29 96 94 121c-60 26 -84 69 -84 118c0 86 65 141 195 141c69 0 125 -13 166 -30v-85c-44 21 -94 40 -161 40c-65 0 -105 -25 -105 -76c0 -55 30 -74 150 -74v-60v-5
c-120 0 -160 -30 -160 -80s46 -75 115 -75z" />
    <glyph glyph-name="zeta" unicode="&#x3b6;" horiz-adv-x="460" 
d="M445 645c-180 -140 -300 -260 -300 -405c0 -239 300 -87 300 -315c0 -45 -14 -83 -49 -120h-80c30 37 49 75 49 110c0 149 -320 26 -320 305c0 175 160 315 280 415l-270 -10v75h390v-55z" />
    <glyph glyph-name="eta" unicode="&#x3b7;" horiz-adv-x="590" 
d="M515 0c0 -73 0 -147 20 -220h-90c-20 73 -20 147 -20 220v300c0 105 -51 130 -110 130c-65 0 -150 -45 -150 -193v-237h-90v500h90v-81c29 44 81 91 169 91c105 0 181 -53 181 -190v-320z" />
    <glyph glyph-name="theta" unicode="&#x3b8;" horiz-adv-x="580" 
d="M290 750c130 0 240 -112 240 -380s-110 -380 -240 -380s-240 112 -240 380s110 380 240 380zM290 675c-79 0 -141 -80 -149 -265h298c-8 185 -70 265 -149 265zM290 65c82 0 145 85 150 280h-300c5 -195 68 -280 150 -280z" />
    <glyph glyph-name="iota" unicode="&#x3b9;" horiz-adv-x="270" 
d="M222 63c7 0 14 1 23 2v-70c-14 -3 -30 -5 -44 -5c-86 0 -126 55 -126 148v362h90v-362c0 -48 12 -75 57 -75z" />
    <glyph glyph-name="kappa" unicode="&#x3ba;" horiz-adv-x="535" 
d="M75 0v500h90v-500h-90zM311 270l209 -270h-110l-205 265l188 235h107z" />
    <glyph glyph-name="lambda" unicode="&#x3bb;" horiz-adv-x="541" 
d="M512 63c4 0 10 1 14 2v-70c-10 -3 -23 -5 -33 -5c-80 0 -117 69 -153 167l-78 213l-147 -370h-100l204 482c-39 96 -93 163 -175 163v85c129 0 207 -95 263 -230l130 -343c23 -60 41 -94 75 -94z" />
    <glyph glyph-name="uni03BC" unicode="&#x3bc;" horiz-adv-x="580" 
d="M415 500h90v-500h-90v81c-29 -44 -81 -91 -164 -91c-31 0 -61 6 -86 20v-10c0 -73 0 -147 20 -220h-90c-20 73 -20 147 -20 220v500h90v-290c0 -105 51 -140 105 -140c60 0 145 45 145 193v237z" />
    <glyph glyph-name="nu" unicode="&#x3bd;" horiz-adv-x="500" 
d="M395 500h90c0 -167 -64 -333 -188 -500h-75l-217 500h105l160 -390c82 115 125 255 125 390z" />
    <glyph glyph-name="xi" unicode="&#x3be;" horiz-adv-x="460" 
d="M445 645c-223 -14 -261 -89 -261 -145c0 -71 70 -103 185 -100c12 1 24 2 36 2v-75c-200 0 -260 -52 -260 -127c0 -179 300 -47 300 -275c0 -45 -14 -83 -49 -120h-80c30 37 49 75 49 110c0 149 -320 26 -320 275c0 81 47 142 148 178c-67 27 -99 67 -99 122
c0 60 39 112 128 141l-167 -6v75h390v-55z" />
    <glyph glyph-name="omicron" unicode="&#x3bf;" horiz-adv-x="570" 
d="M285 510c130 0 240 -95 240 -260s-110 -260 -240 -260s-240 95 -240 260s110 260 240 260zM285 65c80 0 140 60 140 185s-60 185 -140 185s-140 -60 -140 -185s60 -185 140 -185z" />
    <glyph glyph-name="pi" unicode="&#x3c0;" horiz-adv-x="585" 
d="M517 63c7 0 14 1 23 2v-70c-14 -3 -30 -5 -44 -5c-86 0 -126 55 -126 148v287h-176c-3 -142 -18 -283 -69 -425h-90c51 142 73 283 79 425h-79v75h160h265h70v-75h-70v-287c0 -48 12 -75 57 -75z" />
    <glyph glyph-name="rho" unicode="&#x3c1;" horiz-adv-x="590" 
d="M320 510c135 0 225 -95 225 -260s-105 -260 -225 -260c-67 0 -118 28 -155 78v-288h-90v470c0 165 100 260 245 260zM310 65c75 0 135 60 135 185s-55 185 -135 185s-145 -60 -145 -185s70 -185 145 -185z" />
    <glyph glyph-name="uni03C2" unicode="&#x3c2;" horiz-adv-x="520" 
d="M140 270c0 -249 345 -117 345 -345c0 -45 -14 -83 -49 -120h-80c30 37 49 75 49 110c0 154 -365 36 -365 355c0 155 110 240 240 240c100 0 190 -59 205 -175h-85c-13 72 -69 100 -120 100c-80 0 -140 -50 -140 -165z" />
    <glyph glyph-name="sigma" unicode="&#x3c3;" horiz-adv-x="590" 
d="M565 500v-75h-126c53 -36 86 -101 86 -195c0 -145 -110 -240 -240 -240s-240 95 -240 260s110 250 240 250h280zM425 250c0 125 -60 175 -140 175s-140 -50 -140 -175s60 -185 140 -185s140 60 140 185z" />
    <glyph glyph-name="tau" unicode="&#x3c4;" horiz-adv-x="450" 
d="M425 425h-165v-287c0 -48 12 -75 57 -75c7 0 14 1 23 2v-70c-14 -3 -30 -5 -44 -5c-86 0 -126 55 -126 148v287h-145v75h235h165v-75z" />
    <glyph glyph-name="upsilon" unicode="&#x3c5;" horiz-adv-x="565" 
d="M460 500c35 -93 50 -180 50 -280c0 -167 -87 -230 -220 -230c-128 0 -215 63 -215 210v80c0 73 0 147 -20 220h90c20 -73 20 -147 20 -220v-60c0 -105 41 -150 125 -150c89 0 130 45 130 170c0 93 -20 167 -60 260h100z" />
    <glyph glyph-name="phi" unicode="&#x3c6;" horiz-adv-x="740" 
d="M495 510c120 0 200 -105 200 -240c0 -185 -140 -275 -290 -280v-210h-80v210c-150 5 -280 95 -280 270c0 155 130 250 240 250v-70c-65 -5 -145 -60 -145 -180c0 -140 80 -195 185 -200v260c0 135 75 190 170 190zM405 60c105 5 195 60 195 210c0 100 -40 170 -115 170
c-40 0 -80 -25 -80 -120v-260z" />
    <glyph glyph-name="chi" unicode="&#x3c7;" horiz-adv-x="550" 
d="M510 -154c6 0 13 1 20 3v-70c-15 -6 -31 -9 -47 -9c-40 0 -80 19 -100 58l-116 227l-132 -275h-95l181 366l-121 236c-19 37 -31 57 -59 57c-6 0 -13 -1 -21 -3v70c12 2 27 4 42 4c43 0 82 -18 105 -63l121 -238l132 291h95l-182 -379l117 -228c16 -32 36 -47 60 -47z
" />
    <glyph glyph-name="psi" unicode="&#x3c8;" horiz-adv-x="730" 
d="M635 500c35 -93 50 -172 50 -250c0 -185 -125 -255 -290 -260v-210h-80v210c-145 5 -270 75 -270 240v270h95v-270c0 -130 75 -165 175 -170v640h80v-640c120 5 195 40 195 190c0 78 -15 157 -55 250h100z" />
    <glyph glyph-name="omega" unicode="&#x3c9;" horiz-adv-x="790" 
d="M695 500c35 -93 50 -180 50 -280c0 -167 -87 -230 -190 -230c-62 0 -125 28 -161 90c-38 -62 -104 -90 -159 -90c-103 0 -190 63 -190 230c0 100 15 187 50 280h100c-40 -93 -60 -167 -60 -260c0 -125 41 -170 110 -170s110 45 110 150c0 43 0 77 -10 150h80h20
c-10 -73 -10 -107 -10 -150c0 -105 41 -150 110 -150s110 45 110 170c0 93 -20 167 -60 260h100z" />
    <glyph glyph-name="iotatonos" unicode="&#x3af;" horiz-adv-x="270" 
d="M236 740l-80 -160h-65l40 160h105zM222 63c7 0 14 1 23 2v-70c-14 -3 -30 -5 -44 -5c-86 0 -126 55 -126 148v362h90v-362c0 -48 12 -75 57 -75z" />
    <glyph glyph-name="iotadieresis" unicode="&#x3ca;" horiz-adv-x="270" 
d="M21 730c31 0 57 -27 57 -57c0 -32 -26 -58 -57 -58s-57 26 -57 58c0 30 26 57 57 57zM221 730c31 0 57 -27 57 -57c0 -32 -26 -58 -57 -58s-57 26 -57 58c0 30 26 57 57 57zM165 138c0 -48 12 -75 57 -75c7 0 14 1 23 2v-70c-14 -3 -30 -5 -44 -5c-86 0 -126 55 -126 148
v362h90v-362z" />
    <glyph glyph-name="iotadieresistonos" unicode="&#x390;" horiz-adv-x="270" 
d="M213 765l-70 -160h-65l40 160h95zM10 730c31 0 57 -27 57 -57c0 -32 -26 -58 -57 -58s-57 26 -57 58c0 30 26 57 57 57zM260 730c31 0 57 -27 57 -57c0 -32 -26 -58 -57 -58s-57 26 -57 58c0 30 26 57 57 57zM165 138c0 -48 12 -75 57 -75c7 0 14 1 23 2v-70
c-14 -3 -30 -5 -44 -5c-86 0 -126 55 -126 148v362h90v-362z" />
    <glyph glyph-name="upsilontonos" unicode="&#x3cd;" horiz-adv-x="565" 
d="M375 740l-80 -160h-65l40 160h105zM460 500c35 -93 50 -180 50 -280c0 -167 -87 -230 -220 -230c-128 0 -215 63 -215 210v80c0 73 0 147 -20 220h90c20 -73 20 -147 20 -220v-60c0 -105 41 -150 125 -150c89 0 130 45 130 170c0 93 -20 167 -60 260h100z" />
    <glyph glyph-name="upsilondieresis" unicode="&#x3cb;" horiz-adv-x="565" 
d="M160 615c-31 0 -57 26 -57 58c0 30 26 57 57 57s57 -27 57 -57c0 -32 -26 -58 -57 -58zM360 615c-31 0 -57 26 -57 58c0 30 26 57 57 57s57 -27 57 -57c0 -32 -26 -58 -57 -58zM460 500c35 -93 50 -180 50 -280c0 -167 -87 -230 -220 -230c-128 0 -215 63 -215 210v80
c0 73 0 147 -20 220h90c20 -73 20 -147 20 -220v-60c0 -105 41 -150 125 -150c89 0 130 45 130 170c0 93 -20 167 -60 260h100z" />
    <glyph glyph-name="upsilondieresistonos" unicode="&#x3b0;" horiz-adv-x="565" 
d="M352 765l-70 -160h-65l40 160h95zM149 615c-31 0 -57 26 -57 58c0 30 26 57 57 57s57 -27 57 -57c0 -32 -26 -58 -57 -58zM399 615c-31 0 -57 26 -57 58c0 30 26 57 57 57s57 -27 57 -57c0 -32 -26 -58 -57 -58zM460 500c35 -93 50 -180 50 -280
c0 -167 -87 -230 -220 -230c-128 0 -215 63 -215 210v80c0 73 0 147 -20 220h90c20 -73 20 -147 20 -220v-60c0 -105 41 -150 125 -150c89 0 130 45 130 170c0 93 -20 167 -60 260h100z" />
    <glyph glyph-name="omicrontonos" unicode="&#x3cc;" horiz-adv-x="570" 
d="M255 580l40 160h105l-80 -160h-65zM285 510c130 0 240 -95 240 -260s-110 -260 -240 -260s-240 95 -240 260s110 260 240 260zM285 65c80 0 140 60 140 185s-60 185 -140 185s-140 -60 -140 -185s60 -185 140 -185z" />
    <glyph glyph-name="omegatonos" unicode="&#x3ce;" horiz-adv-x="790" 
d="M510 740l-80 -160h-65l40 160h105zM695 500c35 -93 50 -180 50 -280c0 -167 -87 -230 -190 -230c-62 0 -125 28 -161 90c-38 -62 -104 -90 -159 -90c-103 0 -190 63 -190 230c0 100 15 187 50 280h100c-40 -93 -60 -167 -60 -260c0 -125 41 -170 110 -170s110 45 110 150
c0 43 0 77 -10 150h80h20c-10 -73 -10 -107 -10 -150c0 -105 41 -150 110 -150s110 45 110 170c0 93 -20 167 -60 260h100z" />
    <glyph glyph-name="alphatonos" unicode="&#x3ac;" horiz-adv-x="605" 
d="M405 740l-80 -160h-65l40 160h105zM560 63c7 0 14 1 20 2v-70c-11 -3 -26 -5 -37 -5c-57 0 -104 34 -115 82c-38 -53 -89 -82 -158 -82c-120 0 -225 95 -225 260s105 260 225 260c67 0 118 -28 155 -78v68h85v-372c0 -39 12 -65 50 -65zM280 65c75 0 145 60 145 185
s-70 185 -145 185s-135 -60 -135 -185s60 -185 135 -185z" />
    <glyph glyph-name="epsilontonos" unicode="&#x3ad;" horiz-adv-x="471" 
d="M367 740l-80 -160h-65l40 160h105zM255 65c72 0 129 20 171 40v-85c-41 -17 -112 -30 -176 -30c-124 0 -205 50 -205 140c0 53 29 96 94 121c-60 26 -84 69 -84 118c0 86 65 141 195 141c69 0 125 -13 166 -30v-85c-44 21 -94 40 -161 40c-65 0 -105 -25 -105 -76
c0 -55 30 -74 150 -74v-60v-5c-120 0 -160 -30 -160 -80s46 -75 115 -75z" />
    <glyph glyph-name="etatonos" unicode="&#x3ae;" horiz-adv-x="1180" 
d="M410 740l-80 -160h-65l40 160h105zM515 0c0 -73 0 -147 20 -220h-90c-20 73 -20 147 -20 220v300c0 105 -51 130 -110 130c-65 0 -150 -45 -150 -193v-237h-90v500h90v-81c29 44 81 91 169 91c105 0 181 -53 181 -190v-320z" />
    <glyph glyph-name="zero" unicode="0" horiz-adv-x="610" 
d="M305 710c159 0 250 -140 250 -360s-91 -360 -250 -360s-250 140 -250 360s91 360 250 360zM305 70c94 0 145 106 145 280s-51 280 -145 280s-145 -106 -145 -280s51 -280 145 -280z" />
    <glyph glyph-name="one" unicode="1" horiz-adv-x="510" 
d="M245 0v520c-44 -30 -111 -50 -165 -50v80c83 10 160 54 190 150h70v-700h-95z" />
    <glyph glyph-name="two" unicode="2" horiz-adv-x="605" 
d="M50 0c0 268 380 282 380 502c0 66 -34 128 -130 128s-143 -61 -145 -140h-95c0 141 102 220 240 220s230 -80 230 -208c0 -244 -335 -288 -355 -422h355v-80h-480z" />
    <glyph glyph-name="three" unicode="3" horiz-adv-x="625" 
d="M418 363c90 -26 142 -82 142 -178c0 -131 -112 -195 -250 -195c-148 0 -260 79 -260 240h100c2 -99 59 -160 160 -160c91 0 145 46 145 115c0 79 -54 135 -185 135v60v20c136 0 170 56 170 115s-34 115 -130 115s-143 -61 -145 -140h-95c0 141 102 220 240 220
s230 -64 230 -185c0 -74 -41 -132 -122 -162z" />
    <glyph glyph-name="four" unicode="4" horiz-adv-x="660" 
d="M595 256v-80h-110v-176h-95v176h-330v60l345 463h80v-443h110zM170 256h220v299z" />
    <glyph glyph-name="five" unicode="5" horiz-adv-x="610" 
d="M320 440c110 0 225 -65 225 -225c0 -161 -135 -225 -245 -225s-245 64 -245 220h100c0 -95 75 -140 145 -140s140 45 140 145s-70 145 -140 145c-60 0 -105 -16 -150 -55l-75 20l50 375h380v-80h-301l-32 -213c45 25 94 33 148 33z" />
    <glyph glyph-name="six" unicode="6" horiz-adv-x="620" 
d="M325 440c149 0 230 -100 230 -220s-81 -230 -240 -230s-250 110 -250 360c0 220 101 360 265 360c128 0 215 -79 215 -200h-95c-2 59 -39 120 -125 120c-92 0 -166 -101 -161 -267c37 48 94 77 161 77zM315 70c94 0 135 76 135 150s-41 140 -135 140s-135 -66 -135 -140
s41 -150 135 -150z" />
    <glyph glyph-name="seven" unicode="7" horiz-adv-x="575" 
d="M55 700h470v-40c-142 -220 -233 -440 -265 -660h-100c37 207 108 413 245 620h-350v80z" />
    <glyph glyph-name="eight" unicode="8" horiz-adv-x="610" 
d="M420 366c74 -32 130 -87 130 -181c0 -115 -94 -195 -245 -195s-245 80 -245 195c0 94 56 149 130 181c-63 26 -110 75 -110 164c0 100 84 180 225 180s225 -80 225 -180c0 -89 -47 -138 -110 -164zM180 515c0 -70 50 -115 125 -115s125 45 125 115s-50 115 -125 115
s-125 -45 -125 -115zM305 70c84 0 140 55 140 130s-56 130 -140 130s-140 -55 -140 -130s56 -130 140 -130z" />
    <glyph glyph-name="nine" unicode="9" horiz-adv-x="620" 
d="M305 710c159 0 250 -110 250 -360c0 -220 -81 -360 -255 -360c-128 0 -225 79 -225 200h95c2 -59 49 -120 135 -120c106 0 157 101 151 267c-37 -48 -94 -77 -161 -77c-149 0 -230 100 -230 220s81 230 240 230zM305 340c94 0 135 66 135 140s-41 150 -135 150
s-135 -76 -135 -150s41 -140 135 -140z" />
    <glyph glyph-name="fraction" unicode="&#x2044;" horiz-adv-x="648" 
d="M524 754l49 -29l-450 -779l-48 29z" />
    <glyph glyph-name="onehalf" unicode="&#xbd;" horiz-adv-x="1008" 
d="M679 754l49 -29l-450 -779l-48 29zM177 266v323c-27 -19 -69 -31 -102 -31v50c51 6 99 33 118 93h43v-435h-59zM635 0c0 166 236 175 236 312c0 41 -21 79 -81 79c-59 0 -89 -38 -90 -87h-59c0 88 64 137 149 137c86 0 143 -50 143 -129c0 -152 -208 -179 -220 -262h220
v-50h-298z" />
    <glyph glyph-name="onequarter" unicode="&#xbc;" horiz-adv-x="1022" 
d="M679 754l49 -29l-450 -779l-48 29zM236 266h-59v323c-27 -19 -69 -31 -102 -31v50c51 6 99 33 118 93h43v-435zM947 159v-50h-68v-109h-59v109h-205v38l215 287h49v-275h68zM684 159h136v186z" />
    <glyph glyph-name="threequarters" unicode="&#xbe;" horiz-adv-x="1121" 
d="M788 754l49 -29l-450 -779l-48 29zM392 374c0 -81 -70 -121 -155 -121c-92 0 -162 49 -162 149h62c1 -62 37 -100 100 -100c56 0 90 29 90 72c0 49 -34 84 -115 84v37v12c84 0 105 35 105 72c0 36 -21 71 -80 71c-60 0 -89 -38 -91 -87h-59c0 88 64 137 150 137
c85 0 142 -40 142 -115c0 -46 -26 -82 -76 -101c56 -16 89 -51 89 -110zM1046 159v-50h-68v-109h-59v109h-205v38l215 287h49v-275h68zM783 159h136v186z" />
    <glyph glyph-name="oneeighth" unicode="&#x215b;" horiz-adv-x="1025" 
d="M679 754l49 -29l-450 -779l-48 29zM236 266h-59v323c-27 -19 -69 -31 -102 -31v50c51 6 99 33 118 93h43v-435zM869 223c46 -20 81 -54 81 -112c0 -72 -59 -121 -153 -121c-93 0 -152 49 -152 121c0 58 35 92 81 112c-39 16 -68 47 -68 102c0 62 52 112 139 112
c88 0 140 -50 140 -112c0 -55 -29 -86 -68 -102zM720 316c0 -44 31 -72 77 -72c47 0 78 28 78 72c0 43 -31 71 -78 71c-46 0 -77 -28 -77 -71zM797 39c53 0 87 35 87 81c0 47 -34 81 -87 81c-52 0 -87 -34 -87 -81c0 -46 35 -81 87 -81z" />
    <glyph glyph-name="threeeighths" unicode="&#x215c;" horiz-adv-x="1100" 
d="M764 754l49 -29l-450 -779l-48 29zM367 374c0 -81 -70 -121 -155 -121c-92 0 -162 49 -162 149h62c1 -62 37 -100 100 -100c56 0 90 29 90 72c0 49 -34 84 -115 84v37v12c84 0 105 35 105 72c0 36 -21 71 -80 71c-60 0 -89 -38 -91 -87h-59c0 88 64 137 150 137
c85 0 142 -40 142 -115c0 -46 -26 -82 -76 -101c56 -16 89 -51 89 -110zM954 223c46 -20 81 -54 81 -112c0 -72 -59 -121 -153 -121c-93 0 -152 49 -152 121c0 58 35 92 81 112c-39 16 -68 47 -68 102c0 62 52 112 139 112c88 0 140 -50 140 -112c0 -55 -29 -86 -68 -102z
M805 316c0 -44 31 -72 77 -72c47 0 78 28 78 72c0 43 -31 71 -78 71c-46 0 -77 -28 -77 -71zM882 39c53 0 87 35 87 81c0 47 -34 81 -87 81c-52 0 -87 -34 -87 -81c0 -46 35 -81 87 -81z" />
    <glyph glyph-name="fiveeighths" unicode="&#x215d;" horiz-adv-x="1099" 
d="M764 754l49 -29l-450 -779l-48 29zM359 399c0 -100 -83 -140 -152 -140c-68 0 -152 40 -152 136h62c0 -59 47 -87 90 -87c44 0 87 28 87 91c0 62 -43 90 -87 90c-37 0 -65 -10 -93 -35l-46 13l31 233h236v-50h-187l-20 -132c28 15 58 20 92 20c68 0 139 -40 139 -139z
M954 223c46 -20 81 -54 81 -112c0 -72 -59 -121 -153 -121c-93 0 -152 49 -152 121c0 58 35 92 81 112c-39 16 -68 47 -68 102c0 62 52 112 139 112c88 0 140 -50 140 -112c0 -55 -29 -86 -68 -102zM805 316c0 -44 31 -72 77 -72c47 0 78 28 78 72c0 43 -31 71 -78 71
c-46 0 -77 -28 -77 -71zM882 39c53 0 87 35 87 81c0 47 -34 81 -87 81c-52 0 -87 -34 -87 -81c0 -46 35 -81 87 -81z" />
    <glyph glyph-name="seveneighths" unicode="&#x215e;" horiz-adv-x="975" 
d="M654 754l49 -29l-450 -779l-48 29zM347 700v-25c-88 -137 -145 -273 -165 -410h-62c23 129 67 256 153 385h-218v50h292zM844 223c46 -20 81 -54 81 -112c0 -72 -59 -121 -153 -121c-93 0 -152 49 -152 121c0 58 35 92 81 112c-39 16 -68 47 -68 102c0 62 52 112 139 112
c88 0 140 -50 140 -112c0 -55 -29 -86 -68 -102zM695 316c0 -44 31 -72 77 -72c47 0 78 28 78 72c0 43 -31 71 -78 71c-46 0 -77 -28 -77 -71zM772 39c53 0 87 35 87 81c0 47 -34 81 -87 81c-52 0 -87 -34 -87 -81c0 -46 35 -81 87 -81z" />
    <glyph glyph-name="zero.dnom" horiz-adv-x="421" 
d="M210 437c99 0 156 -87 156 -224c0 -136 -57 -223 -156 -223c-98 0 -155 87 -155 223c0 137 57 224 155 224zM210 39c59 0 90 66 90 174s-31 174 -90 174c-58 0 -90 -66 -90 -174s32 -174 90 -174z" />
    <glyph glyph-name="one.dnom" horiz-adv-x="411" 
d="M182 0v323c-27 -19 -69 -31 -102 -31v50c51 6 99 33 118 93h43v-435h-59z" />
    <glyph glyph-name="two.dnom" horiz-adv-x="423" 
d="M50 0c0 166 236 175 236 312c0 41 -21 79 -81 79c-59 0 -89 -38 -90 -87h-59c0 88 64 137 149 137c86 0 143 -50 143 -129c0 -152 -208 -179 -220 -262h220v-50h-298z" />
    <glyph glyph-name="three.dnom" horiz-adv-x="432" 
d="M278 221c56 -16 89 -51 89 -110c0 -81 -70 -121 -155 -121c-92 0 -162 49 -162 149h62c1 -62 37 -100 100 -100c56 0 90 29 90 72c0 49 -34 84 -115 84v37v12c84 0 105 35 105 72c0 36 -21 71 -80 71c-60 0 -89 -38 -91 -87h-59c0 88 64 137 150 137
c85 0 142 -40 142 -115c0 -46 -26 -82 -76 -101z" />
    <glyph glyph-name="four.dnom" horiz-adv-x="457" 
d="M392 159v-50h-68v-109h-59v109h-205v38l215 287h49v-275h68zM129 159h136v186z" />
    <glyph glyph-name="five.dnom" horiz-adv-x="424" 
d="M220 269c68 0 139 -40 139 -139c0 -100 -83 -140 -152 -140c-68 0 -152 40 -152 136h62c0 -59 47 -87 90 -87c44 0 87 28 87 91c0 62 -43 90 -87 90c-37 0 -65 -10 -93 -35l-46 13l31 233h236v-50h-187l-20 -132c28 15 58 20 92 20z" />
    <glyph glyph-name="six.dnom" horiz-adv-x="435" 
d="M227 269c92 0 143 -62 143 -136c0 -75 -51 -143 -149 -143c-99 0 -156 68 -156 223c0 137 63 224 165 224c79 0 133 -49 133 -124h-59c-1 36 -24 74 -77 74c-58 0 -104 -63 -100 -167c22 31 58 49 100 49zM221 39c58 0 83 48 83 94s-25 87 -83 87c-59 0 -84 -41 -84 -87
s25 -94 84 -94z" />
    <glyph glyph-name="seven.dnom" horiz-adv-x="397" 
d="M55 435h292v-25c-88 -137 -145 -273 -165 -410h-62c23 129 67 256 153 385h-218v50z" />
    <glyph glyph-name="eight.dnom" horiz-adv-x="425" 
d="M284 223c46 -20 81 -54 81 -112c0 -72 -59 -121 -153 -121c-93 0 -152 49 -152 121c0 58 35 92 81 112c-39 16 -68 47 -68 102c0 62 52 112 139 112c88 0 140 -50 140 -112c0 -55 -29 -86 -68 -102zM135 316c0 -44 31 -72 77 -72c47 0 78 28 78 72c0 43 -31 71 -78 71
c-46 0 -77 -28 -77 -71zM212 39c53 0 87 35 87 81c0 47 -34 81 -87 81c-52 0 -87 -34 -87 -81c0 -46 35 -81 87 -81z" />
    <glyph glyph-name="nine.dnom" horiz-adv-x="435" 
d="M214 437c99 0 156 -68 156 -224c0 -136 -51 -223 -159 -223c-79 0 -139 49 -139 124h59c1 -37 30 -75 83 -75c67 0 99 63 94 167c-22 -31 -58 -49 -100 -49c-92 0 -143 63 -143 137c0 75 51 143 149 143zM214 207c59 0 84 41 84 87s-25 93 -84 93c-58 0 -83 -47 -83 -93
s25 -87 83 -87z" />
    <glyph glyph-name="zero.numr" horiz-adv-x="421" 
d="M210 710c99 0 156 -87 156 -224c0 -136 -57 -223 -156 -223c-98 0 -155 87 -155 223c0 137 57 224 155 224zM210 312c59 0 90 66 90 174s-31 174 -90 174c-58 0 -90 -66 -90 -174s32 -174 90 -174z" />
    <glyph glyph-name="one.numr" horiz-adv-x="411" 
d="M182 266v323c-27 -19 -69 -31 -102 -31v50c51 6 99 33 118 93h43v-435h-59z" />
    <glyph glyph-name="two.numr" horiz-adv-x="600" 
d="M50 270c0 166 236 175 236 312c0 41 -21 79 -81 79c-59 0 -89 -38 -90 -87h-59c0 88 64 137 149 137c86 0 143 -50 143 -129c0 -152 -208 -179 -220 -262h220v-50h-298z" />
    <glyph glyph-name="three.numr" horiz-adv-x="432" 
d="M278 484c56 -16 89 -51 89 -110c0 -81 -70 -121 -155 -121c-92 0 -162 49 -162 149h62c1 -62 37 -100 100 -100c56 0 90 29 90 72c0 49 -34 84 -115 84v37v12c84 0 105 35 105 72c0 36 -21 71 -80 71c-60 0 -89 -38 -91 -87h-59c0 88 64 137 150 137
c85 0 142 -40 142 -115c0 -46 -26 -82 -76 -101z" />
    <glyph glyph-name="four.numr" horiz-adv-x="457" 
d="M392 425v-50h-68v-109h-59v109h-205v38l215 287h49v-275h68zM129 425h136v186z" />
    <glyph glyph-name="five.numr" horiz-adv-x="424" 
d="M220 538c68 0 139 -40 139 -139c0 -100 -83 -140 -152 -140c-68 0 -152 40 -152 136h62c0 -59 47 -87 90 -87c44 0 87 28 87 91c0 62 -43 90 -87 90c-37 0 -65 -10 -93 -35l-46 13l31 233h236v-50h-187l-20 -132c28 15 58 20 92 20z" />
    <glyph glyph-name="six.numr" horiz-adv-x="435" 
d="M227 542c92 0 143 -62 143 -136c0 -75 -51 -143 -149 -143c-99 0 -156 68 -156 223c0 137 63 224 165 224c79 0 133 -49 133 -124h-59c-1 36 -24 74 -77 74c-58 0 -104 -63 -100 -167c22 31 58 49 100 49zM221 312c58 0 83 48 83 94s-25 87 -83 87c-59 0 -84 -41 -84 -87
s25 -94 84 -94z" />
    <glyph glyph-name="seven.numr" horiz-adv-x="397" 
d="M55 700h292v-25c-88 -137 -145 -273 -165 -410h-62c23 129 67 256 153 385h-218v50z" />
    <glyph glyph-name="eight.numr" horiz-adv-x="425" 
d="M284 496c46 -20 81 -54 81 -112c0 -72 -59 -121 -153 -121c-93 0 -152 49 -152 121c0 58 35 92 81 112c-39 16 -68 47 -68 102c0 62 52 112 139 112c88 0 140 -50 140 -112c0 -55 -29 -86 -68 -102zM135 589c0 -44 31 -72 77 -72c47 0 78 28 78 72c0 43 -31 71 -78 71
c-46 0 -77 -28 -77 -71zM212 312c53 0 87 35 87 81c0 47 -34 81 -87 81c-52 0 -87 -34 -87 -81c0 -46 35 -81 87 -81z" />
    <glyph glyph-name="nine.numr" horiz-adv-x="435" 
d="M214 710c99 0 156 -68 156 -224c0 -136 -51 -223 -159 -223c-79 0 -139 49 -139 124h59c1 -37 30 -75 83 -75c67 0 99 63 94 167c-22 -31 -58 -49 -100 -49c-92 0 -143 63 -143 137c0 75 51 143 149 143zM214 480c59 0 84 41 84 87s-25 93 -84 93c-58 0 -83 -47 -83 -93
s25 -87 83 -87z" />
    <glyph glyph-name="asterisk" unicode="*" horiz-adv-x="414" 
d="M379 590l-115 -37l72 -97l-57 -42l-72 98l-72 -98l-57 42l72 97l-115 37l22 67l115 -38v121h70v-121l115 38z" />
    <glyph glyph-name="backslash" unicode="\" horiz-adv-x="380" 
d="M95 740l280 -760h-90l-280 760h90z" />
    <glyph glyph-name="periodcentered" unicode="&#xb7;" horiz-adv-x="220" 
d="M110 210c-32 0 -60 27 -60 60c0 32 28 60 60 60c33 0 60 -28 60 -60c0 -33 -27 -60 -60 -60z" />
    <glyph glyph-name="bullet" unicode="&#x2022;" horiz-adv-x="280" 
d="M140 261c-48 0 -90 41 -90 90c0 48 42 90 90 90c50 0 90 -42 90 -90c0 -49 -40 -90 -90 -90z" />
    <glyph glyph-name="colon" unicode=":" horiz-adv-x="220" 
d="M110 380c-32 0 -60 27 -60 60c0 32 28 60 60 60c33 0 60 -28 60 -60c0 -33 -27 -60 -60 -60zM110 -10c-32 0 -60 27 -60 60c0 32 28 60 60 60c33 0 60 -28 60 -60c0 -33 -27 -60 -60 -60z" />
    <glyph glyph-name="comma" unicode="," horiz-adv-x="220" 
d="M30 -130l40 230h100l-70 -230h-70z" />
    <glyph glyph-name="ellipsis" unicode="&#x2026;" horiz-adv-x="660" 
d="M110 -10c-32 0 -60 27 -60 60c0 32 28 60 60 60c33 0 60 -28 60 -60c0 -33 -27 -60 -60 -60zM330 -10c-32 0 -60 27 -60 60c0 32 28 60 60 60c33 0 60 -28 60 -60c0 -33 -27 -60 -60 -60zM550 -10c-32 0 -60 27 -60 60c0 32 28 60 60 60c33 0 60 -28 60 -60
c0 -33 -27 -60 -60 -60z" />
    <glyph glyph-name="exclam" unicode="!" horiz-adv-x="220" 
d="M64 700h95l-10 -510h-75zM110 -10c-32 0 -60 27 -60 60c0 32 28 60 60 60c33 0 60 -28 60 -60c0 -33 -27 -60 -60 -60z" />
    <glyph glyph-name="exclamdown" unicode="&#xa1;" horiz-adv-x="220" 
d="M110 510c33 0 60 -27 60 -60c0 -32 -27 -60 -60 -60c-32 0 -60 28 -60 60c0 33 28 60 60 60zM64 -200l10 510h75l10 -510h-95z" />
    <glyph glyph-name="numbersign" unicode="#" horiz-adv-x="733" 
d="M651 370h-112l-15 -140h109l-7 -80h-110l-15 -150h-90l15 150h-151l-15 -150h-90l15 150h-110l7 80h111l15 140h-108l7 80h109l15 150h90l-15 -150h151l15 150h90l-15 -150h111zM434 230l15 140h-151l-15 -140h151z" />
    <glyph glyph-name="period" unicode="." horiz-adv-x="220" 
d="M110 -10c-32 0 -60 27 -60 60c0 32 28 60 60 60c33 0 60 -28 60 -60c0 -33 -27 -60 -60 -60z" />
    <glyph glyph-name="question" unicode="?" horiz-adv-x="550" 
d="M275 710c120 0 220 -70 220 -193c0 -160 -155 -131 -185 -327h-75c10 184 160 195 160 327c0 68 -46 113 -120 113c-76 0 -125 -45 -125 -110h-95c0 120 100 190 220 190zM275 110c33 0 60 -28 60 -60c0 -33 -27 -60 -60 -60c-32 0 -60 27 -60 60c0 32 28 60 60 60z" />
    <glyph glyph-name="questiondown" unicode="&#xbf;" horiz-adv-x="470" 
d="M235 390c-33 0 -60 28 -60 60c0 33 27 60 60 60c32 0 60 -27 60 -60c0 -32 -28 -60 -60 -60zM360 -20h95c0 -120 -100 -190 -220 -190s-220 70 -220 193c0 160 155 131 185 327h75c-10 -184 -160 -195 -160 -327c0 -68 46 -113 120 -113c76 0 125 45 125 110z" />
    <glyph glyph-name="quotedbl" unicode="&#x22;" horiz-adv-x="380" 
d="M80 470l-20 230h110l-20 -230h-70zM230 470l-20 230h110l-20 -230h-70z" />
    <glyph glyph-name="quotesingle" unicode="'" horiz-adv-x="230" 
d="M80 470l-20 230h110l-20 -230h-70z" />
    <glyph glyph-name="semicolon" unicode=";" horiz-adv-x="225" 
d="M115 380c-32 0 -60 27 -60 60c0 32 28 60 60 60c33 0 60 -28 60 -60c0 -33 -27 -60 -60 -60zM30 -130l40 230h100l-70 -230h-70z" />
    <glyph glyph-name="slash" unicode="/" horiz-adv-x="350" 
d="M270 740h90l-280 -760h-90z" />
    <glyph glyph-name="underscore" unicode="_" horiz-adv-x="450" 
d="M0 -90v50h450v-50h-450z" />
    <glyph glyph-name="braceleft" unicode="{" horiz-adv-x="260" 
d="M230 660c-54 -5 -65 -35 -65 -87c0 -44 25 -119 25 -183c0 -77 -30 -124 -90 -140c60 -16 90 -63 90 -140c0 -64 -25 -139 -25 -183c0 -52 11 -82 65 -87v-50c-99 0 -150 43 -150 127c0 45 20 129 20 194c0 87 -30 114 -80 114v50c50 0 80 27 80 114
c0 65 -20 149 -20 194c0 84 51 127 150 127v-50z" />
    <glyph glyph-name="braceright" unicode="}" horiz-adv-x="260" 
d="M160 389c0 -87 30 -114 80 -114v-50c-50 0 -80 -27 -80 -114c0 -65 20 -149 20 -194c0 -84 -51 -127 -150 -127v50c54 5 65 35 65 87c0 44 -25 119 -25 183c0 77 30 124 90 140c-60 16 -90 63 -90 140c0 64 25 139 25 183c0 52 -11 82 -65 87v50c99 0 150 -43 150 -127
c0 -45 -20 -129 -20 -194z" />
    <glyph glyph-name="bracketleft" unicode="[" horiz-adv-x="305" 
d="M275 630h-100v-770h100v-70h-190v910h190v-70z" />
    <glyph glyph-name="bracketright" unicode="]" horiz-adv-x="305" 
d="M30 630v70h190v-910h-190v70h100v770h-100z" />
    <glyph glyph-name="parenleft" unicode="(" horiz-adv-x="340" 
d="M310 700c-88 -134 -135 -290 -135 -450s47 -326 135 -460h-80c-93 134 -145 280 -145 460s52 316 145 450h80z" />
    <glyph glyph-name="parenright" unicode=")" horiz-adv-x="340" 
d="M110 700c93 -134 145 -270 145 -450s-52 -326 -145 -460h-80c88 134 135 300 135 460s-47 316 -135 450h80z" />
    <glyph glyph-name="emdash" unicode="&#x2014;" horiz-adv-x="801" 
d="M801 235h-800v75h800v-75z" />
    <glyph glyph-name="endash" unicode="&#x2013;" horiz-adv-x="510" 
d="M510 235h-510v75h510v-75z" />
    <glyph glyph-name="hyphen" unicode="-" horiz-adv-x="470" 
d="M395 235h-320v75h320v-75z" />
    </font>
</defs>
</svg>
