<?xml version="1.0" standalone="no"?>
<!DOCTYPE svg PUBLIC "-//W3C//DTD SVG 1.1//EN" "http://www.w3.org/Graphics/SVG/1.1/DTD/svg11.dtd" >
<svg xmlns="http://www.w3.org/2000/svg" xmlns:xlink="http://www.w3.org/1999/xlink" version="1.1">
<metadata>
Created by FontForge 20161116 at Mon Apr 18 00:16:19 2016
 By Jimmy Wärting
Copyright \(c\) 2016 by Mateusz Machalski. All rights reserved.
</metadata>
<defs>
<font id="AlergiaNormal-Bolditalic" horiz-adv-x="575" >
  <font-face 
    font-family="Alergia Normal"
    font-weight="700"
    font-style="italic"
    font-stretch="normal"
    units-per-em="1000"
    panose-1="0 0 8 0 0 0 0 0 0 0"
    ascent="800"
    descent="-200"
    x-height="513"
    cap-height="700"
    bbox="-642 -253 1224 1153"
    underline-thickness="50"
    underline-position="-100"
    slope="-8"
    stemh="132"
    stemv="155"
    unicode-range="U+0020-25CA"
  />
<missing-glyph horiz-adv-x="485" 
d="M398 740v-970h-308v970h308zM323 675h-160v-32h63v-36h-64v-32h161v32h-64v36h64v32zM259 550h-97v-101h161v33h-64v68zM226 517v-35h-32v35h32zM323 423h-161v-32h64v-36h-64v-32h97v68h64v32zM323 365h-32v-64h-129v-33h161v97zM323 246h-97v-54h33v22h32v-45h-97v77
h-32v-109h161v109zM323 78h-161v-109h161v109zM291 46v-45h-97v45h97zM323 -53h-161v-32h68l-68 -46v-32h161v32h-99l68 46h31v32z" />
    <glyph glyph-name=".notdef" horiz-adv-x="485" 
d="M398 740v-970h-308v970h308zM323 675h-160v-32h63v-36h-64v-32h161v32h-64v36h64v32zM259 550h-97v-101h161v33h-64v68zM226 517v-35h-32v35h32zM323 423h-161v-32h64v-36h-64v-32h97v68h64v32zM323 365h-32v-64h-129v-33h161v97zM323 246h-97v-54h33v22h32v-45h-97v77
h-32v-109h161v109zM323 78h-161v-109h161v109zM291 46v-45h-97v45h97zM323 -53h-161v-32h68l-68 -46v-32h161v32h-99l68 46h31v32z" />
    <glyph glyph-name="A" unicode="A" horiz-adv-x="678" 
d="M462 0l-29 164h-221l-72 -164h-168l324 700h197l140 -700h-171zM262 290h153l-44 240z" />
    <glyph glyph-name="Aacute" unicode="&#xc1;" horiz-adv-x="678" 
d="M363 757l133 143h166l-193 -143h-106zM462 0l-29 164h-221l-72 -164h-168l324 700h197l140 -700h-171zM262 290h153l-44 240z" />
    <glyph glyph-name="Abreve" unicode="&#x102;" horiz-adv-x="678" 
d="M411 747c-106 0 -150 70 -146 163h86c8 -44 30 -67 74 -67c43 0 71 23 92 67h86c-23 -93 -87 -163 -192 -163zM493 700l140 -700h-171l-29 164h-221l-72 -164h-168l324 700h197zM262 290h153l-44 240z" />
    <glyph glyph-name="uni1EAE" unicode="&#x1eae;" horiz-adv-x="678" 
d="M687 1083l-192 -143h-106l133 143h165zM410 747c-105 0 -149 70 -146 163h86c9 -44 31 -67 74 -67c44 0 72 23 93 67h86c-23 -93 -87 -163 -193 -163zM296 700h197l140 -700h-171l-29 164h-221l-72 -164h-168zM262 290h153l-44 240z" />
    <glyph glyph-name="uni1EB6" unicode="&#x1eb6;" horiz-adv-x="678" 
d="M411 747c-106 0 -150 70 -146 163h86c8 -44 30 -67 74 -67c43 0 71 23 92 67h86c-23 -93 -87 -163 -192 -163zM493 700l140 -700h-171l-29 164h-221l-72 -164h-168l324 700h197zM262 290h153l-44 240zM294 -61c47 0 80 -40 74 -86c-7 -47 -51 -86 -98 -86
c-46 0 -81 39 -74 86c6 46 52 86 98 86z" />
    <glyph glyph-name="uni1EB0" unicode="&#x1eb0;" horiz-adv-x="678" 
d="M505 940h-106l-152 143h165zM424 843c44 0 72 23 93 67h86c-23 -93 -87 -163 -193 -163c-105 0 -149 70 -146 163h86c9 -44 31 -67 74 -67zM493 700l140 -700h-171l-29 164h-221l-72 -164h-168l324 700h197zM262 290h153l-44 240z" />
    <glyph glyph-name="uni1EB2" unicode="&#x1eb2;" horiz-adv-x="678" 
d="M455 1084c-13 0 -26 -13 -33 -31h-91c15 70 71 100 134 100s115 -30 105 -100c-10 -72 -91 -72 -97 -115h-76c9 62 71 70 77 115c3 18 -5 31 -19 31zM411 747c-105 0 -149 70 -146 163h86c8 -44 30 -67 73 -67c44 0 72 23 94 67h86c-23 -93 -87 -163 -193 -163zM493 700
l140 -700h-171l-29 164h-221l-72 -164h-168l324 700h197zM262 290h153l-44 240z" />
    <glyph glyph-name="uni1EB4" unicode="&#x1eb4;" horiz-adv-x="678" 
d="M383 990c-33 0 -48 -28 -61 -58h-73c26 110 83 164 149 164c83 0 79 -58 128 -58c34 0 49 27 62 58h73c-26 -114 -83 -164 -149 -164c-83 0 -79 58 -129 58zM424 843c44 0 72 23 93 67h86c-23 -93 -87 -163 -192 -163c-106 0 -150 70 -147 163h86c9 -44 30 -67 74 -67z
M296 700h197l140 -700h-171l-29 164h-221l-72 -164h-168zM262 290h153l-44 240z" />
    <glyph glyph-name="uni01CD" unicode="&#x1cd;" horiz-adv-x="678" 
d="M457 757h-90l-119 143h143l32 -69l51 69h143zM493 700l140 -700h-171l-29 164h-221l-72 -164h-168l324 700h197zM262 290h153l-44 240z" />
    <glyph glyph-name="Acircumflex" unicode="&#xc2;" horiz-adv-x="678" 
d="M422 826l-52 -69h-142l160 143h89l119 -143h-142zM493 700l140 -700h-171l-29 164h-221l-72 -164h-168l324 700h197zM262 290h153l-44 240z" />
    <glyph glyph-name="uni1EA4" unicode="&#x1ea4;" horiz-adv-x="678" 
d="M680 994h165l-192 -143h-106zM422 826l-51 -69h-143l160 143h89l120 -143h-143zM296 700h197l140 -700h-171l-29 164h-221l-72 -164h-168zM262 290h153l-44 240z" />
    <glyph glyph-name="uni1EAC" unicode="&#x1eac;" horiz-adv-x="678" 
d="M422 826l-52 -69h-142l160 143h89l119 -143h-142zM493 700l140 -700h-171l-29 164h-221l-72 -164h-168l324 700h197zM262 290h153l-44 240zM294 -61c47 0 80 -40 74 -86c-7 -47 -51 -86 -98 -86c-46 0 -81 39 -74 86c6 46 52 86 98 86z" />
    <glyph glyph-name="uni1EA6" unicode="&#x1ea6;" horiz-adv-x="678" 
d="M695 851h-106l-151 143h165zM422 826l-51 -69h-143l160 143h90l119 -143h-143zM296 700h197l140 -700h-171l-29 164h-221l-72 -164h-168zM262 290h153l-44 240z" />
    <glyph glyph-name="uni1EA8" unicode="&#x1ea8;" horiz-adv-x="678" 
d="M623 1063c63 0 115 -30 105 -100c-9 -71 -91 -72 -97 -115h-76c9 63 72 70 78 115c3 19 -6 32 -19 32c-14 0 -26 -13 -34 -32h-91c15 70 71 100 134 100zM423 826l-52 -69h-142l159 143h90l119 -143h-142zM296 700h197l140 -700h-171l-29 164h-221l-72 -164h-168z
M262 290h153l-44 240z" />
    <glyph glyph-name="uni1EAA" unicode="&#x1eaa;" horiz-adv-x="678" 
d="M897 1016h73c-26 -113 -83 -164 -149 -164c-83 0 -79 58 -129 58c-33 0 -48 -27 -61 -58h-73c26 110 83 164 150 164c82 0 78 -58 128 -58c33 0 48 28 61 58zM422 826l-52 -69h-142l159 143h90l119 -143h-142zM296 700h197l140 -700h-171l-29 164h-221l-72 -164h-168z
M262 290h153l-44 240z" />
    <glyph glyph-name="Adieresis" unicode="&#xc4;" horiz-adv-x="678" 
d="M300 762c-39 0 -69 30 -69 69c0 46 46 90 91 90c40 0 69 -32 69 -69c0 -48 -44 -90 -91 -90zM526 762c-39 0 -69 30 -69 69c0 46 46 90 91 90c40 0 69 -32 69 -69c0 -48 -44 -90 -91 -90zM462 0l-29 164h-221l-72 -164h-168l324 700h197l140 -700h-171zM262 290h153
l-44 240z" />
    <glyph glyph-name="uni1EA0" unicode="&#x1ea0;" horiz-adv-x="678" 
d="M462 0l-29 164h-221l-72 -164h-168l324 700h197l140 -700h-171zM262 290h153l-44 240zM270 -233c-46 0 -81 39 -74 86c6 46 52 86 98 86c47 0 80 -40 74 -86c-7 -47 -51 -86 -98 -86z" />
    <glyph glyph-name="Agrave" unicode="&#xc0;" horiz-adv-x="678" 
d="M487 757h-106l-152 143h165zM462 0l-29 164h-221l-72 -164h-168l324 700h197l140 -700h-171zM262 290h153l-44 240z" />
    <glyph glyph-name="uni1EA2" unicode="&#x1ea2;" horiz-adv-x="678" 
d="M429 901c-13 0 -26 -13 -32 -31h-91c14 70 70 100 133 100s115 -30 106 -100c-11 -72 -92 -72 -98 -115h-76c9 63 71 70 78 115c2 18 -6 31 -20 31zM493 700l140 -700h-171l-29 164h-221l-72 -164h-168l324 700h197zM262 290h153l-44 240z" />
    <glyph glyph-name="Amacron" unicode="&#x100;" horiz-adv-x="678" 
d="M246 780l14 96h339l-14 -96h-339zM462 0l-29 164h-221l-72 -164h-168l324 700h197l140 -700h-171zM262 290h153l-44 240z" />
    <glyph glyph-name="Aogonek" unicode="&#x104;" horiz-adv-x="678" 
d="M559 0c-56 -29 -92 -65 -97 -99c-3 -23 6 -37 31 -37c15 0 33 5 49 11l-12 -82c-23 -12 -55 -23 -91 -23c-70 0 -110 41 -102 99c7 50 42 98 124 138l-28 157h-221l-72 -164h-168l324 700h197l140 -700h-74zM262 290h153l-44 240z" />
    <glyph glyph-name="Aring" unicode="&#xc5;" horiz-adv-x="678" 
d="M496 687l137 -687h-171l-29 164h-221l-72 -164h-168l316 683c-14 21 -20 47 -16 76c9 69 77 124 146 124s121 -55 111 -124c-3 -27 -16 -52 -33 -72zM357 759c-3 -25 12 -45 37 -45s47 20 50 45c3 24 -12 44 -37 44s-47 -20 -50 -44zM262 290h153l-44 240z" />
    <glyph glyph-name="Atilde" unicode="&#xc3;" horiz-adv-x="678" 
d="M357 807c-33 0 -49 -28 -62 -58h-73c26 110 84 164 150 164c83 0 78 -58 128 -58c33 0 48 27 61 58h73c-25 -114 -83 -164 -149 -164c-83 0 -79 58 -128 58zM296 700h197l140 -700h-171l-29 164h-221l-72 -164h-168zM262 290h153l-44 240z" />
    <glyph glyph-name="AE" unicode="&#xc6;" horiz-adv-x="969" 
d="M969 575h-295l-21 -150h266l-18 -126h-266l-24 -173h305l-17 -126h-466l23 164h-234l-85 -164h-165l373 700h223h419zM287 290h187l40 285h-80z" />
    <glyph glyph-name="AEacute" unicode="&#x1fc;" horiz-adv-x="969" 
d="M771 940l-161 -173h-89l94 173h156zM969 575h-295l-21 -150h266l-18 -126h-266l-24 -173h305l-17 -126h-466l23 164h-234l-85 -164h-165l373 700h223h419zM287 290h187l40 285h-80z" />
    <glyph glyph-name="B" unicode="B" horiz-adv-x="665" 
d="M514 361c63 -20 113 -64 113 -147c0 -134 -133 -214 -270 -214h-329l98 700h292c114 0 213 -55 213 -171c0 -75 -43 -130 -117 -168zM269 575l-22 -157h105c75 0 117 37 117 88c0 41 -28 69 -94 69h-106zM328 126c78 0 131 30 131 93c0 47 -29 74 -104 74h-126l-23 -167
h122z" />
    <glyph glyph-name="C" unicode="C" horiz-adv-x="678" 
d="M342 116c59 0 111 33 142 120h156c-44 -170 -178 -246 -318 -246c-169 0 -273 110 -273 296c0 221 150 424 377 424c150 0 249 -90 246 -246h-156c-7 82 -47 121 -106 121c-123 0 -192 -176 -192 -306c0 -107 46 -163 124 -163z" />
    <glyph glyph-name="Cacute" unicode="&#x106;" horiz-adv-x="678" 
d="M375 757l133 143h166l-193 -143h-106zM342 116c59 0 111 33 142 120h156c-44 -170 -178 -246 -318 -246c-169 0 -273 110 -273 296c0 221 150 424 377 424c150 0 249 -90 246 -246h-156c-7 82 -47 121 -106 121c-123 0 -192 -176 -192 -306c0 -107 46 -163 124 -163z" />
    <glyph glyph-name="Ccaron" unicode="&#x10c;" horiz-adv-x="678" 
d="M469 757h-90l-119 143h143l32 -69l51 69h143zM410 585c-123 0 -192 -176 -192 -306c0 -107 46 -163 124 -163c59 0 111 33 142 120h156c-44 -170 -178 -246 -318 -246c-169 0 -273 110 -273 296c0 221 150 424 377 424c150 0 249 -90 246 -246h-156
c-7 82 -47 121 -106 121z" />
    <glyph glyph-name="Ccedilla" unicode="&#xc7;" horiz-adv-x="678" 
d="M410 585c-123 0 -192 -176 -192 -306c0 -107 46 -163 124 -163c59 0 111 33 142 120h156c-41 -159 -162 -236 -292 -245l-21 -38c62 10 110 -21 102 -81c-9 -68 -73 -102 -142 -102c-37 0 -59 8 -80 20l9 63c20 -12 37 -20 57 -20c25 0 47 12 50 34c5 42 -46 39 -102 21
l49 106c-138 20 -221 126 -221 292c0 221 150 424 377 424c150 0 249 -90 246 -246h-156c-7 82 -47 121 -106 121z" />
    <glyph glyph-name="Cdotaccent" unicode="&#x10a;" horiz-adv-x="678" 
d="M427 748c-42 0 -75 34 -75 76c0 51 50 96 99 96c43 0 75 -35 75 -76c0 -52 -48 -96 -99 -96zM342 116c59 0 111 33 142 120h156c-44 -170 -178 -246 -318 -246c-169 0 -273 110 -273 296c0 221 150 424 377 424c150 0 249 -90 246 -246h-156c-7 82 -47 121 -106 121
c-123 0 -192 -176 -192 -306c0 -107 46 -163 124 -163z" />
    <glyph glyph-name="D" unicode="D" horiz-adv-x="699" 
d="M33 0l98 700h257c178 0 291 -103 291 -297c0 -226 -151 -403 -382 -403h-264zM209 119h87c139 0 215 161 215 299c0 113 -52 163 -143 163h-93z" />
    <glyph glyph-name="Eth" unicode="&#xd0;" horiz-adv-x="699" 
d="M388 700c178 0 291 -103 291 -297c0 -226 -151 -403 -382 -403h-264l42 302h-73l14 96h73l42 302h257zM296 119c139 0 215 161 215 299c0 113 -52 163 -143 163h-93l-26 -183h99l-14 -96h-99l-26 -183h87z" />
    <glyph glyph-name="Dcaron" unicode="&#x10e;" horiz-adv-x="699" 
d="M471 757h-90l-119 143h143l32 -69l51 69h143zM388 700c178 0 291 -103 291 -297c0 -226 -151 -403 -382 -403h-264l98 700h257zM296 119c139 0 215 161 215 299c0 113 -52 163 -143 163h-93l-66 -462h87z" />
    <glyph glyph-name="Dcroat" unicode="&#x110;" horiz-adv-x="699" 
d="M388 700c178 0 291 -103 291 -297c0 -226 -151 -403 -382 -403h-264l42 302h-73l14 96h73l42 302h257zM296 119c139 0 215 161 215 299c0 113 -52 163 -143 163h-93l-26 -183h99l-14 -96h-99l-26 -183h87z" />
    <glyph glyph-name="E" unicode="E" horiz-adv-x="569" 
d="M211 126h305l-17 -126h-466l98 700h456l-18 -125h-295l-21 -150h266l-18 -126h-266z" />
    <glyph glyph-name="Eacute" unicode="&#xc9;" horiz-adv-x="569" 
d="M322 757l133 143h166l-193 -143h-106zM211 126h305l-17 -126h-466l98 700h456l-18 -125h-295l-21 -150h266l-18 -126h-266z" />
    <glyph glyph-name="Ecaron" unicode="&#x11a;" horiz-adv-x="569" 
d="M416 757h-90l-119 143h143l32 -69l51 69h143zM569 575h-295l-21 -150h266l-18 -126h-266l-24 -173h305l-17 -126h-466l98 700h456z" />
    <glyph glyph-name="Ecircumflex" unicode="&#xca;" horiz-adv-x="569" 
d="M381 826l-52 -69h-142l160 143h89l119 -143h-142zM569 575h-295l-21 -150h266l-18 -126h-266l-24 -173h305l-17 -126h-466l98 700h456z" />
    <glyph glyph-name="uni1EBE" unicode="&#x1ebe;" horiz-adv-x="569" 
d="M639 994h165l-192 -143h-106zM381 826l-51 -69h-143l160 143h89l120 -143h-143zM33 0l98 700h456l-18 -125h-295l-21 -150h266l-18 -126h-266l-24 -173h305l-17 -126h-466z" />
    <glyph glyph-name="uni1EC6" unicode="&#x1ec6;" horiz-adv-x="569" 
d="M381 826l-52 -69h-142l160 143h89l119 -143h-142zM569 575h-295l-21 -150h266l-18 -126h-266l-24 -173h305l-17 -126h-466l98 700h456zM256 -61c47 0 80 -40 74 -86c-7 -47 -51 -86 -98 -86c-46 0 -81 39 -74 86c6 46 52 86 98 86z" />
    <glyph glyph-name="uni1EC0" unicode="&#x1ec0;" horiz-adv-x="569" 
d="M654 851h-106l-151 143h165zM381 826l-51 -69h-143l160 143h90l119 -143h-143zM33 0l98 700h456l-18 -125h-295l-21 -150h266l-18 -126h-266l-24 -173h305l-17 -126h-466z" />
    <glyph glyph-name="uni1EC2" unicode="&#x1ec2;" horiz-adv-x="569" 
d="M582 1063c63 0 115 -30 105 -100c-9 -71 -91 -72 -97 -115h-76c9 63 72 70 78 115c3 19 -6 32 -19 32c-14 0 -26 -13 -34 -32h-91c15 70 71 100 134 100zM382 826l-52 -69h-142l159 143h90l119 -143h-142zM33 0l98 700h456l-18 -125h-295l-21 -150h266l-18 -126h-266
l-24 -173h305l-17 -126h-466z" />
    <glyph glyph-name="uni1EC4" unicode="&#x1ec4;" horiz-adv-x="569" 
d="M856 1016h73c-26 -113 -83 -164 -149 -164c-83 0 -79 58 -129 58c-33 0 -48 -27 -61 -58h-73c26 110 83 164 150 164c82 0 78 -58 128 -58c33 0 48 28 61 58zM381 826l-52 -69h-142l159 143h90l119 -143h-142zM33 0l98 700h456l-18 -125h-295l-21 -150h266l-18 -126h-266
l-24 -173h305l-17 -126h-466z" />
    <glyph glyph-name="Edieresis" unicode="&#xcb;" horiz-adv-x="569" 
d="M259 762c-39 0 -69 30 -69 69c0 46 46 90 91 90c40 0 69 -32 69 -69c0 -48 -44 -90 -91 -90zM485 762c-39 0 -69 30 -69 69c0 46 46 90 91 90c40 0 69 -32 69 -69c0 -48 -44 -90 -91 -90zM211 126h305l-17 -126h-466l98 700h456l-18 -125h-295l-21 -150h266l-18 -126
h-266z" />
    <glyph glyph-name="Edotaccent" unicode="&#x116;" horiz-adv-x="569" 
d="M374 748c-42 0 -75 34 -75 76c0 51 50 96 99 96c43 0 75 -35 75 -76c0 -52 -48 -96 -99 -96zM211 126h305l-17 -126h-466l98 700h456l-18 -125h-295l-21 -150h266l-18 -126h-266z" />
    <glyph glyph-name="uni1EB8" unicode="&#x1eb8;" horiz-adv-x="569" 
d="M211 126h305l-17 -126h-466l98 700h456l-18 -125h-295l-21 -150h266l-18 -126h-266zM232 -233c-46 0 -81 39 -74 86c6 46 52 86 98 86c47 0 80 -40 74 -86c-7 -47 -51 -86 -98 -86z" />
    <glyph glyph-name="Egrave" unicode="&#xc8;" horiz-adv-x="569" 
d="M446 757h-106l-152 143h165zM211 126h305l-17 -126h-466l98 700h456l-18 -125h-295l-21 -150h266l-18 -126h-266z" />
    <glyph glyph-name="uni1EBA" unicode="&#x1eba;" horiz-adv-x="569" 
d="M388 901c-13 0 -26 -13 -32 -31h-91c14 70 70 100 133 100s115 -30 106 -100c-11 -72 -92 -72 -98 -115h-76c9 63 71 70 78 115c2 18 -6 31 -20 31zM569 575h-295l-21 -150h266l-18 -126h-266l-24 -173h305l-17 -126h-466l98 700h456z" />
    <glyph glyph-name="Emacron" unicode="&#x112;" horiz-adv-x="569" 
d="M205 780l14 96h339l-14 -96h-339zM211 126h305l-17 -126h-466l98 700h456l-18 -125h-295l-21 -150h266l-18 -126h-266z" />
    <glyph glyph-name="Eogonek" unicode="&#x118;" horiz-adv-x="569" 
d="M569 575h-295l-21 -150h266l-18 -126h-266l-24 -173h305l-17 -126h-1c-56 -29 -92 -65 -97 -99c-3 -23 6 -37 31 -37c15 0 33 5 49 11l-12 -82c-23 -12 -55 -23 -91 -23c-70 0 -110 41 -102 99c6 47 38 92 109 131h-352l98 700h456z" />
    <glyph glyph-name="uni1EBC" unicode="&#x1ebc;" horiz-adv-x="569" 
d="M316 807c-33 0 -49 -28 -62 -58h-73c26 110 84 164 150 164c83 0 78 -58 128 -58c33 0 48 27 61 58h73c-25 -114 -83 -164 -149 -164c-83 0 -79 58 -128 58zM33 0l98 700h456l-18 -125h-295l-21 -150h266l-18 -126h-266l-24 -173h305l-17 -126h-466z" />
    <glyph glyph-name="F" unicode="F" horiz-adv-x="525" 
d="M551 575h-282l-24 -167h273l-18 -126h-272l-40 -282h-160l98 700h442z" />
    <glyph glyph-name="G" unicode="G" horiz-adv-x="712" 
d="M415 585c-122 0 -191 -170 -191 -299c0 -110 45 -170 129 -170c71 0 138 45 152 139v3h-108l14 102h248l-50 -360h-108l-6 61c-49 -49 -114 -71 -187 -71c-160 0 -254 108 -254 291c0 227 149 429 376 429c154 0 250 -93 247 -246h-157c-6 82 -46 121 -105 121z" />
    <glyph glyph-name="Gbreve" unicode="&#x11e;" horiz-adv-x="712" 
d="M430 747c-106 0 -150 70 -146 163h86c8 -44 30 -67 74 -67c43 0 71 23 92 67h86c-23 -93 -87 -163 -192 -163zM415 585c-122 0 -191 -170 -191 -299c0 -110 45 -170 129 -170c71 0 138 45 152 139v3h-108l14 102h248l-50 -360h-108l-6 61c-49 -49 -114 -71 -187 -71
c-160 0 -254 108 -254 291c0 227 149 429 376 429c154 0 250 -93 247 -246h-157c-6 82 -46 121 -105 121z" />
    <glyph glyph-name="Gcommaaccent" unicode="&#x122;" horiz-adv-x="712" 
d="M415 585c-122 0 -191 -170 -191 -299c0 -110 45 -170 129 -170c71 0 138 45 152 139v3h-108l14 102h248l-50 -360h-108l-6 61c-49 -49 -114 -71 -187 -71c-160 0 -254 108 -254 291c0 227 149 429 376 429c154 0 250 -93 247 -246h-157c-6 82 -46 121 -105 121zM204 -253
l75 188h129l-125 -188h-79z" />
    <glyph glyph-name="Gdotaccent" unicode="&#x120;" horiz-adv-x="712" 
d="M434 748c-42 0 -75 34 -75 76c0 51 50 96 99 96c43 0 75 -35 75 -76c0 -52 -48 -96 -99 -96zM415 585c-122 0 -191 -170 -191 -299c0 -110 45 -170 129 -170c71 0 138 45 152 139v3h-108l14 102h248l-50 -360h-108l-6 61c-49 -49 -114 -71 -187 -71
c-160 0 -254 108 -254 291c0 227 149 429 376 429c154 0 250 -93 247 -246h-157c-6 82 -46 121 -105 121z" />
    <glyph glyph-name="H" unicode="H" horiz-adv-x="731" 
d="M569 700h160l-98 -700h-160l42 299h-283l-42 -299h-160l98 700h160l-38 -275h283z" />
    <glyph glyph-name="Hbar" unicode="&#x126;" horiz-adv-x="719" 
d="M769 614l-13 -92h-58l-73 -522h-160l42 299h-283l-42 -299h-160l73 522h-57l13 92h57l12 86h160l-12 -86h283l12 86h160l-12 -86h58zM525 425l13 97h-283l-13 -97h283z" />
    <glyph glyph-name="I" unicode="I" horiz-adv-x="298" 
d="M131 700h160l-98 -700h-160z" />
    <glyph glyph-name="Iacute" unicode="&#xcd;" horiz-adv-x="298" 
d="M171 757l133 143h166l-193 -143h-106zM131 700h160l-98 -700h-160z" />
    <glyph glyph-name="uni01CF" unicode="&#x1cf;" horiz-adv-x="298" 
d="M265 757h-90l-119 143h143l32 -69l51 69h143zM33 0l98 700h160l-98 -700h-160z" />
    <glyph glyph-name="Icircumflex" unicode="&#xce;" horiz-adv-x="298" 
d="M230 826l-52 -69h-142l160 143h89l119 -143h-142zM33 0l98 700h160l-98 -700h-160z" />
    <glyph glyph-name="Idieresis" unicode="&#xcf;" horiz-adv-x="298" 
d="M108 762c-39 0 -69 30 -69 69c0 46 46 90 91 90c40 0 69 -32 69 -69c0 -48 -44 -90 -91 -90zM334 762c-39 0 -69 30 -69 69c0 46 46 90 91 90c40 0 69 -32 69 -69c0 -48 -44 -90 -91 -90zM131 700h160l-98 -700h-160z" />
    <glyph glyph-name="Idotaccent" unicode="&#x130;" horiz-adv-x="298" 
d="M223 748c-42 0 -75 34 -75 76c0 51 50 96 99 96c43 0 75 -35 75 -76c0 -52 -48 -96 -99 -96zM131 700h160l-98 -700h-160z" />
    <glyph glyph-name="uni1ECA" unicode="&#x1eca;" horiz-adv-x="298" 
d="M131 700h160l-98 -700h-160zM81 -233c-46 0 -81 39 -74 86c6 46 52 86 98 86c47 0 80 -40 74 -86c-7 -47 -51 -86 -98 -86z" />
    <glyph glyph-name="Igrave" unicode="&#xcc;" horiz-adv-x="298" 
d="M295 757h-106l-152 143h165zM131 700h160l-98 -700h-160z" />
    <glyph glyph-name="uni1EC8" unicode="&#x1ec8;" horiz-adv-x="298" 
d="M247 970c63 0 115 -30 106 -100c-11 -72 -92 -72 -98 -115h-76c9 63 71 70 78 115c2 18 -6 31 -20 31c-13 0 -26 -13 -32 -31h-91c14 70 70 100 133 100zM33 0l98 700h160l-98 -700h-160z" />
    <glyph glyph-name="Imacron" unicode="&#x12a;" horiz-adv-x="298" 
d="M54 780l14 96h339l-14 -96h-339zM131 700h160l-98 -700h-160z" />
    <glyph glyph-name="Iogonek" unicode="&#x12e;" horiz-adv-x="298" 
d="M131 700h160l-98 -700h-65c-56 -29 -92 -65 -97 -99c-3 -23 6 -37 31 -37c15 0 33 5 49 11l-12 -82c-23 -12 -55 -23 -91 -23c-70 0 -110 41 -102 99c7 51 44 100 128 141z" />
    <glyph glyph-name="Itilde" unicode="&#x128;" horiz-adv-x="298" 
d="M369 913h73c-25 -114 -83 -164 -149 -164c-83 0 -79 58 -128 58c-33 0 -49 -28 -62 -58h-73c26 110 84 164 150 164c83 0 78 -58 128 -58c33 0 48 27 61 58zM33 0l98 700h160l-98 -700h-160z" />
    <glyph glyph-name="J" unicode="J" horiz-adv-x="487" 
d="M326 700h160l-73 -516c-18 -127 -114 -194 -234 -194c-121 0 -189 67 -168 212h152c-8 -53 0 -86 33 -86s52 33 60 88z" />
    <glyph glyph-name="K" unicode="K" horiz-adv-x="691" 
d="M28 0l98 700h163l-44 -305l306 305h191l-292 -291l205 -409h-183l-148 269l-112 -108l-24 -161h-160z" />
    <glyph glyph-name="Kcommaaccent" unicode="&#x136;" horiz-adv-x="691" 
d="M28 0l98 700h163l-44 -305l306 305h191l-292 -291l205 -409h-183l-148 269l-112 -108l-24 -161h-160zM181 -253l75 188h129l-125 -188h-79z" />
    <glyph glyph-name="L" unicode="L" horiz-adv-x="533" 
d="M206 126h295l-18 -126h-455l98 700h160z" />
    <glyph glyph-name="Lacute" unicode="&#x139;" horiz-adv-x="533" 
d="M173 767l94 173h156l-161 -173h-89zM206 126h295l-18 -126h-455l98 700h160z" />
    <glyph glyph-name="Lcaron" unicode="&#x13d;" horiz-adv-x="533" 
d="M382 541l28 199h135l-84 -199h-79zM206 126h295l-18 -126h-455l98 700h160z" />
    <glyph glyph-name="Lcommaaccent" unicode="&#x13b;" horiz-adv-x="533" 
d="M206 126h295l-18 -126h-455l98 700h160zM137 -253l75 188h129l-125 -188h-79z" />
    <glyph glyph-name="Lslash" unicode="&#x141;" horiz-adv-x="563" 
d="M236 126h295l-18 -126h-455l29 210l-97 -52l19 135l97 51l50 356h160l-37 -264l208 110l-19 -134l-208 -110z" />
    <glyph glyph-name="M" unicode="M" horiz-adv-x="844" 
d="M706 700h141l-98 -700h-160l53 364l-227 -304h-40l-140 304l-52 -364h-160l98 700h139l167 -388z" />
    <glyph glyph-name="N" unicode="N" horiz-adv-x="741" 
d="M579 700h160l-98 -700h-119l-276 406l-58 -406h-160l98 700h119l277 -400z" />
    <glyph glyph-name="Nacute" unicode="&#x143;" horiz-adv-x="741" 
d="M384 757l133 143h166l-193 -143h-106zM579 700h160l-98 -700h-119l-276 406l-58 -406h-160l98 700h119l277 -400z" />
    <glyph glyph-name="Ncaron" unicode="&#x147;" horiz-adv-x="741" 
d="M478 757h-90l-119 143h143l32 -69l51 69h143zM579 700h160l-98 -700h-119l-276 406l-58 -406h-160l98 700h119l277 -400z" />
    <glyph glyph-name="Ncommaaccent" unicode="&#x145;" horiz-adv-x="741" 
d="M579 700h160l-98 -700h-119l-276 406l-58 -406h-160l98 700h119l277 -400zM212 -253l75 188h129l-125 -188h-79z" />
    <glyph glyph-name="Eng" unicode="&#x14a;" horiz-adv-x="741" 
d="M739 700l-100 -723c-19 -137 -118 -207 -289 -207l18 125c76 0 106 44 114 102l8 56l-244 353l-58 -406h-160l98 700h119l277 -400l57 400h160z" />
    <glyph glyph-name="Ntilde" unicode="&#xd1;" horiz-adv-x="741" 
d="M378 807c-33 0 -49 -28 -62 -58h-73c26 110 84 164 150 164c83 0 78 -58 128 -58c33 0 48 27 61 58h73c-25 -114 -83 -164 -149 -164c-83 0 -79 58 -128 58zM579 700h160l-98 -700h-119l-276 406l-58 -406h-160l98 700h119l277 -400z" />
    <glyph glyph-name="O" unicode="O" horiz-adv-x="712" 
d="M420 710c171 0 275 -112 275 -288c0 -233 -150 -432 -377 -432c-171 0 -274 112 -274 288c0 233 150 432 376 432zM336 116c120 0 190 175 190 309c0 103 -48 160 -124 160c-120 0 -189 -176 -189 -310c0 -103 48 -159 123 -159z" />
    <glyph glyph-name="Oacute" unicode="&#xd3;" horiz-adv-x="712" 
d="M377 757l133 143h166l-193 -143h-106zM420 710c171 0 275 -112 275 -288c0 -233 -150 -432 -377 -432c-171 0 -274 112 -274 288c0 233 150 432 376 432zM336 116c120 0 190 175 190 309c0 103 -48 160 -124 160c-120 0 -189 -176 -189 -310c0 -103 48 -159 123 -159z
" />
    <glyph glyph-name="uni01D1" unicode="&#x1d1;" horiz-adv-x="712" 
d="M471 757h-90l-119 143h143l32 -69l51 69h143zM420 710c171 0 275 -112 275 -288c0 -233 -150 -432 -377 -432c-171 0 -274 112 -274 288c0 233 150 432 376 432zM336 116c120 0 190 175 190 309c0 103 -48 160 -124 160c-120 0 -189 -176 -189 -310
c0 -103 48 -159 123 -159z" />
    <glyph glyph-name="Ocircumflex" unicode="&#xd4;" horiz-adv-x="712" 
d="M436 826l-52 -69h-142l160 143h89l119 -143h-142zM420 710c171 0 275 -112 275 -288c0 -233 -150 -432 -377 -432c-171 0 -274 112 -274 288c0 233 150 432 376 432zM336 116c120 0 190 175 190 309c0 103 -48 160 -124 160c-120 0 -189 -176 -189 -310
c0 -103 48 -159 123 -159z" />
    <glyph glyph-name="uni1ED0" unicode="&#x1ed0;" horiz-adv-x="712" 
d="M833 1050l-160 -173h-89l94 173h155zM441 859l-65 -92h-133l164 173h90l115 -173h-133zM420 710c171 0 275 -112 275 -288c0 -233 -150 -432 -377 -432c-171 0 -274 112 -274 288c0 233 150 432 376 432zM336 116c120 0 190 175 190 309c0 103 -48 160 -124 160
c-120 0 -189 -176 -189 -310c0 -103 48 -159 123 -159z" />
    <glyph glyph-name="uni1ED8" unicode="&#x1ed8;" horiz-adv-x="712" 
d="M440 860l-65 -93h-132l164 173h89l115 -173h-132zM420 710c171 0 275 -112 275 -288c0 -233 -150 -432 -377 -432c-171 0 -274 112 -274 288c0 233 150 432 376 432zM336 116c120 0 190 175 190 309c0 103 -48 160 -124 160c-120 0 -189 -176 -189 -310
c0 -103 48 -159 123 -159zM311 -61c47 0 80 -40 74 -86c-7 -47 -51 -86 -98 -86c-46 0 -81 39 -74 86c6 46 52 86 98 86z" />
    <glyph glyph-name="uni1ED2" unicode="&#x1ed2;" horiz-adv-x="712" 
d="M706 877h-89l-112 173h156zM441 859l-65 -92h-133l164 173h90l115 -173h-133zM420 710c171 0 275 -112 275 -288c0 -233 -150 -432 -377 -432c-171 0 -274 112 -274 288c0 233 150 432 376 432zM336 116c120 0 190 175 190 309c0 103 -48 160 -124 160
c-120 0 -189 -176 -189 -310c0 -103 48 -159 123 -159z" />
    <glyph glyph-name="uni1ED4" unicode="&#x1ed4;" horiz-adv-x="712" 
d="M659 1080c63 0 115 -30 105 -100c-10 -72 -91 -72 -97 -115h-76c9 63 71 70 77 115c3 18 -5 31 -19 31c-13 0 -26 -13 -33 -31h-91c15 70 71 100 134 100zM440 860l-64 -93h-133l164 173h89l115 -173h-132zM420 710c171 0 275 -112 275 -288c0 -233 -150 -432 -377 -432
c-171 0 -274 112 -274 288c0 233 150 432 376 432zM336 116c120 0 190 175 190 309c0 103 -48 160 -124 160c-120 0 -189 -176 -189 -310c0 -103 48 -159 123 -159z" />
    <glyph glyph-name="uni1ED6" unicode="&#x1ed6;" horiz-adv-x="712" 
d="M914 1040h73c-25 -114 -83 -164 -150 -164c-83 0 -78 58 -128 58c-33 0 -48 -28 -61 -58h-73c26 110 83 164 150 164c82 0 78 -58 128 -58c33 0 48 27 61 58zM440 860l-65 -93h-132l164 173h89l115 -173h-132zM420 710c171 0 275 -112 275 -288
c0 -233 -150 -432 -377 -432c-171 0 -274 112 -274 288c0 233 150 432 376 432zM336 116c120 0 190 175 190 309c0 103 -48 160 -124 160c-120 0 -189 -176 -189 -310c0 -103 48 -159 123 -159z" />
    <glyph glyph-name="Odieresis" unicode="&#xd6;" horiz-adv-x="712" 
d="M314 762c-39 0 -69 30 -69 69c0 46 46 90 91 90c40 0 69 -32 69 -69c0 -48 -44 -90 -91 -90zM540 762c-39 0 -69 30 -69 69c0 46 46 90 91 90c40 0 69 -32 69 -69c0 -48 -44 -90 -91 -90zM420 710c171 0 275 -112 275 -288c0 -233 -150 -432 -377 -432
c-171 0 -274 112 -274 288c0 233 150 432 376 432zM336 116c120 0 190 175 190 309c0 103 -48 160 -124 160c-120 0 -189 -176 -189 -310c0 -103 48 -159 123 -159z" />
    <glyph glyph-name="uni1ECC" unicode="&#x1ecc;" horiz-adv-x="712" 
d="M420 710c171 0 275 -112 275 -288c0 -233 -150 -432 -377 -432c-171 0 -274 112 -274 288c0 233 150 432 376 432zM336 116c120 0 190 175 190 309c0 103 -48 160 -124 160c-120 0 -189 -176 -189 -310c0 -103 48 -159 123 -159zM287 -233c-46 0 -81 39 -74 86
c6 46 52 86 98 86c47 0 80 -40 74 -86c-7 -47 -51 -86 -98 -86z" />
    <glyph glyph-name="Ograve" unicode="&#xd2;" horiz-adv-x="712" 
d="M501 757h-106l-152 143h165zM420 710c171 0 275 -112 275 -288c0 -233 -150 -432 -377 -432c-171 0 -274 112 -274 288c0 233 150 432 376 432zM336 116c120 0 190 175 190 309c0 103 -48 160 -124 160c-120 0 -189 -176 -189 -310c0 -103 48 -159 123 -159z" />
    <glyph glyph-name="uni1ECE" unicode="&#x1ece;" horiz-adv-x="712" 
d="M443 901c-13 0 -26 -13 -32 -31h-91c14 70 70 100 133 100s115 -30 106 -100c-11 -72 -92 -72 -98 -115h-76c9 63 71 70 78 115c2 18 -6 31 -20 31zM420 710c171 0 275 -112 275 -288c0 -233 -150 -432 -377 -432c-171 0 -274 112 -274 288c0 233 150 432 376 432z
M336 116c120 0 190 175 190 309c0 103 -48 160 -124 160c-120 0 -189 -176 -189 -310c0 -103 48 -159 123 -159z" />
    <glyph glyph-name="Ohorn" unicode="&#x1a0;" horiz-adv-x="712" 
d="M819 701c2 -12 3 -25 -1 -43c-10 -76 -69 -131 -130 -159c5 -24 7 -50 7 -77c0 -233 -150 -432 -377 -432c-171 0 -274 112 -274 288c0 233 150 432 376 432c110 0 193 -47 237 -127c16 14 27 39 32 75c4 18 3 31 1 43h129zM336 116c120 0 190 175 190 309
c0 103 -48 160 -124 160c-120 0 -189 -176 -189 -310c0 -103 48 -159 123 -159z" />
    <glyph glyph-name="uni1EDA" unicode="&#x1eda;" horiz-adv-x="712" 
d="M676 900l-193 -143h-106l133 143h166zM819 701c2 -12 3 -25 -1 -43c-10 -76 -69 -131 -130 -159c5 -24 7 -50 7 -77c0 -233 -150 -432 -377 -432c-171 0 -274 112 -274 288c0 233 150 432 376 432c110 0 193 -47 237 -127c16 14 27 39 32 75c4 18 3 31 1 43h129zM336 116
c120 0 190 175 190 309c0 103 -48 160 -124 160c-120 0 -189 -176 -189 -310c0 -103 48 -159 123 -159z" />
    <glyph glyph-name="uni1EE2" unicode="&#x1ee2;" horiz-adv-x="712" 
d="M819 701c2 -12 3 -25 -1 -43c-10 -76 -69 -131 -130 -159c5 -24 7 -50 7 -77c0 -233 -150 -432 -377 -432c-171 0 -274 112 -274 288c0 233 150 432 376 432c110 0 193 -47 237 -127c16 14 27 39 32 75c4 18 3 31 1 43h129zM336 116c120 0 190 175 190 309
c0 103 -48 160 -124 160c-120 0 -189 -176 -189 -310c0 -103 48 -159 123 -159zM311 -61c47 0 80 -40 74 -86c-7 -47 -51 -86 -98 -86c-46 0 -81 39 -74 86c6 46 52 86 98 86z" />
    <glyph glyph-name="uni1EDC" unicode="&#x1edc;" horiz-adv-x="712" 
d="M501 757h-106l-152 143h165zM819 701c2 -12 3 -25 -1 -43c-10 -76 -69 -131 -130 -159c5 -24 7 -50 7 -77c0 -233 -150 -432 -377 -432c-171 0 -274 112 -274 288c0 233 150 432 376 432c110 0 193 -47 237 -127c16 14 27 39 32 75c4 18 3 31 1 43h129zM336 116
c120 0 190 175 190 309c0 103 -48 160 -124 160c-120 0 -189 -176 -189 -310c0 -103 48 -159 123 -159z" />
    <glyph glyph-name="uni1EDE" unicode="&#x1ede;" horiz-adv-x="712" 
d="M443 901c-13 0 -26 -13 -32 -31h-91c14 70 70 100 133 100s115 -30 106 -100c-11 -72 -92 -72 -98 -115h-76c9 63 71 70 78 115c2 18 -6 31 -20 31zM819 701c2 -12 3 -25 -1 -43c-10 -76 -69 -131 -130 -159c5 -24 7 -50 7 -77c0 -233 -150 -432 -377 -432
c-171 0 -274 112 -274 288c0 233 150 432 376 432c110 0 193 -47 237 -127c16 14 27 39 32 75c4 18 3 31 1 43h129zM336 116c120 0 190 175 190 309c0 103 -48 160 -124 160c-120 0 -189 -176 -189 -310c0 -103 48 -159 123 -159z" />
    <glyph glyph-name="uni1EE0" unicode="&#x1ee0;" horiz-adv-x="712" 
d="M371 807c-33 0 -49 -28 -62 -58h-73c26 110 84 164 150 164c83 0 78 -58 128 -58c33 0 48 27 61 58h73c-25 -114 -83 -164 -149 -164c-83 0 -79 58 -128 58zM819 701c2 -12 3 -25 -1 -43c-10 -76 -69 -131 -130 -159c5 -24 7 -50 7 -77c0 -233 -150 -432 -377 -432
c-171 0 -274 112 -274 288c0 233 150 432 376 432c110 0 193 -47 237 -127c16 14 27 39 32 75c4 18 3 31 1 43h129zM336 116c120 0 190 175 190 309c0 103 -48 160 -124 160c-120 0 -189 -176 -189 -310c0 -103 48 -159 123 -159z" />
    <glyph glyph-name="Ohungarumlaut" unicode="&#x150;" horiz-adv-x="712" 
d="M251 757l114 143h166l-174 -143h-106zM450 757l114 143h166l-174 -143h-106zM420 710c171 0 275 -112 275 -288c0 -233 -150 -432 -377 -432c-171 0 -274 112 -274 288c0 233 150 432 376 432zM336 116c120 0 190 175 190 309c0 103 -48 160 -124 160
c-120 0 -189 -176 -189 -310c0 -103 48 -159 123 -159z" />
    <glyph glyph-name="Omacron" unicode="&#x14c;" horiz-adv-x="712" 
d="M260 780l14 96h339l-14 -96h-339zM420 710c171 0 275 -112 275 -288c0 -233 -150 -432 -377 -432c-171 0 -274 112 -274 288c0 233 150 432 376 432zM336 116c120 0 190 175 190 309c0 103 -48 160 -124 160c-120 0 -189 -176 -189 -310c0 -103 48 -159 123 -159z" />
    <glyph glyph-name="Oslash" unicode="&#xd8;" horiz-adv-x="712" 
d="M631 622c41 -49 63 -117 63 -199c0 -236 -147 -433 -376 -433c-69 0 -126 18 -170 50l-46 -56l-57 44l52 63c-35 48 -53 111 -53 186c0 236 148 433 376 433c62 0 115 -14 157 -41l45 55l58 -43zM202 280c0 -20 2 -39 5 -56l278 334c-22 18 -49 27 -83 27
c-129 0 -200 -165 -200 -305zM336 116c129 0 200 164 200 304c0 28 -4 53 -10 75l-284 -342c23 -24 54 -37 94 -37z" />
    <glyph glyph-name="Otilde" unicode="&#xd5;" horiz-adv-x="712" 
d="M371 807c-33 0 -49 -28 -62 -58h-73c26 110 84 164 150 164c83 0 78 -58 128 -58c33 0 48 27 61 58h73c-25 -114 -83 -164 -149 -164c-83 0 -79 58 -128 58zM420 710c171 0 275 -112 275 -288c0 -233 -150 -432 -377 -432c-171 0 -274 112 -274 288
c0 233 150 432 376 432zM336 116c120 0 190 175 190 309c0 103 -48 160 -124 160c-120 0 -189 -176 -189 -310c0 -103 48 -159 123 -159z" />
    <glyph glyph-name="OE" unicode="&#x152;" horiz-adv-x="1002" 
d="M1002 575h-295l-21 -150h266l-18 -126h-266l-24 -173h305l-17 -126h-466l7 53c-44 -39 -100 -63 -169 -63c-153 0 -260 112 -260 297c0 223 157 423 371 423c64 0 111 -17 143 -53l6 43h456zM335 116c123 0 184 173 184 305c0 109 -43 164 -116 164
c-121 0 -190 -180 -190 -307c0 -107 47 -162 122 -162z" />
    <glyph glyph-name="P" unicode="P" horiz-adv-x="599" 
d="M382 700c126 0 233 -53 233 -202c0 -156 -119 -254 -289 -254h-99l-34 -244h-160l98 700h251zM310 370c89 0 147 50 147 124c0 56 -34 81 -112 81h-71l-29 -205h65z" />
    <glyph glyph-name="Thorn" unicode="&#xde;" horiz-adv-x="626" 
d="M380 603c125 0 227 -56 227 -207c0 -163 -119 -285 -297 -285h-106l-16 -111h-160l98 700h160l-14 -97h108zM301 236c95 0 146 62 146 143c0 66 -35 99 -111 99h-81l-34 -242h80z" />
    <glyph glyph-name="Q" unicode="Q" horiz-adv-x="712" 
d="M474 25c12 -74 64 -94 131 -94l-17 -124c-124 0 -220 55 -237 184c-11 -1 -22 -1 -33 -1c-171 0 -274 112 -274 288c0 233 150 432 376 432c171 0 275 -112 275 -288c0 -174 -84 -330 -221 -397zM213 275c0 -103 48 -159 123 -159c120 0 190 175 190 309
c0 103 -48 160 -124 160c-120 0 -189 -176 -189 -310z" />
    <glyph glyph-name="R" unicode="R" horiz-adv-x="646" 
d="M468 313c24 -17 45 -48 58 -96l74 -217h-175l-62 187c-19 55 -36 71 -93 71h-41l-36 -258h-160l98 700h160h101c126 0 225 -51 225 -181c0 -92 -51 -170 -149 -206zM315 383c86 0 141 36 141 111c0 54 -31 81 -114 81h-68l-27 -192h68z" />
    <glyph glyph-name="Racute" unicode="&#x154;" horiz-adv-x="646" 
d="M622 900l-193 -143h-106l133 143h166zM617 519c0 -92 -51 -170 -149 -206c24 -17 45 -48 58 -96l74 -217h-175l-62 187c-19 55 -36 71 -93 71h-41l-36 -258h-160l98 700h160h101c126 0 225 -51 225 -181zM315 383c86 0 141 36 141 111c0 54 -31 81 -114 81h-68l-27 -192
h68z" />
    <glyph glyph-name="Rcaron" unicode="&#x158;" horiz-adv-x="646" 
d="M417 757h-90l-119 143h143l32 -69l51 69h143zM468 313c24 -17 45 -48 58 -96l74 -217h-175l-62 187c-19 55 -36 71 -93 71h-41l-36 -258h-160l98 700h160h101c126 0 225 -51 225 -181c0 -92 -51 -170 -149 -206zM315 383c86 0 141 36 141 111c0 54 -31 81 -114 81h-68
l-27 -192h68z" />
    <glyph glyph-name="Rcommaaccent" unicode="&#x156;" horiz-adv-x="646" 
d="M468 313c24 -17 45 -48 58 -96l74 -217h-175l-62 187c-19 55 -36 71 -93 71h-41l-36 -258h-160l98 700h160h101c126 0 225 -51 225 -181c0 -92 -51 -170 -149 -206zM315 383c86 0 141 36 141 111c0 54 -31 81 -114 81h-68l-27 -192h68zM186 -253l75 188h129l-125 -188
h-79z" />
    <glyph glyph-name="S" unicode="S" horiz-adv-x="609" 
d="M265 -10c-164 0 -237 85 -231 220h153c0 -74 46 -94 97 -94c62 0 107 30 107 75c0 117 -299 63 -299 288c0 144 120 231 279 231c155 0 223 -82 221 -209h-154c-1 62 -32 90 -84 90c-54 0 -96 -30 -96 -77c0 -122 304 -61 304 -285c0 -146 -125 -239 -297 -239z" />
    <glyph glyph-name="Sacute" unicode="&#x15a;" horiz-adv-x="609" 
d="M325 757l133 143h166l-193 -143h-106zM265 -10c-164 0 -237 85 -231 220h153c0 -74 46 -94 97 -94c62 0 107 30 107 75c0 117 -299 63 -299 288c0 144 120 231 279 231c155 0 223 -82 221 -209h-154c-1 62 -32 90 -84 90c-54 0 -96 -30 -96 -77c0 -122 304 -61 304 -285
c0 -146 -125 -239 -297 -239z" />
    <glyph glyph-name="Scaron" unicode="&#x160;" horiz-adv-x="609" 
d="M419 757h-90l-119 143h143l32 -69l51 69h143zM354 591c-54 0 -96 -30 -96 -77c0 -122 304 -61 304 -285c0 -146 -125 -239 -297 -239c-164 0 -237 85 -231 220h153c0 -74 46 -94 97 -94c62 0 107 30 107 75c0 117 -299 63 -299 288c0 144 120 231 279 231
c155 0 223 -82 221 -209h-154c-1 62 -32 90 -84 90z" />
    <glyph glyph-name="Scedilla" unicode="&#x15e;" horiz-adv-x="609" 
d="M354 591c-54 0 -96 -30 -96 -77c0 -122 304 -61 304 -285c0 -134 -106 -224 -257 -237l-22 -39c62 10 110 -21 102 -81c-9 -68 -73 -102 -142 -102c-37 0 -59 8 -80 20l9 63c20 -12 37 -20 57 -20c25 0 47 12 50 34c5 42 -46 39 -102 21l48 104c-136 13 -196 94 -191 218
h153c0 -74 46 -94 97 -94c62 0 107 30 107 75c0 117 -299 63 -299 288c0 144 120 231 279 231c155 0 223 -82 221 -209h-154c-1 62 -32 90 -84 90z" />
    <glyph glyph-name="Scommaaccent" unicode="&#x218;" horiz-adv-x="609" 
d="M265 -10c-164 0 -237 85 -231 220h153c0 -74 46 -94 97 -94c62 0 107 30 107 75c0 117 -299 63 -299 288c0 144 120 231 279 231c155 0 223 -82 221 -209h-154c-1 62 -32 90 -84 90c-54 0 -96 -30 -96 -77c0 -122 304 -61 304 -285c0 -146 -125 -239 -297 -239zM150 -253
l75 188h129l-125 -188h-79z" />
    <glyph glyph-name="uni018F" unicode="&#x18f;" horiz-adv-x="712" 
d="M413 710c164 0 281 -105 281 -296c0 -228 -156 -424 -384 -424c-170 0 -266 107 -266 286c0 24 2 50 6 78l-1 3h154h327c3 18 4 36 4 54c0 120 -59 174 -140 174c-66 0 -130 -36 -166 -127h-150c53 178 198 252 335 252zM329 109c81 0 140 62 173 142h-304
c8 -94 56 -142 131 -142z" />
    <glyph glyph-name="T" unicode="T" horiz-adv-x="578" 
d="M632 700l-18 -125h-200l-81 -575h-160l81 575h-201l18 125h561z" />
    <glyph glyph-name="Tbar" unicode="&#x166;" horiz-adv-x="578" 
d="M614 575h-200l-25 -177h87l-14 -96h-86l-43 -302h-160l43 302h-86l14 96h85l25 177h-201l18 125h561z" />
    <glyph glyph-name="Tcaron" unicode="&#x164;" horiz-adv-x="578" 
d="M406 757h-90l-119 143h143l32 -69l51 69h143zM71 700h561l-18 -125h-200l-81 -575h-160l81 575h-201z" />
    <glyph glyph-name="uni0162" unicode="&#x162;" horiz-adv-x="578" 
d="M71 700h561l-18 -125h-200l-81 -575h-41l-26 -47c62 10 110 -21 102 -81c-9 -68 -73 -102 -142 -102c-37 0 -59 8 -80 20l9 63c20 -12 37 -20 57 -20c25 0 47 12 50 34c5 42 -46 39 -102 21l52 112h-39l81 575h-201z" />
    <glyph glyph-name="uni021A" unicode="&#x21a;" horiz-adv-x="578" 
d="M632 700l-18 -125h-200l-81 -575h-160l81 575h-201l18 125h561zM133 -253l75 188h129l-125 -188h-79z" />
    <glyph glyph-name="U" unicode="U" horiz-adv-x="704" 
d="M543 700h160l-61 -432c-25 -177 -155 -278 -320 -278c-173 0 -281 109 -255 286l59 424h160l-59 -422c-15 -106 14 -162 98 -162c92 0 145 64 159 170z" />
    <glyph glyph-name="Uacute" unicode="&#xda;" horiz-adv-x="704" 
d="M374 757l133 143h166l-193 -143h-106zM543 700h160l-61 -432c-25 -177 -155 -278 -320 -278c-173 0 -281 109 -255 286l59 424h160l-59 -422c-15 -106 14 -162 98 -162c92 0 145 64 159 170z" />
    <glyph glyph-name="uni01D3" unicode="&#x1d3;" horiz-adv-x="704" 
d="M468 757h-90l-119 143h143l32 -69l51 69h143zM543 700h160l-61 -432c-25 -177 -155 -278 -320 -278c-173 0 -281 109 -255 286l59 424h160l-59 -422c-15 -106 14 -162 98 -162c92 0 145 64 159 170z" />
    <glyph glyph-name="Ucircumflex" unicode="&#xdb;" horiz-adv-x="704" 
d="M433 826l-52 -69h-142l160 143h89l119 -143h-142zM543 700h160l-61 -432c-25 -177 -155 -278 -320 -278c-173 0 -281 109 -255 286l59 424h160l-59 -422c-15 -106 14 -162 98 -162c92 0 145 64 159 170z" />
    <glyph glyph-name="Udieresis" unicode="&#xdc;" horiz-adv-x="704" 
d="M311 762c-39 0 -69 30 -69 69c0 46 46 90 91 90c40 0 69 -32 69 -69c0 -48 -44 -90 -91 -90zM537 762c-39 0 -69 30 -69 69c0 46 46 90 91 90c40 0 69 -32 69 -69c0 -48 -44 -90 -91 -90zM543 700h160l-61 -432c-25 -177 -155 -278 -320 -278c-173 0 -281 109 -255 286
l59 424h160l-59 -422c-15 -106 14 -162 98 -162c92 0 145 64 159 170z" />
    <glyph glyph-name="uni01D7" unicode="&#x1d7;" horiz-adv-x="704" 
d="M401 953l133 143h166l-193 -143h-106zM311 762c-39 0 -69 30 -69 69c0 46 46 90 91 90c40 0 69 -32 69 -69c0 -48 -44 -90 -91 -90zM537 762c-39 0 -69 30 -69 69c0 46 46 90 91 90c40 0 69 -32 69 -69c0 -48 -44 -90 -91 -90zM543 700h160l-61 -432
c-25 -177 -155 -278 -320 -278c-173 0 -281 109 -255 286l59 424h160l-59 -422c-15 -106 14 -162 98 -162c92 0 145 64 159 170z" />
    <glyph glyph-name="uni01D9" unicode="&#x1d9;" horiz-adv-x="704" 
d="M495 953h-90l-119 143h143l32 -69l51 69h143zM311 762c-39 0 -69 30 -69 69c0 46 46 90 91 90c40 0 69 -32 69 -69c0 -48 -44 -90 -91 -90zM468 831c0 46 46 90 91 90c40 0 69 -32 69 -69c0 -48 -44 -90 -91 -90c-39 0 -69 30 -69 69zM543 700h160l-61 -432
c-25 -177 -155 -278 -320 -278c-173 0 -281 109 -255 286l59 424h160l-59 -422c-15 -106 14 -162 98 -162c92 0 145 64 159 170z" />
    <glyph glyph-name="uni01DB" unicode="&#x1db;" horiz-adv-x="704" 
d="M525 953h-106l-152 143h165zM311 762c-39 0 -69 30 -69 69c0 46 46 90 91 90c40 0 69 -32 69 -69c0 -48 -44 -90 -91 -90zM537 762c-39 0 -69 30 -69 69c0 46 46 90 91 90c40 0 69 -32 69 -69c0 -48 -44 -90 -91 -90zM543 700h160l-61 -432c-25 -177 -155 -278 -320 -278
c-173 0 -281 109 -255 286l59 424h160l-59 -422c-15 -106 14 -162 98 -162c92 0 145 64 159 170z" />
    <glyph glyph-name="uni01D5" unicode="&#x1d5;" horiz-adv-x="704" 
d="M284 976l14 96h339l-14 -96h-339zM311 762c-39 0 -69 30 -69 69c0 46 46 90 91 90c40 0 69 -32 69 -69c0 -48 -44 -90 -91 -90zM537 762c-39 0 -69 30 -69 69c0 46 46 90 91 90c40 0 69 -32 69 -69c0 -48 -44 -90 -91 -90zM543 700h160l-61 -432
c-25 -177 -155 -278 -320 -278c-173 0 -281 109 -255 286l59 424h160l-59 -422c-15 -106 14 -162 98 -162c92 0 145 64 159 170z" />
    <glyph glyph-name="uni1EE4" unicode="&#x1ee4;" horiz-adv-x="704" 
d="M543 700h160l-61 -432c-25 -177 -155 -278 -320 -278c-173 0 -281 109 -255 286l59 424h160l-59 -422c-15 -106 14 -162 98 -162c92 0 145 64 159 170zM283 -233c-46 0 -81 39 -74 86c6 46 52 86 98 86c47 0 80 -40 74 -86c-7 -47 -51 -86 -98 -86z" />
    <glyph glyph-name="Ugrave" unicode="&#xd9;" horiz-adv-x="704" 
d="M498 757h-106l-152 143h165zM543 700h160l-61 -432c-25 -177 -155 -278 -320 -278c-173 0 -281 109 -255 286l59 424h160l-59 -422c-15 -106 14 -162 98 -162c92 0 145 64 159 170z" />
    <glyph glyph-name="uni1EE6" unicode="&#x1ee6;" horiz-adv-x="704" 
d="M440 901c-13 0 -26 -13 -32 -31h-91c14 70 70 100 133 100s115 -30 106 -100c-11 -72 -92 -72 -98 -115h-76c9 63 71 70 78 115c2 18 -6 31 -20 31zM543 700h160l-61 -432c-25 -177 -155 -278 -320 -278c-173 0 -281 109 -255 286l59 424h160l-59 -422
c-15 -106 14 -162 98 -162c92 0 145 64 159 170z" />
    <glyph glyph-name="Uhorn" unicode="&#x1af;" horiz-adv-x="808" 
d="M880 700c2 -12 3 -25 -1 -43c-14 -108 -127 -175 -207 -178l-30 -211c-25 -177 -155 -278 -320 -278c-173 0 -281 109 -255 286l59 424h160l-59 -422c-15 -106 14 -162 98 -162c92 0 145 64 159 170l59 414h160l-19 -134c31 2 58 32 66 91c4 18 3 31 1 43h129z" />
    <glyph glyph-name="uni1EE8" unicode="&#x1ee8;" horiz-adv-x="808" 
d="M673 900l-193 -143h-106l133 143h166zM880 700c2 -12 3 -25 -1 -43c-14 -108 -127 -175 -207 -178l-30 -211c-25 -177 -155 -278 -320 -278c-173 0 -281 109 -255 286l59 424h160l-59 -422c-15 -106 14 -162 98 -162c92 0 145 64 159 170l59 414h160l-19 -134
c31 2 58 32 66 91c4 18 3 31 1 43h129z" />
    <glyph glyph-name="uni1EF0" unicode="&#x1ef0;" horiz-adv-x="808" 
d="M880 700c2 -12 3 -25 -1 -43c-14 -108 -127 -175 -207 -178l-30 -211c-25 -177 -155 -278 -320 -278c-173 0 -281 109 -255 286l59 424h160l-59 -422c-15 -106 14 -162 98 -162c92 0 145 64 159 170l59 414h160l-19 -134c31 2 58 32 66 91c4 18 3 31 1 43h129zM307 -61
c47 0 80 -40 74 -86c-7 -47 -51 -86 -98 -86c-46 0 -81 39 -74 86c6 46 52 86 98 86z" />
    <glyph glyph-name="uni1EEA" unicode="&#x1eea;" horiz-adv-x="808" 
d="M498 757h-106l-152 143h165zM880 700c2 -12 3 -25 -1 -43c-14 -108 -127 -175 -207 -178l-30 -211c-25 -177 -155 -278 -320 -278c-173 0 -281 109 -255 286l59 424h160l-59 -422c-15 -106 14 -162 98 -162c92 0 145 64 159 170l59 414h160l-19 -134c31 2 58 32 66 91
c4 18 3 31 1 43h129z" />
    <glyph glyph-name="uni1EEC" unicode="&#x1eec;" horiz-adv-x="808" 
d="M440 901c-13 0 -26 -13 -32 -31h-91c14 70 70 100 133 100s115 -30 106 -100c-11 -72 -92 -72 -98 -115h-76c9 63 71 70 78 115c2 18 -6 31 -20 31zM880 700c2 -12 3 -25 -1 -43c-14 -108 -127 -175 -207 -178l-30 -211c-25 -177 -155 -278 -320 -278
c-173 0 -281 109 -255 286l59 424h160l-59 -422c-15 -106 14 -162 98 -162c92 0 145 64 159 170l59 414h160l-19 -134c31 2 58 32 66 91c4 18 3 31 1 43h129z" />
    <glyph glyph-name="uni1EEE" unicode="&#x1eee;" horiz-adv-x="808" 
d="M368 807c-33 0 -49 -28 -62 -58h-73c26 110 84 164 150 164c83 0 78 -58 128 -58c33 0 48 27 61 58h73c-25 -114 -83 -164 -149 -164c-83 0 -79 58 -128 58zM880 700c2 -12 3 -25 -1 -43c-14 -108 -127 -175 -207 -178l-30 -211c-25 -177 -155 -278 -320 -278
c-173 0 -281 109 -255 286l59 424h160l-59 -422c-15 -106 14 -162 98 -162c92 0 145 64 159 170l59 414h160l-19 -134c31 2 58 32 66 91c4 18 3 31 1 43h129z" />
    <glyph glyph-name="Uhungarumlaut" unicode="&#x170;" horiz-adv-x="704" 
d="M248 757l114 143h166l-174 -143h-106zM447 757l114 143h166l-174 -143h-106zM543 700h160l-61 -432c-25 -177 -155 -278 -320 -278c-173 0 -281 109 -255 286l59 424h160l-59 -422c-15 -106 14 -162 98 -162c92 0 145 64 159 170z" />
    <glyph glyph-name="Umacron" unicode="&#x16a;" horiz-adv-x="704" 
d="M257 780l14 96h339l-14 -96h-339zM543 700h160l-61 -432c-25 -177 -155 -278 -320 -278c-173 0 -281 109 -255 286l59 424h160l-59 -422c-15 -106 14 -162 98 -162c92 0 145 64 159 170z" />
    <glyph glyph-name="Uogonek" unicode="&#x172;" horiz-adv-x="704" 
d="M543 700h160l-61 -432c-21 -150 -118 -246 -248 -271c-39 -30 -69 -65 -71 -96c-2 -22 10 -37 35 -37c15 0 33 5 49 11l-11 -82c-24 -12 -55 -23 -90 -23c-69 0 -114 39 -109 97c3 49 34 90 82 125c-148 17 -236 122 -212 284l59 424h160l-59 -422
c-15 -106 14 -162 98 -162c92 0 145 64 159 170z" />
    <glyph glyph-name="Uring" unicode="&#x16e;" horiz-adv-x="704" 
d="M423 717c-70 0 -121 55 -111 125c9 69 77 124 146 124s121 -55 111 -124c-9 -70 -77 -125 -146 -125zM434 797c25 0 47 20 50 45c3 24 -12 44 -37 44s-47 -20 -50 -44c-3 -25 12 -45 37 -45zM543 700h160l-61 -432c-25 -177 -155 -278 -320 -278
c-173 0 -281 109 -255 286l59 424h160l-59 -422c-15 -106 14 -162 98 -162c92 0 145 64 159 170z" />
    <glyph glyph-name="Utilde" unicode="&#x168;" horiz-adv-x="704" 
d="M368 807c-33 0 -49 -28 -62 -58h-73c26 110 84 164 150 164c83 0 78 -58 128 -58c33 0 48 27 61 58h73c-25 -114 -83 -164 -149 -164c-83 0 -79 58 -128 58zM543 700h160l-61 -432c-25 -177 -155 -278 -320 -278c-173 0 -281 109 -255 286l59 424h160l-59 -422
c-15 -106 14 -162 98 -162c92 0 145 64 159 170z" />
    <glyph glyph-name="V" unicode="V" horiz-adv-x="635" 
d="M521 700h167l-301 -700h-197l-119 700h171l71 -521z" />
    <glyph glyph-name="W" unicode="W" horiz-adv-x="933" 
d="M821 700h166l-268 -700h-189l-45 381l-153 -381h-190l-71 700h172l22 -528l189 485h135l52 -485z" />
    <glyph glyph-name="Wacute" unicode="&#x1e82;" horiz-adv-x="933" 
d="M487 757l133 143h166l-193 -143h-106zM821 700h166l-268 -700h-189l-45 381l-153 -381h-190l-71 700h172l22 -528l189 485h135l52 -485z" />
    <glyph glyph-name="Wcircumflex" unicode="&#x174;" horiz-adv-x="933" 
d="M546 826l-52 -69h-142l160 143h89l119 -143h-142zM821 700h166l-268 -700h-189l-45 381l-153 -381h-190l-71 700h172l22 -528l189 485h135l52 -485z" />
    <glyph glyph-name="Wdieresis" unicode="&#x1e84;" horiz-adv-x="933" 
d="M424 762c-39 0 -69 30 -69 69c0 46 46 90 91 90c40 0 69 -32 69 -69c0 -48 -44 -90 -91 -90zM650 762c-39 0 -69 30 -69 69c0 46 46 90 91 90c40 0 69 -32 69 -69c0 -48 -44 -90 -91 -90zM821 700h166l-268 -700h-189l-45 381l-153 -381h-190l-71 700h172l22 -528
l189 485h135l52 -485z" />
    <glyph glyph-name="Wgrave" unicode="&#x1e80;" horiz-adv-x="933" 
d="M611 757h-106l-152 143h165zM821 700h166l-268 -700h-189l-45 381l-153 -381h-190l-71 700h172l22 -528l189 485h135l52 -485z" />
    <glyph glyph-name="X" unicode="X" horiz-adv-x="666" 
d="M621 0h-182l-115 216l-166 -216h-186l281 357l-176 343h182l111 -207l159 207h183l-274 -345z" />
    <glyph glyph-name="Y" unicode="Y" horiz-adv-x="657" 
d="M217 0l38 265l-184 435h176l109 -284l181 284h174l-296 -436l-38 -264h-160z" />
    <glyph glyph-name="Yacute" unicode="&#xdd;" horiz-adv-x="657" 
d="M352 757l133 143h166l-193 -143h-106zM217 0l38 265l-184 435h176l109 -284l181 284h174l-296 -436l-38 -264h-160z" />
    <glyph glyph-name="Ycircumflex" unicode="&#x176;" horiz-adv-x="657" 
d="M411 826l-52 -69h-142l160 143h89l119 -143h-142zM537 700h174l-296 -436l-38 -264h-160l38 265l-184 435h176l109 -284z" />
    <glyph glyph-name="Ydieresis" unicode="&#x178;" horiz-adv-x="657" 
d="M289 762c-39 0 -69 30 -69 69c0 46 46 90 91 90c40 0 69 -32 69 -69c0 -48 -44 -90 -91 -90zM515 762c-39 0 -69 30 -69 69c0 46 46 90 91 90c40 0 69 -32 69 -69c0 -48 -44 -90 -91 -90zM217 0l38 265l-184 435h176l109 -284l181 284h174l-296 -436l-38 -264h-160z" />
    <glyph glyph-name="uni1EF4" unicode="&#x1ef4;" horiz-adv-x="657" 
d="M217 0l38 265l-184 435h176l109 -284l181 284h174l-296 -436l-38 -264h-160zM263 -233c-46 0 -81 39 -74 86c6 46 52 86 98 86c47 0 80 -40 74 -86c-7 -47 -51 -86 -98 -86z" />
    <glyph glyph-name="Ygrave" unicode="&#x1ef2;" horiz-adv-x="657" 
d="M476 757h-106l-152 143h165zM217 0l38 265l-184 435h176l109 -284l181 284h174l-296 -436l-38 -264h-160z" />
    <glyph glyph-name="uni1EF6" unicode="&#x1ef6;" horiz-adv-x="657" 
d="M418 901c-13 0 -26 -13 -32 -31h-91c14 70 70 100 133 100s115 -30 106 -100c-11 -72 -92 -72 -98 -115h-76c9 63 71 70 78 115c2 18 -6 31 -20 31zM537 700h174l-296 -436l-38 -264h-160l38 265l-184 435h176l109 -284z" />
    <glyph glyph-name="uni1EF8" unicode="&#x1ef8;" horiz-adv-x="657" 
d="M346 807c-33 0 -49 -28 -62 -58h-73c26 110 84 164 150 164c83 0 78 -58 128 -58c33 0 48 27 61 58h73c-25 -114 -83 -164 -149 -164c-83 0 -79 58 -128 58zM537 700h174l-296 -436l-38 -264h-160l38 265l-184 435h176l109 -284z" />
    <glyph glyph-name="Z" unicode="Z" horiz-adv-x="606" 
d="M222 126h347l-18 -126h-567l11 86l407 489h-317l17 125h537l-10 -86z" />
    <glyph glyph-name="Zacute" unicode="&#x179;" horiz-adv-x="606" 
d="M335 757l133 143h166l-193 -143h-106zM222 126h347l-18 -126h-567l11 86l407 489h-317l17 125h537l-10 -86z" />
    <glyph glyph-name="Zcaron" unicode="&#x17d;" horiz-adv-x="606" 
d="M429 757h-90l-119 143h143l32 -69l51 69h143zM639 700l-10 -86l-407 -488h347l-18 -126h-567l11 86l407 489h-317l17 125h537z" />
    <glyph glyph-name="Zdotaccent" unicode="&#x17b;" horiz-adv-x="606" 
d="M387 748c-42 0 -75 34 -75 76c0 51 50 96 99 96c43 0 75 -35 75 -76c0 -52 -48 -96 -99 -96zM222 126h347l-18 -126h-567l11 86l407 489h-317l17 125h537l-10 -86z" />
    <glyph glyph-name="a" unicode="a" 
d="M197 -10c-99 0 -171 61 -171 205c0 164 89 328 247 328c56 0 96 -21 123 -60l7 50h155l-73 -513h-155l8 50c-39 -39 -85 -60 -141 -60zM257 104c71 0 114 123 114 205c0 71 -36 100 -71 100c-69 0 -112 -123 -112 -208c0 -67 32 -97 69 -97z" />
    <glyph glyph-name="aacute" unicode="&#xe1;" 
d="M288 580l94 173h156l-161 -173h-89zM197 -10c-99 0 -171 61 -171 205c0 164 89 328 247 328c56 0 96 -21 123 -60l7 50h155l-73 -513h-155l8 50c-39 -39 -85 -60 -141 -60zM257 104c71 0 114 123 114 205c0 71 -36 100 -71 100c-69 0 -112 -123 -112 -208
c0 -67 32 -97 69 -97z" />
    <glyph glyph-name="abreve" unicode="&#x103;" 
d="M337 580c-105 0 -149 70 -145 173h86c7 -54 26 -77 73 -77s71 23 94 77h86c-25 -103 -88 -173 -194 -173zM403 513h155l-73 -513h-155l8 50c-39 -39 -85 -60 -141 -60c-99 0 -171 61 -171 205c0 164 89 328 247 328c56 0 96 -21 123 -60zM257 104c71 0 114 123 114 205
c0 71 -36 100 -71 100c-69 0 -112 -123 -112 -208c0 -67 32 -97 69 -97z" />
    <glyph glyph-name="uni1EAF" unicode="&#x1eaf;" 
d="M568 966l-160 -173h-89l94 173h155zM338 580c-105 0 -149 70 -145 173h86c8 -54 26 -77 73 -77s71 23 94 77h86c-24 -103 -88 -173 -194 -173zM396 463l7 50h155l-73 -513h-155l8 50c-39 -39 -85 -60 -141 -60c-99 0 -171 61 -171 205c0 164 89 328 247 328
c56 0 96 -21 123 -60zM257 104c71 0 114 123 114 205c0 71 -36 100 -71 100c-69 0 -112 -123 -112 -208c0 -67 32 -97 69 -97z" />
    <glyph glyph-name="uni1EB7" unicode="&#x1eb7;" 
d="M337 580c-105 0 -149 70 -145 173h86c7 -54 26 -77 73 -77s71 23 94 77h86c-25 -103 -88 -173 -194 -173zM403 513h155l-73 -513h-155l8 50c-39 -39 -85 -60 -141 -60c-99 0 -171 61 -171 205c0 164 89 328 247 328c56 0 96 -21 123 -60zM257 104c71 0 114 123 114 205
c0 71 -36 100 -71 100c-69 0 -112 -123 -112 -208c0 -67 32 -97 69 -97zM247 -61c47 0 80 -40 74 -86c-7 -47 -51 -86 -98 -86c-46 0 -81 39 -74 86c6 46 52 86 98 86z" />
    <glyph glyph-name="uni1EB1" unicode="&#x1eb1;" 
d="M441 793h-89l-112 173h156zM338 580c-105 0 -149 70 -145 173h86c8 -54 26 -77 73 -77s71 23 94 77h86c-24 -103 -88 -173 -194 -173zM403 513h155l-73 -513h-155l8 50c-39 -39 -85 -60 -141 -60c-99 0 -171 61 -171 205c0 164 89 328 247 328c56 0 96 -21 123 -60z
M257 104c71 0 114 123 114 205c0 71 -36 100 -71 100c-69 0 -112 -123 -112 -208c0 -67 32 -97 69 -97z" />
    <glyph glyph-name="uni1EB3" unicode="&#x1eb3;" 
d="M383 927c-13 0 -27 -13 -33 -31h-91c15 70 71 100 134 100s115 -30 105 -100c-10 -72 -91 -72 -97 -115h-76c8 62 71 70 77 115c3 18 -5 31 -19 31zM337 580c-105 0 -149 70 -145 173h86c7 -54 26 -77 73 -77s71 23 94 77h86c-24 -103 -88 -173 -194 -173zM403 513h155
l-73 -513h-155l8 50c-39 -39 -85 -60 -141 -60c-99 0 -171 61 -171 205c0 164 89 328 247 328c56 0 96 -21 123 -60zM257 104c71 0 114 123 114 205c0 71 -36 100 -71 100c-69 0 -112 -123 -112 -208c0 -67 32 -97 69 -97z" />
    <glyph glyph-name="uni1EB5" unicode="&#x1eb5;" 
d="M315 863c-33 0 -48 -28 -61 -58h-73c25 110 83 164 149 164c83 0 79 -58 128 -58c34 0 49 27 62 58h73c-26 -114 -83 -164 -149 -164c-83 0 -79 58 -129 58zM351 676c47 0 71 23 94 77h86c-25 -103 -89 -173 -194 -173c-106 0 -150 70 -145 173h86c7 -54 26 -77 73 -77z
M396 463l7 50h155l-73 -513h-155l8 50c-39 -39 -85 -60 -141 -60c-99 0 -171 61 -171 205c0 164 89 328 247 328c56 0 96 -21 123 -60zM257 104c71 0 114 123 114 205c0 71 -36 100 -71 100c-69 0 -112 -123 -112 -208c0 -67 32 -97 69 -97z" />
    <glyph glyph-name="uni01CE" unicode="&#x1ce;" 
d="M382 580h-90l-115 173h133l38 -92l65 92h133zM403 513h155l-73 -513h-155l8 50c-39 -39 -85 -60 -141 -60c-99 0 -171 61 -171 205c0 164 89 328 247 328c56 0 96 -21 123 -60zM257 104c71 0 114 123 114 205c0 71 -36 100 -71 100c-69 0 -112 -123 -112 -208
c0 -67 32 -97 69 -97z" />
    <glyph glyph-name="acircumflex" unicode="&#xe2;" 
d="M350 673l-65 -93h-132l164 173h89l115 -173h-132zM403 513h155l-73 -513h-155l8 50c-39 -39 -85 -60 -141 -60c-99 0 -171 61 -171 205c0 164 89 328 247 328c56 0 96 -21 123 -60zM257 104c71 0 114 123 114 205c0 71 -36 100 -71 100c-69 0 -112 -123 -112 -208
c0 -67 32 -97 69 -97z" />
    <glyph glyph-name="uni1EA5" unicode="&#x1ea5;" 
d="M588 863h155l-160 -173h-89zM351 672l-65 -92h-133l164 173h90l115 -173h-133zM396 463l7 50h155l-73 -513h-155l8 50c-39 -39 -85 -60 -141 -60c-99 0 -171 61 -171 205c0 164 89 328 247 328c56 0 96 -21 123 -60zM257 104c71 0 114 123 114 205c0 71 -36 100 -71 100
c-69 0 -112 -123 -112 -208c0 -67 32 -97 69 -97z" />
    <glyph glyph-name="uni1EAD" unicode="&#x1ead;" 
d="M350 673l-65 -93h-132l164 173h89l115 -173h-132zM403 513h155l-73 -513h-155l8 50c-39 -39 -85 -60 -141 -60c-99 0 -171 61 -171 205c0 164 89 328 247 328c56 0 96 -21 123 -60zM257 104c71 0 114 123 114 205c0 71 -36 100 -71 100c-69 0 -112 -123 -112 -208
c0 -67 32 -97 69 -97zM247 -61c47 0 80 -40 74 -86c-7 -47 -51 -86 -98 -86c-46 0 -81 39 -74 86c6 46 52 86 98 86z" />
    <glyph glyph-name="uni1EA7" unicode="&#x1ea7;" 
d="M616 690h-89l-112 173h156zM351 672l-65 -92h-133l164 173h90l115 -173h-133zM396 463l7 50h155l-73 -513h-155l8 50c-39 -39 -85 -60 -141 -60c-99 0 -171 61 -171 205c0 164 89 328 247 328c56 0 96 -21 123 -60zM257 104c71 0 114 123 114 205c0 71 -36 100 -71 100
c-69 0 -112 -123 -112 -208c0 -67 32 -97 69 -97z" />
    <glyph glyph-name="uni1EA9" unicode="&#x1ea9;" 
d="M569 893c63 0 115 -30 105 -100c-10 -72 -91 -72 -97 -115h-76c9 63 71 70 77 115c3 18 -5 31 -19 31c-13 0 -26 -13 -33 -31h-91c15 70 71 100 134 100zM350 673l-64 -93h-133l164 173h89l115 -173h-132zM396 463l7 50h155l-73 -513h-155l8 50c-39 -39 -85 -60 -141 -60
c-99 0 -171 61 -171 205c0 164 89 328 247 328c56 0 96 -21 123 -60zM257 104c71 0 114 123 114 205c0 71 -36 100 -71 100c-69 0 -112 -123 -112 -208c0 -67 32 -97 69 -97z" />
    <glyph glyph-name="uni1EAB" unicode="&#x1eab;" 
d="M824 853h73c-25 -114 -83 -164 -150 -164c-83 0 -78 58 -128 58c-33 0 -48 -28 -61 -58h-73c26 110 83 164 150 164c82 0 78 -58 128 -58c33 0 48 27 61 58zM350 673l-65 -93h-132l164 173h89l115 -173h-132zM396 463l7 50h155l-73 -513h-155l8 50
c-39 -39 -85 -60 -141 -60c-99 0 -171 61 -171 205c0 164 89 328 247 328c56 0 96 -21 123 -60zM257 104c71 0 114 123 114 205c0 71 -36 100 -71 100c-69 0 -112 -123 -112 -208c0 -67 32 -97 69 -97z" />
    <glyph glyph-name="adieresis" unicode="&#xe4;" 
d="M226 589c-39 0 -69 30 -69 69c0 46 46 90 91 90c40 0 69 -32 69 -69c0 -48 -44 -90 -91 -90zM452 589c-39 0 -69 30 -69 69c0 46 46 90 91 90c40 0 69 -32 69 -69c0 -48 -44 -90 -91 -90zM197 -10c-99 0 -171 61 -171 205c0 164 89 328 247 328c56 0 96 -21 123 -60l7 50
h155l-73 -513h-155l8 50c-39 -39 -85 -60 -141 -60zM257 104c71 0 114 123 114 205c0 71 -36 100 -71 100c-69 0 -112 -123 -112 -208c0 -67 32 -97 69 -97z" />
    <glyph glyph-name="uni1EA1" unicode="&#x1ea1;" 
d="M197 -10c-99 0 -171 61 -171 205c0 164 89 328 247 328c56 0 96 -21 123 -60l7 50h155l-73 -513h-155l8 50c-39 -39 -85 -60 -141 -60zM257 104c71 0 114 123 114 205c0 71 -36 100 -71 100c-69 0 -112 -123 -112 -208c0 -67 32 -97 69 -97zM223 -233
c-46 0 -81 39 -74 86c6 46 52 86 98 86c47 0 80 -40 74 -86c-7 -47 -51 -86 -98 -86z" />
    <glyph glyph-name="agrave" unicode="&#xe0;" 
d="M410 580h-89l-112 173h156zM197 -10c-99 0 -171 61 -171 205c0 164 89 328 247 328c56 0 96 -21 123 -60l7 50h155l-73 -513h-155l8 50c-39 -39 -85 -60 -141 -60zM257 104c71 0 114 123 114 205c0 71 -36 100 -71 100c-69 0 -112 -123 -112 -208c0 -67 32 -97 69 -97z
" />
    <glyph glyph-name="uni1EA3" unicode="&#x1ea3;" 
d="M353 714c-13 0 -26 -13 -32 -31h-91c14 70 70 100 133 100s115 -30 106 -100c-11 -72 -92 -72 -98 -115h-76c9 63 71 70 78 115c2 18 -6 31 -20 31zM403 513h155l-73 -513h-155l8 50c-39 -39 -85 -60 -141 -60c-99 0 -171 61 -171 205c0 164 89 328 247 328
c56 0 96 -21 123 -60zM257 104c71 0 114 123 114 205c0 71 -36 100 -71 100c-69 0 -112 -123 -112 -208c0 -67 32 -97 69 -97z" />
    <glyph glyph-name="amacron" unicode="&#x101;" 
d="M173 620l14 96h339l-14 -96h-339zM197 -10c-99 0 -171 61 -171 205c0 164 89 328 247 328c56 0 96 -21 123 -60l7 50h155l-73 -513h-155l8 50c-39 -39 -85 -60 -141 -60zM257 104c71 0 114 123 114 205c0 71 -36 100 -71 100c-69 0 -112 -123 -112 -208
c0 -67 32 -97 69 -97z" />
    <glyph glyph-name="aogonek" unicode="&#x105;" 
d="M428 0c-41 -30 -73 -67 -75 -99c-2 -22 10 -37 35 -37c15 0 33 5 49 11l-11 -82c-24 -12 -55 -23 -90 -23c-69 0 -114 39 -109 97c4 57 44 102 104 141l7 42c-39 -39 -85 -60 -141 -60c-99 0 -171 61 -171 205c0 164 89 328 247 328c56 0 96 -21 123 -60l7 50h155
l-73 -513h-57zM257 104c71 0 114 123 114 205c0 71 -36 100 -71 100c-69 0 -112 -123 -112 -208c0 -67 32 -97 69 -97z" />
    <glyph glyph-name="aring" unicode="&#xe5;" 
d="M335 560c-70 0 -121 55 -111 125c9 69 77 124 146 124s121 -55 111 -124c-9 -70 -77 -125 -146 -125zM346 640c25 0 47 20 50 45c3 24 -12 44 -37 44s-47 -20 -50 -44c-3 -25 12 -45 37 -45zM197 -10c-99 0 -171 61 -171 205c0 164 89 328 247 328c56 0 96 -21 123 -60
l7 50h155l-73 -513h-155l8 50c-39 -39 -85 -60 -141 -60zM257 104c71 0 114 123 114 205c0 71 -36 100 -71 100c-69 0 -112 -123 -112 -208c0 -67 32 -97 69 -97z" />
    <glyph glyph-name="atilde" unicode="&#xe3;" 
d="M285 650c-33 0 -49 -28 -62 -58h-73c26 110 84 164 150 164c83 0 78 -58 128 -58c33 0 48 27 61 58h73c-25 -114 -83 -164 -149 -164c-83 0 -79 58 -128 58zM396 463l7 50h155l-73 -513h-155l8 50c-39 -39 -85 -60 -141 -60c-99 0 -171 61 -171 205c0 164 89 328 247 328
c56 0 96 -21 123 -60zM257 104c71 0 114 123 114 205c0 71 -36 100 -71 100c-69 0 -112 -123 -112 -208c0 -67 32 -97 69 -97z" />
    <glyph glyph-name="ae" unicode="&#xe6;" horiz-adv-x="824" 
d="M793 250h-319c-3 -17 -4 -34 -4 -48c0 -66 27 -98 70 -98c36 0 72 22 90 67h147c-35 -112 -122 -181 -253 -181c-86 0 -155 32 -189 99c-49 -62 -114 -99 -189 -99c-77 0 -133 44 -133 130c0 140 158 209 307 194l1 7c1 6 1 13 1 19c0 46 -28 66 -77 66
s-102 -20 -147 -40l18 127c43 14 104 30 173 30c50 0 112 -9 152 -49c45 31 101 49 164 49c103 0 193 -47 193 -202c0 -21 -1 -45 -5 -71zM586 421c-41 0 -71 -38 -90 -86h149c5 51 -15 86 -59 86zM304 199l4 31c-72 9 -143 -24 -143 -88c0 -30 17 -43 41 -43
c39 0 89 38 98 100z" />
    <glyph glyph-name="aeacute" unicode="&#x1fd;" horiz-adv-x="824" 
d="M623 753l-161 -173h-89l94 173h156zM793 250h-319c-3 -17 -4 -34 -4 -48c0 -66 27 -98 70 -98c36 0 72 22 90 67h147c-35 -112 -122 -181 -253 -181c-86 0 -155 32 -189 99c-49 -62 -114 -99 -189 -99c-77 0 -133 44 -133 130c0 140 158 209 307 194l1 7c1 6 1 13 1 19
c0 46 -28 66 -77 66s-102 -20 -147 -40l18 127c43 14 104 30 173 30c50 0 112 -9 152 -49c45 31 101 49 164 49c103 0 193 -47 193 -202c0 -21 -1 -45 -5 -71zM586 421c-41 0 -71 -38 -90 -86h149c5 51 -15 86 -59 86zM304 199l4 31c-72 9 -143 -24 -143 -88
c0 -30 17 -43 41 -43c39 0 89 38 98 100z" />
    <glyph glyph-name="b" unicode="b" horiz-adv-x="570" 
d="M372 523c100 0 172 -61 172 -205c0 -164 -90 -328 -247 -328c-56 0 -96 21 -123 60l-7 -50h-155l104 740h155l-39 -277c38 39 84 60 140 60zM270 104c68 0 112 123 112 208c0 67 -31 97 -69 97c-71 0 -114 -123 -114 -205c0 -71 36 -100 71 -100z" />
    <glyph glyph-name="c" unicode="c" horiz-adv-x="520" 
d="M254 104c37 0 71 28 90 84h146c-35 -125 -122 -198 -253 -198c-126 0 -214 69 -214 220c0 170 113 313 291 313c131 0 195 -77 195 -198h-147c-4 46 -25 84 -64 84c-73 0 -114 -124 -114 -207c0 -65 26 -98 70 -98z" />
    <glyph glyph-name="cacute" unicode="&#x107;" horiz-adv-x="520" 
d="M272 580l94 173h156l-161 -173h-89zM254 104c37 0 71 28 90 84h146c-35 -125 -122 -198 -253 -198c-126 0 -214 69 -214 220c0 170 113 313 291 313c131 0 195 -77 195 -198h-147c-4 46 -25 84 -64 84c-73 0 -114 -124 -114 -207c0 -65 26 -98 70 -98z" />
    <glyph glyph-name="ccaron" unicode="&#x10d;" horiz-adv-x="520" 
d="M366 580h-90l-115 173h133l38 -92l65 92h133zM298 409c-73 0 -114 -124 -114 -207c0 -65 26 -98 70 -98c37 0 71 28 90 84h146c-35 -125 -122 -198 -253 -198c-126 0 -214 69 -214 220c0 170 113 313 291 313c131 0 195 -77 195 -198h-147c-4 46 -25 84 -64 84z" />
    <glyph glyph-name="ccedilla" unicode="&#xe7;" horiz-adv-x="520" 
d="M254 104c37 0 71 28 90 84h146c-31 -112 -104 -182 -213 -196l-22 -39c62 10 110 -21 102 -81c-9 -68 -73 -102 -142 -102c-37 0 -59 8 -80 20l9 63c20 -12 37 -20 57 -20c25 0 47 12 50 34c5 42 -46 39 -102 21l49 104c-105 14 -175 83 -175 218c0 170 113 313 291 313
c131 0 195 -77 195 -198h-147c-4 46 -25 84 -64 84c-73 0 -114 -124 -114 -207c0 -65 26 -98 70 -98z" />
    <glyph glyph-name="cdotaccent" unicode="&#x10b;" horiz-adv-x="520" 
d="M321 575c-42 0 -75 34 -75 76c0 51 49 96 99 96c43 0 75 -35 75 -76c0 -52 -48 -96 -99 -96zM254 104c37 0 71 28 90 84h146c-35 -125 -122 -198 -253 -198c-126 0 -214 69 -214 220c0 170 113 313 291 313c131 0 195 -77 195 -198h-147c-4 46 -25 84 -64 84
c-73 0 -114 -124 -114 -207c0 -65 26 -98 70 -98z" />
    <glyph glyph-name="d" unicode="d" horiz-adv-x="571" 
d="M435 740h155l-104 -740h-155l7 50c-38 -39 -85 -60 -141 -60c-99 0 -171 61 -171 205c0 164 89 328 247 328c55 0 96 -21 123 -60zM257 104c70 0 114 121 114 205c0 70 -35 100 -71 100c-69 0 -112 -123 -112 -208c0 -67 32 -97 69 -97z" />
    <glyph glyph-name="eth" unicode="&#xf0;" horiz-adv-x="552" 
d="M402 675c101 -101 128 -215 128 -319c0 -214 -90 -373 -288 -373c-128 0 -216 74 -216 212c0 162 92 322 246 322c33 0 62 -9 84 -25c-14 37 -35 73 -69 109l-98 -62l-33 62l78 49c-21 17 -45 34 -72 51l96 78c33 -18 63 -37 89 -57l110 70l34 -61zM258 98
c74 0 113 122 113 206c0 70 -36 99 -71 99c-71 0 -112 -126 -112 -211c0 -61 26 -94 70 -94z" />
    <glyph glyph-name="dcaron" unicode="&#x10f;" horiz-adv-x="728" 
d="M435 740h155l-104 -740h-155l7 50c-38 -39 -85 -60 -141 -60c-99 0 -171 61 -171 205c0 164 89 328 247 328c55 0 96 -21 123 -60zM622 541l29 199h135l-84 -199h-80zM257 104c70 0 114 121 114 205c0 70 -35 100 -71 100c-69 0 -112 -123 -112 -208c0 -67 32 -97 69 -97
z" />
    <glyph glyph-name="dcroat" unicode="&#x111;" horiz-adv-x="571" 
d="M659 660l-14 -96h-80l-79 -564h-155l7 50c-38 -39 -85 -60 -141 -60c-99 0 -171 61 -171 205c0 164 89 328 247 328c55 0 96 -21 123 -60l14 101h-97l14 96h97l11 80h155l-11 -80h80zM257 104c70 0 114 121 114 205c0 70 -35 100 -71 100c-69 0 -112 -123 -112 -208
c0 -67 32 -97 69 -97z" />
    <glyph glyph-name="e" unicode="e" horiz-adv-x="542" 
d="M511 250h-319c-3 -17 -4 -34 -4 -48c0 -66 27 -98 70 -98c36 0 72 22 90 67h147c-35 -112 -122 -181 -253 -181c-127 0 -215 70 -215 218c0 171 117 315 296 315c103 0 193 -47 193 -202c0 -21 -1 -45 -5 -71zM304 421c-41 0 -71 -38 -90 -86h149c5 51 -15 86 -59 86z
" />
    <glyph glyph-name="eacute" unicode="&#xe9;" horiz-adv-x="542" 
d="M518 753l-161 -173h-89l94 173h156zM323 523c103 0 193 -47 193 -202c0 -21 -1 -45 -5 -71h-319c-3 -17 -4 -34 -4 -48c0 -66 27 -98 70 -98c36 0 72 22 90 67h147c-35 -112 -122 -181 -253 -181c-127 0 -215 70 -215 218c0 171 117 315 296 315zM214 335h149
c5 51 -15 86 -59 86c-41 0 -71 -38 -90 -86z" />
    <glyph glyph-name="ecaron" unicode="&#x11b;" horiz-adv-x="542" 
d="M362 580h-90l-115 173h133l38 -92l65 92h133zM323 523c103 0 193 -47 193 -202c0 -21 -1 -45 -5 -71h-319c-3 -17 -4 -34 -4 -48c0 -66 27 -98 70 -98c36 0 72 22 90 67h147c-35 -112 -122 -181 -253 -181c-127 0 -215 70 -215 218c0 171 117 315 296 315zM214 335h149
c5 51 -15 86 -59 86c-41 0 -71 -38 -90 -86z" />
    <glyph glyph-name="ecircumflex" unicode="&#xea;" horiz-adv-x="542" 
d="M330 673l-65 -93h-132l164 173h89l115 -173h-132zM511 250h-319c-3 -17 -4 -34 -4 -48c0 -66 27 -98 70 -98c36 0 72 22 90 67h147c-35 -112 -122 -181 -253 -181c-127 0 -215 70 -215 218c0 171 117 315 296 315c103 0 193 -47 193 -202c0 -21 -1 -45 -5 -71zM304 421
c-41 0 -71 -38 -90 -86h149c5 51 -15 86 -59 86z" />
    <glyph glyph-name="uni1EBF" unicode="&#x1ebf;" horiz-adv-x="542" 
d="M568 863h155l-160 -173h-89zM331 672l-65 -92h-133l164 173h90l115 -173h-133zM323 523c103 0 193 -47 193 -202c0 -21 -1 -45 -5 -71h-319c-3 -17 -4 -34 -4 -48c0 -66 27 -98 70 -98c36 0 72 22 90 67h147c-35 -112 -122 -181 -253 -181c-127 0 -215 70 -215 218
c0 171 117 315 296 315zM214 335h149c5 51 -15 86 -59 86c-41 0 -71 -38 -90 -86z" />
    <glyph glyph-name="uni1EC7" unicode="&#x1ec7;" horiz-adv-x="542" 
d="M330 673l-65 -93h-132l164 173h89l115 -173h-132zM511 250h-319c-3 -17 -4 -34 -4 -48c0 -66 27 -98 70 -98c36 0 72 22 90 67h147c-35 -112 -122 -181 -253 -181c-127 0 -215 70 -215 218c0 171 117 315 296 315c103 0 193 -47 193 -202c0 -21 -1 -45 -5 -71zM304 421
c-41 0 -71 -38 -90 -86h149c5 51 -15 86 -59 86zM226 -61c47 0 80 -40 74 -86c-7 -47 -51 -86 -98 -86c-46 0 -81 39 -74 86c6 46 52 86 98 86z" />
    <glyph glyph-name="uni1EC1" unicode="&#x1ec1;" horiz-adv-x="542" 
d="M596 690h-89l-112 173h156zM331 672l-65 -92h-133l164 173h90l115 -173h-133zM323 523c103 0 193 -47 193 -202c0 -21 -1 -45 -5 -71h-319c-3 -17 -4 -34 -4 -48c0 -66 27 -98 70 -98c36 0 72 22 90 67h147c-35 -112 -122 -181 -253 -181c-127 0 -215 70 -215 218
c0 171 117 315 296 315zM214 335h149c5 51 -15 86 -59 86c-41 0 -71 -38 -90 -86z" />
    <glyph glyph-name="uni1EC3" unicode="&#x1ec3;" horiz-adv-x="542" 
d="M549 893c63 0 115 -30 105 -100c-10 -72 -91 -72 -97 -115h-76c9 63 71 70 77 115c3 18 -5 31 -19 31c-13 0 -26 -13 -33 -31h-91c15 70 71 100 134 100zM330 673l-64 -93h-133l164 173h89l115 -173h-132zM323 523c103 0 193 -47 193 -202c0 -21 -1 -45 -5 -71h-319
c-3 -17 -4 -34 -4 -48c0 -66 27 -98 70 -98c36 0 72 22 90 67h147c-35 -112 -122 -181 -253 -181c-127 0 -215 70 -215 218c0 171 117 315 296 315zM214 335h149c5 51 -15 86 -59 86c-41 0 -71 -38 -90 -86z" />
    <glyph glyph-name="uni1EC5" unicode="&#x1ec5;" horiz-adv-x="542" 
d="M804 853h73c-25 -114 -83 -164 -150 -164c-83 0 -78 58 -128 58c-33 0 -48 -28 -61 -58h-73c26 110 83 164 150 164c82 0 78 -58 128 -58c33 0 48 27 61 58zM330 673l-65 -93h-132l164 173h89l115 -173h-132zM323 523c103 0 193 -47 193 -202c0 -21 -1 -45 -5 -71h-319
c-3 -17 -4 -34 -4 -48c0 -66 27 -98 70 -98c36 0 72 22 90 67h147c-35 -112 -122 -181 -253 -181c-127 0 -215 70 -215 218c0 171 117 315 296 315zM214 335h149c5 51 -15 86 -59 86c-41 0 -71 -38 -90 -86z" />
    <glyph glyph-name="edieresis" unicode="&#xeb;" horiz-adv-x="542" 
d="M206 589c-39 0 -69 30 -69 69c0 46 46 90 91 90c40 0 69 -32 69 -69c0 -48 -44 -90 -91 -90zM432 589c-39 0 -69 30 -69 69c0 46 46 90 91 90c40 0 69 -32 69 -69c0 -48 -44 -90 -91 -90zM323 523c103 0 193 -47 193 -202c0 -21 -1 -45 -5 -71h-319c-3 -17 -4 -34 -4 -48
c0 -66 27 -98 70 -98c36 0 72 22 90 67h147c-35 -112 -122 -181 -253 -181c-127 0 -215 70 -215 218c0 171 117 315 296 315zM214 335h149c5 51 -15 86 -59 86c-41 0 -71 -38 -90 -86z" />
    <glyph glyph-name="edotaccent" unicode="&#x117;" horiz-adv-x="542" 
d="M317 575c-42 0 -75 34 -75 76c0 51 49 96 99 96c43 0 75 -35 75 -76c0 -52 -48 -96 -99 -96zM511 250h-319c-3 -17 -4 -34 -4 -48c0 -66 27 -98 70 -98c36 0 72 22 90 67h147c-35 -112 -122 -181 -253 -181c-127 0 -215 70 -215 218c0 171 117 315 296 315
c103 0 193 -47 193 -202c0 -21 -1 -45 -5 -71zM304 421c-41 0 -71 -38 -90 -86h149c5 51 -15 86 -59 86z" />
    <glyph glyph-name="uni1EB9" unicode="&#x1eb9;" horiz-adv-x="542" 
d="M511 250h-319c-3 -17 -4 -34 -4 -48c0 -66 27 -98 70 -98c36 0 72 22 90 67h147c-35 -112 -122 -181 -253 -181c-127 0 -215 70 -215 218c0 171 117 315 296 315c103 0 193 -47 193 -202c0 -21 -1 -45 -5 -71zM304 421c-41 0 -71 -38 -90 -86h149c5 51 -15 86 -59 86z
M226 -61c47 0 80 -40 74 -86c-7 -47 -51 -86 -98 -86c-46 0 -81 39 -74 86c6 46 52 86 98 86z" />
    <glyph glyph-name="egrave" unicode="&#xe8;" horiz-adv-x="542" 
d="M390 580h-89l-112 173h156zM511 250h-319c-3 -17 -4 -34 -4 -48c0 -66 27 -98 70 -98c36 0 72 22 90 67h147c-35 -112 -122 -181 -253 -181c-127 0 -215 70 -215 218c0 171 117 315 296 315c103 0 193 -47 193 -202c0 -21 -1 -45 -5 -71zM304 421c-41 0 -71 -38 -90 -86
h149c5 51 -15 86 -59 86z" />
    <glyph glyph-name="uni1EBB" unicode="&#x1ebb;" horiz-adv-x="542" 
d="M333 714c-13 0 -26 -13 -32 -31h-91c14 70 70 100 133 100s115 -30 106 -100c-11 -72 -92 -72 -98 -115h-76c9 63 71 70 78 115c2 18 -6 31 -20 31zM511 250h-319c-3 -17 -4 -34 -4 -48c0 -66 27 -98 70 -98c36 0 72 22 90 67h147c-35 -112 -122 -181 -253 -181
c-127 0 -215 70 -215 218c0 171 117 315 296 315c103 0 193 -47 193 -202c0 -21 -1 -45 -5 -71zM304 421c-41 0 -71 -38 -90 -86h149c5 51 -15 86 -59 86z" />
    <glyph glyph-name="emacron" unicode="&#x113;" horiz-adv-x="542" 
d="M506 716l-14 -96h-339l14 96h339zM511 250h-319c-3 -17 -4 -34 -4 -48c0 -66 27 -98 70 -98c36 0 72 22 90 67h147c-35 -112 -122 -181 -253 -181c-127 0 -215 70 -215 218c0 171 117 315 296 315c103 0 193 -47 193 -202c0 -21 -1 -45 -5 -71zM304 421
c-41 0 -71 -38 -90 -86h149c5 51 -15 86 -59 86z" />
    <glyph glyph-name="eogonek" unicode="&#x119;" horiz-adv-x="542" 
d="M511 250h-319c-3 -17 -4 -34 -4 -48c0 -66 27 -98 70 -98c36 0 72 22 90 67h147c-27 -87 -86 -148 -172 -171c-36 -28 -65 -61 -65 -98c0 -23 13 -38 39 -38c14 0 33 5 49 11l-12 -82c-23 -12 -55 -23 -90 -23c-65 0 -109 33 -109 93c0 51 30 95 70 129
c-107 13 -178 83 -178 216c0 171 117 315 296 315c103 0 193 -47 193 -202c0 -21 -1 -45 -5 -71zM304 421c-41 0 -71 -38 -90 -86h149c5 51 -15 86 -59 86z" />
    <glyph glyph-name="uni1EBD" unicode="&#x1ebd;" horiz-adv-x="542" 
d="M265 650c-33 0 -49 -28 -62 -58h-73c26 110 84 164 150 164c83 0 78 -58 128 -58c33 0 48 27 61 58h73c-25 -114 -83 -164 -149 -164c-83 0 -79 58 -128 58zM323 523c103 0 193 -47 193 -202c0 -21 -1 -45 -5 -71h-319c-3 -17 -4 -34 -4 -48c0 -66 27 -98 70 -98
c36 0 72 22 90 67h147c-35 -112 -122 -181 -253 -181c-127 0 -215 70 -215 218c0 171 117 315 296 315zM214 335h149c5 51 -15 86 -59 86c-41 0 -71 -38 -90 -86z" />
    <glyph glyph-name="f" unicode="f" horiz-adv-x="395" 
d="M366 636c-42 0 -76 -22 -86 -97l-4 -26h138l-16 -114h-138l-56 -399h-155l56 399h-66l16 114h66l5 32c22 151 117 205 224 205c44 0 76 -7 105 -18l-16 -114c-25 12 -48 18 -73 18z" />
    <glyph glyph-name="g" unicode="g" horiz-adv-x="576" 
d="M403 513h155l-72 -513c-22 -159 -128 -239 -276 -239c-137 0 -202 75 -205 185h147c4 -44 31 -71 74 -71c54 0 92 40 105 125l7 50c-38 -39 -84 -60 -141 -60c-99 0 -171 61 -171 206c0 162 90 327 246 327c58 0 97 -21 124 -60zM257 104c70 0 114 121 114 205
c0 70 -35 100 -72 100c-67 0 -111 -123 -111 -208c0 -67 31 -97 69 -97z" />
    <glyph glyph-name="gbreve" unicode="&#x11f;" horiz-adv-x="576" 
d="M337 580c-105 0 -149 70 -145 173h86c7 -54 26 -77 73 -77s71 23 94 77h86c-25 -103 -88 -173 -194 -173zM403 513h155l-72 -513c-22 -159 -128 -239 -276 -239c-137 0 -202 75 -205 185h147c4 -44 31 -71 74 -71c54 0 92 40 105 125l7 50c-38 -39 -84 -60 -141 -60
c-99 0 -171 61 -171 206c0 162 90 327 246 327c58 0 97 -21 124 -60zM257 104c70 0 114 121 114 205c0 70 -35 100 -72 100c-67 0 -111 -123 -111 -208c0 -67 31 -97 69 -97z" />
    <glyph glyph-name="gcommaaccent" unicode="&#x123;" horiz-adv-x="576" 
d="M495 753l-82 -173h-155l147 173h90zM403 513h155l-72 -513c-22 -159 -128 -239 -276 -239c-137 0 -202 75 -205 185h147c4 -44 31 -71 74 -71c54 0 92 40 105 125l7 50c-38 -39 -84 -60 -141 -60c-99 0 -171 61 -171 206c0 162 90 327 246 327c58 0 97 -21 124 -60z
M257 104c70 0 114 121 114 205c0 70 -35 100 -72 100c-67 0 -111 -123 -111 -208c0 -67 31 -97 69 -97z" />
    <glyph glyph-name="gdotaccent" unicode="&#x121;" horiz-adv-x="576" 
d="M337 575c-42 0 -75 34 -75 76c0 51 49 96 99 96c43 0 75 -35 75 -76c0 -52 -48 -96 -99 -96zM403 513h155l-72 -513c-22 -159 -128 -239 -276 -239c-137 0 -202 75 -205 185h147c4 -44 31 -71 74 -71c54 0 92 40 105 125l7 50c-38 -39 -84 -60 -141 -60
c-99 0 -171 61 -171 206c0 162 90 327 246 327c58 0 97 -21 124 -60zM257 104c70 0 114 121 114 205c0 70 -35 100 -72 100c-67 0 -111 -123 -111 -208c0 -67 31 -97 69 -97z" />
    <glyph glyph-name="h" unicode="h" horiz-adv-x="584" 
d="M397 523c101 0 164 -50 144 -189l-47 -334h-155l41 291c11 75 -17 100 -57 100c-45 0 -100 -29 -114 -129l-37 -262h-155l104 740h155l-42 -301c33 42 89 84 163 84z" />
    <glyph glyph-name="hbar" unicode="&#x127;" horiz-adv-x="584" 
d="M397 523c101 0 164 -50 144 -189l-47 -334h-155l41 291c11 75 -17 100 -57 100c-45 0 -100 -29 -114 -129l-37 -262h-155l79 564h-80l14 96h80l11 80h155l-11 -80h97l-14 -96h-97l-17 -125c33 42 89 84 163 84z" />
    <glyph glyph-name="i" unicode="i" horiz-adv-x="280" 
d="M185 575c-42 0 -75 34 -75 76c0 51 50 96 99 96c44 0 75 -35 75 -76c0 -52 -48 -96 -99 -96zM27 0l72 513h155l-72 -513h-155z" />
    <glyph glyph-name="dotlessi" unicode="&#x131;" horiz-adv-x="262" 
d="M18 0l72 513h155l-72 -513h-155z" />
    <glyph glyph-name="iacute" unicode="&#xed;" horiz-adv-x="262" 
d="M128 580l94 173h156l-161 -173h-89zM18 0l72 513h155l-72 -513h-155z" />
    <glyph glyph-name="uni01D0" unicode="&#x1d0;" horiz-adv-x="262" 
d="M222 580h-90l-115 173h133l38 -92l65 92h133zM18 0l72 513h155l-72 -513h-155z" />
    <glyph glyph-name="icircumflex" unicode="&#xee;" horiz-adv-x="262" 
d="M190 673l-65 -93h-132l164 173h89l115 -173h-132zM18 0l72 513h155l-72 -513h-155z" />
    <glyph glyph-name="idieresis" unicode="&#xef;" horiz-adv-x="262" 
d="M66 589c-39 0 -69 30 -69 69c0 46 46 90 91 90c40 0 69 -32 69 -69c0 -48 -44 -90 -91 -90zM292 589c-39 0 -69 30 -69 69c0 46 46 90 91 90c40 0 69 -32 69 -69c0 -48 -44 -90 -91 -90zM18 0l72 513h155l-72 -513h-155z" />
    <glyph glyph-name="i.loclTRK" horiz-adv-x="262" 
d="M177 575c-42 0 -75 34 -75 76c0 51 49 96 99 96c43 0 75 -35 75 -76c0 -52 -48 -96 -99 -96zM18 0l72 513h155l-72 -513h-155z" />
    <glyph glyph-name="uni1ECB" unicode="&#x1ecb;" horiz-adv-x="279" 
d="M185 575c-42 0 -75 34 -75 76c0 51 50 96 99 96c44 0 75 -35 75 -76c0 -52 -48 -96 -99 -96zM27 0l72 513h155l-72 -513h-155zM71 -233c-46 0 -81 39 -74 86c6 46 52 86 98 86c47 0 80 -40 74 -86c-7 -47 -51 -86 -98 -86z" />
    <glyph glyph-name="igrave" unicode="&#xec;" horiz-adv-x="262" 
d="M250 580h-89l-112 173h156zM18 0l72 513h155l-72 -513h-155z" />
    <glyph glyph-name="uni1EC9" unicode="&#x1ec9;" horiz-adv-x="262" 
d="M203 783c63 0 115 -30 106 -100c-11 -72 -92 -72 -98 -115h-76c9 63 71 70 78 115c2 18 -6 31 -20 31c-13 0 -26 -13 -32 -31h-91c14 70 70 100 133 100zM18 0l72 513h155l-72 -513h-155z" />
    <glyph glyph-name="imacron" unicode="&#x12b;" horiz-adv-x="262" 
d="M13 620l14 96h339l-14 -96h-339zM18 0l72 513h155l-72 -513h-155z" />
    <glyph glyph-name="iogonek" unicode="&#x12f;" horiz-adv-x="262" 
d="M201 747c43 0 75 -35 75 -76c0 -52 -48 -96 -99 -96c-42 0 -75 34 -75 76c0 51 49 96 99 96zM19 8l71 505h155l-72 -513h-58c-41 -30 -73 -67 -75 -99c-2 -22 10 -37 35 -37c15 0 33 5 49 11l-11 -82c-24 -12 -55 -23 -90 -23c-69 0 -114 39 -109 97c4 57 45 103 105 141
z" />
    <glyph glyph-name="itilde" unicode="&#x129;" horiz-adv-x="262" 
d="M329 756h73c-25 -114 -83 -164 -149 -164c-83 0 -79 58 -128 58c-33 0 -49 -28 -62 -58h-73c26 110 84 164 150 164c83 0 78 -58 128 -58c33 0 48 27 61 58zM18 0l72 513h155l-72 -513h-155z" />
    <glyph glyph-name="j" unicode="j" horiz-adv-x="271" 
d="M176 575c-42 0 -75 34 -75 76c0 51 50 96 99 96c44 0 75 -35 75 -76c0 -52 -48 -96 -99 -96zM-104 -230l16 114c57 0 93 29 102 96l75 533h155l-77 -554c-15 -102 -88 -189 -271 -189z" />
    <glyph glyph-name="k" unicode="k" horiz-adv-x="576" 
d="M540 0h-172l-95 188l-86 -84l-15 -104h-155l104 740h155l-61 -434l202 207h175l-202 -200z" />
    <glyph glyph-name="kcommaaccent" unicode="&#x137;" horiz-adv-x="576" 
d="M540 0h-172l-95 188l-86 -84l-15 -104h-155l104 740h155l-61 -434l202 207h175l-202 -200zM132 -253l75 188h129l-125 -188h-79z" />
    <glyph glyph-name="l" unicode="l" horiz-adv-x="262" 
d="M17 0l104 740h155l-104 -740h-155z" />
    <glyph glyph-name="lacute" unicode="&#x13a;" horiz-adv-x="263" 
d="M128 770l133 143h166l-193 -143h-106zM17 0l104 740h155l-104 -740h-155z" />
    <glyph glyph-name="lcaron" unicode="&#x13e;" horiz-adv-x="414" 
d="M17 0l104 740h155l-104 -740h-155zM308 541l29 199h135l-84 -199h-80z" />
    <glyph glyph-name="lcommaaccent" unicode="&#x13c;" horiz-adv-x="262" 
d="M17 0l104 740h155l-104 -740h-155zM-47 -253l75 188h129l-125 -188h-79z" />
    <glyph glyph-name="lslash" unicode="&#x142;" horiz-adv-x="347" 
d="M375 533l-19 -136l-88 -54l-48 -343h-155l34 238l-92 -56l19 135l92 57l51 366h155l-37 -261z" />
    <glyph glyph-name="m" unicode="m" horiz-adv-x="867" 
d="M689 523c93 0 155 -50 135 -189l-47 -334h-155l41 290c10 72 -10 101 -49 101c-38 0 -88 -29 -103 -129l-36 -262h-155l41 290c10 72 -10 101 -49 101c-38 0 -88 -29 -103 -129l-36 -262h-155l72 513h155l-10 -74c32 42 81 84 152 84c70 0 123 -28 136 -103
c41 67 100 103 166 103z" />
    <glyph glyph-name="n" unicode="n" horiz-adv-x="585" 
d="M398 523c100 0 164 -50 144 -189l-47 -334h-155l41 291c11 75 -17 100 -57 100c-45 0 -100 -29 -115 -129l-36 -262h-155l72 513h155l-10 -74c32 42 89 84 163 84z" />
    <glyph glyph-name="nacute" unicode="&#x144;" horiz-adv-x="585" 
d="M289 580l94 173h156l-161 -173h-89zM398 523c100 0 164 -50 144 -189l-47 -334h-155l41 291c11 75 -17 100 -57 100c-45 0 -100 -29 -115 -129l-36 -262h-155l72 513h155l-10 -74c32 42 89 84 163 84z" />
    <glyph glyph-name="ncaron" unicode="&#x148;" horiz-adv-x="585" 
d="M383 580h-90l-115 173h133l38 -92l65 92h133zM398 523c100 0 164 -50 144 -189l-47 -334h-155l41 291c11 75 -17 100 -57 100c-45 0 -100 -29 -115 -129l-36 -262h-155l72 513h155l-10 -74c32 42 89 84 163 84z" />
    <glyph glyph-name="ncommaaccent" unicode="&#x146;" horiz-adv-x="585" 
d="M398 523c100 0 164 -50 144 -189l-47 -334h-155l41 291c11 75 -17 100 -57 100c-45 0 -100 -29 -115 -129l-36 -262h-155l72 513h155l-10 -74c32 42 89 84 163 84zM138 -253l75 188h129l-125 -188h-79z" />
    <glyph glyph-name="eng" unicode="&#x14b;" horiz-adv-x="585" 
d="M398 523c100 0 164 -50 144 -189l-52 -375c-15 -102 -88 -189 -271 -189l16 114c57 0 93 29 102 96l44 311c11 75 -17 100 -57 100c-45 0 -100 -29 -114 -129l-37 -262h-155l72 513h155l-10 -74c32 42 89 84 163 84z" />
    <glyph glyph-name="ntilde" unicode="&#xf1;" horiz-adv-x="585" 
d="M286 650c-33 0 -49 -28 -62 -58h-73c26 110 84 164 150 164c83 0 78 -58 128 -58c33 0 48 27 61 58h73c-25 -114 -83 -164 -149 -164c-83 0 -79 58 -128 58zM398 523c100 0 164 -50 144 -189l-47 -334h-155l41 291c11 75 -17 100 -57 100c-45 0 -100 -29 -115 -129
l-36 -262h-155l72 513h155l-10 -74c32 42 89 84 163 84z" />
    <glyph glyph-name="o" unicode="o" horiz-adv-x="561" 
d="M240 -10c-125 0 -213 71 -213 221c0 171 114 312 294 312c124 0 212 -71 212 -221c0 -171 -113 -312 -293 -312zM258 104c73 0 114 122 114 207c0 65 -26 98 -69 98c-73 0 -114 -122 -114 -208c0 -65 26 -97 69 -97z" />
    <glyph glyph-name="oacute" unicode="&#xf3;" horiz-adv-x="561" 
d="M277 580l94 173h156l-161 -173h-89zM240 -10c-125 0 -213 71 -213 221c0 171 114 312 294 312c124 0 212 -71 212 -221c0 -171 -113 -312 -293 -312zM258 104c73 0 114 122 114 207c0 65 -26 98 -69 98c-73 0 -114 -122 -114 -208c0 -65 26 -97 69 -97z" />
    <glyph glyph-name="uni01D2" unicode="&#x1d2;" horiz-adv-x="561" 
d="M371 580h-90l-115 173h133l38 -92l65 92h133zM321 523c124 0 212 -71 212 -221c0 -171 -113 -312 -293 -312c-125 0 -213 71 -213 221c0 171 114 312 294 312zM258 104c73 0 114 122 114 207c0 65 -26 98 -69 98c-73 0 -114 -122 -114 -208c0 -65 26 -97 69 -97z" />
    <glyph glyph-name="ocircumflex" unicode="&#xf4;" horiz-adv-x="561" 
d="M339 673l-65 -93h-132l164 173h89l115 -173h-132zM321 523c124 0 212 -71 212 -221c0 -171 -113 -312 -293 -312c-125 0 -213 71 -213 221c0 171 114 312 294 312zM258 104c73 0 114 122 114 207c0 65 -26 98 -69 98c-73 0 -114 -122 -114 -208c0 -65 26 -97 69 -97z" />
    <glyph glyph-name="uni1ED1" unicode="&#x1ed1;" horiz-adv-x="561" 
d="M577 863h155l-160 -173h-89zM340 672l-65 -92h-133l164 173h90l115 -173h-133zM321 523c124 0 212 -71 212 -221c0 -171 -113 -312 -293 -312c-125 0 -213 71 -213 221c0 171 114 312 294 312zM258 104c73 0 114 122 114 207c0 65 -26 98 -69 98
c-73 0 -114 -122 -114 -208c0 -65 26 -97 69 -97z" />
    <glyph glyph-name="uni1ED9" unicode="&#x1ed9;" horiz-adv-x="561" 
d="M339 673l-65 -93h-132l164 173h89l115 -173h-132zM321 523c124 0 212 -71 212 -221c0 -171 -113 -312 -293 -312c-125 0 -213 71 -213 221c0 171 114 312 294 312zM258 104c73 0 114 122 114 207c0 65 -26 98 -69 98c-73 0 -114 -122 -114 -208c0 -65 26 -97 69 -97z
M235 -61c47 0 80 -40 74 -86c-7 -47 -51 -86 -98 -86c-46 0 -81 39 -74 86c6 46 52 86 98 86z" />
    <glyph glyph-name="uni1ED3" unicode="&#x1ed3;" horiz-adv-x="561" 
d="M605 690h-89l-112 173h156zM340 672l-65 -92h-133l164 173h90l115 -173h-133zM321 523c124 0 212 -71 212 -221c0 -171 -113 -312 -293 -312c-125 0 -213 71 -213 221c0 171 114 312 294 312zM258 104c73 0 114 122 114 207c0 65 -26 98 -69 98
c-73 0 -114 -122 -114 -208c0 -65 26 -97 69 -97z" />
    <glyph glyph-name="uni1ED5" unicode="&#x1ed5;" horiz-adv-x="561" 
d="M558 893c63 0 115 -30 105 -100c-10 -72 -91 -72 -97 -115h-76c9 63 71 70 77 115c3 18 -5 31 -19 31c-13 0 -26 -13 -33 -31h-91c15 70 71 100 134 100zM339 673l-64 -93h-133l164 173h89l115 -173h-132zM321 523c124 0 212 -71 212 -221c0 -171 -113 -312 -293 -312
c-125 0 -213 71 -213 221c0 171 114 312 294 312zM258 104c73 0 114 122 114 207c0 65 -26 98 -69 98c-73 0 -114 -122 -114 -208c0 -65 26 -97 69 -97z" />
    <glyph glyph-name="uni1ED7" unicode="&#x1ed7;" horiz-adv-x="561" 
d="M813 853h73c-25 -114 -83 -164 -150 -164c-83 0 -78 58 -128 58c-33 0 -48 -28 -61 -58h-73c26 110 83 164 150 164c82 0 78 -58 128 -58c33 0 48 27 61 58zM339 673l-65 -93h-132l164 173h89l115 -173h-132zM321 523c124 0 212 -71 212 -221c0 -171 -113 -312 -293 -312
c-125 0 -213 71 -213 221c0 171 114 312 294 312zM258 104c73 0 114 122 114 207c0 65 -26 98 -69 98c-73 0 -114 -122 -114 -208c0 -65 26 -97 69 -97z" />
    <glyph glyph-name="odieresis" unicode="&#xf6;" horiz-adv-x="561" 
d="M215 589c-39 0 -69 30 -69 69c0 46 46 90 91 90c40 0 69 -32 69 -69c0 -48 -44 -90 -91 -90zM441 589c-39 0 -69 30 -69 69c0 46 46 90 91 90c40 0 69 -32 69 -69c0 -48 -44 -90 -91 -90zM240 -10c-125 0 -213 71 -213 221c0 171 114 312 294 312c124 0 212 -71 212 -221
c0 -171 -113 -312 -293 -312zM258 104c73 0 114 122 114 207c0 65 -26 98 -69 98c-73 0 -114 -122 -114 -208c0 -65 26 -97 69 -97z" />
    <glyph glyph-name="uni1ECD" unicode="&#x1ecd;" horiz-adv-x="561" 
d="M240 -10c-125 0 -213 71 -213 221c0 171 114 312 294 312c124 0 212 -71 212 -221c0 -171 -113 -312 -293 -312zM258 104c73 0 114 122 114 207c0 65 -26 98 -69 98c-73 0 -114 -122 -114 -208c0 -65 26 -97 69 -97zM211 -233c-46 0 -81 39 -74 86c6 46 52 86 98 86
c47 0 80 -40 74 -86c-7 -47 -51 -86 -98 -86z" />
    <glyph glyph-name="ograve" unicode="&#xf2;" horiz-adv-x="561" 
d="M399 580h-89l-112 173h156zM240 -10c-125 0 -213 71 -213 221c0 171 114 312 294 312c124 0 212 -71 212 -221c0 -171 -113 -312 -293 -312zM258 104c73 0 114 122 114 207c0 65 -26 98 -69 98c-73 0 -114 -122 -114 -208c0 -65 26 -97 69 -97z" />
    <glyph glyph-name="uni1ECF" unicode="&#x1ecf;" horiz-adv-x="561" 
d="M342 714c-13 0 -26 -13 -32 -31h-91c14 70 70 100 133 100s115 -30 106 -100c-11 -72 -92 -72 -98 -115h-76c9 63 71 70 78 115c2 18 -6 31 -20 31zM321 523c124 0 212 -71 212 -221c0 -171 -113 -312 -293 -312c-125 0 -213 71 -213 221c0 171 114 312 294 312zM258 104
c73 0 114 122 114 207c0 65 -26 98 -69 98c-73 0 -114 -122 -114 -208c0 -65 26 -97 69 -97z" />
    <glyph glyph-name="ohorn" unicode="&#x1a1;" horiz-adv-x="677" 
d="M692 514c2 -12 3 -25 -1 -43c-11 -87 -87 -148 -158 -169c0 -171 -113 -312 -293 -312c-125 0 -213 71 -213 221c0 171 114 312 294 312c97 0 172 -44 200 -134c20 12 35 39 41 82c4 18 3 31 1 43h129zM258 104c73 0 114 122 114 207c0 65 -26 98 -69 98
c-73 0 -114 -122 -114 -208c0 -65 26 -97 69 -97z" />
    <glyph glyph-name="uni1EDB" unicode="&#x1edb;" horiz-adv-x="677" 
d="M527 753l-161 -173h-89l94 173h156zM692 514c2 -12 3 -25 -1 -43c-11 -87 -87 -148 -158 -169c0 -171 -113 -312 -293 -312c-125 0 -213 71 -213 221c0 171 114 312 294 312c97 0 172 -44 200 -134c20 12 35 39 41 82c4 18 3 31 1 43h129zM258 104c73 0 114 122 114 207
c0 65 -26 98 -69 98c-73 0 -114 -122 -114 -208c0 -65 26 -97 69 -97z" />
    <glyph glyph-name="uni1EE3" unicode="&#x1ee3;" horiz-adv-x="677" 
d="M692 514c2 -12 3 -25 -1 -43c-11 -87 -87 -148 -158 -169c0 -171 -113 -312 -293 -312c-125 0 -213 71 -213 221c0 171 114 312 294 312c97 0 172 -44 200 -134c20 12 35 39 41 82c4 18 3 31 1 43h129zM258 104c73 0 114 122 114 207c0 65 -26 98 -69 98
c-73 0 -114 -122 -114 -208c0 -65 26 -97 69 -97zM235 -61c47 0 80 -40 74 -86c-7 -47 -51 -86 -98 -86c-46 0 -81 39 -74 86c6 46 52 86 98 86z" />
    <glyph glyph-name="uni1EDD" unicode="&#x1edd;" horiz-adv-x="677" 
d="M399 580h-89l-112 173h156zM692 514c2 -12 3 -25 -1 -43c-11 -87 -87 -148 -158 -169c0 -171 -113 -312 -293 -312c-125 0 -213 71 -213 221c0 171 114 312 294 312c97 0 172 -44 200 -134c20 12 35 39 41 82c4 18 3 31 1 43h129zM258 104c73 0 114 122 114 207
c0 65 -26 98 -69 98c-73 0 -114 -122 -114 -208c0 -65 26 -97 69 -97z" />
    <glyph glyph-name="uni1EDF" unicode="&#x1edf;" horiz-adv-x="677" 
d="M342 714c-13 0 -26 -13 -32 -31h-91c14 70 70 100 133 100s115 -30 106 -100c-11 -72 -92 -72 -98 -115h-76c9 63 71 70 78 115c2 18 -6 31 -20 31zM692 514c2 -12 3 -25 -1 -43c-11 -87 -87 -148 -158 -169c0 -171 -113 -312 -293 -312c-125 0 -213 71 -213 221
c0 171 114 312 294 312c97 0 172 -44 200 -134c20 12 35 39 41 82c4 18 3 31 1 43h129zM258 104c73 0 114 122 114 207c0 65 -26 98 -69 98c-73 0 -114 -122 -114 -208c0 -65 26 -97 69 -97z" />
    <glyph glyph-name="uni1EE1" unicode="&#x1ee1;" horiz-adv-x="677" 
d="M274 650c-33 0 -49 -28 -62 -58h-73c26 110 84 164 150 164c83 0 78 -58 128 -58c33 0 48 27 61 58h73c-25 -114 -83 -164 -149 -164c-83 0 -79 58 -128 58zM692 514c2 -12 3 -25 -1 -43c-11 -87 -87 -148 -158 -169c0 -171 -113 -312 -293 -312c-125 0 -213 71 -213 221
c0 171 114 312 294 312c97 0 172 -44 200 -134c20 12 35 39 41 82c4 18 3 31 1 43h129zM258 104c73 0 114 122 114 207c0 65 -26 98 -69 98c-73 0 -114 -122 -114 -208c0 -65 26 -97 69 -97z" />
    <glyph glyph-name="ohungarumlaut" unicode="&#x151;" horiz-adv-x="561" 
d="M180 580l94 173h156l-161 -173h-89zM369 580l95 173h155l-160 -173h-90zM240 -10c-125 0 -213 71 -213 221c0 171 114 312 294 312c124 0 212 -71 212 -221c0 -171 -113 -312 -293 -312zM258 104c73 0 114 122 114 207c0 65 -26 98 -69 98c-73 0 -114 -122 -114 -208
c0 -65 26 -97 69 -97z" />
    <glyph glyph-name="omacron" unicode="&#x14d;" horiz-adv-x="561" 
d="M162 620l14 96h339l-14 -96h-339zM240 -10c-125 0 -213 71 -213 221c0 171 114 312 294 312c124 0 212 -71 212 -221c0 -171 -113 -312 -293 -312zM258 104c73 0 114 122 114 207c0 65 -26 98 -69 98c-73 0 -114 -122 -114 -208c0 -65 26 -97 69 -97z" />
    <glyph glyph-name="oslash" unicode="&#xf8;" horiz-adv-x="559" 
d="M466 475c44 -38 69 -97 65 -175c-6 -178 -117 -310 -289 -310c-36 0 -69 6 -97 17l-33 -47l-52 36l30 44c-42 38 -66 96 -63 173c6 178 118 310 290 310c34 0 66 -5 94 -16l31 46l52 -38zM177 214c-1 -16 0 -31 2 -44l162 236c-11 7 -25 10 -40 10
c-75 0 -119 -114 -124 -202zM381 299c1 18 0 34 -3 48l-163 -237c12 -8 26 -12 42 -12c76 0 119 113 124 201z" />
    <glyph glyph-name="otilde" unicode="&#xf5;" horiz-adv-x="561" 
d="M274 650c-33 0 -49 -28 -62 -58h-73c26 110 84 164 150 164c83 0 78 -58 128 -58c33 0 48 27 61 58h73c-25 -114 -83 -164 -149 -164c-83 0 -79 58 -128 58zM321 523c124 0 212 -71 212 -221c0 -171 -113 -312 -293 -312c-125 0 -213 71 -213 221c0 171 114 312 294 312z
M258 104c73 0 114 122 114 207c0 65 -26 98 -69 98c-73 0 -114 -122 -114 -208c0 -65 26 -97 69 -97z" />
    <glyph glyph-name="oe" unicode="&#x153;" horiz-adv-x="887" 
d="M856 250h-319c-3 -17 -4 -34 -4 -48c0 -66 27 -98 70 -98c36 0 72 22 90 67h147c-35 -112 -122 -181 -253 -181c-69 0 -126 20 -164 62c-48 -39 -110 -62 -183 -62c-125 0 -213 71 -213 221c0 171 114 312 294 312c67 0 124 -21 162 -64c49 40 112 64 185 64
c103 0 193 -47 193 -202c0 -21 -1 -45 -5 -71zM649 421c-41 0 -71 -38 -90 -86h149c5 51 -15 86 -59 86zM258 104c73 0 114 122 114 207c0 65 -26 98 -69 98c-73 0 -114 -122 -114 -208c0 -65 26 -97 69 -97z" />
    <glyph glyph-name="p" unicode="p" horiz-adv-x="576" 
d="M378 523c100 0 172 -61 172 -205c0 -164 -89 -328 -247 -328c-56 0 -96 21 -123 60l-38 -270h-155l103 733h155l-7 -50c38 39 84 60 140 60zM276 104c69 0 112 123 112 208c0 67 -31 97 -69 97c-70 0 -114 -121 -114 -205c0 -70 35 -100 71 -100z" />
    <glyph glyph-name="thorn" unicode="&#xfe;" horiz-adv-x="576" 
d="M378 523c100 0 172 -61 172 -205c0 -164 -89 -328 -247 -328c-56 0 -96 21 -123 60l-38 -270h-155l103 733l31 227h155l-31 -227l-7 -50c38 39 84 60 140 60zM276 104c69 0 112 123 112 208c0 67 -31 97 -69 97c-70 0 -114 -121 -114 -205c0 -70 35 -100 71 -100z" />
    <glyph glyph-name="q" unicode="q" horiz-adv-x="574" 
d="M416 513h155l-103 -733h-155l38 270c-38 -39 -84 -60 -140 -60c-100 0 -171 61 -171 205c0 164 89 328 247 328c55 0 95 -21 122 -60zM270 104c72 0 115 123 115 205c0 71 -36 100 -71 100c-69 0 -113 -123 -113 -208c0 -67 32 -97 69 -97z" />
    <glyph glyph-name="r" unicode="r" horiz-adv-x="382" 
d="M231 412c44 76 108 111 170 111l-19 -140c-53 0 -159 -28 -182 -192l-27 -191h-155l72 513h155z" />
    <glyph glyph-name="racute" unicode="&#x155;" horiz-adv-x="382" 
d="M178 580l94 173h156l-161 -173h-89zM231 412c44 76 108 111 170 111l-19 -140c-53 0 -159 -28 -182 -192l-27 -191h-155l72 513h155z" />
    <glyph glyph-name="rcaron" unicode="&#x159;" horiz-adv-x="382" 
d="M272 580h-90l-115 173h133l38 -92l65 92h133zM231 412c44 76 108 111 170 111l-19 -140c-53 0 -159 -28 -182 -192l-27 -191h-155l72 513h155z" />
    <glyph glyph-name="rcommaaccent" unicode="&#x157;" horiz-adv-x="382" 
d="M231 412c44 76 108 111 170 111l-19 -140c-53 0 -159 -28 -182 -192l-27 -191h-155l72 513h155zM-33 -253l75 188h129l-125 -188h-79z" />
    <glyph glyph-name="s" unicode="s" horiz-adv-x="472" 
d="M219 371c0 -62 209 -37 209 -196c0 -120 -105 -185 -244 -185c-60 0 -117 13 -170 37l18 133c52 -34 110 -49 155 -49s77 15 77 40c0 58 -209 37 -209 196c0 121 106 176 241 176c68 0 119 -16 154 -30l-18 -122c-33 18 -80 40 -137 40c-45 0 -76 -13 -76 -40z" />
    <glyph glyph-name="sacute" unicode="&#x15b;" horiz-adv-x="472" 
d="M245 580l94 173h156l-161 -173h-89zM219 371c0 -62 209 -37 209 -196c0 -120 -105 -185 -244 -185c-60 0 -117 13 -170 37l18 133c52 -34 110 -49 155 -49s77 15 77 40c0 58 -209 37 -209 196c0 121 106 176 241 176c68 0 119 -16 154 -30l-18 -122
c-33 18 -80 40 -137 40c-45 0 -76 -13 -76 -40z" />
    <glyph glyph-name="scaron" unicode="&#x161;" horiz-adv-x="472" 
d="M339 580h-90l-115 173h133l38 -92l65 92h133zM55 347c0 121 106 176 241 176c68 0 119 -16 154 -30l-18 -122c-33 18 -80 40 -137 40c-45 0 -76 -13 -76 -40c0 -62 209 -37 209 -196c0 -120 -105 -185 -244 -185c-60 0 -117 13 -170 37l18 133c52 -34 110 -49 155 -49
s77 15 77 40c0 58 -209 37 -209 196z" />
    <glyph glyph-name="scedilla" unicode="&#x15f;" horiz-adv-x="472" 
d="M295 411c-45 0 -76 -13 -76 -40c0 -62 209 -37 209 -196c0 -106 -82 -169 -197 -182l-22 -40c62 10 110 -21 102 -81c-9 -68 -73 -102 -142 -102c-37 0 -59 8 -80 20l9 63c20 -12 37 -20 57 -20c25 0 47 12 50 34c5 42 -46 39 -102 21l48 103c-48 4 -94 16 -137 36
l18 133c52 -34 110 -49 155 -49s77 15 77 40c0 58 -209 37 -209 196c0 121 106 176 241 176c68 0 119 -16 154 -30l-18 -122c-33 18 -80 40 -137 40z" />
    <glyph glyph-name="scommaaccent" unicode="&#x219;" horiz-adv-x="472" 
d="M219 371c0 -62 209 -37 209 -196c0 -120 -105 -185 -244 -185c-60 0 -117 13 -170 37l18 133c52 -34 110 -49 155 -49s77 15 77 40c0 58 -209 37 -209 196c0 121 106 176 241 176c68 0 119 -16 154 -30l-18 -122c-33 18 -80 40 -137 40c-45 0 -76 -13 -76 -40zM76 -253
l75 188h129l-125 -188h-79z" />
    <glyph glyph-name="germandbls" unicode="&#xdf;" horiz-adv-x="646" 
d="M368 -10c-44 0 -83 7 -114 18l16 109c26 -12 67 -19 96 -19c40 0 78 13 78 52c0 64 -110 63 -110 179c0 106 91 156 91 245c0 47 -28 62 -57 62c-35 0 -75 -21 -87 -104l-78 -532h-155l59 399h-67l17 114h66l4 25c23 159 139 212 259 212c109 0 195 -43 195 -164
c0 -120 -87 -149 -87 -210c0 -68 110 -54 110 -186c0 -125 -96 -200 -236 -200z" />
    <glyph glyph-name="uni0259" unicode="&#x259;" horiz-adv-x="542" 
d="M304 523c129 0 211 -70 211 -216c0 -174 -117 -317 -296 -317c-155 0 -213 107 -188 273h319c3 19 4 36 4 52c0 62 -22 94 -67 94c-38 0 -75 -27 -93 -84h-147c35 125 125 198 257 198zM238 93c42 0 71 38 90 86h-148c-6 -51 14 -86 58 -86z" />
    <glyph glyph-name="t" unicode="t" horiz-adv-x="411" 
d="M401 399h-141l-29 -212c-8 -58 16 -76 56 -76c23 0 48 5 76 18l-17 -121c-33 -11 -67 -18 -107 -18c-106 0 -183 57 -166 179l32 230h-66l16 114h66l15 110l162 47l-22 -157h141z" />
    <glyph glyph-name="tbar" unicode="&#x167;" horiz-adv-x="411" 
d="M401 399h-141l-10 -71h113l-14 -96h-112l-6 -45c-8 -58 16 -76 56 -76c23 0 48 5 76 18l-17 -121c-33 -11 -67 -18 -107 -18c-106 0 -183 57 -166 179l9 63h-65l14 96h64l10 71h-66l16 114h66l15 110l162 47l-22 -157h141z" />
    <glyph glyph-name="tcaron" unicode="&#x165;" horiz-adv-x="426" 
d="M368 560l26 180h136l-82 -180h-80zM401 399h-141l-29 -212c-8 -58 16 -76 56 -76c23 0 48 5 76 18l-17 -121c-33 -11 -67 -18 -107 -18c-106 0 -183 57 -166 179l32 230h-66l16 114h66l15 110l162 47l-22 -157h141z" />
    <glyph glyph-name="uni0163" unicode="&#x163;" horiz-adv-x="411" 
d="M260 399l-29 -212c-8 -58 16 -76 56 -76c23 0 48 5 76 18l-17 -121c-28 -9 -57 -16 -90 -18l-21 -37c62 10 110 -21 102 -81c-9 -68 -73 -102 -142 -102c-37 0 -59 8 -80 20l9 63c20 -12 37 -20 57 -20c25 0 47 12 50 34c5 42 -46 39 -102 21l51 109
c-74 18 -121 74 -107 172l32 230h-66l16 114h66l15 110l162 47l-22 -157h141l-16 -114h-141z" />
    <glyph glyph-name="uni021B" unicode="&#x21b;" horiz-adv-x="411" 
d="M401 399h-141l-29 -212c-8 -58 16 -76 56 -76c23 0 48 5 76 18l-17 -121c-33 -11 -67 -18 -107 -18c-106 0 -183 57 -166 179l32 230h-66l16 114h66l15 110l162 47l-22 -157h141zM102 -253l75 188h129l-125 -188h-79z" />
    <glyph glyph-name="u" unicode="u" 
d="M179 -10c-99 0 -156 50 -136 189l47 334h155l-41 -291c-10 -75 13 -100 54 -100c37 0 93 29 108 136l36 255h155l-72 -513h-155l10 75c-32 -43 -89 -85 -161 -85z" />
    <glyph glyph-name="uacute" unicode="&#xfa;" 
d="M280 580l94 173h156l-161 -173h-89zM179 -10c-99 0 -156 50 -136 189l47 334h155l-41 -291c-10 -75 13 -100 54 -100c37 0 93 29 108 136l36 255h155l-72 -513h-155l10 75c-32 -43 -89 -85 -161 -85z" />
    <glyph glyph-name="uni01D4" unicode="&#x1d4;" 
d="M374 580h-90l-115 173h133l38 -92l65 92h133zM402 513h155l-72 -513h-155l10 75c-32 -43 -89 -85 -161 -85c-99 0 -156 50 -136 189l47 334h155l-41 -291c-10 -75 13 -100 54 -100c37 0 93 29 108 136z" />
    <glyph glyph-name="ucircumflex" unicode="&#xfb;" 
d="M342 673l-65 -93h-132l164 173h89l115 -173h-132zM402 513h155l-72 -513h-155l10 75c-32 -43 -89 -85 -161 -85c-99 0 -156 50 -136 189l47 334h155l-41 -291c-10 -75 13 -100 54 -100c37 0 93 29 108 136z" />
    <glyph glyph-name="udieresis" unicode="&#xfc;" 
d="M218 589c-39 0 -69 30 -69 69c0 46 46 90 91 90c40 0 69 -32 69 -69c0 -48 -44 -90 -91 -90zM444 589c-39 0 -69 30 -69 69c0 46 46 90 91 90c40 0 69 -32 69 -69c0 -48 -44 -90 -91 -90zM179 -10c-99 0 -156 50 -136 189l47 334h155l-41 -291c-10 -75 13 -100 54 -100
c37 0 93 29 108 136l36 255h155l-72 -513h-155l10 75c-32 -43 -89 -85 -161 -85z" />
    <glyph glyph-name="uni01D8" unicode="&#x1d8;" 
d="M307 773l94 173h156l-161 -173h-89zM218 589c-39 0 -69 30 -69 69c0 46 46 90 91 90c40 0 69 -32 69 -69c0 -48 -44 -90 -91 -90zM444 589c-39 0 -69 30 -69 69c0 46 46 90 91 90c40 0 69 -32 69 -69c0 -48 -44 -90 -91 -90zM179 -10c-99 0 -156 50 -136 189l47 334h155
l-41 -291c-10 -75 13 -100 54 -100c37 0 93 29 108 136l36 255h155l-72 -513h-155l10 75c-32 -43 -89 -85 -161 -85z" />
    <glyph glyph-name="uni01DA" unicode="&#x1da;" 
d="M401 773h-90l-115 173h133l38 -92l65 92h133zM218 589c-39 0 -69 30 -69 69c0 46 46 90 91 90c40 0 69 -32 69 -69c0 -48 -44 -90 -91 -90zM375 658c0 46 46 90 91 90c40 0 69 -32 69 -69c0 -48 -44 -90 -91 -90c-39 0 -69 30 -69 69zM366 258l36 255h155l-72 -513h-155
l10 75c-32 -43 -89 -85 -161 -85c-99 0 -156 50 -136 189l47 334h155l-41 -291c-10 -75 13 -100 54 -100c37 0 93 29 108 136z" />
    <glyph glyph-name="uni01DC" unicode="&#x1dc;" 
d="M429 773h-89l-112 173h156zM218 589c-39 0 -69 30 -69 69c0 46 46 90 91 90c40 0 69 -32 69 -69c0 -48 -44 -90 -91 -90zM444 589c-39 0 -69 30 -69 69c0 46 46 90 91 90c40 0 69 -32 69 -69c0 -48 -44 -90 -91 -90zM179 -10c-99 0 -156 50 -136 189l47 334h155l-41 -291
c-10 -75 13 -100 54 -100c37 0 93 29 108 136l36 255h155l-72 -513h-155l10 75c-32 -43 -89 -85 -161 -85z" />
    <glyph glyph-name="uni01D6" unicode="&#x1d6;" 
d="M192 813l14 96h339l-14 -96h-339zM218 589c-39 0 -69 30 -69 69c0 46 46 90 91 90c40 0 69 -32 69 -69c0 -48 -44 -90 -91 -90zM444 589c-39 0 -69 30 -69 69c0 46 46 90 91 90c40 0 69 -32 69 -69c0 -48 -44 -90 -91 -90zM179 -10c-99 0 -156 50 -136 189l47 334h155
l-41 -291c-10 -75 13 -100 54 -100c37 0 93 29 108 136l36 255h155l-72 -513h-155l10 75c-32 -43 -89 -85 -161 -85z" />
    <glyph glyph-name="uni1EE5" unicode="&#x1ee5;" 
d="M179 -10c-99 0 -156 50 -136 189l47 334h155l-41 -291c-10 -75 13 -100 54 -100c37 0 93 29 108 136l36 255h155l-72 -513h-155l10 75c-32 -43 -89 -85 -161 -85zM212 -233c-46 0 -81 39 -74 86c6 46 52 86 98 86c47 0 80 -40 74 -86c-7 -47 -51 -86 -98 -86z" />
    <glyph glyph-name="ugrave" unicode="&#xf9;" 
d="M402 580h-89l-112 173h156zM179 -10c-99 0 -156 50 -136 189l47 334h155l-41 -291c-10 -75 13 -100 54 -100c37 0 93 29 108 136l36 255h155l-72 -513h-155l10 75c-32 -43 -89 -85 -161 -85z" />
    <glyph glyph-name="uni1EE7" unicode="&#x1ee7;" 
d="M345 714c-13 0 -26 -13 -32 -31h-91c14 70 70 100 133 100s115 -30 106 -100c-11 -72 -92 -72 -98 -115h-76c9 63 71 70 78 115c2 18 -6 31 -20 31zM402 513h155l-72 -513h-155l10 75c-32 -43 -89 -85 -161 -85c-99 0 -156 50 -136 189l47 334h155l-41 -291
c-10 -75 13 -100 54 -100c37 0 93 29 108 136z" />
    <glyph glyph-name="uhorn" unicode="&#x1b0;" horiz-adv-x="722" 
d="M733 514c2 -12 3 -25 -1 -43c-14 -107 -126 -175 -206 -178l-41 -293h-155l10 75c-32 -43 -89 -85 -161 -85c-99 0 -156 50 -136 189l47 334h155l-41 -291c-10 -75 13 -100 54 -100c37 0 93 29 108 136l36 255h155l-19 -133c31 3 57 32 65 91c4 18 3 31 1 43h129z" />
    <glyph glyph-name="uni1EE9" unicode="&#x1ee9;" horiz-adv-x="722" 
d="M530 753l-161 -173h-89l94 173h156zM733 514c2 -12 3 -25 -1 -43c-14 -107 -126 -175 -206 -178l-41 -293h-155l10 75c-32 -43 -89 -85 -161 -85c-99 0 -156 50 -136 189l47 334h155l-41 -291c-10 -75 13 -100 54 -100c37 0 93 29 108 136l36 255h155l-19 -133
c31 3 57 32 65 91c4 18 3 31 1 43h129z" />
    <glyph glyph-name="uni1EF1" unicode="&#x1ef1;" horiz-adv-x="722" 
d="M733 514c2 -12 3 -25 -1 -43c-14 -107 -126 -175 -206 -178l-41 -293h-155l10 75c-32 -43 -89 -85 -161 -85c-99 0 -156 50 -136 189l47 334h155l-41 -291c-10 -75 13 -100 54 -100c37 0 93 29 108 136l36 255h155l-19 -133c31 3 57 32 65 91c4 18 3 31 1 43h129z
M236 -61c47 0 80 -40 74 -86c-7 -47 -51 -86 -98 -86c-46 0 -81 39 -74 86c6 46 52 86 98 86z" />
    <glyph glyph-name="uni1EEB" unicode="&#x1eeb;" horiz-adv-x="722" 
d="M402 580h-89l-112 173h156zM733 514c2 -12 3 -25 -1 -43c-14 -107 -126 -175 -206 -178l-41 -293h-155l10 75c-32 -43 -89 -85 -161 -85c-99 0 -156 50 -136 189l47 334h155l-41 -291c-10 -75 13 -100 54 -100c37 0 93 29 108 136l36 255h155l-19 -133c31 3 57 32 65 91
c4 18 3 31 1 43h129z" />
    <glyph glyph-name="uni1EED" unicode="&#x1eed;" horiz-adv-x="722" 
d="M345 714c-13 0 -26 -13 -32 -31h-91c14 70 70 100 133 100s115 -30 106 -100c-11 -72 -92 -72 -98 -115h-76c9 63 71 70 78 115c2 18 -6 31 -20 31zM733 514c2 -12 3 -25 -1 -43c-14 -107 -126 -175 -206 -178l-41 -293h-155l10 75c-32 -43 -89 -85 -161 -85
c-99 0 -156 50 -136 189l47 334h155l-41 -291c-10 -75 13 -100 54 -100c37 0 93 29 108 136l36 255h155l-19 -133c31 3 57 32 65 91c4 18 3 31 1 43h129z" />
    <glyph glyph-name="uni1EEF" unicode="&#x1eef;" horiz-adv-x="722" 
d="M277 650c-33 0 -49 -28 -62 -58h-73c26 110 84 164 150 164c83 0 78 -58 128 -58c33 0 48 27 61 58h73c-25 -114 -83 -164 -149 -164c-83 0 -79 58 -128 58zM733 514c2 -12 3 -25 -1 -43c-14 -107 -126 -175 -206 -178l-41 -293h-155l10 75c-32 -43 -89 -85 -161 -85
c-99 0 -156 50 -136 189l47 334h155l-41 -291c-10 -75 13 -100 54 -100c37 0 93 29 108 136l36 255h155l-19 -133c31 3 57 32 65 91c4 18 3 31 1 43h129z" />
    <glyph glyph-name="uhungarumlaut" unicode="&#x171;" 
d="M183 580l94 173h156l-161 -173h-89zM372 580l95 173h155l-160 -173h-90zM179 -10c-99 0 -156 50 -136 189l47 334h155l-41 -291c-10 -75 13 -100 54 -100c37 0 93 29 108 136l36 255h155l-72 -513h-155l10 75c-32 -43 -89 -85 -161 -85z" />
    <glyph glyph-name="umacron" unicode="&#x16b;" 
d="M165 620l14 96h339l-14 -96h-339zM179 -10c-99 0 -156 50 -136 189l47 334h155l-41 -291c-10 -75 13 -100 54 -100c37 0 93 29 108 136l36 255h155l-72 -513h-155l10 75c-32 -43 -89 -85 -161 -85z" />
    <glyph glyph-name="uogonek" unicode="&#x173;" 
d="M428 0c-41 -30 -73 -67 -75 -99c-2 -22 10 -37 35 -37c15 0 33 5 49 11l-11 -82c-24 -12 -55 -23 -90 -23c-69 0 -114 39 -109 97c4 57 44 102 104 140l9 68c-32 -43 -89 -85 -161 -85c-99 0 -156 50 -136 189l47 334h155l-41 -291c-10 -75 13 -100 54 -100
c37 0 93 29 108 136l36 255h155l-72 -513h-57z" />
    <glyph glyph-name="uring" unicode="&#x16f;" 
d="M327 560c-70 0 -121 55 -111 125c9 69 77 124 146 124s121 -55 111 -124c-9 -70 -77 -125 -146 -125zM338 640c25 0 47 20 50 45c3 24 -12 44 -37 44s-47 -20 -50 -44c-3 -25 12 -45 37 -45zM179 -10c-99 0 -156 50 -136 189l47 334h155l-41 -291
c-10 -75 13 -100 54 -100c37 0 93 29 108 136l36 255h155l-72 -513h-155l10 75c-32 -43 -89 -85 -161 -85z" />
    <glyph glyph-name="utilde" unicode="&#x169;" 
d="M277 650c-33 0 -49 -28 -62 -58h-73c26 110 84 164 150 164c83 0 78 -58 128 -58c33 0 48 27 61 58h73c-25 -114 -83 -164 -149 -164c-83 0 -79 58 -128 58zM402 513h155l-72 -513h-155l10 75c-32 -43 -89 -85 -161 -85c-99 0 -156 50 -136 189l47 334h155l-41 -291
c-10 -75 13 -100 54 -100c37 0 93 29 108 136z" />
    <glyph glyph-name="v" unicode="v" horiz-adv-x="534" 
d="M408 513h164l-255 -513h-157l-125 513h173l57 -321z" />
    <glyph glyph-name="w" unicode="w" horiz-adv-x="800" 
d="M673 513h160l-226 -513h-148l-55 286l-133 -286h-152l-79 513h168l28 -310l128 280h136l50 -280z" />
    <glyph glyph-name="wacute" unicode="&#x1e83;" horiz-adv-x="800" 
d="M396 580l94 173h156l-161 -173h-89zM673 513h160l-226 -513h-148l-55 286l-133 -286h-152l-79 513h168l28 -310l128 280h136l50 -280z" />
    <glyph glyph-name="wcircumflex" unicode="&#x175;" horiz-adv-x="800" 
d="M458 673l-65 -93h-132l164 173h89l115 -173h-132zM673 513h160l-226 -513h-148l-55 286l-133 -286h-152l-79 513h168l28 -310l128 280h136l50 -280z" />
    <glyph glyph-name="wdieresis" unicode="&#x1e85;" horiz-adv-x="800" 
d="M334 589c-39 0 -69 30 -69 69c0 46 46 90 91 90c40 0 69 -32 69 -69c0 -48 -44 -90 -91 -90zM560 589c-39 0 -69 30 -69 69c0 46 46 90 91 90c40 0 69 -32 69 -69c0 -48 -44 -90 -91 -90zM673 513h160l-226 -513h-148l-55 286l-133 -286h-152l-79 513h168l28 -310
l128 280h136l50 -280z" />
    <glyph glyph-name="wgrave" unicode="&#x1e81;" horiz-adv-x="800" 
d="M518 580h-89l-112 173h156zM673 513h160l-226 -513h-148l-55 286l-133 -286h-152l-79 513h168l28 -310l128 280h136l50 -280z" />
    <glyph glyph-name="x" unicode="x" horiz-adv-x="543" 
d="M-29 0l213 260l-139 253h173l75 -128l106 128h170l-209 -259l140 -254h-173l-78 133l-108 -133h-170z" />
    <glyph glyph-name="y" unicode="y" horiz-adv-x="537" 
d="M408 513h167l-257 -513c-68 -135 -162 -230 -333 -230l19 134c60 0 112 28 154 104l-123 505h173l58 -321z" />
    <glyph glyph-name="yacute" unicode="&#xfd;" horiz-adv-x="537" 
d="M260 580l94 173h156l-161 -173h-89zM408 513h167l-257 -513c-68 -135 -162 -230 -333 -230l19 134c60 0 112 28 154 104l-123 505h173l58 -321z" />
    <glyph glyph-name="ycircumflex" unicode="&#x177;" horiz-adv-x="537" 
d="M322 673l-65 -93h-132l164 173h89l115 -173h-132zM408 513h167l-257 -513c-68 -135 -162 -230 -333 -230l19 134c60 0 112 28 154 104l-123 505h173l58 -321z" />
    <glyph glyph-name="ydieresis" unicode="&#xff;" horiz-adv-x="537" 
d="M198 589c-39 0 -69 30 -69 69c0 46 46 90 91 90c40 0 69 -32 69 -69c0 -48 -44 -90 -91 -90zM424 589c-39 0 -69 30 -69 69c0 46 46 90 91 90c40 0 69 -32 69 -69c0 -48 -44 -90 -91 -90zM408 513h167l-257 -513c-68 -135 -162 -230 -333 -230l19 134
c60 0 112 28 154 104l-123 505h173l58 -321z" />
    <glyph glyph-name="uni1EF5" unicode="&#x1ef5;" horiz-adv-x="537" 
d="M408 513h167l-257 -513c-68 -135 -162 -230 -333 -230l19 134c60 0 112 28 154 104l-123 505h173l58 -321zM373 -233c-46 0 -81 39 -74 86c6 46 52 86 98 86c47 0 80 -40 74 -86c-7 -47 -51 -86 -98 -86z" />
    <glyph glyph-name="ygrave" unicode="&#x1ef3;" horiz-adv-x="537" 
d="M382 580h-89l-112 173h156zM408 513h167l-257 -513c-68 -135 -162 -230 -333 -230l19 134c60 0 112 28 154 104l-123 505h173l58 -321z" />
    <glyph glyph-name="uni1EF7" unicode="&#x1ef7;" horiz-adv-x="537" 
d="M325 714c-13 0 -26 -13 -32 -31h-91c14 70 70 100 133 100s115 -30 106 -100c-11 -72 -92 -72 -98 -115h-76c9 63 71 70 78 115c2 18 -6 31 -20 31zM408 513h167l-257 -513c-68 -135 -162 -230 -333 -230l19 134c60 0 112 28 154 104l-123 505h173l58 -321z" />
    <glyph glyph-name="uni1EF9" unicode="&#x1ef9;" horiz-adv-x="537" 
d="M257 650c-33 0 -49 -28 -62 -58h-73c26 110 84 164 150 164c83 0 78 -58 128 -58c33 0 48 27 61 58h73c-25 -114 -83 -164 -149 -164c-83 0 -79 58 -128 58zM408 513h167l-257 -513c-68 -135 -162 -230 -333 -230l19 134c60 0 112 28 154 104l-123 505h173l58 -321z" />
    <glyph glyph-name="z" unicode="z" horiz-adv-x="504" 
d="M-4 81l282 318h-217l16 114h425l-12 -81l-288 -318h252l-16 -114h-454z" />
    <glyph glyph-name="zacute" unicode="&#x17a;" horiz-adv-x="504" 
d="M251 580l94 173h156l-161 -173h-89zM-4 81l282 318h-217l16 114h425l-12 -81l-288 -318h252l-16 -114h-454z" />
    <glyph glyph-name="zcaron" unicode="&#x17e;" horiz-adv-x="504" 
d="M345 580h-90l-115 173h133l38 -92l65 92h133zM61 399l16 114h425l-12 -81l-288 -318h252l-16 -114h-454l12 81l282 318h-217z" />
    <glyph glyph-name="zdotaccent" unicode="&#x17c;" horiz-adv-x="504" 
d="M300 575c-42 0 -75 34 -75 76c0 51 49 96 99 96c43 0 75 -35 75 -76c0 -52 -48 -96 -99 -96zM-4 81l282 318h-217l16 114h425l-12 -81l-288 -318h252l-16 -114h-454z" />
    <glyph glyph-name="uni0410" unicode="&#x410;" horiz-adv-x="678" 
d="M462 0l-29 164h-221l-72 -164h-168l324 700h197l140 -700h-171zM262 290h153l-44 240z" />
    <glyph glyph-name="uni0411" unicode="&#x411;" horiz-adv-x="657" 
d="M405 427c125 0 217 -72 217 -187c0 -137 -131 -240 -277 -240h-317l98 700h513l-18 -125h-352l-21 -148h157zM323 126c80 0 127 39 127 99c0 51 -34 76 -102 76h-118l-24 -175h117z" />
    <glyph glyph-name="uni0412" unicode="&#x412;" horiz-adv-x="665" 
d="M514 361c63 -20 113 -64 113 -147c0 -134 -133 -214 -270 -214h-329l98 700h292c114 0 213 -55 213 -171c0 -75 -43 -130 -117 -168zM269 575l-22 -157h105c75 0 117 37 117 88c0 41 -28 69 -94 69h-106zM328 126c78 0 131 30 131 93c0 47 -29 74 -104 74h-126l-23 -167
h122z" />
    <glyph glyph-name="uni0413" unicode="&#x413;" horiz-adv-x="526" 
d="M580 700l-18 -125h-293l-81 -575h-160l98 700h454z" />
    <glyph glyph-name="uni0403" unicode="&#x403;" horiz-adv-x="526" 
d="M292 757l133 143h166l-193 -143h-106zM580 700l-18 -125h-293l-81 -575h-160l98 700h454z" />
    <glyph glyph-name="uni0490" unicode="&#x490;" horiz-adv-x="527" 
d="M466 840h134l-37 -265h-134h-160l-81 -575h-160l98 700h320z" />
    <glyph glyph-name="uni0414" unicode="&#x414;" horiz-adv-x="756" 
d="M-50 -167l40 293h68c67 39 126 197 178 574h478l-81 -574h96l-41 -293h-101l5 167h-500l-41 -167h-101zM235 126h238l63 449h-167c-32 -204 -75 -362 -134 -449z" />
    <glyph glyph-name="uni0415" unicode="&#x415;" horiz-adv-x="569" 
d="M211 126h305l-17 -126h-466l98 700h456l-18 -125h-295l-21 -150h266l-18 -126h-266z" />
    <glyph glyph-name="uni0401" unicode="&#x401;" horiz-adv-x="569" 
d="M259 762c-39 0 -69 30 -69 69c0 46 46 90 91 90c40 0 69 -32 69 -69c0 -48 -44 -90 -91 -90zM485 762c-39 0 -69 30 -69 69c0 46 46 90 91 90c40 0 69 -32 69 -69c0 -48 -44 -90 -91 -90zM211 126h305l-17 -126h-466l98 700h456l-18 -125h-295l-21 -150h266l-18 -126
h-266z" />
    <glyph glyph-name="uni0416" unicode="&#x416;" horiz-adv-x="929" 
d="M894 115c5 0 9 1 15 2l-16 -117c-15 -6 -38 -10 -59 -10c-108 0 -127 68 -140 135l-15 82c-8 46 -29 86 -100 86h-36l-41 -293h-147l41 293h-37c-71 0 -103 -40 -124 -86l-38 -82c-31 -67 -70 -135 -178 -135c-21 0 -41 4 -55 10l16 117c6 -1 10 -2 15 -2
c33 0 53 31 67 62l30 71c24 55 54 96 114 111c-56 15 -76 50 -78 111l-3 53c-1 39 -14 62 -44 62c-4 0 -9 -1 -14 -2l15 117c15 6 37 10 58 10c107 0 132 -59 136 -135l4 -71c3 -42 21 -86 97 -86h37l39 282h147l-39 -282h37c76 0 106 44 121 86l24 71c26 76 67 135 174 135
c21 0 41 -4 54 -10l-16 -117c-6 1 -11 2 -15 2c-30 0 -49 -23 -61 -62l-18 -53c-19 -61 -49 -96 -109 -111c56 -15 75 -56 82 -111l11 -71c4 -31 16 -62 49 -62z" />
    <glyph glyph-name="uni0417" unicode="&#x417;" horiz-adv-x="625" 
d="M278 -10c-150 0 -253 75 -247 240h155c-2 -73 29 -121 106 -121c75 0 127 44 127 100c0 52 -47 92 -149 92l15 112c117 0 158 46 158 105c0 43 -25 73 -85 73c-73 0 -109 -48 -125 -114h-150c35 150 146 233 296 233c129 0 228 -58 228 -172c0 -76 -44 -143 -123 -178
c66 -31 98 -75 98 -140c0 -149 -148 -230 -304 -230z" />
    <glyph glyph-name="uni0418" unicode="&#x418;" horiz-adv-x="741" 
d="M619 700h120l-98 -700h-160l61 434l-393 -434h-121l98 700h160l-61 -434z" />
    <glyph glyph-name="uni0419" unicode="&#x419;" horiz-adv-x="741" 
d="M445 747c-106 0 -150 70 -146 163h86c8 -44 30 -67 74 -67c43 0 71 23 92 67h86c-23 -93 -87 -163 -192 -163zM619 700h120l-98 -700h-160l61 434l-393 -434h-121l98 700h160l-61 -434z" />
    <glyph glyph-name="uni041A" unicode="&#x41a;" horiz-adv-x="669" 
d="M634 115c4 0 9 1 14 2l-15 -117c-16 -6 -38 -10 -59 -10c-108 0 -127 68 -140 135l-15 82c-8 46 -29 86 -100 86h-90l-41 -293h-160l59 418l39 282h160l-39 -282h90c76 0 107 44 121 86l25 71c26 76 67 135 174 135c21 0 41 -4 54 -10l-16 -117c-6 1 -11 2 -15 2
c-30 0 -50 -23 -61 -62l-18 -53c-19 -61 -49 -96 -109 -111c56 -15 74 -56 82 -111l11 -71c4 -31 16 -62 49 -62z" />
    <glyph glyph-name="uni040C" unicode="&#x40c;" horiz-adv-x="669" 
d="M355 757l133 143h166l-193 -143h-106zM634 115c4 0 9 1 14 2l-15 -117c-16 -6 -38 -10 -59 -10c-108 0 -127 68 -140 135l-15 82c-8 46 -29 86 -100 86h-90l-41 -293h-160l59 418l39 282h160l-39 -282h90c76 0 107 44 121 86l25 71c26 76 67 135 174 135
c21 0 41 -4 54 -10l-16 -117c-6 1 -11 2 -15 2c-30 0 -50 -23 -61 -62l-18 -53c-19 -61 -49 -96 -109 -111c56 -15 74 -56 82 -111l11 -71c4 -31 16 -62 49 -62z" />
    <glyph glyph-name="uni041B" unicode="&#x41b;" horiz-adv-x="702" 
d="M700 700l-98 -700h-160l80 575h-166c-67 -416 -184 -585 -321 -585c-27 0 -48 4 -62 10l16 117c5 -1 10 -2 15 -2c74 0 151 96 220 585h476z" />
    <glyph glyph-name="uni041C" unicode="&#x41c;" horiz-adv-x="844" 
d="M706 700h141l-98 -700h-160l53 364l-227 -304h-40l-140 304l-52 -364h-160l98 700h139l167 -388z" />
    <glyph glyph-name="uni041D" unicode="&#x41d;" horiz-adv-x="731" 
d="M569 700h160l-98 -700h-160l42 299h-283l-42 -299h-160l98 700h160l-38 -275h283z" />
    <glyph glyph-name="uni041E" unicode="&#x41e;" horiz-adv-x="712" 
d="M420 710c171 0 275 -112 275 -288c0 -233 -150 -432 -377 -432c-171 0 -274 112 -274 288c0 233 150 432 376 432zM336 116c120 0 190 175 190 309c0 103 -48 160 -124 160c-120 0 -189 -176 -189 -310c0 -103 48 -159 123 -159z" />
    <glyph glyph-name="uni041F" unicode="&#x41f;" horiz-adv-x="715" 
d="M28 0l98 700h587l-98 -700h-160l80 575h-266l-81 -575h-160z" />
    <glyph glyph-name="uni0420" unicode="&#x420;" horiz-adv-x="599" 
d="M382 700c126 0 233 -53 233 -202c0 -156 -119 -254 -289 -254h-99l-34 -244h-160l98 700h251zM310 370c89 0 147 50 147 124c0 56 -34 81 -112 81h-71l-29 -205h65z" />
    <glyph glyph-name="uni0421" unicode="&#x421;" horiz-adv-x="678" 
d="M342 116c59 0 111 33 142 120h156c-44 -170 -178 -246 -318 -246c-169 0 -273 110 -273 296c0 221 150 424 377 424c150 0 249 -90 246 -246h-156c-7 82 -47 121 -106 121c-123 0 -192 -176 -192 -306c0 -107 46 -163 124 -163z" />
    <glyph glyph-name="uni0422" unicode="&#x422;" horiz-adv-x="578" 
d="M632 700l-18 -125h-200l-81 -575h-160l81 575h-201l18 125h561z" />
    <glyph glyph-name="uni0423" unicode="&#x423;" horiz-adv-x="643" 
d="M519 700h178l-288 -490c-83 -144 -183 -220 -348 -220l20 134c66 0 119 23 169 82l-179 494h181l98 -310z" />
    <glyph glyph-name="uni040E" unicode="&#x40e;" horiz-adv-x="643" 
d="M395 747c-106 0 -150 70 -146 163h86c8 -44 30 -67 74 -67c43 0 71 23 92 67h86c-23 -93 -87 -163 -192 -163zM519 700h178l-288 -490c-83 -144 -183 -220 -348 -220l20 134c66 0 119 23 169 82l-179 494h181l98 -310z" />
    <glyph glyph-name="uni0424" unicode="&#x424;" horiz-adv-x="776" 
d="M514 636c131 -8 243 -88 243 -244c0 -178 -145 -319 -323 -328l-12 -84h-146l12 84c-131 8 -243 88 -243 244c0 178 145 319 323 328l12 84h146zM303 175l49 351c-92 -11 -153 -112 -153 -215c0 -82 40 -129 104 -136zM450 175c92 10 153 111 153 214
c0 82 -40 129 -104 137z" />
    <glyph glyph-name="uni0425" unicode="&#x425;" horiz-adv-x="666" 
d="M621 0h-182l-115 216l-166 -216h-186l281 357l-176 343h182l111 -207l159 207h183l-274 -345z" />
    <glyph glyph-name="uni0427" unicode="&#x427;" horiz-adv-x="648" 
d="M486 700h160l-98 -700h-160l39 279c-43 -20 -111 -38 -187 -38c-152 0 -225 60 -202 223l33 236h170l-31 -223c-10 -72 26 -111 100 -111c47 0 94 10 134 36z" />
    <glyph glyph-name="uni0426" unicode="&#x426;" horiz-adv-x="740" 
d="M713 126l-40 -293h-101l5 167h-549l98 700h160l-80 -574h246l81 574h160l-81 -574h101z" />
    <glyph glyph-name="uni0428" unicode="&#x428;" horiz-adv-x="942" 
d="M780 700h160l-98 -700h-814l98 700h160l-80 -574h167l80 574h160l-80 -574h167z" />
    <glyph glyph-name="uni0429" unicode="&#x429;" horiz-adv-x="986" 
d="M817 -167l5 167h-794l98 700h160l-80 -574h167l80 574h160l-80 -574h167l80 574h160l-80 -574h99l-41 -293h-101z" />
    <glyph glyph-name="uni040F" unicode="&#x40f;" horiz-adv-x="705" 
d="M243 -167l14 167h-229l98 700h160l-80 -574h256l81 574h160l-98 -700h-228l-33 -167h-101z" />
    <glyph glyph-name="uni042C" unicode="&#x42c;" horiz-adv-x="642" 
d="M405 427c125 0 217 -72 217 -187c0 -137 -131 -240 -277 -240h-317l98 700h160l-38 -273h157zM323 126c80 0 127 39 127 99c0 51 -34 76 -102 76h-118l-24 -175h117z" />
    <glyph glyph-name="uni042A" unicode="&#x42a;" horiz-adv-x="742" 
d="M504 427c126 0 218 -72 218 -187c0 -137 -131 -240 -277 -240h-317l80 575h-155l18 125h315l-39 -273h157zM423 126c80 0 127 39 127 99c0 51 -34 76 -103 76h-117l-25 -175h118z" />
    <glyph glyph-name="uni042B" unicode="&#x42b;" horiz-adv-x="892" 
d="M28 0l98 700h160l-38 -273h114c126 0 218 -72 218 -187c0 -137 -131 -240 -278 -240h-274zM632 0l98 700h160l-98 -700h-160zM206 126h74c81 0 127 39 127 100c0 50 -33 75 -102 75h-75z" />
    <glyph glyph-name="uni0409" unicode="&#x409;" horiz-adv-x="997" 
d="M760 427c125 0 218 -72 218 -187c0 -137 -131 -240 -278 -240h-274l81 575h-151c-68 -421 -181 -585 -325 -585c-22 0 -44 4 -58 10l16 117c5 -1 10 -2 17 -2c138 0 194 428 218 585h460l-38 -273h114zM678 126c81 0 127 39 127 99c0 51 -33 76 -102 76h-75l-24 -175h74z
" />
    <glyph glyph-name="uni040A" unicode="&#x40a;" horiz-adv-x="993" 
d="M756 427c126 0 218 -72 218 -187c0 -137 -131 -240 -278 -240h-274l42 301h-234l-42 -301h-160l60 426l38 274h160l-38 -274h234l38 274h160l-38 -273h114zM674 126c81 0 127 39 127 99c0 51 -33 76 -102 76h-75l-24 -175h74z" />
    <glyph glyph-name="uni0405" unicode="&#x405;" horiz-adv-x="609" 
d="M265 -10c-164 0 -237 85 -231 220h153c0 -74 46 -94 97 -94c62 0 107 30 107 75c0 117 -299 63 -299 288c0 144 120 231 279 231c155 0 223 -82 221 -209h-154c-1 62 -32 90 -84 90c-54 0 -96 -30 -96 -77c0 -122 304 -61 304 -285c0 -146 -125 -239 -297 -239z" />
    <glyph glyph-name="uni0404" unicode="&#x404;" horiz-adv-x="678" 
d="M410 585c-82 0 -140 -78 -170 -169h203l-18 -125h-207v-12c0 -107 46 -163 124 -163c59 0 111 33 142 120h156c-44 -170 -178 -246 -318 -246c-169 0 -273 110 -273 296c0 221 150 424 377 424c150 0 249 -90 246 -246h-156c-7 82 -47 121 -106 121z" />
    <glyph glyph-name="uni042D" unicode="&#x42d;" horiz-adv-x="674" 
d="M398 710c168 0 258 -106 258 -289c0 -227 -135 -431 -364 -431c-156 0 -259 89 -259 246h156c9 -89 58 -120 118 -120c82 0 135 81 161 175h-220l18 125h222v15c0 99 -34 154 -112 154c-67 0 -122 -36 -155 -121h-156c49 175 191 246 333 246z" />
    <glyph glyph-name="uni0406" unicode="&#x406;" horiz-adv-x="298" 
d="M131 700h160l-98 -700h-160z" />
    <glyph glyph-name="uni0407" unicode="&#x407;" horiz-adv-x="298" 
d="M108 762c-39 0 -69 30 -69 69c0 46 46 90 91 90c40 0 69 -32 69 -69c0 -48 -44 -90 -91 -90zM334 762c-39 0 -69 30 -69 69c0 46 46 90 91 90c40 0 69 -32 69 -69c0 -48 -44 -90 -91 -90zM131 700h160l-98 -700h-160z" />
    <glyph glyph-name="uni0408" unicode="&#x408;" horiz-adv-x="487" 
d="M326 700h160l-73 -516c-18 -127 -114 -194 -234 -194c-121 0 -189 67 -168 212h152c-8 -53 0 -86 33 -86s52 33 60 88z" />
    <glyph glyph-name="uni040B" unicode="&#x40b;" horiz-adv-x="792" 
d="M569 432c135 0 206 -51 184 -207l-31 -225h-170l30 214c9 64 -26 92 -84 92c-40 0 -87 -10 -127 -35l-38 -271h-160l81 575h-201l18 125h561l-18 -125h-200l-26 -182c43 21 111 39 181 39z" />
    <glyph glyph-name="uni042E" unicode="&#x42e;" horiz-adv-x="980" 
d="M713 710c154 0 249 -108 249 -292c0 -221 -140 -428 -354 -428c-154 0 -249 108 -249 292v9h-130l-41 -291h-160l98 700h160l-40 -284h131c43 164 167 294 336 294zM629 116c97 0 164 194 164 316c0 94 -41 153 -101 153c-97 0 -164 -195 -164 -317
c0 -94 40 -152 101 -152z" />
    <glyph glyph-name="uni042F" unicode="&#x42f;" horiz-adv-x="640" 
d="M638 700l-98 -700h-160l36 258h-61c-71 0 -123 -37 -136 -86l-14 -47c-19 -68 -70 -135 -175 -135c-24 0 -44 4 -57 10l16 117c5 -1 10 -2 15 -2c33 0 58 34 66 62l12 36c12 47 43 83 90 102c-51 29 -80 68 -80 136c0 153 122 249 286 249h260zM366 383h68l27 192h-68
c-92 0 -141 -39 -141 -113c0 -53 32 -79 114 -79z" />
    <glyph glyph-name="uni0402" unicode="&#x402;" horiz-adv-x="748" 
d="M510 427c126 0 218 -72 218 -186c0 -134 -127 -241 -261 -241h-76l17 126h37c63 0 111 39 111 100c0 50 -34 75 -103 75h-78l-42 -301h-160l60 427l21 148h-201l18 125h561l-18 -125h-200l-21 -148h117z" />
    <glyph glyph-name="uni0462" unicode="&#x462;" horiz-adv-x="724" 
d="M487 427c126 0 218 -72 218 -187c0 -137 -131 -240 -278 -240h-316l71 510h-138l14 96h137l14 94h160l-14 -94h198l-14 -96h-197l-12 -83h157zM406 126c80 0 127 39 127 100c0 50 -34 75 -103 75h-117l-25 -175h118z" />
    <glyph glyph-name="uni0472" unicode="&#x472;" horiz-adv-x="712" 
d="M420 710c173 0 274 -112 274 -287c0 -236 -147 -433 -376 -433c-173 0 -274 112 -274 287c0 236 148 433 376 433zM402 585c-89 0 -150 -78 -180 -172h314v7c0 104 -48 165 -134 165zM336 116c95 0 159 89 186 192h-319c-1 -9 -1 -19 -1 -28c0 -104 48 -164 134 -164z
" />
    <glyph glyph-name="uni0474" unicode="&#x474;" horiz-adv-x="665" 
d="M655 710c29 0 50 -4 63 -10l-16 -117c-6 1 -12 2 -19 2c-33 0 -53 -27 -68 -62l-228 -523h-197l-119 700h173l71 -521l156 398c34 83 88 133 184 133z" />
    <glyph glyph-name="uni0492" unicode="&#x492;" horiz-adv-x="631" 
d="M667 575h-293l-24 -167h186l-18 -126h-185l-40 -282h-160l40 282h-161l17 126h161l41 292h454z" />
    <glyph glyph-name="uni0494" unicode="&#x494;" horiz-adv-x="678" 
d="M309 -172c-40 0 -69 7 -97 18l18 126c16 -9 44 -18 74 -18c110 0 158 122 158 220c0 101 -49 132 -108 132c-39 0 -84 -14 -128 -42l-37 -264h-160l98 700h453l-17 -125h-294l-26 -189c49 29 112 46 173 46c119 0 217 -64 217 -245c0 -199 -119 -359 -324 -359z" />
    <glyph glyph-name="uni0496" unicode="&#x496;" horiz-adv-x="929" 
d="M917 710c21 0 41 -4 54 -10l-16 -117c-6 1 -11 2 -15 2c-30 0 -49 -23 -61 -62l-18 -53c-19 -61 -49 -96 -109 -111c56 -15 75 -56 82 -111l11 -71c4 -31 16 -62 49 -62c5 0 9 1 15 2l-41 -294h-97l1 177c-55 22 -68 74 -78 125l-15 82c-8 46 -29 86 -100 86h-36
l-41 -293h-147l41 293h-37c-71 0 -103 -40 -124 -86l-38 -82c-31 -67 -70 -135 -178 -135c-21 0 -41 4 -55 10l16 117c6 -1 10 -2 15 -2c33 0 53 31 67 62l30 71c24 55 54 96 114 111c-56 15 -76 50 -78 111l-3 53c-1 39 -14 62 -44 62c-4 0 -9 -1 -14 -2l15 117
c15 6 37 10 58 10c107 0 132 -59 136 -135l4 -71c3 -42 21 -86 97 -86h37l39 282h147l-39 -282h37c76 0 106 44 121 86l24 71c26 76 67 135 174 135z" />
    <glyph glyph-name="uni0498" unicode="&#x498;" horiz-adv-x="625" 
d="M484 360c66 -31 98 -75 98 -140c0 -134 -120 -213 -258 -228l-22 -39c61 10 110 -21 102 -81c-9 -68 -73 -102 -142 -102c-37 0 -59 8 -80 20l9 63c20 -12 37 -20 57 -20c25 0 47 12 49 34c6 42 -45 39 -101 21l48 103c-131 11 -219 87 -213 239h155
c-2 -73 29 -121 106 -121c75 0 127 44 127 100c0 52 -47 92 -149 92l15 112c117 0 158 46 158 105c0 43 -25 73 -85 73c-73 0 -109 -48 -125 -114h-150c35 150 146 233 296 233c129 0 228 -58 228 -172c0 -76 -44 -143 -123 -178z" />
    <glyph glyph-name="uni049A" unicode="&#x49a;" horiz-adv-x="668" 
d="M657 710c21 0 41 -4 54 -10l-16 -117c-6 1 -11 2 -15 2c-30 0 -50 -23 -61 -62l-18 -53c-19 -61 -49 -96 -109 -111c56 -15 74 -56 82 -111l11 -71c4 -31 16 -62 49 -62c4 0 9 1 14 2l-41 -294h-98l2 178c-54 21 -67 73 -77 124l-15 82c-8 46 -29 86 -100 86h-90
l-41 -293h-160l59 418l39 282h160l-39 -282h90c76 0 107 44 121 86l25 71c26 76 67 135 174 135z" />
    <glyph glyph-name="uni049C" unicode="&#x49c;" horiz-adv-x="702" 
d="M690 710c21 0 41 -4 54 -10l-16 -117c-6 1 -11 2 -15 2c-30 0 -49 -23 -61 -62l-18 -53c-19 -61 -49 -96 -109 -111c56 -15 74 -56 82 -111l11 -71c4 -31 16 -62 49 -62c4 0 9 1 14 2l-15 -117c-16 -6 -38 -10 -59 -10c-108 0 -127 68 -140 135l-15 82
c-7 41 -17 78 -77 85l-16 -111h-76l16 112h-70l-41 -293h-160l98 700h160l-39 -282h70l17 122h76l-17 -121c67 7 85 47 98 85l25 71c26 76 67 135 174 135z" />
    <glyph glyph-name="uni049E" unicode="&#x49e;" horiz-adv-x="668" 
d="M621 115c4 0 9 1 14 2l-16 -117c-15 -6 -37 -10 -58 -10c-108 0 -127 68 -140 135l-15 82c-9 46 -29 86 -100 86h-91l-40 -293h-160l70 502h-85l13 96h86l14 102h160l-14 -102h85l-13 -96h-86l-11 -84h90c76 0 107 44 121 86l25 71c26 76 67 135 173 135
c22 0 42 -4 54 -10l-16 -117c-5 1 -10 2 -14 2c-30 0 -50 -23 -62 -62l-17 -53c-20 -61 -49 -96 -110 -111c57 -15 75 -56 83 -111l10 -71c5 -31 16 -62 50 -62z" />
    <glyph glyph-name="uni04A0" unicode="&#x4a0;" horiz-adv-x="751" 
d="M716 115c4 0 9 1 14 2l-15 -117c-16 -6 -38 -10 -59 -10c-108 0 -127 68 -140 135l-15 82c-8 46 -29 86 -100 86h-91l-40 -293h-160l81 575h-138l18 125h297l-39 -282h90c76 0 107 44 121 86l25 71c26 76 67 135 174 135c21 0 41 -4 54 -10l-16 -117c-6 1 -11 2 -15 2
c-30 0 -50 -23 -61 -62l-18 -53c-19 -61 -49 -96 -109 -111c56 -15 74 -56 82 -111l11 -71c4 -31 16 -62 49 -62z" />
    <glyph glyph-name="uni04A2" unicode="&#x4a2;" horiz-adv-x="772" 
d="M603 -167l5 167h-137l42 299h-283l-42 -299h-160l98 700h160l-38 -275h283l38 275h160l-80 -574h96l-41 -293h-101z" />
    <glyph glyph-name="uni04A6" unicode="&#x4a6;" horiz-adv-x="1089" 
d="M843 432c118 0 216 -66 216 -242c0 -203 -118 -362 -323 -362c-41 0 -70 7 -98 18l18 126c16 -8 42 -18 77 -18c105 0 156 120 156 221c0 99 -50 131 -108 131c-41 0 -85 -14 -129 -42l-37 -264h-160l81 575h-267l-81 -575h-160l98 700h587l-44 -314c49 29 112 46 174 46
z" />
    <glyph glyph-name="uni0524" unicode="&#x524;" horiz-adv-x="755" 
d="M587 -167l5 167h-137l80 575h-266l-81 -575h-160l98 700h587l-81 -574h96l-40 -293h-101z" />
    <glyph glyph-name="uni04A8" unicode="&#x4a8;" horiz-adv-x="796" 
d="M723 337c0 -76 -37 -152 -95 -213c25 -9 57 -15 94 -15l-18 -119c-73 0 -133 21 -180 54c-60 -34 -128 -54 -195 -54c-157 0 -279 110 -279 303c0 229 170 417 407 417c58 0 113 -11 168 -38l-18 -134c-61 34 -112 47 -158 47c-153 0 -230 -148 -230 -293
c0 -130 62 -183 149 -183c27 0 54 5 79 14c-29 46 -44 98 -44 149c0 111 73 208 185 208c72 0 135 -44 135 -143zM573 374c-35 0 -52 -53 -52 -96c0 -30 7 -62 25 -90c36 39 58 87 58 138c0 35 -13 48 -31 48z" />
    <glyph glyph-name="uni04AA" unicode="&#x4aa;" horiz-adv-x="678" 
d="M410 585c-123 0 -192 -176 -192 -306c0 -107 46 -163 124 -163c59 0 111 33 142 120h156c-41 -159 -162 -236 -292 -245l-21 -38c62 10 110 -21 102 -81c-9 -68 -73 -102 -142 -102c-37 0 -59 8 -80 20l9 63c20 -12 37 -20 57 -20c25 0 47 12 50 34c5 42 -46 39 -102 21
l49 106c-138 20 -221 126 -221 292c0 221 150 424 377 424c150 0 249 -90 246 -246h-156c-7 82 -47 121 -106 121z" />
    <glyph glyph-name="uni04AC" unicode="&#x4ac;" horiz-adv-x="578" 
d="M614 575h-200l-63 -449h96l-41 -293h-101l5 167h-137l81 575h-201l18 125h561z" />
    <glyph glyph-name="uni04AE" unicode="&#x4ae;" horiz-adv-x="657" 
d="M217 0l38 265l-184 435h176l109 -284l181 284h174l-296 -436l-38 -264h-160z" />
    <glyph glyph-name="uni04B0" unicode="&#x4b0;" horiz-adv-x="657" 
d="M415 264l-3 -22h122l-14 -104h-123l-20 -138h-160l20 138h-122l14 104h123l3 23l-184 435h176l109 -284l181 284h174z" />
    <glyph glyph-name="uni04B2" unicode="&#x4b2;" horiz-adv-x="739" 
d="M525 -167l5 167h-91l-115 216l-166 -216h-186l281 357l-176 343h182l111 -207l159 207h183l-274 -345l122 -229h106l-40 -293h-101z" />
    <glyph glyph-name="uni04B6" unicode="&#x4b6;" horiz-adv-x="688" 
d="M519 -167l5 167h-136l39 279c-43 -20 -111 -38 -187 -38c-151 0 -225 60 -202 223l33 236h170l-31 -223c-10 -72 26 -111 100 -111c47 0 94 10 134 36l42 298h160l-81 -574h96l-41 -293h-101z" />
    <glyph glyph-name="uni04B8" unicode="&#x4b8;" horiz-adv-x="648" 
d="M486 700h160l-98 -700h-160l39 279c-26 -12 -60 -23 -100 -30l-17 -119h-76l15 111h-9c-152 0 -225 60 -202 223l33 236h170l-31 -223c-8 -56 13 -93 58 -106l16 119h77l-17 -122c35 4 70 14 100 34z" />
    <glyph glyph-name="uni04BA" unicode="&#x4ba;" horiz-adv-x="663" 
d="M433 438c146 0 214 -51 192 -207l-32 -231h-170l31 220c9 65 -23 93 -91 93c-47 0 -93 -11 -136 -36l-39 -277h-160l98 700h160l-42 -300c46 20 113 38 189 38z" />
    <glyph glyph-name="uni0526" unicode="&#x526;" horiz-adv-x="723" 
d="M555 -167l5 167h-137l31 220c9 65 -23 93 -90 93c-48 0 -94 -11 -137 -36l-39 -277h-160l98 700h160l-42 -300c46 20 113 38 189 38c146 0 215 -51 192 -207l-15 -105h86l-40 -293h-101z" />
    <glyph glyph-name="uni04BC" unicode="&#x4bc;" horiz-adv-x="835" 
d="M551 710c169 0 267 -107 267 -283c0 -29 -3 -54 -7 -83h-153h-328c-2 -18 -3 -35 -3 -52c0 -122 57 -176 143 -176c65 0 127 33 163 120h149c-58 -174 -193 -246 -332 -246c-166 0 -283 103 -283 298c0 20 1 40 4 59c-95 17 -140 92 -126 193c3 18 7 31 12 43h129
c-5 -12 -9 -25 -12 -43c-6 -43 5 -70 24 -82c57 146 187 252 353 252zM359 450h304c-8 94 -57 141 -131 141c-80 0 -139 -62 -173 -141z" />
    <glyph glyph-name="uni04BE" unicode="&#x4be;" horiz-adv-x="835" 
d="M551 710c169 0 267 -107 267 -283c0 -29 -3 -54 -7 -83h-153h-328c-2 -18 -3 -35 -3 -52c0 -122 57 -176 143 -176c65 0 127 33 163 120h149c-53 -158 -168 -231 -293 -244l-22 -159h-101l23 162c-133 23 -222 123 -222 293c0 20 1 40 4 59c-95 17 -140 92 -126 193
c3 18 7 31 12 43h129c-5 -12 -9 -25 -12 -43c-6 -43 5 -70 24 -82c57 146 187 252 353 252zM359 450h304c-8 94 -57 141 -131 141c-80 0 -139 -62 -173 -141z" />
    <glyph glyph-name="uni04C0" unicode="&#x4c0;" horiz-adv-x="298" 
d="M131 700h160l-98 -700h-160z" />
    <glyph glyph-name="uni04C1" unicode="&#x4c1;" horiz-adv-x="929" 
d="M535 747c-106 0 -150 70 -146 163h86c8 -44 30 -67 74 -67c43 0 71 23 92 67h86c-23 -93 -87 -163 -192 -163zM917 710c21 0 41 -4 54 -10l-16 -117c-6 1 -11 2 -15 2c-30 0 -49 -23 -61 -62l-18 -53c-19 -61 -49 -96 -109 -111c56 -15 75 -56 82 -111l11 -71
c4 -31 16 -62 49 -62c5 0 9 1 15 2l-16 -117c-15 -6 -38 -10 -59 -10c-108 0 -127 68 -140 135l-15 82c-8 46 -29 86 -100 86h-36l-41 -293h-147l41 293h-37c-71 0 -103 -40 -124 -86l-38 -82c-31 -67 -70 -135 -178 -135c-21 0 -41 4 -55 10l16 117c6 -1 10 -2 15 -2
c33 0 53 31 67 62l30 71c24 55 54 96 114 111c-56 15 -76 50 -78 111l-3 53c-1 39 -14 62 -44 62c-4 0 -9 -1 -14 -2l15 117c15 6 37 10 58 10c107 0 132 -59 136 -135l4 -71c3 -42 21 -86 97 -86h37l39 282h147l-39 -282h37c76 0 106 44 121 86l24 71c26 76 67 135 174 135
z" />
    <glyph glyph-name="uni04C3" unicode="&#x4c3;" horiz-adv-x="692" 
d="M321 -172c-39 0 -71 8 -94 18l17 126c19 -10 42 -18 81 -18c96 0 149 100 149 199c0 104 -67 140 -149 140h-96l-42 -293h-160l99 700h160l-40 -282h97c76 0 107 44 121 86l25 71c26 76 66 135 173 135c22 0 42 -4 55 -10l-16 -117c-6 1 -11 2 -15 2
c-30 0 -50 -23 -61 -62l-18 -53c-17 -57 -45 -90 -97 -107c83 -32 134 -95 134 -203c0 -203 -125 -332 -323 -332z" />
    <glyph glyph-name="uni04C5" unicode="&#x4c5;" horiz-adv-x="743" 
d="M716 126l-92 -293h-101l34 167h-115l80 575h-166c-67 -416 -183 -585 -321 -585c-27 0 -48 4 -62 10l16 117c5 -1 10 -2 15 -2c74 0 151 96 220 585h476l-81 -574h97z" />
    <glyph glyph-name="uni04C7" unicode="&#x4c7;" horiz-adv-x="731" 
d="M340 -230l17 125c76 0 105 44 114 102l42 302h-283l-42 -299h-160l98 700h160l-38 -275h283l38 275h160l-101 -723c-20 -137 -118 -207 -288 -207z" />
    <glyph glyph-name="uni04C9" unicode="&#x4c9;" horiz-adv-x="771" 
d="M745 126l-92 -293h-101l34 167h-115l42 299h-283l-42 -299h-160l98 700h160l-38 -275h283l38 275h160l-80 -574h96z" />
    <glyph glyph-name="uni04CB" unicode="&#x4cb;" horiz-adv-x="648" 
d="M302 -167l8 293h95l22 153c-43 -20 -111 -38 -187 -38c-151 0 -225 60 -202 223l33 236h170l-31 -223c-10 -72 26 -111 100 -111c47 0 94 10 134 36l42 298h160l-98 -700h-122l-23 -167h-101z" />
    <glyph glyph-name="uni04CD" unicode="&#x4cd;" horiz-adv-x="889" 
d="M863 126l-92 -293h-101l34 167h-115l51 364l-226 -304h-40l-140 304l-51 -364h-160l98 700h140l169 -388l277 388h140l-80 -574h96z" />
    <glyph glyph-name="uni04D0" unicode="&#x4d0;" horiz-adv-x="678" 
d="M411 747c-106 0 -150 70 -146 163h86c8 -44 30 -67 74 -67c43 0 71 23 92 67h86c-23 -93 -87 -163 -192 -163zM493 700l140 -700h-171l-29 164h-221l-72 -164h-168l324 700h197zM262 290h153l-44 240z" />
    <glyph glyph-name="uni04D2" unicode="&#x4d2;" horiz-adv-x="678" 
d="M300 762c-39 0 -69 30 -69 69c0 46 46 90 91 90c40 0 69 -32 69 -69c0 -48 -44 -90 -91 -90zM526 762c-39 0 -69 30 -69 69c0 46 46 90 91 90c40 0 69 -32 69 -69c0 -48 -44 -90 -91 -90zM462 0l-29 164h-221l-72 -164h-168l324 700h197l140 -700h-171zM262 290h153
l-44 240z" />
    <glyph glyph-name="uni04D6" unicode="&#x4d6;" horiz-adv-x="569" 
d="M370 747c-106 0 -150 70 -146 163h86c8 -44 30 -67 74 -67c43 0 71 23 92 67h86c-23 -93 -87 -163 -192 -163zM569 575h-295l-21 -150h266l-18 -126h-266l-24 -173h305l-17 -126h-466l98 700h456z" />
    <glyph glyph-name="uni04D8" unicode="&#x4d8;" horiz-adv-x="712" 
d="M413 710c164 0 281 -105 281 -296c0 -228 -156 -424 -384 -424c-170 0 -266 107 -266 286c0 24 2 50 6 78l-1 3h154h327c3 18 4 36 4 54c0 120 -59 174 -140 174c-66 0 -130 -36 -166 -127h-150c53 178 198 252 335 252zM329 109c81 0 140 62 173 142h-304
c8 -94 56 -142 131 -142z" />
    <glyph glyph-name="uni04DA" unicode="&#x4da;" horiz-adv-x="712" 
d="M314 762c-39 0 -69 30 -69 69c0 46 46 90 91 90c40 0 69 -32 69 -69c0 -48 -44 -90 -91 -90zM540 762c-39 0 -69 30 -69 69c0 46 46 90 91 90c40 0 69 -32 69 -69c0 -48 -44 -90 -91 -90zM413 710c164 0 281 -105 281 -296c0 -228 -156 -424 -384 -424
c-170 0 -266 107 -266 286c0 24 2 50 6 78l-1 3h154h327c3 18 4 36 4 54c0 120 -59 174 -140 174c-66 0 -130 -36 -166 -127h-150c53 178 198 252 335 252zM329 109c81 0 140 62 173 142h-304c8 -94 56 -142 131 -142z" />
    <glyph glyph-name="uni04DC" unicode="&#x4dc;" horiz-adv-x="929" 
d="M424 762c-39 0 -69 30 -69 69c0 46 46 90 91 90c40 0 69 -32 69 -69c0 -48 -44 -90 -91 -90zM650 762c-39 0 -69 30 -69 69c0 46 46 90 91 90c40 0 69 -32 69 -69c0 -48 -44 -90 -91 -90zM894 115c5 0 9 1 15 2l-16 -117c-15 -6 -38 -10 -59 -10c-108 0 -127 68 -140 135
l-15 82c-8 46 -29 86 -100 86h-36l-41 -293h-147l41 293h-37c-71 0 -103 -40 -124 -86l-38 -82c-31 -67 -70 -135 -178 -135c-21 0 -41 4 -55 10l16 117c6 -1 10 -2 15 -2c33 0 53 31 67 62l30 71c24 55 54 96 114 111c-56 15 -76 50 -78 111l-3 53c-1 39 -14 62 -44 62
c-4 0 -9 -1 -14 -2l15 117c15 6 37 10 58 10c107 0 132 -59 136 -135l4 -71c3 -42 21 -86 97 -86h37l39 282h147l-39 -282h37c76 0 106 44 121 86l24 71c26 76 67 135 174 135c21 0 41 -4 54 -10l-16 -117c-6 1 -11 2 -15 2c-30 0 -49 -23 -61 -62l-18 -53
c-19 -61 -49 -96 -109 -111c56 -15 75 -56 82 -111l11 -71c4 -31 16 -62 49 -62z" />
    <glyph glyph-name="uni04DE" unicode="&#x4de;" horiz-adv-x="625" 
d="M284 762c-39 0 -69 30 -69 69c0 46 46 90 91 90c40 0 69 -32 69 -69c0 -48 -44 -90 -91 -90zM510 762c-39 0 -69 30 -69 69c0 46 46 90 91 90c40 0 69 -32 69 -69c0 -48 -44 -90 -91 -90zM278 -10c-150 0 -253 75 -247 240h155c-2 -73 29 -121 106 -121
c75 0 127 44 127 100c0 52 -47 92 -149 92l15 112c117 0 158 46 158 105c0 43 -25 73 -85 73c-73 0 -109 -48 -125 -114h-150c35 150 146 233 296 233c129 0 228 -58 228 -172c0 -76 -44 -143 -123 -178c66 -31 98 -75 98 -140c0 -149 -148 -230 -304 -230z" />
    <glyph glyph-name="uni04E0" unicode="&#x4e0;" horiz-adv-x="596" 
d="M264 -10c-161 0 -253 95 -232 247h155c-7 -90 31 -128 93 -128c74 0 117 61 117 127c0 62 -36 105 -118 105h-71l9 63l151 171h-257l17 125h473l-12 -86l-171 -189c88 -30 143 -88 143 -185c0 -156 -137 -250 -297 -250z" />
    <glyph glyph-name="uni04E2" unicode="&#x4e2;" horiz-adv-x="741" 
d="M280 780l14 96h339l-14 -96h-339zM619 700h120l-98 -700h-160l61 434l-393 -434h-121l98 700h160l-61 -434z" />
    <glyph glyph-name="uni04E4" unicode="&#x4e4;" horiz-adv-x="741" 
d="M334 762c-39 0 -69 30 -69 69c0 46 46 90 91 90c40 0 69 -32 69 -69c0 -48 -44 -90 -91 -90zM560 762c-39 0 -69 30 -69 69c0 46 46 90 91 90c40 0 69 -32 69 -69c0 -48 -44 -90 -91 -90zM619 700h120l-98 -700h-160l61 434l-393 -434h-121l98 700h160l-61 -434z" />
    <glyph glyph-name="uni04E6" unicode="&#x4e6;" horiz-adv-x="712" 
d="M314 762c-39 0 -69 30 -69 69c0 46 46 90 91 90c40 0 69 -32 69 -69c0 -48 -44 -90 -91 -90zM540 762c-39 0 -69 30 -69 69c0 46 46 90 91 90c40 0 69 -32 69 -69c0 -48 -44 -90 -91 -90zM420 710c171 0 275 -112 275 -288c0 -233 -150 -432 -377 -432
c-171 0 -274 112 -274 288c0 233 150 432 376 432zM336 116c120 0 190 175 190 309c0 103 -48 160 -124 160c-120 0 -189 -176 -189 -310c0 -103 48 -159 123 -159z" />
    <glyph glyph-name="uni04E8" unicode="&#x4e8;" horiz-adv-x="712" 
d="M420 710c173 0 274 -112 274 -287c0 -236 -147 -433 -376 -433c-173 0 -274 112 -274 287c0 236 148 433 376 433zM402 585c-89 0 -150 -78 -180 -172h314v7c0 104 -48 165 -134 165zM336 116c95 0 159 89 186 192h-319c-1 -9 -1 -19 -1 -28c0 -104 48 -164 134 -164z
" />
    <glyph glyph-name="uni04EA" unicode="&#x4ea;" horiz-adv-x="712" 
d="M299 762c-39 0 -69 30 -69 69c0 46 46 90 91 90c40 0 69 -32 69 -69c0 -48 -44 -90 -91 -90zM525 762c-39 0 -69 30 -69 69c0 46 46 90 91 90c40 0 69 -32 69 -69c0 -48 -44 -90 -91 -90zM420 710c173 0 274 -112 274 -287c0 -236 -147 -433 -376 -433
c-173 0 -274 112 -274 287c0 236 148 433 376 433zM402 585c-89 0 -150 -78 -180 -172h314v7c0 104 -48 165 -134 165zM336 116c95 0 159 89 186 192h-319c-1 -9 -1 -19 -1 -28c0 -104 48 -164 134 -164z" />
    <glyph glyph-name="uni04EC" unicode="&#x4ec;" horiz-adv-x="674" 
d="M283 762c-39 0 -69 30 -69 69c0 46 46 90 91 90c40 0 69 -32 69 -69c0 -48 -44 -90 -91 -90zM509 762c-39 0 -69 30 -69 69c0 46 46 90 91 90c40 0 69 -32 69 -69c0 -48 -44 -90 -91 -90zM398 710c168 0 258 -106 258 -289c0 -227 -135 -431 -364 -431
c-156 0 -259 89 -259 246h156c9 -89 58 -120 118 -120c82 0 135 81 161 175h-220l18 125h222v15c0 99 -34 154 -112 154c-67 0 -122 -36 -155 -121h-156c49 175 191 246 333 246z" />
    <glyph glyph-name="uni04EE" unicode="&#x4ee;" horiz-adv-x="643" 
d="M230 780l14 96h339l-14 -96h-339zM519 700h178l-288 -490c-83 -144 -183 -220 -348 -220l20 134c66 0 119 23 169 82l-179 494h181l98 -310z" />
    <glyph glyph-name="uni04F0" unicode="&#x4f0;" horiz-adv-x="643" 
d="M284 762c-39 0 -69 30 -69 69c0 46 46 90 91 90c40 0 69 -32 69 -69c0 -48 -44 -90 -91 -90zM510 762c-39 0 -69 30 -69 69c0 46 46 90 91 90c40 0 69 -32 69 -69c0 -48 -44 -90 -91 -90zM519 700h178l-288 -490c-83 -144 -183 -220 -348 -220l20 134c66 0 119 23 169 82
l-179 494h181l98 -310z" />
    <glyph glyph-name="uni04F2" unicode="&#x4f2;" horiz-adv-x="643" 
d="M221 757l114 143h166l-174 -143h-106zM420 757l114 143h166l-174 -143h-106zM519 700h178l-288 -490c-83 -144 -183 -220 -348 -220l20 134c66 0 119 23 169 82l-179 494h181l98 -310z" />
    <glyph glyph-name="uni04F4" unicode="&#x4f4;" horiz-adv-x="648" 
d="M258 762c-39 0 -69 30 -69 69c0 46 46 90 91 90c40 0 69 -32 69 -69c0 -48 -44 -90 -91 -90zM484 762c-39 0 -69 30 -69 69c0 46 46 90 91 90c40 0 69 -32 69 -69c0 -48 -44 -90 -91 -90zM486 700h160l-98 -700h-160l39 279c-43 -20 -111 -38 -187 -38
c-152 0 -225 60 -202 223l33 236h170l-31 -223c-10 -72 26 -111 100 -111c47 0 94 10 134 36z" />
    <glyph glyph-name="uni04F6" unicode="&#x4f6;" horiz-adv-x="526" 
d="M562 575h-293l-63 -449h95l-40 -293h-101l5 167h-137l98 700h454z" />
    <glyph glyph-name="uni04F8" unicode="&#x4f8;" horiz-adv-x="892" 
d="M405 762c-39 0 -69 30 -69 69c0 46 46 90 91 90c40 0 69 -32 69 -69c0 -48 -44 -90 -91 -90zM631 762c-39 0 -69 30 -69 69c0 46 46 90 91 90c40 0 69 -32 69 -69c0 -48 -44 -90 -91 -90zM28 0l98 700h160l-38 -273h114c126 0 218 -72 218 -187
c0 -137 -131 -240 -278 -240h-274zM632 0l98 700h160l-98 -700h-160zM206 126h74c81 0 127 39 127 100c0 50 -33 75 -102 75h-75z" />
    <glyph glyph-name="uni04FC" unicode="&#x4fc;" horiz-adv-x="695" 
d="M431 -177c-19 0 -31 3 -43 6l14 100c12 -4 24 -6 43 -6c38 0 73 23 94 77h-102l-116 216l-165 -216h-184l279 357l-176 343h184l112 -207l158 207h181l-272 -345l122 -229h104c-7 -211 -120 -303 -233 -303z" />
    <glyph glyph-name="uni0510" unicode="&#x510;" horiz-adv-x="626" 
d="M431 230h156c-37 -157 -155 -240 -317 -240c-134 0 -245 58 -245 179c0 85 57 155 144 191c-54 28 -79 67 -79 127c0 143 137 223 284 223c144 0 236 -76 231 -233h-151c3 66 -20 114 -94 114c-69 0 -109 -41 -109 -96c0 -39 23 -82 133 -82l-16 -112
c-117 0 -178 -56 -178 -115c0 -47 38 -77 100 -77c77 0 122 45 141 121z" />
    <glyph glyph-name="uni0512" unicode="&#x512;" horiz-adv-x="700" 
d="M309 -230l18 125c76 0 105 44 114 102l80 578h-166c-66 -416 -182 -585 -320 -585c-27 0 -48 4 -63 10l17 117c5 -1 9 -2 15 -2c74 0 151 96 219 585h476l-102 -723c-19 -137 -117 -207 -288 -207z" />
    <glyph glyph-name="uni051C" unicode="&#x51c;" horiz-adv-x="933" 
d="M821 700h166l-268 -700h-189l-45 381l-153 -381h-190l-71 700h172l22 -528l189 485h135l52 -485z" />
    <glyph glyph-name="uni0430" unicode="&#x430;" 
d="M197 -10c-99 0 -171 61 -171 205c0 164 89 328 247 328c56 0 96 -21 123 -60l7 50h155l-73 -513h-155l8 50c-39 -39 -85 -60 -141 -60zM257 104c71 0 114 123 114 205c0 71 -36 100 -71 100c-69 0 -112 -123 -112 -208c0 -67 32 -97 69 -97z" />
    <glyph glyph-name="uni0431" unicode="&#x431;" horiz-adv-x="554" 
d="M347 477c123 0 206 -89 185 -237c-21 -149 -147 -250 -291 -250s-234 98 -213 250c49 347 150 442 368 460c36 3 51 9 64 40h109c-19 -135 -83 -169 -175 -173c-104 -7 -178 -25 -220 -175c41 52 103 85 173 85zM257 104c53 0 101 49 112 133c12 81 -20 126 -74 126
c-48 0 -101 -45 -113 -126c-10 -80 22 -133 75 -133z" />
    <glyph glyph-name="uni0432" unicode="&#x432;" horiz-adv-x="555" 
d="M440 264c49 -24 70 -56 70 -104c0 -106 -104 -160 -234 -160h-259l73 513h238c123 0 190 -38 190 -121c0 -54 -28 -100 -78 -128zM217 414l-14 -106h76c44 0 86 12 86 58c0 35 -24 48 -71 48h-77zM267 99c58 0 93 22 93 65c0 34 -22 46 -78 46h-93l-15 -111h93z" />
    <glyph glyph-name="uni0433" unicode="&#x433;" horiz-adv-x="443" 
d="M460 513l-16 -114h-215l-57 -399h-155l73 513h370z" />
    <glyph glyph-name="uni0453" unicode="&#x453;" horiz-adv-x="443" 
d="M228 580l94 173h156l-161 -173h-89zM460 513l-16 -114h-215l-57 -399h-155l73 513h370z" />
    <glyph glyph-name="uni0491" unicode="&#x491;" horiz-adv-x="443" 
d="M373 633h118l-34 -234h-228l-56 -399h-155l72 513h266z" />
    <glyph glyph-name="uni0434" unicode="&#x434;" horiz-adv-x="698" 
d="M-29 -167l39 281h71c48 40 90 170 121 399h408l-56 -399h108l-39 -281h-97l6 167h-425l-39 -167h-97zM212 114h200l41 285h-132c-20 -108 -49 -242 -109 -285z" />
    <glyph glyph-name="uni0435" unicode="&#x435;" horiz-adv-x="542" 
d="M511 250h-319c-3 -17 -4 -34 -4 -48c0 -66 27 -98 70 -98c36 0 72 22 90 67h147c-35 -112 -122 -181 -253 -181c-127 0 -215 70 -215 218c0 171 117 315 296 315c103 0 193 -47 193 -202c0 -21 -1 -45 -5 -71zM304 421c-41 0 -71 -38 -90 -86h149c5 51 -15 86 -59 86z
" />
    <glyph glyph-name="uni0451" unicode="&#x451;" horiz-adv-x="542" 
d="M206 589c-39 0 -69 30 -69 69c0 46 46 90 91 90c40 0 69 -32 69 -69c0 -48 -44 -90 -91 -90zM432 589c-39 0 -69 30 -69 69c0 46 46 90 91 90c40 0 69 -32 69 -69c0 -48 -44 -90 -91 -90zM323 523c103 0 193 -47 193 -202c0 -21 -1 -45 -5 -71h-319c-3 -17 -4 -34 -4 -48
c0 -66 27 -98 70 -98c36 0 72 22 90 67h147c-35 -112 -122 -181 -253 -181c-127 0 -215 70 -215 218c0 171 117 315 296 315zM214 335h149c5 51 -15 86 -59 86c-41 0 -71 -38 -90 -86z" />
    <glyph glyph-name="uni0436" unicode="&#x436;" horiz-adv-x="804" 
d="M742 105c12 0 15 1 21 2l-16 -107c-21 -8 -46 -10 -69 -10c-86 0 -117 40 -126 115l-4 43c-6 45 -23 63 -52 63h-31l-30 -211h-139l30 211h-31c-29 0 -52 -18 -70 -63l-16 -43c-31 -75 -73 -115 -159 -115c-23 0 -47 2 -66 10l15 107c6 -1 8 -2 20 -2c26 0 41 11 53 46
l15 40c17 43 49 71 92 79c-41 9 -64 26 -68 67l-2 25c-4 37 -18 46 -43 46c-9 0 -14 -1 -20 -2l16 107c17 6 40 10 65 10c87 0 120 -36 128 -107l3 -31c5 -45 16 -60 53 -60h32l26 188h138l-26 -188h31c37 0 52 15 70 60l12 31c26 71 71 107 158 107c25 0 48 -4 63 -10
l-16 -107c-5 1 -9 2 -19 2c-24 0 -41 -9 -55 -46l-9 -25c-17 -41 -44 -58 -88 -67c42 -8 66 -36 69 -79l4 -40c4 -35 14 -46 41 -46z" />
    <glyph glyph-name="uni0437" unicode="&#x437;" horiz-adv-x="462" 
d="M163 -10c-67 0 -128 14 -171 37l17 124c48 -33 103 -50 157 -50c57 0 94 20 94 57c0 31 -23 52 -120 52l13 95c86 0 123 17 123 59c1 32 -20 48 -74 48c-56 0 -106 -18 -152 -40l17 121c37 14 98 30 173 30c118 0 196 -41 196 -131c0 -54 -29 -102 -92 -132
c52 -23 73 -52 73 -99c0 -111 -119 -171 -254 -171z" />
    <glyph glyph-name="uni0438" unicode="&#x438;" horiz-adv-x="584" 
d="M445 513h122l-73 -513h-155l41 286l-241 -286h-122l73 513h155l-40 -286z" />
    <glyph glyph-name="uni0439" unicode="&#x439;" horiz-adv-x="584" 
d="M339 580c-105 0 -149 70 -145 173h86c7 -54 26 -77 73 -77s71 23 94 77h86c-25 -103 -88 -173 -194 -173zM445 513h122l-73 -513h-155l41 286l-241 -286h-122l73 513h155l-40 -286z" />
    <glyph glyph-name="uni043A" unicode="&#x43a;" horiz-adv-x="604" 
d="M543 105c11 0 15 1 20 2l-15 -107c-22 -8 -46 -10 -69 -10c-86 0 -117 40 -126 115l-5 43c-5 45 -23 63 -78 63h-68l-30 -211h-155l73 513h155l-26 -188h67c57 0 79 15 96 60l12 31c27 71 71 107 158 107c25 0 48 -4 63 -10l-15 -107c-6 1 -10 2 -19 2
c-25 0 -42 -9 -55 -46l-10 -25c-16 -41 -44 -58 -87 -67c41 -8 65 -36 69 -79l4 -40c4 -35 14 -46 41 -46z" />
    <glyph glyph-name="uni045C" unicode="&#x45c;" horiz-adv-x="604" 
d="M311 580l94 173h156l-161 -173h-89zM543 105c11 0 15 1 20 2l-15 -107c-22 -8 -46 -10 -69 -10c-86 0 -117 40 -126 115l-5 43c-5 45 -23 63 -78 63h-68l-30 -211h-155l73 513h155l-26 -188h67c57 0 79 15 96 60l12 31c27 71 71 107 158 107c25 0 48 -4 63 -10l-15 -107
c-6 1 -10 2 -19 2c-25 0 -42 -9 -55 -46l-10 -25c-16 -41 -44 -58 -87 -67c41 -8 65 -36 69 -79l4 -40c4 -35 14 -46 41 -46z" />
    <glyph glyph-name="uni043B" unicode="&#x43b;" horiz-adv-x="586" 
d="M568 513l-72 -513h-155l56 399h-121c-44 -256 -113 -409 -241 -409c-27 0 -48 4 -62 10l15 107c5 -1 9 -2 15 -2c64 0 104 93 149 408h416z" />
    <glyph glyph-name="uni043C" unicode="&#x43c;" horiz-adv-x="691" 
d="M555 513h118l-72 -513h-146l37 254l-162 -200h-27l-104 200l-36 -254h-146l73 513h122l133 -259z" />
    <glyph glyph-name="uni043D" unicode="&#x43d;" horiz-adv-x="584" 
d="M412 513h155l-73 -513h-155l30 211h-167l-30 -211h-155l73 513h155l-26 -188h167z" />
    <glyph glyph-name="uni043E" unicode="&#x43e;" horiz-adv-x="561" 
d="M240 -10c-125 0 -213 71 -213 221c0 171 114 312 294 312c124 0 212 -71 212 -221c0 -171 -113 -312 -293 -312zM258 104c73 0 114 122 114 207c0 65 -26 98 -69 98c-73 0 -114 -122 -114 -208c0 -65 26 -97 69 -97z" />
    <glyph glyph-name="uni043F" unicode="&#x43f;" horiz-adv-x="584" 
d="M567 513l-73 -513h-155l57 399h-167l-57 -399h-155l73 513h477z" />
    <glyph glyph-name="uni0440" unicode="&#x440;" horiz-adv-x="576" 
d="M378 523c100 0 172 -61 172 -205c0 -164 -89 -328 -247 -328c-56 0 -96 21 -123 60l-38 -270h-155l103 733h155l-7 -50c38 39 84 60 140 60zM276 104c69 0 112 123 112 208c0 67 -31 97 -69 97c-70 0 -114 -121 -114 -205c0 -70 35 -100 71 -100z" />
    <glyph glyph-name="uni0441" unicode="&#x441;" horiz-adv-x="520" 
d="M254 104c37 0 71 28 90 84h146c-35 -125 -122 -198 -253 -198c-126 0 -214 69 -214 220c0 170 113 313 291 313c131 0 195 -77 195 -198h-147c-4 46 -25 84 -64 84c-73 0 -114 -124 -114 -207c0 -65 26 -98 70 -98z" />
    <glyph glyph-name="uni0442" unicode="&#x442;" horiz-adv-x="481" 
d="M502 513l-16 -114h-148l-56 -399h-155l56 399h-147l16 114h450z" />
    <glyph glyph-name="uni0443" unicode="&#x443;" horiz-adv-x="537" 
d="M408 513h167l-257 -513c-68 -135 -162 -230 -333 -230l19 134c60 0 112 28 154 104l-123 505h173l58 -321z" />
    <glyph glyph-name="uni045E" unicode="&#x45e;" horiz-adv-x="537" 
d="M307 560c-106 0 -150 70 -146 163h86c8 -44 30 -67 74 -67c43 0 71 23 92 67h86c-23 -93 -87 -163 -192 -163zM408 513h167l-257 -513c-68 -135 -162 -230 -333 -230l19 134c60 0 112 28 154 104l-123 505h173l58 -321z" />
    <glyph glyph-name="uni0444" unicode="&#x444;" horiz-adv-x="757" 
d="M485 523c138 -8 244 -78 244 -228c0 -170 -135 -296 -319 -305l-29 -210h-138l29 210c-138 8 -244 78 -244 228c0 170 134 296 319 305l30 217h138zM287 96l44 321c-98 -10 -156 -95 -156 -192c0 -79 40 -121 112 -129zM425 96c98 10 157 95 157 192
c0 78 -39 122 -112 129z" />
    <glyph glyph-name="uni0445" unicode="&#x445;" horiz-adv-x="543" 
d="M-29 0l213 260l-139 253h173l75 -128l106 128h170l-209 -259l140 -254h-173l-78 133l-108 -133h-170z" />
    <glyph glyph-name="uni0447" unicode="&#x447;" horiz-adv-x="551" 
d="M379 513h155l-73 -513h-155l29 204c-33 -18 -80 -34 -137 -34c-101 0 -173 52 -153 190l22 153h155l-15 -107c-13 -84 5 -110 58 -110c28 0 54 6 86 24z" />
    <glyph glyph-name="uni0446" unicode="&#x446;" horiz-adv-x="626" 
d="M453 -167l7 167h-442l72 513h155l-56 -399h157l56 399h155l-56 -399h88l-39 -281h-97z" />
    <glyph glyph-name="uni0448" unicode="&#x448;" horiz-adv-x="840" 
d="M668 513h155l-73 -513h-733l73 513h155l-57 -399h134l57 399h155l-57 -399h134z" />
    <glyph glyph-name="uni0449" unicode="&#x449;" horiz-adv-x="891" 
d="M719 -167l6 167h-707l72 513h155l-56 -399h134l56 399h155l-56 -399h134l56 399h155l-56 -399h88l-39 -281h-97z" />
    <glyph glyph-name="uni045F" unicode="&#x45f;" 
d="M402 513h155l-72 -513h-177l-30 -167h-97l15 167h-178l72 513h155l-56 -399h157z" />
    <glyph glyph-name="uni044C" unicode="&#x44c;" horiz-adv-x="554" 
d="M17 0l73 513h149l-27 -188h107c119 0 193 -37 193 -134c0 -131 -96 -191 -239 -191h-256zM181 104h86c57 0 94 21 94 69c0 39 -31 47 -77 47h-87z" />
    <glyph glyph-name="uni044A" unicode="&#x44a;" horiz-adv-x="651" 
d="M113 0l57 399h-134l16 114h282l-26 -188h107c127 0 193 -40 193 -140c0 -122 -96 -185 -240 -185h-255zM276 104h87c57 0 94 22 94 67c0 39 -26 49 -77 49h-87z" />
    <glyph glyph-name="uni044B" unicode="&#x44b;" horiz-adv-x="781" 
d="M17 0l73 513h149l-27 -188h77c119 0 193 -38 193 -132c0 -134 -96 -193 -239 -193h-226zM536 0l73 513h155l-73 -513h-155zM181 104h56c57 0 94 17 94 72c0 36 -29 44 -77 44h-57z" />
    <glyph glyph-name="uni0459" unicode="&#x459;" horiz-adv-x="839" 
d="M31 -10c-21 0 -44 4 -58 10l15 107c5 -1 9 -2 15 -2c61 0 104 95 149 408h400l-26 -188h76c147 0 195 -55 195 -138c0 -123 -95 -187 -240 -187h-225l56 399h-112c-46 -265 -114 -409 -245 -409zM495 104h57c55 0 94 18 94 68c0 37 -22 48 -78 48h-57z" />
    <glyph glyph-name="uni045A" unicode="&#x45a;" horiz-adv-x="832" 
d="M596 325c127 0 193 -39 193 -140c0 -122 -96 -185 -240 -185h-225l30 211h-152l-30 -211h-155l47 325l26 188h155l-26 -188h151l27 188h148l-26 -188h77zM544 104c54 0 94 17 94 68c0 36 -21 48 -77 48h-57l-17 -116h57z" />
    <glyph glyph-name="uni0455" unicode="&#x455;" horiz-adv-x="472" 
d="M219 371c0 -62 209 -37 209 -196c0 -120 -105 -185 -244 -185c-60 0 -117 13 -170 37l18 133c52 -34 110 -49 155 -49s77 15 77 40c0 58 -209 37 -209 196c0 121 106 176 241 176c68 0 119 -16 154 -30l-18 -122c-33 18 -80 40 -137 40c-45 0 -76 -13 -76 -40z" />
    <glyph glyph-name="uni0454" unicode="&#x454;" horiz-adv-x="520" 
d="M300 416c-55 0 -93 -52 -112 -113h133l-12 -84h-136v-12c0 -76 32 -109 82 -109c45 0 75 28 91 83h143c-33 -118 -119 -191 -251 -191c-129 0 -215 70 -215 220c0 170 113 313 293 313c132 0 195 -78 194 -191h-143c0 48 -21 84 -67 84z" />
    <glyph glyph-name="uni044D" unicode="&#x44d;" horiz-adv-x="535" 
d="M302 523c128 0 205 -71 205 -217c0 -171 -105 -316 -283 -316c-128 0 -203 75 -204 191h143c1 -46 31 -83 75 -83c56 0 91 57 108 121h-135l12 84h135v10c0 71 -26 103 -73 103c-44 0 -82 -28 -101 -84h-143c33 115 127 191 261 191z" />
    <glyph glyph-name="uni0456" unicode="&#x456;" horiz-adv-x="280" 
d="M185 575c-42 0 -75 34 -75 76c0 51 50 96 99 96c44 0 75 -35 75 -76c0 -52 -48 -96 -99 -96zM27 0l72 513h155l-72 -513h-155z" />
    <glyph glyph-name="uni0457" unicode="&#x457;" horiz-adv-x="262" 
d="M66 589c-39 0 -69 30 -69 69c0 46 46 90 91 90c40 0 69 -32 69 -69c0 -48 -44 -90 -91 -90zM292 589c-39 0 -69 30 -69 69c0 46 46 90 91 90c40 0 69 -32 69 -69c0 -48 -44 -90 -91 -90zM18 0l72 513h155l-72 -513h-155z" />
    <glyph glyph-name="uni0458" unicode="&#x458;" horiz-adv-x="271" 
d="M176 575c-42 0 -75 34 -75 76c0 51 50 96 99 96c44 0 75 -35 75 -76c0 -52 -48 -96 -99 -96zM-104 -230l16 114c57 0 93 29 102 96l75 533h155l-77 -554c-15 -102 -88 -189 -271 -189z" />
    <glyph glyph-name="uni045B" unicode="&#x45b;" horiz-adv-x="584" 
d="M397 523c101 0 164 -50 144 -189l-47 -334h-155l41 291c11 75 -17 100 -57 100c-45 0 -100 -29 -114 -129l-37 -262h-155l79 564h-80l14 96h80l11 80h155l-11 -80h97l-14 -96h-97l-17 -125c33 42 89 84 163 84z" />
    <glyph glyph-name="uni044E" unicode="&#x44e;" horiz-adv-x="781" 
d="M554 523c118 0 200 -69 200 -217c0 -169 -106 -316 -281 -316c-118 0 -199 68 -199 217v4h-72l-30 -211h-155l73 513h155l-28 -198h72c35 119 129 208 265 208zM491 104c70 0 105 133 105 213c0 62 -23 92 -61 92c-68 0 -103 -135 -103 -216c0 -60 22 -89 59 -89z" />
    <glyph glyph-name="uni044F" unicode="&#x44f;" horiz-adv-x="578" 
d="M43 -10c-22 0 -46 2 -65 10l15 107c6 -1 9 -2 17 -2c29 0 41 12 58 46l11 24c14 28 28 45 47 55c-39 21 -59 49 -59 105c0 121 96 178 238 178h255l-72 -513h-149l28 195h-57c-56 0 -77 -19 -95 -60l-13 -30c-32 -76 -73 -115 -159 -115zM295 299h86l15 110h-86
c-53 0 -92 -13 -92 -61c0 -40 27 -49 77 -49z" />
    <glyph glyph-name="uni0452" unicode="&#x452;" horiz-adv-x="584" 
d="M397 523c100 0 163 -50 143 -189l-52 -375c-15 -102 -88 -189 -271 -189l16 114c57 0 93 29 103 96l44 311c10 75 -18 100 -58 100c-44 0 -100 -29 -114 -129l-37 -262h-155l80 564h-80l13 96h80l11 80h155l-11 -80h97l-13 -96h-97l-18 -125c33 42 90 84 164 84z" />
    <glyph glyph-name="uni0463" unicode="&#x463;" horiz-adv-x="550" 
d="M314 325c120 0 194 -37 194 -135c0 -130 -96 -190 -240 -190h-255l31 220l49 344h-77l13 96h77l11 80h149l-12 -80h107l-13 -96h-107l-34 -239h107zM263 104c57 0 94 21 94 69c0 39 -31 47 -78 47h-87l-15 -116h86z" />
    <glyph glyph-name="uni0473" unicode="&#x473;" horiz-adv-x="559" 
d="M317 523c131 0 221 -78 214 -223c-6 -178 -117 -310 -289 -310c-132 0 -221 78 -215 223c6 178 118 310 290 310zM301 416c-50 0 -86 -50 -106 -110h186c3 73 -31 110 -80 110zM257 98c55 0 92 58 111 124h-190c-1 -3 -1 -5 -1 -8c-4 -78 30 -116 80 -116z" />
    <glyph glyph-name="uni0475" unicode="&#x475;" horiz-adv-x="550" 
d="M519 523c25 0 53 -4 68 -10l-15 -107c-5 1 -9 2 -18 2c-23 0 -36 -10 -57 -46l-187 -362h-150l-125 513h173l58 -322l99 225c30 73 74 107 154 107z" />
    <glyph glyph-name="uni0493" unicode="&#x493;" horiz-adv-x="483" 
d="M498 399h-215l-18 -126h116l-12 -84h-116l-27 -189h-155l27 189h-103l13 84h102l34 240h370z" />
    <glyph glyph-name="uni0495" unicode="&#x495;" horiz-adv-x="579" 
d="M346 290c86 0 174 -43 174 -194c0 -203 -94 -326 -291 -326c-37 0 -69 8 -92 18l16 114c21 -10 47 -18 78 -18c88 0 128 103 128 193c0 81 -47 99 -80 99c-23 0 -54 -5 -85 -24l-21 -152h-155l72 513h370l-16 -114h-215l-20 -143c38 20 84 34 137 34z" />
    <glyph glyph-name="uni0497" unicode="&#x497;" horiz-adv-x="774" 
d="M732 523c25 0 47 -4 62 -10l-14 -107c-6 1 -10 2 -20 2c-24 0 -41 -9 -54 -46l-10 -25c-17 -41 -44 -58 -88 -67c42 -8 66 -36 70 -79l3 -40c4 -35 14 -46 41 -46c12 0 15 1 21 2l-40 -280h-104l5 170c-46 15 -65 51 -72 108l-4 43c-5 45 -22 63 -52 63h-31l-30 -211
h-139l31 211h-32c-29 0 -52 -18 -70 -63l-16 -43c-31 -75 -72 -115 -158 -115c-24 0 -48 2 -67 10l16 107c5 -1 7 -2 19 -2c26 0 41 11 54 46l15 40c16 43 48 71 91 79c-41 9 -64 26 -68 67l-2 25c-4 37 -19 46 -43 46c-10 0 -14 -1 -20 -2l15 107c17 6 41 10 66 10
c87 0 120 -36 128 -107l3 -31c5 -45 16 -60 53 -60h31l27 188h138l-27 -188h32c36 0 52 15 70 60l12 31c27 71 71 107 158 107z" />
    <glyph glyph-name="uni0499" unicode="&#x499;" horiz-adv-x="462" 
d="M344 260c52 -23 73 -52 73 -99c0 -101 -99 -160 -219 -170l-22 -38c62 10 110 -21 102 -81c-9 -68 -73 -102 -142 -102c-37 0 -59 8 -80 20l9 63c20 -12 37 -20 57 -20c25 0 47 12 50 34c5 42 -46 39 -102 21l49 104c-50 5 -94 17 -127 35l17 124c48 -33 103 -50 157 -50
c57 0 94 20 94 57c0 31 -23 52 -120 52l13 95c86 0 123 17 123 59c1 32 -20 48 -74 48c-56 0 -106 -18 -152 -40l17 121c37 14 98 30 173 30c118 0 196 -41 196 -131c0 -54 -29 -102 -92 -132z" />
    <glyph glyph-name="uni049B" unicode="&#x49b;" horiz-adv-x="604" 
d="M552 523c25 0 48 -4 63 -10l-15 -107c-6 1 -10 2 -19 2c-25 0 -42 -9 -55 -46l-10 -25c-16 -41 -44 -58 -87 -67c41 -8 65 -36 69 -79l4 -40c4 -35 14 -46 41 -46c11 0 15 1 20 2l-40 -280h-104l5 170c-45 15 -64 52 -71 108l-5 43c-5 45 -23 63 -78 63h-68l-30 -211
h-155l73 513h155l-26 -188h67c57 0 79 15 96 60l12 31c27 71 71 107 158 107z" />
    <glyph glyph-name="uni049D" unicode="&#x49d;" horiz-adv-x="625" 
d="M573 523c25 0 48 -4 63 -10l-16 -107c-5 1 -9 2 -19 2c-24 0 -41 -9 -55 -46l-9 -25c-17 -41 -44 -58 -87 -67c41 -8 65 -36 69 -79l3 -40c4 -35 15 -46 41 -46c12 0 15 1 21 2l-16 -107c-21 -8 -45 -10 -69 -10c-86 0 -117 40 -125 115l-5 43c-5 36 -16 54 -48 61
l-14 -99h-67l14 101h-52l-30 -211h-155l73 513h155l-27 -188h53l15 108h66l-15 -106c36 5 52 22 66 58l12 31c27 71 71 107 158 107z" />
    <glyph glyph-name="uni049F" unicode="&#x49f;" horiz-adv-x="644" 
d="M245 325h49l-3 -114h-51l-11 -211h-155l28 564h-76l3 96h78l4 80h155l-4 -80h99l-4 -96h-100zM525 337c-12 -41 -39 -58 -81 -67c41 -8 67 -36 75 -79l7 -40c6 -35 18 -46 44 -46c12 0 15 1 20 2l-3 -107c-21 -8 -45 -10 -68 -10c-86 0 -121 40 -137 115l-7 43
c-10 45 -29 63 -84 63l2 59l1 55c57 0 78 15 91 60l10 31c21 71 61 107 148 107c25 0 48 -4 64 -10l-3 -107c-6 1 -10 2 -20 2c-24 0 -40 -9 -51 -46z" />
    <glyph glyph-name="uni04A1" unicode="&#x4a1;" horiz-adv-x="683" 
d="M632 523c24 0 47 -4 63 -10l-16 -107c-6 1 -9 2 -19 2c-24 0 -42 -9 -55 -46l-10 -25c-16 -41 -44 -58 -87 -67c41 -8 66 -36 69 -79l4 -40c4 -35 14 -46 41 -46c11 0 15 1 20 2l-15 -107c-22 -8 -46 -10 -69 -10c-86 0 -117 40 -126 115l-4 43c-6 45 -24 63 -79 63h-67
l-30 -211h-155l56 399h-117l16 114h272l-26 -188h67c57 0 79 15 96 60l12 31c27 71 71 107 159 107z" />
    <glyph glyph-name="uni04A3" unicode="&#x4a3;" horiz-adv-x="639" 
d="M466 -167l7 167h-133l30 211h-167l-30 -211h-155l72 513h155l-26 -188h167l26 188h155l-56 -399h91l-39 -281h-97z" />
    <glyph glyph-name="uni0525" unicode="&#x525;" horiz-adv-x="639" 
d="M466 -167l7 167h-133l57 399h-167l-57 -399h-155l72 513h477l-56 -399h91l-39 -281h-97z" />
    <glyph glyph-name="uni04A7" unicode="&#x4a7;" horiz-adv-x="901" 
d="M668 290c86 0 174 -43 174 -194c0 -203 -94 -326 -291 -326c-37 0 -69 8 -92 18l16 114c21 -10 47 -18 78 -18c88 0 128 103 128 193c0 81 -47 99 -80 99c-23 0 -54 -5 -85 -24l-21 -152h-155l56 399h-167l-56 -399h-155l72 513h477l-36 -257c38 20 84 34 137 34z" />
    <glyph glyph-name="uni04A9" unicode="&#x4a9;" horiz-adv-x="627" 
d="M552 235c0 -51 -23 -100 -61 -141c17 -3 36 -5 58 -5l-14 -99c-57 0 -103 14 -139 35c-46 -22 -97 -35 -150 -35c-127 0 -223 77 -223 222c0 174 127 311 306 311c62 0 107 -12 135 -27l-17 -122c-36 20 -75 37 -122 37c-101 0 -141 -102 -141 -204
c0 -85 34 -116 99 -116c14 0 27 1 40 4c-22 33 -32 70 -32 103c0 72 52 144 148 144c78 0 113 -48 113 -107zM428 261c-22 0 -34 -36 -34 -67c0 -20 5 -38 16 -54c22 24 36 54 36 89c0 18 -4 32 -18 32z" />
    <glyph glyph-name="uni04AB" unicode="&#x4ab;" horiz-adv-x="520" 
d="M254 104c37 0 71 28 90 84h146c-31 -112 -104 -182 -213 -196l-22 -39c62 10 110 -21 102 -81c-9 -68 -73 -102 -142 -102c-37 0 -59 8 -80 20l9 63c20 -12 37 -20 57 -20c25 0 47 12 50 34c5 42 -46 39 -102 21l49 104c-105 14 -175 83 -175 218c0 170 113 313 291 313
c131 0 195 -77 195 -198h-147c-4 46 -25 84 -64 84c-73 0 -114 -124 -114 -207c0 -65 26 -98 70 -98z" />
    <glyph glyph-name="uni04AD" unicode="&#x4ad;" horiz-adv-x="461" 
d="M477 399h-148l-41 -285h91l-38 -281h-98l7 167h-133l57 399h-148l16 114h450z" />
    <glyph glyph-name="uni04AF" unicode="&#x4af;" horiz-adv-x="532" 
d="M125 -230l33 236l-123 507h173l58 -320l137 320h166l-256 -508l-33 -235h-155z" />
    <glyph glyph-name="uni04B1" unicode="&#x4b1;" horiz-adv-x="532" 
d="M313 5l-3 -18h123l-12 -88h-123l-18 -129h-155l18 129h-127l13 88h126l3 19l-123 507h173l58 -320l137 320h166z" />
    <glyph glyph-name="uni04B3" unicode="&#x4b3;" horiz-adv-x="578" 
d="M406 -167l6 167h-85l-77 133l-109 -133h-170l213 260l-139 253h173l76 -128l105 128h170l-208 -259l81 -140h100l-39 -281h-97z" />
    <glyph glyph-name="uni04B7" unicode="&#x4b7;" horiz-adv-x="605" 
d="M432 -167l7 167h-132l29 204c-33 -18 -80 -34 -137 -34c-101 0 -173 52 -153 190l21 153h155l-15 -107c-12 -84 5 -110 59 -110c28 0 54 6 86 24l27 193h155l-56 -399h91l-39 -281h-98z" />
    <glyph glyph-name="uni04B9" unicode="&#x4b9;" horiz-adv-x="580" 
d="M408 513h155l-73 -513h-155l29 204c-16 -9 -38 -17 -63 -23l-13 -95h-67l12 85c-6 -1 -12 -1 -18 -1c-118 0 -190 52 -170 190l22 153h155l-15 -107c-11 -70 0 -100 43 -108l15 105h67l-15 -104c22 3 43 9 64 21z" />
    <glyph glyph-name="uni04BB" unicode="&#x4bb;" horiz-adv-x="584" 
d="M397 523c101 0 164 -50 144 -189l-47 -334h-155l41 291c11 75 -17 100 -57 100c-45 0 -100 -29 -114 -129l-37 -262h-155l104 740h155l-42 -301c33 42 89 84 163 84z" />
    <glyph glyph-name="uni0527" unicode="&#x527;" horiz-adv-x="666" 
d="M465 -167l7 167h-133l41 291c11 75 -17 100 -57 100c-44 0 -100 -29 -113 -129l-38 -262h-155l104 740h155l-42 -301c33 42 89 84 163 84c101 0 164 -50 144 -189l-30 -220h91l-40 -281h-97z" />
    <glyph glyph-name="uni04BD" unicode="&#x4bd;" horiz-adv-x="679" 
d="M648 250h-319c-3 -17 -4 -34 -4 -48c0 -66 27 -98 70 -98c36 0 72 22 90 67h147c-35 -112 -122 -181 -253 -181c-127 0 -215 70 -215 218c0 12 1 25 2 37c-109 6 -155 71 -141 179c4 18 7 31 13 43h122c-5 -12 -9 -25 -12 -43c-8 -60 2 -90 37 -95
c41 113 141 194 275 194c103 0 193 -47 193 -202c0 -21 -1 -45 -5 -71zM441 421c-41 0 -71 -38 -90 -86h149c5 51 -15 86 -59 86z" />
    <glyph glyph-name="uni04BF" unicode="&#x4bf;" horiz-adv-x="679" 
d="M648 250h-319c-3 -17 -4 -34 -4 -48c0 -66 27 -98 70 -98c36 0 72 22 90 67h147c-26 -84 -82 -144 -163 -168c-36 -29 -63 -63 -65 -92c-2 -22 10 -37 35 -37c15 0 33 5 49 11l-11 -82c-24 -12 -55 -23 -90 -23c-69 0 -114 39 -109 97c3 45 29 82 68 115
c-109 11 -182 81 -182 216c0 12 1 25 2 37c-109 6 -155 71 -141 179c4 18 7 31 13 43h122c-5 -12 -9 -25 -12 -43c-8 -60 2 -90 37 -95c41 113 141 194 275 194c103 0 193 -47 193 -202c0 -21 -1 -45 -5 -71zM441 421c-41 0 -71 -38 -90 -86h149c5 51 -15 86 -59 86z" />
    <glyph glyph-name="uni04CF" unicode="&#x4cf;" horiz-adv-x="262" 
d="M18 0l72 513h155l-72 -513h-155z" />
    <glyph glyph-name="uni04C2" unicode="&#x4c2;" horiz-adv-x="804" 
d="M447 580c-105 0 -149 70 -145 173h86c7 -54 26 -77 73 -77s71 23 94 77h86c-25 -103 -88 -173 -194 -173zM752 523c25 0 48 -4 63 -10l-16 -107c-5 1 -9 2 -19 2c-24 0 -41 -9 -55 -46l-9 -25c-17 -41 -44 -58 -88 -67c42 -8 66 -36 69 -79l4 -40c4 -35 14 -46 41 -46
c12 0 15 1 21 2l-16 -107c-21 -8 -46 -10 -69 -10c-86 0 -117 40 -126 115l-4 43c-6 45 -23 63 -52 63h-31l-30 -211h-139l30 211h-31c-29 0 -52 -18 -70 -63l-16 -43c-31 -75 -73 -115 -159 -115c-23 0 -47 2 -66 10l15 107c6 -1 8 -2 20 -2c26 0 41 11 53 46l15 40
c17 43 49 71 92 79c-41 9 -64 26 -68 67l-2 25c-4 37 -18 46 -43 46c-9 0 -14 -1 -20 -2l16 107c17 6 40 10 65 10c87 0 120 -36 128 -107l3 -31c5 -45 16 -60 53 -60h32l26 188h138l-26 -188h31c37 0 52 15 70 60l12 31c26 71 71 107 158 107z" />
    <glyph glyph-name="uni04C4" unicode="&#x4c4;" horiz-adv-x="640" 
d="M270 -230c-44 0 -73 9 -95 18l16 114c19 -9 49 -18 76 -18c90 0 131 103 131 193c0 102 -55 134 -145 134h-50l-30 -211h-155l72 513h155l-26 -188h50c60 0 80 18 96 60l13 31c27 70 68 107 155 107c28 0 48 -4 65 -10l-15 -107c-5 1 -10 2 -18 2c-26 0 -43 -9 -57 -46
l-9 -25c-13 -34 -33 -50 -63 -61c76 -31 123 -82 123 -193c0 -172 -110 -313 -289 -313z" />
    <glyph glyph-name="uni04C6" unicode="&#x4c6;" horiz-adv-x="639" 
d="M417 -167l36 167h-113l57 399h-121c-44 -256 -114 -409 -241 -409c-27 0 -48 4 -63 10l16 107c5 -1 9 -2 15 -2c63 0 104 93 148 408h416l-56 -399h92l-88 -281h-98z" />
    <glyph glyph-name="uni04C8" unicode="&#x4c8;" horiz-adv-x="584" 
d="M412 513h155l-78 -554c-14 -102 -88 -189 -271 -189l16 114c57 0 94 29 103 96l32 231h-167l-29 -211h-155l72 513h155l-26 -188h167z" />
    <glyph glyph-name="uni04CA" unicode="&#x4ca;" horiz-adv-x="639" 
d="M417 -167l36 167h-113l30 211h-167l-30 -211h-155l72 513h155l-26 -188h167l26 188h155l-56 -399h92l-88 -281h-98z" />
    <glyph glyph-name="uni04CC" unicode="&#x4cc;" horiz-adv-x="562" 
d="M389 513h155l-72 -513h-133l-38 -167h-98l39 281h91l13 90c-33 -18 -80 -34 -137 -34c-101 0 -173 52 -153 190l21 153h155l-14 -107c-13 -84 5 -110 58 -110c28 0 54 6 86 24z" />
    <glyph glyph-name="uni04CE" unicode="&#x4ce;" horiz-adv-x="755" 
d="M533 -167l36 167h-113l36 254l-161 -200h-27l-105 200l-36 -254h-145l72 513h122l134 -259l209 259h118l-55 -399h101l-88 -281h-98z" />
    <glyph glyph-name="uni04D1" unicode="&#x4d1;" 
d="M337 580c-105 0 -149 70 -145 173h86c7 -54 26 -77 73 -77s71 23 94 77h86c-25 -103 -88 -173 -194 -173zM403 513h155l-73 -513h-155l8 50c-39 -39 -85 -60 -141 -60c-99 0 -171 61 -171 205c0 164 89 328 247 328c56 0 96 -21 123 -60zM257 104c71 0 114 123 114 205
c0 71 -36 100 -71 100c-69 0 -112 -123 -112 -208c0 -67 32 -97 69 -97z" />
    <glyph glyph-name="uni04D3" unicode="&#x4d3;" 
d="M226 589c-39 0 -69 30 -69 69c0 46 46 90 91 90c40 0 69 -32 69 -69c0 -48 -44 -90 -91 -90zM452 589c-39 0 -69 30 -69 69c0 46 46 90 91 90c40 0 69 -32 69 -69c0 -48 -44 -90 -91 -90zM197 -10c-99 0 -171 61 -171 205c0 164 89 328 247 328c56 0 96 -21 123 -60l7 50
h155l-73 -513h-155l8 50c-39 -39 -85 -60 -141 -60zM257 104c71 0 114 123 114 205c0 71 -36 100 -71 100c-69 0 -112 -123 -112 -208c0 -67 32 -97 69 -97z" />
    <glyph glyph-name="uni04D7" unicode="&#x4d7;" horiz-adv-x="542" 
d="M317 580c-105 0 -149 70 -145 173h86c7 -54 26 -77 73 -77s71 23 94 77h86c-25 -103 -88 -173 -194 -173zM511 250h-319c-3 -17 -4 -34 -4 -48c0 -66 27 -98 70 -98c36 0 72 22 90 67h147c-35 -112 -122 -181 -253 -181c-127 0 -215 70 -215 218c0 171 117 315 296 315
c103 0 193 -47 193 -202c0 -21 -1 -45 -5 -71zM304 421c-41 0 -71 -38 -90 -86h149c5 51 -15 86 -59 86z" />
    <glyph glyph-name="uni04D9" unicode="&#x4d9;" horiz-adv-x="542" 
d="M304 523c129 0 211 -70 211 -216c0 -174 -117 -317 -296 -317c-155 0 -213 107 -188 273h319c3 19 4 36 4 52c0 62 -22 94 -67 94c-38 0 -75 -27 -93 -84h-147c35 125 125 198 257 198zM238 93c42 0 71 38 90 86h-148c-6 -51 14 -86 58 -86z" />
    <glyph glyph-name="uni04DB" unicode="&#x4db;" horiz-adv-x="542" 
d="M200 589c-39 0 -69 30 -69 69c0 46 46 90 91 90c40 0 69 -32 69 -69c0 -48 -44 -90 -91 -90zM426 589c-39 0 -69 30 -69 69c0 46 46 90 91 90c40 0 69 -32 69 -69c0 -48 -44 -90 -91 -90zM304 523c129 0 211 -70 211 -216c0 -174 -117 -317 -296 -317
c-155 0 -213 107 -188 273h319c3 19 4 36 4 52c0 62 -22 94 -67 94c-38 0 -75 -27 -93 -84h-147c35 125 125 198 257 198zM238 93c42 0 71 38 90 86h-148c-6 -51 14 -86 58 -86z" />
    <glyph glyph-name="uni04DD" unicode="&#x4dd;" horiz-adv-x="804" 
d="M336 589c-39 0 -69 30 -69 69c0 46 46 90 91 90c40 0 69 -32 69 -69c0 -48 -44 -90 -91 -90zM562 589c-39 0 -69 30 -69 69c0 46 46 90 91 90c40 0 69 -32 69 -69c0 -48 -44 -90 -91 -90zM742 105c12 0 15 1 21 2l-16 -107c-21 -8 -46 -10 -69 -10
c-86 0 -117 40 -126 115l-4 43c-6 45 -23 63 -52 63h-31l-30 -211h-139l30 211h-31c-29 0 -52 -18 -70 -63l-16 -43c-31 -75 -73 -115 -159 -115c-23 0 -47 2 -66 10l15 107c6 -1 8 -2 20 -2c26 0 41 11 53 46l15 40c17 43 49 71 92 79c-41 9 -64 26 -68 67l-2 25
c-4 37 -18 46 -43 46c-9 0 -14 -1 -20 -2l16 107c17 6 40 10 65 10c87 0 120 -36 128 -107l3 -31c5 -45 16 -60 53 -60h32l26 188h138l-26 -188h31c37 0 52 15 70 60l12 31c26 71 71 107 158 107c25 0 48 -4 63 -10l-16 -107c-5 1 -9 2 -19 2c-24 0 -41 -9 -55 -46l-9 -25
c-17 -41 -44 -58 -88 -67c42 -8 66 -36 69 -79l4 -40c4 -35 14 -46 41 -46z" />
    <glyph glyph-name="uni04DF" unicode="&#x4df;" horiz-adv-x="462" 
d="M134 589c-39 0 -69 30 -69 69c0 46 46 90 91 90c40 0 69 -32 69 -69c0 -48 -44 -90 -91 -90zM360 589c-39 0 -69 30 -69 69c0 46 46 90 91 90c40 0 69 -32 69 -69c0 -48 -44 -90 -91 -90zM163 -10c-67 0 -128 14 -171 37l17 124c48 -33 103 -50 157 -50c57 0 94 20 94 57
c0 31 -23 52 -120 52l13 95c86 0 123 17 123 59c1 32 -20 48 -74 48c-56 0 -106 -18 -152 -40l17 121c37 14 98 30 173 30c118 0 196 -41 196 -131c0 -54 -29 -102 -92 -132c52 -23 73 -52 73 -99c0 -111 -119 -171 -254 -171z" />
    <glyph glyph-name="uni04E1" unicode="&#x4e1;" horiz-adv-x="512" 
d="M276 230c119 -30 172 -97 172 -194c0 -164 -145 -266 -332 -266c-69 0 -122 14 -174 36l19 131c57 -36 116 -50 163 -50c97 0 159 57 159 137c0 72 -49 117 -160 117h-63l9 66l190 192h-220l16 114h428l-12 -81z" />
    <glyph glyph-name="uni04E3" unicode="&#x4e3;" horiz-adv-x="584" 
d="M175 620l14 96h339l-14 -96h-339zM445 513h122l-73 -513h-155l41 286l-241 -286h-122l73 513h155l-40 -286z" />
    <glyph glyph-name="uni04E5" unicode="&#x4e5;" horiz-adv-x="584" 
d="M228 589c-39 0 -69 30 -69 69c0 46 46 90 91 90c40 0 69 -32 69 -69c0 -48 -44 -90 -91 -90zM454 589c-39 0 -69 30 -69 69c0 46 46 90 91 90c40 0 69 -32 69 -69c0 -48 -44 -90 -91 -90zM445 513h122l-73 -513h-155l41 286l-241 -286h-122l73 513h155l-40 -286z" />
    <glyph glyph-name="uni04E7" unicode="&#x4e7;" horiz-adv-x="561" 
d="M215 589c-39 0 -69 30 -69 69c0 46 46 90 91 90c40 0 69 -32 69 -69c0 -48 -44 -90 -91 -90zM441 589c-39 0 -69 30 -69 69c0 46 46 90 91 90c40 0 69 -32 69 -69c0 -48 -44 -90 -91 -90zM240 -10c-125 0 -213 71 -213 221c0 171 114 312 294 312c124 0 212 -71 212 -221
c0 -171 -113 -312 -293 -312zM258 104c73 0 114 122 114 207c0 65 -26 98 -69 98c-73 0 -114 -122 -114 -208c0 -65 26 -97 69 -97z" />
    <glyph glyph-name="uni04E9" unicode="&#x4e9;" horiz-adv-x="559" 
d="M317 523c131 0 221 -78 214 -223c-6 -178 -117 -310 -289 -310c-132 0 -221 78 -215 223c6 178 118 310 290 310zM301 416c-50 0 -86 -50 -106 -110h186c3 73 -31 110 -80 110zM257 98c55 0 92 58 111 124h-190c-1 -3 -1 -5 -1 -8c-4 -78 30 -116 80 -116z" />
    <glyph glyph-name="uni04EB" unicode="&#x4eb;" horiz-adv-x="559" 
d="M177 589c-39 0 -69 30 -69 69c0 46 46 90 91 90c40 0 69 -32 69 -69c0 -48 -44 -90 -91 -90zM403 589c-39 0 -69 30 -69 69c0 46 46 90 91 90c40 0 69 -32 69 -69c0 -48 -44 -90 -91 -90zM317 523c131 0 221 -78 214 -223c-6 -178 -117 -310 -289 -310
c-132 0 -221 78 -215 223c6 178 118 310 290 310zM301 416c-50 0 -86 -50 -106 -110h186c3 73 -31 110 -80 110zM257 98c55 0 92 58 111 124h-190c-1 -3 -1 -5 -1 -8c-4 -78 30 -116 80 -116z" />
    <glyph glyph-name="uni04ED" unicode="&#x4ed;" horiz-adv-x="516" 
d="M178 589c-39 0 -69 30 -69 69c0 46 46 90 91 90c40 0 69 -32 69 -69c0 -48 -44 -90 -91 -90zM404 589c-39 0 -69 30 -69 69c0 46 46 90 91 90c40 0 69 -32 69 -69c0 -48 -44 -90 -91 -90zM302 523c128 0 205 -71 205 -217c0 -171 -105 -316 -283 -316
c-128 0 -203 75 -204 191h143c1 -46 31 -83 75 -83c56 0 91 57 108 121h-135l12 84h135v10c0 71 -26 103 -73 103c-44 0 -82 -28 -101 -84h-143c33 115 127 191 261 191z" />
    <glyph glyph-name="uni04EF" unicode="&#x4ef;" horiz-adv-x="537" 
d="M145 620l14 96h339l-14 -96h-339zM408 513h167l-257 -513c-68 -135 -162 -230 -333 -230l19 134c60 0 112 28 154 104l-123 505h173l58 -321z" />
    <glyph glyph-name="uni04F1" unicode="&#x4f1;" horiz-adv-x="537" 
d="M198 589c-39 0 -69 30 -69 69c0 46 46 90 91 90c40 0 69 -32 69 -69c0 -48 -44 -90 -91 -90zM424 589c-39 0 -69 30 -69 69c0 46 46 90 91 90c40 0 69 -32 69 -69c0 -48 -44 -90 -91 -90zM408 513h167l-257 -513c-68 -135 -162 -230 -333 -230l19 134
c60 0 112 28 154 104l-123 505h173l58 -321z" />
    <glyph glyph-name="uni04F3" unicode="&#x4f3;" horiz-adv-x="537" 
d="M163 580l94 173h156l-161 -173h-89zM352 580l95 173h155l-160 -173h-90zM408 513h167l-257 -513c-68 -135 -162 -230 -333 -230l19 134c60 0 112 28 154 104l-123 505h173l58 -321z" />
    <glyph glyph-name="uni04F5" unicode="&#x4f5;" horiz-adv-x="551" 
d="M198 589c-39 0 -69 30 -69 69c0 46 46 90 91 90c40 0 69 -32 69 -69c0 -48 -44 -90 -91 -90zM424 589c-39 0 -69 30 -69 69c0 46 46 90 91 90c40 0 69 -32 69 -69c0 -48 -44 -90 -91 -90zM379 513h155l-73 -513h-155l29 204c-33 -18 -80 -34 -137 -34
c-101 0 -173 52 -153 190l22 153h155l-15 -107c-13 -84 5 -110 58 -110c28 0 54 6 86 24z" />
    <glyph glyph-name="uni04F7" unicode="&#x4f7;" horiz-adv-x="443" 
d="M445 399h-215l-41 -285h91l-39 -281h-97l7 167h-133l72 513h370z" />
    <glyph glyph-name="uni04F9" unicode="&#x4f9;" horiz-adv-x="781" 
d="M310 589c-39 0 -69 30 -69 69c0 46 46 90 91 90c40 0 69 -32 69 -69c0 -48 -44 -90 -91 -90zM536 589c-39 0 -69 30 -69 69c0 46 46 90 91 90c40 0 69 -32 69 -69c0 -48 -44 -90 -91 -90zM17 0l73 513h149l-27 -188h77c119 0 193 -38 193 -132c0 -134 -96 -193 -239 -193
h-226zM536 0l73 513h155l-73 -513h-155zM181 104h56c57 0 94 17 94 72c0 36 -29 44 -77 44h-57z" />
    <glyph glyph-name="uni04FD" unicode="&#x4fd;" horiz-adv-x="583" 
d="M542 114c3 -211 -119 -291 -262 -291l13 92c65 0 114 23 134 85h-100l-78 133l-108 -133h-170l213 260l-139 253h173l76 -128l105 128h170l-208 -259l80 -140h101z" />
    <glyph glyph-name="uni0511" unicode="&#x511;" horiz-adv-x="458" 
d="M221 -10c-119 0 -207 44 -207 138c0 63 40 108 105 132c-44 24 -60 55 -60 97c0 111 109 166 240 166c72 0 130 -16 162 -30l-17 -121c-37 22 -84 40 -140 40c-53 0 -89 -17 -89 -58c0 -35 27 -49 107 -49l-13 -95c-107 0 -137 -28 -137 -63c0 -33 28 -46 78 -46
c57 0 116 17 173 50l-17 -124c-50 -23 -115 -37 -185 -37z" />
    <glyph glyph-name="uni0513" unicode="&#x513;" horiz-adv-x="585" 
d="M152 513h416l-79 -554c-13 -102 -87 -189 -270 -189l16 114c57 0 94 29 103 96l59 419h-121c-44 -256 -114 -409 -241 -409c-27 0 -48 4 -62 10l15 107c5 -1 10 -2 15 -2c64 0 104 93 149 408z" />
    <glyph glyph-name="uni051D" unicode="&#x51d;" horiz-adv-x="800" 
d="M673 513h160l-226 -513h-148l-55 286l-133 -286h-152l-79 513h168l28 -310l128 280h136l50 -280z" />
    <glyph glyph-name="uni04A4" unicode="&#x4a4;" horiz-adv-x="808" 
d="M872 700l-18 -125h-142l-81 -575h-160l42 299h-283l-42 -299h-160l98 700h160l-38 -275h283l38 275h160h143z" />
    <glyph glyph-name="uni04A5" unicode="&#x4a5;" horiz-adv-x="664" 
d="M695 513l-16 -114h-128l-57 -399h-155l30 211h-167l-30 -211h-155l73 513h155l-26 -188h167l26 188h155h128z" />
    <glyph glyph-name="uni04B4" unicode="&#x4b4;" horiz-adv-x="824" 
d="M696 126h101l-41 -293h-101l5 167h-548l80 575h-139l18 125h437l-17 -125h-139l-63 -449h247l80 574h160z" />
    <glyph glyph-name="uni04B5" unicode="&#x4b5;" horiz-adv-x="655" 
d="M530 114h88l-39 -281h-97l6 167h-441l57 399h-78l16 114h309l-15 -114h-77l-41 -285h157l56 399h155z" />
    <glyph glyph-name="uni04D4" unicode="&#x4d4;" horiz-adv-x="969" 
d="M969 575h-295l-21 -150h266l-18 -126h-266l-24 -173h305l-17 -126h-466l23 164h-234l-85 -164h-165l373 700h223h419zM287 290h187l40 285h-80z" />
    <glyph glyph-name="uni04D5" unicode="&#x4d5;" horiz-adv-x="824" 
d="M793 250h-319c-3 -17 -4 -34 -4 -48c0 -66 27 -98 70 -98c36 0 72 22 90 67h147c-35 -112 -122 -181 -253 -181c-86 0 -155 32 -189 99c-49 -62 -114 -99 -189 -99c-77 0 -133 44 -133 130c0 140 158 209 307 194l1 7c1 6 1 13 1 19c0 46 -28 66 -77 66
s-102 -20 -147 -40l18 127c43 14 104 30 173 30c50 0 112 -9 152 -49c45 31 101 49 164 49c103 0 193 -47 193 -202c0 -21 -1 -45 -5 -71zM586 421c-41 0 -71 -38 -90 -86h149c5 51 -15 86 -59 86zM304 199l4 31c-72 9 -143 -24 -143 -88c0 -30 17 -43 41 -43
c39 0 89 38 98 100z" />
    <glyph glyph-name="Alpha" unicode="&#x391;" horiz-adv-x="678" 
d="M462 0l-29 164h-221l-72 -164h-168l324 700h197l140 -700h-171zM262 290h153l-44 240z" />
    <glyph glyph-name="Beta" unicode="&#x392;" horiz-adv-x="665" 
d="M514 361c63 -20 113 -64 113 -147c0 -134 -133 -214 -270 -214h-329l98 700h292c114 0 213 -55 213 -171c0 -75 -43 -130 -117 -168zM269 575l-22 -157h105c75 0 117 37 117 88c0 41 -28 69 -94 69h-106zM328 126c78 0 131 30 131 93c0 47 -29 74 -104 74h-126l-23 -167
h122z" />
    <glyph glyph-name="Gamma" unicode="&#x393;" horiz-adv-x="526" 
d="M580 700l-18 -125h-293l-81 -575h-160l98 700h454z" />
    <glyph glyph-name="uni0394" unicode="&#x394;" horiz-adv-x="680" 
d="M495 700l140 -700h-663l324 700h199zM190 126h255l-74 404z" />
    <glyph glyph-name="Epsilon" unicode="&#x395;" horiz-adv-x="569" 
d="M211 126h305l-17 -126h-466l98 700h456l-18 -125h-295l-21 -150h266l-18 -126h-266z" />
    <glyph glyph-name="Zeta" unicode="&#x396;" horiz-adv-x="606" 
d="M222 126h347l-18 -126h-567l11 86l407 489h-317l17 125h537l-10 -86z" />
    <glyph glyph-name="Eta" unicode="&#x397;" horiz-adv-x="731" 
d="M569 700h160l-98 -700h-160l42 299h-283l-42 -299h-160l98 700h160l-38 -275h283z" />
    <glyph glyph-name="Theta" unicode="&#x398;" horiz-adv-x="712" 
d="M420 710c173 0 274 -112 274 -287c0 -236 -147 -433 -376 -433c-173 0 -274 112 -274 287c0 236 148 433 376 433zM336 116c129 0 200 164 200 304c0 104 -48 165 -134 165c-129 0 -200 -165 -200 -305c0 -104 48 -164 134 -164zM274 305l8 96h187l-7 -96h-188z" />
    <glyph glyph-name="Iota" unicode="&#x399;" horiz-adv-x="298" 
d="M131 700h160l-98 -700h-160z" />
    <glyph glyph-name="Kappa" unicode="&#x39a;" horiz-adv-x="685" 
d="M28 0l98 700h160l-98 -700h-160zM460 365l189 -365h-186l-185 350l274 350h182z" />
    <glyph glyph-name="Lambda" unicode="&#x39b;" horiz-adv-x="680" 
d="M495 700l140 -700h-173l-91 530l-231 -530h-168l324 700h199z" />
    <glyph glyph-name="Mu" unicode="&#x39c;" horiz-adv-x="844" 
d="M706 700h141l-98 -700h-160l53 364l-227 -304h-40l-140 304l-52 -364h-160l98 700h139l167 -388z" />
    <glyph glyph-name="Nu" unicode="&#x39d;" horiz-adv-x="741" 
d="M579 700h160l-98 -700h-119l-276 406l-58 -406h-160l98 700h119l277 -400z" />
    <glyph glyph-name="Xi" unicode="&#x39e;" horiz-adv-x="602" 
d="M79 575l17 125h534l-18 -125h-533zM149 299l18 126h315l-18 -126h-315zM-2 0l18 126h533l-17 -126h-534z" />
    <glyph glyph-name="Omicron" unicode="&#x39f;" horiz-adv-x="712" 
d="M420 710c171 0 275 -112 275 -288c0 -233 -150 -432 -377 -432c-171 0 -274 112 -274 288c0 233 150 432 376 432zM336 116c120 0 190 175 190 309c0 103 -48 160 -124 160c-120 0 -189 -176 -189 -310c0 -103 48 -159 123 -159z" />
    <glyph glyph-name="Pi" unicode="&#x3a0;" horiz-adv-x="714" 
d="M15 0l98 700h587l-98 -700h-160l80 575h-267l-80 -575h-160z" />
    <glyph glyph-name="Rho" unicode="&#x3a1;" horiz-adv-x="599" 
d="M382 700c126 0 233 -53 233 -202c0 -156 -119 -254 -289 -254h-99l-34 -244h-160l98 700h251zM310 370c89 0 147 50 147 124c0 56 -34 81 -112 81h-71l-29 -205h65z" />
    <glyph glyph-name="Sigma" unicode="&#x3a3;" horiz-adv-x="571" 
d="M231 126h303l-17 -126h-534l9 73l249 287l-170 268l10 72h524l-18 -125h-288l136 -215z" />
    <glyph glyph-name="Tau" unicode="&#x3a4;" horiz-adv-x="578" 
d="M632 700l-18 -125h-200l-81 -575h-160l81 575h-201l18 125h561z" />
    <glyph glyph-name="Upsilon" unicode="&#x3a5;" horiz-adv-x="657" 
d="M217 0l38 265l-184 435h176l109 -284l181 284h174l-296 -436l-38 -264h-160z" />
    <glyph glyph-name="Phi" unicode="&#x3a6;" horiz-adv-x="808" 
d="M534 660c150 -8 258 -99 258 -246c0 -185 -151 -324 -340 -334l-13 -100h-147l14 100c-149 8 -258 99 -258 246c0 183 149 324 339 334l13 90h147zM322 191l50 358c-103 -11 -165 -113 -165 -217c0 -79 42 -134 115 -141zM468 191c102 11 165 113 165 216
c0 80 -42 135 -114 142z" />
    <glyph glyph-name="Chi" unicode="&#x3a7;" horiz-adv-x="666" 
d="M621 0h-182l-115 216l-166 -216h-186l281 357l-176 343h182l111 -207l159 207h183l-274 -345z" />
    <glyph glyph-name="Psi" unicode="&#x3a8;" horiz-adv-x="761" 
d="M648 700h160l-32 -230c-25 -171 -160 -268 -333 -276l-27 -194h-143l27 194c-171 8 -279 105 -254 276l32 230h160l-32 -227c-14 -95 27 -154 110 -162l55 389h143l-54 -389c86 8 142 67 156 162z" />
    <glyph glyph-name="uni03A9" unicode="&#x3a9;" horiz-adv-x="759" 
d="M531 116l174 10l-17 -126h-298l15 109c90 61 149 211 149 325c0 99 -49 151 -128 151c-123 0 -189 -147 -189 -288c0 -86 30 -154 76 -188l-16 -109h-297l17 126l173 -10c-77 49 -118 134 -118 232c0 205 162 362 372 362c175 0 282 -108 282 -264
c0 -136 -77 -266 -195 -330z" />
    <glyph glyph-name="Alphatonos" unicode="&#x386;" horiz-adv-x="678" 
d="M462 0l-29 164h-221l-72 -164h-168l324 700h197l140 -700h-171zM82 527l30 173h147l-96 -173h-81zM262 290h153l-44 240z" />
    <glyph glyph-name="Epsilontonos" unicode="&#x388;" horiz-adv-x="701" 
d="M50 527l30 173h147l-96 -173h-81zM343 126h305l-17 -126h-466l98 700h456l-18 -125h-295l-21 -150h266l-18 -126h-266z" />
    <glyph glyph-name="Etatonos" unicode="&#x389;" horiz-adv-x="871" 
d="M49 527l30 173h147l-96 -173h-81zM708 700h160l-98 -700h-160l42 299h-283l-42 -299h-160l98 700h160l-38 -275h283z" />
    <glyph glyph-name="Iotatonos" unicode="&#x38a;" horiz-adv-x="431" 
d="M50 527l30 173h147l-96 -173h-81zM264 700h160l-98 -700h-160z" />
    <glyph glyph-name="Omicrontonos" unicode="&#x38c;" horiz-adv-x="786" 
d="M494 710c171 0 275 -112 275 -288c0 -233 -150 -432 -377 -432c-171 0 -274 112 -274 288c0 233 150 432 376 432zM48 527l30 173h147l-96 -173h-81zM410 116c120 0 190 175 190 309c0 103 -48 160 -124 160c-120 0 -189 -176 -189 -310c0 -103 48 -159 123 -159z" />
    <glyph glyph-name="Upsilontonos" unicode="&#x38e;" horiz-adv-x="823" 
d="M42 527l30 173h147l-96 -173h-81zM384 0l38 265l-184 435h176l109 -284l181 284h174l-296 -436l-38 -264h-160z" />
    <glyph glyph-name="Omegatonos" unicode="&#x38f;" horiz-adv-x="840" 
d="M611 116l174 10l-17 -126h-298l15 109c90 61 149 211 149 325c0 99 -49 151 -128 151c-123 0 -189 -147 -189 -288c0 -86 30 -154 76 -188l-16 -109h-297l17 126l173 -10c-77 49 -118 134 -118 232c0 205 162 362 372 362c175 0 282 -108 282 -264
c0 -136 -77 -266 -195 -330zM47 527l30 173h147l-96 -173h-81z" />
    <glyph glyph-name="Iotadieresis" unicode="&#x3aa;" horiz-adv-x="298" 
d="M108 762c-39 0 -69 30 -69 69c0 46 46 90 91 90c40 0 69 -32 69 -69c0 -48 -44 -90 -91 -90zM334 762c-39 0 -69 30 -69 69c0 46 46 90 91 90c40 0 69 -32 69 -69c0 -48 -44 -90 -91 -90zM131 700h160l-98 -700h-160z" />
    <glyph glyph-name="Upsilondieresis" unicode="&#x3ab;" horiz-adv-x="657" 
d="M289 762c-39 0 -69 30 -69 69c0 46 46 90 91 90c40 0 69 -32 69 -69c0 -48 -44 -90 -91 -90zM515 762c-39 0 -69 30 -69 69c0 46 46 90 91 90c40 0 69 -32 69 -69c0 -48 -44 -90 -91 -90zM217 0l38 265l-184 435h176l109 -284l181 284h174l-296 -436l-38 -264h-160z" />
    <glyph glyph-name="alpha" unicode="&#x3b1;" horiz-adv-x="592" 
d="M507 167c-5 -37 1 -62 31 -62c5 0 11 1 17 2l-15 -109c-17 -5 -40 -8 -59 -8c-59 0 -114 31 -122 85c-46 -56 -95 -85 -163 -85c-98 0 -170 61 -170 205c0 161 88 328 246 328c57 0 95 -21 124 -62l7 52h153zM257 104c43 0 94 45 110 153c2 20 4 37 4 54
c0 69 -36 98 -72 98c-68 0 -111 -126 -111 -209c0 -66 31 -96 69 -96z" />
    <glyph glyph-name="beta" unicode="&#x3b2;" horiz-adv-x="596" 
d="M7 -220c-6 73 0 145 11 220l75 532c20 146 126 218 266 218c123 0 209 -56 209 -172c0 -79 -42 -150 -111 -188c65 -30 102 -80 102 -160c0 -133 -104 -240 -244 -240c-60 0 -104 19 -135 60l-7 -50c-11 -82 -17 -145 -11 -220h-155zM286 104c68 0 112 67 112 136
c0 60 -35 89 -109 89l15 107c69 0 108 68 108 128c0 47 -25 72 -69 72c-52 0 -86 -37 -96 -109l-38 -270c-12 -86 8 -153 77 -153z" />
    <glyph glyph-name="gamma" unicode="&#x3b3;" horiz-adv-x="541" 
d="M125 -220c26 75 39 142 48 220c22 168 -46 353 -138 513h183c48 -92 89 -217 87 -349c68 105 103 237 119 349h155c-27 -190 -117 -342 -251 -513c-8 -78 -22 -145 -48 -220h-155z" />
    <glyph glyph-name="delta" unicode="&#x3b4;" horiz-adv-x="559" 
d="M242 -10c-132 0 -218 78 -218 201c0 119 67 208 175 256c-34 29 -59 62 -59 115c0 123 96 188 227 188c60 0 102 -16 144 -30l-17 -122c-34 20 -91 40 -131 40c-37 0 -59 -15 -59 -37c0 -65 224 -109 224 -323c0 -168 -121 -288 -286 -288zM258 104c63 0 107 83 107 155
c0 56 -32 88 -70 116c-75 -36 -108 -99 -108 -178c0 -58 27 -93 71 -93z" />
    <glyph glyph-name="epsilon" unicode="&#x3b5;" horiz-adv-x="458" 
d="M221 -10c-119 0 -207 44 -207 138c0 63 40 108 105 132c-44 24 -60 55 -60 97c0 111 109 166 240 166c72 0 130 -16 162 -30l-17 -121c-37 22 -84 40 -140 40c-53 0 -89 -17 -89 -58c0 -35 27 -49 107 -49l-13 -95c-107 0 -137 -28 -137 -63c0 -33 28 -46 78 -46
c57 0 116 17 173 50l-17 -124c-50 -23 -115 -37 -185 -37z" />
    <glyph glyph-name="zeta" unicode="&#x3b6;" horiz-adv-x="470" 
d="M204 -195c40 42 65 84 65 121c0 112 -248 29 -248 241c0 183 147 324 303 429l-237 -16l17 120h420l-10 -74c-173 -113 -324 -250 -324 -403c0 -161 231 -67 231 -241c0 -65 -25 -127 -72 -177h-145z" />
    <glyph glyph-name="eta" unicode="&#x3b7;" horiz-adv-x="584" 
d="M495 0c-10 -73 -17 -147 -11 -220h-155c-6 73 1 147 11 220l41 291c10 75 -17 100 -58 100c-44 0 -99 -29 -113 -129l-37 -262h-155l72 513h155l-10 -74c32 42 89 84 163 84c101 0 163 -50 144 -189z" />
    <glyph glyph-name="theta" unicode="&#x3b8;" horiz-adv-x="573" 
d="M357 750c119 0 202 -81 202 -283c0 -225 -103 -477 -312 -477c-118 0 -202 81 -202 283c0 225 103 477 312 477zM339 636c-59 0 -101 -105 -124 -216h190c3 29 5 57 5 80c0 96 -30 136 -71 136zM265 104c62 0 105 115 127 231h-191c-5 -35 -7 -68 -7 -95
c0 -96 31 -136 71 -136z" />
    <glyph glyph-name="iota" unicode="&#x3b9;" horiz-adv-x="292" 
d="M234 105c6 0 13 1 20 2l-15 -109c-24 -5 -46 -8 -66 -8c-99 0 -148 63 -132 174l49 349h155l-48 -342c-6 -42 2 -66 37 -66z" />
    <glyph glyph-name="kappa" unicode="&#x3ba;" 
d="M17 0l73 513h155l-73 -513h-155zM410 275l128 -275h-174l-121 267l181 246h167z" />
    <glyph glyph-name="lambda" unicode="&#x3bb;" horiz-adv-x="578" 
d="M528 104c6 0 14 1 20 3l-15 -109c-22 -5 -43 -8 -66 -8c-98 0 -125 84 -143 197l-29 143l-155 -330h-168l265 505c-20 76 -64 104 -124 104l18 134c171 0 236 -94 266 -230l70 -326c13 -62 32 -83 61 -83z" />
    <glyph glyph-name="uni03BC" unicode="&#x3bc;" 
d="M402 513h155l-72 -513h-155l10 74c-33 -42 -79 -84 -151 -84c-6 0 -12 0 -17 1c-10 -70 -16 -141 -10 -211h-155c-6 73 1 147 11 220l72 513h155l-40 -284c-11 -79 19 -107 53 -107c37 0 93 29 108 136l-8 -56z" />
    <glyph glyph-name="nu" unicode="&#x3bd;" horiz-adv-x="533" 
d="M406 513h155c-27 -190 -111 -342 -245 -513h-151l-130 513h173l69 -346c67 106 112 234 129 346z" />
    <glyph glyph-name="xi" unicode="&#x3be;" horiz-adv-x="470" 
d="M204 -195c38 40 65 83 65 121c0 111 -252 31 -252 219c0 99 62 173 169 213c-50 20 -74 47 -74 92c0 66 53 113 159 145l-184 -15l17 120h420l-11 -74c-169 -17 -237 -75 -237 -152c0 -62 58 -75 130 -72l-13 -96c-118 6 -207 -26 -207 -106c0 -121 235 -37 235 -219
c0 -63 -25 -126 -72 -176h-145z" />
    <glyph glyph-name="omicron" unicode="&#x3bf;" horiz-adv-x="561" 
d="M240 -10c-125 0 -213 71 -213 221c0 171 114 312 294 312c124 0 212 -71 212 -221c0 -171 -113 -312 -293 -312zM258 104c73 0 114 122 114 207c0 65 -26 98 -69 98c-73 0 -114 -122 -114 -208c0 -65 26 -97 69 -97z" />
    <glyph glyph-name="pi" unicode="&#x3c0;" horiz-adv-x="593" 
d="M518 105c6 0 13 1 20 2l-15 -109c-24 -5 -46 -8 -67 -8c-99 0 -147 63 -131 174l32 235h-107c-22 -133 -52 -266 -108 -399h-155c57 135 96 262 123 399h-63l16 114h522l-16 -114h-57l-31 -228c-6 -42 2 -66 37 -66z" />
    <glyph glyph-name="rho" unicode="&#x3c1;" horiz-adv-x="576" 
d="M-13 -220l67 477c26 181 137 266 290 266c124 0 205 -66 205 -209c0 -165 -91 -324 -245 -324c-58 0 -97 21 -124 60l-38 -270h-155zM276 104c70 0 112 124 112 212c0 66 -28 93 -68 93c-73 0 -115 -119 -115 -204c0 -73 36 -101 71 -101z" />
    <glyph glyph-name="uni03C2" unicode="&#x3c2;" horiz-adv-x="519" 
d="M241 -195c40 41 66 84 66 121c0 118 -283 55 -283 293c0 178 112 304 288 304c131 0 196 -74 196 -198h-146c-3 46 -26 84 -66 84c-68 0 -106 -78 -106 -148c0 -160 267 -98 267 -283c0 -65 -26 -127 -71 -173h-145z" />
    <glyph glyph-name="sigma" unicode="&#x3c3;" horiz-adv-x="577" 
d="M242 -10c-127 0 -215 73 -215 212c0 182 110 311 289 311h279l-16 -114h-100c31 -31 49 -76 49 -130c0 -160 -127 -279 -286 -279zM259 104c73 0 113 124 113 211c0 64 -27 91 -71 91c-75 0 -113 -119 -113 -207c0 -62 27 -95 71 -95z" />
    <glyph glyph-name="tau" unicode="&#x3c4;" horiz-adv-x="454" 
d="M456 399h-139l-32 -228c-6 -42 2 -66 37 -66c6 0 13 1 20 2l-15 -109c-24 -5 -46 -8 -67 -8c-99 0 -147 63 -131 174l33 235h-123l16 114h417z" />
    <glyph glyph-name="upsilon" unicode="&#x3c5;" horiz-adv-x="568" 
d="M519 513c8 -45 16 -98 16 -159c0 -212 -81 -364 -283 -364c-116 0 -207 50 -207 178c0 23 3 45 14 125c7 52 14 101 14 159c0 23 -1 42 -3 61h155c2 -19 3 -38 3 -62c0 -48 -5 -92 -14 -158c-8 -56 -11 -76 -11 -97c0 -49 22 -74 65 -74c78 0 110 112 110 222
c0 60 -8 116 -21 169h162z" />
    <glyph glyph-name="phi" unicode="&#x3c6;" horiz-adv-x="764" 
d="M546 523c125 0 194 -75 194 -200c0 -180 -144 -324 -330 -333l-29 -210h-139l30 210c-136 8 -244 83 -244 231c0 168 136 302 292 302l-15 -106c-73 -10 -129 -98 -129 -188c0 -83 47 -126 110 -133l29 202c23 161 115 225 231 225zM425 96c110 11 169 122 169 230
c0 59 -19 91 -60 91c-37 0 -68 -30 -80 -119z" />
    <glyph glyph-name="chi" unicode="&#x3c7;" horiz-adv-x="577" 
d="M426 -54c15 -41 31 -60 64 -60c8 0 15 1 22 3l-16 -109c-20 -6 -44 -10 -66 -10c-77 0 -116 42 -142 116l-53 135l-125 -241h-160l224 395l-71 182c-13 35 -25 52 -52 52c-8 0 -14 -1 -22 -3l15 109c21 4 43 8 76 8c56 0 101 -18 128 -100l59 -157l126 247h167l-234 -406
z" />
    <glyph glyph-name="psi" unicode="&#x3c8;" horiz-adv-x="763" 
d="M725 513c18 -99 20 -169 8 -250c-24 -178 -145 -265 -329 -273l-30 -210h-139l30 210c-159 8 -259 95 -235 260l37 263h153l-37 -263c-13 -95 15 -146 97 -154l85 604h139l-86 -604c101 8 147 59 162 167c12 81 8 164 -13 250h158z" />
    <glyph glyph-name="omega" unicode="&#x3c9;" horiz-adv-x="785" 
d="M740 513c18 -71 23 -131 19 -199c-7 -191 -94 -324 -251 -324c-63 0 -111 22 -142 80c-46 -56 -98 -80 -165 -80c-101 0 -182 50 -175 211c4 104 37 208 91 312h162c-58 -96 -93 -207 -97 -295c-5 -69 16 -96 57 -96c58 0 82 96 87 183c2 25 4 49 3 85h165
c-20 -62 -29 -106 -36 -159c-8 -67 3 -109 48 -109c64 0 94 103 99 198c3 67 -5 127 -26 193h161z" />
    <glyph glyph-name="iotatonos" unicode="&#x3af;" horiz-adv-x="292" 
d="M138 580l48 173h147l-114 -173h-81zM234 105c6 0 13 1 20 2l-15 -109c-24 -5 -46 -8 -66 -8c-99 0 -148 63 -132 174l49 349h155l-48 -342c-6 -42 2 -66 37 -66z" />
    <glyph glyph-name="iotadieresis" unicode="&#x3ca;" horiz-adv-x="292" 
d="M66 589c-39 0 -69 30 -69 69c0 46 46 90 91 90c40 0 69 -32 69 -69c0 -48 -44 -90 -91 -90zM292 589c-39 0 -69 30 -69 69c0 46 46 90 91 90c40 0 69 -32 69 -69c0 -48 -44 -90 -91 -90zM234 105c6 0 13 1 20 2l-15 -109c-24 -5 -46 -8 -66 -8c-99 0 -148 63 -132 174
l49 349h155l-48 -342c-6 -42 2 -66 37 -66z" />
    <glyph glyph-name="iotadieresistonos" unicode="&#x390;" horiz-adv-x="292" 
d="M132 586l54 180h124l-97 -180h-81zM43 589c-43 0 -75 36 -69 79c6 42 48 80 90 80c44 0 75 -38 68 -80c-6 -43 -46 -79 -89 -79zM354 589c-42 0 -75 36 -69 79c7 42 49 80 91 80c43 0 74 -38 68 -80c-6 -43 -47 -79 -90 -79zM234 105c6 0 13 1 20 2l-15 -109
c-24 -5 -46 -8 -66 -8c-99 0 -148 63 -132 174l49 349h155l-48 -342c-6 -42 2 -66 37 -66z" />
    <glyph glyph-name="upsilontonos" unicode="&#x3cd;" horiz-adv-x="568" 
d="M257 580l48 173h147l-114 -173h-81zM519 513c8 -45 16 -98 16 -159c0 -212 -81 -364 -283 -364c-116 0 -207 50 -207 178c0 23 3 45 14 125c7 52 14 101 14 159c0 23 -1 42 -3 61h155c2 -19 3 -38 3 -62c0 -48 -5 -92 -14 -158c-8 -56 -11 -76 -11 -97
c0 -49 22 -74 65 -74c78 0 110 112 110 222c0 60 -8 116 -21 169h162z" />
    <glyph glyph-name="upsilondieresis" unicode="&#x3cb;" horiz-adv-x="568" 
d="M185 589c-39 0 -69 30 -69 69c0 46 46 90 91 90c40 0 69 -32 69 -69c0 -48 -44 -90 -91 -90zM411 589c-39 0 -69 30 -69 69c0 46 46 90 91 90c40 0 69 -32 69 -69c0 -48 -44 -90 -91 -90zM519 513c8 -45 16 -98 16 -159c0 -212 -81 -364 -283 -364
c-116 0 -207 50 -207 178c0 23 3 45 14 125c7 52 14 101 14 159c0 23 -1 42 -3 61h155c2 -19 3 -38 3 -62c0 -48 -5 -92 -14 -158c-8 -56 -11 -76 -11 -97c0 -49 22 -74 65 -74c78 0 110 112 110 222c0 60 -8 116 -21 169h162z" />
    <glyph glyph-name="upsilondieresistonos" unicode="&#x3b0;" horiz-adv-x="568" 
d="M251 586l54 180h124l-97 -180h-81zM162 589c-43 0 -75 36 -69 79c6 42 48 80 90 80c44 0 75 -38 68 -80c-6 -43 -46 -79 -89 -79zM473 589c-42 0 -75 36 -69 79c7 42 49 80 91 80c43 0 74 -38 68 -80c-6 -43 -47 -79 -90 -79zM519 513c8 -45 16 -98 16 -159
c0 -212 -81 -364 -283 -364c-116 0 -207 50 -207 178c0 23 3 45 14 125c7 52 14 101 14 159c0 23 -1 42 -3 61h155c2 -19 3 -38 3 -62c0 -48 -5 -92 -14 -158c-8 -56 -11 -76 -11 -97c0 -49 22 -74 65 -74c78 0 110 112 110 222c0 60 -8 116 -21 169h162z" />
    <glyph glyph-name="omicrontonos" unicode="&#x3cc;" horiz-adv-x="561" 
d="M287 580l48 173h147l-114 -173h-81zM240 -10c-125 0 -213 71 -213 221c0 171 114 312 294 312c124 0 212 -71 212 -221c0 -171 -113 -312 -293 -312zM258 104c73 0 114 122 114 207c0 65 -26 98 -69 98c-73 0 -114 -122 -114 -208c0 -65 26 -97 69 -97z" />
    <glyph glyph-name="omegatonos" unicode="&#x3ce;" horiz-adv-x="785" 
d="M399 580l48 173h147l-114 -173h-81zM740 513c18 -71 23 -131 19 -199c-7 -191 -94 -324 -251 -324c-63 0 -111 22 -142 80c-46 -56 -98 -80 -165 -80c-101 0 -182 50 -175 211c4 104 37 208 91 312h162c-58 -96 -93 -207 -97 -295c-5 -69 16 -96 57 -96
c58 0 82 96 87 183c2 25 4 49 3 85h165c-20 -62 -29 -106 -36 -159c-8 -67 3 -109 48 -109c64 0 94 103 99 198c3 67 -5 127 -26 193h161z" />
    <glyph glyph-name="alphatonos" unicode="&#x3ac;" horiz-adv-x="592" 
d="M480 753l-114 -173h-81l48 173h147zM507 167c-5 -37 1 -62 31 -62c5 0 11 1 17 2l-15 -109c-17 -5 -40 -8 -59 -8c-59 0 -114 31 -122 85c-46 -56 -95 -85 -163 -85c-98 0 -170 61 -170 205c0 161 88 328 246 328c57 0 95 -21 124 -62l7 52h153zM257 104
c43 0 94 45 110 153c2 20 4 37 4 54c0 69 -36 98 -72 98c-68 0 -111 -126 -111 -209c0 -66 31 -96 69 -96z" />
    <glyph glyph-name="epsilontonos" unicode="&#x3ad;" horiz-adv-x="458" 
d="M268 580l48 173h147l-114 -173h-81zM221 -10c-119 0 -207 44 -207 138c0 63 40 108 105 132c-44 24 -60 55 -60 97c0 111 109 166 240 166c72 0 130 -16 162 -30l-17 -121c-37 22 -84 40 -140 40c-53 0 -89 -17 -89 -58c0 -35 27 -49 107 -49l-13 -95
c-107 0 -137 -28 -137 -63c0 -33 28 -46 78 -46c57 0 116 17 173 50l-17 -124c-50 -23 -115 -37 -185 -37z" />
    <glyph glyph-name="etatonos" unicode="&#x3ae;" horiz-adv-x="584" 
d="M299 580l48 173h147l-114 -173h-81zM495 0c-10 -73 -17 -147 -11 -220h-155c-6 73 1 147 11 220l41 291c10 75 -17 100 -58 100c-44 0 -99 -29 -113 -129l-37 -262h-155l72 513h155l-10 -74c32 42 89 84 163 84c101 0 163 -50 144 -189z" />
    <glyph glyph-name="zero" unicode="0" horiz-adv-x="600" 
d="M365 710c137 0 213 -99 213 -278c0 -216 -112 -442 -317 -442c-137 0 -213 99 -213 278c0 216 112 442 317 442zM279 116c86 0 134 237 134 353c0 76 -24 116 -66 116c-85 0 -133 -238 -133 -354c0 -76 23 -115 65 -115z" />
    <glyph glyph-name="one" unicode="1" horiz-adv-x="532" 
d="M192 0l68 479c-45 -30 -111 -48 -155 -48l17 119c68 10 150 54 193 150h135l-98 -700h-160z" />
    <glyph glyph-name="two" unicode="2" horiz-adv-x="601" 
d="M-1 0c41 293 412 315 412 512c0 40 -20 79 -73 79c-59 0 -97 -48 -109 -114h-153c22 154 149 233 284 233c121 0 214 -65 214 -198c0 -234 -299 -285 -352 -386h298l-18 -126h-503z" />
    <glyph glyph-name="three" unicode="3" horiz-adv-x="612" 
d="M262 -10c-165 0 -249 95 -230 247h157c-10 -74 20 -128 88 -128c64 0 114 46 114 104c0 53 -39 88 -128 88l16 112c89 0 137 41 137 110c0 40 -21 68 -72 68c-63 0 -100 -48 -111 -114h-154c21 151 145 233 286 233c121 0 215 -57 215 -171c0 -78 -44 -142 -117 -179
c57 -28 91 -70 91 -139c0 -149 -138 -231 -292 -231z" />
    <glyph glyph-name="four" unicode="4" horiz-adv-x="635" 
d="M586 269l-17 -119h-83l-21 -150h-160l21 150h-295l14 99l386 450h132l-60 -430h83zM197 269h146l29 207z" />
    <glyph glyph-name="five" unicode="5" horiz-adv-x="608" 
d="M340 450c120 0 215 -59 215 -192c0 -161 -140 -268 -298 -268c-142 0 -240 86 -222 230h162c-8 -63 21 -111 77 -111c67 0 111 76 111 140c0 60 -37 82 -85 82c-34 0 -77 -12 -114 -39l-109 40l96 368h413l-18 -125h-277l-40 -140c29 11 62 15 89 15z" />
    <glyph glyph-name="six" unicode="6" horiz-adv-x="628" 
d="M280 -10c-198 0 -246 151 -216 360c31 227 139 360 318 360c147 0 235 -87 217 -219h-153c6 59 -21 100 -72 100c-62 0 -120 -65 -134 -199c37 31 79 48 138 48c137 0 197 -76 197 -180c0 -152 -118 -270 -295 -270zM297 109c72 0 107 75 107 138c0 47 -23 81 -75 81
c-72 0 -106 -74 -106 -136c0 -46 22 -83 74 -83z" />
    <glyph glyph-name="seven" unicode="7" horiz-adv-x="561" 
d="M103 700h490l-10 -72c-158 -209 -261 -419 -315 -628h-165c59 204 146 383 294 575h-312z" />
    <glyph glyph-name="eight" unicode="8" horiz-adv-x="612" 
d="M266 -10c-150 0 -231 72 -231 176c0 92 63 171 155 200c-48 23 -88 62 -88 136c0 129 123 208 270 208c136 0 213 -67 213 -161c0 -79 -53 -150 -134 -183c66 -23 107 -72 107 -149c0 -135 -123 -227 -292 -227zM329 426c57 0 92 52 92 100c0 41 -26 65 -67 65
c-58 0 -93 -51 -93 -100c0 -41 26 -65 68 -65zM285 116c66 0 106 57 106 113c0 45 -28 75 -78 75c-66 0 -105 -58 -105 -114c0 -45 27 -74 77 -74z" />
    <glyph glyph-name="nine" unicode="9" horiz-adv-x="628" 
d="M371 710c203 0 250 -150 220 -360c-32 -225 -129 -360 -316 -360c-150 0 -237 87 -219 220h153c-6 -61 20 -101 72 -101c74 0 120 69 134 199c-36 -29 -77 -48 -139 -48c-135 0 -196 75 -196 185c0 156 118 265 291 265zM356 591c-70 0 -105 -65 -105 -133
c0 -51 22 -85 75 -85c72 0 106 73 106 135c0 47 -21 83 -76 83z" />
    <glyph glyph-name="fraction" unicode="&#x2044;" horiz-adv-x="498" 
d="M438 765l72 -38l-425 -792l-71 38z" />
    <glyph glyph-name="onehalf" unicode="&#xbd;" horiz-adv-x="940" 
d="M591 765l72 -38l-425 -792l-71 38zM147 266l42 297c-27 -18 -68 -29 -96 -29l11 74c42 6 93 33 120 93h83l-60 -435h-100zM536 0c26 182 256 196 256 318c0 25 -12 49 -45 49c-37 0 -60 -30 -68 -71h-95c14 96 93 145 177 145c75 0 132 -40 132 -123
c0 -145 -185 -177 -218 -240h185l-11 -78h-313z" />
    <glyph glyph-name="onequarter" unicode="&#xbc;" horiz-adv-x="954" 
d="M591 765l72 -38l-425 -792l-71 38zM147 266l42 297c-27 -18 -68 -29 -96 -29l11 74c42 6 93 33 120 93h83l-60 -435h-100zM887 167l-11 -74h-51l-13 -93h-100l13 93h-183l9 62l240 279h82l-38 -267h52zM645 167h91l18 129z" />
    <glyph glyph-name="threequarters" unicode="&#xbe;" horiz-adv-x="1036" 
d="M677 765l72 -38l-425 -792l-71 38zM218 253c-103 0 -155 59 -143 153h97c-6 -46 13 -79 55 -79c40 0 71 28 71 64c0 33 -24 55 -80 55l10 69c56 0 85 26 85 69c0 25 -13 42 -44 42c-39 0 -62 -30 -69 -71h-96c13 94 90 145 178 145c75 0 133 -35 133 -106
c0 -49 -27 -88 -72 -111c35 -18 56 -44 56 -87c0 -92 -86 -143 -181 -143zM970 167l-11 -74h-51l-13 -93h-100l13 93h-183l9 62l240 279h82l-38 -267h52zM728 167h91l18 129z" />
    <glyph glyph-name="oneeighth" unicode="&#x215b;" horiz-adv-x="973" 
d="M591 765l72 -38l-425 -792l-71 38zM147 266l42 297c-27 -18 -68 -29 -96 -29l11 74c42 6 93 33 120 93h83l-60 -435h-100zM719 -10c-93 0 -143 45 -143 109c0 57 39 106 96 124c-30 15 -55 39 -55 85c0 80 77 129 168 129c84 0 132 -42 132 -100c0 -49 -33 -93 -83 -114
c41 -14 67 -44 67 -92c0 -84 -77 -141 -182 -141zM758 261c36 0 57 32 57 62c0 25 -16 40 -41 40c-36 0 -58 -32 -58 -62c0 -26 16 -40 42 -40zM731 68c41 0 66 35 66 70c0 28 -18 47 -49 47c-41 0 -65 -36 -65 -71c0 -28 17 -46 48 -46z" />
    <glyph glyph-name="threeeighths" unicode="&#x215c;" horiz-adv-x="1044" 
d="M666 765l72 -38l-425 -792l-71 38zM199 253c-103 0 -155 59 -143 153h97c-6 -46 13 -79 55 -79c40 0 71 28 71 64c0 33 -24 55 -80 55l10 69c56 0 85 26 85 69c0 25 -13 42 -44 42c-39 0 -62 -30 -69 -71h-96c13 94 90 145 178 145c75 0 133 -35 133 -106
c0 -49 -27 -88 -72 -111c35 -18 56 -44 56 -87c0 -92 -86 -143 -181 -143zM793 -10c-93 0 -143 45 -143 109c0 57 39 106 96 124c-30 15 -55 39 -55 85c0 80 77 129 168 129c84 0 132 -42 132 -100c0 -49 -33 -93 -83 -114c41 -14 67 -44 67 -92c0 -84 -77 -141 -182 -141z
M832 261c36 0 57 32 57 62c0 25 -16 40 -41 40c-36 0 -58 -32 -58 -62c0 -26 16 -40 42 -40zM805 68c41 0 66 35 66 70c0 28 -18 47 -49 47c-41 0 -65 -36 -65 -71c0 -28 17 -46 48 -46z" />
    <glyph glyph-name="fiveeighths" unicode="&#x215d;" horiz-adv-x="1038" 
d="M666 765l72 -38l-425 -792l-71 38zM250 544c75 0 134 -36 134 -119c0 -100 -87 -166 -185 -166c-89 0 -149 53 -138 143h100c-5 -40 13 -69 48 -69c42 0 69 47 69 87c0 37 -23 51 -53 51c-21 0 -48 -8 -70 -25l-68 25l59 229h257l-11 -78h-172l-25 -87c18 7 38 9 55 9z
M787 -10c-93 0 -143 45 -143 109c0 57 39 106 96 124c-30 15 -55 39 -55 85c0 80 77 129 168 129c84 0 132 -42 132 -100c0 -49 -33 -93 -83 -114c41 -14 67 -44 67 -92c0 -84 -77 -141 -182 -141zM826 261c36 0 57 32 57 62c0 25 -16 40 -41 40c-36 0 -58 -32 -58 -62
c0 -26 16 -40 42 -40zM799 68c41 0 66 35 66 70c0 28 -18 47 -49 47c-41 0 -65 -36 -65 -71c0 -28 17 -46 48 -46z" />
    <glyph glyph-name="seveneighths" unicode="&#x215e;" horiz-adv-x="931" 
d="M572 765l72 -38l-425 -792l-71 38zM103 700h304l-6 -45c-98 -130 -162 -260 -196 -390h-102c37 127 91 238 183 357h-194zM700 -10c-93 0 -143 45 -143 109c0 57 39 106 96 124c-30 15 -55 39 -55 85c0 80 77 129 168 129c84 0 132 -42 132 -100c0 -49 -33 -93 -83 -114
c41 -14 67 -44 67 -92c0 -84 -77 -141 -182 -141zM739 261c36 0 57 32 57 62c0 25 -16 40 -41 40c-36 0 -58 -32 -58 -62c0 -26 16 -40 42 -40zM712 68c41 0 66 35 66 70c0 28 -18 47 -49 47c-41 0 -65 -36 -65 -71c0 -28 17 -46 48 -46z" />
    <glyph glyph-name="zero.dnom" horiz-adv-x="403" 
d="M228 437c85 0 132 -62 132 -173c0 -134 -70 -274 -197 -274c-85 0 -132 61 -132 172c0 135 69 275 197 275zM174 68c54 0 83 147 83 219c0 47 -14 72 -41 72c-52 0 -82 -148 -82 -220c0 -47 14 -71 40 -71z" />
    <glyph glyph-name="one.dnom" horiz-adv-x="416" 
d="M136 0l42 297c-27 -18 -68 -29 -96 -29l11 74c42 6 93 33 120 93h83l-60 -435h-100z" />
    <glyph glyph-name="two.dnom" horiz-adv-x="410" 
d="M-1 0c26 182 256 196 256 318c0 25 -12 49 -45 49c-37 0 -60 -30 -68 -71h-95c14 96 93 145 177 145c75 0 132 -40 132 -123c0 -145 -185 -177 -218 -240h185l-11 -78h-313z" />
    <glyph glyph-name="three.dnom" horiz-adv-x="412" 
d="M162 -10c-103 0 -155 59 -143 153h97c-6 -46 13 -79 55 -79c40 0 71 28 71 64c0 33 -24 55 -80 55l10 69c56 0 85 26 85 69c0 25 -13 42 -44 42c-39 0 -62 -30 -69 -71h-96c13 94 90 145 178 145c75 0 133 -35 133 -106c0 -49 -27 -88 -72 -111c35 -18 56 -44 56 -87
c0 -92 -86 -143 -181 -143z" />
    <glyph glyph-name="four.dnom" horiz-adv-x="430" 
d="M367 167l-11 -74h-51l-13 -93h-100l13 93h-183l9 62l240 279h82l-38 -267h52zM125 167h91l18 129z" />
    <glyph glyph-name="five.dnom" horiz-adv-x="412" 
d="M212 275c75 0 134 -36 134 -119c0 -100 -87 -166 -185 -166c-89 0 -149 53 -138 143h100c-5 -40 13 -69 48 -69c42 0 69 47 69 87c0 37 -23 51 -53 51c-21 0 -48 -8 -70 -25l-68 25l59 229h257l-11 -78h-172l-25 -87c18 7 38 9 55 9z" />
    <glyph glyph-name="six.dnom" horiz-adv-x="429" 
d="M179 -10c-123 0 -153 94 -134 223c19 141 86 224 197 224c92 0 146 -54 135 -136h-95c4 37 -13 62 -45 62c-38 0 -74 -40 -83 -124c23 20 49 30 86 30c85 0 122 -47 122 -112c0 -94 -73 -167 -183 -167zM189 64c45 0 67 46 67 85c0 30 -14 51 -47 51
c-44 0 -66 -46 -66 -85c0 -28 14 -51 46 -51z" />
    <glyph glyph-name="seven.dnom" horiz-adv-x="375" 
d="M65 435h304l-6 -45c-98 -130 -162 -260 -196 -390h-102c37 127 91 238 183 357h-194z" />
    <glyph glyph-name="eight.dnom" horiz-adv-x="414" 
d="M168 -10c-93 0 -143 45 -143 109c0 57 39 106 96 124c-30 15 -55 39 -55 85c0 80 77 129 168 129c84 0 132 -42 132 -100c0 -49 -33 -93 -83 -114c41 -14 67 -44 67 -92c0 -84 -77 -141 -182 -141zM207 261c36 0 57 32 57 62c0 25 -16 40 -41 40c-36 0 -58 -32 -58 -62
c0 -26 16 -40 42 -40zM180 68c41 0 66 35 66 70c0 28 -18 47 -49 47c-41 0 -65 -36 -65 -71c0 -28 17 -46 48 -46z" />
    <glyph glyph-name="nine.dnom" horiz-adv-x="430" 
d="M235 437c126 0 156 -93 137 -224c-20 -139 -80 -223 -196 -223c-93 0 -147 54 -136 136h95c-4 -37 12 -62 45 -62c45 0 74 43 83 123c-23 -18 -48 -30 -87 -30c-83 0 -121 47 -121 115c0 97 73 165 180 165zM226 363c-43 0 -65 -40 -65 -83c0 -31 14 -52 46 -52
c45 0 66 45 66 83c0 30 -13 52 -47 52z" />
    <glyph glyph-name="zero.numr" horiz-adv-x="403" 
d="M266 710c85 0 132 -62 132 -173c0 -134 -70 -274 -197 -274c-85 0 -132 61 -132 172c0 135 69 275 197 275zM212 341c54 0 83 147 83 219c0 47 -14 72 -41 72c-52 0 -82 -148 -82 -220c0 -47 14 -71 40 -71z" />
    <glyph glyph-name="one.numr" horiz-adv-x="416" 
d="M174 266l42 297c-27 -18 -68 -29 -96 -29l11 74c42 6 93 33 120 93h83l-60 -435h-100z" />
    <glyph glyph-name="two.numr" horiz-adv-x="600" 
d="M18 270c26 182 256 196 256 318c0 25 -12 49 -45 49c-37 0 -60 -30 -68 -71h-95c14 96 93 145 177 145c75 0 132 -40 132 -123c0 -145 -185 -177 -218 -240h185l-11 -78h-313z" />
    <glyph glyph-name="three.numr" horiz-adv-x="412" 
d="M199 253c-103 0 -155 59 -143 153h97c-6 -46 13 -79 55 -79c40 0 71 28 71 64c0 33 -24 55 -80 55l10 69c56 0 85 26 85 69c0 25 -13 42 -44 42c-39 0 -62 -30 -69 -71h-96c13 94 90 145 178 145c75 0 133 -35 133 -106c0 -49 -27 -88 -72 -111c35 -18 56 -44 56 -87
c0 -92 -86 -143 -181 -143z" />
    <glyph glyph-name="four.numr" horiz-adv-x="430" 
d="M405 433l-11 -74h-51l-13 -93h-100l13 93h-183l9 62l240 279h82l-38 -267h52zM163 433h91l18 129z" />
    <glyph glyph-name="five.numr" horiz-adv-x="412" 
d="M250 544c75 0 134 -36 134 -119c0 -100 -87 -166 -185 -166c-89 0 -149 53 -138 143h100c-5 -40 13 -69 48 -69c42 0 69 47 69 87c0 37 -23 51 -53 51c-21 0 -48 -8 -70 -25l-68 25l59 229h257l-11 -78h-172l-25 -87c18 7 38 9 55 9z" />
    </font>
</defs>
</svg>
