<?xml version="1.0" standalone="no"?>
<!DOCTYPE svg PUBLIC "-//W3C//DTD SVG 1.1//EN" "http://www.w3.org/Graphics/SVG/1.1/DTD/svg11.dtd" >
<svg xmlns="http://www.w3.org/2000/svg" xmlns:xlink="http://www.w3.org/1999/xlink" version="1.1">
<metadata>
Created by FontForge 20161116 at Mon Apr 18 00:16:15 2016
 By Jimmy Wärting
Copyright \(c\) 2016 by Mateusz Machalski. All rights reserved.
</metadata>
<defs>
<font id="AlergiaNormal-Italic" horiz-adv-x="0" >
  <font-face 
    font-family="Alergia Normal"
    font-weight="700"
    font-style="italic"
    font-stretch="normal"
    units-per-em="1000"
    panose-1="0 0 8 0 0 0 0 0 0 0"
    ascent="800"
    descent="-200"
    x-height="500"
    cap-height="700"
    bbox="-641 -257 1195 1120"
    underline-thickness="50"
    underline-position="-100"
    slope="-8"
    stemh="80"
    stemv="90"
    unicode-range="U+0020-25CA"
  />
<missing-glyph horiz-adv-x="485" 
d="M398 740v-970h-308v970h308zM323 675h-160v-32h63v-36h-64v-32h161v32h-64v36h64v32zM259 550h-97v-101h161v33h-64v68zM226 517v-35h-32v35h32zM323 423h-161v-32h64v-36h-64v-32h97v68h64v32zM323 365h-32v-64h-129v-33h161v97zM323 246h-97v-54h33v22h32v-45h-97v77
h-32v-109h161v109zM323 78h-161v-109h161v109zM291 46v-45h-97v45h97zM323 -53h-161v-32h68l-68 -46v-32h161v32h-99l68 46h31v32z" />
    <glyph glyph-name=".notdef" horiz-adv-x="485" 
d="M398 740v-970h-308v970h308zM323 675h-160v-32h63v-36h-64v-32h161v32h-64v36h64v32zM259 550h-97v-101h161v33h-64v68zM226 517v-35h-32v35h32zM323 423h-161v-32h64v-36h-64v-32h97v68h64v32zM323 365h-32v-64h-129v-33h161v97zM323 246h-97v-54h33v22h32v-45h-97v77
h-32v-109h161v109zM323 78h-161v-109h161v109zM291 46v-45h-97v45h97zM323 -53h-161v-32h68l-68 -46v-32h161v32h-99l68 46h31v32z" />
    <glyph glyph-name="A" unicode="A" horiz-adv-x="663" 
d="M508 0l-44 190h-285l-96 -190h-103l359 700h107l167 -700h-105zM219 270h227l-71 309z" />
    <glyph glyph-name="Aacute" unicode="&#xc1;" horiz-adv-x="663" 
d="M379 770l135 130h120l-175 -130h-80zM508 0l-44 190h-285l-96 -190h-103l359 700h107l167 -700h-105zM219 270h227l-71 309z" />
    <glyph glyph-name="Abreve" unicode="&#x102;" horiz-adv-x="663" 
d="M407 760c-94 0 -140 57 -136 150h60c7 -51 31 -80 86 -80c56 0 88 29 111 80h60c-24 -93 -86 -150 -181 -150zM446 700l167 -700h-105l-44 190h-285l-96 -190h-103l359 700h107zM219 270h227l-71 309z" />
    <glyph glyph-name="uni1EAE" unicode="&#x1eae;" horiz-adv-x="663" 
d="M658 1070l-175 -130h-80l135 130h120zM407 760c-94 0 -140 57 -137 150h60c8 -51 32 -80 87 -80c56 0 88 29 110 80h60c-23 -93 -85 -150 -180 -150zM339 700h107l167 -700h-105l-44 190h-285l-96 -190h-103zM219 270h227l-71 309z" />
    <glyph glyph-name="uni1EB6" unicode="&#x1eb6;" horiz-adv-x="663" 
d="M407 760c-94 0 -140 57 -136 150h60c7 -51 31 -80 86 -80c56 0 88 29 111 80h60c-24 -93 -86 -150 -181 -150zM446 700l167 -700h-105l-44 190h-285l-96 -190h-103l359 700h107zM219 270h227l-71 309zM287 -100c33 0 56 -28 52 -60c-5 -33 -35 -60 -68 -60
c-32 0 -57 27 -52 60c4 32 36 60 68 60z" />
    <glyph glyph-name="uni1EB0" unicode="&#x1eb0;" horiz-adv-x="663" 
d="M493 940h-80l-138 130h120zM407 760c-94 0 -140 57 -137 150h60c8 -51 32 -80 87 -80c56 0 88 29 110 80h60c-23 -93 -85 -150 -180 -150zM446 700l167 -700h-105l-44 190h-285l-96 -190h-103l359 700h107zM219 270h227l-71 309z" />
    <glyph glyph-name="uni1EB2" unicode="&#x1eb2;" horiz-adv-x="663" 
d="M448 1071c-20 0 -36 -13 -45 -38h-55c13 57 57 87 107 87s92 -30 84 -87c-9 -65 -81 -72 -87 -115h-50c9 63 71 70 77 115c4 25 -11 38 -31 38zM408 760c-94 0 -140 57 -137 150h60c8 -51 32 -80 87 -80c56 0 88 29 110 80h60c-23 -93 -85 -150 -180 -150zM446 700
l167 -700h-105l-44 190h-285l-96 -190h-103l359 700h107zM219 270h227l-71 309z" />
    <glyph glyph-name="uni1EB4" unicode="&#x1eb4;" horiz-adv-x="663" 
d="M372 999c-34 0 -48 -27 -63 -64h-60c24 97 79 134 133 134c79 0 82 -64 130 -64c34 0 48 27 63 64h60c-24 -97 -79 -134 -133 -134c-79 0 -83 64 -130 64zM417 830c56 0 88 29 110 80h60c-23 -93 -85 -150 -180 -150c-94 0 -140 57 -137 150h60c8 -51 32 -80 87 -80z
M339 700h107l167 -700h-105l-44 190h-285l-96 -190h-103zM219 270h227l-71 309z" />
    <glyph glyph-name="uni01CD" unicode="&#x1cd;" horiz-adv-x="663" 
d="M444 770h-70l-110 130h110l42 -79l65 79h110zM446 700l167 -700h-105l-44 190h-285l-96 -190h-103l359 700h107zM219 270h227l-71 309z" />
    <glyph glyph-name="Acircumflex" unicode="&#xc2;" horiz-adv-x="663" 
d="M420 849l-64 -79h-110l146 130h70l111 -130h-110zM446 700l167 -700h-105l-44 190h-285l-96 -190h-103l359 700h107zM219 270h227l-71 309z" />
    <glyph glyph-name="uni1EA4" unicode="&#x1ea4;" horiz-adv-x="663" 
d="M671 1000h120l-174 -130h-80zM420 849l-64 -79h-110l146 130h70l111 -130h-110zM339 700h107l167 -700h-105l-44 190h-285l-96 -190h-103zM219 270h227l-71 309z" />
    <glyph glyph-name="uni1EAC" unicode="&#x1eac;" horiz-adv-x="663" 
d="M420 849l-64 -79h-110l146 130h70l111 -130h-110zM446 700l167 -700h-105l-44 190h-285l-96 -190h-103l359 700h107zM219 270h227l-71 309zM287 -100c33 0 56 -28 52 -60c-5 -33 -35 -60 -68 -60c-32 0 -57 27 -52 60c4 32 36 60 68 60z" />
    <glyph glyph-name="uni1EA6" unicode="&#x1ea6;" horiz-adv-x="663" 
d="M627 870h-80l-139 130h120zM420 849l-64 -79h-110l146 130h70l111 -130h-110zM339 700h107l167 -700h-105l-44 190h-285l-96 -190h-103zM219 270h227l-71 309z" />
    <glyph glyph-name="uni1EA8" unicode="&#x1ea8;" horiz-adv-x="663" 
d="M590 1050c50 0 90 -30 82 -87c-9 -65 -80 -72 -86 -115h-50c9 63 70 70 76 115c4 25 -9 38 -29 38s-38 -13 -47 -38h-55c13 57 59 87 109 87zM421 849l-65 -79h-110l147 130h70l110 -130h-110zM339 700h107l167 -700h-105l-44 190h-285l-96 -190h-103zM219 270h227
l-71 309z" />
    <glyph glyph-name="uni1EAA" unicode="&#x1eaa;" horiz-adv-x="663" 
d="M852 1009h60c-24 -97 -79 -134 -133 -134c-79 0 -83 64 -130 64c-34 0 -48 -27 -63 -64h-60c24 97 79 134 133 134c79 0 82 -64 130 -64c34 0 48 27 63 64zM420 849l-64 -79h-110l146 130h70l111 -130h-110zM339 700h107l167 -700h-105l-44 190h-285l-96 -190h-103z
M219 270h227l-71 309z" />
    <glyph glyph-name="Adieresis" unicode="&#xc4;" horiz-adv-x="663" 
d="M310 775c-29 0 -49 22 -49 51c0 32 31 64 65 64c29 0 49 -23 49 -50c0 -35 -32 -65 -65 -65zM510 775c-29 0 -49 22 -49 51c0 32 31 64 65 64c29 0 49 -23 49 -50c0 -35 -32 -65 -65 -65zM508 0l-44 190h-285l-96 -190h-103l359 700h107l167 -700h-105zM219 270h227
l-71 309z" />
    <glyph glyph-name="uni1EA0" unicode="&#x1ea0;" horiz-adv-x="663" 
d="M508 0l-44 190h-285l-96 -190h-103l359 700h107l167 -700h-105zM219 270h227l-71 309zM271 -220c-32 0 -57 27 -52 60c4 32 36 60 68 60c33 0 56 -28 52 -60c-5 -33 -35 -60 -68 -60z" />
    <glyph glyph-name="Agrave" unicode="&#xc0;" horiz-adv-x="663" 
d="M469 770h-80l-139 130h120zM508 0l-44 190h-285l-96 -190h-103l359 700h107l167 -700h-105zM219 270h227l-71 309z" />
    <glyph glyph-name="uni1EA2" unicode="&#x1ea2;" horiz-adv-x="663" 
d="M424 901c-20 0 -37 -13 -45 -38h-55c13 57 57 87 107 87s91 -30 83 -87c-9 -65 -80 -72 -86 -115h-50c9 63 70 70 76 115c3 25 -10 38 -30 38zM446 700l167 -700h-105l-44 190h-285l-96 -190h-103l359 700h107zM219 270h227l-71 309z" />
    <glyph glyph-name="Amacron" unicode="&#x100;" horiz-adv-x="663" 
d="M254 790l10 70h317l-10 -70h-317zM508 0l-44 190h-285l-96 -190h-103l359 700h107l167 -700h-105zM219 270h227l-71 309z" />
    <glyph glyph-name="Aogonek" unicode="&#x104;" horiz-adv-x="663" 
d="M585 0c-57 -27 -100 -67 -107 -117c-4 -27 4 -48 35 -48c16 0 35 5 51 11l-9 -60c-23 -11 -49 -16 -74 -16c-71 0 -98 42 -90 96c7 52 45 97 116 137l-43 187h-285l-96 -190h-103l359 700h107l167 -700h-28zM219 270h227l-71 309z" />
    <glyph glyph-name="Aring" unicode="&#xc5;" horiz-adv-x="663" 
d="M452 676l161 -676h-105l-44 190h-285l-96 -190h-103l345 673c-27 20 -42 54 -36 92c9 61 64 110 125 110s104 -49 95 -110c-5 -37 -27 -69 -57 -89zM349 765c-4 -28 14 -52 43 -52s53 24 57 52s-14 52 -43 52s-53 -24 -57 -52zM219 270h227l-71 309z" />
    <glyph glyph-name="Atilde" unicode="&#xc3;" horiz-adv-x="663" 
d="M349 829c-34 0 -48 -27 -63 -64h-60c23 97 78 134 132 134c79 0 82 -64 130 -64c34 0 48 27 63 64h60c-23 -97 -78 -134 -132 -134c-79 0 -83 64 -130 64zM446 700l167 -700h-105l-44 190h-285l-96 -190h-103l359 700h107zM219 270h227l-71 309z" />
    <glyph glyph-name="AE" unicode="&#xc6;" horiz-adv-x="967" 
d="M955 620h-353l-30 -215h323l-11 -80h-323l-35 -245h363l-11 -80h-458l27 190h-265l-102 -190h-100l380 700h187h419zM225 270h233l49 350h-93z" />
    <glyph glyph-name="AEacute" unicode="&#x1fc;" horiz-adv-x="967" 
d="M773 940l-149 -160h-70l109 160h110zM955 620h-353l-30 -215h323l-11 -80h-323l-35 -245h363l-11 -80h-458l27 190h-265l-102 -190h-100l380 700h187h419zM225 270h233l49 350h-93z" />
    <glyph glyph-name="B" unicode="B" horiz-adv-x="655" 
d="M483 369c71 -22 121 -69 121 -156c0 -139 -127 -213 -269 -213h-286l98 700h255c122 0 213 -53 213 -161c0 -80 -51 -138 -132 -170zM231 620l-30 -215h160c102 0 152 46 152 116c0 67 -47 99 -141 99h-141zM325 80c111 0 175 36 175 133c0 81 -45 112 -149 112h-161
l-35 -245h170z" />
    <glyph glyph-name="C" unicode="C" horiz-adv-x="690" 
d="M350 70c77 0 149 40 190 140h95c-47 -143 -156 -220 -297 -220c-167 0 -272 108 -272 303c0 237 154 417 374 417c142 0 226 -76 235 -220h-95c-13 100 -74 140 -153 140c-148 0 -255 -146 -255 -332c0 -150 70 -228 178 -228z" />
    <glyph glyph-name="Cacute" unicode="&#x106;" horiz-adv-x="690" 
d="M399 770l135 130h120l-175 -130h-80zM350 70c77 0 149 40 190 140h95c-47 -143 -156 -220 -297 -220c-167 0 -272 108 -272 303c0 237 154 417 374 417c142 0 226 -76 235 -220h-95c-13 100 -74 140 -153 140c-148 0 -255 -146 -255 -332c0 -150 70 -228 178 -228z" />
    <glyph glyph-name="Ccaron" unicode="&#x10c;" horiz-adv-x="690" 
d="M464 770h-70l-110 130h110l42 -79l65 79h110zM350 70c77 0 149 40 190 140h95c-47 -143 -156 -220 -297 -220c-167 0 -272 108 -272 303c0 237 154 417 374 417c142 0 226 -76 235 -220h-95c-13 100 -74 140 -153 140c-148 0 -255 -146 -255 -332
c0 -150 70 -228 178 -228z" />
    <glyph glyph-name="Ccedilla" unicode="&#xc7;" horiz-adv-x="690" 
d="M350 70c77 0 149 40 190 140h95c-46 -141 -153 -218 -291 -220l-22 -50c69 13 116 -14 108 -74c-9 -62 -68 -96 -129 -96c-34 0 -53 7 -74 19l7 52c21 -13 40 -21 64 -21c30 0 57 12 61 41c7 51 -65 42 -119 24l50 108c-139 19 -224 124 -224 300c0 237 154 417 374 417
c142 0 226 -76 235 -220h-95c-13 100 -74 140 -153 140c-148 0 -255 -146 -255 -332c0 -150 70 -228 178 -228z" />
    <glyph glyph-name="Cdotaccent" unicode="&#x10a;" horiz-adv-x="690" 
d="M431 770c-29 0 -52 24 -52 53c0 36 34 67 69 67c30 0 52 -25 52 -53c0 -36 -33 -67 -69 -67zM350 70c77 0 149 40 190 140h95c-47 -143 -156 -220 -297 -220c-167 0 -272 108 -272 303c0 237 154 417 374 417c142 0 226 -76 235 -220h-95c-13 100 -74 140 -153 140
c-148 0 -255 -146 -255 -332c0 -150 70 -228 178 -228z" />
    <glyph glyph-name="D" unicode="D" horiz-adv-x="702" 
d="M54 0l98 700h236c167 0 281 -106 281 -300c0 -234 -165 -400 -379 -400h-236zM160 80h131c154 0 272 131 272 315c0 150 -79 225 -196 225h-131z" />
    <glyph glyph-name="Eth" unicode="&#xd0;" horiz-adv-x="702" 
d="M388 700c167 0 281 -106 281 -300c0 -234 -165 -400 -379 -400h-236l45 318h-94l10 70h93l44 312h236zM291 80c154 0 272 131 272 315c0 150 -79 225 -196 225h-131l-33 -232h126l-10 -70h-126l-33 -238h131z" />
    <glyph glyph-name="Dcaron" unicode="&#x10e;" horiz-adv-x="702" 
d="M461 770h-70l-110 130h110l42 -79l65 79h110zM388 700c167 0 281 -106 281 -300c0 -234 -165 -400 -379 -400h-236l98 700h236zM291 80c154 0 272 131 272 315c0 150 -79 225 -196 225h-131l-76 -540h131z" />
    <glyph glyph-name="Dcroat" unicode="&#x110;" horiz-adv-x="702" 
d="M388 700c167 0 281 -106 281 -300c0 -234 -165 -400 -379 -400h-236l45 318h-94l10 70h93l44 312h236zM291 80c154 0 272 131 272 315c0 150 -79 225 -196 225h-131l-33 -232h126l-10 -70h-126l-33 -238h131z" />
    <glyph glyph-name="E" unicode="E" horiz-adv-x="601" 
d="M160 80h363l-11 -80h-458l98 700h448l-11 -80h-353l-30 -215h323l-11 -80h-323z" />
    <glyph glyph-name="Eacute" unicode="&#xc9;" horiz-adv-x="601" 
d="M361 770l135 130h120l-175 -130h-80zM160 80h363l-11 -80h-458l98 700h448l-11 -80h-353l-30 -215h323l-11 -80h-323z" />
    <glyph glyph-name="Ecaron" unicode="&#x11a;" horiz-adv-x="601" 
d="M426 770h-70l-110 130h110l42 -79l65 79h110zM589 620h-353l-30 -215h323l-11 -80h-323l-35 -245h363l-11 -80h-458l98 700h448z" />
    <glyph glyph-name="Ecircumflex" unicode="&#xca;" horiz-adv-x="601" 
d="M402 849l-64 -79h-110l146 130h70l111 -130h-110zM589 620h-353l-30 -215h323l-11 -80h-323l-35 -245h363l-11 -80h-458l98 700h448z" />
    <glyph glyph-name="uni1EBE" unicode="&#x1ebe;" horiz-adv-x="601" 
d="M773 1000l-174 -130h-80l134 130h120zM402 849l-64 -79h-110l146 130h70l111 -130h-110zM54 0l98 700h448l-11 -80h-353l-30 -215h323l-11 -80h-323l-35 -245h363l-11 -80h-458z" />
    <glyph glyph-name="uni1EC6" unicode="&#x1ec6;" horiz-adv-x="601" 
d="M402 849l-64 -79h-110l146 130h70l111 -130h-110zM589 620h-353l-30 -215h323l-11 -80h-323l-35 -245h363l-11 -80h-458l98 700h448zM269 -100c33 0 56 -28 52 -60c-5 -33 -35 -60 -68 -60c-32 0 -57 27 -52 60c4 32 36 60 68 60z" />
    <glyph glyph-name="uni1EC0" unicode="&#x1ec0;" horiz-adv-x="601" 
d="M609 870h-80l-139 130h120zM402 849l-64 -79h-110l146 130h70l111 -130h-110zM54 0l98 700h448l-11 -80h-353l-30 -215h323l-11 -80h-323l-35 -245h363l-11 -80h-458z" />
    <glyph glyph-name="uni1EC2" unicode="&#x1ec2;" horiz-adv-x="601" 
d="M572 1050c50 0 90 -30 82 -87c-9 -65 -80 -72 -86 -115h-50c9 63 70 70 76 115c4 25 -9 38 -29 38s-38 -13 -47 -38h-55c13 57 59 87 109 87zM403 849l-65 -79h-110l147 130h70l110 -130h-110zM54 0l98 700h448l-11 -80h-353l-30 -215h323l-11 -80h-323l-35 -245h363
l-11 -80h-458z" />
    <glyph glyph-name="uni1EC4" unicode="&#x1ec4;" horiz-adv-x="601" 
d="M834 1009h60c-24 -97 -79 -134 -133 -134c-79 0 -83 64 -130 64c-34 0 -48 -27 -63 -64h-60c24 97 79 134 133 134c79 0 82 -64 130 -64c34 0 48 27 63 64zM402 849l-64 -79h-110l146 130h70l111 -130h-110zM54 0l98 700h448l-11 -80h-353l-30 -215h323l-11 -80h-323
l-35 -245h363l-11 -80h-458z" />
    <glyph glyph-name="Edieresis" unicode="&#xcb;" horiz-adv-x="601" 
d="M292 775c-29 0 -49 22 -49 51c0 32 31 64 65 64c29 0 49 -23 49 -50c0 -35 -32 -65 -65 -65zM492 775c-29 0 -49 22 -49 51c0 32 31 64 65 64c29 0 49 -23 49 -50c0 -35 -32 -65 -65 -65zM160 80h363l-11 -80h-458l98 700h448l-11 -80h-353l-30 -215h323l-11 -80h-323z
" />
    <glyph glyph-name="Edotaccent" unicode="&#x116;" horiz-adv-x="601" 
d="M393 770c-29 0 -52 24 -52 53c0 36 34 67 69 67c30 0 52 -25 52 -53c0 -36 -33 -67 -69 -67zM160 80h363l-11 -80h-458l98 700h448l-11 -80h-353l-30 -215h323l-11 -80h-323z" />
    <glyph glyph-name="uni1EB8" unicode="&#x1eb8;" horiz-adv-x="601" 
d="M160 80h363l-11 -80h-458l98 700h448l-11 -80h-353l-30 -215h323l-11 -80h-323zM253 -220c-32 0 -57 27 -52 60c4 32 36 60 68 60c33 0 56 -28 52 -60c-5 -33 -35 -60 -68 -60z" />
    <glyph glyph-name="Egrave" unicode="&#xc8;" horiz-adv-x="601" 
d="M451 770h-80l-139 130h120zM160 80h363l-11 -80h-458l98 700h448l-11 -80h-353l-30 -215h323l-11 -80h-323z" />
    <glyph glyph-name="uni1EBA" unicode="&#x1eba;" horiz-adv-x="601" 
d="M406 901c-20 0 -37 -13 -45 -38h-55c13 57 57 87 107 87s91 -30 83 -87c-9 -65 -80 -72 -86 -115h-50c9 63 70 70 76 115c3 25 -10 38 -30 38zM589 620h-353l-30 -215h323l-11 -80h-323l-35 -245h363l-11 -80h-458l98 700h448z" />
    <glyph glyph-name="Emacron" unicode="&#x112;" horiz-adv-x="601" 
d="M236 790l10 70h317l-10 -70h-317zM160 80h363l-11 -80h-458l98 700h448l-11 -80h-353l-30 -215h323l-11 -80h-323z" />
    <glyph glyph-name="Eogonek" unicode="&#x118;" horiz-adv-x="601" 
d="M589 620h-353l-30 -215h323l-11 -80h-323l-35 -245h363l-11 -80c-57 -27 -100 -67 -107 -117c-4 -27 4 -48 35 -48c16 0 35 5 51 11l-9 -60c-23 -11 -49 -16 -74 -16c-71 0 -98 42 -90 96c6 51 43 95 111 134h-375l98 700h448z" />
    <glyph glyph-name="uni1EBC" unicode="&#x1ebc;" horiz-adv-x="601" 
d="M331 829c-34 0 -48 -27 -63 -64h-60c23 97 78 134 132 134c79 0 82 -64 130 -64c34 0 48 27 63 64h60c-23 -97 -78 -134 -132 -134c-79 0 -83 64 -130 64zM589 620h-353l-30 -215h323l-11 -80h-323l-35 -245h363l-11 -80h-458l98 700h448z" />
    <glyph glyph-name="F" unicode="F" horiz-adv-x="551" 
d="M564 620h-333l-33 -235h323l-11 -80h-323l-43 -305h-95l98 700h428z" />
    <glyph glyph-name="G" unicode="G" horiz-adv-x="730" 
d="M415 290l10 70h233l-51 -360h-73l4 82c-50 -64 -123 -92 -205 -92c-159 0 -262 108 -262 303c0 237 154 417 372 417c144 0 228 -76 237 -220h-95c-13 100 -73 140 -152 140c-149 0 -256 -146 -256 -331c0 -150 69 -229 177 -229c91 0 186 56 209 220h-148z" />
    <glyph glyph-name="Gbreve" unicode="&#x11e;" horiz-adv-x="730" 
d="M445 760c-94 0 -140 57 -136 150h60c7 -51 31 -80 86 -80c56 0 88 29 111 80h60c-24 -93 -86 -150 -181 -150zM415 290l10 70h233l-51 -360h-73l4 82c-50 -64 -123 -92 -205 -92c-159 0 -262 108 -262 303c0 237 154 417 372 417c144 0 228 -76 237 -220h-95
c-13 100 -73 140 -152 140c-149 0 -256 -146 -256 -331c0 -150 69 -229 177 -229c91 0 186 56 209 220h-148z" />
    <glyph glyph-name="Gcommaaccent" unicode="&#x122;" horiz-adv-x="730" 
d="M415 290l10 70h233l-51 -360h-73l4 82c-50 -64 -123 -92 -205 -92c-159 0 -262 108 -262 303c0 237 154 417 372 417c144 0 228 -76 237 -220h-95c-13 100 -73 140 -152 140c-149 0 -256 -146 -256 -331c0 -150 69 -229 177 -229c91 0 186 56 209 220h-148zM236 -257
l68 157h91l-102 -157h-57z" />
    <glyph glyph-name="Gdotaccent" unicode="&#x120;" horiz-adv-x="730" 
d="M449 770c-29 0 -52 24 -52 53c0 36 34 67 69 67c30 0 52 -25 52 -53c0 -36 -33 -67 -69 -67zM415 290l10 70h233l-51 -360h-73l4 82c-50 -64 -123 -92 -205 -92c-159 0 -262 108 -262 303c0 237 154 417 372 417c144 0 228 -76 237 -220h-95c-13 100 -73 140 -152 140
c-149 0 -256 -146 -256 -331c0 -150 69 -229 177 -229c91 0 186 56 209 220h-148z" />
    <glyph glyph-name="H" unicode="H" horiz-adv-x="743" 
d="M627 700h95l-98 -700h-95l46 325h-385l-46 -325h-95l98 700h95l-41 -295h385z" />
    <glyph glyph-name="Hbar" unicode="&#x126;" horiz-adv-x="716" 
d="M763 585l-8 -60h-72l-74 -525h-95l46 325h-385l-46 -325h-95l74 525h-69l8 60h69l16 115h95l-16 -115h385l16 115h95l-16 -115h72zM571 405l17 120h-385l-17 -120h385z" />
    <glyph glyph-name="I" unicode="I" horiz-adv-x="273" 
d="M152 700h95l-98 -700h-95z" />
    <glyph glyph-name="Iacute" unicode="&#xcd;" horiz-adv-x="273" 
d="M180 770l135 130h120l-175 -130h-80zM152 700h95l-98 -700h-95z" />
    <glyph glyph-name="uni01CF" unicode="&#x1cf;" horiz-adv-x="273" 
d="M245 770h-70l-110 130h110l42 -79l65 79h110zM54 0l98 700h95l-98 -700h-95z" />
    <glyph glyph-name="Icircumflex" unicode="&#xce;" horiz-adv-x="273" 
d="M263 900l111 -130h-110l-43 79l-64 -79h-110l146 130h70zM54 0l98 700h95l-98 -700h-95z" />
    <glyph glyph-name="Idieresis" unicode="&#xcf;" horiz-adv-x="273" 
d="M111 775c-29 0 -49 22 -49 51c0 32 31 64 65 64c29 0 49 -23 49 -50c0 -35 -32 -65 -65 -65zM311 775c-29 0 -49 22 -49 51c0 32 31 64 65 64c29 0 49 -23 49 -50c0 -35 -32 -65 -65 -65zM152 700h95l-98 -700h-95z" />
    <glyph glyph-name="Idotaccent" unicode="&#x130;" horiz-adv-x="273" 
d="M212 770c-29 0 -52 24 -52 53c0 36 34 67 69 67c30 0 52 -25 52 -53c0 -36 -33 -67 -69 -67zM152 700h95l-98 -700h-95z" />
    <glyph glyph-name="uni1ECA" unicode="&#x1eca;" horiz-adv-x="273" 
d="M152 700h95l-98 -700h-95zM72 -220c-32 0 -57 27 -52 60c4 32 36 60 68 60c33 0 56 -28 52 -60c-5 -33 -35 -60 -68 -60z" />
    <glyph glyph-name="Igrave" unicode="&#xcc;" horiz-adv-x="273" 
d="M270 770h-80l-139 130h120zM152 700h95l-98 -700h-95z" />
    <glyph glyph-name="uni1EC8" unicode="&#x1ec8;" horiz-adv-x="273" 
d="M232 950c50 0 91 -30 83 -87c-9 -65 -80 -72 -86 -115h-50c9 63 70 70 76 115c3 25 -10 38 -30 38s-37 -13 -45 -38h-55c13 57 57 87 107 87zM54 0l98 700h95l-98 -700h-95z" />
    <glyph glyph-name="Imacron" unicode="&#x12a;" horiz-adv-x="273" 
d="M55 790l10 70h317l-10 -70h-317zM152 700h95l-98 -700h-95z" />
    <glyph glyph-name="Iogonek" unicode="&#x12e;" horiz-adv-x="273" 
d="M152 700h95l-98 -700h-27c-57 -27 -100 -67 -107 -117c-4 -27 4 -48 35 -48c16 0 35 5 51 11l-9 -60c-23 -11 -49 -16 -74 -16c-71 0 -98 42 -90 96c7 55 48 101 127 143z" />
    <glyph glyph-name="Itilde" unicode="&#x128;" horiz-adv-x="273" 
d="M352 899h60c-23 -97 -78 -134 -132 -134c-79 0 -83 64 -130 64c-34 0 -48 -27 -63 -64h-60c23 97 78 134 132 134c79 0 82 -64 130 -64c34 0 48 27 63 64zM54 0l98 700h95l-98 -700h-95z" />
    <glyph glyph-name="J" unicode="J" horiz-adv-x="418" 
d="M302 700h94l-78 -555c-13 -95 -84 -155 -177 -155c-94 0 -144 60 -130 160h90c-8 -55 12 -80 51 -80c38 0 65 25 73 85z" />
    <glyph glyph-name="K" unicode="K" horiz-adv-x="666" 
d="M49 0l98 700h95l-54 -388l402 388h119l-324 -312l246 -388h-114l-208 315l-140 -135l-25 -180h-95z" />
    <glyph glyph-name="Kcommaaccent" unicode="&#x136;" horiz-adv-x="666" 
d="M49 0l98 700h95l-54 -388l402 388h119l-324 -312l246 -388h-114l-208 315l-140 -135l-25 -180h-95zM186 -257l68 157h91l-102 -157h-57z" />
    <glyph glyph-name="L" unicode="L" horiz-adv-x="548" 
d="M155 80h349l-11 -80h-444l98 700h95z" />
    <glyph glyph-name="Lacute" unicode="&#x139;" horiz-adv-x="548" 
d="M174 780l109 160h110l-149 -160h-70zM155 80h349l-11 -80h-444l98 700h95z" />
    <glyph glyph-name="Lcaron" unicode="&#x13d;" horiz-adv-x="548" 
d="M427 560l25 180h90l-55 -180h-60zM155 80h349l-11 -80h-444l98 700h95z" />
    <glyph glyph-name="Lcommaaccent" unicode="&#x13b;" horiz-adv-x="548" 
d="M155 80h349l-11 -80h-444l98 700h95zM162 -257l68 157h91l-102 -157h-57z" />
    <glyph glyph-name="Lslash" unicode="&#x141;" horiz-adv-x="593" 
d="M200 80h349l-11 -80h-444l34 243l-127 -73l13 90l127 72l51 368h95l-43 -308l224 128l-13 -90l-224 -128z" />
    <glyph glyph-name="M" unicode="M" horiz-adv-x="852" 
d="M755 700h81l-98 -700h-95l66 470l-289 -404h-40l-174 404l-67 -470h-95l98 700h81l198 -482z" />
    <glyph glyph-name="N" unicode="N" horiz-adv-x="753" 
d="M637 700h95l-98 -700h-75l-340 535l-75 -535h-95l98 700h75l340 -535z" />
    <glyph glyph-name="Nacute" unicode="&#x143;" horiz-adv-x="753" 
d="M421 770l135 130h120l-175 -130h-80zM637 700h95l-98 -700h-75l-340 535l-75 -535h-95l98 700h75l340 -535z" />
    <glyph glyph-name="Ncaron" unicode="&#x147;" horiz-adv-x="753" 
d="M486 770h-70l-110 130h110l42 -79l65 79h110zM637 700h95l-98 -700h-75l-340 535l-75 -535h-95l98 700h75l340 -535z" />
    <glyph glyph-name="Ncommaaccent" unicode="&#x145;" horiz-adv-x="753" 
d="M637 700h95l-98 -700h-75l-340 535l-75 -535h-95l98 700h75l340 -535zM240 -257l68 157h91l-102 -157h-57z" />
    <glyph glyph-name="Eng" unicode="&#x14a;" horiz-adv-x="753" 
d="M732 700l-106 -755c-14 -105 -87 -175 -229 -175l11 80c87 0 115 35 125 105l10 71l-324 509l-75 -535h-95l98 700h75l340 -535l75 535h95z" />
    <glyph glyph-name="Ntilde" unicode="&#xd1;" horiz-adv-x="753" 
d="M391 829c-34 0 -48 -27 -63 -64h-60c23 97 78 134 132 134c79 0 82 -64 130 -64c34 0 48 27 63 64h60c-23 -97 -78 -134 -132 -134c-79 0 -83 64 -130 64zM637 700h95l-98 -700h-75l-340 535l-75 -535h-95l98 700h75l340 -535z" />
    <glyph glyph-name="O" unicode="O" horiz-adv-x="737" 
d="M432 710c167 0 273 -108 273 -301c0 -239 -154 -419 -371 -419c-168 0 -273 109 -273 302c0 237 154 418 371 418zM344 70c147 0 256 147 256 333c0 149 -72 227 -179 227c-147 0 -255 -147 -255 -333c0 -149 71 -227 178 -227z" />
    <glyph glyph-name="Oacute" unicode="&#xd3;" horiz-adv-x="737" 
d="M412 770l135 130h120l-175 -130h-80zM432 710c167 0 273 -108 273 -301c0 -239 -154 -419 -371 -419c-168 0 -273 109 -273 302c0 237 154 418 371 418zM344 70c147 0 256 147 256 333c0 149 -72 227 -179 227c-147 0 -255 -147 -255 -333c0 -149 71 -227 178 -227z" />
    <glyph glyph-name="uni01D1" unicode="&#x1d1;" horiz-adv-x="737" 
d="M477 770h-70l-110 130h110l42 -79l65 79h110zM432 710c167 0 273 -108 273 -301c0 -239 -154 -419 -371 -419c-168 0 -273 109 -273 302c0 237 154 418 371 418zM344 70c147 0 256 147 256 333c0 149 -72 227 -179 227c-147 0 -255 -147 -255 -333
c0 -149 71 -227 178 -227z" />
    <glyph glyph-name="Ocircumflex" unicode="&#xd4;" horiz-adv-x="737" 
d="M453 849l-64 -79h-110l146 130h70l111 -130h-110zM432 710c167 0 273 -108 273 -301c0 -239 -154 -419 -371 -419c-168 0 -273 109 -273 302c0 237 154 418 371 418zM344 70c147 0 256 147 256 333c0 149 -72 227 -179 227c-147 0 -255 -147 -255 -333
c0 -149 71 -227 178 -227z" />
    <glyph glyph-name="uni1ED0" unicode="&#x1ed0;" horiz-adv-x="737" 
d="M803 1050l-150 -160h-70l110 160h110zM458 883l-78 -103h-100l151 160h70l106 -160h-100zM432 710c167 0 273 -108 273 -301c0 -239 -154 -419 -371 -419c-168 0 -273 109 -273 302c0 237 154 418 371 418zM344 70c147 0 256 147 256 333c0 149 -72 227 -179 227
c-147 0 -255 -147 -255 -333c0 -149 71 -227 178 -227z" />
    <glyph glyph-name="uni1ED8" unicode="&#x1ed8;" horiz-adv-x="737" 
d="M457 883l-77 -103h-100l150 160h70l107 -160h-100zM432 710c167 0 273 -108 273 -301c0 -239 -154 -419 -371 -419c-168 0 -273 109 -273 302c0 237 154 418 371 418zM344 70c147 0 256 147 256 333c0 149 -72 227 -179 227c-147 0 -255 -147 -255 -333
c0 -149 71 -227 178 -227zM320 -100c33 0 56 -28 52 -60c-5 -33 -35 -60 -68 -60c-32 0 -57 27 -52 60c4 32 36 60 68 60z" />
    <glyph glyph-name="uni1ED2" unicode="&#x1ed2;" horiz-adv-x="737" 
d="M673 890h-70l-103 160h110zM458 883l-78 -103h-100l151 160h70l106 -160h-100zM432 710c167 0 273 -108 273 -301c0 -239 -154 -419 -371 -419c-168 0 -273 109 -273 302c0 237 154 418 371 418zM344 70c147 0 256 147 256 333c0 149 -72 227 -179 227
c-147 0 -255 -147 -255 -333c0 -149 71 -227 178 -227z" />
    <glyph glyph-name="uni1ED4" unicode="&#x1ed4;" horiz-adv-x="737" 
d="M635 1060c50 0 91 -30 83 -87c-9 -65 -81 -72 -87 -115h-50c9 63 71 70 77 115c4 25 -10 38 -30 38s-37 -13 -46 -38h-55c13 57 58 87 108 87zM458 883l-78 -103h-100l151 160h70l106 -160h-100zM432 710c167 0 273 -108 273 -301c0 -239 -154 -419 -371 -419
c-168 0 -273 109 -273 302c0 237 154 418 371 418zM344 70c147 0 256 147 256 333c0 149 -72 227 -179 227c-147 0 -255 -147 -255 -333c0 -149 71 -227 178 -227z" />
    <glyph glyph-name="uni1ED6" unicode="&#x1ed6;" horiz-adv-x="737" 
d="M888 1039h60c-23 -97 -79 -134 -133 -134c-79 0 -83 64 -130 64c-34 0 -47 -27 -63 -64h-60c24 97 79 134 133 134c79 0 82 -64 130 -64c34 0 48 27 63 64zM457 883l-77 -103h-100l150 160h70l107 -160h-100zM432 710c167 0 273 -108 273 -301
c0 -239 -154 -419 -371 -419c-168 0 -273 109 -273 302c0 237 154 418 371 418zM344 70c147 0 256 147 256 333c0 149 -72 227 -179 227c-147 0 -255 -147 -255 -333c0 -149 71 -227 178 -227z" />
    <glyph glyph-name="Odieresis" unicode="&#xd6;" horiz-adv-x="737" 
d="M343 775c-29 0 -49 22 -49 51c0 32 31 64 65 64c29 0 49 -23 49 -50c0 -35 -32 -65 -65 -65zM543 775c-29 0 -49 22 -49 51c0 32 31 64 65 64c29 0 49 -23 49 -50c0 -35 -32 -65 -65 -65zM432 710c167 0 273 -108 273 -301c0 -239 -154 -419 -371 -419
c-168 0 -273 109 -273 302c0 237 154 418 371 418zM344 70c147 0 256 147 256 333c0 149 -72 227 -179 227c-147 0 -255 -147 -255 -333c0 -149 71 -227 178 -227z" />
    <glyph glyph-name="uni1ECC" unicode="&#x1ecc;" horiz-adv-x="737" 
d="M432 710c167 0 273 -108 273 -301c0 -239 -154 -419 -371 -419c-168 0 -273 109 -273 302c0 237 154 418 371 418zM344 70c147 0 256 147 256 333c0 149 -72 227 -179 227c-147 0 -255 -147 -255 -333c0 -149 71 -227 178 -227zM304 -220c-32 0 -57 27 -52 60
c4 32 36 60 68 60c33 0 56 -28 52 -60c-5 -33 -35 -60 -68 -60z" />
    <glyph glyph-name="Ograve" unicode="&#xd2;" horiz-adv-x="737" 
d="M502 770h-80l-139 130h120zM432 710c167 0 273 -108 273 -301c0 -239 -154 -419 -371 -419c-168 0 -273 109 -273 302c0 237 154 418 371 418zM344 70c147 0 256 147 256 333c0 149 -72 227 -179 227c-147 0 -255 -147 -255 -333c0 -149 71 -227 178 -227z" />
    <glyph glyph-name="uni1ECE" unicode="&#x1ece;" horiz-adv-x="737" 
d="M457 901c-20 0 -37 -13 -45 -38h-55c13 57 57 87 107 87s91 -30 83 -87c-9 -65 -80 -72 -86 -115h-50c9 63 70 70 76 115c3 25 -10 38 -30 38zM432 710c167 0 273 -108 273 -301c0 -239 -154 -419 -371 -419c-168 0 -273 109 -273 302c0 237 154 418 371 418zM344 70
c147 0 256 147 256 333c0 149 -72 227 -179 227c-147 0 -255 -147 -255 -333c0 -149 71 -227 178 -227z" />
    <glyph glyph-name="Ohorn" unicode="&#x1a0;" horiz-adv-x="737" 
d="M724 700h90c-1 -10 -1 -20 -3 -30c-9 -66 -57 -123 -120 -150c9 -33 14 -70 14 -111c0 -239 -154 -419 -371 -419c-168 0 -273 109 -273 302c0 237 154 418 371 418c108 0 190 -45 235 -128c31 15 49 48 54 88c2 10 2 20 3 30zM344 70c147 0 256 147 256 333
c0 149 -72 227 -179 227c-147 0 -255 -147 -255 -333c0 -149 71 -227 178 -227z" />
    <glyph glyph-name="uni1EDA" unicode="&#x1eda;" horiz-adv-x="737" 
d="M667 900l-175 -130h-80l135 130h120zM724 700h90c-1 -10 -1 -20 -3 -30c-9 -66 -57 -123 -120 -150c9 -33 14 -70 14 -111c0 -239 -154 -419 -371 -419c-168 0 -273 109 -273 302c0 237 154 418 371 418c108 0 190 -45 235 -128c31 15 49 48 54 88c2 10 2 20 3 30z
M344 70c147 0 256 147 256 333c0 149 -72 227 -179 227c-147 0 -255 -147 -255 -333c0 -149 71 -227 178 -227z" />
    <glyph glyph-name="uni1EE2" unicode="&#x1ee2;" horiz-adv-x="737" 
d="M724 700h90c-1 -10 -1 -20 -3 -30c-9 -66 -57 -123 -120 -150c9 -33 14 -70 14 -111c0 -239 -154 -419 -371 -419c-168 0 -273 109 -273 302c0 237 154 418 371 418c108 0 190 -45 235 -128c31 15 49 48 54 88c2 10 2 20 3 30zM344 70c147 0 256 147 256 333
c0 149 -72 227 -179 227c-147 0 -255 -147 -255 -333c0 -149 71 -227 178 -227zM320 -100c33 0 56 -28 52 -60c-5 -33 -35 -60 -68 -60c-32 0 -57 27 -52 60c4 32 36 60 68 60z" />
    <glyph glyph-name="uni1EDC" unicode="&#x1edc;" horiz-adv-x="737" 
d="M502 770h-80l-139 130h120zM724 700h90c-1 -10 -1 -20 -3 -30c-9 -66 -57 -123 -120 -150c9 -33 14 -70 14 -111c0 -239 -154 -419 -371 -419c-168 0 -273 109 -273 302c0 237 154 418 371 418c108 0 190 -45 235 -128c31 15 49 48 54 88c2 10 2 20 3 30zM344 70
c147 0 256 147 256 333c0 149 -72 227 -179 227c-147 0 -255 -147 -255 -333c0 -149 71 -227 178 -227z" />
    <glyph glyph-name="uni1EDE" unicode="&#x1ede;" horiz-adv-x="737" 
d="M457 901c-20 0 -37 -13 -45 -38h-55c13 57 57 87 107 87s91 -30 83 -87c-9 -65 -80 -72 -86 -115h-50c9 63 70 70 76 115c3 25 -10 38 -30 38zM724 700h90c-1 -10 -1 -20 -3 -30c-9 -66 -57 -123 -120 -150c9 -33 14 -70 14 -111c0 -239 -154 -419 -371 -419
c-168 0 -273 109 -273 302c0 237 154 418 371 418c108 0 190 -45 235 -128c31 15 49 48 54 88c2 10 2 20 3 30zM344 70c147 0 256 147 256 333c0 149 -72 227 -179 227c-147 0 -255 -147 -255 -333c0 -149 71 -227 178 -227z" />
    <glyph glyph-name="uni1EE0" unicode="&#x1ee0;" horiz-adv-x="737" 
d="M382 829c-34 0 -48 -27 -63 -64h-60c23 97 78 134 132 134c79 0 82 -64 130 -64c34 0 48 27 63 64h60c-23 -97 -78 -134 -132 -134c-79 0 -83 64 -130 64zM724 700h90c-1 -10 -1 -20 -3 -30c-9 -66 -57 -123 -120 -150c9 -33 14 -70 14 -111c0 -239 -154 -419 -371 -419
c-168 0 -273 109 -273 302c0 237 154 418 371 418c108 0 190 -45 235 -128c31 15 49 48 54 88c2 10 2 20 3 30zM344 70c147 0 256 147 256 333c0 149 -72 227 -179 227c-147 0 -255 -147 -255 -333c0 -149 71 -227 178 -227z" />
    <glyph glyph-name="Ohungarumlaut" unicode="&#x150;" horiz-adv-x="737" 
d="M283 770l135 130h120l-175 -130h-80zM450 770l134 130h120l-174 -130h-80zM432 710c167 0 273 -108 273 -301c0 -239 -154 -419 -371 -419c-168 0 -273 109 -273 302c0 237 154 418 371 418zM344 70c147 0 256 147 256 333c0 149 -72 227 -179 227
c-147 0 -255 -147 -255 -333c0 -149 71 -227 178 -227z" />
    <glyph glyph-name="Omacron" unicode="&#x14c;" horiz-adv-x="737" 
d="M287 790l10 70h317l-10 -70h-317zM432 710c167 0 273 -108 273 -301c0 -239 -154 -419 -371 -419c-168 0 -273 109 -273 302c0 237 154 418 371 418zM344 70c147 0 256 147 256 333c0 149 -72 227 -179 227c-147 0 -255 -147 -255 -333c0 -149 71 -227 178 -227z" />
    <glyph glyph-name="Oslash" unicode="&#xd8;" horiz-adv-x="735" 
d="M632 629c46 -51 72 -124 72 -215c0 -247 -154 -424 -372 -424c-74 0 -136 22 -182 63l-52 -63l-43 33l59 70c-35 50 -54 115 -54 194c0 246 154 423 373 423c62 0 116 -16 159 -45l45 54l44 -32zM161 293c0 -46 7 -85 21 -118l350 418c-30 24 -67 37 -111 37
c-154 0 -260 -143 -260 -337zM343 70c153 0 261 143 261 337c0 60 -13 109 -36 145l-356 -426c32 -36 77 -56 131 -56z" />
    <glyph glyph-name="Otilde" unicode="&#xd5;" horiz-adv-x="737" 
d="M382 829c-34 0 -48 -27 -63 -64h-60c23 97 78 134 132 134c79 0 82 -64 130 -64c34 0 48 27 63 64h60c-23 -97 -78 -134 -132 -134c-79 0 -83 64 -130 64zM432 710c167 0 273 -108 273 -301c0 -239 -154 -419 -371 -419c-168 0 -273 109 -273 302c0 237 154 418 371 418z
M344 70c147 0 256 147 256 333c0 149 -72 227 -179 227c-147 0 -255 -147 -255 -333c0 -149 71 -227 178 -227z" />
    <glyph glyph-name="OE" unicode="&#x152;" horiz-adv-x="1084" 
d="M1072 620h-353l-30 -215h323l-11 -80h-323l-35 -245h363l-11 -80h-458l13 94c-54 -64 -130 -104 -227 -104c-159 0 -264 106 -264 295c0 221 145 425 371 425c95 0 157 -35 192 -102l13 92h448zM341 70c163 0 249 179 249 343c0 141 -63 217 -170 217
c-162 0 -255 -174 -255 -340c0 -145 70 -220 176 -220z" />
    <glyph glyph-name="P" unicode="P" horiz-adv-x="603" 
d="M389 700c119 0 219 -59 219 -186c0 -162 -133 -244 -278 -244h-143l-38 -270h-95l98 700h237zM320 350c115 0 187 50 187 157c0 81 -56 113 -148 113h-123l-38 -270h122z" />
    <glyph glyph-name="Thorn" unicode="&#xde;" horiz-adv-x="632" 
d="M384 590c118 0 216 -58 216 -196c0 -152 -119 -264 -280 -264h-158l-18 -130h-95l98 700h95l-15 -110h157zM311 210c122 0 188 71 188 174c0 91 -52 126 -146 126h-138l-42 -300h138z" />
    <glyph glyph-name="Q" unicode="Q" horiz-adv-x="737" 
d="M464 14c10 -88 72 -109 154 -109l-12 -85c-132 0 -215 64 -230 172c-14 -1 -28 -2 -42 -2c-168 0 -273 109 -273 302c0 237 154 418 371 418c167 0 273 -108 273 -301c0 -188 -95 -339 -241 -395zM166 297c0 -149 71 -227 178 -227c147 0 256 147 256 333
c0 149 -72 227 -179 227c-147 0 -255 -147 -255 -333z" />
    <glyph glyph-name="R" unicode="R" horiz-adv-x="630" 
d="M414 313c24 -16 43 -41 58 -73l113 -240h-110l-99 210c-31 65 -57 80 -143 80h-43l-41 -290h-95l98 700h95h136c116 0 216 -53 216 -172c0 -116 -77 -187 -185 -215zM317 370c112 0 182 49 182 148c0 75 -58 102 -147 102h-116l-35 -250h116z" />
    <glyph glyph-name="Racute" unicode="&#x154;" horiz-adv-x="630" 
d="M583 900l-175 -130h-80l135 130h120zM414 313c24 -16 43 -41 58 -73l113 -240h-110l-99 210c-31 65 -57 80 -143 80h-43l-41 -290h-95l98 700h95h136c116 0 216 -53 216 -172c0 -116 -77 -187 -185 -215zM317 370c112 0 182 49 182 148c0 75 -58 102 -147 102h-116
l-35 -250h116z" />
    <glyph glyph-name="Rcaron" unicode="&#x158;" horiz-adv-x="630" 
d="M393 770h-70l-110 130h110l42 -79l65 79h110zM414 313c24 -16 43 -41 58 -73l113 -240h-110l-99 210c-31 65 -57 80 -143 80h-43l-41 -290h-95l98 700h95h136c116 0 216 -53 216 -172c0 -116 -77 -187 -185 -215zM317 370c112 0 182 49 182 148c0 75 -58 102 -147 102
h-116l-35 -250h116z" />
    <glyph glyph-name="Rcommaaccent" unicode="&#x156;" horiz-adv-x="630" 
d="M414 313c24 -16 43 -41 58 -73l113 -240h-110l-99 210c-31 65 -57 80 -143 80h-43l-41 -290h-95l98 700h95h136c116 0 216 -53 216 -172c0 -116 -77 -187 -185 -215zM317 370c112 0 182 49 182 148c0 75 -58 102 -147 102h-116l-35 -250h116zM197 -257l68 157h91
l-102 -157h-57z" />
    <glyph glyph-name="S" unicode="S" horiz-adv-x="610" 
d="M269 -10c-133 0 -228 57 -223 200h95c1 -92 61 -120 137 -120c97 0 163 46 163 117c0 161 -332 89 -332 311c0 143 120 212 259 212c135 0 216 -73 214 -190h-95c-4 66 -46 110 -127 110c-90 0 -149 -45 -149 -120c0 -153 337 -71 337 -300c0 -135 -116 -220 -279 -220z
" />
    <glyph glyph-name="Sacute" unicode="&#x15a;" horiz-adv-x="610" 
d="M348 770l135 130h120l-175 -130h-80zM269 -10c-133 0 -228 57 -223 200h95c1 -92 61 -120 137 -120c97 0 163 46 163 117c0 161 -332 89 -332 311c0 143 120 212 259 212c135 0 216 -73 214 -190h-95c-4 66 -46 110 -127 110c-90 0 -149 -45 -149 -120
c0 -153 337 -71 337 -300c0 -135 -116 -220 -279 -220z" />
    <glyph glyph-name="Scaron" unicode="&#x160;" horiz-adv-x="610" 
d="M413 770h-70l-110 130h110l42 -79l65 79h110zM360 630c-90 0 -149 -45 -149 -120c0 -153 337 -71 337 -300c0 -135 -116 -220 -279 -220c-133 0 -228 57 -223 200h95c1 -92 61 -120 137 -120c97 0 163 46 163 117c0 161 -332 89 -332 311c0 143 120 212 259 212
c135 0 216 -73 214 -190h-95c-4 66 -46 110 -127 110z" />
    <glyph glyph-name="Scedilla" unicode="&#x15e;" horiz-adv-x="610" 
d="M360 630c-90 0 -149 -45 -149 -120c0 -153 337 -71 337 -300c0 -126 -102 -209 -248 -219l-23 -51c69 13 116 -14 108 -74c-9 -62 -68 -96 -129 -96c-34 0 -53 7 -74 19l7 52c21 -13 40 -21 64 -21c30 0 57 12 61 41c7 51 -65 42 -119 24l49 106c-120 7 -203 65 -198 199
h95c1 -92 61 -120 137 -120c97 0 163 46 163 117c0 161 -332 89 -332 311c0 143 120 212 259 212c135 0 216 -73 214 -190h-95c-4 66 -46 110 -127 110z" />
    <glyph glyph-name="Scommaaccent" unicode="&#x218;" horiz-adv-x="610" 
d="M269 -10c-133 0 -228 57 -223 200h95c1 -92 61 -120 137 -120c97 0 163 46 163 117c0 161 -332 89 -332 311c0 143 120 212 259 212c135 0 216 -73 214 -190h-95c-4 66 -46 110 -127 110c-90 0 -149 -45 -149 -120c0 -153 337 -71 337 -300c0 -135 -116 -220 -279 -220z
M175 -257l68 157h91l-102 -157h-57z" />
    <glyph glyph-name="uni018F" unicode="&#x18f;" horiz-adv-x="724" 
d="M420 710c168 0 272 -112 272 -304c0 -236 -157 -416 -372 -416c-167 0 -263 108 -263 282c0 26 2 51 6 78h530c2 16 3 33 3 50c0 149 -70 230 -189 230c-83 0 -178 -39 -217 -140h-87c46 145 179 220 317 220zM332 70c117 0 207 81 245 200h-424c3 -126 66 -200 179 -200
z" />
    <glyph glyph-name="T" unicode="T" horiz-adv-x="575" 
d="M623 700l-11 -80h-225l-87 -620h-95l87 620h-225l11 80h545z" />
    <glyph glyph-name="Tbar" unicode="&#x166;" horiz-adv-x="575" 
d="M612 620h-225l-33 -232h110l-10 -70h-109l-45 -318h-95l45 318h-110l10 70h109l33 232h-225l11 80h545z" />
    <glyph glyph-name="Tcaron" unicode="&#x164;" horiz-adv-x="575" 
d="M396 770h-70l-110 130h110l42 -79l65 79h110zM78 700h545l-11 -80h-225l-87 -620h-95l87 620h-225z" />
    <glyph glyph-name="uni0162" unicode="&#x162;" horiz-adv-x="575" 
d="M78 700h545l-11 -80h-225l-87 -620h-21l-27 -60c69 13 116 -14 108 -74c-9 -62 -68 -96 -129 -96c-34 0 -53 7 -74 19l7 52c21 -13 40 -21 64 -21c30 0 57 12 61 41c7 51 -65 42 -119 24l53 115h-18l87 620h-225z" />
    <glyph glyph-name="uni021A" unicode="&#x21a;" horiz-adv-x="575" 
d="M623 700l-11 -80h-225l-87 -620h-95l87 620h-225l11 80h545zM150 -257l68 157h91l-102 -157h-57z" />
    <glyph glyph-name="U" unicode="U" horiz-adv-x="715" 
d="M600 700h94l-61 -435c-22 -158 -138 -275 -311 -275c-174 0 -258 118 -235 276l60 434h96l-60 -425c-17 -119 31 -205 149 -205s191 87 208 206z" />
    <glyph glyph-name="Uacute" unicode="&#xda;" horiz-adv-x="715" 
d="M401 770l135 130h120l-175 -130h-80zM600 700h94l-61 -435c-22 -158 -138 -275 -311 -275c-174 0 -258 118 -235 276l60 434h96l-60 -425c-17 -119 31 -205 149 -205s191 87 208 206z" />
    <glyph glyph-name="uni01D3" unicode="&#x1d3;" horiz-adv-x="715" 
d="M466 770h-70l-110 130h110l42 -79l65 79h110zM600 700h94l-61 -435c-22 -158 -138 -275 -311 -275c-174 0 -258 118 -235 276l60 434h96l-60 -425c-17 -119 31 -205 149 -205s191 87 208 206z" />
    <glyph glyph-name="Ucircumflex" unicode="&#xdb;" horiz-adv-x="715" 
d="M442 849l-64 -79h-110l146 130h70l111 -130h-110zM600 700h94l-61 -435c-22 -158 -138 -275 -311 -275c-174 0 -258 118 -235 276l60 434h96l-60 -425c-17 -119 31 -205 149 -205s191 87 208 206z" />
    <glyph glyph-name="Udieresis" unicode="&#xdc;" horiz-adv-x="715" 
d="M332 775c-29 0 -49 22 -49 51c0 32 31 64 65 64c29 0 49 -23 49 -50c0 -35 -32 -65 -65 -65zM532 775c-29 0 -49 22 -49 51c0 32 31 64 65 64c29 0 49 -23 49 -50c0 -35 -32 -65 -65 -65zM600 700h94l-61 -435c-22 -158 -138 -275 -311 -275c-174 0 -258 118 -235 276
l60 434h96l-60 -425c-17 -119 31 -205 149 -205s191 87 208 206z" />
    <glyph glyph-name="uni01D7" unicode="&#x1d7;" horiz-adv-x="715" 
d="M422 920l135 130h120l-175 -130h-80zM332 775c-29 0 -49 22 -49 51c0 32 31 64 65 64c29 0 49 -23 49 -50c0 -35 -32 -65 -65 -65zM532 775c-29 0 -49 22 -49 51c0 32 31 64 65 64c29 0 49 -23 49 -50c0 -35 -32 -65 -65 -65zM600 700h94l-61 -435
c-22 -158 -138 -275 -311 -275c-174 0 -258 118 -235 276l60 434h96l-60 -425c-17 -119 31 -205 149 -205s191 87 208 206z" />
    <glyph glyph-name="uni01D9" unicode="&#x1d9;" horiz-adv-x="715" 
d="M487 920h-70l-110 130h110l42 -79l65 79h110zM332 775c-29 0 -49 22 -49 51c0 32 31 64 65 64c29 0 49 -23 49 -50c0 -35 -32 -65 -65 -65zM483 826c0 32 31 64 65 64c29 0 49 -23 49 -50c0 -35 -32 -65 -65 -65c-29 0 -49 22 -49 51zM600 700h94l-61 -435
c-22 -158 -138 -275 -311 -275c-174 0 -258 118 -235 276l60 434h96l-60 -425c-17 -119 31 -205 149 -205s191 87 208 206z" />
    <glyph glyph-name="uni01DB" unicode="&#x1db;" horiz-adv-x="715" 
d="M512 920h-80l-139 130h120zM332 775c-29 0 -49 22 -49 51c0 32 31 64 65 64c29 0 49 -23 49 -50c0 -35 -32 -65 -65 -65zM532 775c-29 0 -49 22 -49 51c0 32 31 64 65 64c29 0 49 -23 49 -50c0 -35 -32 -65 -65 -65zM600 700h94l-61 -435c-22 -158 -138 -275 -311 -275
c-174 0 -258 118 -235 276l60 434h96l-60 -425c-17 -119 31 -205 149 -205s191 87 208 206z" />
    <glyph glyph-name="uni01D5" unicode="&#x1d5;" horiz-adv-x="715" 
d="M297 940l10 70h317l-10 -70h-317zM332 775c-29 0 -49 22 -49 51c0 32 31 64 65 64c29 0 49 -23 49 -50c0 -35 -32 -65 -65 -65zM532 775c-29 0 -49 22 -49 51c0 32 31 64 65 64c29 0 49 -23 49 -50c0 -35 -32 -65 -65 -65zM600 700h94l-61 -435
c-22 -158 -138 -275 -311 -275c-174 0 -258 118 -235 276l60 434h96l-60 -425c-17 -119 31 -205 149 -205s191 87 208 206z" />
    <glyph glyph-name="uni1EE4" unicode="&#x1ee4;" horiz-adv-x="715" 
d="M600 700h94l-61 -435c-22 -158 -138 -275 -311 -275c-174 0 -258 118 -235 276l60 434h96l-60 -425c-17 -119 31 -205 149 -205s191 87 208 206zM293 -220c-32 0 -57 27 -52 60c4 32 36 60 68 60c33 0 56 -28 52 -60c-5 -33 -35 -60 -68 -60z" />
    <glyph glyph-name="Ugrave" unicode="&#xd9;" horiz-adv-x="715" 
d="M491 770h-80l-139 130h120zM600 700h94l-61 -435c-22 -158 -138 -275 -311 -275c-174 0 -258 118 -235 276l60 434h96l-60 -425c-17 -119 31 -205 149 -205s191 87 208 206z" />
    <glyph glyph-name="uni1EE6" unicode="&#x1ee6;" horiz-adv-x="715" 
d="M446 901c-20 0 -37 -13 -45 -38h-55c13 57 57 87 107 87s91 -30 83 -87c-9 -65 -80 -72 -86 -115h-50c9 63 70 70 76 115c3 25 -10 38 -30 38zM600 700h94l-61 -435c-22 -158 -138 -275 -311 -275c-174 0 -258 118 -235 276l60 434h96l-60 -425
c-17 -119 31 -205 149 -205s191 87 208 206z" />
    <glyph glyph-name="Uhorn" unicode="&#x1af;" horiz-adv-x="803" 
d="M771 700h90c-1 -10 -1 -20 -3 -30c-12 -89 -96 -163 -191 -165l-34 -240c-22 -158 -138 -275 -311 -275c-174 0 -258 118 -235 276l60 434h96l-60 -425c-17 -119 31 -205 149 -205s191 87 208 206l60 424h94l-18 -127c55 2 85 43 92 97c2 10 2 20 3 30z" />
    <glyph glyph-name="uni1EE8" unicode="&#x1ee8;" horiz-adv-x="803" 
d="M656 900l-175 -130h-80l135 130h120zM771 700h90c-1 -10 -1 -20 -3 -30c-12 -89 -96 -163 -191 -165l-34 -240c-22 -158 -138 -275 -311 -275c-174 0 -258 118 -235 276l60 434h96l-60 -425c-17 -119 31 -205 149 -205s191 87 208 206l60 424h94l-18 -127
c55 2 85 43 92 97c2 10 2 20 3 30z" />
    <glyph glyph-name="uni1EF0" unicode="&#x1ef0;" horiz-adv-x="803" 
d="M771 700h90c-1 -10 -1 -20 -3 -30c-12 -89 -96 -163 -191 -165l-34 -240c-22 -158 -138 -275 -311 -275c-174 0 -258 118 -235 276l60 434h96l-60 -425c-17 -119 31 -205 149 -205s191 87 208 206l60 424h94l-18 -127c55 2 85 43 92 97c2 10 2 20 3 30zM309 -100
c33 0 56 -28 52 -60c-5 -33 -35 -60 -68 -60c-32 0 -57 27 -52 60c4 32 36 60 68 60z" />
    <glyph glyph-name="uni1EEA" unicode="&#x1eea;" horiz-adv-x="803" 
d="M491 770h-80l-139 130h120zM771 700h90c-1 -10 -1 -20 -3 -30c-12 -89 -96 -163 -191 -165l-34 -240c-22 -158 -138 -275 -311 -275c-174 0 -258 118 -235 276l60 434h96l-60 -425c-17 -119 31 -205 149 -205s191 87 208 206l60 424h94l-18 -127c55 2 85 43 92 97
c2 10 2 20 3 30z" />
    <glyph glyph-name="uni1EEC" unicode="&#x1eec;" horiz-adv-x="803" 
d="M446 901c-20 0 -37 -13 -45 -38h-55c13 57 57 87 107 87s91 -30 83 -87c-9 -65 -80 -72 -86 -115h-50c9 63 70 70 76 115c3 25 -10 38 -30 38zM771 700h90c-1 -10 -1 -20 -3 -30c-12 -89 -96 -163 -191 -165l-34 -240c-22 -158 -138 -275 -311 -275
c-174 0 -258 118 -235 276l60 434h96l-60 -425c-17 -119 31 -205 149 -205s191 87 208 206l60 424h94l-18 -127c55 2 85 43 92 97c2 10 2 20 3 30z" />
    <glyph glyph-name="uni1EEE" unicode="&#x1eee;" horiz-adv-x="803" 
d="M371 829c-34 0 -48 -27 -63 -64h-60c23 97 78 134 132 134c79 0 82 -64 130 -64c34 0 48 27 63 64h60c-23 -97 -78 -134 -132 -134c-79 0 -83 64 -130 64zM771 700h90c-1 -10 -1 -20 -3 -30c-12 -89 -96 -163 -191 -165l-34 -240c-22 -158 -138 -275 -311 -275
c-174 0 -258 118 -235 276l60 434h96l-60 -425c-17 -119 31 -205 149 -205s191 87 208 206l60 424h94l-18 -127c55 2 85 43 92 97c2 10 2 20 3 30z" />
    <glyph glyph-name="Uhungarumlaut" unicode="&#x170;" horiz-adv-x="715" 
d="M272 770l135 130h120l-175 -130h-80zM439 770l134 130h120l-174 -130h-80zM600 700h94l-61 -435c-22 -158 -138 -275 -311 -275c-174 0 -258 118 -235 276l60 434h96l-60 -425c-17 -119 31 -205 149 -205s191 87 208 206z" />
    <glyph glyph-name="Umacron" unicode="&#x16a;" horiz-adv-x="715" 
d="M276 790l10 70h317l-10 -70h-317zM600 700h94l-61 -435c-22 -158 -138 -275 -311 -275c-174 0 -258 118 -235 276l60 434h96l-60 -425c-17 -119 31 -205 149 -205s191 87 208 206z" />
    <glyph glyph-name="Uogonek" unicode="&#x172;" horiz-adv-x="715" 
d="M600 700h94l-61 -435c-19 -135 -107 -241 -240 -268c-49 -29 -97 -71 -97 -114c0 -25 16 -48 50 -48c16 0 35 5 51 11l-9 -60c-23 -11 -49 -16 -72 -16c-65 0 -108 38 -108 91c0 45 38 93 93 130c-160 9 -236 124 -214 275l60 434h96l-60 -425c-17 -119 31 -205 149 -205
s191 87 208 206z" />
    <glyph glyph-name="Uring" unicode="&#x16e;" horiz-adv-x="715" 
d="M427 725c-61 0 -104 49 -95 110s64 110 125 110s104 -49 95 -110s-64 -110 -125 -110zM435 783c29 0 53 24 57 52s-14 52 -43 52s-53 -24 -57 -52s14 -52 43 -52zM600 700h94l-61 -435c-22 -158 -138 -275 -311 -275c-174 0 -258 118 -235 276l60 434h96l-60 -425
c-17 -119 31 -205 149 -205s191 87 208 206z" />
    <glyph glyph-name="Utilde" unicode="&#x168;" horiz-adv-x="715" 
d="M371 829c-34 0 -48 -27 -63 -64h-60c23 97 78 134 132 134c79 0 82 -64 130 -64c34 0 48 27 63 64h60c-23 -97 -78 -134 -132 -134c-79 0 -83 64 -130 64zM600 700h94l-61 -435c-22 -158 -138 -275 -311 -275c-174 0 -258 118 -235 276l60 434h96l-60 -425
c-17 -119 31 -205 149 -205s191 87 208 206z" />
    <glyph glyph-name="V" unicode="V" horiz-adv-x="626" 
d="M570 700h104l-340 -700h-107l-149 700h105l115 -578z" />
    <glyph glyph-name="W" unicode="W" horiz-adv-x="913" 
d="M861 700h100l-292 -700h-105l-73 494l-212 -494h-105l-96 700h105l62 -578l223 528h90l73 -528z" />
    <glyph glyph-name="Wacute" unicode="&#x1e82;" horiz-adv-x="913" 
d="M500 770l135 130h120l-175 -130h-80zM861 700h100l-292 -700h-105l-73 494l-212 -494h-105l-96 700h105l62 -578l223 528h90l73 -528z" />
    <glyph glyph-name="Wcircumflex" unicode="&#x174;" horiz-adv-x="913" 
d="M541 849l-64 -79h-110l146 130h70l111 -130h-110zM861 700h100l-292 -700h-105l-73 494l-212 -494h-105l-96 700h105l62 -578l223 528h90l73 -528z" />
    <glyph glyph-name="Wdieresis" unicode="&#x1e84;" horiz-adv-x="913" 
d="M431 775c-29 0 -49 22 -49 51c0 32 31 64 65 64c29 0 49 -23 49 -50c0 -35 -32 -65 -65 -65zM631 775c-29 0 -49 22 -49 51c0 32 31 64 65 64c29 0 49 -23 49 -50c0 -35 -32 -65 -65 -65zM861 700h100l-292 -700h-105l-73 494l-212 -494h-105l-96 700h105l62 -578
l223 528h90l73 -528z" />
    <glyph glyph-name="Wgrave" unicode="&#x1e80;" horiz-adv-x="913" 
d="M590 770h-80l-139 130h120zM861 700h100l-292 -700h-105l-73 494l-212 -494h-105l-96 700h105l62 -578l223 528h90l73 -528z" />
    <glyph glyph-name="X" unicode="X" horiz-adv-x="634" 
d="M584 0h-114l-154 284l-224 -284h-112l294 360l-186 340h114l145 -264l206 264h109l-274 -341z" />
    <glyph glyph-name="Y" unicode="Y" horiz-adv-x="631" 
d="M234 0l41 296l-197 404h110l149 -319l235 319h107l-308 -403l-42 -297h-95z" />
    <glyph glyph-name="Yacute" unicode="&#xdd;" horiz-adv-x="631" 
d="M359 770l135 130h120l-175 -130h-80zM234 0l41 296l-197 404h110l149 -319l235 319h107l-308 -403l-42 -297h-95z" />
    <glyph glyph-name="Ycircumflex" unicode="&#x176;" horiz-adv-x="631" 
d="M400 849l-64 -79h-110l146 130h70l111 -130h-110zM572 700h107l-308 -403l-42 -297h-95l41 296l-197 404h110l149 -319z" />
    <glyph glyph-name="Ydieresis" unicode="&#x178;" horiz-adv-x="631" 
d="M290 775c-29 0 -49 22 -49 51c0 32 31 64 65 64c29 0 49 -23 49 -50c0 -35 -32 -65 -65 -65zM490 775c-29 0 -49 22 -49 51c0 32 31 64 65 64c29 0 49 -23 49 -50c0 -35 -32 -65 -65 -65zM234 0l41 296l-197 404h110l149 -319l235 319h107l-308 -403l-42 -297h-95z" />
    <glyph glyph-name="uni1EF4" unicode="&#x1ef4;" horiz-adv-x="631" 
d="M234 0l41 296l-197 404h110l149 -319l235 319h107l-308 -403l-42 -297h-95zM252 -220c-32 0 -57 27 -52 60c4 32 36 60 68 60c33 0 56 -28 52 -60c-5 -33 -35 -60 -68 -60z" />
    <glyph glyph-name="Ygrave" unicode="&#x1ef2;" horiz-adv-x="631" 
d="M449 770h-80l-139 130h120zM234 0l41 296l-197 404h110l149 -319l235 319h107l-308 -403l-42 -297h-95z" />
    <glyph glyph-name="uni1EF6" unicode="&#x1ef6;" horiz-adv-x="631" 
d="M404 901c-20 0 -37 -13 -45 -38h-55c13 57 57 87 107 87s91 -30 83 -87c-9 -65 -80 -72 -86 -115h-50c9 63 70 70 76 115c3 25 -10 38 -30 38zM572 700h107l-308 -403l-42 -297h-95l41 296l-197 404h110l149 -319z" />
    <glyph glyph-name="uni1EF8" unicode="&#x1ef8;" horiz-adv-x="631" 
d="M329 829c-34 0 -48 -27 -63 -64h-60c23 97 78 134 132 134c79 0 82 -64 130 -64c34 0 48 27 63 64h60c-23 -97 -78 -134 -132 -134c-79 0 -83 64 -130 64zM572 700h107l-308 -403l-42 -297h-95l41 296l-197 404h110l149 -319z" />
    <glyph glyph-name="Z" unicode="Z" horiz-adv-x="587" 
d="M133 80h405l-11 -80h-537l8 60l474 560h-375l11 80h507l-8 -60z" />
    <glyph glyph-name="Zacute" unicode="&#x179;" horiz-adv-x="587" 
d="M355 770l135 130h120l-175 -130h-80zM133 80h405l-11 -80h-537l8 60l474 560h-375l11 80h507l-8 -60z" />
    <glyph glyph-name="Zcaron" unicode="&#x17d;" horiz-adv-x="587" 
d="M420 770h-70l-110 130h110l42 -79l65 79h110zM615 700l-8 -60l-474 -560h405l-11 -80h-537l8 60l474 560h-375l11 80h507z" />
    <glyph glyph-name="Zdotaccent" unicode="&#x17b;" horiz-adv-x="587" 
d="M387 770c-29 0 -52 24 -52 53c0 36 34 67 69 67c30 0 52 -25 52 -53c0 -36 -33 -67 -69 -67zM133 80h405l-11 -80h-537l8 60l474 560h-375l11 80h507l-8 -60z" />
    <glyph glyph-name="a" unicode="a" horiz-adv-x="580" 
d="M230 -10c-107 0 -188 79 -188 221c0 177 125 299 260 299c65 0 110 -28 139 -78l10 68h90l-71 -500h-90l10 68c-43 -50 -97 -78 -160 -78zM250 65c86 0 169 85 169 217c0 106 -53 153 -117 153c-88 0 -160 -89 -160 -221c0 -104 45 -149 108 -149z" />
    <glyph glyph-name="aacute" unicode="&#xe1;" horiz-adv-x="580" 
d="M300 580l109 160h110l-149 -160h-70zM230 -10c-107 0 -188 79 -188 221c0 177 125 299 260 299c65 0 110 -28 139 -78l10 68h90l-71 -500h-90l10 68c-43 -50 -97 -78 -160 -78zM250 65c86 0 169 85 169 217c0 106 -53 153 -117 153c-88 0 -160 -89 -160 -221
c0 -104 45 -149 108 -149z" />
    <glyph glyph-name="abreve" unicode="&#x103;" horiz-adv-x="580" 
d="M330 580c-94 0 -140 57 -136 160h60c7 -61 31 -90 86 -90c56 0 88 29 111 90h60c-24 -103 -86 -160 -181 -160zM451 500h90l-71 -500h-90l10 68c-43 -50 -97 -78 -160 -78c-107 0 -188 79 -188 221c0 177 125 299 260 299c65 0 110 -28 139 -78zM250 65
c86 0 169 85 169 217c0 106 -53 153 -117 153c-88 0 -160 -89 -160 -221c0 -104 45 -149 108 -149z" />
    <glyph glyph-name="uni1EAF" unicode="&#x1eaf;" horiz-adv-x="580" 
d="M548 940l-149 -160h-70l109 160h110zM331 580c-94 0 -140 57 -136 160h60c7 -61 31 -90 86 -90c56 0 88 29 111 90h60c-24 -103 -86 -160 -181 -160zM441 432l10 68h90l-71 -500h-90l10 68c-43 -50 -97 -78 -160 -78c-107 0 -188 79 -188 221c0 177 125 299 260 299
c65 0 110 -28 139 -78zM250 65c86 0 169 85 169 217c0 106 -53 153 -117 153c-88 0 -160 -89 -160 -221c0 -104 45 -149 108 -149z" />
    <glyph glyph-name="uni1EB7" unicode="&#x1eb7;" horiz-adv-x="580" 
d="M330 580c-94 0 -140 57 -136 160h60c7 -61 31 -90 86 -90c56 0 88 29 111 90h60c-24 -103 -86 -160 -181 -160zM451 500h90l-71 -500h-90l10 68c-43 -50 -97 -78 -160 -78c-107 0 -188 79 -188 221c0 177 125 299 260 299c65 0 110 -28 139 -78zM250 65
c86 0 169 85 169 217c0 106 -53 153 -117 153c-88 0 -160 -89 -160 -221c0 -104 45 -149 108 -149zM234 -100c33 0 56 -28 52 -60c-5 -33 -35 -60 -68 -60c-32 0 -57 27 -52 60c4 32 36 60 68 60z" />
    <glyph glyph-name="uni1EB1" unicode="&#x1eb1;" horiz-adv-x="580" 
d="M419 780h-70l-104 160h110zM331 580c-94 0 -140 57 -136 160h60c7 -61 31 -90 86 -90c56 0 88 29 111 90h60c-24 -103 -86 -160 -181 -160zM451 500h90l-71 -500h-90l10 68c-43 -50 -97 -78 -160 -78c-107 0 -188 79 -188 221c0 177 125 299 260 299
c65 0 110 -28 139 -78zM250 65c86 0 169 85 169 217c0 106 -53 153 -117 153c-88 0 -160 -89 -160 -221c0 -104 45 -149 108 -149z" />
    <glyph glyph-name="uni1EB3" unicode="&#x1eb3;" horiz-adv-x="580" 
d="M372 901c-20 0 -37 -13 -45 -38h-55c13 57 57 87 107 87s92 -30 84 -87c-9 -65 -81 -72 -87 -115h-50c8 63 70 70 77 115c3 25 -11 38 -31 38zM330 580c-94 0 -140 57 -136 160h60c7 -61 31 -90 86 -90c56 0 88 29 111 90h60c-24 -103 -86 -160 -181 -160zM451 500h90
l-71 -500h-90l10 68c-43 -50 -97 -78 -160 -78c-107 0 -188 79 -188 221c0 177 125 299 260 299c65 0 110 -28 139 -78zM250 65c86 0 169 85 169 217c0 106 -53 153 -117 153c-88 0 -160 -89 -160 -221c0 -104 45 -149 108 -149z" />
    <glyph glyph-name="uni1EB5" unicode="&#x1eb5;" horiz-adv-x="580" 
d="M301 859c-34 0 -48 -27 -63 -64h-60c23 97 79 134 133 134c79 0 82 -64 130 -64c34 0 47 27 63 64h60c-24 -97 -79 -134 -133 -134c-79 0 -83 64 -130 64zM340 650c56 0 88 29 112 90h60c-25 -103 -87 -160 -182 -160c-94 0 -140 57 -135 160h60c6 -61 30 -90 85 -90z
M441 432l10 68h90l-71 -500h-90l10 68c-43 -50 -97 -78 -160 -78c-107 0 -188 79 -188 221c0 177 125 299 260 299c65 0 110 -28 139 -78zM250 65c86 0 169 85 169 217c0 106 -53 153 -117 153c-88 0 -160 -89 -160 -221c0 -104 45 -149 108 -149z" />
    <glyph glyph-name="uni01CE" unicode="&#x1ce;" horiz-adv-x="580" 
d="M365 580h-70l-106 160h100l49 -103l78 103h100zM451 500h90l-71 -500h-90l10 68c-43 -50 -97 -78 -160 -78c-107 0 -188 79 -188 221c0 177 125 299 260 299c65 0 110 -28 139 -78zM250 65c86 0 169 85 169 217c0 106 -53 153 -117 153c-88 0 -160 -89 -160 -221
c0 -104 45 -149 108 -149z" />
    <glyph glyph-name="acircumflex" unicode="&#xe2;" horiz-adv-x="580" 
d="M344 683l-77 -103h-100l150 160h70l107 -160h-100zM451 500h90l-71 -500h-90l10 68c-43 -50 -97 -78 -160 -78c-107 0 -188 79 -188 221c0 177 125 299 260 299c65 0 110 -28 139 -78zM250 65c86 0 169 85 169 217c0 106 -53 153 -117 153c-88 0 -160 -89 -160 -221
c0 -104 45 -149 108 -149z" />
    <glyph glyph-name="uni1EA5" unicode="&#x1ea5;" horiz-adv-x="580" 
d="M690 850l-150 -160h-70l110 160h110zM345 683l-78 -103h-100l151 160h70l106 -160h-100zM441 432l10 68h90l-71 -500h-90l10 68c-43 -50 -97 -78 -160 -78c-107 0 -188 79 -188 221c0 177 125 299 260 299c65 0 110 -28 139 -78zM250 65c86 0 169 85 169 217
c0 106 -53 153 -117 153c-88 0 -160 -89 -160 -221c0 -104 45 -149 108 -149z" />
    <glyph glyph-name="uni1EAD" unicode="&#x1ead;" horiz-adv-x="580" 
d="M344 683l-77 -103h-100l150 160h70l107 -160h-100zM451 500h90l-71 -500h-90l10 68c-43 -50 -97 -78 -160 -78c-107 0 -188 79 -188 221c0 177 125 299 260 299c65 0 110 -28 139 -78zM250 65c86 0 169 85 169 217c0 106 -53 153 -117 153c-88 0 -160 -89 -160 -221
c0 -104 45 -149 108 -149zM234 -100c33 0 56 -28 52 -60c-5 -33 -35 -60 -68 -60c-32 0 -57 27 -52 60c4 32 36 60 68 60z" />
    <glyph glyph-name="uni1EA7" unicode="&#x1ea7;" horiz-adv-x="580" 
d="M560 690h-70l-103 160h110zM345 683l-78 -103h-100l151 160h70l106 -160h-100zM441 432l10 68h90l-71 -500h-90l10 68c-43 -50 -97 -78 -160 -78c-107 0 -188 79 -188 221c0 177 125 299 260 299c65 0 110 -28 139 -78zM250 65c86 0 169 85 169 217
c0 106 -53 153 -117 153c-88 0 -160 -89 -160 -221c0 -104 45 -149 108 -149z" />
    <glyph glyph-name="uni1EA9" unicode="&#x1ea9;" horiz-adv-x="580" 
d="M522 860c50 0 91 -30 83 -87c-9 -65 -81 -72 -87 -115h-50c9 63 71 70 77 115c4 25 -10 38 -30 38s-37 -13 -46 -38h-55c13 57 58 87 108 87zM345 683l-78 -103h-100l151 160h70l106 -160h-100zM441 432l10 68h90l-71 -500h-90l10 68c-43 -50 -97 -78 -160 -78
c-107 0 -188 79 -188 221c0 177 125 299 260 299c65 0 110 -28 139 -78zM250 65c86 0 169 85 169 217c0 106 -53 153 -117 153c-88 0 -160 -89 -160 -221c0 -104 45 -149 108 -149z" />
    <glyph glyph-name="uni1EAB" unicode="&#x1eab;" horiz-adv-x="580" 
d="M775 839h60c-23 -97 -79 -134 -133 -134c-79 0 -83 64 -130 64c-34 0 -47 -27 -63 -64h-60c24 97 79 134 133 134c79 0 82 -64 130 -64c34 0 48 27 63 64zM344 683l-77 -103h-100l150 160h70l107 -160h-100zM441 432l10 68h90l-71 -500h-90l10 68
c-43 -50 -97 -78 -160 -78c-107 0 -188 79 -188 221c0 177 125 299 260 299c65 0 110 -28 139 -78zM250 65c86 0 169 85 169 217c0 106 -53 153 -117 153c-88 0 -160 -89 -160 -221c0 -104 45 -149 108 -149z" />
    <glyph glyph-name="adieresis" unicode="&#xe4;" horiz-adv-x="580" 
d="M235 615c-29 0 -49 22 -49 51c0 32 31 64 65 64c29 0 49 -23 49 -50c0 -35 -32 -65 -65 -65zM435 615c-29 0 -49 22 -49 51c0 32 31 64 65 64c29 0 49 -23 49 -50c0 -35 -32 -65 -65 -65zM230 -10c-107 0 -188 79 -188 221c0 177 125 299 260 299c65 0 110 -28 139 -78
l10 68h90l-71 -500h-90l10 68c-43 -50 -97 -78 -160 -78zM250 65c86 0 169 85 169 217c0 106 -53 153 -117 153c-88 0 -160 -89 -160 -221c0 -104 45 -149 108 -149z" />
    <glyph glyph-name="uni1EA1" unicode="&#x1ea1;" horiz-adv-x="580" 
d="M230 -10c-107 0 -188 79 -188 221c0 177 125 299 260 299c65 0 110 -28 139 -78l10 68h90l-71 -500h-90l10 68c-43 -50 -97 -78 -160 -78zM250 65c86 0 169 85 169 217c0 106 -53 153 -117 153c-88 0 -160 -89 -160 -221c0 -104 45 -149 108 -149zM218 -220
c-32 0 -57 27 -52 60c4 32 36 60 68 60c33 0 56 -28 52 -60c-5 -33 -35 -60 -68 -60z" />
    <glyph glyph-name="agrave" unicode="&#xe0;" horiz-adv-x="580" 
d="M390 580h-70l-105 160h110zM230 -10c-107 0 -188 79 -188 221c0 177 125 299 260 299c65 0 110 -28 139 -78l10 68h90l-71 -500h-90l10 68c-43 -50 -97 -78 -160 -78zM250 65c86 0 169 85 169 217c0 106 -53 153 -117 153c-88 0 -160 -89 -160 -221
c0 -104 45 -149 108 -149z" />
    <glyph glyph-name="uni1EA3" unicode="&#x1ea3;" horiz-adv-x="580" 
d="M344 701c-20 0 -37 -13 -45 -38h-55c13 57 57 87 107 87s91 -30 83 -87c-9 -65 -80 -72 -86 -115h-50c9 63 70 70 76 115c3 25 -10 38 -30 38zM451 500h90l-71 -500h-90l10 68c-43 -50 -97 -78 -160 -78c-107 0 -188 79 -188 221c0 177 125 299 260 299
c65 0 110 -28 139 -78zM250 65c86 0 169 85 169 217c0 106 -53 153 -117 153c-88 0 -160 -89 -160 -221c0 -104 45 -149 108 -149z" />
    <glyph glyph-name="amacron" unicode="&#x101;" horiz-adv-x="580" 
d="M179 630l10 70h317l-10 -70h-317zM230 -10c-107 0 -188 79 -188 221c0 177 125 299 260 299c65 0 110 -28 139 -78l10 68h90l-71 -500h-90l10 68c-43 -50 -97 -78 -160 -78zM250 65c86 0 169 85 169 217c0 106 -53 153 -117 153c-88 0 -160 -89 -160 -221
c0 -104 45 -149 108 -149z" />
    <glyph glyph-name="aogonek" unicode="&#x105;" horiz-adv-x="580" 
d="M451 500h90l-71 -500h-13c-51 -29 -102 -72 -102 -117c0 -25 16 -48 50 -48c16 0 35 5 51 11l-9 -60c-23 -11 -49 -16 -72 -16c-65 0 -108 38 -108 91c0 51 48 105 114 143l9 64c-43 -50 -97 -78 -160 -78c-107 0 -188 79 -188 221c0 177 125 299 260 299
c65 0 110 -28 139 -78zM250 65c86 0 169 85 169 217c0 106 -53 153 -117 153c-88 0 -160 -89 -160 -221c0 -104 45 -149 108 -149z" />
    <glyph glyph-name="aring" unicode="&#xe5;" horiz-adv-x="580" 
d="M327 555c-61 0 -104 49 -95 110s64 110 125 110s104 -49 95 -110s-64 -110 -125 -110zM335 613c29 0 53 24 57 52s-14 52 -43 52s-53 -24 -57 -52s14 -52 43 -52zM230 -10c-107 0 -188 79 -188 221c0 177 125 299 260 299c65 0 110 -28 139 -78l10 68h90l-71 -500h-90
l10 68c-43 -50 -97 -78 -160 -78zM250 65c86 0 169 85 169 217c0 106 -53 153 -117 153c-88 0 -160 -89 -160 -221c0 -104 45 -149 108 -149z" />
    <glyph glyph-name="atilde" unicode="&#xe3;" horiz-adv-x="580" 
d="M273 659c-34 0 -48 -27 -63 -64h-60c23 97 78 134 132 134c79 0 82 -64 130 -64c34 0 48 27 63 64h60c-23 -97 -78 -134 -132 -134c-79 0 -83 64 -130 64zM451 500h90l-71 -500h-90l10 68c-43 -50 -97 -78 -160 -78c-107 0 -188 79 -188 221c0 177 125 299 260 299
c65 0 110 -28 139 -78zM250 65c86 0 169 85 169 217c0 106 -53 153 -117 153c-88 0 -160 -89 -160 -221c0 -104 45 -149 108 -149z" />
    <glyph glyph-name="ae" unicode="&#xe6;" horiz-adv-x="831" 
d="M786 250h-341c-1 -11 -2 -22 -2 -34c0 -107 46 -151 111 -151c53 0 109 22 131 90h85c-31 -115 -127 -165 -227 -165c-80 0 -148 39 -180 115c-47 -66 -117 -115 -205 -115c-78 0 -132 38 -132 117c0 141 169 204 324 191l3 19c1 11 2 20 2 31c0 65 -37 87 -91 87
c-52 0 -103 -20 -148 -40l12 85c44 18 99 30 157 30c60 0 122 -14 147 -74c48 47 112 74 183 74c92 0 176 -45 176 -194c0 -17 -1 -40 -5 -66zM600 440c-70 0 -120 -52 -143 -125h235c0 73 -21 125 -92 125zM336 192l5 41c-108 8 -217 -18 -217 -111c0 -43 26 -62 62 -62
c60 0 139 51 150 132z" />
    <glyph glyph-name="aeacute" unicode="&#x1fd;" horiz-adv-x="831" 
d="M615 740l-149 -160h-70l109 160h110zM786 250h-341c-1 -11 -2 -22 -2 -34c0 -107 46 -151 111 -151c53 0 109 22 131 90h85c-31 -115 -127 -165 -227 -165c-80 0 -148 39 -180 115c-47 -66 -117 -115 -205 -115c-78 0 -132 38 -132 117c0 141 169 204 324 191l3 19
c1 11 2 20 2 31c0 65 -37 87 -91 87c-52 0 -103 -20 -148 -40l12 85c44 18 99 30 157 30c60 0 122 -14 147 -74c48 47 112 74 183 74c92 0 176 -45 176 -194c0 -17 -1 -40 -5 -66zM600 440c-70 0 -120 -52 -143 -125h235c0 73 -21 125 -92 125zM336 192l5 41
c-108 8 -217 -18 -217 -111c0 -43 26 -62 62 -62c60 0 139 51 150 132z" />
    <glyph glyph-name="b" unicode="b" horiz-adv-x="575" 
d="M345 510c107 0 188 -78 188 -221c0 -176 -126 -299 -260 -299c-65 0 -110 28 -139 78l-10 -68h-90l104 740h90l-43 -308c43 50 97 78 160 78zM273 65c88 0 160 89 160 221c0 104 -45 149 -108 149c-86 0 -169 -84 -169 -217c0 -105 53 -153 117 -153z" />
    <glyph glyph-name="c" unicode="c" horiz-adv-x="510" 
d="M248 65c53 0 109 31 131 100h85c-31 -116 -127 -175 -226 -175c-113 0 -201 77 -201 222c0 177 129 298 273 298c103 0 180 -61 177 -175h-85c-1 72 -51 100 -103 100c-92 0 -162 -91 -162 -220c0 -106 46 -150 111 -150z" />
    <glyph glyph-name="cacute" unicode="&#x107;" horiz-adv-x="510" 
d="M292 580l109 160h110l-149 -160h-70zM248 65c53 0 109 31 131 100h85c-31 -116 -127 -175 -226 -175c-113 0 -201 77 -201 222c0 177 129 298 273 298c103 0 180 -61 177 -175h-85c-1 72 -51 100 -103 100c-92 0 -162 -91 -162 -220c0 -106 46 -150 111 -150z" />
    <glyph glyph-name="ccaron" unicode="&#x10d;" horiz-adv-x="510" 
d="M357 580h-70l-106 160h100l49 -103l78 103h100zM310 510c103 0 180 -61 177 -175h-85c-1 72 -51 100 -103 100c-92 0 -162 -91 -162 -220c0 -106 46 -150 111 -150c53 0 109 31 131 100h85c-31 -116 -127 -175 -226 -175c-113 0 -201 77 -201 222c0 177 129 298 273 298z
" />
    <glyph glyph-name="ccedilla" unicode="&#xe7;" horiz-adv-x="510" 
d="M299 435c-92 0 -162 -91 -162 -220c0 -106 46 -150 111 -150c53 0 109 31 131 100h85c-29 -108 -113 -166 -204 -174l-23 -51c69 13 116 -14 108 -74c-9 -62 -68 -96 -129 -96c-34 0 -53 7 -74 19l7 52c21 -13 40 -21 64 -21c30 0 57 12 61 41c7 51 -65 42 -119 24
l50 107c-97 14 -168 90 -168 220c0 177 129 298 273 298c103 0 180 -61 177 -175h-85c-1 72 -51 100 -103 100z" />
    <glyph glyph-name="cdotaccent" unicode="&#x10b;" horiz-adv-x="510" 
d="M327 610c-30 0 -52 24 -52 53c0 36 34 67 69 67c30 0 52 -25 52 -53c0 -36 -33 -67 -69 -67zM248 65c53 0 109 31 131 100h85c-31 -116 -127 -175 -226 -175c-113 0 -201 77 -201 222c0 177 129 298 273 298c103 0 180 -61 177 -175h-85c-1 72 -51 100 -103 100
c-92 0 -162 -91 -162 -220c0 -106 46 -150 111 -150z" />
    <glyph glyph-name="d" unicode="d" horiz-adv-x="574" 
d="M484 740h90l-104 -740h-90l10 68c-43 -50 -97 -78 -160 -78c-107 0 -188 79 -188 221c0 176 125 299 260 299c65 0 110 -28 139 -78zM250 65c86 0 169 85 169 217c0 106 -53 153 -117 153c-88 0 -160 -89 -160 -221c0 -104 45 -149 108 -149z" />
    <glyph glyph-name="eth" unicode="&#xf0;" horiz-adv-x="548" 
d="M393 666c97 -100 120 -204 120 -306c0 -201 -86 -370 -268 -370c-119 0 -204 74 -204 214c0 159 109 306 259 306c52 0 91 -17 119 -48c-12 54 -39 107 -93 161l-100 -63l-24 46l83 53c-22 18 -48 37 -78 55l61 52c33 -21 61 -42 86 -63l98 62l25 -46zM252 65
c110 0 165 120 165 224c0 101 -53 146 -117 146c-106 0 -160 -126 -160 -231c0 -97 47 -139 112 -139z" />
    <glyph glyph-name="dcaron" unicode="&#x10f;" horiz-adv-x="684" 
d="M484 740h90l-104 -740h-90l10 68c-43 -50 -97 -78 -160 -78c-107 0 -188 79 -188 221c0 176 125 299 260 299c65 0 110 -28 139 -78zM632 560l26 180h90l-56 -180h-60zM250 65c86 0 169 85 169 217c0 106 -53 153 -117 153c-88 0 -160 -89 -160 -221
c0 -104 45 -149 108 -149z" />
    <glyph glyph-name="dcroat" unicode="&#x111;" horiz-adv-x="574" 
d="M651 643l-10 -70h-90l-81 -573h-90l10 68c-43 -50 -97 -78 -160 -78c-107 0 -188 79 -188 221c0 176 125 299 260 299c65 0 110 -28 139 -78l20 141h-134l10 70h133l14 97h90l-14 -97h91zM250 65c86 0 169 85 169 217c0 106 -53 153 -117 153c-88 0 -160 -89 -160 -221
c0 -104 45 -149 108 -149z" />
    <glyph glyph-name="e" unicode="e" horiz-adv-x="530" 
d="M486 250h-341c-1 -11 -2 -22 -2 -34c0 -107 46 -151 111 -151c53 0 109 22 131 90h85c-31 -115 -127 -165 -227 -165c-112 0 -200 76 -200 224c0 174 122 296 272 296c92 0 176 -45 176 -194c0 -17 -1 -40 -5 -66zM300 440c-70 0 -120 -52 -143 -125h235
c0 73 -21 125 -92 125z" />
    <glyph glyph-name="eacute" unicode="&#xe9;" horiz-adv-x="530" 
d="M502 740l-149 -160h-70l109 160h110zM315 510c92 0 176 -45 176 -194c0 -17 -1 -40 -5 -66h-341c-1 -11 -2 -22 -2 -34c0 -107 46 -151 111 -151c53 0 109 22 131 90h85c-31 -115 -127 -165 -227 -165c-112 0 -200 76 -200 224c0 174 122 296 272 296zM157 315h235
c0 73 -21 125 -92 125c-70 0 -120 -52 -143 -125z" />
    <glyph glyph-name="ecaron" unicode="&#x11b;" horiz-adv-x="530" 
d="M348 580h-70l-106 160h100l49 -103l78 103h100zM315 510c92 0 176 -45 176 -194c0 -17 -1 -40 -5 -66h-341c-1 -11 -2 -22 -2 -34c0 -107 46 -151 111 -151c53 0 109 22 131 90h85c-31 -115 -127 -165 -227 -165c-112 0 -200 76 -200 224c0 174 122 296 272 296zM157 315
h235c0 73 -21 125 -92 125c-70 0 -120 -52 -143 -125z" />
    <glyph glyph-name="ecircumflex" unicode="&#xea;" horiz-adv-x="530" 
d="M327 683l-77 -103h-100l150 160h70l107 -160h-100zM486 250h-341c-1 -11 -2 -22 -2 -34c0 -107 46 -151 111 -151c53 0 109 22 131 90h85c-31 -115 -127 -165 -227 -165c-112 0 -200 76 -200 224c0 174 122 296 272 296c92 0 176 -45 176 -194c0 -17 -1 -40 -5 -66z
M300 440c-70 0 -120 -52 -143 -125h235c0 73 -21 125 -92 125z" />
    <glyph glyph-name="uni1EBF" unicode="&#x1ebf;" horiz-adv-x="530" 
d="M563 850h110l-150 -160h-70zM328 683l-78 -103h-100l151 160h70l106 -160h-100zM315 510c92 0 176 -45 176 -194c0 -17 -1 -40 -5 -66h-341c-1 -11 -2 -22 -2 -34c0 -107 46 -151 111 -151c53 0 109 22 131 90h85c-31 -115 -127 -165 -227 -165c-112 0 -200 76 -200 224
c0 174 122 296 272 296zM157 315h235c0 73 -21 125 -92 125c-70 0 -120 -52 -143 -125z" />
    <glyph glyph-name="uni1EC7" unicode="&#x1ec7;" horiz-adv-x="530" 
d="M327 683l-77 -103h-100l150 160h70l107 -160h-100zM486 250h-341c-1 -11 -2 -22 -2 -34c0 -107 46 -151 111 -151c53 0 109 22 131 90h85c-31 -115 -127 -165 -227 -165c-112 0 -200 76 -200 224c0 174 122 296 272 296c92 0 176 -45 176 -194c0 -17 -1 -40 -5 -66z
M300 440c-70 0 -120 -52 -143 -125h235c0 73 -21 125 -92 125zM217 -100c33 0 56 -28 52 -60c-5 -33 -35 -60 -68 -60c-32 0 -57 27 -52 60c4 32 36 60 68 60z" />
    <glyph glyph-name="uni1EC1" unicode="&#x1ec1;" horiz-adv-x="530" 
d="M543 690h-70l-103 160h110zM328 683l-78 -103h-100l151 160h70l106 -160h-100zM315 510c92 0 176 -45 176 -194c0 -17 -1 -40 -5 -66h-341c-1 -11 -2 -22 -2 -34c0 -107 46 -151 111 -151c53 0 109 22 131 90h85c-31 -115 -127 -165 -227 -165c-112 0 -200 76 -200 224
c0 174 122 296 272 296zM157 315h235c0 73 -21 125 -92 125c-70 0 -120 -52 -143 -125z" />
    <glyph glyph-name="uni1EC3" unicode="&#x1ec3;" horiz-adv-x="530" 
d="M505 860c50 0 91 -30 83 -87c-9 -65 -81 -72 -87 -115h-50c9 63 71 70 77 115c4 25 -10 38 -30 38s-37 -13 -46 -38h-55c13 57 58 87 108 87zM328 683l-78 -103h-100l151 160h70l106 -160h-100zM315 510c92 0 176 -45 176 -194c0 -17 -1 -40 -5 -66h-341
c-1 -11 -2 -22 -2 -34c0 -107 46 -151 111 -151c53 0 109 22 131 90h85c-31 -115 -127 -165 -227 -165c-112 0 -200 76 -200 224c0 174 122 296 272 296zM157 315h235c0 73 -21 125 -92 125c-70 0 -120 -52 -143 -125z" />
    <glyph glyph-name="uni1EC5" unicode="&#x1ec5;" horiz-adv-x="530" 
d="M758 839h60c-23 -97 -79 -134 -133 -134c-79 0 -83 64 -130 64c-34 0 -47 -27 -63 -64h-60c24 97 79 134 133 134c79 0 82 -64 130 -64c34 0 48 27 63 64zM327 683l-77 -103h-100l150 160h70l107 -160h-100zM315 510c92 0 176 -45 176 -194c0 -17 -1 -40 -5 -66h-341
c-1 -11 -2 -22 -2 -34c0 -107 46 -151 111 -151c53 0 109 22 131 90h85c-31 -115 -127 -165 -227 -165c-112 0 -200 76 -200 224c0 174 122 296 272 296zM157 315h235c0 73 -21 125 -92 125c-70 0 -120 -52 -143 -125z" />
    <glyph glyph-name="edieresis" unicode="&#xeb;" horiz-adv-x="530" 
d="M218 615c-29 0 -49 22 -49 51c0 32 31 64 65 64c29 0 49 -23 49 -50c0 -35 -32 -65 -65 -65zM418 615c-29 0 -49 22 -49 51c0 32 31 64 65 64c29 0 49 -23 49 -50c0 -35 -32 -65 -65 -65zM486 250h-341c-1 -11 -2 -22 -2 -34c0 -107 46 -151 111 -151c53 0 109 22 131 90
h85c-31 -115 -127 -165 -227 -165c-112 0 -200 76 -200 224c0 174 122 296 272 296c92 0 176 -45 176 -194c0 -17 -1 -40 -5 -66zM300 440c-70 0 -120 -52 -143 -125h235c0 73 -21 125 -92 125z" />
    <glyph glyph-name="edotaccent" unicode="&#x117;" horiz-adv-x="530" 
d="M318 610c-30 0 -52 24 -52 53c0 36 34 67 69 67c30 0 52 -25 52 -53c0 -36 -33 -67 -69 -67zM486 250h-341c-1 -11 -2 -22 -2 -34c0 -107 46 -151 111 -151c53 0 109 22 131 90h85c-31 -115 -127 -165 -227 -165c-112 0 -200 76 -200 224c0 174 122 296 272 296
c92 0 176 -45 176 -194c0 -17 -1 -40 -5 -66zM300 440c-70 0 -120 -52 -143 -125h235c0 73 -21 125 -92 125z" />
    <glyph glyph-name="uni1EB9" unicode="&#x1eb9;" horiz-adv-x="530" 
d="M486 250h-341c-1 -11 -2 -22 -2 -34c0 -107 46 -151 111 -151c53 0 109 22 131 90h85c-31 -115 -127 -165 -227 -165c-112 0 -200 76 -200 224c0 174 122 296 272 296c92 0 176 -45 176 -194c0 -17 -1 -40 -5 -66zM300 440c-70 0 -120 -52 -143 -125h235
c0 73 -21 125 -92 125zM217 -100c33 0 56 -28 52 -60c-5 -33 -35 -60 -68 -60c-32 0 -57 27 -52 60c4 32 36 60 68 60z" />
    <glyph glyph-name="egrave" unicode="&#xe8;" horiz-adv-x="530" 
d="M373 580h-70l-105 160h110zM486 250h-341c-1 -11 -2 -22 -2 -34c0 -107 46 -151 111 -151c53 0 109 22 131 90h85c-31 -115 -127 -165 -227 -165c-112 0 -200 76 -200 224c0 174 122 296 272 296c92 0 176 -45 176 -194c0 -17 -1 -40 -5 -66zM300 440
c-70 0 -120 -52 -143 -125h235c0 73 -21 125 -92 125z" />
    <glyph glyph-name="uni1EBB" unicode="&#x1ebb;" horiz-adv-x="530" 
d="M327 701c-20 0 -37 -13 -45 -38h-55c13 57 57 87 107 87s91 -30 83 -87c-9 -65 -80 -72 -86 -115h-50c9 63 70 70 76 115c3 25 -10 38 -30 38zM486 250h-341c-1 -11 -2 -22 -2 -34c0 -107 46 -151 111 -151c53 0 109 22 131 90h85c-31 -115 -127 -165 -227 -165
c-112 0 -200 76 -200 224c0 174 122 296 272 296c92 0 176 -45 176 -194c0 -17 -1 -40 -5 -66zM300 440c-70 0 -120 -52 -143 -125h235c0 73 -21 125 -92 125z" />
    <glyph glyph-name="emacron" unicode="&#x113;" horiz-adv-x="530" 
d="M489 700l-10 -70h-317l10 70h317zM486 250h-341c-1 -11 -2 -22 -2 -34c0 -107 46 -151 111 -151c53 0 109 22 131 90h85c-31 -115 -127 -165 -227 -165c-112 0 -200 76 -200 224c0 174 122 296 272 296c92 0 176 -45 176 -194c0 -17 -1 -40 -5 -66zM300 440
c-70 0 -120 -52 -143 -125h235c0 73 -21 125 -92 125z" />
    <glyph glyph-name="eogonek" unicode="&#x119;" horiz-adv-x="530" 
d="M486 250h-341c-1 -11 -2 -22 -2 -34c0 -107 46 -151 111 -151c53 0 109 22 131 90h85c-24 -88 -86 -138 -158 -157c-44 -28 -83 -67 -83 -115c0 -25 16 -48 50 -48c16 0 35 5 51 11l-9 -60c-23 -11 -49 -16 -72 -16c-65 0 -108 38 -108 91c0 49 32 95 79 130
c-101 10 -177 85 -177 223c0 174 122 296 272 296c92 0 176 -45 176 -194c0 -17 -1 -40 -5 -66zM300 440c-70 0 -120 -52 -143 -125h235c0 73 -21 125 -92 125z" />
    <glyph glyph-name="uni1EBD" unicode="&#x1ebd;" horiz-adv-x="530" 
d="M256 659c-34 0 -48 -27 -63 -64h-60c23 97 78 134 132 134c79 0 82 -64 130 -64c34 0 48 27 63 64h60c-23 -97 -78 -134 -132 -134c-79 0 -83 64 -130 64zM315 510c92 0 176 -45 176 -194c0 -17 -1 -40 -5 -66h-341c-1 -11 -2 -22 -2 -34c0 -107 46 -151 111 -151
c53 0 109 22 131 90h85c-31 -115 -127 -165 -227 -165c-112 0 -200 76 -200 224c0 174 122 296 272 296zM157 315h235c0 73 -21 125 -92 125c-70 0 -120 -52 -143 -125z" />
    <glyph glyph-name="f" unicode="f" horiz-adv-x="372" 
d="M342 675c-46 0 -94 -22 -110 -130l-6 -45h161l-11 -75h-161l-59 -425h-89l59 425h-77l11 75h77l8 60c20 142 110 190 198 190c34 0 66 -8 86 -18l-10 -75c-19 9 -47 18 -77 18z" />
    <glyph glyph-name="g" unicode="g" horiz-adv-x="579" 
d="M450 500h90l-70 -500c-21 -156 -135 -230 -259 -230c-109 0 -185 58 -184 175h85c3 -70 45 -100 110 -100c73 0 141 39 158 155l10 68c-43 -50 -96 -78 -160 -78c-107 0 -188 79 -188 220c0 178 125 300 260 300c65 0 110 -28 139 -78zM249 65c86 0 169 85 169 217
c0 106 -53 153 -117 153c-87 0 -159 -89 -159 -221c0 -103 44 -149 107 -149z" />
    <glyph glyph-name="gbreve" unicode="&#x11f;" horiz-adv-x="579" 
d="M329 580c-94 0 -140 57 -136 160h60c7 -61 31 -90 86 -90c56 0 88 29 111 90h60c-24 -103 -86 -160 -181 -160zM450 500h90l-70 -500c-21 -156 -135 -230 -259 -230c-109 0 -185 58 -184 175h85c3 -70 45 -100 110 -100c73 0 141 39 158 155l10 68
c-43 -50 -96 -78 -160 -78c-107 0 -188 79 -188 220c0 178 125 300 260 300c65 0 110 -28 139 -78zM249 65c86 0 169 85 169 217c0 106 -53 153 -117 153c-87 0 -159 -89 -159 -221c0 -103 44 -149 107 -149z" />
    <glyph glyph-name="gcommaaccent" unicode="&#x123;" horiz-adv-x="579" 
d="M488 740l-109 -160h-110l149 160h70zM450 500h90l-70 -500c-21 -156 -135 -230 -259 -230c-109 0 -185 58 -184 175h85c3 -70 45 -100 110 -100c73 0 141 39 158 155l10 68c-43 -50 -96 -78 -160 -78c-107 0 -188 79 -188 220c0 178 125 300 260 300
c65 0 110 -28 139 -78zM249 65c86 0 169 85 169 217c0 106 -53 153 -117 153c-87 0 -159 -89 -159 -221c0 -103 44 -149 107 -149z" />
    <glyph glyph-name="gdotaccent" unicode="&#x121;" horiz-adv-x="579" 
d="M334 610c-30 0 -52 24 -52 53c0 36 34 67 69 67c30 0 52 -25 52 -53c0 -36 -33 -67 -69 -67zM450 500h90l-70 -500c-21 -156 -135 -230 -259 -230c-109 0 -185 58 -184 175h85c3 -70 45 -100 110 -100c73 0 141 39 158 155l10 68c-43 -50 -96 -78 -160 -78
c-107 0 -188 79 -188 220c0 178 125 300 260 300c65 0 110 -28 139 -78zM249 65c86 0 169 85 169 217c0 106 -53 153 -117 153c-87 0 -159 -89 -159 -221c0 -103 44 -149 107 -149z" />
    <glyph glyph-name="h" unicode="h" horiz-adv-x="578" 
d="M367 510c102 0 167 -51 147 -188l-45 -322h-90l43 302c14 103 -30 128 -88 128c-63 0 -151 -45 -172 -193l-33 -237h-90l104 740h90l-45 -321c34 44 93 91 179 91z" />
    <glyph glyph-name="hbar" unicode="&#x127;" horiz-adv-x="578" 
d="M367 510c102 0 167 -51 147 -188l-45 -322h-90l43 302c14 103 -30 128 -88 128c-63 0 -151 -45 -172 -193l-33 -237h-90l81 573h-104l10 70h103l14 97h90l-14 -97h121l-10 -70h-120l-22 -154c34 44 93 91 179 91z" />
    <glyph glyph-name="i" unicode="i" horiz-adv-x="269" 
d="M185 610c-30 0 -52 24 -52 53c0 36 34 67 69 67c30 0 52 -25 52 -53c0 -36 -33 -67 -69 -67zM54 0l70 500h90l-70 -500h-90z" />
    <glyph glyph-name="dotlessi" unicode="&#x131;" horiz-adv-x="238" 
d="M39 0l70 500h90l-70 -500h-90z" />
    <glyph glyph-name="iacute" unicode="&#xed;" horiz-adv-x="238" 
d="M135 580l109 160h110l-149 -160h-70zM39 0l70 500h90l-70 -500h-90z" />
    <glyph glyph-name="uni01D0" unicode="&#x1d0;" horiz-adv-x="238" 
d="M251 740h100l-151 -160h-70l-106 160h100l49 -103zM39 0l70 500h90l-70 -500h-90z" />
    <glyph glyph-name="icircumflex" unicode="&#xee;" horiz-adv-x="238" 
d="M222 740l107 -160h-100l-50 103l-77 -103h-100l150 160h70zM39 0l70 500h90l-70 -500h-90z" />
    <glyph glyph-name="idieresis" unicode="&#xef;" horiz-adv-x="238" 
d="M70 615c-29 0 -49 22 -49 51c0 32 31 64 65 64c29 0 49 -23 49 -50c0 -35 -32 -65 -65 -65zM270 615c-29 0 -49 22 -49 51c0 32 31 64 65 64c29 0 49 -23 49 -50c0 -35 -32 -65 -65 -65zM39 0l70 500h90l-70 -500h-90z" />
    <glyph glyph-name="i.loclTRK" horiz-adv-x="238" 
d="M170 610c-30 0 -52 24 -52 53c0 36 34 67 69 67c30 0 52 -25 52 -53c0 -36 -33 -67 -69 -67zM39 0l70 500h90l-70 -500h-90z" />
    <glyph glyph-name="uni1ECB" unicode="&#x1ecb;" horiz-adv-x="269" 
d="M185 610c-30 0 -52 24 -52 53c0 36 34 67 69 67c30 0 52 -25 52 -53c0 -36 -33 -67 -69 -67zM54 0l70 500h90l-70 -500h-90zM69 -220c-32 0 -57 27 -52 60c4 32 36 60 68 60c33 0 56 -28 52 -60c-5 -33 -35 -60 -68 -60z" />
    <glyph glyph-name="igrave" unicode="&#xec;" horiz-adv-x="238" 
d="M225 580h-70l-105 160h110zM39 0l70 500h90l-70 -500h-90z" />
    <glyph glyph-name="uni1EC9" unicode="&#x1ec9;" horiz-adv-x="238" 
d="M186 750c50 0 91 -30 83 -87c-9 -65 -80 -72 -86 -115h-50c9 63 70 70 76 115c3 25 -10 38 -30 38s-37 -13 -45 -38h-55c13 57 57 87 107 87zM39 0l70 500h90l-70 -500h-90z" />
    <glyph glyph-name="imacron" unicode="&#x12b;" horiz-adv-x="238" 
d="M14 630l10 70h317l-10 -70h-317zM39 0l70 500h90l-70 -500h-90z" />
    <glyph glyph-name="iogonek" unicode="&#x12f;" horiz-adv-x="238" 
d="M187 730c30 0 52 -25 52 -53c0 -36 -33 -67 -69 -67c-30 0 -52 24 -52 53c0 36 34 67 69 67zM40 4l69 496h90l-70 -500h-13c-51 -29 -102 -72 -102 -117c0 -25 16 -48 50 -48c16 0 35 5 51 11l-9 -60c-23 -11 -49 -16 -72 -16c-65 0 -108 38 -108 91c0 51 48 105 114 143
z" />
    <glyph glyph-name="itilde" unicode="&#x129;" horiz-adv-x="238" 
d="M310 729h60c-23 -97 -78 -134 -132 -134c-79 0 -83 64 -130 64c-34 0 -48 -27 -63 -64h-60c23 97 78 134 132 134c79 0 82 -64 130 -64c34 0 48 27 63 64zM39 0l70 500h90l-70 -500h-90z" />
    <glyph glyph-name="j" unicode="j" horiz-adv-x="254" 
d="M170 610c-29 0 -52 24 -52 53c0 36 34 67 69 67c30 0 52 -25 52 -53c0 -36 -33 -67 -69 -67zM-88 -230l11 75c61 0 99 31 110 111l76 544h90l-78 -559c-13 -95 -93 -171 -209 -171z" />
    <glyph glyph-name="k" unicode="k" horiz-adv-x="527" 
d="M478 0h-108l-122 228l-101 -98l-18 -130h-90l104 740h90l-69 -491l257 251h107l-211 -205z" />
    <glyph glyph-name="kcommaaccent" unicode="&#x137;" horiz-adv-x="527" 
d="M478 0h-108l-122 228l-101 -98l-18 -130h-90l104 740h90l-69 -491l257 251h107l-211 -205zM138 -257l68 157h91l-102 -157h-57z" />
    <glyph glyph-name="l" unicode="l" horiz-adv-x="238" 
d="M39 0l104 740h90l-104 -740h-90z" />
    <glyph glyph-name="lacute" unicode="&#x13a;" horiz-adv-x="235" 
d="M147 770l135 130h120l-175 -130h-80zM39 0l104 740h90l-104 -740h-90z" />
    <glyph glyph-name="lcaron" unicode="&#x13e;" horiz-adv-x="340" 
d="M39 0l104 740h90l-104 -740h-90zM288 560l26 180h90l-56 -180h-60z" />
    <glyph glyph-name="lcommaaccent" unicode="&#x13c;" horiz-adv-x="238" 
d="M39 0l104 740h90l-104 -740h-90zM-39 -257l68 157h91l-102 -157h-57z" />
    <glyph glyph-name="lslash" unicode="&#x142;" horiz-adv-x="326" 
d="M341 500l-13 -90l-98 -56l-50 -354h-90l42 299l-103 -59l12 90l104 59l49 351h90l-42 -296z" />
    <glyph glyph-name="m" unicode="m" horiz-adv-x="879" 
d="M677 510c92 0 157 -51 138 -188l-46 -322h-90l42 293c14 104 -29 137 -77 137c-53 0 -141 -45 -162 -193l-33 -237h-90l42 293c14 104 -29 137 -77 137c-53 0 -141 -45 -162 -193l-33 -237h-90l70 500h90l-11 -81c34 44 93 91 169 91c71 0 125 -30 138 -108
c48 66 111 108 182 108z" />
    <glyph glyph-name="n" unicode="n" horiz-adv-x="579" 
d="M367 510c102 0 167 -51 148 -188l-46 -322h-90l43 302c14 103 -30 128 -88 128c-63 0 -151 -45 -172 -193l-33 -237h-90l70 500h90l-11 -81c34 44 93 91 179 91z" />
    <glyph glyph-name="nacute" unicode="&#x144;" horiz-adv-x="579" 
d="M305 580l109 160h110l-149 -160h-70zM367 510c102 0 167 -51 148 -188l-46 -322h-90l43 302c14 103 -30 128 -88 128c-63 0 -151 -45 -172 -193l-33 -237h-90l70 500h90l-11 -81c34 44 93 91 179 91z" />
    <glyph glyph-name="ncaron" unicode="&#x148;" horiz-adv-x="579" 
d="M370 580h-70l-106 160h100l49 -103l78 103h100zM367 510c102 0 167 -51 148 -188l-46 -322h-90l43 302c14 103 -30 128 -88 128c-63 0 -151 -45 -172 -193l-33 -237h-90l70 500h90l-11 -81c34 44 93 91 179 91z" />
    <glyph glyph-name="ncommaaccent" unicode="&#x146;" horiz-adv-x="579" 
d="M367 510c102 0 167 -51 148 -188l-46 -322h-90l43 302c14 103 -30 128 -88 128c-63 0 -151 -45 -172 -193l-33 -237h-90l70 500h90l-11 -81c34 44 93 91 179 91zM151 -257l68 157h91l-102 -157h-57z" />
    <glyph glyph-name="eng" unicode="&#x14b;" horiz-adv-x="579" 
d="M367 510c102 0 167 -51 148 -188l-54 -381c-13 -95 -93 -171 -209 -171l11 75c61 0 99 31 110 111l49 346c14 103 -29 128 -87 128c-63 0 -152 -45 -172 -193l-34 -237h-90l71 500h90l-12 -81c34 44 93 91 179 91z" />
    <glyph glyph-name="ntilde" unicode="&#xf1;" horiz-adv-x="579" 
d="M278 659c-34 0 -48 -27 -63 -64h-60c23 97 78 134 132 134c79 0 82 -64 130 -64c34 0 48 27 63 64h60c-23 -97 -78 -134 -132 -134c-79 0 -83 64 -130 64zM367 510c102 0 167 -51 148 -188l-46 -322h-90l43 302c14 103 -30 128 -88 128c-63 0 -151 -45 -172 -193
l-33 -237h-90l70 500h90l-11 -81c34 44 93 91 179 91z" />
    <glyph glyph-name="o" unicode="o" horiz-adv-x="561" 
d="M245 -10c-115 0 -203 76 -203 222c0 177 129 298 274 298c115 0 203 -75 203 -222c0 -177 -129 -298 -274 -298zM254 65c94 0 165 90 165 220c0 106 -46 150 -113 150c-94 0 -164 -90 -164 -221c0 -106 46 -149 112 -149z" />
    <glyph glyph-name="oacute" unicode="&#xf3;" horiz-adv-x="561" 
d="M297 580l109 160h110l-149 -160h-70zM245 -10c-115 0 -203 76 -203 222c0 177 129 298 274 298c115 0 203 -75 203 -222c0 -177 -129 -298 -274 -298zM254 65c94 0 165 90 165 220c0 106 -46 150 -113 150c-94 0 -164 -90 -164 -221c0 -106 46 -149 112 -149z" />
    <glyph glyph-name="uni01D2" unicode="&#x1d2;" horiz-adv-x="561" 
d="M362 580h-70l-106 160h100l49 -103l78 103h100zM316 510c115 0 203 -75 203 -222c0 -177 -129 -298 -274 -298c-115 0 -203 76 -203 222c0 177 129 298 274 298zM254 65c94 0 165 90 165 220c0 106 -46 150 -113 150c-94 0 -164 -90 -164 -221c0 -106 46 -149 112 -149z
" />
    <glyph glyph-name="ocircumflex" unicode="&#xf4;" horiz-adv-x="561" 
d="M341 683l-77 -103h-100l150 160h70l107 -160h-100zM316 510c115 0 203 -75 203 -222c0 -177 -129 -298 -274 -298c-115 0 -203 76 -203 222c0 177 129 298 274 298zM254 65c94 0 165 90 165 220c0 106 -46 150 -113 150c-94 0 -164 -90 -164 -221
c0 -106 46 -149 112 -149z" />
    <glyph glyph-name="uni1ED1" unicode="&#x1ed1;" horiz-adv-x="561" 
d="M577 850h110l-150 -160h-70zM342 683l-78 -103h-100l151 160h70l106 -160h-100zM316 510c115 0 203 -75 203 -222c0 -177 -129 -298 -274 -298c-115 0 -203 76 -203 222c0 177 129 298 274 298zM254 65c94 0 165 90 165 220c0 106 -46 150 -113 150
c-94 0 -164 -90 -164 -221c0 -106 46 -149 112 -149z" />
    <glyph glyph-name="uni1ED9" unicode="&#x1ed9;" horiz-adv-x="561" 
d="M341 683l-77 -103h-100l150 160h70l107 -160h-100zM316 510c115 0 203 -75 203 -222c0 -177 -129 -298 -274 -298c-115 0 -203 76 -203 222c0 177 129 298 274 298zM254 65c94 0 165 90 165 220c0 106 -46 150 -113 150c-94 0 -164 -90 -164 -221
c0 -106 46 -149 112 -149zM231 -100c33 0 56 -28 52 -60c-5 -33 -35 -60 -68 -60c-32 0 -57 27 -52 60c4 32 36 60 68 60z" />
    <glyph glyph-name="uni1ED3" unicode="&#x1ed3;" horiz-adv-x="561" 
d="M557 690h-70l-103 160h110zM342 683l-78 -103h-100l151 160h70l106 -160h-100zM316 510c115 0 203 -75 203 -222c0 -177 -129 -298 -274 -298c-115 0 -203 76 -203 222c0 177 129 298 274 298zM254 65c94 0 165 90 165 220c0 106 -46 150 -113 150
c-94 0 -164 -90 -164 -221c0 -106 46 -149 112 -149z" />
    <glyph glyph-name="uni1ED5" unicode="&#x1ed5;" horiz-adv-x="561" 
d="M519 860c50 0 91 -30 83 -87c-9 -65 -81 -72 -87 -115h-50c9 63 71 70 77 115c4 25 -10 38 -30 38s-37 -13 -46 -38h-55c13 57 58 87 108 87zM342 683l-78 -103h-100l151 160h70l106 -160h-100zM316 510c115 0 203 -75 203 -222c0 -177 -129 -298 -274 -298
c-115 0 -203 76 -203 222c0 177 129 298 274 298zM254 65c94 0 165 90 165 220c0 106 -46 150 -113 150c-94 0 -164 -90 -164 -221c0 -106 46 -149 112 -149z" />
    <glyph glyph-name="uni1ED7" unicode="&#x1ed7;" horiz-adv-x="561" 
d="M772 839h60c-23 -97 -79 -134 -133 -134c-79 0 -83 64 -130 64c-34 0 -47 -27 -63 -64h-60c24 97 79 134 133 134c79 0 82 -64 130 -64c34 0 48 27 63 64zM341 683l-77 -103h-100l150 160h70l107 -160h-100zM316 510c115 0 203 -75 203 -222c0 -177 -129 -298 -274 -298
c-115 0 -203 76 -203 222c0 177 129 298 274 298zM254 65c94 0 165 90 165 220c0 106 -46 150 -113 150c-94 0 -164 -90 -164 -221c0 -106 46 -149 112 -149z" />
    <glyph glyph-name="odieresis" unicode="&#xf6;" horiz-adv-x="561" 
d="M232 615c-29 0 -49 22 -49 51c0 32 31 64 65 64c29 0 49 -23 49 -50c0 -35 -32 -65 -65 -65zM432 615c-29 0 -49 22 -49 51c0 32 31 64 65 64c29 0 49 -23 49 -50c0 -35 -32 -65 -65 -65zM245 -10c-115 0 -203 76 -203 222c0 177 129 298 274 298c115 0 203 -75 203 -222
c0 -177 -129 -298 -274 -298zM254 65c94 0 165 90 165 220c0 106 -46 150 -113 150c-94 0 -164 -90 -164 -221c0 -106 46 -149 112 -149z" />
    <glyph glyph-name="uni1ECD" unicode="&#x1ecd;" horiz-adv-x="561" 
d="M245 -10c-115 0 -203 76 -203 222c0 177 129 298 274 298c115 0 203 -75 203 -222c0 -177 -129 -298 -274 -298zM254 65c94 0 165 90 165 220c0 106 -46 150 -113 150c-94 0 -164 -90 -164 -221c0 -106 46 -149 112 -149zM215 -220c-32 0 -57 27 -52 60c4 32 36 60 68 60
c33 0 56 -28 52 -60c-5 -33 -35 -60 -68 -60z" />
    <glyph glyph-name="ograve" unicode="&#xf2;" horiz-adv-x="561" 
d="M387 580h-70l-105 160h110zM245 -10c-115 0 -203 76 -203 222c0 177 129 298 274 298c115 0 203 -75 203 -222c0 -177 -129 -298 -274 -298zM254 65c94 0 165 90 165 220c0 106 -46 150 -113 150c-94 0 -164 -90 -164 -221c0 -106 46 -149 112 -149z" />
    <glyph glyph-name="uni1ECF" unicode="&#x1ecf;" horiz-adv-x="561" 
d="M341 701c-20 0 -37 -13 -45 -38h-55c13 57 57 87 107 87s91 -30 83 -87c-9 -65 -80 -72 -86 -115h-50c9 63 70 70 76 115c3 25 -10 38 -30 38zM316 510c115 0 203 -75 203 -222c0 -177 -129 -298 -274 -298c-115 0 -203 76 -203 222c0 177 129 298 274 298zM254 65
c94 0 165 90 165 220c0 106 -46 150 -113 150c-94 0 -164 -90 -164 -221c0 -106 46 -149 112 -149z" />
    <glyph glyph-name="ohorn" unicode="&#x1a1;" horiz-adv-x="641" 
d="M560 500h90c-1 -10 -1 -20 -3 -30c-9 -69 -62 -129 -129 -153c1 -10 1 -19 1 -29c0 -177 -129 -298 -274 -298c-115 0 -203 76 -203 222c0 177 129 298 274 298c87 0 159 -43 188 -128c31 16 48 49 53 88c2 10 2 20 3 30zM254 65c94 0 165 90 165 220
c0 106 -46 150 -113 150c-94 0 -164 -90 -164 -221c0 -106 46 -149 112 -149z" />
    <glyph glyph-name="uni1EDB" unicode="&#x1edb;" horiz-adv-x="641" 
d="M516 740l-149 -160h-70l109 160h110zM560 500h90c-1 -10 -1 -20 -3 -30c-9 -69 -62 -129 -129 -153c1 -10 1 -19 1 -29c0 -177 -129 -298 -274 -298c-115 0 -203 76 -203 222c0 177 129 298 274 298c87 0 159 -43 188 -128c31 16 48 49 53 88c2 10 2 20 3 30zM254 65
c94 0 165 90 165 220c0 106 -46 150 -113 150c-94 0 -164 -90 -164 -221c0 -106 46 -149 112 -149z" />
    <glyph glyph-name="uni1EE3" unicode="&#x1ee3;" horiz-adv-x="641" 
d="M560 500h90c-1 -10 -1 -20 -3 -30c-9 -69 -62 -129 -129 -153c1 -10 1 -19 1 -29c0 -177 -129 -298 -274 -298c-115 0 -203 76 -203 222c0 177 129 298 274 298c87 0 159 -43 188 -128c31 16 48 49 53 88c2 10 2 20 3 30zM254 65c94 0 165 90 165 220
c0 106 -46 150 -113 150c-94 0 -164 -90 -164 -221c0 -106 46 -149 112 -149zM231 -100c33 0 56 -28 52 -60c-5 -33 -35 -60 -68 -60c-32 0 -57 27 -52 60c4 32 36 60 68 60z" />
    <glyph glyph-name="uni1EDD" unicode="&#x1edd;" horiz-adv-x="641" 
d="M387 580h-70l-105 160h110zM560 500h90c-1 -10 -1 -20 -3 -30c-9 -69 -62 -129 -129 -153c1 -10 1 -19 1 -29c0 -177 -129 -298 -274 -298c-115 0 -203 76 -203 222c0 177 129 298 274 298c87 0 159 -43 188 -128c31 16 48 49 53 88c2 10 2 20 3 30zM254 65
c94 0 165 90 165 220c0 106 -46 150 -113 150c-94 0 -164 -90 -164 -221c0 -106 46 -149 112 -149z" />
    <glyph glyph-name="uni1EDF" unicode="&#x1edf;" horiz-adv-x="641" 
d="M341 701c-20 0 -37 -13 -45 -38h-55c13 57 57 87 107 87s91 -30 83 -87c-9 -65 -80 -72 -86 -115h-50c9 63 70 70 76 115c3 25 -10 38 -30 38zM560 500h90c-1 -10 -1 -20 -3 -30c-9 -69 -62 -129 -129 -153c1 -10 1 -19 1 -29c0 -177 -129 -298 -274 -298
c-115 0 -203 76 -203 222c0 177 129 298 274 298c87 0 159 -43 188 -128c31 16 48 49 53 88c2 10 2 20 3 30zM254 65c94 0 165 90 165 220c0 106 -46 150 -113 150c-94 0 -164 -90 -164 -221c0 -106 46 -149 112 -149z" />
    <glyph glyph-name="uni1EE1" unicode="&#x1ee1;" horiz-adv-x="641" 
d="M270 659c-34 0 -48 -27 -63 -64h-60c23 97 78 134 132 134c79 0 82 -64 130 -64c34 0 48 27 63 64h60c-23 -97 -78 -134 -132 -134c-79 0 -83 64 -130 64zM560 500h90c-1 -10 -1 -20 -3 -30c-9 -69 -62 -129 -129 -153c1 -10 1 -19 1 -29c0 -177 -129 -298 -274 -298
c-115 0 -203 76 -203 222c0 177 129 298 274 298c87 0 159 -43 188 -128c31 16 48 49 53 88c2 10 2 20 3 30zM254 65c94 0 165 90 165 220c0 106 -46 150 -113 150c-94 0 -164 -90 -164 -221c0 -106 46 -149 112 -149z" />
    <glyph glyph-name="ohungarumlaut" unicode="&#x151;" horiz-adv-x="561" 
d="M207 580l109 160h110l-149 -160h-70zM377 580l109 160h110l-149 -160h-70zM245 -10c-115 0 -203 76 -203 222c0 177 129 298 274 298c115 0 203 -75 203 -222c0 -177 -129 -298 -274 -298zM254 65c94 0 165 90 165 220c0 106 -46 150 -113 150c-94 0 -164 -90 -164 -221
c0 -106 46 -149 112 -149z" />
    <glyph glyph-name="omacron" unicode="&#x14d;" horiz-adv-x="561" 
d="M176 630l10 70h317l-10 -70h-317zM245 -10c-115 0 -203 76 -203 222c0 177 129 298 274 298c115 0 203 -75 203 -222c0 -177 -129 -298 -274 -298zM254 65c94 0 165 90 165 220c0 106 -46 150 -113 150c-94 0 -164 -90 -164 -221c0 -106 46 -149 112 -149z" />
    <glyph glyph-name="oslash" unicode="&#xf8;" horiz-adv-x="558" 
d="M452 462c42 -37 67 -95 65 -173c-4 -171 -121 -299 -275 -299c-37 0 -71 8 -101 23l-29 -42l-47 33l31 44c-36 38 -56 92 -54 163c4 171 121 299 274 299c32 0 61 -6 87 -17l25 36l47 -34zM137 213c-1 -34 4 -62 14 -84l205 296c-15 7 -33 10 -51 10
c-102 0 -165 -101 -168 -222zM422 287c1 43 -7 75 -22 99l-211 -303c18 -12 40 -18 64 -18c103 0 166 101 169 222z" />
    <glyph glyph-name="otilde" unicode="&#xf5;" horiz-adv-x="561" 
d="M270 659c-34 0 -48 -27 -63 -64h-60c23 97 78 134 132 134c79 0 82 -64 130 -64c34 0 48 27 63 64h60c-23 -97 -78 -134 -132 -134c-79 0 -83 64 -130 64zM316 510c115 0 203 -75 203 -222c0 -177 -129 -298 -274 -298c-115 0 -203 76 -203 222c0 177 129 298 274 298z
M254 65c94 0 165 90 165 220c0 106 -46 150 -113 150c-94 0 -164 -90 -164 -221c0 -106 46 -149 112 -149z" />
    <glyph glyph-name="oe" unicode="&#x153;" horiz-adv-x="909" 
d="M865 250h-341c-1 -11 -2 -22 -2 -34c0 -107 46 -151 111 -151c53 0 109 22 131 90h85c-31 -115 -127 -165 -227 -165c-74 0 -137 33 -172 98c-51 -62 -126 -98 -205 -98c-115 0 -203 76 -203 222c0 177 129 298 274 298c75 0 139 -32 174 -96c50 60 123 96 204 96
c92 0 176 -45 176 -194c0 -17 -1 -40 -5 -66zM679 440c-70 0 -120 -52 -143 -125h235c0 73 -21 125 -92 125zM254 65c94 0 165 90 165 220c0 106 -46 150 -113 150c-94 0 -164 -90 -164 -221c0 -106 46 -149 112 -149z" />
    <glyph glyph-name="p" unicode="p" horiz-adv-x="580" 
d="M350 510c107 0 188 -78 188 -221c0 -176 -126 -299 -260 -299c-65 0 -110 28 -139 78l-41 -288h-90l101 720h90l-9 -68c43 50 97 78 160 78zM278 65c88 0 160 89 160 221c0 104 -45 149 -108 149c-86 0 -169 -84 -169 -217c0 -105 53 -153 117 -153z" />
    <glyph glyph-name="thorn" unicode="&#xfe;" horiz-adv-x="580" 
d="M350 510c107 0 188 -78 188 -221c0 -176 -126 -299 -260 -299c-65 0 -110 28 -139 78l-41 -288h-90l101 720l34 240h90l-34 -240l-9 -68c43 50 97 78 160 78zM278 65c88 0 160 89 160 221c0 104 -45 149 -108 149c-86 0 -169 -84 -169 -217c0 -105 53 -153 117 -153z" />
    <glyph glyph-name="q" unicode="q" horiz-adv-x="573" 
d="M455 500h90l-101 -720h-90l40 288c-43 -50 -97 -78 -160 -78c-107 0 -188 79 -188 221c0 176 125 299 260 299c65 0 110 -28 139 -78zM254 65c86 0 169 85 169 217c0 106 -53 153 -117 153c-88 0 -160 -89 -160 -221c0 -104 45 -149 108 -149z" />
    <glyph glyph-name="r" unicode="r" horiz-adv-x="351" 
d="M185 399c48 71 100 111 178 111l-12 -85c-68 0 -169 -56 -191 -212l-31 -213h-90l70 500h90z" />
    <glyph glyph-name="racute" unicode="&#x155;" horiz-adv-x="351" 
d="M185 580l109 160h110l-149 -160h-70zM185 399c48 71 100 111 178 111l-12 -85c-68 0 -169 -56 -191 -212l-31 -213h-90l70 500h90z" />
    <glyph glyph-name="rcaron" unicode="&#x159;" horiz-adv-x="351" 
d="M250 580h-70l-106 160h100l49 -103l78 103h100zM185 399c48 71 100 111 178 111l-12 -85c-68 0 -169 -56 -191 -212l-31 -213h-90l70 500h90z" />
    <glyph glyph-name="rcommaaccent" unicode="&#x157;" horiz-adv-x="351" 
d="M185 399c48 71 100 111 178 111l-12 -85c-68 0 -169 -56 -191 -212l-31 -213h-90l70 500h90zM-25 -257l68 157h91l-102 -157h-57z" />
    <glyph glyph-name="s" unicode="s" horiz-adv-x="458" 
d="M168 368c0 -100 231 -46 231 -213c0 -114 -105 -165 -223 -165c-58 0 -115 13 -152 30l12 85c38 -20 90 -40 148 -40c71 0 117 31 117 73c0 95 -231 50 -231 212c0 103 90 160 215 160c59 0 102 -13 140 -30l-12 -80c-40 21 -87 40 -139 40c-66 0 -106 -30 -106 -72z" />
    <glyph glyph-name="sacute" unicode="&#x15b;" horiz-adv-x="458" 
d="M258 580l109 160h110l-149 -160h-70zM168 368c0 -100 231 -46 231 -213c0 -114 -105 -165 -223 -165c-58 0 -115 13 -152 30l12 85c38 -20 90 -40 148 -40c71 0 117 31 117 73c0 95 -231 50 -231 212c0 103 90 160 215 160c59 0 102 -13 140 -30l-12 -80
c-40 21 -87 40 -139 40c-66 0 -106 -30 -106 -72z" />
    <glyph glyph-name="scaron" unicode="&#x161;" horiz-adv-x="458" 
d="M323 580h-70l-106 160h100l49 -103l78 103h100zM70 350c0 103 90 160 215 160c59 0 102 -13 140 -30l-12 -80c-40 21 -87 40 -139 40c-66 0 -106 -30 -106 -72c0 -100 231 -46 231 -213c0 -114 -105 -165 -223 -165c-58 0 -115 13 -152 30l12 85c38 -20 90 -40 148 -40
c71 0 117 31 117 73c0 95 -231 50 -231 212z" />
    <glyph glyph-name="scedilla" unicode="&#x15f;" horiz-adv-x="458" 
d="M274 440c-66 0 -106 -30 -106 -72c0 -100 231 -46 231 -213c0 -102 -83 -153 -185 -163l-23 -52c69 13 116 -14 108 -74c-9 -62 -68 -96 -129 -96c-34 0 -53 7 -74 19l7 52c21 -13 40 -21 64 -21c30 0 57 12 61 41c7 51 -65 42 -119 24l49 105c-52 3 -101 15 -134 30
l12 85c38 -20 90 -40 148 -40c71 0 117 31 117 73c0 95 -231 50 -231 212c0 103 90 160 215 160c59 0 102 -13 140 -30l-12 -80c-40 21 -87 40 -139 40z" />
    <glyph glyph-name="scommaaccent" unicode="&#x219;" horiz-adv-x="458" 
d="M168 368c0 -100 231 -46 231 -213c0 -114 -105 -165 -223 -165c-58 0 -115 13 -152 30l12 85c38 -20 90 -40 148 -40c71 0 117 31 117 73c0 95 -231 50 -231 212c0 103 90 160 215 160c59 0 102 -13 140 -30l-12 -80c-40 21 -87 40 -139 40c-66 0 -106 -30 -106 -72z
M89 -257l68 157h91l-102 -157h-57z" />
    <glyph glyph-name="germandbls" unicode="&#xdf;" horiz-adv-x="589" 
d="M323 -10c-38 0 -74 6 -105 18l12 80c27 -16 71 -23 101 -23c58 0 107 27 107 83c0 89 -124 87 -124 212c0 111 99 122 99 232c0 66 -37 83 -75 83c-43 0 -90 -22 -106 -133l-76 -542h-90l60 425h-77l11 75h77l8 57c20 145 120 193 204 193c76 0 156 -39 156 -151
c0 -125 -99 -146 -99 -221c0 -83 125 -69 125 -209c0 -121 -93 -179 -208 -179z" />
    <glyph glyph-name="uni0259" unicode="&#x259;" horiz-adv-x="530" 
d="M294 510c115 0 194 -74 194 -219c0 -181 -124 -301 -271 -301c-110 0 -201 67 -173 260h342c1 14 2 28 2 42c0 97 -34 143 -105 143c-55 0 -115 -28 -137 -100h-85c31 117 130 175 233 175zM233 60c68 0 117 51 140 125h-234c-5 -70 24 -125 94 -125z" />
    <glyph glyph-name="t" unicode="t" horiz-adv-x="394" 
d="M374 425h-158l-36 -259c-11 -80 22 -101 66 -101c29 0 59 9 80 18l-10 -75c-24 -10 -57 -18 -91 -18c-85 0 -153 46 -137 161l38 274h-77l11 75h77l15 110l96 40l-21 -150h158z" />
    <glyph glyph-name="tbar" unicode="&#x167;" horiz-adv-x="394" 
d="M374 425h-158l-15 -107h145l-10 -70h-145l-11 -82c-11 -80 22 -101 66 -101c29 0 59 9 80 18l-10 -75c-24 -10 -57 -18 -91 -18c-85 0 -153 46 -137 161l13 97h-79l10 70h79l15 107h-77l11 75h77l15 110l96 40l-21 -150h158z" />
    <glyph glyph-name="tcaron" unicode="&#x165;" horiz-adv-x="384" 
d="M333 560l26 180h90l-56 -180h-60zM374 425h-158l-36 -259c-11 -80 22 -101 66 -101c29 0 59 9 80 18l-10 -75c-24 -10 -57 -18 -91 -18c-85 0 -153 46 -137 161l38 274h-77l11 75h77l15 110l96 40l-21 -150h158z" />
    <glyph glyph-name="uni0163" unicode="&#x163;" horiz-adv-x="394" 
d="M216 425l-36 -259c-11 -80 22 -101 66 -101c29 0 59 9 80 18l-10 -75c-23 -9 -53 -17 -85 -18l-22 -50c69 13 116 -14 108 -74c-9 -62 -68 -96 -129 -96c-34 0 -53 7 -74 19l7 52c21 -13 40 -21 64 -21c30 0 57 12 61 41c7 51 -65 42 -119 24l51 110
c-61 15 -103 63 -90 156l38 274h-77l11 75h77l15 110l96 40l-21 -150h158l-11 -75h-158z" />
    <glyph glyph-name="uni021B" unicode="&#x21b;" horiz-adv-x="394" 
d="M374 425h-158l-36 -259c-11 -80 22 -101 66 -101c29 0 59 9 80 18l-10 -75c-24 -10 -57 -18 -91 -18c-85 0 -153 46 -137 161l38 274h-77l11 75h77l15 110l96 40l-21 -150h158zM107 -257l68 157h91l-102 -157h-57z" />
    <glyph glyph-name="u" unicode="u" horiz-adv-x="569" 
d="M208 -10c-97 0 -163 51 -144 188l45 322h90l-42 -302c-15 -103 20 -128 77 -128c64 0 152 45 172 193l33 237h90l-70 -500h-90l12 81c-34 -44 -93 -91 -173 -91z" />
    <glyph glyph-name="uacute" unicode="&#xfa;" horiz-adv-x="569" 
d="M300 580l109 160h110l-149 -160h-70zM208 -10c-97 0 -163 51 -144 188l45 322h90l-42 -302c-15 -103 20 -128 77 -128c64 0 152 45 172 193l33 237h90l-70 -500h-90l12 81c-34 -44 -93 -91 -173 -91z" />
    <glyph glyph-name="uni01D4" unicode="&#x1d4;" horiz-adv-x="569" 
d="M365 580h-70l-106 160h100l49 -103l78 103h100zM439 500h90l-70 -500h-90l12 81c-34 -44 -93 -91 -173 -91c-97 0 -163 51 -144 188l45 322h90l-42 -302c-15 -103 20 -128 77 -128c64 0 152 45 172 193z" />
    <glyph glyph-name="ucircumflex" unicode="&#xfb;" horiz-adv-x="569" 
d="M344 683l-77 -103h-100l150 160h70l107 -160h-100zM439 500h90l-70 -500h-90l12 81c-34 -44 -93 -91 -173 -91c-97 0 -163 51 -144 188l45 322h90l-42 -302c-15 -103 20 -128 77 -128c64 0 152 45 172 193z" />
    <glyph glyph-name="udieresis" unicode="&#xfc;" horiz-adv-x="569" 
d="M235 615c-29 0 -49 22 -49 51c0 32 31 64 65 64c29 0 49 -23 49 -50c0 -35 -32 -65 -65 -65zM435 615c-29 0 -49 22 -49 51c0 32 31 64 65 64c29 0 49 -23 49 -50c0 -35 -32 -65 -65 -65zM208 -10c-97 0 -163 51 -144 188l45 322h90l-42 -302c-15 -103 20 -128 77 -128
c64 0 152 45 172 193l33 237h90l-70 -500h-90l12 81c-34 -44 -93 -91 -173 -91z" />
    <glyph glyph-name="uni01D8" unicode="&#x1d8;" horiz-adv-x="569" 
d="M322 740l109 160h110l-149 -160h-70zM235 615c-29 0 -49 22 -49 51c0 32 31 64 65 64c29 0 49 -23 49 -50c0 -35 -32 -65 -65 -65zM435 615c-29 0 -49 22 -49 51c0 32 31 64 65 64c29 0 49 -23 49 -50c0 -35 -32 -65 -65 -65zM208 -10c-97 0 -163 51 -144 188l45 322h90
l-42 -302c-15 -103 20 -128 77 -128c64 0 152 45 172 193l33 237h90l-70 -500h-90l12 81c-34 -44 -93 -91 -173 -91z" />
    <glyph glyph-name="uni01DA" unicode="&#x1da;" horiz-adv-x="569" 
d="M387 740h-70l-106 160h100l49 -103l78 103h100zM235 615c-29 0 -49 22 -49 51c0 32 31 64 65 64c29 0 49 -23 49 -50c0 -35 -32 -65 -65 -65zM386 666c0 32 31 64 65 64c29 0 49 -23 49 -50c0 -35 -32 -65 -65 -65c-29 0 -49 22 -49 51zM406 263l33 237h90l-70 -500h-90
l12 81c-34 -44 -93 -91 -173 -91c-97 0 -163 51 -144 188l45 322h90l-42 -302c-15 -103 20 -128 77 -128c64 0 152 45 172 193z" />
    <glyph glyph-name="uni01DC" unicode="&#x1dc;" horiz-adv-x="569" 
d="M412 740h-70l-105 160h110zM235 615c-29 0 -49 22 -49 51c0 32 31 64 65 64c29 0 49 -23 49 -50c0 -35 -32 -65 -65 -65zM435 615c-29 0 -49 22 -49 51c0 32 31 64 65 64c29 0 49 -23 49 -50c0 -35 -32 -65 -65 -65zM208 -10c-97 0 -163 51 -144 188l45 322h90l-42 -302
c-15 -103 20 -128 77 -128c64 0 152 45 172 193l33 237h90l-70 -500h-90l12 81c-34 -44 -93 -91 -173 -91z" />
    <glyph glyph-name="uni01D6" unicode="&#x1d6;" horiz-adv-x="569" 
d="M201 790l10 70h317l-10 -70h-317zM235 615c-29 0 -49 22 -49 51c0 32 31 64 65 64c29 0 49 -23 49 -50c0 -35 -32 -65 -65 -65zM435 615c-29 0 -49 22 -49 51c0 32 31 64 65 64c29 0 49 -23 49 -50c0 -35 -32 -65 -65 -65zM208 -10c-97 0 -163 51 -144 188l45 322h90
l-42 -302c-15 -103 20 -128 77 -128c64 0 152 45 172 193l33 237h90l-70 -500h-90l12 81c-34 -44 -93 -91 -173 -91z" />
    <glyph glyph-name="uni1EE5" unicode="&#x1ee5;" horiz-adv-x="569" 
d="M208 -10c-97 0 -163 51 -144 188l45 322h90l-42 -302c-15 -103 20 -128 77 -128c64 0 152 45 172 193l33 237h90l-70 -500h-90l12 81c-34 -44 -93 -91 -173 -91zM219 -220c-32 0 -57 27 -52 60c4 32 36 60 68 60c33 0 56 -28 52 -60c-5 -33 -35 -60 -68 -60z" />
    <glyph glyph-name="ugrave" unicode="&#xf9;" horiz-adv-x="569" 
d="M390 580h-70l-105 160h110zM208 -10c-97 0 -163 51 -144 188l45 322h90l-42 -302c-15 -103 20 -128 77 -128c64 0 152 45 172 193l33 237h90l-70 -500h-90l12 81c-34 -44 -93 -91 -173 -91z" />
    <glyph glyph-name="uni1EE7" unicode="&#x1ee7;" horiz-adv-x="569" 
d="M344 701c-20 0 -37 -13 -45 -38h-55c13 57 57 87 107 87s91 -30 83 -87c-9 -65 -80 -72 -86 -115h-50c9 63 70 70 76 115c3 25 -10 38 -30 38zM439 500h90l-70 -500h-90l12 81c-34 -44 -93 -91 -173 -91c-97 0 -163 51 -144 188l45 322h90l-42 -302
c-15 -103 20 -128 77 -128c64 0 152 45 172 193z" />
    <glyph glyph-name="uhorn" unicode="&#x1b0;" horiz-adv-x="687" 
d="M606 500h90c-1 -10 -1 -20 -3 -30c-12 -89 -96 -163 -191 -165l-43 -305h-90l12 81c-34 -44 -93 -91 -173 -91c-97 0 -163 51 -144 188l45 322h90l-42 -302c-15 -103 20 -128 77 -128c64 0 152 45 172 193l33 237h90l-18 -127c55 2 85 43 92 97c2 10 2 20 3 30z" />
    <glyph glyph-name="uni1EE9" unicode="&#x1ee9;" horiz-adv-x="687" 
d="M519 740l-149 -160h-70l109 160h110zM606 500h90c-1 -10 -1 -20 -3 -30c-12 -89 -96 -163 -191 -165l-43 -305h-90l12 81c-34 -44 -93 -91 -173 -91c-97 0 -163 51 -144 188l45 322h90l-42 -302c-15 -103 20 -128 77 -128c64 0 152 45 172 193l33 237h90l-18 -127
c55 2 85 43 92 97c2 10 2 20 3 30z" />
    <glyph glyph-name="uni1EF1" unicode="&#x1ef1;" horiz-adv-x="687" 
d="M606 500h90c-1 -10 -1 -20 -3 -30c-12 -89 -96 -163 -191 -165l-43 -305h-90l12 81c-34 -44 -93 -91 -173 -91c-97 0 -163 51 -144 188l45 322h90l-42 -302c-15 -103 20 -128 77 -128c64 0 152 45 172 193l33 237h90l-18 -127c55 2 85 43 92 97c2 10 2 20 3 30zM235 -100
c33 0 56 -28 52 -60c-5 -33 -35 -60 -68 -60c-32 0 -57 27 -52 60c4 32 36 60 68 60z" />
    <glyph glyph-name="uni1EEB" unicode="&#x1eeb;" horiz-adv-x="687" 
d="M390 580h-70l-105 160h110zM606 500h90c-1 -10 -1 -20 -3 -30c-12 -89 -96 -163 -191 -165l-43 -305h-90l12 81c-34 -44 -93 -91 -173 -91c-97 0 -163 51 -144 188l45 322h90l-42 -302c-15 -103 20 -128 77 -128c64 0 152 45 172 193l33 237h90l-18 -127
c55 2 85 43 92 97c2 10 2 20 3 30z" />
    <glyph glyph-name="uni1EED" unicode="&#x1eed;" horiz-adv-x="687" 
d="M344 701c-20 0 -37 -13 -45 -38h-55c13 57 57 87 107 87s91 -30 83 -87c-9 -65 -80 -72 -86 -115h-50c9 63 70 70 76 115c3 25 -10 38 -30 38zM606 500h90c-1 -10 -1 -20 -3 -30c-12 -89 -96 -163 -191 -165l-43 -305h-90l12 81c-34 -44 -93 -91 -173 -91
c-97 0 -163 51 -144 188l45 322h90l-42 -302c-15 -103 20 -128 77 -128c64 0 152 45 172 193l33 237h90l-18 -127c55 2 85 43 92 97c2 10 2 20 3 30z" />
    <glyph glyph-name="uni1EEF" unicode="&#x1eef;" horiz-adv-x="687" 
d="M273 659c-34 0 -48 -27 -63 -64h-60c23 97 78 134 132 134c79 0 82 -64 130 -64c34 0 48 27 63 64h60c-23 -97 -78 -134 -132 -134c-79 0 -83 64 -130 64zM606 500h90c-1 -10 -1 -20 -3 -30c-12 -89 -96 -163 -191 -165l-43 -305h-90l12 81c-34 -44 -93 -91 -173 -91
c-97 0 -163 51 -144 188l45 322h90l-42 -302c-15 -103 20 -128 77 -128c64 0 152 45 172 193l33 237h90l-18 -127c55 2 85 43 92 97c2 10 2 20 3 30z" />
    <glyph glyph-name="uhungarumlaut" unicode="&#x171;" horiz-adv-x="569" 
d="M210 580l109 160h110l-149 -160h-70zM380 580l109 160h110l-149 -160h-70zM208 -10c-97 0 -163 51 -144 188l45 322h90l-42 -302c-15 -103 20 -128 77 -128c64 0 152 45 172 193l33 237h90l-70 -500h-90l12 81c-34 -44 -93 -91 -173 -91z" />
    <glyph glyph-name="umacron" unicode="&#x16b;" horiz-adv-x="569" 
d="M179 630l10 70h317l-10 -70h-317zM208 -10c-97 0 -163 51 -144 188l45 322h90l-42 -302c-15 -103 20 -128 77 -128c64 0 152 45 172 193l33 237h90l-70 -500h-90l12 81c-34 -44 -93 -91 -173 -91z" />
    <glyph glyph-name="uogonek" unicode="&#x173;" horiz-adv-x="569" 
d="M439 500h90l-70 -500h-13c-51 -29 -102 -72 -102 -117c0 -25 16 -48 50 -48c16 0 35 5 51 11l-9 -60c-23 -11 -49 -16 -72 -16c-65 0 -108 38 -108 91c0 51 48 105 114 143l11 77c-34 -44 -93 -91 -173 -91c-97 0 -163 51 -144 188l45 322h90l-42 -302
c-15 -103 20 -128 77 -128c64 0 152 45 172 193z" />
    <glyph glyph-name="uring" unicode="&#x16f;" horiz-adv-x="569" 
d="M327 555c-61 0 -104 49 -95 110s64 110 125 110s104 -49 95 -110s-64 -110 -125 -110zM335 613c29 0 53 24 57 52s-14 52 -43 52s-53 -24 -57 -52s14 -52 43 -52zM208 -10c-97 0 -163 51 -144 188l45 322h90l-42 -302c-15 -103 20 -128 77 -128c64 0 152 45 172 193
l33 237h90l-70 -500h-90l12 81c-34 -44 -93 -91 -173 -91z" />
    <glyph glyph-name="utilde" unicode="&#x169;" horiz-adv-x="569" 
d="M273 659c-34 0 -48 -27 -63 -64h-60c23 97 78 134 132 134c79 0 82 -64 130 -64c34 0 48 27 63 64h60c-23 -97 -78 -134 -132 -134c-79 0 -83 64 -130 64zM406 263l33 237h90l-70 -500h-90l12 81c-34 -44 -93 -91 -173 -91c-97 0 -163 51 -144 188l45 322h90l-42 -302
c-15 -103 20 -128 77 -128c64 0 152 45 172 193z" />
    <glyph glyph-name="v" unicode="v" horiz-adv-x="488" 
d="M418 500h100l-262 -500h-80l-136 500h105l88 -372z" />
    <glyph glyph-name="w" unicode="w" horiz-adv-x="762" 
d="M692 500h95l-240 -500h-72l-80 354l-177 -354h-76l-97 500h100l58 -372l164 342h90l68 -342z" />
    <glyph glyph-name="wacute" unicode="&#x1e83;" horiz-adv-x="762" 
d="M397 580l109 160h110l-149 -160h-70zM692 500h95l-240 -500h-72l-80 354l-177 -354h-76l-97 500h100l58 -372l164 342h90l68 -342z" />
    <glyph glyph-name="wcircumflex" unicode="&#x175;" horiz-adv-x="762" 
d="M441 683l-77 -103h-100l150 160h70l107 -160h-100zM692 500h95l-240 -500h-72l-80 354l-177 -354h-76l-97 500h100l58 -372l164 342h90l68 -342z" />
    <glyph glyph-name="wdieresis" unicode="&#x1e85;" horiz-adv-x="762" 
d="M332 615c-29 0 -49 22 -49 51c0 32 31 64 65 64c29 0 49 -23 49 -50c0 -35 -32 -65 -65 -65zM532 615c-29 0 -49 22 -49 51c0 32 31 64 65 64c29 0 49 -23 49 -50c0 -35 -32 -65 -65 -65zM692 500h95l-240 -500h-72l-80 354l-177 -354h-76l-97 500h100l58 -372l164 342
h90l68 -342z" />
    <glyph glyph-name="wgrave" unicode="&#x1e81;" horiz-adv-x="762" 
d="M487 580h-70l-105 160h110zM692 500h95l-240 -500h-72l-80 354l-177 -354h-76l-97 500h100l58 -372l164 342h90l68 -342z" />
    <glyph glyph-name="x" unicode="x" horiz-adv-x="508" 
d="M-16 0l216 254l-141 246h109l99 -177l148 177h109l-214 -249l144 -251h-109l-103 177l-149 -177h-109z" />
    <glyph glyph-name="y" unicode="y" horiz-adv-x="491" 
d="M418 500h103l-268 -500c-72 -135 -161 -230 -286 -230l12 85c79 0 140 67 191 163l-130 482h105l88 -372z" />
    <glyph glyph-name="yacute" unicode="&#xfd;" horiz-adv-x="491" 
d="M265 580l109 160h110l-149 -160h-70zM418 500h103l-268 -500c-72 -135 -161 -230 -286 -230l12 85c79 0 140 67 191 163l-130 482h105l88 -372z" />
    <glyph glyph-name="ycircumflex" unicode="&#x177;" horiz-adv-x="491" 
d="M309 683l-77 -103h-100l150 160h70l107 -160h-100zM418 500h103l-268 -500c-72 -135 -161 -230 -286 -230l12 85c79 0 140 67 191 163l-130 482h105l88 -372z" />
    <glyph glyph-name="ydieresis" unicode="&#xff;" horiz-adv-x="491" 
d="M200 615c-29 0 -49 22 -49 51c0 32 31 64 65 64c29 0 49 -23 49 -50c0 -35 -32 -65 -65 -65zM400 615c-29 0 -49 22 -49 51c0 32 31 64 65 64c29 0 49 -23 49 -50c0 -35 -32 -65 -65 -65zM418 500h103l-268 -500c-72 -135 -161 -230 -286 -230l12 85c79 0 140 67 191 163
l-130 482h105l88 -372z" />
    <glyph glyph-name="uni1EF5" unicode="&#x1ef5;" horiz-adv-x="491" 
d="M418 500h103l-268 -500c-72 -135 -161 -230 -286 -230l12 85c79 0 140 67 191 163l-130 482h105l88 -372zM300 -220c-32 0 -57 27 -52 60c4 32 36 60 68 60c33 0 56 -28 52 -60c-5 -33 -35 -60 -68 -60z" />
    <glyph glyph-name="ygrave" unicode="&#x1ef3;" horiz-adv-x="491" 
d="M355 580h-70l-105 160h110zM418 500h103l-268 -500c-72 -135 -161 -230 -286 -230l12 85c79 0 140 67 191 163l-130 482h105l88 -372z" />
    <glyph glyph-name="uni1EF7" unicode="&#x1ef7;" horiz-adv-x="491" 
d="M309 701c-20 0 -37 -13 -45 -38h-55c13 57 57 87 107 87s91 -30 83 -87c-9 -65 -80 -72 -86 -115h-50c9 63 70 70 76 115c3 25 -10 38 -30 38zM418 500h103l-268 -500c-72 -135 -161 -230 -286 -230l12 85c79 0 140 67 191 163l-130 482h105l88 -372z" />
    <glyph glyph-name="uni1EF9" unicode="&#x1ef9;" horiz-adv-x="491" 
d="M238 659c-34 0 -48 -27 -63 -64h-60c23 97 78 134 132 134c79 0 82 -64 130 -64c34 0 48 27 63 64h60c-23 -97 -78 -134 -132 -134c-79 0 -83 64 -130 64zM418 500h103l-268 -500c-72 -135 -161 -230 -286 -230l12 85c79 0 140 67 191 163l-130 482h105l88 -372z" />
    <glyph glyph-name="z" unicode="z" horiz-adv-x="499" 
d="M7 55l329 370h-257l10 75h385l-7 -55l-329 -370h292l-11 -75h-420z" />
    <glyph glyph-name="zacute" unicode="&#x17a;" horiz-adv-x="499" 
d="M270 580l109 160h110l-149 -160h-70zM7 55l329 370h-257l10 75h385l-7 -55l-329 -370h292l-11 -75h-420z" />
    <glyph glyph-name="zcaron" unicode="&#x17e;" horiz-adv-x="499" 
d="M335 580h-70l-106 160h100l49 -103l78 103h100zM79 425l10 75h385l-7 -55l-329 -370h292l-11 -75h-420l8 55l329 370h-257z" />
    <glyph glyph-name="zdotaccent" unicode="&#x17c;" horiz-adv-x="499" 
d="M305 610c-30 0 -52 24 -52 53c0 36 34 67 69 67c30 0 52 -25 52 -53c0 -36 -33 -67 -69 -67zM7 55l329 370h-257l10 75h385l-7 -55l-329 -370h292l-11 -75h-420z" />
    <glyph glyph-name="uni0410" unicode="&#x410;" horiz-adv-x="663" 
d="M508 0l-44 190h-285l-96 -190h-103l359 700h107l167 -700h-105zM219 270h227l-71 309z" />
    <glyph glyph-name="uni0411" unicode="&#x411;" horiz-adv-x="644" 
d="M381 410c121 0 214 -67 214 -183c0 -136 -128 -227 -272 -227h-274l98 700h465l-11 -80h-370l-29 -210h179zM314 80c116 0 177 51 177 140c0 78 -45 110 -142 110h-159l-35 -250h159z" />
    <glyph glyph-name="uni0412" unicode="&#x412;" horiz-adv-x="655" 
d="M483 369c71 -22 121 -69 121 -156c0 -139 -127 -213 -269 -213h-286l98 700h255c122 0 213 -53 213 -161c0 -80 -51 -138 -132 -170zM231 620l-30 -215h160c102 0 152 46 152 116c0 67 -47 99 -141 99h-141zM325 80c111 0 175 36 175 133c0 81 -45 112 -149 112h-161
l-35 -245h170z" />
    <glyph glyph-name="uni0413" unicode="&#x413;" horiz-adv-x="530" 
d="M578 700l-11 -80h-336l-87 -620h-95l98 700h431z" />
    <glyph glyph-name="uni0403" unicode="&#x403;" horiz-adv-x="530" 
d="M313 770l135 130h120l-175 -130h-80zM578 700l-11 -80h-336l-87 -620h-95l98 700h431z" />
    <glyph glyph-name="uni0490" unicode="&#x490;" horiz-adv-x="532" 
d="M504 840h95l-30 -220h-95h-243l-87 -620h-95l98 700h338z" />
    <glyph glyph-name="uni0414" unicode="&#x414;" horiz-adv-x="710" 
d="M-42 -160l33 240h62c94 62 141 317 183 620h442l-87 -620h79l-33 -240h-75l9 160h-503l-35 -160h-75zM162 80h334l76 540h-253c-36 -234 -81 -452 -157 -540z" />
    <glyph glyph-name="uni0415" unicode="&#x415;" horiz-adv-x="601" 
d="M160 80h363l-11 -80h-458l98 700h448l-11 -80h-353l-30 -215h323l-11 -80h-323z" />
    <glyph glyph-name="uni0401" unicode="&#x401;" horiz-adv-x="601" 
d="M292 775c-29 0 -49 22 -49 51c0 32 31 64 65 64c29 0 49 -23 49 -50c0 -35 -32 -65 -65 -65zM492 775c-29 0 -49 22 -49 51c0 32 31 64 65 64c29 0 49 -23 49 -50c0 -35 -32 -65 -65 -65zM160 80h363l-11 -80h-458l98 700h448l-11 -80h-353l-30 -215h323l-11 -80h-323z
" />
    <glyph glyph-name="uni0416" unicode="&#x416;" horiz-adv-x="888" 
d="M846 73c5 0 11 1 17 2l-10 -75c-10 -5 -25 -10 -49 -10c-79 0 -104 56 -113 135l-12 114c-5 42 -26 86 -123 86h-59l-45 -325h-85l45 325h-60c-97 0 -131 -44 -147 -86l-45 -114c-30 -79 -71 -135 -150 -135c-24 0 -37 5 -45 10l10 75c6 -1 12 -2 17 -2c39 0 65 30 76 62
l38 106c20 59 55 109 112 124c-53 15 -71 60 -72 124l-3 76c0 39 -14 62 -52 62c-5 0 -11 -1 -18 -2l10 75c12 7 28 10 47 10c78 0 108 -55 109 -135l2 -84c0 -42 21 -86 123 -86h60l41 295h85l-41 -295h59c102 0 135 44 147 86l25 84c24 80 70 135 148 135
c19 0 33 -3 43 -10l-10 -75c-7 1 -13 2 -18 2c-38 0 -59 -23 -71 -62l-22 -76c-20 -64 -51 -109 -108 -124c53 -15 74 -65 78 -124l7 -106c2 -32 20 -62 59 -62z" />
    <glyph glyph-name="uni0417" unicode="&#x417;" horiz-adv-x="620" 
d="M282 -10c-150 0 -244 76 -239 220h100c-1 -79 44 -140 150 -140c98 0 165 53 165 131c0 71 -55 119 -201 119l12 80c178 0 220 67 220 130c0 54 -32 100 -118 100c-101 0 -153 -63 -174 -140h-95c35 140 135 220 283 220c122 0 206 -55 206 -162
c0 -84 -53 -151 -160 -185c91 -25 132 -74 132 -154c0 -143 -132 -219 -281 -219z" />
    <glyph glyph-name="uni0418" unicode="&#x418;" horiz-adv-x="753" 
d="M657 700h75l-98 -700h-95l76 540l-491 -540h-75l98 700h95l-75 -540z" />
    <glyph glyph-name="uni0419" unicode="&#x419;" horiz-adv-x="753" 
d="M449 760c-94 0 -140 57 -136 150h60c7 -51 31 -80 86 -80c56 0 88 29 111 80h60c-24 -93 -86 -150 -181 -150zM657 700h75l-98 -700h-95l76 540l-491 -540h-75l98 700h95l-75 -540z" />
    <glyph glyph-name="uni041A" unicode="&#x41a;" horiz-adv-x="640" 
d="M598 73c5 0 11 1 17 2l-10 -75c-10 -5 -25 -10 -49 -10c-79 0 -103 56 -112 135l-13 114c-4 42 -26 86 -123 86h-119l-45 -325h-95l57 405l41 295h95l-41 -295h119c102 0 135 44 147 86l26 84c23 80 69 135 147 135c19 0 33 -3 43 -10l-10 -75c-7 1 -13 2 -18 2
c-38 0 -58 -23 -70 -62l-23 -76c-19 -64 -51 -109 -108 -124c53 -15 74 -65 78 -124l8 -106c1 -32 19 -62 58 -62z" />
    <glyph glyph-name="uni040C" unicode="&#x40c;" horiz-adv-x="640" 
d="M361 770l135 130h120l-175 -130h-80zM598 73c5 0 11 1 17 2l-10 -75c-10 -5 -25 -10 -49 -10c-79 0 -103 56 -112 135l-13 114c-4 42 -26 86 -123 86h-119l-45 -325h-95l57 405l41 295h95l-41 -295h119c102 0 135 44 147 86l26 84c23 80 69 135 147 135
c19 0 33 -3 43 -10l-10 -75c-7 1 -13 2 -18 2c-38 0 -58 -23 -70 -62l-23 -76c-19 -64 -51 -109 -108 -124c53 -15 74 -65 78 -124l8 -106c1 -32 19 -62 58 -62z" />
    <glyph glyph-name="uni041B" unicode="&#x41b;" horiz-adv-x="688" 
d="M667 700l-98 -700h-95l87 620h-246c-57 -370 -128 -630 -290 -630c-24 0 -37 5 -45 10l10 75c6 -1 12 -2 17 -2c122 0 176 277 225 627h435z" />
    <glyph glyph-name="uni041C" unicode="&#x41c;" horiz-adv-x="852" 
d="M755 700h81l-98 -700h-95l66 470l-289 -404h-40l-174 404l-67 -470h-95l98 700h81l198 -482z" />
    <glyph glyph-name="uni041D" unicode="&#x41d;" horiz-adv-x="743" 
d="M627 700h95l-98 -700h-95l46 325h-385l-46 -325h-95l98 700h95l-41 -295h385z" />
    <glyph glyph-name="uni041E" unicode="&#x41e;" horiz-adv-x="737" 
d="M432 710c167 0 273 -108 273 -301c0 -239 -154 -419 -371 -419c-168 0 -273 109 -273 302c0 237 154 418 371 418zM344 70c147 0 256 147 256 333c0 149 -72 227 -179 227c-147 0 -255 -147 -255 -333c0 -149 71 -227 178 -227z" />
    <glyph glyph-name="uni041F" unicode="&#x41f;" horiz-adv-x="725" 
d="M49 0l98 700h557l-98 -700h-95l87 620h-367l-87 -620h-95z" />
    <glyph glyph-name="uni0420" unicode="&#x420;" horiz-adv-x="603" 
d="M389 700c119 0 219 -59 219 -186c0 -162 -133 -244 -278 -244h-143l-38 -270h-95l98 700h237zM320 350c115 0 187 50 187 157c0 81 -56 113 -148 113h-123l-38 -270h122z" />
    <glyph glyph-name="uni0421" unicode="&#x421;" horiz-adv-x="690" 
d="M350 70c77 0 149 40 190 140h95c-47 -143 -156 -220 -297 -220c-167 0 -272 108 -272 303c0 237 154 417 374 417c142 0 226 -76 235 -220h-95c-13 100 -74 140 -153 140c-148 0 -255 -146 -255 -332c0 -150 70 -228 178 -228z" />
    <glyph glyph-name="uni0422" unicode="&#x422;" horiz-adv-x="575" 
d="M623 700l-11 -80h-225l-87 -620h-95l87 620h-225l11 80h545z" />
    <glyph glyph-name="uni0423" unicode="&#x423;" horiz-adv-x="615" 
d="M555 700h108l-312 -510c-82 -133 -161 -200 -298 -200l12 85c88 0 141 39 204 139l-191 486h110l142 -383z" />
    <glyph glyph-name="uni040E" unicode="&#x40e;" horiz-adv-x="615" 
d="M384 760c-94 0 -140 57 -136 150h60c7 -51 31 -80 86 -80c56 0 88 29 111 80h60c-24 -93 -86 -150 -181 -150zM555 700h108l-312 -510c-82 -133 -161 -200 -298 -200l12 85c88 0 141 39 204 139l-191 486h110l142 -383z" />
    <glyph glyph-name="uni0424" unicode="&#x424;" horiz-adv-x="733" 
d="M461 620c126 -6 239 -84 239 -237c0 -186 -163 -298 -315 -303l-14 -100h-85l14 100c-124 6 -238 83 -238 237c0 185 162 299 314 303l14 100h85zM311 155l54 390c-101 -5 -204 -83 -204 -223c0 -119 75 -161 150 -167zM396 155c102 6 204 84 204 223
c0 119 -75 161 -150 167z" />
    <glyph glyph-name="uni0425" unicode="&#x425;" horiz-adv-x="634" 
d="M584 0h-114l-154 284l-224 -284h-112l294 360l-186 340h114l145 -264l206 264h109l-274 -341z" />
    <glyph glyph-name="uni0427" unicode="&#x427;" horiz-adv-x="631" 
d="M515 700h95l-98 -700h-95l43 305c-54 -27 -118 -45 -197 -45c-138 0 -239 53 -215 225l30 215h105l-30 -215c-13 -92 33 -145 132 -145c60 0 132 18 187 55z" />
    <glyph glyph-name="uni0426" unicode="&#x426;" horiz-adv-x="720" 
d="M680 80l-33 -240h-75l9 160h-532l98 700h95l-87 -620h347l87 620h95l-87 -620h83z" />
    <glyph glyph-name="uni0428" unicode="&#x428;" horiz-adv-x="937" 
d="M821 700h95l-98 -700h-769l98 700h95l-87 -620h242l87 620h95l-87 -620h242z" />
    <glyph glyph-name="uni0429" unicode="&#x429;" horiz-adv-x="952" 
d="M804 -160l9 160h-764l98 700h95l-87 -620h242l87 620h95l-87 -620h242l87 620h95l-87 -620h83l-33 -240h-75z" />
    <glyph glyph-name="uni040F" unicode="&#x40f;" horiz-adv-x="715" 
d="M264 -160l15 160h-230l98 700h95l-87 -620h357l87 620h95l-98 -700h-228l-29 -160h-75z" />
    <glyph glyph-name="uni042C" unicode="&#x42c;" horiz-adv-x="629" 
d="M381 410c121 0 214 -67 214 -183c0 -136 -128 -227 -272 -227h-274l98 700h95l-40 -290h179zM314 80c116 0 177 51 177 140c0 78 -45 110 -142 110h-159l-35 -250h159z" />
    <glyph glyph-name="uni042A" unicode="&#x42a;" horiz-adv-x="740" 
d="M492 410c121 0 214 -67 214 -183c0 -136 -129 -227 -272 -227h-274l87 620h-180l11 80h275l-40 -290h179zM425 80c116 0 177 51 177 140c0 78 -46 110 -142 110h-159l-35 -250h159z" />
    <glyph glyph-name="uni042B" unicode="&#x42b;" horiz-adv-x="853" 
d="M49 0l98 700h95l-40 -290h136c120 0 214 -68 214 -181c0 -139 -129 -229 -272 -229h-231zM639 0l98 700h95l-98 -700h-95zM155 80h116c115 0 177 48 177 145c0 73 -49 105 -142 105h-116z" />
    <glyph glyph-name="uni0409" unicode="&#x409;" horiz-adv-x="976" 
d="M728 410c120 0 214 -67 214 -183c0 -136 -129 -227 -272 -227h-231l87 620h-211c-57 -371 -127 -630 -290 -630c-23 0 -37 5 -45 10l11 75c5 -1 10 -2 17 -2c120 0 175 276 224 627h400l-40 -290h136zM661 80c116 0 177 51 177 140c0 78 -45 110 -142 110h-116l-35 -250
h116z" />
    <glyph glyph-name="uni040A" unicode="&#x40a;" horiz-adv-x="946" 
d="M698 410c120 0 214 -67 214 -183c0 -136 -129 -227 -272 -227h-231l46 330h-265l-46 -330h-95l58 410l40 290h95l-40 -290h265l40 290h95l-40 -290h136zM631 80c115 0 177 51 177 140c0 78 -46 110 -142 110h-116l-35 -250h116z" />
    <glyph glyph-name="uni0405" unicode="&#x405;" horiz-adv-x="610" 
d="M269 -10c-133 0 -228 57 -223 200h95c1 -92 61 -120 137 -120c97 0 163 46 163 117c0 161 -332 89 -332 311c0 143 120 212 259 212c135 0 216 -73 214 -190h-95c-4 66 -46 110 -127 110c-90 0 -149 -45 -149 -120c0 -153 337 -71 337 -300c0 -135 -116 -220 -279 -220z
" />
    <glyph glyph-name="uni0404" unicode="&#x404;" horiz-adv-x="690" 
d="M350 70c77 0 149 40 190 140h95c-47 -143 -156 -220 -297 -220c-167 0 -272 108 -272 303c0 237 154 417 374 417c142 0 226 -76 235 -220h-95c-13 100 -74 140 -153 140c-120 0 -212 -95 -244 -230h305l-12 -80h-303c-1 -7 -1 -15 -1 -22c0 -150 70 -228 178 -228z" />
    <glyph glyph-name="uni042D" unicode="&#x42d;" horiz-adv-x="686" 
d="M396 710c164 0 258 -104 258 -299c0 -234 -137 -421 -358 -421c-141 0 -244 75 -252 220h95c13 -99 88 -140 167 -140c127 0 212 108 236 250h-326l12 80h321v7c0 149 -59 223 -164 223c-78 0 -165 -40 -207 -140h-95c50 149 178 220 313 220z" />
    <glyph glyph-name="uni0406" unicode="&#x406;" horiz-adv-x="273" 
d="M152 700h95l-98 -700h-95z" />
    <glyph glyph-name="uni0407" unicode="&#x407;" horiz-adv-x="273" 
d="M111 775c-29 0 -49 22 -49 51c0 32 31 64 65 64c29 0 49 -23 49 -50c0 -35 -32 -65 -65 -65zM311 775c-29 0 -49 22 -49 51c0 32 31 64 65 64c29 0 49 -23 49 -50c0 -35 -32 -65 -65 -65zM152 700h95l-98 -700h-95z" />
    <glyph glyph-name="uni0408" unicode="&#x408;" horiz-adv-x="418" 
d="M302 700h94l-78 -555c-13 -95 -84 -155 -177 -155c-94 0 -144 60 -130 160h90c-8 -55 12 -80 51 -80c38 0 65 25 73 85z" />
    <glyph glyph-name="uni040B" unicode="&#x40b;" horiz-adv-x="798" 
d="M542 425c119 0 219 -43 195 -215l-29 -210h-105l30 215c13 92 -33 130 -113 130c-53 0 -124 -18 -179 -55l-41 -290h-95l87 620h-225l11 80h545l-11 -80h-225l-34 -240c54 27 117 45 189 45z" />
    <glyph glyph-name="uni042E" unicode="&#x42e;" horiz-adv-x="961" 
d="M685 710c149 0 244 -106 244 -298c0 -236 -145 -422 -340 -422c-149 0 -244 106 -244 298c0 11 0 21 1 32h-157l-45 -320h-95l98 700h95l-42 -300h156c38 180 165 310 329 310zM598 70c127 0 226 153 226 339c0 146 -59 221 -149 221c-127 0 -226 -153 -226 -339
c0 -146 60 -221 149 -221z" />
    <glyph glyph-name="uni042F" unicode="&#x42f;" horiz-adv-x="634" 
d="M613 700l-98 -700h-95l41 290h-113c-97 0 -135 -42 -148 -86l-25 -79c-26 -80 -70 -135 -149 -135c-24 0 -38 5 -46 10l11 75c5 -1 10 -2 17 -2c36 0 62 28 74 62l23 71c18 57 50 103 100 121c-57 26 -96 69 -96 148c0 146 132 225 273 225h231zM356 370h116l35 250h-116
c-111 0 -182 -46 -182 -139c0 -83 55 -111 147 -111z" />
    <glyph glyph-name="uni0402" unicode="&#x402;" horiz-adv-x="751" 
d="M502 410c121 0 215 -68 215 -181c0 -139 -130 -229 -262 -229h-74l11 80h54c105 0 166 48 166 145c0 73 -48 105 -141 105h-125l-46 -330h-95l57 410l30 210h-225l11 80h545l-11 -80h-225l-30 -210h145z" />
    <glyph glyph-name="uni0462" unicode="&#x462;" horiz-adv-x="713" 
d="M465 410c121 0 214 -68 214 -181c0 -139 -129 -229 -272 -229h-274l72 510h-153l10 70h153l17 120h95l-17 -120h204l-10 -70h-204l-14 -100h179zM399 80c114 0 176 48 176 145c0 73 -48 105 -141 105h-159l-35 -250h159z" />
    <glyph glyph-name="uni0472" unicode="&#x472;" horiz-adv-x="735" 
d="M433 710c165 0 271 -112 271 -296c0 -247 -154 -424 -372 -424c-167 0 -272 112 -272 297c0 246 154 423 373 423zM421 630c-125 0 -219 -94 -249 -234h432v11c0 142 -72 223 -183 223zM343 70c134 0 233 109 256 266h-436c-1 -14 -2 -28 -2 -43c0 -141 71 -223 182 -223
z" />
    <glyph glyph-name="uni0474" unicode="&#x474;" horiz-adv-x="658" 
d="M660 710c22 0 36 -3 46 -10l-11 -75c-6 1 -11 2 -19 2c-34 0 -53 -21 -73 -62l-273 -565h-104l-148 700h105l115 -578l209 453c46 100 79 135 153 135z" />
    <glyph glyph-name="uni0492" unicode="&#x492;" horiz-adv-x="627" 
d="M664 620h-336l-33 -235h205l-11 -80h-205l-43 -305h-95l43 305h-166l11 80h166l44 315h431z" />
    <glyph glyph-name="uni0494" unicode="&#x494;" horiz-adv-x="692" 
d="M319 -165c-44 0 -76 8 -96 18l12 80c18 -10 52 -18 86 -18c124 0 206 109 206 253c0 125 -62 177 -139 177c-52 0 -118 -23 -177 -75l-38 -270h-95l98 700h431l-11 -80h-336l-36 -260c56 41 126 65 194 65c106 0 215 -55 215 -250c0 -231 -154 -340 -314 -340z" />
    <glyph glyph-name="uni0496" unicode="&#x496;" horiz-adv-x="888" 
d="M888 710c19 0 33 -3 43 -10l-10 -75c-7 1 -13 2 -18 2c-38 0 -59 -23 -71 -62l-22 -76c-20 -64 -51 -109 -108 -124c53 -15 74 -65 78 -124l7 -106c2 -32 20 -62 59 -62c5 0 11 1 17 2l-34 -245h-65l8 164c-54 13 -73 64 -81 131l-12 114c-5 42 -26 86 -123 86h-59
l-45 -325h-85l45 325h-60c-97 0 -131 -44 -147 -86l-45 -114c-30 -79 -71 -135 -150 -135c-24 0 -37 5 -45 10l10 75c6 -1 12 -2 17 -2c39 0 65 30 76 62l38 106c20 59 55 109 112 124c-53 15 -71 60 -72 124l-3 76c0 39 -14 62 -52 62c-5 0 -11 -1 -18 -2l10 75
c12 7 28 10 47 10c78 0 108 -55 109 -135l2 -84c0 -42 21 -86 123 -86h60l41 295h85l-41 -295h59c102 0 135 44 147 86l25 84c24 80 70 135 148 135z" />
    <glyph glyph-name="uni0498" unicode="&#x498;" horiz-adv-x="620" 
d="M431 363c91 -25 132 -74 132 -154c0 -134 -116 -209 -253 -218l-23 -51c69 13 116 -14 108 -74c-9 -62 -69 -96 -129 -96c-34 0 -53 7 -74 19l7 52c21 -13 40 -21 64 -21c29 0 57 12 61 41c7 51 -65 42 -119 24l49 106c-134 9 -216 84 -211 219h100
c-1 -79 44 -140 150 -140c98 0 165 53 165 131c0 71 -55 119 -201 119l12 80c178 0 220 67 220 130c0 54 -32 100 -118 100c-101 0 -153 -63 -174 -140h-95c35 140 135 220 283 220c122 0 206 -55 206 -162c0 -84 -53 -151 -160 -185z" />
    <glyph glyph-name="uni049A" unicode="&#x49a;" horiz-adv-x="640" 
d="M640 710c19 0 33 -3 43 -10l-10 -75c-7 1 -13 2 -18 2c-38 0 -58 -23 -70 -62l-23 -76c-19 -64 -51 -109 -108 -124c53 -15 74 -65 78 -124l8 -106c1 -32 19 -62 58 -62c5 0 11 1 17 2l-35 -245h-65l9 164c-54 14 -72 64 -80 131l-13 114c-4 42 -26 86 -123 86h-119
l-45 -325h-95l57 405l41 295h95l-41 -295h119c102 0 135 44 147 86l26 84c23 80 69 135 147 135z" />
    <glyph glyph-name="uni049C" unicode="&#x49c;" horiz-adv-x="660" 
d="M660 710c19 0 33 -3 43 -10l-10 -75c-7 1 -13 2 -18 2c-38 0 -58 -23 -70 -62l-23 -76c-19 -64 -51 -109 -108 -124c53 -15 74 -65 78 -124l8 -106c1 -32 19 -62 58 -62c5 0 11 1 17 2l-10 -75c-10 -5 -25 -10 -49 -10c-79 0 -103 56 -112 135l-13 114
c-4 39 -14 80 -102 85l-18 -124h-70l18 125h-90l-45 -325h-95l98 700h95l-41 -295h89l19 135h70l-19 -134c95 5 116 46 127 85l26 84c23 80 69 135 147 135z" />
    <glyph glyph-name="uni049E" unicode="&#x49e;" horiz-adv-x="640" 
d="M584 73c5 0 11 1 17 2l-10 -75c-10 -5 -25 -10 -49 -10c-79 0 -103 56 -112 135l-13 114c-4 42 -26 86 -123 86h-119l-45 -325h-95l70 498h-114l10 70h114l18 132h95l-18 -132h105l-10 -70h-105l-13 -93h119c102 0 135 44 147 86l26 84c23 80 69 135 147 135
c19 0 33 -3 43 -10l-10 -75c-7 1 -13 2 -18 2c-38 0 -58 -23 -70 -62l-23 -76c-19 -64 -51 -109 -108 -124c53 -15 74 -65 78 -124l8 -106c1 -32 19 -62 58 -62z" />
    <glyph glyph-name="uni04A0" unicode="&#x4a0;" horiz-adv-x="709" 
d="M667 73c5 0 11 1 17 2l-10 -75c-10 -5 -25 -10 -49 -10c-79 0 -103 56 -112 135l-12 114c-5 42 -26 86 -123 86h-120l-45 -325h-95l87 620h-138l11 80h233l-41 -295h120c102 0 134 44 147 86l25 84c23 80 69 135 147 135c19 0 33 -3 43 -10l-10 -75c-7 1 -13 2 -18 2
c-38 0 -58 -23 -70 -62l-22 -76c-20 -64 -51 -109 -108 -124c53 -15 73 -65 78 -124l7 -106c1 -32 19 -62 58 -62z" />
    <glyph glyph-name="uni04A2" unicode="&#x4a2;" horiz-adv-x="754" 
d="M606 -160l9 160h-86l46 325h-385l-46 -325h-95l98 700h95l-41 -295h385l41 295h95l-87 -620h79l-33 -240h-75z" />
    <glyph glyph-name="uni04A6" unicode="&#x4a6;" horiz-adv-x="1110" 
d="M851 425c106 0 215 -55 215 -250c0 -231 -154 -340 -314 -340c-44 0 -76 8 -96 18l12 80c18 -10 52 -18 86 -18c124 0 206 109 206 253c0 125 -62 177 -139 177c-52 0 -118 -23 -177 -75l-38 -270h-95l87 620h-367l-87 -620h-95l98 700h557l-47 -340c56 41 126 65 194 65
z" />
    <glyph glyph-name="uni0524" unicode="&#x524;" horiz-adv-x="735" 
d="M587 -160l9 160h-85l87 620h-367l-87 -620h-95l98 700h557l-87 -620h78l-33 -240h-75z" />
    <glyph glyph-name="uni04A8" unicode="&#x4a8;" horiz-adv-x="808" 
d="M708 70l-11 -80c-71 0 -129 22 -173 57c-55 -35 -119 -57 -189 -57c-160 0 -269 115 -269 306c0 242 175 414 404 414c69 0 121 -15 175 -45l-13 -95c-62 41 -114 60 -177 60c-167 0 -283 -139 -283 -326c0 -148 71 -234 190 -234c41 0 78 10 112 28
c-41 54 -62 121 -62 181c0 114 74 201 169 201c71 0 119 -55 119 -139c0 -79 -42 -171 -112 -241c32 -19 72 -30 120 -30zM571 410c-41 0 -75 -58 -75 -136c0 -49 14 -94 41 -129c48 50 78 118 78 188c0 55 -19 77 -44 77z" />
    <glyph glyph-name="uni04AA" unicode="&#x4aa;" horiz-adv-x="690" 
d="M350 70c77 0 149 40 190 140h95c-46 -141 -153 -218 -291 -220l-22 -50c69 13 116 -14 108 -74c-9 -62 -68 -96 -129 -96c-34 0 -53 7 -74 19l7 52c21 -13 40 -21 64 -21c30 0 57 12 61 41c7 51 -65 42 -119 24l50 108c-139 19 -224 124 -224 300c0 237 154 417 374 417
c142 0 226 -76 235 -220h-95c-13 100 -74 140 -153 140c-148 0 -255 -146 -255 -332c0 -150 70 -228 178 -228z" />
    <glyph glyph-name="uni04AC" unicode="&#x4ac;" horiz-adv-x="575" 
d="M612 620h-225l-76 -540h78l-33 -240h-75l9 160h-85l87 620h-225l11 80h545z" />
    <glyph glyph-name="uni04AE" unicode="&#x4ae;" horiz-adv-x="631" 
d="M234 0l41 296l-197 404h110l149 -319l235 319h107l-308 -403l-42 -297h-95z" />
    <glyph glyph-name="uni04B0" unicode="&#x4b0;" horiz-adv-x="631" 
d="M371 297l-8 -59h138l-10 -75h-139l-23 -163h-95l23 163h-139l10 75h139l8 58l-197 404h110l149 -319l235 319h107z" />
    <glyph glyph-name="uni04B2" unicode="&#x4b2;" horiz-adv-x="730" 
d="M523 -160l9 160h-62l-154 284l-224 -284h-112l294 360l-186 340h114l145 -264l206 264h109l-274 -341l152 -279h91l-33 -240h-75z" />
    <glyph glyph-name="uni04B6" unicode="&#x4b6;" horiz-adv-x="641" 
d="M493 -160l9 160h-85l43 305c-54 -27 -117 -45 -196 -45c-138 0 -240 53 -216 225l30 215h105l-30 -215c-13 -92 33 -145 132 -145c60 0 132 18 188 55l42 305h95l-87 -620h78l-33 -240h-75z" />
    <glyph glyph-name="uni04B8" unicode="&#x4b8;" horiz-adv-x="631" 
d="M515 700h95l-98 -700h-95l43 305c-45 -22 -96 -39 -157 -43l-19 -132h-70l18 131c-122 8 -206 65 -184 224l30 215h105l-30 -215c-11 -78 21 -128 91 -141l18 126h70l-18 -129c53 5 112 23 158 54z" />
    <glyph glyph-name="uni04BA" unicode="&#x4ba;" horiz-adv-x="660" 
d="M394 425c130 0 230 -43 206 -215l-29 -210h-105l30 215c13 92 -33 130 -124 130c-60 0 -132 -18 -187 -55l-41 -290h-95l98 700h95l-45 -320c54 27 118 45 197 45z" />
    <glyph glyph-name="uni0526" unicode="&#x526;" horiz-adv-x="690" 
d="M542 -160l9 160h-85l30 215c13 92 -32 130 -123 130c-60 0 -133 -18 -188 -55l-41 -290h-95l98 700h95l-45 -320c54 27 118 45 197 45c130 0 231 -43 207 -215l-19 -130h68l-33 -240h-75z" />
    <glyph glyph-name="uni04BC" unicode="&#x4bc;" horiz-adv-x="829" 
d="M265 350c-2 -16 -3 -32 -3 -49c0 -149 69 -231 188 -231c83 0 179 39 218 140h87c-46 -144 -171 -220 -314 -220c-172 0 -275 111 -275 304c0 20 1 40 3 59c-79 15 -127 84 -115 174c2 10 4 20 7 30h90c-3 -10 -5 -20 -7 -30c-6 -45 6 -81 42 -93c48 164 181 276 351 276
c167 0 263 -107 263 -281c0 -26 -2 -52 -6 -79h-529zM526 630c-117 0 -207 -81 -245 -200h423c-3 126 -64 200 -178 200z" />
    <glyph glyph-name="uni04BE" unicode="&#x4be;" horiz-adv-x="829" 
d="M265 350c-2 -16 -3 -32 -3 -49c0 -149 69 -231 188 -231c83 0 179 39 218 140h87c-43 -134 -155 -209 -285 -219l-22 -151h-75l22 153c-144 18 -229 126 -229 301c0 20 1 40 3 59c-79 15 -127 84 -115 174c2 10 4 20 7 30h90c-3 -10 -5 -20 -7 -30c-6 -45 6 -81 42 -93
c48 164 181 276 351 276c167 0 263 -107 263 -281c0 -26 -2 -52 -6 -79h-529zM526 630c-117 0 -207 -81 -245 -200h423c-3 126 -64 200 -178 200z" />
    <glyph glyph-name="uni04C0" unicode="&#x4c0;" horiz-adv-x="273" 
d="M152 700h95l-98 -700h-95z" />
    <glyph glyph-name="uni04C1" unicode="&#x4c1;" horiz-adv-x="888" 
d="M515 760c-94 0 -140 57 -136 150h60c7 -51 31 -80 86 -80c56 0 88 29 111 80h60c-24 -93 -86 -150 -181 -150zM888 710c19 0 33 -3 43 -10l-10 -75c-7 1 -13 2 -18 2c-38 0 -59 -23 -71 -62l-22 -76c-20 -64 -51 -109 -108 -124c53 -15 74 -65 78 -124l7 -106
c2 -32 20 -62 59 -62c5 0 11 1 17 2l-10 -75c-10 -5 -25 -10 -49 -10c-79 0 -104 56 -113 135l-12 114c-5 42 -26 86 -123 86h-59l-45 -325h-85l45 325h-60c-97 0 -131 -44 -147 -86l-45 -114c-30 -79 -71 -135 -150 -135c-24 0 -37 5 -45 10l10 75c6 -1 12 -2 17 -2
c39 0 65 30 76 62l38 106c20 59 55 109 112 124c-53 15 -71 60 -72 124l-3 76c0 39 -14 62 -52 62c-5 0 -11 -1 -18 -2l10 75c12 7 28 10 47 10c78 0 108 -55 109 -135l2 -84c0 -42 21 -86 123 -86h60l41 295h85l-41 -295h59c102 0 135 44 147 86l25 84
c24 80 70 135 148 135z" />
    <glyph glyph-name="uni04C3" unicode="&#x4c3;" horiz-adv-x="685" 
d="M318 -165c-44 0 -76 8 -97 18l12 80c19 -10 52 -18 89 -18c117 0 195 98 195 227c0 123 -73 183 -199 183h-128l-46 -325h-95l98 700h95l-41 -295h128c102 0 134 44 147 86l25 84c24 80 69 135 147 135c19 0 33 -3 43 -10l-10 -75c-7 1 -12 2 -19 2
c-35 0 -57 -22 -69 -62l-22 -76c-17 -56 -43 -97 -88 -117c88 -33 140 -97 140 -221c0 -217 -149 -316 -305 -316z" />
    <glyph glyph-name="uni04C5" unicode="&#x4c5;" horiz-adv-x="699" 
d="M660 80l-75 -240h-75l37 160h-73l87 620h-246c-57 -370 -127 -630 -289 -630c-24 0 -38 5 -46 10l11 75c5 -1 11 -2 16 -2c122 0 176 277 225 627h435l-87 -620h80z" />
    <glyph glyph-name="uni04C7" unicode="&#x4c7;" horiz-adv-x="743" 
d="M387 -230l11 80c87 0 115 35 125 105l52 370h-385l-46 -325h-95l98 700h95l-41 -295h385l41 295h95l-106 -755c-15 -105 -87 -175 -229 -175z" />
    <glyph glyph-name="uni04C9" unicode="&#x4c9;" horiz-adv-x="753" 
d="M714 80l-75 -240h-75l37 160h-72l46 325h-385l-46 -325h-95l98 700h95l-41 -295h385l41 295h95l-87 -620h79z" />
    <glyph glyph-name="uni04CB" unicode="&#x4cb;" horiz-adv-x="631" 
d="M336 -160l13 240h79l32 225c-54 -27 -117 -45 -196 -45c-138 0 -240 53 -216 225l30 215h105l-30 -215c-13 -92 33 -145 132 -145c60 0 132 18 188 55l42 305h95l-98 -700h-79l-22 -160h-75z" />
    <glyph glyph-name="uni04CD" unicode="&#x4cd;" horiz-adv-x="866" 
d="M827 80l-75 -240h-75l37 160h-71l66 470l-289 -404h-40l-174 404l-67 -470h-95l98 700h81l198 -482l334 482h81l-87 -620h78z" />
    <glyph glyph-name="uni04D0" unicode="&#x4d0;" horiz-adv-x="663" 
d="M407 760c-94 0 -140 57 -136 150h60c7 -51 31 -80 86 -80c56 0 88 29 111 80h60c-24 -93 -86 -150 -181 -150zM446 700l167 -700h-105l-44 190h-285l-96 -190h-103l359 700h107zM219 270h227l-71 309z" />
    <glyph glyph-name="uni04D2" unicode="&#x4d2;" horiz-adv-x="663" 
d="M310 775c-29 0 -49 22 -49 51c0 32 31 64 65 64c29 0 49 -23 49 -50c0 -35 -32 -65 -65 -65zM510 775c-29 0 -49 22 -49 51c0 32 31 64 65 64c29 0 49 -23 49 -50c0 -35 -32 -65 -65 -65zM508 0l-44 190h-285l-96 -190h-103l359 700h107l167 -700h-105zM219 270h227
l-71 309z" />
    <glyph glyph-name="uni04D6" unicode="&#x4d6;" horiz-adv-x="601" 
d="M389 760c-94 0 -140 57 -136 150h60c7 -51 31 -80 86 -80c56 0 88 29 111 80h60c-24 -93 -86 -150 -181 -150zM589 620h-353l-30 -215h323l-11 -80h-323l-35 -245h363l-11 -80h-458l98 700h448z" />
    <glyph glyph-name="uni04D8" unicode="&#x4d8;" horiz-adv-x="724" 
d="M420 710c168 0 272 -112 272 -304c0 -236 -157 -416 -372 -416c-167 0 -263 108 -263 282c0 26 2 51 6 78h530c2 16 3 33 3 50c0 149 -70 230 -189 230c-83 0 -178 -39 -217 -140h-87c46 145 179 220 317 220zM332 70c117 0 207 81 245 200h-424c3 -126 66 -200 179 -200
z" />
    <glyph glyph-name="uni04DA" unicode="&#x4da;" horiz-adv-x="724" 
d="M335 775c-29 0 -49 22 -49 51c0 32 31 64 65 64c29 0 49 -23 49 -50c0 -35 -32 -65 -65 -65zM535 775c-29 0 -49 22 -49 51c0 32 31 64 65 64c29 0 49 -23 49 -50c0 -35 -32 -65 -65 -65zM420 710c168 0 272 -112 272 -304c0 -236 -157 -416 -372 -416
c-167 0 -263 108 -263 282c0 26 2 51 6 78h530c2 16 3 33 3 50c0 149 -70 230 -189 230c-83 0 -178 -39 -217 -140h-87c46 145 179 220 317 220zM332 70c117 0 207 81 245 200h-424c3 -126 66 -200 179 -200z" />
    <glyph glyph-name="uni04DC" unicode="&#x4dc;" horiz-adv-x="888" 
d="M418 775c-29 0 -49 22 -49 51c0 32 31 64 65 64c29 0 49 -23 49 -50c0 -35 -32 -65 -65 -65zM618 775c-29 0 -49 22 -49 51c0 32 31 64 65 64c29 0 49 -23 49 -50c0 -35 -32 -65 -65 -65zM846 73c5 0 11 1 17 2l-10 -75c-10 -5 -25 -10 -49 -10c-79 0 -104 56 -113 135
l-12 114c-5 42 -26 86 -123 86h-59l-45 -325h-85l45 325h-60c-97 0 -131 -44 -147 -86l-45 -114c-30 -79 -71 -135 -150 -135c-24 0 -37 5 -45 10l10 75c6 -1 12 -2 17 -2c39 0 65 30 76 62l38 106c20 59 55 109 112 124c-53 15 -71 60 -72 124l-3 76c0 39 -14 62 -52 62
c-5 0 -11 -1 -18 -2l10 75c12 7 28 10 47 10c78 0 108 -55 109 -135l2 -84c0 -42 21 -86 123 -86h60l41 295h85l-41 -295h59c102 0 135 44 147 86l25 84c24 80 70 135 148 135c19 0 33 -3 43 -10l-10 -75c-7 1 -13 2 -18 2c-38 0 -59 -23 -71 -62l-22 -76
c-20 -64 -51 -109 -108 -124c53 -15 74 -65 78 -124l7 -106c2 -32 20 -62 59 -62z" />
    <glyph glyph-name="uni04DE" unicode="&#x4de;" horiz-adv-x="620" 
d="M298 775c-29 0 -49 22 -49 51c0 32 31 64 65 64c29 0 49 -23 49 -50c0 -35 -32 -65 -65 -65zM498 775c-29 0 -49 22 -49 51c0 32 31 64 65 64c29 0 49 -23 49 -50c0 -35 -32 -65 -65 -65zM282 -10c-150 0 -244 76 -239 220h100c-1 -79 44 -140 150 -140
c98 0 165 53 165 131c0 71 -55 119 -201 119l12 80c178 0 220 67 220 130c0 54 -32 100 -118 100c-101 0 -153 -63 -174 -140h-95c35 140 135 220 283 220c122 0 206 -55 206 -162c0 -84 -53 -151 -160 -185c91 -25 132 -74 132 -154c0 -143 -132 -219 -281 -219z" />
    <glyph glyph-name="uni04E0" unicode="&#x4e0;" horiz-adv-x="591" 
d="M265 -10c-149 0 -242 86 -219 240h100c-12 -96 31 -160 129 -160c101 0 161 69 161 160c0 78 -44 140 -157 140h-48l6 40l200 210h-307l12 80h439l-9 -60l-200 -207c106 -21 170 -86 170 -197c0 -156 -126 -246 -277 -246z" />
    <glyph glyph-name="uni04E2" unicode="&#x4e2;" horiz-adv-x="753" 
d="M296 790l10 70h317l-10 -70h-317zM657 700h75l-98 -700h-95l76 540l-491 -540h-75l98 700h95l-75 -540z" />
    <glyph glyph-name="uni04E4" unicode="&#x4e4;" horiz-adv-x="753" 
d="M352 775c-29 0 -49 22 -49 51c0 32 31 64 65 64c29 0 49 -23 49 -50c0 -35 -32 -65 -65 -65zM552 775c-29 0 -49 22 -49 51c0 32 31 64 65 64c29 0 49 -23 49 -50c0 -35 -32 -65 -65 -65zM657 700h75l-98 -700h-95l76 540l-491 -540h-75l98 700h95l-75 -540z" />
    <glyph glyph-name="uni04E6" unicode="&#x4e6;" horiz-adv-x="737" 
d="M343 775c-29 0 -49 22 -49 51c0 32 31 64 65 64c29 0 49 -23 49 -50c0 -35 -32 -65 -65 -65zM543 775c-29 0 -49 22 -49 51c0 32 31 64 65 64c29 0 49 -23 49 -50c0 -35 -32 -65 -65 -65zM432 710c167 0 273 -108 273 -301c0 -239 -154 -419 -371 -419
c-168 0 -273 109 -273 302c0 237 154 418 371 418zM344 70c147 0 256 147 256 333c0 149 -72 227 -179 227c-147 0 -255 -147 -255 -333c0 -149 71 -227 178 -227z" />
    <glyph glyph-name="uni04E8" unicode="&#x4e8;" horiz-adv-x="735" 
d="M433 710c165 0 271 -112 271 -296c0 -247 -154 -424 -372 -424c-167 0 -272 112 -272 297c0 246 154 423 373 423zM421 630c-125 0 -219 -94 -249 -234h432v11c0 142 -72 223 -183 223zM343 70c134 0 233 109 256 266h-436c-1 -14 -2 -28 -2 -43c0 -141 71 -223 182 -223
z" />
    <glyph glyph-name="uni04EA" unicode="&#x4ea;" horiz-adv-x="735" 
d="M321 775c-29 0 -49 22 -49 51c0 32 31 64 65 64c29 0 49 -23 49 -50c0 -35 -32 -65 -65 -65zM521 775c-29 0 -49 22 -49 51c0 32 31 64 65 64c29 0 49 -23 49 -50c0 -35 -32 -65 -65 -65zM433 710c165 0 271 -112 271 -296c0 -247 -154 -424 -372 -424
c-167 0 -272 112 -272 297c0 246 154 423 373 423zM421 630c-125 0 -219 -94 -249 -234h432v11c0 142 -72 223 -183 223zM343 70c134 0 233 109 256 266h-436c-1 -14 -2 -28 -2 -43c0 -141 71 -223 182 -223z" />
    <glyph glyph-name="uni04EC" unicode="&#x4ec;" horiz-adv-x="686" 
d="M298 775c-29 0 -49 22 -49 51c0 32 31 64 65 64c29 0 49 -23 49 -50c0 -35 -32 -65 -65 -65zM498 775c-29 0 -49 22 -49 51c0 32 31 64 65 64c29 0 49 -23 49 -50c0 -35 -32 -65 -65 -65zM396 710c164 0 258 -104 258 -299c0 -234 -137 -421 -358 -421
c-141 0 -244 75 -252 220h95c13 -99 88 -140 167 -140c127 0 212 108 236 250h-326l12 80h321v7c0 149 -59 223 -164 223c-78 0 -165 -40 -207 -140h-95c50 149 178 220 313 220z" />
    <glyph glyph-name="uni04EE" unicode="&#x4ee;" horiz-adv-x="615" 
d="M231 790l10 70h317l-10 -70h-317zM555 700h108l-312 -510c-82 -133 -161 -200 -298 -200l12 85c88 0 141 39 204 139l-191 486h110l142 -383z" />
    <glyph glyph-name="uni04F0" unicode="&#x4f0;" horiz-adv-x="615" 
d="M287 775c-29 0 -49 22 -49 51c0 32 31 64 65 64c29 0 49 -23 49 -50c0 -35 -32 -65 -65 -65zM487 775c-29 0 -49 22 -49 51c0 32 31 64 65 64c29 0 49 -23 49 -50c0 -35 -32 -65 -65 -65zM555 700h108l-312 -510c-82 -133 -161 -200 -298 -200l12 85c88 0 141 39 204 139
l-191 486h110l142 -383z" />
    <glyph glyph-name="uni04F2" unicode="&#x4f2;" horiz-adv-x="615" 
d="M227 770l135 130h120l-175 -130h-80zM394 770l134 130h120l-174 -130h-80zM555 700h108l-312 -510c-82 -133 -161 -200 -298 -200l12 85c88 0 141 39 204 139l-191 486h110l142 -383z" />
    <glyph glyph-name="uni04F4" unicode="&#x4f4;" horiz-adv-x="631" 
d="M250 775c-29 0 -49 22 -49 51c0 32 31 64 65 64c29 0 49 -23 49 -50c0 -35 -32 -65 -65 -65zM450 775c-29 0 -49 22 -49 51c0 32 31 64 65 64c29 0 49 -23 49 -50c0 -35 -32 -65 -65 -65zM515 700h95l-98 -700h-95l43 305c-54 -27 -118 -45 -197 -45
c-138 0 -239 53 -215 225l30 215h105l-30 -215c-13 -92 33 -145 132 -145c60 0 132 18 187 55z" />
    <glyph glyph-name="uni04F6" unicode="&#x4f6;" horiz-adv-x="530" 
d="M567 620h-336l-76 -540h79l-33 -240h-75l9 160h-86l98 700h431z" />
    <glyph glyph-name="uni04F8" unicode="&#x4f8;" horiz-adv-x="853" 
d="M388 775c-29 0 -49 22 -49 51c0 32 31 64 65 64c29 0 49 -23 49 -50c0 -35 -32 -65 -65 -65zM588 775c-29 0 -49 22 -49 51c0 32 31 64 65 64c29 0 49 -23 49 -50c0 -35 -32 -65 -65 -65zM49 0l98 700h95l-40 -290h136c120 0 214 -68 214 -181
c0 -139 -129 -229 -272 -229h-231zM639 0l98 700h95l-98 -700h-95zM155 80h116c115 0 177 48 177 145c0 73 -49 105 -142 105h-116z" />
    <glyph glyph-name="uni04FC" unicode="&#x4fc;" horiz-adv-x="670" 
d="M428 -170c-10 0 -20 1 -30 2l11 80c10 -1 20 -2 30 -2c42 0 79 20 99 90h-68l-155 284l-223 -284h-112l294 360l-186 340h114l145 -264l206 264h109l-274 -341l152 -279h90c-15 -175 -100 -250 -202 -250z" />
    <glyph glyph-name="uni0510" unicode="&#x510;" horiz-adv-x="622" 
d="M467 210h100c-35 -142 -148 -220 -301 -220c-126 0 -227 53 -227 176c0 96 62 168 182 197c-82 29 -114 78 -114 145c0 124 111 202 258 202c148 0 226 -79 221 -220h-95c1 79 -33 140 -134 140c-104 0 -151 -65 -151 -126c0 -56 40 -104 189 -104l-11 -80
c-168 0 -239 -63 -239 -144c0 -69 51 -106 133 -106c106 0 167 61 189 140z" />
    <glyph glyph-name="uni0512" unicode="&#x512;" horiz-adv-x="688" 
d="M332 -230l11 80c87 0 115 35 125 105l93 665h-246c-57 -370 -127 -630 -289 -630c-24 0 -38 5 -46 10l11 75c5 -1 11 -2 16 -2c122 0 176 277 225 627h435l-106 -755c-15 -105 -87 -175 -229 -175z" />
    <glyph glyph-name="uni051C" unicode="&#x51c;" horiz-adv-x="913" 
d="M861 700h100l-292 -700h-105l-73 494l-212 -494h-105l-96 700h105l62 -578l223 528h90l73 -528z" />
    <glyph glyph-name="uni0430" unicode="&#x430;" horiz-adv-x="580" 
d="M230 -10c-107 0 -188 79 -188 221c0 177 125 299 260 299c65 0 110 -28 139 -78l10 68h90l-71 -500h-90l10 68c-43 -50 -97 -78 -160 -78zM250 65c86 0 169 85 169 217c0 106 -53 153 -117 153c-88 0 -160 -89 -160 -221c0 -104 45 -149 108 -149z" />
    <glyph glyph-name="uni0431" unicode="&#x431;" horiz-adv-x="538" 
d="M316 470c123 0 205 -97 185 -240c-20 -147 -141 -240 -269 -240c-127 0 -211 93 -191 240c47 332 134 452 352 470c41 3 57 9 70 40h70c-14 -94 -74 -111 -140 -115c-106 -6 -215 -59 -265 -266c49 71 108 111 188 111zM243 65c77 0 143 59 158 165
c15 103 -28 165 -107 165c-73 0 -148 -62 -163 -165c-14 -106 35 -165 112 -165z" />
    <glyph glyph-name="uni0432" unicode="&#x432;" horiz-adv-x="538" 
d="M413 256c49 -21 66 -56 66 -98c0 -93 -79 -158 -211 -158h-229l70 500h209c111 0 172 -47 172 -124c0 -51 -27 -93 -77 -120zM189 430l-20 -145h109c78 0 116 24 116 82c0 46 -27 63 -96 63h-109zM268 70c80 0 117 33 117 87c0 46 -29 63 -96 63h-129l-21 -150h129z" />
    <glyph glyph-name="uni0433" unicode="&#x433;" horiz-adv-x="446" 
d="M456 500l-10 -75h-257l-60 -425h-90l70 500h347z" />
    <glyph glyph-name="uni0453" unicode="&#x453;" horiz-adv-x="446" 
d="M248 580l109 160h110l-149 -160h-70zM456 500l-10 -75h-257l-60 -425h-90l70 500h347z" />
    <glyph glyph-name="uni0491" unicode="&#x491;" horiz-adv-x="437" 
d="M389 620h85l-28 -195h-257l-60 -425h-90l71 500h262z" />
    <glyph glyph-name="uni0434" unicode="&#x434;" horiz-adv-x="638" 
d="M-14 -160l33 235h64c57 54 89 218 118 425h342l-59 -425h94l-33 -235h-65l8 160h-401l-36 -160h-65zM175 75h219l49 350h-167c-22 -137 -52 -282 -101 -350z" />
    <glyph glyph-name="uni0435" unicode="&#x435;" horiz-adv-x="530" 
d="M486 250h-341c-1 -11 -2 -22 -2 -34c0 -107 46 -151 111 -151c53 0 109 22 131 90h85c-31 -115 -127 -165 -227 -165c-112 0 -200 76 -200 224c0 174 122 296 272 296c92 0 176 -45 176 -194c0 -17 -1 -40 -5 -66zM300 440c-70 0 -120 -52 -143 -125h235
c0 73 -21 125 -92 125z" />
    <glyph glyph-name="uni0451" unicode="&#x451;" horiz-adv-x="530" 
d="M218 615c-29 0 -49 22 -49 51c0 32 31 64 65 64c29 0 49 -23 49 -50c0 -35 -32 -65 -65 -65zM418 615c-29 0 -49 22 -49 51c0 32 31 64 65 64c29 0 49 -23 49 -50c0 -35 -32 -65 -65 -65zM486 250h-341c-1 -11 -2 -22 -2 -34c0 -107 46 -151 111 -151c53 0 109 22 131 90
h85c-31 -115 -127 -165 -227 -165c-112 0 -200 76 -200 224c0 174 122 296 272 296c92 0 176 -45 176 -194c0 -17 -1 -40 -5 -66zM300 440c-70 0 -120 -52 -143 -125h235c0 73 -21 125 -92 125z" />
    <glyph glyph-name="uni0436" unicode="&#x436;" horiz-adv-x="803" 
d="M722 63c10 0 15 1 21 2l-9 -65c-19 -7 -38 -10 -64 -10c-64 0 -88 42 -92 115l-4 59c-3 44 -26 66 -85 66h-50l-32 -230h-80l32 230h-50c-60 0 -88 -22 -103 -66l-20 -59c-26 -73 -62 -115 -126 -115c-26 0 -44 3 -61 10l9 65c6 -1 12 -2 22 -2c32 0 50 16 62 52l17 51
c17 51 50 89 97 104c-43 15 -64 35 -67 79l-1 36c-3 45 -20 52 -50 52c-12 0 -16 -1 -23 -2l9 65c12 5 32 10 53 10c74 0 104 -37 105 -110v-34c0 -43 27 -61 88 -61h50l27 195h80l-27 -195h50c61 0 92 18 104 61l10 34c21 73 63 110 136 110c21 0 39 -5 49 -10l-9 -65
c-7 1 -11 2 -22 2c-30 0 -49 -7 -64 -52l-12 -36c-15 -44 -41 -64 -88 -79c43 -15 64 -53 67 -104l3 -51c2 -36 16 -52 48 -52z" />
    <glyph glyph-name="uni0437" unicode="&#x437;" horiz-adv-x="459" 
d="M179 -10c-61 0 -127 12 -167 30l12 85c39 -20 94 -40 156 -40c76 0 124 28 124 82c0 46 -37 73 -144 73l9 65c129 0 156 26 156 78c0 51 -27 72 -92 72c-60 0 -111 -18 -158 -40l12 85c43 18 101 30 163 30c119 0 172 -49 172 -123c0 -54 -27 -106 -102 -136
c54 -22 78 -59 78 -107c0 -96 -90 -154 -219 -154z" />
    <glyph glyph-name="uni0438" unicode="&#x438;" horiz-adv-x="578" 
d="M469 500h70l-70 -500h-90l50 358l-320 -358h-70l70 500h90l-49 -357z" />
    <glyph glyph-name="uni0439" unicode="&#x439;" horiz-adv-x="578" 
d="M340 580c-94 0 -140 57 -136 160h60c7 -61 31 -90 86 -90c56 0 88 29 111 90h60c-24 -103 -86 -160 -181 -160zM469 500h70l-70 -500h-90l50 358l-320 -358h-70l70 500h90l-49 -357z" />
    <glyph glyph-name="uni043A" unicode="&#x43a;" horiz-adv-x="574" 
d="M492 63c10 0 16 1 22 2l-9 -65c-20 -7 -39 -10 -65 -10c-64 0 -88 42 -92 115l-4 59c-3 44 -29 66 -123 66h-60l-32 -230h-90l70 500h90l-27 -195h60c99 0 130 18 142 61l10 34c21 73 63 110 137 110c20 0 39 -5 49 -10l-9 -65c-7 1 -12 2 -23 2c-30 0 -49 -7 -64 -52
l-12 -36c-14 -44 -41 -64 -88 -79c43 -15 64 -53 67 -104l3 -51c2 -36 16 -52 48 -52z" />
    <glyph glyph-name="uni045C" unicode="&#x45c;" horiz-adv-x="574" 
d="M295 580l109 160h110l-149 -160h-70zM492 63c10 0 16 1 22 2l-9 -65c-20 -7 -39 -10 -65 -10c-64 0 -88 42 -92 115l-4 59c-3 44 -29 66 -123 66h-60l-32 -230h-90l70 500h90l-27 -195h60c99 0 130 18 142 61l10 34c21 73 63 110 137 110c20 0 39 -5 49 -10l-9 -65
c-7 1 -12 2 -23 2c-30 0 -49 -7 -64 -52l-12 -36c-14 -44 -41 -64 -88 -79c43 -15 64 -53 67 -104l3 -51c2 -36 16 -52 48 -52z" />
    <glyph glyph-name="uni043B" unicode="&#x43b;" horiz-adv-x="563" 
d="M523 500l-70 -500h-90l59 425h-172c-40 -250 -91 -435 -225 -435c-24 0 -37 5 -45 10l9 65c6 -1 11 -2 16 -2c94 0 133 167 171 437h347z" />
    <glyph glyph-name="uni043C" unicode="&#x43c;" horiz-adv-x="695" 
d="M586 500h70l-70 -500h-90l44 317l-199 -257h-40l-127 257l-45 -317h-90l70 500h70l159 -320z" />
    <glyph glyph-name="uni043D" unicode="&#x43d;" horiz-adv-x="578" 
d="M449 500h90l-70 -500h-90l32 230h-250l-32 -230h-90l70 500h90l-27 -195h250z" />
    <glyph glyph-name="uni043E" unicode="&#x43e;" horiz-adv-x="561" 
d="M245 -10c-115 0 -203 76 -203 222c0 177 129 298 274 298c115 0 203 -75 203 -222c0 -177 -129 -298 -274 -298zM254 65c94 0 165 90 165 220c0 106 -46 150 -113 150c-94 0 -164 -90 -164 -221c0 -106 46 -149 112 -149z" />
    <glyph glyph-name="uni043F" unicode="&#x43f;" horiz-adv-x="578" 
d="M539 500l-70 -500h-90l60 425h-250l-60 -425h-90l70 500h430z" />
    <glyph glyph-name="uni0440" unicode="&#x440;" horiz-adv-x="580" 
d="M350 510c107 0 188 -78 188 -221c0 -176 -126 -299 -260 -299c-65 0 -110 28 -139 78l-41 -288h-90l101 720h90l-9 -68c43 50 97 78 160 78zM278 65c88 0 160 89 160 221c0 104 -45 149 -108 149c-86 0 -169 -84 -169 -217c0 -105 53 -153 117 -153z" />
    <glyph glyph-name="uni0441" unicode="&#x441;" horiz-adv-x="510" 
d="M248 65c53 0 109 31 131 100h85c-31 -116 -127 -175 -226 -175c-113 0 -201 77 -201 222c0 177 129 298 273 298c103 0 180 -61 177 -175h-85c-1 72 -51 100 -103 100c-92 0 -162 -91 -162 -220c0 -106 46 -150 111 -150z" />
    <glyph glyph-name="uni0442" unicode="&#x442;" horiz-adv-x="477" 
d="M487 500l-10 -75h-169l-60 -425h-90l60 425h-168l10 75h427z" />
    <glyph glyph-name="uni0443" unicode="&#x443;" horiz-adv-x="491" 
d="M418 500h103l-268 -500c-72 -135 -161 -230 -286 -230l12 85c79 0 140 67 191 163l-130 482h105l88 -372z" />
    <glyph glyph-name="uni045E" unicode="&#x45e;" horiz-adv-x="491" 
d="M292 560c-94 0 -140 57 -136 150h60c7 -51 31 -80 86 -80c56 0 88 29 111 80h60c-24 -93 -86 -150 -181 -150zM418 500h103l-268 -500c-72 -135 -161 -230 -286 -230l12 85c79 0 140 67 191 163l-130 482h105l88 -372z" />
    <glyph glyph-name="uni0444" unicode="&#x444;" horiz-adv-x="718" 
d="M435 510c134 -6 241 -83 241 -229c0 -176 -154 -287 -314 -291l-29 -210h-80l29 210c-132 6 -239 83 -239 229c0 176 153 287 312 291l33 230h80zM292 60l54 380c-116 -5 -208 -82 -208 -217c0 -119 71 -158 154 -163zM372 60c116 6 209 81 209 217
c0 119 -71 158 -155 163z" />
    <glyph glyph-name="uni0445" unicode="&#x445;" horiz-adv-x="508" 
d="M-16 0l216 254l-141 246h109l99 -177l148 177h109l-214 -249l144 -251h-109l-103 177l-149 -177h-109z" />
    <glyph glyph-name="uni0447" unicode="&#x447;" horiz-adv-x="538" 
d="M409 500h90l-70 -500h-90l30 209c-34 -17 -92 -39 -160 -39c-105 0 -169 52 -150 190l20 140h90l-15 -110c-16 -116 20 -140 93 -140c40 0 85 7 133 39z" />
    <glyph glyph-name="uni0446" unicode="&#x446;" horiz-adv-x="604" 
d="M446 -160l8 160h-415l70 500h90l-59 -425h240l59 425h90l-59 -425h74l-33 -235h-65z" />
    <glyph glyph-name="uni0448" unicode="&#x448;" horiz-adv-x="842" 
d="M713 500h90l-70 -500h-694l70 500h90l-60 -425h212l60 425h90l-60 -425h212z" />
    <glyph glyph-name="uni0449" unicode="&#x449;" horiz-adv-x="877" 
d="M719 -160l8 160h-688l70 500h90l-59 -425h212l59 425h90l-59 -425h212l59 425h90l-59 -425h73l-33 -235h-65z" />
    <glyph glyph-name="uni045F" unicode="&#x45f;" horiz-adv-x="568" 
d="M439 500h90l-70 -500h-170l-29 -160h-65l15 160h-171l70 500h90l-59 -425h240z" />
    <glyph glyph-name="uni044C" unicode="&#x44c;" horiz-adv-x="539" 
d="M39 0l70 500h90l-27 -195h139c110 0 171 -44 171 -134c0 -102 -79 -171 -214 -171h-229zM140 75h128c79 0 118 26 118 88c0 47 -23 67 -96 67h-129z" />
    <glyph glyph-name="uni044A" unicode="&#x44a;" horiz-adv-x="629" 
d="M130 0l60 425h-140l11 75h230l-28 -195h138c111 0 171 -47 171 -130c0 -108 -78 -175 -214 -175h-228zM231 75h128c82 0 117 26 117 92c0 46 -30 63 -95 63h-128z" />
    <glyph glyph-name="uni044B" unicode="&#x44b;" horiz-adv-x="740" 
d="M39 0l70 500h90l-27 -195h109c110 0 171 -44 171 -134c0 -102 -79 -171 -214 -171h-199zM541 0l70 500h90l-70 -500h-90zM140 75h98c79 0 118 26 118 88c0 47 -23 67 -96 67h-99z" />
    <glyph glyph-name="uni0459" unicode="&#x459;" horiz-adv-x="823" 
d="M26 -10c-24 0 -38 5 -46 10l9 65c6 -1 12 -2 17 -2c94 0 132 167 170 437h337l-27 -195h109c110 0 171 -47 171 -128c0 -111 -79 -177 -214 -177h-199l60 425h-162c-40 -250 -91 -435 -225 -435zM454 75h99c82 0 117 26 117 93c0 45 -32 62 -96 62h-99z" />
    <glyph glyph-name="uni045A" unicode="&#x45a;" horiz-adv-x="824" 
d="M596 305c110 0 171 -44 171 -134c0 -102 -79 -171 -214 -171h-199l32 230h-225l-32 -230h-90l43 305l27 195h90l-27 -195h225l27 195h90l-27 -195h109zM553 75c79 0 118 26 118 88c0 47 -23 67 -96 67h-99l-21 -155h98z" />
    <glyph glyph-name="uni0455" unicode="&#x455;" horiz-adv-x="458" 
d="M168 368c0 -100 231 -46 231 -213c0 -114 -105 -165 -223 -165c-58 0 -115 13 -152 30l12 85c38 -20 90 -40 148 -40c71 0 117 31 117 73c0 95 -231 50 -231 212c0 103 90 160 215 160c59 0 102 -13 140 -30l-12 -80c-40 21 -87 40 -139 40c-66 0 -106 -30 -106 -72z" />
    <glyph glyph-name="uni0454" unicode="&#x454;" horiz-adv-x="510" 
d="M301 435c-74 0 -138 -55 -160 -145h198l-10 -65h-197v-8c0 -108 50 -152 117 -152c54 0 107 28 130 100h85c-31 -116 -127 -175 -226 -175c-113 0 -201 77 -201 222c0 177 129 298 273 298c103 0 180 -61 177 -175h-85c-1 72 -47 100 -101 100z" />
    <glyph glyph-name="uni044D" unicode="&#x44d;" horiz-adv-x="526" 
d="M292 510c112 0 191 -75 191 -219c0 -176 -117 -301 -263 -301c-100 0 -189 59 -188 175h85c2 -72 58 -100 111 -100c80 0 137 64 155 160h-199l9 65h195c-1 104 -43 145 -107 145c-54 0 -118 -28 -140 -100h-85c31 116 137 175 236 175z" />
    <glyph glyph-name="uni0456" unicode="&#x456;" horiz-adv-x="269" 
d="M185 610c-30 0 -52 24 -52 53c0 36 34 67 69 67c30 0 52 -25 52 -53c0 -36 -33 -67 -69 -67zM54 0l70 500h90l-70 -500h-90z" />
    <glyph glyph-name="uni0457" unicode="&#x457;" horiz-adv-x="238" 
d="M70 615c-29 0 -49 22 -49 51c0 32 31 64 65 64c29 0 49 -23 49 -50c0 -35 -32 -65 -65 -65zM270 615c-29 0 -49 22 -49 51c0 32 31 64 65 64c29 0 49 -23 49 -50c0 -35 -32 -65 -65 -65zM39 0l70 500h90l-70 -500h-90z" />
    <glyph glyph-name="uni0458" unicode="&#x458;" horiz-adv-x="254" 
d="M170 610c-29 0 -52 24 -52 53c0 36 34 67 69 67c30 0 52 -25 52 -53c0 -36 -33 -67 -69 -67zM-88 -230l11 75c61 0 99 31 110 111l76 544h90l-78 -559c-13 -95 -93 -171 -209 -171z" />
    <glyph glyph-name="uni045B" unicode="&#x45b;" horiz-adv-x="578" 
d="M367 510c102 0 167 -51 147 -188l-45 -322h-90l43 302c14 103 -30 128 -88 128c-63 0 -151 -45 -172 -193l-33 -237h-90l81 573h-104l10 70h103l14 97h90l-14 -97h121l-10 -70h-120l-22 -154c34 44 93 91 179 91z" />
    <glyph glyph-name="uni044E" unicode="&#x44e;" horiz-adv-x="736" 
d="M508 510c108 0 187 -71 187 -211c0 -161 -105 -309 -260 -309c-109 0 -188 72 -188 211c0 10 0 19 1 29h-87l-32 -230h-90l70 500h90l-29 -205h89c32 119 122 215 249 215zM444 65c107 0 151 130 151 235c0 96 -38 135 -97 135c-107 0 -151 -130 -151 -234
c0 -96 37 -136 97 -136z" />
    <glyph glyph-name="uni044F" unicode="&#x44f;" horiz-adv-x="584" 
d="M56 -10c-20 0 -40 3 -57 10l9 65c6 -1 12 -2 20 -2c35 0 51 19 64 52l11 31c16 43 36 62 57 74c-46 17 -72 53 -72 110c0 105 81 170 213 170h244l-70 -500h-90l27 195h-82c-95 0 -116 -14 -130 -51l-15 -39c-27 -72 -59 -115 -129 -115zM279 270h144l22 155h-144
c-76 0 -117 -24 -117 -86c0 -52 30 -69 95 -69z" />
    <glyph glyph-name="uni0452" unicode="&#x452;" horiz-adv-x="578" 
d="M366 510c102 0 167 -51 148 -188l-54 -381c-13 -95 -93 -171 -209 -171l10 75c61 0 100 31 111 111l49 346c14 103 -29 128 -87 128c-63 0 -152 -45 -173 -193l-33 -237h-90l81 573h-102l10 70h102l13 97h90l-13 -97h121l-10 -70h-121l-22 -154c34 44 93 91 179 91z" />
    <glyph glyph-name="uni0463" unicode="&#x463;" horiz-adv-x="528" 
d="M300 305c110 0 171 -44 171 -134c0 -102 -79 -171 -214 -171h-229l33 230l48 343h-92l10 70h92l13 97h90l-13 -97h131l-10 -70h-131l-38 -268h139zM258 75c79 0 117 27 117 88c0 48 -23 67 -95 67h-129l-22 -155h129z" />
    <glyph glyph-name="uni0473" unicode="&#x473;" horiz-adv-x="558" 
d="M316 510c117 0 205 -78 201 -221c-4 -171 -121 -299 -275 -299c-116 0 -204 78 -200 221c4 171 121 299 274 299zM305 435c-79 0 -135 -61 -157 -145h274c2 99 -49 145 -117 145zM253 65c85 0 142 68 162 160h-278v-12c-3 -101 48 -148 116 -148z" />
    <glyph glyph-name="uni0475" unicode="&#x475;" horiz-adv-x="525" 
d="M505 510c22 0 40 -5 50 -10l-9 -65c-7 1 -10 2 -22 2c-27 0 -43 -8 -66 -52l-207 -385h-75l-136 500h105l89 -372l134 272c38 73 69 110 137 110z" />
    <glyph glyph-name="uni0493" unicode="&#x493;" horiz-adv-x="480" 
d="M490 425h-257l-23 -165h134l-9 -65h-134l-28 -195h-90l27 195h-103l9 65h103l34 240h347z" />
    <glyph glyph-name="uni0495" unicode="&#x495;" horiz-adv-x="569" 
d="M313 290c93 0 182 -47 182 -216c0 -207 -129 -304 -270 -304c-41 0 -71 8 -91 18l11 75c17 -9 47 -18 82 -18c92 0 172 77 172 220c0 125 -64 150 -121 150c-34 0 -78 -8 -124 -39l-25 -176h-90l70 500h347l-10 -75h-257l-25 -174c42 23 94 39 149 39z" />
    <glyph glyph-name="uni0497" unicode="&#x497;" horiz-adv-x="774" 
d="M730 510c21 0 39 -5 50 -10l-9 -65c-7 1 -11 2 -22 2c-30 0 -49 -7 -64 -52l-13 -36c-15 -44 -41 -64 -88 -79c43 -15 65 -53 68 -104l3 -51c2 -36 15 -52 47 -52c10 0 15 1 22 2l-32 -225h-65l7 151c-51 7 -71 48 -76 114l-4 59c-2 44 -25 66 -84 66h-50l-33 -230h-80
l33 230h-50c-60 0 -88 -22 -104 -66l-20 -59c-25 -73 -61 -115 -125 -115c-26 0 -45 3 -62 10l10 65c5 -1 10 -2 21 -2c32 0 51 16 63 52l17 51c17 51 49 89 96 104c-43 15 -64 35 -67 79v36c-3 45 -20 52 -50 52c-12 0 -16 -1 -23 -2l9 65c11 5 31 10 52 10
c74 0 105 -37 106 -110v-34c0 -43 26 -61 87 -61h50l28 195h80l-28 -195h50c61 0 93 18 105 61l10 34c21 73 62 110 135 110z" />
    <glyph glyph-name="uni0499" unicode="&#x499;" horiz-adv-x="459" 
d="M320 251c54 -22 78 -59 78 -107c0 -91 -81 -148 -199 -154l-22 -50c69 13 116 -14 108 -74c-9 -62 -68 -96 -129 -96c-34 0 -53 7 -74 19l7 52c21 -13 40 -21 64 -21c30 0 57 12 61 41c7 51 -65 42 -119 24l49 106c-50 4 -100 14 -132 29l12 85c39 -20 94 -40 156 -40
c76 0 124 28 124 82c0 46 -37 73 -144 73l9 65c129 0 156 26 156 78c0 51 -27 72 -92 72c-60 0 -111 -18 -158 -40l12 85c43 18 101 30 163 30c119 0 172 -49 172 -123c0 -54 -27 -106 -102 -136z" />
    <glyph glyph-name="uni049B" unicode="&#x49b;" horiz-adv-x="574" 
d="M521 510c20 0 39 -5 49 -10l-9 -65c-7 1 -12 2 -23 2c-30 0 -49 -7 -64 -52l-12 -36c-14 -44 -41 -64 -88 -79c43 -15 64 -53 67 -104l3 -51c2 -36 16 -52 48 -52c10 0 16 1 22 2l-32 -225h-65l7 151c-52 7 -72 48 -76 114l-4 59c-3 44 -29 66 -123 66h-60l-32 -230h-90
l70 500h90l-27 -195h60c99 0 130 18 142 61l10 34c21 73 63 110 137 110z" />
    <glyph glyph-name="uni049D" unicode="&#x49d;" horiz-adv-x="594" 
d="M541 510c20 0 39 -5 49 -10l-9 -65c-7 1 -12 2 -23 2c-30 0 -49 -7 -64 -52l-12 -36c-14 -44 -41 -64 -88 -79c43 -15 64 -53 67 -104l3 -51c2 -36 16 -52 48 -52c10 0 16 1 22 2l-9 -65c-20 -7 -39 -10 -65 -10c-64 0 -88 42 -92 115l-4 59c-2 34 -18 54 -67 62
l-17 -116h-60l17 120h-76l-32 -230h-90l70 500h90l-27 -195h76l16 115h60l-16 -112c56 6 77 24 86 58l10 34c21 73 63 110 137 110z" />
    <glyph glyph-name="uni049F" unicode="&#x49f;" horiz-adv-x="551" 
d="M162 305h47l-11 -75h-47l-32 -230h-90l81 573h-93l10 70h92l14 97h90l-14 -97h131l-10 -70h-130zM497 510c21 0 40 -5 50 -10l-9 -65c-7 1 -11 2 -23 2c-30 0 -49 -7 -64 -52l-11 -36c-15 -44 -42 -64 -89 -79c43 -15 64 -53 67 -104l3 -51c2 -36 16 -52 48 -52
c10 0 16 1 22 2l-9 -65c-19 -7 -39 -10 -65 -10c-64 0 -88 42 -93 115l-3 59c-3 44 -29 66 -123 66l6 40l5 35c99 0 130 18 142 61l10 34c21 73 62 110 136 110z" />
    <glyph glyph-name="uni04A1" unicode="&#x4a1;" horiz-adv-x="655" 
d="M602 510c20 0 38 -5 48 -10l-9 -65c-7 1 -11 2 -22 2c-30 0 -49 -7 -64 -52l-12 -36c-14 -44 -41 -64 -88 -79c43 -15 64 -53 67 -104l3 -51c2 -36 16 -52 48 -52c10 0 16 1 21 2l-9 -65c-19 -7 -38 -10 -64 -10c-64 0 -88 42 -92 115l-4 59c-3 44 -29 66 -123 66l6 40
l5 35c99 0 130 18 142 61l10 34c21 73 63 110 137 110zM253 305h60l-11 -75h-60l-32 -230h-90l60 425h-130l10 75h220z" />
    <glyph glyph-name="uni04A3" unicode="&#x4a3;" horiz-adv-x="614" 
d="M456 -160l8 160h-85l32 230h-250l-32 -230h-90l70 500h90l-27 -195h250l27 195h90l-59 -425h74l-33 -235h-65z" />
    <glyph glyph-name="uni0525" unicode="&#x525;" horiz-adv-x="614" 
d="M456 -160l8 160h-85l60 425h-250l-60 -425h-90l70 500h430l-59 -425h74l-33 -235h-65z" />
    <glyph glyph-name="uni04A7" unicode="&#x4a7;" horiz-adv-x="909" 
d="M653 290c93 0 182 -47 182 -216c0 -207 -129 -304 -270 -304c-41 0 -71 8 -91 18l11 75c17 -9 47 -18 82 -18c92 0 172 77 172 220c0 125 -64 150 -121 150c-34 0 -78 -8 -124 -39l-25 -176h-90l60 425h-250l-60 -425h-90l70 500h430l-35 -249c42 23 94 39 149 39z" />
    <glyph glyph-name="uni04A9" unicode="&#x4a9;" horiz-adv-x="631" 
d="M532 250c0 -52 -29 -119 -80 -171c21 -12 47 -19 78 -19l-10 -70c-52 0 -95 16 -128 41c-42 -25 -91 -41 -148 -41c-123 0 -206 76 -206 225c0 173 112 295 284 295c56 0 96 -13 133 -30l-11 -80c-40 21 -81 40 -135 40c-122 0 -171 -104 -171 -221
c0 -106 40 -154 123 -154c30 0 58 6 82 17c-27 40 -41 87 -41 126c0 77 51 147 132 147c65 0 98 -51 98 -105zM425 290c-25 0 -44 -41 -44 -86c0 -29 7 -56 22 -80c30 33 48 75 48 116c0 29 -9 50 -26 50z" />
    <glyph glyph-name="uni04AB" unicode="&#x4ab;" horiz-adv-x="510" 
d="M299 435c-92 0 -162 -91 -162 -220c0 -106 46 -150 111 -150c53 0 109 31 131 100h85c-29 -108 -113 -166 -204 -174l-23 -51c69 13 116 -14 108 -74c-9 -62 -68 -96 -129 -96c-34 0 -53 7 -74 19l7 52c21 -13 40 -21 64 -21c30 0 57 12 61 41c7 51 -65 42 -119 24
l50 107c-97 14 -168 90 -168 220c0 177 129 298 273 298c103 0 180 -61 177 -175h-85c-1 72 -51 100 -103 100z" />
    <glyph glyph-name="uni04AD" unicode="&#x4ad;" horiz-adv-x="457" 
d="M467 425h-169l-49 -350h74l-33 -235h-65l8 160h-85l60 425h-168l10 75h427z" />
    <glyph glyph-name="uni04AF" unicode="&#x4af;" horiz-adv-x="488" 
d="M135 -230l35 250l-130 480h105l88 -369l182 369h103l-258 -482l-35 -248h-90z" />
    <glyph glyph-name="uni04B1" unicode="&#x4b1;" horiz-adv-x="488" 
d="M260 18l-3 -18h143l-9 -65h-143l-23 -165h-90l23 165h-140l9 65h140l3 20l-130 480h105l88 -369l182 369h103z" />
    <glyph glyph-name="uni04B3" unicode="&#x4b3;" horiz-adv-x="556" 
d="M398 -160l8 160h-61l-103 177l-149 -177h-109l216 254l-141 246h109l99 -177l148 177h109l-214 -249l102 -176h84l-33 -235h-65z" />
    <glyph glyph-name="uni04B7" unicode="&#x4b7;" horiz-adv-x="574" 
d="M416 -160l8 160h-85l30 209c-34 -17 -92 -39 -160 -39c-105 0 -169 52 -149 190l19 140h90l-15 -110c-16 -116 20 -140 93 -140c40 0 85 7 133 39l29 211h90l-59 -425h74l-33 -235h-65z" />
    <glyph glyph-name="uni04B9" unicode="&#x4b9;" horiz-adv-x="548" 
d="M419 500h90l-70 -500h-90l30 209c-24 -12 -60 -27 -104 -34l-16 -115h-60l16 110c-113 1 -175 54 -156 190l20 140h90l-15 -110c-14 -100 11 -132 72 -139l17 119h60l-17 -119c32 4 67 14 104 38z" />
    <glyph glyph-name="uni04BB" unicode="&#x4bb;" horiz-adv-x="578" 
d="M367 510c102 0 167 -51 147 -188l-45 -322h-90l43 302c14 103 -30 128 -88 128c-63 0 -151 -45 -172 -193l-33 -237h-90l104 740h90l-45 -321c34 44 93 91 179 91z" />
    <glyph glyph-name="uni0527" unicode="&#x527;" horiz-adv-x="643" 
d="M456 -160l8 160h-85l43 302c14 103 -29 128 -87 128c-63 0 -152 -45 -172 -193l-34 -237h-90l104 740h90l-45 -321c34 44 93 91 179 91c102 0 167 -51 148 -188l-35 -247h74l-33 -235h-65z" />
    <glyph glyph-name="uni04BD" unicode="&#x4bd;" horiz-adv-x="644" 
d="M599 250h-341c-1 -11 -2 -22 -2 -34c0 -107 46 -151 111 -151c53 0 109 22 131 90h85c-31 -115 -127 -165 -227 -165c-112 0 -200 76 -200 224c0 13 1 25 2 37c-87 10 -141 81 -128 176c2 10 4 20 7 30h90c-3 -10 -5 -20 -7 -30c-9 -63 6 -103 51 -111
c38 118 139 194 257 194c92 0 176 -45 176 -194c0 -17 -1 -40 -5 -66zM413 440c-70 0 -120 -52 -143 -125h235c0 73 -21 125 -92 125z" />
    <glyph glyph-name="uni04BF" unicode="&#x4bf;" horiz-adv-x="644" 
d="M599 250h-341c-1 -11 -2 -22 -2 -34c0 -107 46 -151 111 -151c53 0 109 22 131 90h85c-23 -84 -81 -134 -149 -154c-46 -29 -87 -68 -87 -108c0 -25 16 -48 50 -48c16 0 35 5 51 11l-9 -60c-23 -11 -49 -16 -72 -16c-65 0 -108 38 -108 91c0 41 32 85 79 120
c-103 8 -182 83 -182 223c0 13 1 25 2 37c-87 10 -141 81 -128 176c2 10 4 20 7 30h90c-3 -10 -5 -20 -7 -30c-9 -63 6 -103 51 -111c38 118 139 194 257 194c92 0 176 -45 176 -194c0 -17 -1 -40 -5 -66zM413 440c-70 0 -120 -52 -143 -125h235c0 73 -21 125 -92 125z" />
    <glyph glyph-name="uni04CF" unicode="&#x4cf;" horiz-adv-x="238" 
d="M39 0l70 500h90l-70 -500h-90z" />
    <glyph glyph-name="uni04C2" unicode="&#x4c2;" horiz-adv-x="803" 
d="M448 580c-94 0 -140 57 -136 160h60c7 -61 31 -90 86 -90c56 0 88 29 111 90h60c-24 -103 -86 -160 -181 -160zM750 510c21 0 39 -5 49 -10l-9 -65c-7 1 -11 2 -22 2c-30 0 -49 -7 -64 -52l-12 -36c-15 -44 -41 -64 -88 -79c43 -15 64 -53 67 -104l3 -51
c2 -36 16 -52 48 -52c10 0 15 1 21 2l-9 -65c-19 -7 -38 -10 -64 -10c-64 0 -88 42 -92 115l-4 59c-3 44 -26 66 -85 66h-50l-32 -230h-80l32 230h-50c-60 0 -88 -22 -103 -66l-20 -59c-26 -73 -62 -115 -126 -115c-26 0 -44 3 -61 10l9 65c6 -1 12 -2 22 -2
c32 0 50 16 62 52l17 51c17 51 50 89 97 104c-43 15 -64 35 -67 79l-1 36c-3 45 -20 52 -50 52c-12 0 -16 -1 -23 -2l9 65c12 5 32 10 53 10c74 0 104 -37 105 -110v-34c0 -43 27 -61 88 -61h50l27 195h80l-27 -195h50c61 0 92 18 104 61l10 34c21 73 63 110 136 110z" />
    <glyph glyph-name="uni04C4" unicode="&#x4c4;" horiz-adv-x="609" 
d="M236 -230c-41 0 -71 8 -91 18l10 75c18 -9 49 -18 82 -18c85 0 171 64 171 207c0 136 -78 178 -200 178h-47l-32 -230h-90l70 500h90l-27 -195h47c99 0 131 18 143 61l10 34c19 72 63 110 133 110c24 0 42 -5 52 -10l-9 -65c-7 1 -11 2 -23 2c-28 0 -49 -6 -64 -52
l-11 -36c-14 -43 -41 -63 -87 -78c91 -31 141 -93 141 -213c0 -196 -130 -288 -268 -288z" />
    <glyph glyph-name="uni04C6" unicode="&#x4c6;" horiz-adv-x="598" 
d="M399 -160l36 160h-72l60 425h-172c-40 -250 -91 -435 -225 -435c-24 0 -38 5 -46 10l9 65c6 -1 12 -2 17 -2c94 0 132 167 170 437h347l-59 -425h74l-74 -235h-65z" />
    <glyph glyph-name="uni04C8" unicode="&#x4c8;" horiz-adv-x="579" 
d="M449 500h90l-78 -559c-13 -95 -93 -171 -209 -171l10 75c61 0 100 31 111 111l38 274h-250l-32 -230h-90l70 500h90l-27 -195h250z" />
    <glyph glyph-name="uni04CA" unicode="&#x4ca;" horiz-adv-x="614" 
d="M415 -160l36 160h-72l32 230h-250l-32 -230h-90l70 500h90l-27 -195h250l27 195h90l-59 -425h74l-74 -235h-65z" />
    <glyph glyph-name="uni04CC" unicode="&#x4cc;" horiz-adv-x="540" 
d="M411 500h90l-70 -500h-84l-36 -160h-65l33 235h73l19 134c-34 -17 -92 -39 -160 -39c-105 0 -169 52 -149 190l19 140h90l-15 -110c-16 -116 19 -140 93 -140c40 0 85 7 133 39z" />
    <glyph glyph-name="uni04CE" unicode="&#x4ce;" horiz-adv-x="732" 
d="M533 -160l36 160h-73l44 317l-198 -257h-40l-128 257l-45 -317h-90l70 500h70l159 -320l248 320h70l-59 -425h75l-74 -235h-65z" />
    <glyph glyph-name="uni04D1" unicode="&#x4d1;" horiz-adv-x="580" 
d="M330 580c-94 0 -140 57 -136 160h60c7 -61 31 -90 86 -90c56 0 88 29 111 90h60c-24 -103 -86 -160 -181 -160zM451 500h90l-71 -500h-90l10 68c-43 -50 -97 -78 -160 -78c-107 0 -188 79 -188 221c0 177 125 299 260 299c65 0 110 -28 139 -78zM250 65
c86 0 169 85 169 217c0 106 -53 153 -117 153c-88 0 -160 -89 -160 -221c0 -104 45 -149 108 -149z" />
    <glyph glyph-name="uni04D3" unicode="&#x4d3;" horiz-adv-x="580" 
d="M235 615c-29 0 -49 22 -49 51c0 32 31 64 65 64c29 0 49 -23 49 -50c0 -35 -32 -65 -65 -65zM435 615c-29 0 -49 22 -49 51c0 32 31 64 65 64c29 0 49 -23 49 -50c0 -35 -32 -65 -65 -65zM230 -10c-107 0 -188 79 -188 221c0 177 125 299 260 299c65 0 110 -28 139 -78
l10 68h90l-71 -500h-90l10 68c-43 -50 -97 -78 -160 -78zM250 65c86 0 169 85 169 217c0 106 -53 153 -117 153c-88 0 -160 -89 -160 -221c0 -104 45 -149 108 -149z" />
    <glyph glyph-name="uni04D7" unicode="&#x4d7;" horiz-adv-x="530" 
d="M313 580c-94 0 -140 57 -136 160h60c7 -61 31 -90 86 -90c56 0 88 29 111 90h60c-24 -103 -86 -160 -181 -160zM315 510c92 0 176 -45 176 -194c0 -17 -1 -40 -5 -66h-341c-1 -11 -2 -22 -2 -34c0 -107 46 -151 111 -151c53 0 109 22 131 90h85
c-31 -115 -127 -165 -227 -165c-112 0 -200 76 -200 224c0 174 122 296 272 296zM157 315h235c0 73 -21 125 -92 125c-70 0 -120 -52 -143 -125z" />
    <glyph glyph-name="uni04D9" unicode="&#x4d9;" horiz-adv-x="530" 
d="M294 510c115 0 194 -74 194 -219c0 -181 -124 -301 -271 -301c-110 0 -201 67 -173 260h342c1 14 2 28 2 42c0 97 -34 143 -105 143c-55 0 -115 -28 -137 -100h-85c31 117 130 175 233 175zM233 60c68 0 117 51 140 125h-234c-5 -70 24 -125 94 -125z" />
    <glyph glyph-name="uni04DB" unicode="&#x4db;" horiz-adv-x="530" 
d="M211 615c-29 0 -49 22 -49 51c0 32 31 64 65 64c29 0 49 -23 49 -50c0 -35 -32 -65 -65 -65zM411 615c-29 0 -49 22 -49 51c0 32 31 64 65 64c29 0 49 -23 49 -50c0 -35 -32 -65 -65 -65zM294 510c115 0 194 -74 194 -219c0 -181 -124 -301 -271 -301
c-110 0 -201 67 -173 260h342c1 14 2 28 2 42c0 97 -34 143 -105 143c-55 0 -115 -28 -137 -100h-85c31 117 130 175 233 175zM233 60c68 0 117 51 140 125h-234c-5 -70 24 -125 94 -125z" />
    <glyph glyph-name="uni04DD" unicode="&#x4dd;" horiz-adv-x="803" 
d="M353 615c-29 0 -49 22 -49 51c0 32 31 64 65 64c29 0 49 -23 49 -50c0 -35 -32 -65 -65 -65zM553 615c-29 0 -49 22 -49 51c0 32 31 64 65 64c29 0 49 -23 49 -50c0 -35 -32 -65 -65 -65zM722 63c10 0 15 1 21 2l-9 -65c-19 -7 -38 -10 -64 -10c-64 0 -88 42 -92 115
l-4 59c-3 44 -26 66 -85 66h-50l-32 -230h-80l32 230h-50c-60 0 -88 -22 -103 -66l-20 -59c-26 -73 -62 -115 -126 -115c-26 0 -44 3 -61 10l9 65c6 -1 12 -2 22 -2c32 0 50 16 62 52l17 51c17 51 50 89 97 104c-43 15 -64 35 -67 79l-1 36c-3 45 -20 52 -50 52
c-12 0 -16 -1 -23 -2l9 65c12 5 32 10 53 10c74 0 104 -37 105 -110v-34c0 -43 27 -61 88 -61h50l27 195h80l-27 -195h50c61 0 92 18 104 61l10 34c21 73 63 110 136 110c21 0 39 -5 49 -10l-9 -65c-7 1 -11 2 -22 2c-30 0 -49 -7 -64 -52l-12 -36c-15 -44 -41 -64 -88 -79
c43 -15 64 -53 67 -104l3 -51c2 -36 16 -52 48 -52z" />
    <glyph glyph-name="uni04DF" unicode="&#x4df;" horiz-adv-x="459" 
d="M164 615c-29 0 -49 22 -49 51c0 32 31 64 65 64c29 0 49 -23 49 -50c0 -35 -32 -65 -65 -65zM364 615c-29 0 -49 22 -49 51c0 32 31 64 65 64c29 0 49 -23 49 -50c0 -35 -32 -65 -65 -65zM179 -10c-61 0 -127 12 -167 30l12 85c39 -20 94 -40 156 -40c76 0 124 28 124 82
c0 46 -37 73 -144 73l9 65c129 0 156 26 156 78c0 51 -27 72 -92 72c-60 0 -111 -18 -158 -40l12 85c43 18 101 30 163 30c119 0 172 -49 172 -123c0 -54 -27 -106 -102 -136c54 -22 78 -59 78 -107c0 -96 -90 -154 -219 -154z" />
    <glyph glyph-name="uni04E1" unicode="&#x4e1;" horiz-adv-x="474" 
d="M219 228c123 -22 177 -99 177 -198c0 -152 -126 -260 -283 -260c-53 0 -122 12 -161 30l12 85c38 -21 93 -40 149 -40c106 0 188 70 188 180c0 88 -53 145 -171 145h-60l4 30l222 225h-256l10 75h383l-7 -55z" />
    <glyph glyph-name="uni04E3" unicode="&#x4e3;" horiz-adv-x="578" 
d="M189 630l10 70h317l-10 -70h-317zM469 500h70l-70 -500h-90l50 358l-320 -358h-70l70 500h90l-49 -357z" />
    <glyph glyph-name="uni04E5" unicode="&#x4e5;" horiz-adv-x="578" 
d="M245 615c-29 0 -49 22 -49 51c0 32 31 64 65 64c29 0 49 -23 49 -50c0 -35 -32 -65 -65 -65zM445 615c-29 0 -49 22 -49 51c0 32 31 64 65 64c29 0 49 -23 49 -50c0 -35 -32 -65 -65 -65zM469 500h70l-70 -500h-90l50 358l-320 -358h-70l70 500h90l-49 -357z" />
    <glyph glyph-name="uni04E7" unicode="&#x4e7;" horiz-adv-x="561" 
d="M232 615c-29 0 -49 22 -49 51c0 32 31 64 65 64c29 0 49 -23 49 -50c0 -35 -32 -65 -65 -65zM432 615c-29 0 -49 22 -49 51c0 32 31 64 65 64c29 0 49 -23 49 -50c0 -35 -32 -65 -65 -65zM245 -10c-115 0 -203 76 -203 222c0 177 129 298 274 298c115 0 203 -75 203 -222
c0 -177 -129 -298 -274 -298zM254 65c94 0 165 90 165 220c0 106 -46 150 -113 150c-94 0 -164 -90 -164 -221c0 -106 46 -149 112 -149z" />
    <glyph glyph-name="uni04E9" unicode="&#x4e9;" horiz-adv-x="558" 
d="M316 510c117 0 205 -78 201 -221c-4 -171 -121 -299 -275 -299c-116 0 -204 78 -200 221c4 171 121 299 274 299zM305 435c-79 0 -135 -61 -157 -145h274c2 99 -49 145 -117 145zM253 65c85 0 142 68 162 160h-278v-12c-3 -101 48 -148 116 -148z" />
    <glyph glyph-name="uni04EB" unicode="&#x4eb;" horiz-adv-x="558" 
d="M191 615c-29 0 -49 22 -49 51c0 32 31 64 65 64c29 0 49 -23 49 -50c0 -35 -32 -65 -65 -65zM391 615c-29 0 -49 22 -49 51c0 32 31 64 65 64c29 0 49 -23 49 -50c0 -35 -32 -65 -65 -65zM316 510c117 0 205 -78 201 -221c-4 -171 -121 -299 -275 -299
c-116 0 -204 78 -200 221c4 171 121 299 274 299zM305 435c-79 0 -135 -61 -157 -145h274c2 99 -49 145 -117 145zM253 65c85 0 142 68 162 160h-278v-12c-3 -101 48 -148 116 -148z" />
    <glyph glyph-name="uni04ED" unicode="&#x4ed;" horiz-adv-x="513" 
d="M191 615c-29 0 -49 22 -49 51c0 32 31 64 65 64c29 0 49 -23 49 -50c0 -35 -32 -65 -65 -65zM391 615c-29 0 -49 22 -49 51c0 32 31 64 65 64c29 0 49 -23 49 -50c0 -35 -32 -65 -65 -65zM292 510c112 0 191 -75 191 -219c0 -176 -117 -301 -263 -301
c-100 0 -189 59 -188 175h85c2 -72 58 -100 111 -100c80 0 137 64 155 160h-199l9 65h195c-1 104 -43 145 -107 145c-54 0 -118 -28 -140 -100h-85c31 116 137 175 236 175z" />
    <glyph glyph-name="uni04EF" unicode="&#x4ef;" horiz-adv-x="491" 
d="M144 630l10 70h317l-10 -70h-317zM418 500h103l-268 -500c-72 -135 -161 -230 -286 -230l12 85c79 0 140 67 191 163l-130 482h105l88 -372z" />
    <glyph glyph-name="uni04F1" unicode="&#x4f1;" horiz-adv-x="491" 
d="M200 615c-29 0 -49 22 -49 51c0 32 31 64 65 64c29 0 49 -23 49 -50c0 -35 -32 -65 -65 -65zM400 615c-29 0 -49 22 -49 51c0 32 31 64 65 64c29 0 49 -23 49 -50c0 -35 -32 -65 -65 -65zM418 500h103l-268 -500c-72 -135 -161 -230 -286 -230l12 85c79 0 140 67 191 163
l-130 482h105l88 -372z" />
    <glyph glyph-name="uni04F3" unicode="&#x4f3;" horiz-adv-x="491" 
d="M175 580l109 160h110l-149 -160h-70zM345 580l109 160h110l-149 -160h-70zM418 500h103l-268 -500c-72 -135 -161 -230 -286 -230l12 85c79 0 140 67 191 163l-130 482h105l88 -372z" />
    <glyph glyph-name="uni04F5" unicode="&#x4f5;" horiz-adv-x="538" 
d="M205 615c-29 0 -49 22 -49 51c0 32 31 64 65 64c29 0 49 -23 49 -50c0 -35 -32 -65 -65 -65zM405 615c-29 0 -49 22 -49 51c0 32 31 64 65 64c29 0 49 -23 49 -50c0 -35 -32 -65 -65 -65zM409 500h90l-70 -500h-90l30 209c-34 -17 -92 -39 -160 -39
c-105 0 -169 52 -150 190l20 140h90l-15 -110c-16 -116 20 -140 93 -140c40 0 85 7 133 39z" />
    <glyph glyph-name="uni04F7" unicode="&#x4f7;" horiz-adv-x="446" 
d="M446 425h-257l-49 -350h74l-33 -235h-65l8 160h-85l70 500h347z" />
    <glyph glyph-name="uni04F9" unicode="&#x4f9;" horiz-adv-x="740" 
d="M294 615c-29 0 -49 22 -49 51c0 32 31 64 65 64c29 0 49 -23 49 -50c0 -35 -32 -65 -65 -65zM494 615c-29 0 -49 22 -49 51c0 32 31 64 65 64c29 0 49 -23 49 -50c0 -35 -32 -65 -65 -65zM39 0l70 500h90l-27 -195h109c110 0 171 -44 171 -134c0 -102 -79 -171 -214 -171
h-199zM541 0l70 500h90l-70 -500h-90zM140 75h98c79 0 118 26 118 88c0 47 -23 67 -96 67h-99z" />
    <glyph glyph-name="uni04FD" unicode="&#x4fd;" horiz-adv-x="558" 
d="M495 75c-4 -175 -98 -245 -218 -245l10 75c58 0 104 19 121 95h-63l-103 177l-149 -177h-109l216 254l-141 246h109l99 -177l148 177h109l-214 -249l101 -176h84z" />
    <glyph glyph-name="uni0511" unicode="&#x511;" horiz-adv-x="448" 
d="M206 -10c-113 0 -180 43 -180 122c0 59 37 111 111 139c-48 23 -67 56 -67 102c0 99 89 157 214 157c59 0 114 -12 152 -30l-12 -85c-41 22 -88 40 -144 40c-74 0 -117 -31 -117 -87c0 -47 30 -63 136 -63l-9 -65c-92 0 -167 -22 -167 -88c0 -47 38 -67 102 -67
c63 0 123 20 169 40l-12 -85c-45 -18 -115 -30 -176 -30z" />
    <glyph glyph-name="uni0513" unicode="&#x513;" horiz-adv-x="563" 
d="M176 500h347l-78 -559c-13 -95 -93 -171 -209 -171l10 75c61 0 100 31 111 111l66 469h-172c-40 -250 -91 -435 -225 -435c-24 0 -38 5 -46 10l9 65c6 -1 12 -2 17 -2c94 0 132 167 170 437z" />
    <glyph glyph-name="uni051D" unicode="&#x51d;" horiz-adv-x="762" 
d="M692 500h95l-240 -500h-72l-80 354l-177 -354h-76l-97 500h100l58 -372l164 342h90l68 -342z" />
    <glyph glyph-name="uni04A4" unicode="&#x4a4;" horiz-adv-x="806" 
d="M864 700l-12 -80h-141l-87 -620h-95l46 325h-385l-46 -325h-95l98 700h95l-41 -295h385l41 295h95h142z" />
    <glyph glyph-name="uni04A5" unicode="&#x4a5;" horiz-adv-x="659" 
d="M679 500l-10 -75h-140l-60 -425h-90l32 230h-250l-32 -230h-90l70 500h90l-27 -195h250l27 195h90h140z" />
    <glyph glyph-name="uni04B4" unicode="&#x4b4;" horiz-adv-x="841" 
d="M718 80h83l-33 -240h-75l9 160h-532l87 620h-190l11 80h475l-11 -80h-190l-76 -540h347l87 620h95z" />
    <glyph glyph-name="uni04B5" unicode="&#x4b5;" horiz-adv-x="671" 
d="M538 75h73l-33 -235h-65l8 160h-414l60 425h-127l10 75h343l-10 -75h-126l-49 -350h240l59 425h90z" />
    <glyph glyph-name="uni04D4" unicode="&#x4d4;" horiz-adv-x="967" 
d="M955 620h-353l-30 -215h323l-11 -80h-323l-35 -245h363l-11 -80h-458l27 190h-265l-102 -190h-100l380 700h187h419zM225 270h233l49 350h-93z" />
    <glyph glyph-name="uni04D5" unicode="&#x4d5;" horiz-adv-x="831" 
d="M786 250h-341c-1 -11 -2 -22 -2 -34c0 -107 46 -151 111 -151c53 0 109 22 131 90h85c-31 -115 -127 -165 -227 -165c-80 0 -148 39 -180 115c-47 -66 -117 -115 -205 -115c-78 0 -132 38 -132 117c0 141 169 204 324 191l3 19c1 11 2 20 2 31c0 65 -37 87 -91 87
c-52 0 -103 -20 -148 -40l12 85c44 18 99 30 157 30c60 0 122 -14 147 -74c48 47 112 74 183 74c92 0 176 -45 176 -194c0 -17 -1 -40 -5 -66zM600 440c-70 0 -120 -52 -143 -125h235c0 73 -21 125 -92 125zM336 192l5 41c-108 8 -217 -18 -217 -111c0 -43 26 -62 62 -62
c60 0 139 51 150 132z" />
    <glyph glyph-name="Alpha" unicode="&#x391;" horiz-adv-x="663" 
d="M508 0l-44 190h-285l-96 -190h-103l359 700h107l167 -700h-105zM219 270h227l-71 309z" />
    <glyph glyph-name="Beta" unicode="&#x392;" horiz-adv-x="655" 
d="M483 369c71 -22 121 -69 121 -156c0 -139 -127 -213 -269 -213h-286l98 700h255c122 0 213 -53 213 -161c0 -80 -51 -138 -132 -170zM231 620l-30 -215h160c102 0 152 46 152 116c0 67 -47 99 -141 99h-141zM325 80c111 0 175 36 175 133c0 81 -45 112 -149 112h-161
l-35 -245h170z" />
    <glyph glyph-name="Gamma" unicode="&#x393;" horiz-adv-x="530" 
d="M578 700l-11 -80h-336l-87 -620h-95l98 700h431z" />
    <glyph glyph-name="uni0394" unicode="&#x394;" horiz-adv-x="665" 
d="M448 700l167 -700h-635l358 700h110zM125 80h366l-116 499z" />
    <glyph glyph-name="Epsilon" unicode="&#x395;" horiz-adv-x="601" 
d="M160 80h363l-11 -80h-458l98 700h448l-11 -80h-353l-30 -215h323l-11 -80h-323z" />
    <glyph glyph-name="Zeta" unicode="&#x396;" horiz-adv-x="587" 
d="M133 80h405l-11 -80h-537l8 60l474 560h-375l11 80h507l-8 -60z" />
    <glyph glyph-name="Eta" unicode="&#x397;" horiz-adv-x="743" 
d="M627 700h95l-98 -700h-95l46 325h-385l-46 -325h-95l98 700h95l-41 -295h385z" />
    <glyph glyph-name="Theta" unicode="&#x398;" horiz-adv-x="735" 
d="M433 710c165 0 271 -112 271 -296c0 -247 -154 -424 -372 -424c-167 0 -272 112 -272 297c0 246 154 423 373 423zM343 70c153 0 261 143 261 337c0 142 -72 223 -183 223c-154 0 -260 -143 -260 -337c0 -141 71 -223 182 -223zM257 322l8 70h257l-8 -70h-257z" />
    <glyph glyph-name="Iota" unicode="&#x399;" horiz-adv-x="273" 
d="M152 700h95l-98 -700h-95z" />
    <glyph glyph-name="Kappa" unicode="&#x39a;" horiz-adv-x="650" 
d="M49 0l98 700h95l-98 -700h-95zM364 368l251 -368h-114l-255 363l333 337h114z" />
    <glyph glyph-name="Lambda" unicode="&#x39b;" horiz-adv-x="666" 
d="M448 700l168 -700h-105l-135 579l-290 -579h-106l358 700h110z" />
    <glyph glyph-name="Mu" unicode="&#x39c;" horiz-adv-x="852" 
d="M755 700h81l-98 -700h-95l66 470l-289 -404h-40l-174 404l-67 -470h-95l98 700h81l198 -482z" />
    <glyph glyph-name="Nu" unicode="&#x39d;" horiz-adv-x="753" 
d="M637 700h95l-98 -700h-75l-340 535l-75 -535h-95l98 700h75l340 -535z" />
    <glyph glyph-name="Xi" unicode="&#x39e;" horiz-adv-x="625" 
d="M106 620l11 80h517l-11 -80h-517zM163 325l12 80h320l-12 -80h-320zM19 0l11 80h517l-11 -80h-517z" />
    <glyph glyph-name="Omicron" unicode="&#x39f;" horiz-adv-x="737" 
d="M432 710c167 0 273 -108 273 -301c0 -239 -154 -419 -371 -419c-168 0 -273 109 -273 302c0 237 154 418 371 418zM344 70c147 0 256 147 256 333c0 149 -72 227 -179 227c-147 0 -255 -147 -255 -333c0 -149 71 -227 178 -227z" />
    <glyph glyph-name="Pi" unicode="&#x3a0;" horiz-adv-x="725" 
d="M35 0l98 700h557l-98 -700h-95l87 620h-367l-87 -620h-95z" />
    <glyph glyph-name="Rho" unicode="&#x3a1;" horiz-adv-x="603" 
d="M389 700c119 0 219 -59 219 -186c0 -162 -133 -244 -278 -244h-143l-38 -270h-95l98 700h237zM320 350c115 0 187 50 187 157c0 81 -56 113 -148 113h-123l-38 -270h122z" />
    <glyph glyph-name="Sigma" unicode="&#x3a3;" horiz-adv-x="567" 
d="M145 80h373l-11 -80h-517l5 40l284 320l-196 300l5 40h507l-11 -80h-358l170 -260z" />
    <glyph glyph-name="Tau" unicode="&#x3a4;" horiz-adv-x="575" 
d="M623 700l-11 -80h-225l-87 -620h-95l87 620h-225l11 80h545z" />
    <glyph glyph-name="Upsilon" unicode="&#x3a5;" horiz-adv-x="631" 
d="M234 0l41 296l-197 404h110l149 -319l235 319h107l-308 -403l-42 -297h-95z" />
    <glyph glyph-name="Phi" unicode="&#x3a6;" horiz-adv-x="753" 
d="M474 650c139 -5 248 -96 248 -246c0 -176 -151 -309 -326 -314l-16 -110h-85l16 110c-138 5 -247 97 -247 246c0 176 151 309 325 314l14 100h85zM321 165l58 410c-119 -6 -211 -104 -211 -235c0 -107 63 -170 153 -175zM406 165c119 6 212 104 212 235
c0 107 -63 170 -154 175z" />
    <glyph glyph-name="Chi" unicode="&#x3a7;" horiz-adv-x="634" 
d="M584 0h-114l-154 284l-224 -284h-112l294 360l-186 340h114l145 -264l206 264h109l-274 -341z" />
    <glyph glyph-name="Psi" unicode="&#x3a8;" horiz-adv-x="717" 
d="M656 700h95l-32 -230c-23 -165 -156 -255 -324 -260l-29 -210h-85l29 210c-166 5 -273 95 -250 260l32 230h95l-32 -230c-18 -125 55 -180 166 -185l58 415h85l-58 -415c113 5 200 60 218 185z" />
    <glyph glyph-name="uni03A9" unicode="&#x3a9;" horiz-adv-x="778" 
d="M538 74l167 6l-11 -80h-283l10 70c117 46 211 189 211 348c0 134 -69 212 -191 212c-155 0 -261 -128 -261 -310c0 -121 49 -215 128 -250l-10 -70h-284l11 80l165 -6c-68 49 -115 137 -115 250c0 217 169 386 378 386c174 0 284 -118 284 -291
c0 -153 -85 -278 -199 -345z" />
    <glyph glyph-name="Alphatonos" unicode="&#x386;" horiz-adv-x="663" 
d="M508 0l-44 190h-285l-96 -190h-103l359 700h107l167 -700h-105zM140 540l38 160h105l-78 -160h-65zM219 270h227l-71 309z" />
    <glyph glyph-name="Epsilontonos" unicode="&#x388;" horiz-adv-x="686" 
d="M56 540l38 160h105l-78 -160h-65zM246 80h363l-11 -80h-458l98 700h448l-11 -80h-353l-30 -215h323l-11 -80h-323z" />
    <glyph glyph-name="Etatonos" unicode="&#x389;" horiz-adv-x="839" 
d="M56 540l38 160h105l-78 -160h-65zM723 700h95l-98 -700h-95l46 325h-385l-46 -325h-95l98 700h95l-41 -295h385z" />
    <glyph glyph-name="Iotatonos" unicode="&#x38a;" horiz-adv-x="359" 
d="M56 540l38 160h105l-78 -160h-65zM238 700h95l-98 -700h-95z" />
    <glyph glyph-name="Omicrontonos" unicode="&#x38c;" horiz-adv-x="742" 
d="M437 710c167 0 273 -108 273 -301c0 -239 -154 -419 -371 -419c-168 0 -273 109 -273 302c0 237 154 418 371 418zM22 540l38 160h105l-78 -160h-65zM349 70c147 0 256 147 256 333c0 149 -72 227 -179 227c-147 0 -255 -147 -255 -333c0 -149 71 -227 178 -227z" />
    <glyph glyph-name="Upsilontonos" unicode="&#x38e;" horiz-adv-x="652" 
d="M-67 540l38 160h105l-78 -160h-65zM255 0l41 296l-197 404h110l149 -319l235 319h107l-308 -403l-42 -297h-95z" />
    <glyph glyph-name="Omegatonos" unicode="&#x38f;" horiz-adv-x="784" 
d="M544 74l167 6l-11 -80h-283l10 70c117 46 211 189 211 348c0 134 -69 212 -191 212c-155 0 -261 -128 -261 -310c0 -121 49 -215 128 -250l-10 -70h-284l11 80l165 -6c-68 49 -115 137 -115 250c0 217 169 386 378 386c174 0 284 -118 284 -291
c0 -153 -85 -278 -199 -345zM20 540l38 160h105l-78 -160h-65z" />
    <glyph glyph-name="Iotadieresis" unicode="&#x3aa;" horiz-adv-x="273" 
d="M111 775c-29 0 -49 22 -49 51c0 32 31 64 65 64c29 0 49 -23 49 -50c0 -35 -32 -65 -65 -65zM311 775c-29 0 -49 22 -49 51c0 32 31 64 65 64c29 0 49 -23 49 -50c0 -35 -32 -65 -65 -65zM152 700h95l-98 -700h-95z" />
    <glyph glyph-name="Upsilondieresis" unicode="&#x3ab;" horiz-adv-x="631" 
d="M290 775c-29 0 -49 22 -49 51c0 32 31 64 65 64c29 0 49 -23 49 -50c0 -35 -32 -65 -65 -65zM490 775c-29 0 -49 22 -49 51c0 32 31 64 65 64c29 0 49 -23 49 -50c0 -35 -32 -65 -65 -65zM234 0l41 296l-197 404h110l149 -319l235 319h107l-308 -403l-42 -297h-95z" />
    <glyph glyph-name="alpha" unicode="&#x3b1;" horiz-adv-x="602" 
d="M521 63c7 0 14 1 20 2l-10 -70c-11 -3 -26 -5 -39 -5c-54 0 -95 36 -100 81c-42 -50 -95 -81 -163 -81c-107 0 -188 75 -188 212c0 160 110 308 261 308c66 0 109 -28 139 -77l9 67h85l-52 -372c-5 -39 1 -65 38 -65zM249 65c73 0 148 62 166 185c2 15 3 30 3 44
c0 93 -53 141 -118 141c-105 0 -159 -125 -159 -230c0 -96 45 -140 108 -140z" />
    <glyph glyph-name="beta" unicode="&#x3b2;" horiz-adv-x="577" 
d="M28 -220c-10 72 1 147 11 220l76 542c19 135 123 208 236 208c100 0 184 -58 184 -165c0 -81 -47 -151 -124 -189c72 -30 116 -85 116 -170c0 -142 -121 -236 -248 -236c-69 0 -112 28 -141 77l-9 -67c-8 -56 -21 -145 -11 -220h-90zM281 65c77 0 146 59 146 161
c0 84 -48 128 -161 128l11 75c116 0 167 67 167 146c0 67 -41 100 -102 100c-74 0 -125 -47 -139 -148l-39 -277c-16 -117 37 -185 117 -185z" />
    <glyph glyph-name="gamma" unicode="&#x3b3;" horiz-adv-x="489" 
d="M127 -220c22 70 37 140 47 220c23 178 -44 363 -134 500h105c65 -105 114 -237 117 -392c97 115 148 257 167 392h90c-24 -167 -107 -333 -254 -500c-10 -80 -26 -150 -48 -220h-90z" />
    <glyph glyph-name="delta" unicode="&#x3b4;" horiz-adv-x="560" 
d="M245 -10c-116 0 -205 78 -205 212s89 221 197 267c-38 28 -64 62 -64 118c0 101 89 163 195 163c49 0 92 -13 129 -30l-12 -80c-39 21 -85 40 -129 40c-56 0 -85 -33 -85 -70c0 -109 245 -105 245 -337c0 -169 -131 -283 -271 -283zM255 65c89 0 160 81 160 192
c0 92 -49 132 -110 170c-130 -47 -165 -134 -165 -218c0 -99 47 -144 115 -144z" />
    <glyph glyph-name="epsilon" unicode="&#x3b5;" horiz-adv-x="448" 
d="M206 -10c-113 0 -180 43 -180 122c0 59 37 111 111 139c-48 23 -67 56 -67 102c0 99 89 157 214 157c59 0 114 -12 152 -30l-12 -85c-41 22 -88 40 -144 40c-74 0 -117 -31 -117 -87c0 -47 30 -63 136 -63l-9 -65c-92 0 -167 -22 -167 -88c0 -47 38 -67 102 -67
c63 0 123 20 169 40l-12 -85c-45 -18 -115 -30 -176 -30z" />
    <glyph glyph-name="zeta" unicode="&#x3b6;" horiz-adv-x="452" 
d="M244 -195c39 42 65 83 65 121c0 124 -271 32 -271 257c0 190 184 342 331 452l-261 -10l11 75h380l-8 -55c-208 -145 -349 -276 -349 -431c0 -196 250 -77 250 -265c0 -56 -21 -101 -68 -144h-80z" />
    <glyph glyph-name="eta" unicode="&#x3b7;" horiz-adv-x="578" 
d="M469 0c-11 -73 -21 -147 -11 -220h-90c-10 73 0 147 11 220l42 302c15 103 -29 128 -87 128c-63 0 -151 -45 -172 -193l-33 -237h-90l70 500h90l-11 -81c34 44 92 91 178 91c102 0 167 -51 148 -188z" />
    <glyph glyph-name="theta" unicode="&#x3b8;" horiz-adv-x="580" 
d="M361 750c108 0 190 -78 190 -298c0 -282 -136 -462 -298 -462c-108 0 -190 78 -190 298c0 282 135 462 298 462zM350 675c-89 0 -162 -107 -187 -265h297c1 15 1 30 1 45c0 161 -44 220 -111 220zM264 65c92 0 167 114 190 280h-299c-1 -19 -2 -39 -2 -60
c0 -161 44 -220 111 -220z" />
    <glyph glyph-name="iota" unicode="&#x3b9;" horiz-adv-x="276" 
d="M192 63c7 0 14 1 23 2l-10 -70c-15 -3 -30 -5 -44 -5c-84 0 -116 55 -103 148l51 362h90l-51 -362c-7 -48 1 -75 44 -75z" />
    <glyph glyph-name="kappa" unicode="&#x3ba;" horiz-adv-x="522" 
d="M39 0l70 500h90l-70 -500h-90zM311 270l162 -270h-109l-159 265l212 235h106z" />
    <glyph glyph-name="lambda" unicode="&#x3bb;" horiz-adv-x="529" 
d="M474 63c4 0 9 1 14 2l-10 -70c-11 -3 -23 -5 -33 -5c-79 0 -101 69 -122 167l-46 210l-192 -367h-105l266 482c-23 96 -67 163 -145 163l12 85c125 0 193 -97 224 -230l78 -343c14 -59 26 -94 59 -94z" />
    <glyph glyph-name="uni03BC" unicode="&#x3bc;" horiz-adv-x="569" 
d="M440 500h90l-71 -500h-90l11 80c-33 -44 -92 -90 -172 -90c-29 0 -56 6 -78 18l-1 -8c-10 -73 -20 -147 -11 -220h-90c-9 73 1 147 11 220l71 500h90l-41 -292c-15 -105 28 -138 80 -138c59 0 146 45 167 193l-10 -75z" />
    <glyph glyph-name="nu" unicode="&#x3bd;" horiz-adv-x="487" 
d="M417 500h90c-23 -167 -107 -333 -252 -500h-75l-140 500h105l99 -387c96 115 154 252 173 387z" />
    <glyph glyph-name="xi" unicode="&#x3be;" horiz-adv-x="451" 
d="M243 -195c40 42 66 83 66 121c0 126 -275 31 -275 236c0 92 54 165 174 206c-57 25 -82 61 -82 108c0 63 44 123 147 155l-165 -6l10 75h380l-8 -55c-224 -14 -272 -93 -272 -153c0 -86 99 -98 198 -90l-10 -75c-210 0 -269 -63 -269 -139c0 -158 255 -48 255 -239
c0 -55 -21 -100 -69 -144h-80z" />
    <glyph glyph-name="omicron" unicode="&#x3bf;" horiz-adv-x="561" 
d="M245 -10c-115 0 -203 76 -203 222c0 177 129 298 274 298c115 0 203 -75 203 -222c0 -177 -129 -298 -274 -298zM254 65c94 0 165 90 165 220c0 106 -46 150 -113 150c-94 0 -164 -90 -164 -221c0 -106 46 -149 112 -149z" />
    <glyph glyph-name="pi" unicode="&#x3c0;" horiz-adv-x="583" 
d="M480 63c6 0 14 1 22 2l-10 -70c-14 -3 -30 -5 -43 -5c-84 0 -116 55 -103 148l40 287h-169c-23 -142 -56 -283 -127 -425h-90c71 142 111 283 136 425h-75l11 75h481l-11 -75h-66l-40 -287c-7 -48 1 -75 44 -75z" />
    <glyph glyph-name="rho" unicode="&#x3c1;" horiz-adv-x="580" 
d="M8 -220l66 470c23 163 135 260 273 260c123 0 191 -79 191 -214c0 -184 -125 -306 -259 -306c-66 0 -111 28 -140 78l-41 -288h-90zM278 65c88 0 160 88 160 223c0 102 -41 147 -109 147c-92 0 -168 -86 -168 -216c0 -107 53 -154 117 -154z" />
    <glyph glyph-name="uni03C2" unicode="&#x3c2;" horiz-adv-x="511" 
d="M284 -195c40 42 66 82 66 121c0 131 -310 40 -310 304c0 172 128 280 269 280c101 0 180 -57 179 -175h-85c-3 75 -54 100 -104 100c-89 0 -158 -76 -158 -185c0 -220 291 -108 291 -304c0 -53 -21 -98 -68 -141h-80z" />
    <glyph glyph-name="sigma" unicode="&#x3c3;" horiz-adv-x="582" 
d="M246 -10c-115 0 -203 76 -203 222c0 178 128 288 274 288h275l-11 -75h-124c37 -29 60 -83 60 -153c0 -169 -130 -282 -271 -282zM255 65c94 0 165 89 165 219c0 103 -47 141 -114 141c-94 0 -163 -78 -163 -210c0 -106 46 -150 112 -150z" />
    <glyph glyph-name="tau" unicode="&#x3c4;" horiz-adv-x="438" 
d="M437 425h-158l-40 -287c-7 -48 1 -75 44 -75c7 0 14 1 23 2l-10 -70c-15 -3 -30 -5 -44 -5c-84 0 -116 55 -103 148l40 287h-139l11 75h387z" />
    <glyph glyph-name="upsilon" unicode="&#x3c5;" horiz-adv-x="554" 
d="M484 500c13 -56 19 -107 19 -170c0 -204 -66 -340 -254 -340c-113 0 -185 50 -185 164c0 23 3 45 14 126c7 53 15 106 15 160c0 19 -1 40 -4 60h90c3 -20 4 -41 4 -60c0 -54 -8 -107 -15 -160c-9 -65 -12 -77 -12 -101c0 -76 33 -109 100 -109c122 0 158 115 158 236
c0 68 -11 131 -30 194h100z" />
    <glyph glyph-name="phi" unicode="&#x3c6;" horiz-adv-x="728" 
d="M518 510c111 0 170 -86 170 -205c0 -197 -161 -311 -327 -315l-29 -210h-80l29 210c-132 5 -238 82 -238 229c0 175 150 291 271 291l-9 -70c-75 -7 -167 -82 -167 -217c0 -114 64 -159 153 -163l38 262c19 138 104 188 189 188zM371 60c123 5 222 88 222 244
c0 86 -30 136 -90 136c-37 0 -81 -20 -94 -118z" />
    <glyph glyph-name="chi" unicode="&#x3c7;" horiz-adv-x="532" 
d="M384 -107c12 -33 29 -47 53 -47c6 0 13 1 20 3l-10 -70c-16 -6 -32 -9 -48 -9c-40 0 -77 19 -91 58l-77 225l-164 -273h-96l227 367l-81 235c-14 37 -22 57 -50 57c-6 0 -13 -1 -21 -3l9 70c13 2 28 4 43 4c43 0 79 -18 95 -63l81 -236l165 289h95l-229 -379z" />
    <glyph glyph-name="psi" unicode="&#x3c8;" horiz-adv-x="714" 
d="M656 500c21 -93 25 -172 14 -250c-26 -185 -158 -255 -319 -260l-30 -210h-80l30 210c-141 5 -254 75 -230 240l38 270h95l-38 -270c-19 -130 48 -165 145 -170l90 640h80l-90 -640c115 5 193 40 214 190c11 78 7 157 -19 250h100z" />
    <glyph glyph-name="omega" unicode="&#x3c9;" horiz-adv-x="779" 
d="M719 500c13 -55 19 -123 19 -180c0 -235 -104 -330 -225 -330c-64 0 -120 26 -148 89c-49 -64 -116 -89 -173 -89c-84 0 -154 51 -154 182c0 66 18 183 94 328h100c-71 -122 -102 -211 -102 -306c0 -91 29 -124 88 -124c68 0 110 45 127 150c8 47 11 98 11 150h100
c-13 -44 -32 -101 -33 -172c-2 -88 26 -128 88 -128c89 0 137 80 137 231c0 72 -11 134 -29 199h100z" />
    <glyph glyph-name="iotatonos" unicode="&#x3af;" horiz-adv-x="276" 
d="M136 580l60 160h105l-100 -160h-65zM192 63c7 0 14 1 23 2l-10 -70c-15 -3 -30 -5 -44 -5c-84 0 -116 55 -103 148l51 362h90l-51 -362c-7 -48 1 -75 44 -75z" />
    <glyph glyph-name="iotadieresis" unicode="&#x3ca;" horiz-adv-x="276" 
d="M71 615c-29 0 -49 22 -49 51c0 32 31 64 65 64c29 0 49 -23 49 -50c0 -35 -32 -65 -65 -65zM271 615c-29 0 -49 22 -49 51c0 32 31 64 65 64c29 0 49 -23 49 -50c0 -35 -32 -65 -65 -65zM192 63c7 0 14 1 23 2l-10 -70c-15 -3 -30 -5 -44 -5c-84 0 -116 55 -103 148
l51 362h90l-51 -362c-7 -48 1 -75 44 -75z" />
    <glyph glyph-name="iotadieresistonos" unicode="&#x390;" horiz-adv-x="276" 
d="M127 605l61 160h95l-91 -160h-65zM60 615c-31 0 -53 26 -49 58c5 30 34 57 65 57s54 -27 49 -57c-4 -32 -34 -58 -65 -58zM309 615c-31 0 -53 26 -49 58c5 30 34 57 65 57s54 -27 49 -57c-4 -32 -34 -58 -65 -58zM192 63c7 0 14 1 23 2l-10 -70c-15 -3 -30 -5 -44 -5
c-84 0 -116 55 -103 148l51 362h90l-51 -362c-7 -48 1 -75 44 -75z" />
    <glyph glyph-name="upsilontonos" unicode="&#x3cd;" horiz-adv-x="554" 
d="M269 580l60 160h105l-100 -160h-65zM484 500c13 -56 19 -107 19 -170c0 -204 -66 -340 -254 -340c-113 0 -185 50 -185 164c0 23 3 45 14 126c7 53 15 106 15 160c0 19 -1 40 -4 60h90c3 -20 4 -41 4 -60c0 -54 -8 -107 -15 -160c-9 -65 -12 -77 -12 -101
c0 -76 33 -109 100 -109c122 0 158 115 158 236c0 68 -11 131 -30 194h100z" />
    <glyph glyph-name="upsilondieresis" unicode="&#x3cb;" horiz-adv-x="554" 
d="M204 615c-29 0 -49 22 -49 51c0 32 31 64 65 64c29 0 49 -23 49 -50c0 -35 -32 -65 -65 -65zM404 615c-29 0 -49 22 -49 51c0 32 31 64 65 64c29 0 49 -23 49 -50c0 -35 -32 -65 -65 -65zM484 500c13 -56 19 -107 19 -170c0 -204 -66 -340 -254 -340
c-113 0 -185 50 -185 164c0 23 3 45 14 126c7 53 15 106 15 160c0 19 -1 40 -4 60h90c3 -20 4 -41 4 -60c0 -54 -8 -107 -15 -160c-9 -65 -12 -77 -12 -101c0 -76 33 -109 100 -109c122 0 158 115 158 236c0 68 -11 131 -30 194h100z" />
    <glyph glyph-name="upsilondieresistonos" unicode="&#x3b0;" horiz-adv-x="554" 
d="M260 605l61 160h95l-91 -160h-65zM193 615c-31 0 -53 26 -49 58c5 30 34 57 65 57s54 -27 49 -57c-4 -32 -34 -58 -65 -58zM442 615c-31 0 -53 26 -49 58c5 30 34 57 65 57s54 -27 49 -57c-4 -32 -34 -58 -65 -58zM484 500c13 -56 19 -107 19 -170
c0 -204 -66 -340 -254 -340c-113 0 -185 50 -185 164c0 23 3 45 14 126c7 53 15 106 15 160c0 19 -1 40 -4 60h90c3 -20 4 -41 4 -60c0 -54 -8 -107 -15 -160c-9 -65 -12 -77 -12 -101c0 -76 33 -109 100 -109c122 0 158 115 158 236c0 68 -11 131 -30 194h100z" />
    <glyph glyph-name="omicrontonos" unicode="&#x3cc;" horiz-adv-x="561" 
d="M297 580l60 160h105l-100 -160h-65zM245 -10c-115 0 -203 76 -203 222c0 177 129 298 274 298c115 0 203 -75 203 -222c0 -177 -129 -298 -274 -298zM254 65c94 0 165 90 165 220c0 106 -46 150 -113 150c-94 0 -164 -90 -164 -221c0 -106 46 -149 112 -149z" />
    <glyph glyph-name="omegatonos" unicode="&#x3ce;" horiz-adv-x="779" 
d="M406 580l60 160h105l-100 -160h-65zM719 500c13 -55 19 -123 19 -180c0 -235 -104 -330 -225 -330c-64 0 -120 26 -148 89c-49 -64 -116 -89 -173 -89c-84 0 -154 51 -154 182c0 66 18 183 94 328h100c-71 -122 -102 -211 -102 -306c0 -91 29 -124 88 -124
c68 0 110 45 127 150c8 47 11 98 11 150h100c-13 -44 -32 -101 -33 -172c-2 -88 26 -128 88 -128c89 0 137 80 137 231c0 72 -11 134 -29 199h100z" />
    <glyph glyph-name="alphatonos" unicode="&#x3ac;" horiz-adv-x="602" 
d="M465 740l-100 -160h-65l60 160h105zM521 63c7 0 14 1 20 2l-10 -70c-11 -3 -26 -5 -39 -5c-54 0 -95 36 -100 81c-42 -50 -95 -81 -163 -81c-107 0 -188 75 -188 212c0 160 110 308 261 308c66 0 109 -28 139 -77l9 67h85l-52 -372c-5 -39 1 -65 38 -65zM249 65
c73 0 148 62 166 185c2 15 3 30 3 44c0 93 -53 141 -118 141c-105 0 -159 -125 -159 -230c0 -96 45 -140 108 -140z" />
    <glyph glyph-name="epsilontonos" unicode="&#x3ad;" horiz-adv-x="448" 
d="M261 580l60 160h105l-100 -160h-65zM206 -10c-113 0 -180 43 -180 122c0 59 37 111 111 139c-48 23 -67 56 -67 102c0 99 89 157 214 157c59 0 114 -12 152 -30l-12 -85c-41 22 -88 40 -144 40c-74 0 -117 -31 -117 -87c0 -47 30 -63 136 -63l-9 -65
c-92 0 -167 -22 -167 -88c0 -47 38 -67 102 -67c63 0 123 20 169 40l-12 -85c-45 -18 -115 -30 -176 -30z" />
    <glyph glyph-name="etatonos" unicode="&#x3ae;" horiz-adv-x="578" 
d="M305 580l60 160h105l-100 -160h-65zM469 0c-11 -73 -21 -147 -11 -220h-90c-10 73 0 147 11 220l42 302c15 103 -29 128 -87 128c-63 0 -151 -45 -172 -193l-33 -237h-90l70 500h90l-11 -81c34 44 92 91 178 91c102 0 167 -51 148 -188z" />
    <glyph glyph-name="zero" unicode="0" horiz-adv-x="602" 
d="M364 710c133 0 202 -101 202 -284c0 -234 -114 -436 -300 -436c-132 0 -201 102 -201 284c0 234 113 436 299 436zM278 70c116 0 183 180 183 360c0 132 -35 200 -108 200c-117 0 -184 -180 -184 -360c0 -132 36 -200 109 -200z" />
    <glyph glyph-name="one" unicode="1" horiz-adv-x="503" 
d="M203 0l73 519c-46 -30 -111 -49 -163 -49l11 80c83 10 159 54 202 150h70l-98 -700h-95z" />
    <glyph glyph-name="two" unicode="2" horiz-adv-x="591" 
d="M14 0c39 280 439 282 439 524c0 59 -29 106 -107 106c-92 0 -145 -61 -158 -140h-95c20 142 131 220 264 220c122 0 197 -69 197 -180c0 -268 -363 -309 -404 -450h342l-11 -80h-467z" />
    <glyph glyph-name="three" unicode="3" horiz-adv-x="611" 
d="M267 -10c-149 0 -243 81 -221 240h99c-12 -98 32 -160 133 -160c95 0 155 55 155 134c0 69 -46 116 -161 116l12 80c145 0 180 68 180 131c0 55 -27 99 -107 99c-92 0 -146 -58 -160 -140h-95c20 139 125 220 268 220c118 0 196 -55 196 -160c0 -84 -50 -152 -144 -187
c77 -24 117 -71 117 -152c0 -143 -124 -221 -272 -221z" />
    <glyph glyph-name="four" unicode="4" horiz-adv-x="645" 
d="M582 256l-11 -80h-107l-25 -176h-95l25 176h-320l8 60l401 463h80l-63 -443h107zM170 256h210l42 296z" />
    <glyph glyph-name="five" unicode="5" horiz-adv-x="598" 
d="M333 440c109 0 198 -55 198 -191c0 -176 -151 -259 -275 -259c-112 0 -229 68 -208 220h100c-12 -93 50 -140 119 -140c80 0 158 62 158 167c0 85 -51 123 -123 123c-45 0 -95 -15 -146 -55l-72 20l103 375h369l-11 -80h-291l-61 -212c44 23 96 32 140 32z" />
    <glyph glyph-name="six" unicode="6" horiz-adv-x="606" 
d="M269 -10c-180 0 -222 161 -191 360c35 225 143 360 304 360c128 0 197 -84 185 -200h-95c2 69 -31 120 -99 120c-95 0 -176 -98 -199 -268c46 51 103 78 176 78c122 0 190 -78 190 -187c0 -143 -115 -263 -271 -263zM282 70c102 0 152 95 152 175c0 65 -32 115 -111 115
c-102 0 -150 -86 -150 -168c0 -68 32 -122 109 -122z" />
    <glyph glyph-name="seven" unicode="7" horiz-adv-x="557" 
d="M117 700h459l-5 -40c-173 -220 -287 -440 -347 -660h-100c63 207 156 413 321 620h-339z" />
    <glyph glyph-name="eight" unicode="8" horiz-adv-x="597" 
d="M263 -10c-136 0 -214 67 -214 174c0 99 66 166 154 202c-47 21 -86 63 -86 136c0 117 98 208 246 208c126 0 195 -66 195 -163c0 -89 -57 -152 -132 -181c61 -28 104 -76 104 -156c0 -127 -108 -220 -267 -220zM320 400c80 0 136 56 136 131c0 62 -39 99 -104 99
c-80 0 -136 -56 -136 -131c0 -62 39 -99 104 -99zM274 70c88 0 153 66 153 147c0 66 -43 113 -118 113c-89 0 -152 -66 -152 -147c0 -66 43 -113 117 -113z" />
    <glyph glyph-name="nine" unicode="9" horiz-adv-x="607" 
d="M363 710c185 0 224 -157 194 -360c-32 -213 -122 -360 -300 -360c-135 0 -200 85 -189 200h95c-1 -69 28 -120 104 -120c105 0 172 98 190 268c-46 -51 -99 -78 -172 -78c-122 0 -190 75 -190 191c0 153 116 259 268 259zM352 630c-100 0 -151 -87 -151 -172
c0 -68 32 -118 111 -118c103 0 150 86 150 168c0 68 -31 122 -110 122z" />
    <glyph glyph-name="fraction" unicode="&#x2044;" horiz-adv-x="528" 
d="M472 757l50 -29l-439 -785l-48 29z" />
    <glyph glyph-name="onehalf" unicode="&#xbd;" horiz-adv-x="963" 
d="M618 757l50 -29l-439 -785l-48 29zM173 266l45 322c-28 -18 -69 -30 -101 -30l7 50c52 6 99 33 125 93h44l-61 -435h-59zM564 0c24 174 272 175 272 325c0 37 -18 66 -66 66c-57 0 -90 -38 -98 -87h-59c12 88 81 137 164 137c75 0 122 -43 122 -112
c0 -166 -225 -192 -251 -279h213l-7 -50h-290z" />
    <glyph glyph-name="onequarter" unicode="&#xbc;" horiz-adv-x="996" 
d="M618 757l50 -29l-439 -785l-48 29zM173 266l45 322c-28 -18 -69 -30 -101 -30l7 50c52 6 99 33 125 93h44l-61 -435h-59zM909 159l-6 -50h-67l-15 -109h-59l15 109h-199l5 38l249 287h50l-39 -275h66zM654 159h130l26 184z" />
    <glyph glyph-name="threequarters" unicode="&#xbe;" horiz-adv-x="1098" 
d="M729 757l50 -29l-439 -785l-48 29zM233 253c-93 0 -151 50 -137 149h61c-7 -61 20 -100 83 -100c59 0 96 35 96 84c0 43 -29 72 -100 72l7 49c90 0 112 43 112 82c0 34 -17 61 -66 61c-57 0 -91 -36 -100 -87h-59c13 87 78 137 167 137c73 0 121 -34 121 -99
c0 -53 -31 -95 -89 -117c48 -14 73 -44 73 -94c0 -89 -77 -137 -169 -137zM1011 159l-6 -50h-67l-15 -109h-59l15 109h-199l5 38l249 287h50l-39 -275h66zM756 159h130l26 184z" />
    <glyph glyph-name="oneeighth" unicode="&#x215b;" horiz-adv-x="1000" 
d="M618 757l50 -29l-439 -785l-48 29zM173 266l45 322c-28 -18 -69 -30 -101 -30l7 50c52 6 99 33 125 93h44l-61 -435h-59zM741 -10c-84 0 -133 41 -133 108c0 61 41 103 96 125c-29 13 -53 39 -53 85c0 72 61 129 152 129c79 0 122 -41 122 -101c0 -56 -36 -95 -82 -113
c37 -17 64 -47 64 -97c0 -78 -67 -136 -166 -136zM777 244c49 0 84 35 84 82c0 38 -24 61 -64 61c-50 0 -85 -35 -85 -81c0 -39 24 -62 65 -62zM748 39c55 0 95 41 95 92c0 41 -27 70 -73 70c-55 0 -95 -41 -95 -91c0 -41 27 -71 73 -71z" />
    <glyph glyph-name="threeeighths" unicode="&#x215c;" horiz-adv-x="1078" 
d="M705 757l50 -29l-439 -785l-48 29zM208 253c-93 0 -151 50 -137 149h61c-7 -61 20 -100 83 -100c59 0 96 35 96 84c0 43 -29 72 -100 72l7 49c90 0 112 43 112 82c0 34 -17 61 -66 61c-57 0 -91 -36 -100 -87h-59c13 87 78 137 167 137c73 0 121 -34 121 -99
c0 -53 -31 -95 -89 -117c48 -14 73 -44 73 -94c0 -89 -77 -137 -169 -137zM829 -10c-84 0 -133 41 -133 108c0 61 41 103 96 125c-29 13 -53 39 -53 85c0 72 61 129 152 129c79 0 122 -41 122 -101c0 -56 -36 -95 -82 -113c37 -17 64 -47 64 -97c0 -78 -67 -136 -166 -136z
M865 244c49 0 84 35 84 82c0 38 -24 61 -64 61c-50 0 -85 -35 -85 -81c0 -39 24 -62 65 -62zM836 39c55 0 95 41 95 92c0 41 -27 70 -73 70c-55 0 -95 -41 -95 -91c0 -41 27 -71 73 -71z" />
    <glyph glyph-name="fiveeighths" unicode="&#x215d;" horiz-adv-x="1078" 
d="M705 757l50 -29l-439 -785l-48 29zM252 538c67 0 123 -34 123 -118c0 -110 -94 -161 -171 -161c-70 0 -142 42 -129 136h62c-8 -57 31 -87 74 -87c49 0 98 39 98 104c0 53 -32 77 -76 77c-28 0 -59 -10 -91 -35l-45 13l64 233h229l-7 -50h-180l-38 -132
c27 15 59 20 87 20zM829 -10c-84 0 -133 41 -133 108c0 61 41 103 96 125c-29 13 -53 39 -53 85c0 72 61 129 152 129c79 0 122 -41 122 -101c0 -56 -36 -95 -82 -113c37 -17 64 -47 64 -97c0 -78 -67 -136 -166 -136zM865 244c49 0 84 35 84 82c0 38 -24 61 -64 61
c-50 0 -85 -35 -85 -81c0 -39 24 -62 65 -62zM836 39c55 0 95 41 95 92c0 41 -27 70 -73 70c-55 0 -95 -41 -95 -91c0 -41 27 -71 73 -71z" />
    <glyph glyph-name="seveneighths" unicode="&#x215e;" horiz-adv-x="953" 
d="M600 757l50 -29l-439 -785l-48 29zM118 700h285l-3 -25c-108 -137 -179 -273 -216 -410h-62c39 129 97 256 199 385h-210zM724 -10c-84 0 -133 41 -133 108c0 61 41 103 96 125c-29 13 -53 39 -53 85c0 72 61 129 152 129c79 0 122 -41 122 -101c0 -56 -36 -95 -82 -113
c37 -17 64 -47 64 -97c0 -78 -67 -136 -166 -136zM760 244c49 0 84 35 84 82c0 38 -24 61 -64 61c-50 0 -85 -35 -85 -81c0 -39 24 -62 65 -62zM731 39c55 0 95 41 95 92c0 41 -27 70 -73 70c-55 0 -95 -41 -95 -91c0 -41 27 -71 73 -71z" />
    <glyph glyph-name="zero.dnom" horiz-adv-x="415" 
d="M233 437c83 0 125 -63 125 -176c0 -146 -70 -271 -186 -271c-82 0 -125 63 -125 176c0 145 71 271 186 271zM180 39c72 0 113 112 113 224c0 82 -21 124 -67 124c-72 0 -114 -112 -114 -223c0 -82 22 -125 68 -125z" />
    <glyph glyph-name="one.dnom" horiz-adv-x="409" 
d="M144 0l45 322c-28 -18 -69 -30 -101 -30l7 50c52 6 99 33 125 93h44l-61 -435h-59z" />
    <glyph glyph-name="two.dnom" horiz-adv-x="414" 
d="M15 0c24 174 272 175 272 325c0 37 -18 66 -66 66c-57 0 -90 -38 -98 -87h-59c12 88 81 137 164 137c75 0 122 -43 122 -112c0 -166 -225 -192 -251 -279h213l-7 -50h-290z" />
    <glyph glyph-name="three.dnom" horiz-adv-x="422" 
d="M171 -10c-93 0 -151 50 -137 149h61c-7 -61 20 -100 83 -100c59 0 96 35 96 84c0 43 -29 72 -100 72l7 49c90 0 112 43 112 82c0 34 -17 61 -66 61c-57 0 -91 -36 -100 -87h-59c13 87 78 137 167 137c73 0 121 -34 121 -99c0 -53 -31 -95 -89 -117c48 -14 73 -44 73 -94
c0 -89 -77 -137 -169 -137z" />
    <glyph glyph-name="four.dnom" horiz-adv-x="447" 
d="M370 159l-6 -50h-67l-15 -109h-59l15 109h-199l5 38l249 287h50l-39 -275h66zM115 159h130l26 184z" />
    <glyph glyph-name="five.dnom" horiz-adv-x="416" 
d="M214 269c67 0 123 -34 123 -118c0 -110 -94 -161 -171 -161c-70 0 -142 42 -129 136h62c-8 -57 31 -87 74 -87c49 0 98 39 98 104c0 53 -32 77 -76 77c-28 0 -59 -10 -91 -35l-45 13l64 233h229l-7 -50h-180l-38 -132c27 15 59 20 87 20z" />
    <glyph glyph-name="six.dnom" horiz-adv-x="439" 
d="M178 -10c-112 0 -138 100 -119 223c22 140 89 224 189 224c80 0 123 -52 115 -124h-59c1 43 -19 74 -61 74c-59 0 -110 -61 -124 -166c29 31 64 48 109 48c76 0 118 -48 118 -116c0 -89 -71 -163 -168 -163zM186 39c63 0 95 59 95 109c0 41 -20 72 -69 72
c-64 0 -94 -54 -94 -105c0 -42 20 -76 68 -76z" />
    <glyph glyph-name="seven.dnom" horiz-adv-x="384" 
d="M81 435h285l-3 -25c-108 -137 -179 -273 -216 -410h-62c39 129 97 256 199 385h-210z" />
    <glyph glyph-name="eight.dnom" horiz-adv-x="416" 
d="M172 -10c-84 0 -133 41 -133 108c0 61 41 103 96 125c-29 13 -53 39 -53 85c0 72 61 129 152 129c79 0 122 -41 122 -101c0 -56 -36 -95 -82 -113c37 -17 64 -47 64 -97c0 -78 -67 -136 -166 -136zM208 244c49 0 84 35 84 82c0 38 -24 61 -64 61c-50 0 -85 -35 -85 -81
c0 -39 24 -62 65 -62zM179 39c55 0 95 41 95 92c0 41 -27 70 -73 70c-55 0 -95 -41 -95 -91c0 -41 27 -71 73 -71z" />
    <glyph glyph-name="nine.dnom" horiz-adv-x="440" 
d="M236 437c115 0 140 -98 121 -224c-20 -132 -76 -223 -186 -223c-84 0 -125 53 -118 124h59c0 -43 18 -75 65 -75c65 0 107 61 118 167c-29 -32 -62 -49 -107 -49c-76 0 -118 47 -118 119c0 95 72 161 166 161zM230 387c-63 0 -94 -54 -94 -107c0 -42 20 -73 69 -73
c64 0 93 54 93 104c0 43 -19 76 -68 76z" />
    <glyph glyph-name="zero.numr" horiz-adv-x="415" 
d="M271 710c83 0 125 -63 125 -176c0 -146 -70 -271 -186 -271c-82 0 -125 63 -125 176c0 145 71 271 186 271zM218 312c72 0 113 112 113 224c0 82 -21 124 -67 124c-72 0 -114 -112 -114 -223c0 -82 22 -125 68 -125z" />
    <glyph glyph-name="one.numr" horiz-adv-x="408" 
d="M181 266l45 322c-28 -18 -69 -30 -101 -30l7 50c52 6 99 33 125 93h44l-61 -435h-59z" />
    <glyph glyph-name="two.numr" horiz-adv-x="600" 
d="M28 270c24 174 272 175 272 325c0 37 -18 66 -66 66c-57 0 -90 -38 -98 -87h-59c12 88 81 137 164 137c75 0 122 -43 122 -112c0 -166 -225 -192 -251 -279h213l-7 -50h-290z" />
    </font>
</defs>
</svg>
